<?xml version="1.0" standalone="no"?>
<!DOCTYPE svg PUBLIC "-//W3C//DTD SVG 1.1//EN" "http://www.w3.org/Graphics/SVG/1.1/DTD/svg11.dtd" >
<svg xmlns="http://www.w3.org/2000/svg" xmlns:xlink="http://www.w3.org/1999/xlink" version="1.1">
<metadata>
Created by FontForge 20170731 at Sat Aug  5 00:30:56 2023
 By Aleksey,,,
Atype Studio
</metadata>
<defs>
<font id="GHAITHSANS-Regular" horiz-adv-x="0" >
  <font-face 
    font-family="GHAITHSANS"
    font-weight="400"
    font-stretch="normal"
    units-per-em="2048"
    panose-1="0 0 0 0 0 0 0 0 0 0"
    ascent="1638"
    descent="-410"
    x-height="946"
    cap-height="1436"
    bbox="-263 -1107 5902 2404.22"
    underline-thickness="102"
    underline-position="-357"
    unicode-range="U+0020-FF5D"
  />
<missing-glyph horiz-adv-x="994" 
d="M73 1506h848v-1497h-848v1497zM224 212h546v1091h-546v-1091z" />
    <glyph glyph-name="fi" unicode="fi" horiz-adv-x="1272" 
d="M845 1426v-214h-185q-170 0 -235 -53t-65 -179v-227h770v-753h-72v609h-698v-607h-72v607h-216v144h216v227q0 211 91.5 328.5t280.5 117.5h185zM958 1015l121 120l120 -120l-121 -121z" />
    <glyph glyph-name="fl" unicode="fl" horiz-adv-x="1558" 
d="M845 1465v-215h-185q-170 0 -235 -53t-65 -179v-225h666l1 643h72v-877q0 -79 3 -129.5t15.5 -90.5t30 -60.5t52 -34t74.5 -17t106 -3.5h106v-214h-106q-97 0 -160.5 24.5t-109 86.5t-65 168.5t-19.5 269.5v91h-666v-648h-72v648h-216v143h216v225q0 211 91.5 329
t280.5 118h185z" />
    <glyph glyph-name="uni0622.fina" unicode="&#x622;" horiz-adv-x="494" arabic-form="final" 
d="M504 224q44 0 75.5 -31.5t31.5 -75.5t-31.5 -75.5t-75.5 -31.5h-40q-169 0 -251 119t-82 373v934h72v-934q0 -168 51.5 -223t209.5 -55h40zM-155 1678v73q75 32 146 36t127 -8t113 -23.5t129.5 -3.5t151.5 46v-74q-80 -37 -153.5 -44t-131 4.5t-113.5 23.5t-125.5 7.5
t-143.5 -37.5z" />
    <glyph glyph-name="uni0623.fina" unicode="&#x623;" horiz-adv-x="494" arabic-form="final" 
d="M504 224q44 0 75.5 -31.5t31.5 -75.5t-31.5 -75.5t-75.5 -31.5h-40q-169 0 -251 119t-82 373v934h72v-934q0 -168 51.5 -223t209.5 -55h40zM-15 1589v92h99q-23 42 -21 92t29 89.5t79.5 56.5t131.5 -6v-74q-119 41 -177 -10q-38 -34 -24 -83q14 -46 66 -65h212v-92h-395z
" />
    <glyph glyph-name="uni0624.fina" unicode="&#x624;" horiz-adv-x="883" arabic-form="final" 
d="M174 394q-1 -95 72.5 -132.5t241.5 -37.5h240v33q0 198 -77 287t-223 89q-116 0 -182 -68t-72 -171zM87 -483v164h169q94 0 168.5 14.5t140.5 50t107 102t52 162.5h-236q-191 0 -287.5 88t-98.5 274q0 106 40 199.5t115.5 152t170.5 58.5q161 0 266.5 -132.5
t105.5 -392.5v-33h93q44 0 75.5 -31.5t31.5 -75.5t-31.5 -75.5t-75.5 -31.5h-95q-8 -117 -44.5 -206.5t-88.5 -143t-123 -86.5t-139 -45t-147 -12h-169zM234 942v92h99q-23 42 -21 92t29 89.5t79.5 56.5t131.5 -6v-74q-119 41 -177 -10q-38 -34 -24 -83q14 -46 66 -65h212
v-92h-395z" />
    <glyph glyph-name="uni0625.fina" unicode="&#x625;" horiz-adv-x="494" arabic-form="final" 
d="M504 224q44 0 75.5 -31.5t31.5 -75.5t-31.5 -75.5t-75.5 -31.5h-40q-169 0 -251 119t-82 373v934h72v-934q0 -168 51.5 -223t209.5 -55h40zM39 -432v92h99q-23 42 -21 92t29 89.5t79.5 56.5t131.5 -6v-74q-119 41 -177 -10q-38 -34 -24 -83q14 -46 66 -65h212v-92h-395z
" />
    <glyph glyph-name="uni0626.init" unicode="&#x626;" horiz-adv-x="468" arabic-form="initial" 
d="M-9 10q-44 0 -75.5 31.5t-31.5 75.5t31.5 75.5t75.5 31.5h97q77 0 120.5 7.5t70 32t34.5 62t8 104.5v347h72v-347q0 -218 -73 -319t-232 -101h-97zM68 992v92h99q-23 42 -21 92t29 89.5t79.5 56.5t131.5 -6v-74q-119 41 -177 -10q-38 -34 -24 -83q14 -46 66 -65h212v-92
h-395z" />
    <glyph glyph-name="uni0626.medi" unicode="&#x626;" horiz-adv-x="638" arabic-form="medial" 
d="M365 460q0 -139 57.5 -187.5t225.5 -48.5q44 0 75.5 -31.5t31.5 -75.5t-31.5 -75.5t-75.5 -31.5q-266 0 -332 240q-43 -126 -116 -183t-179 -57h-30q-44 0 -75.5 31.5t-31.5 75.5t31.5 75.5t75.5 31.5h30q115 0 172.5 39t84.5 143t32 314h72q-3 -139 -19 -260h2zM150 890
v91h99q-23 42 -21 92t29 89.5t79.5 56.5t131.5 -6v-73q-118 40 -176 -10q-39 -34 -25 -83q13 -46 66 -66h212v-91h-395z" />
    <glyph glyph-name="uni0626.fina" unicode="&#x626;" horiz-adv-x="1438" arabic-form="final" 
d="M826 366q200 -85 326.5 -113.5t295.5 -28.5q44 0 75.5 -31.5t31.5 -75.5t-31.5 -75.5t-75.5 -31.5q-126 0 -212 13q1 -139 -40 -243t-115 -165t-168 -90.5t-208 -29.5q-166 0 -286.5 43.5t-191.5 124.5t-109.5 197t-40.5 261.5t16 316.5h74q-35 -264 -7 -432.5
t156.5 -247.5t388.5 -79q226 0 341.5 84.5t115.5 274.5q-124 29 -364 130zM201 618v91h99q-23 42 -21 92t29 89.5t79.5 56.5t131.5 -6v-73q-118 40 -176 -10q-39 -34 -26 -83q15 -46 66 -66h213v-91h-395z" />
    <glyph glyph-name="uni0627.fina" unicode="&#x627;" horiz-adv-x="494" arabic-form="final" 
d="M504 224q44 0 75.5 -31.5t31.5 -75.5t-31.5 -75.5t-75.5 -31.5h-40q-169 0 -251 119t-82 373v934h72v-934q0 -168 51.5 -223t209.5 -55h40z" />
    <glyph glyph-name="uni0628.init" unicode="&#x628;" horiz-adv-x="468" arabic-form="initial" 
d="M-9 10q-44 0 -75.5 31.5t-31.5 75.5t31.5 75.5t75.5 31.5h97q77 0 120.5 7.5t70 32t34.5 62t8 104.5v347h72v-347q0 -218 -73 -319t-232 -101h-97zM117 -260l121 121l121 -121l-121 -121z" />
    <glyph glyph-name="uni0628.medi" unicode="&#x628;" horiz-adv-x="638" arabic-form="medial" 
d="M365 460q0 -139 57.5 -187.5t225.5 -48.5q44 0 75.5 -31.5t31.5 -75.5t-31.5 -75.5t-75.5 -31.5q-266 0 -332 240q-43 -126 -116 -183t-179 -57h-30q-44 0 -75.5 31.5t-31.5 75.5t31.5 75.5t75.5 31.5h30q115 0 172.5 39t84.5 143t32 314h72q-3 -139 -19 -260h2z
M194 -260l121 121l121 -121l-121 -121z" />
    <glyph glyph-name="uni0628.fina" unicode="&#x628;" horiz-adv-x="1748" arabic-form="final" 
d="M1525 426q0 -110 56.5 -157t176.5 -45q44 0 75.5 -31.5t31.5 -75.5t-31.5 -75.5t-75.5 -31.5q-93 -2 -164.5 50.5t-108.5 154.5q-41 -97 -119.5 -151t-186.5 -54h-620q-58 0 -103 3t-97 14t-90.5 29.5t-76 51t-61.5 77.5t-39.5 110.5t-16.5 148.5v8v11q6 178 98 341
l62 -36q-85 -149 -88 -313q1 -60 21.5 -102t53 -67t87.5 -39t111.5 -18.5t138.5 -4.5h620q144 0 208.5 52t64.5 151v407h73v-407v-1zM704 -260l121 121l120 -121l-121 -121z" />
    <glyph glyph-name="uni0629.fina" unicode="&#x629;" horiz-adv-x="1124" arabic-form="final" 
d="M807 510q0 84 -94.5 148.5t-230.5 64.5q-91 0 -157.5 -20.5t-103.5 -57.5t-55 -82.5t-19 -101.5q5 -201 331 -201q184 0 256.5 54.5t72.5 175.5v20zM75 452v8v8q2 80 27 150t72 128t126.5 92t181.5 34q94 0 181 -41.5t144 -113.5v194h72v-450q0 -75 8.5 -118t35.5 -71.5
t71.5 -38t120.5 -9.5h19q44 0 75.5 -31.5t31.5 -75.5t-31.5 -75.5t-75.5 -31.5h-19q-223 0 -284 231q-93 -196 -353 -196q-101 0 -179 32t-125 89t-72 129t-27 157zM257 1170l121 120l121 -120l-121 -121zM514 1169l122 120l120 -120l-121 -121z" />
    <glyph glyph-name="uni062A.init" unicode="&#x62a;" horiz-adv-x="539" arabic-form="initial" 
d="M-9 10q-44 0 -75.5 31.5t-31.5 75.5t31.5 75.5t75.5 31.5h97q77 0 120.5 7.5t70 32t34.5 62t8 104.5v347h72v-347q0 -218 -73 -319t-232 -101h-97zM23 1108l116 116l117 -116l-118 -117zM270 1107l117 116l116 -116l-116 -117z" />
    <glyph glyph-name="uni062A.medi" unicode="&#x62a;" horiz-adv-x="638" arabic-form="medial" 
d="M365 460q0 -139 57.5 -187.5t225.5 -48.5q44 0 75.5 -31.5t31.5 -75.5t-31.5 -75.5t-75.5 -31.5q-266 0 -332 240q-43 -126 -116 -183t-179 -57h-30q-44 0 -75.5 31.5t-31.5 75.5t31.5 75.5t75.5 31.5h30q115 0 172.5 39t84.5 143t32 314h72q-3 -139 -19 -260h2zM114 990
l116 117l117 -117l-118 -116zM361 990l117 116l116 -116l-116 -117z" />
    <glyph glyph-name="uni062A.fina" unicode="&#x62a;" horiz-adv-x="1748" arabic-form="final" 
d="M1525 426q0 -110 56.5 -157t176.5 -45q44 0 75.5 -31.5t31.5 -75.5t-31.5 -75.5t-75.5 -31.5q-93 -2 -164.5 50.5t-108.5 154.5q-41 -97 -119.5 -151t-186.5 -54h-620q-58 0 -103 3t-97 14t-90.5 29.5t-76 51t-61.5 77.5t-39.5 110.5t-16.5 148.5v8v11q6 178 98 341
l62 -36q-85 -149 -88 -313q1 -60 21.5 -102t53 -67t87.5 -39t111.5 -18.5t138.5 -4.5h620q144 0 208.5 52t64.5 151v407h73v-407v-1zM582 1017l121 120l120 -120l-121 -122zM839 1016l121 120l121 -120l-122 -121z" />
    <glyph glyph-name="uni062B.init" unicode="&#x62b;" horiz-adv-x="543" arabic-form="initial" 
d="M-9 10q-44 0 -75.5 31.5t-31.5 75.5t31.5 75.5t75.5 31.5h97q77 0 120.5 7.5t70 32t34.5 62t8 104.5v347h72v-347q0 -218 -73 -319t-232 -101h-97zM26 1118l121 121l121 -121l-121 -121zM155 1337l121 120l120 -120l-121 -121zM283 1117l123 121l120 -121l-121 -121z" />
    <glyph glyph-name="uni062B.medi" unicode="&#x62b;" horiz-adv-x="638" arabic-form="medial" 
d="M365 460q0 -139 57.5 -187.5t225.5 -48.5q44 0 75.5 -31.5t31.5 -75.5t-31.5 -75.5t-75.5 -31.5q-266 0 -332 240q-43 -126 -116 -183t-179 -57h-30q-44 0 -75.5 31.5t-31.5 75.5t31.5 75.5t75.5 31.5h30q115 0 172.5 39t84.5 143t32 314h72q-3 -139 -19 -260h2z
M117 1004l117 117l116 -117l-117 -116zM241 1215l117 116l116 -116l-117 -116zM365 1004l117 116l116 -116l-117 -117z" />
    <glyph glyph-name="uni062B.fina" unicode="&#x62b;" horiz-adv-x="1748" arabic-form="final" 
d="M1525 426q0 -110 56.5 -157t176.5 -45q44 0 75.5 -31.5t31.5 -75.5t-31.5 -75.5t-75.5 -31.5q-93 -2 -164.5 50.5t-108.5 154.5q-41 -97 -119.5 -151t-186.5 -54h-620q-58 0 -103 3t-97 14t-90.5 29.5t-76 51t-61.5 77.5t-39.5 110.5t-16.5 148.5v8v11q6 178 98 341
l62 -36q-85 -149 -88 -313q1 -60 21.5 -102t53 -67t87.5 -39t111.5 -18.5t138.5 -4.5h620q144 0 208.5 52t64.5 151v407h73v-407v-1zM585 1031l121 121l121 -121l-122 -121zM714 1250l121 121l120 -121l-121 -121zM842 1031l122 120l121 -120l-122 -122z" />
    <glyph glyph-name="uni062C.init" unicode="&#x62c;" horiz-adv-x="1261" arabic-form="initial" 
d="M1189 401q-144 -106 -281.5 -182t-239 -115.5t-209 -61.5t-173 -27t-148.5 -5h-147q-44 0 -75.5 31.5t-31.5 75.5t31.5 75.5t75.5 31.5h147q498 0 922 266q-105 25 -198.5 65.5t-242.5 123.5q-74 41 -143.5 55t-131.5 2.5t-113.5 -36t-106.5 -64.5v118q62 41 117 64
t120 31.5t137.5 -9.5t153.5 -63q165 -91 271 -131t265 -68h1v-177zM468 -226l121 120l120 -120l-121 -121z" />
    <glyph glyph-name="uni062C.medi" unicode="&#x62c;" horiz-adv-x="1400" arabic-form="medial" 
d="M1189 401q-80 -58 -149 -103q133 -74 347 -74h22q44 0 75.5 -31.5t31.5 -75.5t-31.5 -75.5t-75.5 -31.5h-22q-154 0 -258.5 44.5t-211.5 169.5q-125 -71 -240.5 -117t-216.5 -65.5t-170 -25.5t-152 -6h-147q-44 0 -75.5 31.5t-31.5 75.5t31.5 75.5t75.5 31.5h147
q498 0 922 266q-105 25 -198.5 65.5t-242.5 123.5q-74 41 -143.5 55t-131.5 2.5t-113.5 -36t-106.5 -64.5v118q62 41 117 64t120 31.5t137.5 -9.5t153.5 -63q165 -91 271 -131t265 -68h1v-177zM535 -203l121 120l121 -120l-122 -121z" />
    <glyph glyph-name="uni062C.fina" unicode="&#x62c;" horiz-adv-x="1439" arabic-form="final" 
d="M1253 594v-213l-190 -43q128 -114 344 -114h41q44 0 76 -31.5t32 -75.5t-32 -75.5t-76 -31.5h-41q-94 0 -171.5 26.5t-151.5 95.5t-132 181l-17 -4q-219 -50 -375 -111.5t-246.5 -133t-130 -148.5t-36.5 -167q4 -69 37.5 -128t103.5 -110.5t179 -79.5t265.5 -35t362.5 24
v-143q-215 -31 -381 -19t-284.5 50.5t-196 107t-115.5 150.5t-43 181q-8 285 203 479.5t640 292.5l113 25q-70 33 -201 119t-174 112q-67 40 -132.5 54t-132 2t-125.5 -36.5t-133 -67.5v127q80 44 141 67.5t131 33t141 -9t148 -65.5q54 -32 141 -90t135 -87.5t125 -58.5
t157 -37l-1 -13h2zM732 -188l122 121l120 -121l-121 -121z" />
    <glyph glyph-name="uni062D.init" unicode="&#x62d;" horiz-adv-x="1261" arabic-form="initial" 
d="M1189 401q-144 -106 -281.5 -182t-239 -115.5t-209 -61.5t-173 -27t-148.5 -5h-147q-44 0 -75.5 31.5t-31.5 75.5t31.5 75.5t75.5 31.5h147q498 0 922 266q-105 25 -198.5 65.5t-242.5 123.5q-74 41 -143.5 55t-131.5 2.5t-113.5 -36t-106.5 -64.5v118q62 41 117 64
t120 31.5t137.5 -9.5t153.5 -63q165 -91 271 -131t265 -68h1v-177z" />
    <glyph glyph-name="uni062D.medi" unicode="&#x62d;" horiz-adv-x="1400" arabic-form="medial" 
d="M1189 401q-80 -58 -149 -103q133 -74 347 -74h22q44 0 75.5 -31.5t31.5 -75.5t-31.5 -75.5t-75.5 -31.5h-22q-154 0 -258.5 44.5t-211.5 169.5q-125 -71 -240.5 -117t-216.5 -65.5t-170 -25.5t-152 -6h-147q-44 0 -75.5 31.5t-31.5 75.5t31.5 75.5t75.5 31.5h147
q498 0 922 266q-105 25 -198.5 65.5t-242.5 123.5q-74 41 -143.5 55t-131.5 2.5t-113.5 -36t-106.5 -64.5v118q62 41 117 64t120 31.5t137.5 -9.5t153.5 -63q165 -91 271 -131t265 -68h1v-177z" />
    <glyph glyph-name="uni062D.fina" unicode="&#x62d;" horiz-adv-x="1439" arabic-form="final" 
d="M1253 594v-213l-190 -43q128 -114 344 -114h41q44 0 76 -31.5t32 -75.5t-32 -75.5t-76 -31.5h-41q-94 0 -171.5 26.5t-151.5 95.5t-132 181l-17 -4q-219 -50 -375 -111.5t-246.5 -133t-130 -148.5t-36.5 -167q4 -69 37.5 -128t103.5 -110.5t179 -79.5t265.5 -35t362.5 24
v-143q-215 -31 -381 -19t-284.5 50.5t-196 107t-115.5 150.5t-43 181q-8 285 203 479.5t640 292.5l113 25q-70 33 -201 119t-174 112q-67 40 -132.5 54t-132 2t-125.5 -36.5t-133 -67.5v127q80 44 141 67.5t131 33t141 -9t148 -65.5q54 -32 141 -90t135 -87.5t125 -58.5
t157 -37l-1 -13h2z" />
    <glyph glyph-name="uni062E.init" unicode="&#x62e;" horiz-adv-x="1261" arabic-form="initial" 
d="M1189 401q-144 -106 -281.5 -182t-239 -115.5t-209 -61.5t-173 -27t-148.5 -5h-147q-44 0 -75.5 31.5t-31.5 75.5t31.5 75.5t75.5 31.5h147q498 0 922 266q-105 25 -198.5 65.5t-242.5 123.5q-74 41 -143.5 55t-131.5 2.5t-113.5 -36t-106.5 -64.5v118q62 41 117 64
t120 31.5t137.5 -9.5t153.5 -63q165 -91 271 -131t265 -68h1v-177zM294 1189l121 121l121 -121l-121 -121z" />
    <glyph glyph-name="uni062E.medi" unicode="&#x62e;" horiz-adv-x="1400" arabic-form="medial" 
d="M1189 401q-80 -58 -149 -103q133 -74 347 -74h22q44 0 75.5 -31.5t31.5 -75.5t-31.5 -75.5t-75.5 -31.5h-22q-154 0 -258.5 44.5t-211.5 169.5q-125 -71 -240.5 -117t-216.5 -65.5t-170 -25.5t-152 -6h-147q-44 0 -75.5 31.5t-31.5 75.5t31.5 75.5t75.5 31.5h147
q498 0 922 266q-105 25 -198.5 65.5t-242.5 123.5q-74 41 -143.5 55t-131.5 2.5t-113.5 -36t-106.5 -64.5v118q62 41 117 64t120 31.5t137.5 -9.5t153.5 -63q165 -91 271 -131t265 -68h1v-177zM346 1181l121 121l120 -121l-121 -121z" />
    <glyph glyph-name="uni062E.fina" unicode="&#x62e;" horiz-adv-x="1439" arabic-form="final" 
d="M1253 594v-213l-190 -43q128 -114 344 -114h41q44 0 76 -31.5t32 -75.5t-32 -75.5t-76 -31.5h-41q-94 0 -171.5 26.5t-151.5 95.5t-132 181l-17 -4q-219 -50 -375 -111.5t-246.5 -133t-130 -148.5t-36.5 -167q4 -69 37.5 -128t103.5 -110.5t179 -79.5t265.5 -35t362.5 24
v-143q-215 -31 -381 -19t-284.5 50.5t-196 107t-115.5 150.5t-43 181q-8 285 203 479.5t640 292.5l113 25q-70 33 -201 119t-174 112q-67 40 -132.5 54t-132 2t-125.5 -36.5t-133 -67.5v127q80 44 141 67.5t131 33t141 -9t148 -65.5q54 -32 141 -90t135 -87.5t125 -58.5
t157 -37l-1 -13h2zM338 1274l121 120l120 -120l-121 -121z" />
    <glyph glyph-name="uni062F.fina" unicode="&#x62f;" horiz-adv-x="1033" arabic-form="final" 
d="M815 410q-2 -70 -12 -121q73 -65 223 -65h17q44 0 75.5 -31.5t31.5 -75.5t-31.5 -75.5t-75.5 -31.5h-17q-92 0 -159 34.5t-115 112.5q-92 -147 -321 -147h-387v214h387q117 0 186 21t97 60.5t29 104.5v7q0 317 -519 259v143q591 63 591 -402v-7z" />
    <glyph glyph-name="uni0630.fina" unicode="&#x630;" horiz-adv-x="1033" arabic-form="final" 
d="M815 410q-2 -70 -12 -121q73 -65 223 -65h17q44 0 75.5 -31.5t31.5 -75.5t-31.5 -75.5t-75.5 -31.5h-17q-92 0 -159 34.5t-115 112.5q-92 -147 -321 -147h-387v214h387q117 0 186 21t97 60.5t29 104.5v7q0 317 -519 259v143q591 63 591 -402v-7zM282 1155l121 120
l120 -120l-121 -121z" />
    <glyph glyph-name="uni0631.fina" unicode="&#x631;" horiz-adv-x="736" arabic-form="final" 
d="M0 -318q58 0 104 3.5t84.5 12.5t68.5 20t53 30.5t39.5 40t28 51.5t18.5 61.5t11 75t5.5 86.5t1.5 101v589h72v-292q0 -144 45 -190.5t192 -46.5h22q44 0 76 -31.5t32 -75.5t-32 -75.5t-76 -31.5h-22q-161 0 -237 117q-1 -88 -6.5 -157t-20 -138t-37.5 -120t-60 -96
t-87 -73.5t-119 -44.5t-156 -16v200z" />
    <glyph glyph-name="uni0632.fina" unicode="&#x632;" horiz-adv-x="736" arabic-form="final" 
d="M0 -318q58 0 104 3.5t84.5 12.5t68.5 20t53 30.5t39.5 40t28 51.5t18.5 61.5t11 75t5.5 86.5t1.5 101v589h72v-292q0 -144 45 -190.5t192 -46.5h22q44 0 76 -31.5t32 -75.5t-32 -75.5t-76 -31.5h-22q-161 0 -237 117q-1 -88 -6.5 -157t-20 -138t-37.5 -120t-60 -96
t-87 -73.5t-119 -44.5t-156 -16v200zM410 1065l122 120l120 -120l-121 -121z" />
    <glyph glyph-name="uni0633.init" unicode="&#x633;" horiz-adv-x="1537" arabic-form="initial" 
d="M-9 10q-44 0 -75.5 31.5t-31.5 75.5t31.5 75.5t75.5 31.5h18q77 0 123 16t80.5 64.5t51 133.5t23.5 227h72q-10 -215 -47 -356q57 -57 144.5 -79.5t168.5 -9.5t142.5 68.5t68.5 141.5l21 234h74l-23 -254q-3 -47 -14 -93q104 -93 236 -93h14q246 0 246 176v310h72v-310
q0 -176 -86.5 -283t-231.5 -107h-14q-73 0 -140.5 37.5t-152.5 126.5q-62 -106 -158.5 -149.5t-209.5 -8.5t-210 151q-83 -157 -250 -157h-18z" />
    <glyph glyph-name="uni0633.medi" unicode="&#x633;" horiz-adv-x="1726" arabic-form="medial" 
d="M1735 224q44 0 75.5 -31.5t31.5 -75.5t-31.5 -75.5t-75.5 -31.5h-47q-194 0 -263 189q-39 -90 -111.5 -139.5t-169.5 -49.5h-14q-73 0 -140.5 37.5t-152.5 126.5q-62 -106 -158.5 -149.5t-209.5 -8.5t-210 151q-83 -157 -250 -157h-18q-44 0 -75.5 31.5t-31.5 75.5
t31.5 75.5t75.5 31.5h18q77 0 123 16t80.5 64.5t51 133.5t23.5 227h72q-10 -215 -47 -356q57 -57 144.5 -79.5t168.5 -9.5t142.5 68.5t68.5 141.5l21 234h74l-23 -254q-3 -47 -14 -93q104 -93 236 -93h14q246 0 246 176v310h72v-268h1q-2 -127 49 -172.5t176 -45.5h47z" />
    <glyph glyph-name="uni0633.fina" unicode="&#x633;" horiz-adv-x="2425" arabic-form="final" 
d="M2435 224q44 0 76 -31.5t32 -75.5t-32 -75.5t-76 -31.5q-230 0 -305 198q-38 -93 -110 -145.5t-163 -52.5h-39q-71 0 -135 36t-147 123q-55 -95 -138 -135.5t-173 -15.5t-161 115q-8 -124 -44.5 -219t-87 -151.5t-118 -92.5t-129.5 -48.5t-129 -12.5q-149 0 -257 75
t-163 203t-60 296h-1v15q0 11 1 17q5 155 58.5 289t134.5 217l50 -51q-74 -77 -121.5 -200t-50.5 -270q4 -182 100.5 -279t308.5 -97q438 0 438 376v553h72v-428q26 -50 80 -81.5t116 -34.5t120.5 14.5t100.5 68.5t48 125l21 234h74l-23 -254q-3 -43 -12 -82
q102 -91 227 -91h39q119 0 177.5 46.5t58.5 129.5v399h72v-342q0 -72 15.5 -118t51 -71t83 -34.5t120.5 -9.5z" />
    <glyph glyph-name="uni0634.init" unicode="&#x634;" horiz-adv-x="1537" arabic-form="initial" 
d="M-9 10q-44 0 -75.5 31.5t-31.5 75.5t31.5 75.5t75.5 31.5h18q77 0 123 16t80.5 64.5t51 133.5t23.5 227h72q-10 -215 -47 -356q57 -57 144.5 -79.5t168.5 -9.5t142.5 68.5t68.5 141.5l21 234h74l-23 -254q-3 -47 -14 -93q104 -93 236 -93h14q246 0 246 176v310h72v-310
q0 -176 -86.5 -283t-231.5 -107h-14q-73 0 -140.5 37.5t-152.5 126.5q-62 -106 -158.5 -149.5t-209.5 -8.5t-210 151q-83 -157 -250 -157h-18zM642 1031l121 121l121 -121l-121 -121zM771 1250l121 121l121 -121l-122 -121zM899 1031l123 120l120 -120l-121 -122z" />
    <glyph glyph-name="uni0634.medi" unicode="&#x634;" horiz-adv-x="1726" arabic-form="medial" 
d="M1735 224q44 0 75.5 -31.5t31.5 -75.5t-31.5 -75.5t-75.5 -31.5h-47q-194 0 -263 189q-39 -90 -111.5 -139.5t-169.5 -49.5h-14q-73 0 -140.5 37.5t-152.5 126.5q-62 -106 -158.5 -149.5t-209.5 -8.5t-210 151q-83 -157 -250 -157h-18q-44 0 -75.5 31.5t-31.5 75.5
t31.5 75.5t75.5 31.5h18q77 0 123 16t80.5 64.5t51 133.5t23.5 227h72q-10 -215 -47 -356q57 -57 144.5 -79.5t168.5 -9.5t142.5 68.5t68.5 141.5l21 234h74l-23 -254q-3 -47 -14 -93q104 -93 236 -93h14q246 0 246 176v310h72v-268h1q-2 -127 49 -172.5t176 -45.5h47z
M642 1031l121 121l121 -121l-121 -121zM771 1250l121 121l121 -121l-122 -121zM899 1031l123 120l120 -120l-121 -122z" />
    <glyph glyph-name="uni0634.fina" unicode="&#x634;" horiz-adv-x="2425" arabic-form="final" 
d="M2435 224q44 0 76 -31.5t32 -75.5t-32 -75.5t-76 -31.5q-230 0 -305 198q-38 -93 -110 -145.5t-163 -52.5h-39q-71 0 -135 36t-147 123q-55 -95 -138 -135.5t-173 -15.5t-161 115q-8 -124 -44.5 -219t-87 -151.5t-118 -92.5t-129.5 -48.5t-129 -12.5q-149 0 -257 75
t-163 203t-60 296h-1v15q0 11 1 17q5 155 58.5 289t134.5 217l50 -51q-74 -77 -121.5 -200t-50.5 -270q4 -182 100.5 -279t308.5 -97q438 0 438 376v553h72v-428q26 -50 80 -81.5t116 -34.5t120.5 14.5t100.5 68.5t48 125l21 234h74l-23 -254q-3 -43 -12 -82
q102 -91 227 -91h39q119 0 177.5 46.5t58.5 129.5v399h72v-342q0 -72 15.5 -118t51 -71t83 -34.5t120.5 -9.5zM1342 1031l121 121l121 -121l-122 -121zM1470 1250l122 121l120 -121l-121 -121zM1599 1031l122 120l121 -120l-122 -122z" />
    <glyph glyph-name="uni0635.init" unicode="&#x635;" horiz-adv-x="1674" arabic-form="initial" 
d="M-9 10q-44 0 -75.5 31.5t-31.5 75.5t31.5 75.5t75.5 31.5h34q149 0 217 60t68 196v273h72v-273q0 -31 -4 -87q117 128 243.5 221.5t243.5 142t228 65.5t202 -6t159.5 -73.5t106.5 -137t38 -196.5v-13q0 -79 -21.5 -146.5t-65.5 -122t-118.5 -86t-171.5 -31.5h-170
q-123 0 -214 7.5t-186.5 28t-174.5 62.5t-144 107q-43 -100 -122.5 -152.5t-185.5 -52.5h-34zM438 327q193 -103 614 -103h170q305 0 305 172v13q0 174 -127 259q-130 87 -335 48q-251 -48 -497 -262q-67 -59 -130 -127z" />
    <glyph glyph-name="uni0635.medi" unicode="&#x635;" horiz-adv-x="1768" arabic-form="medial" 
d="M-9 10q-44 0 -75.5 31.5t-31.5 75.5t31.5 75.5t75.5 31.5h34q149 0 217 60t68 196v273h72v-273q0 -31 -4 -87q117 128 243.5 221.5t243.5 142t228 65.5t202 -6t159.5 -73.5t106.5 -137t38 -196.5v-13q0 -94 -30 -172h209q44 0 75.5 -31.5t31.5 -75.5t-31.5 -75.5
t-75.5 -31.5h-553h-3h-170q-123 0 -214 7.5t-186.5 28t-174.5 62.5t-144 107q-43 -100 -122.5 -152.5t-185.5 -52.5h-34zM438 327q193 -103 614 -103h170q305 0 305 172v13q0 174 -127 259q-130 87 -335 48q-251 -48 -497 -262q-67 -59 -130 -127z" />
    <glyph glyph-name="uni0635.fina" unicode="&#x635;" horiz-adv-x="2416" arabic-form="final" 
d="M2272 389q0 -93 -25 -165h179q44 0 75.5 -31.5t31.5 -75.5t-31.5 -75.5t-75.5 -31.5h-700q-221 0 -378 47t-282 148v-5q0 -140 -33 -248t-84.5 -171t-121.5 -103.5t-135.5 -54.5t-135.5 -14q-149 0 -257 75t-163 203t-60 296h-1v15q0 11 1 17q5 155 58.5 289t134.5 217
l50 -51q-74 -77 -121.5 -200t-50.5 -270q4 -182 100.5 -279t308.5 -97q438 0 438 376v553h72v-347q116 127 242 219t241.5 138t225 61t199 -10t157 -77t104.5 -139t37 -196v-13zM1138 351q218 -127 588 -127h233q131 0 186 43t55 122v13q0 120 -61.5 202.5t-170 107.5
t-241 2t-289 -117t-300.5 -246z" />
    <glyph glyph-name="uni0636.init" unicode="&#x636;" horiz-adv-x="1674" arabic-form="initial" 
d="M-9 10q-44 0 -75.5 31.5t-31.5 75.5t31.5 75.5t75.5 31.5h34q149 0 217 60t68 196v273h72v-273q0 -31 -4 -87q117 128 243.5 221.5t243.5 142t228 65.5t202 -6t159.5 -73.5t106.5 -137t38 -196.5v-13q0 -79 -21.5 -146.5t-65.5 -122t-118.5 -86t-171.5 -31.5h-170
q-123 0 -214 7.5t-186.5 28t-174.5 62.5t-144 107q-43 -100 -122.5 -152.5t-185.5 -52.5h-34zM438 327q193 -103 614 -103h170q305 0 305 172v13q0 174 -127 259q-130 87 -335 48q-251 -48 -497 -262q-67 -59 -130 -127zM531 1097l121 120l121 -120l-122 -121z" />
    <glyph glyph-name="uni0636.medi" unicode="&#x636;" horiz-adv-x="1768" arabic-form="medial" 
d="M-9 10q-44 0 -75.5 31.5t-31.5 75.5t31.5 75.5t75.5 31.5h34q149 0 217 60t68 196v273h72v-273q0 -31 -4 -87q117 128 243.5 221.5t243.5 142t228 65.5t202 -6t159.5 -73.5t106.5 -137t38 -196.5v-13q0 -94 -30 -172h209q44 0 75.5 -31.5t31.5 -75.5t-31.5 -75.5
t-75.5 -31.5h-553h-3h-170q-123 0 -214 7.5t-186.5 28t-174.5 62.5t-144 107q-43 -100 -122.5 -152.5t-185.5 -52.5h-34zM438 327q193 -103 614 -103h170q305 0 305 172v13q0 174 -127 259q-130 87 -335 48q-251 -48 -497 -262q-67 -59 -130 -127zM529 1097l121 120
l121 -120l-121 -121z" />
    <glyph glyph-name="uni0636.fina" unicode="&#x636;" horiz-adv-x="2416" arabic-form="final" 
d="M2272 389q0 -93 -25 -165h179q44 0 75.5 -31.5t31.5 -75.5t-31.5 -75.5t-75.5 -31.5h-700q-221 0 -378 47t-282 148v-5q0 -140 -33 -248t-84.5 -171t-121.5 -103.5t-135.5 -54.5t-135.5 -14q-149 0 -257 75t-163 203t-60 296h-1v15q0 11 1 17q5 155 58.5 289t134.5 217
l50 -51q-74 -77 -121.5 -200t-50.5 -270q4 -182 100.5 -279t308.5 -97q438 0 438 376v553h72v-347q116 127 242 219t241.5 138t225 61t199 -10t157 -77t104.5 -139t37 -196v-13zM1138 351q218 -127 588 -127h233q131 0 186 43t55 122v13q0 120 -61.5 202.5t-170 107.5
t-241 2t-289 -117t-300.5 -246zM1265 1109l121 121l121 -121l-122 -121z" />
    <glyph glyph-name="uni0637.init" unicode="&#x637;" horiz-adv-x="1377" arabic-form="initial" 
d="M1303 404q0 -77 -20.5 -144.5t-64 -125t-121 -91t-181.5 -33.5h-925q-44 0 -75.5 31.5t-31.5 75.5t31.5 75.5t75.5 31.5h115v1212h73v-1111q180 285 430 408q208 104 395 64q163 -34 243 -164q56 -92 56 -216v-13zM212 224h704q92 0 155.5 14t97 40t47.5 56t14 70v13
q0 151 -115 231q-116 80 -291 53q-213 -33 -402 -210q-119 -111 -210 -267z" />
    <glyph glyph-name="uni0637.medi" unicode="&#x637;" horiz-adv-x="1407" arabic-form="medial" 
d="M-9 10q-44 0 -75.5 31.5t-31.5 75.5t31.5 75.5t75.5 31.5h115v1212h73v-1111q180 285 430 408q208 104 395 64q163 -34 243 -164q56 -92 56 -216v-13q0 -99 -32 -180h145q44 0 76 -31.5t32 -75.5t-32 -75.5t-76 -31.5h-1425zM212 224h704q92 0 155.5 14t97 40t47.5 56
t14 70v13q0 151 -115 231q-116 80 -291 53q-213 -33 -402 -210q-119 -111 -210 -267z" />
    <glyph glyph-name="uni0637.fina" unicode="&#x637;" horiz-adv-x="1690" arabic-form="final" 
d="M1389 10q-54 0 -86 45q-84 -45 -206 -45h-1025v214h216v1212h72v-1109q181 285 432 408q208 102 394 62q163 -34 242 -165q56 -92 56 -215v-13q0 -99 -32 -180h247q44 0 75.5 -31.5t31.5 -75.5t-31.5 -75.5t-75.5 -31.5h-310zM394 224h703q74 0 130 9.5t90.5 25.5
t56 39.5t29.5 49t8 56.5v13q0 151 -115 231q-116 81 -291 53q-212 -33 -401 -210q-118 -111 -210 -267z" />
    <glyph glyph-name="uni0638.init" unicode="&#x638;" horiz-adv-x="1377" arabic-form="initial" 
d="M1303 404q0 -77 -20.5 -144.5t-64 -125t-121 -91t-181.5 -33.5h-925q-44 0 -75.5 31.5t-31.5 75.5t31.5 75.5t75.5 31.5h115v1212h73v-1111q180 285 430 408q208 104 395 64q163 -34 243 -164q56 -92 56 -216v-13zM212 224h704q92 0 155.5 14t97 40t47.5 56t14 70v13
q0 151 -115 231q-116 80 -291 53q-213 -33 -402 -210q-119 -111 -210 -267zM520 1196l121 120l121 -120l-121 -121z" />
    <glyph glyph-name="uni0638.medi" unicode="&#x638;" horiz-adv-x="1407" arabic-form="medial" 
d="M-9 10q-44 0 -75.5 31.5t-31.5 75.5t31.5 75.5t75.5 31.5h115v1212h73v-1111q180 285 430 408q208 104 395 64q163 -34 243 -164q56 -92 56 -216v-13q0 -99 -32 -180h145q44 0 76 -31.5t32 -75.5t-32 -75.5t-76 -31.5h-1425zM212 224h704q92 0 155.5 14t97 40t47.5 56
t14 70v13q0 151 -115 231q-116 80 -291 53q-213 -33 -402 -210q-119 -111 -210 -267zM510 1196l121 120l120 -120l-121 -121z" />
    <glyph glyph-name="uni0638.fina" unicode="&#x638;" horiz-adv-x="1690" arabic-form="final" 
d="M1389 10q-54 0 -86 45q-84 -45 -206 -45h-1025v214h216v1212h72v-1109q181 285 432 408q208 102 394 62q163 -34 242 -165q56 -92 56 -215v-13q0 -99 -32 -180h247q44 0 75.5 -31.5t31.5 -75.5t-31.5 -75.5t-75.5 -31.5h-310zM394 224h703q74 0 130 9.5t90.5 25.5
t56 39.5t29.5 49t8 56.5v13q0 151 -115 231q-116 81 -291 53q-212 -33 -401 -210q-118 -111 -210 -267zM700 1196l121 120l120 -120l-121 -121z" />
    <glyph glyph-name="uni0639.init" unicode="&#x639;" horiz-adv-x="1014" arabic-form="initial" 
d="M-20 10q-44 0 -76 31.5t-32 75.5t32 75.5t76 31.5h215q-53 68 -72 150.5t-4 160.5q25 130 121.5 206t243 90.5t335.5 -18.5v-143q-182 35 -317 24t-216.5 -59.5t-96.5 -125.5q-16 -88 32 -166t162 -119h560v-214h-963z" />
    <glyph glyph-name="uni0639.medi" unicode="&#x639;" horiz-adv-x="1114" arabic-form="medial" 
d="M-9 10q-44 0 -75.5 31.5t-31.5 75.5t31.5 75.5t75.5 31.5h129q185 0 332 47q-198 138 -366 420h-2v142l928 -3v-143h-3q-96 -246 -332 -413q153 -50 369 -50h77q44 0 75.5 -31.5t31.5 -75.5t-31.5 -75.5t-75.5 -31.5h-77q-148 0 -255 25.5t-227 98.5q-92 -62 -192 -93
t-252 -31h-129zM186 691q166 -252 380 -364q257 149 358 360z" />
    <glyph glyph-name="uni0639.fina" unicode="&#x639;" horiz-adv-x="1232" arabic-form="final" 
d="M95 -301v7q-4 98 18 179t68 143.5t98.5 109t126.5 94.5q-191 175 -313 481h-2v142l1010 -2v-143h-22l17 -19q-92 -258 -329 -437q142 -30 319 -30h155q44 0 75.5 -31.5t31.5 -75.5t-31.5 -75.5t-75.5 -31.5h-155q-165 0 -284 24t-242 87q-19 -11 -62 -35t-61.5 -34.5
t-55.5 -33t-53.5 -35t-45 -35t-41.5 -39t-31 -40.5t-25.5 -46t-13 -49.5t-4.5 -56.5q3 -65 34.5 -118t100.5 -98t178.5 -67.5t267 -25.5t367.5 28v-161q-213 -31 -378 -24t-283.5 39t-196 93t-116.5 139t-45 177h-1zM195 713q123 -247 370 -386q60 34 89.5 51.5t82.5 50.5
t84 59t70 62.5t67 76t49 83.5z" />
    <glyph glyph-name="uni063A.init" unicode="&#x63a;" horiz-adv-x="1014" arabic-form="initial" 
d="M-20 10q-44 0 -76 31.5t-32 75.5t32 75.5t76 31.5h215q-53 68 -72 150.5t-4 160.5q25 130 121.5 206t243 90.5t335.5 -18.5v-143q-182 35 -317 24t-216.5 -59.5t-96.5 -125.5q-16 -88 32 -166t162 -119h560v-214h-963zM412 1162l121 121l121 -121l-122 -121z" />
    <glyph glyph-name="uni063A.medi" unicode="&#x63a;" horiz-adv-x="1114" arabic-form="medial" 
d="M-9 10q-44 0 -75.5 31.5t-31.5 75.5t31.5 75.5t75.5 31.5h129q185 0 332 47q-198 138 -366 420h-2v142l928 -3v-143h-3q-96 -246 -332 -413q153 -50 369 -50h77q44 0 75.5 -31.5t31.5 -75.5t-31.5 -75.5t-75.5 -31.5h-77q-148 0 -255 25.5t-227 98.5q-92 -62 -192 -93
t-252 -31h-129zM186 691q166 -252 380 -364q257 149 358 360zM426 1140l121 121l121 -121l-122 -121z" />
    <glyph glyph-name="uni063A.fina" unicode="&#x63a;" horiz-adv-x="1232" arabic-form="final" 
d="M95 -301v7q-4 98 18 179t68 143.5t98.5 109t126.5 94.5q-191 175 -313 481h-2v142l1010 -2v-143h-22l17 -19q-92 -258 -329 -437q142 -30 319 -30h155q44 0 75.5 -31.5t31.5 -75.5t-31.5 -75.5t-75.5 -31.5h-155q-165 0 -284 24t-242 87q-19 -11 -62 -35t-61.5 -34.5
t-55.5 -33t-53.5 -35t-45 -35t-41.5 -39t-31 -40.5t-25.5 -46t-13 -49.5t-4.5 -56.5q3 -65 34.5 -118t100.5 -98t178.5 -67.5t267 -25.5t367.5 28v-161q-213 -31 -378 -24t-283.5 39t-196 93t-116.5 139t-45 177h-1zM195 713q123 -247 370 -386q60 34 89.5 51.5t82.5 50.5
t84 59t70 62.5t67 76t49 83.5zM492 1173l122 121l120 -121l-121 -121z" />
    <glyph glyph-name="uni0641.init" unicode="&#x641;" horiz-adv-x="887" arabic-form="initial" 
d="M812 461q0 -228 -76 -339.5t-233 -111.5h-512q-44 0 -75.5 31.5t-31.5 75.5t31.5 75.5t75.5 31.5h512q137 0 184 40t52 158h-297q-164 0 -247 72t-82 242v9q0 3 0.5 10t0.5 11q12 139 110 228.5t222 89.5q70 0 135.5 -34.5t117 -97.5t82.5 -161t31 -216v-114zM186 750
q-4 -103 48.5 -138.5t207.5 -35.5h298q0 180 -82.5 278.5t-211.5 98.5q-106 0 -180.5 -57.5t-79.5 -145.5zM328 1392l121 120l120 -120l-121 -121z" />
    <glyph glyph-name="uni0641.medi" unicode="&#x641;" horiz-adv-x="892" arabic-form="medial" 
d="M111 517q0 53 13.5 107t41.5 103.5t67 88t94.5 61.5t118.5 23q78 0 142.5 -34.5t105.5 -90.5t63.5 -124t23.5 -138v-32q0 -151 -66 -257h30h156q44 0 75.5 -31.5t31.5 -75.5t-31.5 -75.5t-75.5 -31.5h-156q-172 0 -297 33q-123 -33 -292 -33h-165q-44 0 -75.5 31.5
t-31.5 75.5t31.5 75.5t75.5 31.5h165h22q-66 102 -67 253v40zM184 481q0 -171 265 -229q260 58 260 229v25q0 48 -15 91.5t-45 80t-82.5 58t-120.5 21.5t-120.5 -21.5t-82 -57t-44.5 -76.5t-15 -85v-36zM329 1228l122 120l120 -120l-121 -121z" />
    <glyph glyph-name="uni0641.fina" unicode="&#x641;" horiz-adv-x="2010" arabic-form="final" 
d="M235 768q-85 -149 -88 -313q1 -60 21.5 -102t53 -67t87.5 -39t111.5 -18.5t138.5 -4.5h716h28q-72 101 -73 253v40q0 97 37 185.5t115.5 149t182.5 60.5q78 0 142.5 -34.5t105 -92t63 -128t23.5 -144.5v-32q0 -150 -72 -256q12 -1 36 -1h156q44 0 76 -31.5t32 -75.5
t-32 -75.5t-76 -31.5h-156q-170 0 -296 39q-125 -39 -292 -39h-716q-58 0 -103 3t-97 14t-90.5 29.5t-76 51t-61.5 77.5t-39.5 110.5t-16.5 148.5v8v11q6 178 98 341zM1302 481q0 -81 71 -137.5t194 -87.5q121 31 190.5 87.5t69.5 137.5v25q0 52 -15 97.5t-45 83t-82 59.5
t-120 22t-120.5 -21.5t-82.5 -58t-45 -80t-15 -91.5v-36zM1447 1223l121 120l120 -120l-121 -121z" />
    <glyph glyph-name="uni0642.init" unicode="&#x642;" horiz-adv-x="887" arabic-form="initial" 
d="M812 461q0 -228 -76 -339.5t-233 -111.5h-512q-44 0 -75.5 31.5t-31.5 75.5t31.5 75.5t75.5 31.5h512q137 0 184 40t52 158h-297q-164 0 -247 72t-82 242v9q0 3 0.5 10t0.5 11q12 139 110 228.5t222 89.5q70 0 135.5 -34.5t117 -97.5t82.5 -161t31 -216v-114zM186 750
q-4 -103 48.5 -138.5t207.5 -35.5h298q0 180 -82.5 278.5t-211.5 98.5q-106 0 -180.5 -57.5t-79.5 -145.5zM210 1343l121 121l120 -121l-121 -121zM467 1343l121 120l121 -120l-122 -122z" />
    <glyph glyph-name="uni0642.medi" unicode="&#x642;" horiz-adv-x="892" arabic-form="medial" 
d="M111 517q0 53 13.5 107t41.5 103.5t67 88t94.5 61.5t118.5 23q78 0 142.5 -34.5t105.5 -90.5t63.5 -124t23.5 -138v-32q0 -151 -66 -257h30h156q44 0 75.5 -31.5t31.5 -75.5t-31.5 -75.5t-75.5 -31.5h-156q-172 0 -297 33q-123 -33 -292 -33h-165q-44 0 -75.5 31.5
t-31.5 75.5t31.5 75.5t75.5 31.5h165h22q-66 102 -67 253v40zM184 481q0 -171 265 -229q260 58 260 229v25q0 48 -15 91.5t-45 80t-82.5 58t-120.5 21.5t-120.5 -21.5t-82 -57t-44.5 -76.5t-15 -85v-36zM211 1180l122 120l120 -120l-121 -122zM469 1179l121 120l120 -120
l-121 -121z" />
    <glyph glyph-name="uni0642.fina" unicode="&#x642;" horiz-adv-x="1287" arabic-form="final" 
d="M292 473q-74 -76 -121.5 -199t-50.5 -271q4 -181 100 -278.5t308 -97.5q118 0 203.5 9.5t145 31t96 49.5t57 73.5t27.5 93.5t7 118v22h-296q-361 0 -331 395h2q13 146 114 241.5t215 95.5q65 0 126.5 -31.5t115.5 -93t88 -165.5t38 -236v-6h161q44 0 75.5 -31.5
t31.5 -75.5t-31.5 -75.5t-75.5 -31.5h-161v-8q0 -74 -6 -134.5t-23 -123t-45.5 -110.5t-75 -90.5t-109.5 -70.5t-151 -44t-198 -16q-222 0 -347 158.5t-133 415.5v15v17q5 155 58.5 288.5t134.5 216.5zM508 377q-1 -97 54.5 -133t205.5 -36h296q-1 106 -25.5 186.5
t-66.5 127t-93.5 69t-110.5 22.5q-104 0 -181 -66.5t-77 -163.5v-6h-2zM572 1026l121 121l120 -121l-121 -121zM829 1026l121 120l121 -120l-122 -122z" />
    <glyph glyph-name="uni0643.init" unicode="&#x643;" horiz-adv-x="1232" arabic-form="initial" 
d="M1172 1509v-116l-998 -437l406 -186q337 -163 346 -378v-7v-5q-3 -186 -99.5 -278t-293.5 -92h-542q-44 0 -75.5 31.5t-31.5 75.5t31.5 75.5t75.5 31.5h542q127 0 197.5 18t96.5 51.5t27 91.5q-1 23 -11.5 45t-39.5 53.5t-93.5 71.5t-160.5 86l-493 225v155z" />
    <glyph glyph-name="uni0643.medi" unicode="&#x643;" horiz-adv-x="1210" arabic-form="medial" 
d="M1139 1465v-117l-995 -420l322 -159q210 -103 287 -264l1 1q83 -157 172 -219.5t204 -62.5h90q44 0 75.5 -31.5t31.5 -75.5t-31.5 -75.5t-75.5 -31.5h-90q-88 0 -169.5 57t-178.5 216q-21 -124 -108 -198.5t-215 -74.5h-468q-44 0 -75.5 31.5t-31.5 75.5t31.5 75.5
t75.5 31.5h468q118 0 187 38t70 93q1 19 -12 57q-44 118 -269 228l-392 194v144v24z" />
    <glyph glyph-name="uni0643.fina" unicode="&#x643;" horiz-adv-x="1789" arabic-form="final" 
d="M1525 590q0 -194 60 -280t214 -86q44 0 75.5 -31.5t31.5 -75.5t-31.5 -75.5t-75.5 -31.5q-105 0 -180.5 65.5t-117.5 185.5q-36 -117 -121 -184t-209 -67h-675q-103 0 -178.5 23.5t-121.5 63.5t-73.5 103t-37.5 131t-10 158v243h72v-243q0 -56 4 -91.5t17 -68t35.5 -50.5
t62.5 -31.5t95 -18.5t135 -5h675q281 0 281 208v1020h73v-862zM637 889l323 108v-74l-248 -82l178 -40q64 -15 93 -44t30 -75q2 -46 -31 -80t-96 -38l-232 -15v72l231 15q48 3 69.5 15.5t20.5 29.5q-1 16 -20.5 27t-73.5 23l-240 52z" />
    <glyph glyph-name="uni0644.init" unicode="&#x644;" horiz-adv-x="442" arabic-form="initial" 
d="M-9 10q-44 0 -75.5 31.5t-31.5 75.5t31.5 75.5t75.5 31.5h23q147 0 192 46.5t45 190.5v975h72v-975q0 -228 -76 -339.5t-233 -111.5h-23z" />
    <glyph glyph-name="uni0644.medi" unicode="&#x644;" horiz-adv-x="597" arabic-form="medial" 
d="M-8 10q-44 0 -76 31.5t-32 75.5t32 75.5t76 31.5h39q142 1 192.5 53t50.5 181v978h72v-946q0 -109 25 -167t73.5 -78.5t138.5 -20.5h22q44 0 76 -31.5t32 -75.5t-32 -75.5t-76 -31.5h-22q-198 0 -272 212q-74 -211 -280 -212h-39z" />
    <glyph glyph-name="uni0644.fina" unicode="&#x644;" horiz-adv-x="1301" arabic-form="final" 
d="M319 680q-74 -77 -121.5 -200t-50.5 -270q8 -386 409 -386q438 0 438 376v1252h72v-1060q1 -31 6.5 -56t16.5 -42t21 -29.5t29 -20t30.5 -12t35 -6.5t34.5 -2h36h14h22q44 0 75.5 -31.5t31.5 -75.5t-31.5 -75.5t-75.5 -31.5h-22q-154 0 -226 106q-9 -120 -46 -212
t-88 -146.5t-118 -89t-128 -47t-127 -12.5q-113 0 -204 46t-149.5 126t-90.5 185t-36 227h-1v15q0 11 1 17q5 155 58.5 289t134.5 217z" />
    <glyph glyph-name="uni0645.init" unicode="&#x645;" horiz-adv-x="1055" arabic-form="initial" 
d="M980 396v-7v-6q0 -91 -20.5 -167.5t-63 -138.5t-114.5 -97.5t-168 -35.5q-132 0 -224 75t-127 202q-88 -211 -255 -211h-17q-44 0 -75.5 31.5t-31.5 75.5t31.5 75.5t75.5 31.5h17q58 0 101 14.5t69 41.5t40.5 56.5t22.5 67.5l6 27q16 158 123 256.5t244 98.5
q96 0 179 -51t133.5 -141t53.5 -198zM316 365q0 -94 73.5 -150t224.5 -56q88 0 147 15t90.5 46t44 69.5t12.5 93.5v4q-1 107 -83 181.5t-211 74.5q-127 0 -212 -72t-86 -187v-19z" />
    <glyph glyph-name="uni0645.medi" unicode="&#x645;" horiz-adv-x="1227" arabic-form="medial" 
d="M-116 117q0 44 31.5 75.5t75.5 31.5h17q58 0 101 14.5t69 41.5t40.5 56.5t22.5 67.5l6 27q16 158 123 256.5t244 98.5q144 0 251 -110t114 -270l7 -39q12 -66 70.5 -104.5t161.5 -38.5h19q44 0 75.5 -31.5t31.5 -75.5t-31.5 -75.5t-75.5 -31.5h-19q-91 0 -157 51.5
t-104 144.5q-34 -121 -119.5 -191.5t-223.5 -70.5q-132 0 -224 75t-127 202q-88 -211 -255 -211h-17q-44 0 -75.5 31.5t-31.5 75.5zM316 365q0 -94 73.5 -150t224.5 -56q88 0 147 15t90.5 46t44 69.5t12.5 93.5v4q-1 107 -83 181.5t-211 74.5q-127 0 -212 -72t-86 -187v-19z
" />
    <glyph glyph-name="uni0645.fina" unicode="&#x645;" horiz-adv-x="1409" arabic-form="final" 
d="M1188 401v-4v-2l-1 -19q12 -84 62.5 -118t141.5 -34h27q44 0 75.5 -31.5t31.5 -75.5t-31.5 -75.5t-75.5 -31.5h-27q-73 0 -137.5 46.5t-101.5 147.5q-41 -104 -125 -166t-203 -62q-116 0 -206.5 39t-182.5 143l-52 -14q-66 -17 -109 -38t-69 -44.5t-38.5 -61t-16 -73.5
t-3.5 -96v-428h-72v428q0 75 7 137t28 128.5t55.5 115.5t94.5 88t141 56l45 12q6 18 15 54t20.5 70.5t28.5 68.5q49 95 120 150t144.5 65.5t148 -11.5t132.5 -72t95 -126.5t38 -165.5zM502 287q116 -96 322 -96q155 0 223 56.5t69 149.5q-1 62 -33 115t-82.5 86t-113.5 45.5
t-123.5 1.5t-115 -55.5t-86.5 -116.5q-13 -31 -35 -104.5t-25 -81.5z" />
    <glyph glyph-name="uni0646.init" unicode="&#x646;" horiz-adv-x="468" arabic-form="initial" 
d="M-9 10q-44 0 -75.5 31.5t-31.5 75.5t31.5 75.5t75.5 31.5h97q77 0 120.5 7.5t70 32t34.5 62t8 104.5v347h72v-347q0 -218 -73 -319t-232 -101h-97zM92 1152l121 120l120 -120l-121 -121z" />
    <glyph glyph-name="uni0646.medi" unicode="&#x646;" horiz-adv-x="638" arabic-form="medial" 
d="M365 460q0 -139 57.5 -187.5t225.5 -48.5q44 0 75.5 -31.5t31.5 -75.5t-31.5 -75.5t-75.5 -31.5q-266 0 -332 240q-43 -126 -116 -183t-179 -57h-30q-44 0 -75.5 31.5t-31.5 75.5t31.5 75.5t75.5 31.5h30q115 0 172.5 39t84.5 143t32 314h72q-3 -139 -19 -260h2z
M223 1049l121 120l120 -120l-121 -122z" />
    <glyph glyph-name="uni0646.fina" unicode="&#x646;" horiz-adv-x="1277" arabic-form="final" 
d="M319 670q-74 -77 -121.5 -200t-50.5 -270q4 -182 100.5 -279t308.5 -97q438 0 438 376v553h72v-385q0 -39 11.5 -66.5t28 -42.5t44 -23t50.5 -10t56 -2h30q44 0 75.5 -31.5t31.5 -75.5t-31.5 -75.5t-75.5 -31.5h-30q-123 0 -194 98q-10 -118 -47.5 -208.5t-88 -144
t-117 -88t-127.5 -46.5t-126 -12q-149 0 -257 75t-163 203t-60 296h-1v15q0 11 1 17q5 155 58.5 289t134.5 217zM531 1012l121 120l121 -120l-122 -122z" />
    <glyph glyph-name="uni0647.init" unicode="&#x647;" horiz-adv-x="1200" arabic-form="initial" 
d="M-9 10q-44 0 -75.5 31.5t-31.5 75.5t31.5 75.5t75.5 31.5h49h193q-84 107 -84 263q0 74 24 135.5t63.5 100t90.5 60.5t103.5 23.5t103.5 -18t91.5 -57t66 -100.5t26.5 -143q4 -153 -77 -260q54 -3 104 -3q163 0 236.5 44t71.5 127v45q-6 86 -62 158t-161 127.5
t-272.5 86.5t-383.5 31v143q461 0 706.5 -152.5t245.5 -415.5v-18q1 -62 -10 -117t-38.5 -106t-70.5 -87.5t-110 -58t-152 -21.5q-206 0 -305 32q-51 -17 -116.5 -25.5t-103.5 -9.5t-106.5 0.5t-73.5 1.5h-49zM205 487q0 -100 65 -163.5t174 -81.5q7 1 19 5q2 1 7 1
q107 45 151 99.5t42 137.5q-1 55 -27 97t-66.5 62.5t-89 29.5t-97 -2t-88.5 -33t-65 -62t-25 -90z" />
    <glyph glyph-name="uni0647.medi" unicode="&#x647;" horiz-adv-x="860" arabic-form="medial" 
d="M-27 10q-44 0 -75.5 31.5t-31.5 75.5t31.5 75.5t75.5 31.5h146q0 90 10.5 178t35.5 173t61 149t90.5 103.5t121.5 39.5q73 0 138 -60.5t103.5 -158t42.5 -206.5q2 -128 -31 -218h196q44 0 76 -31.5t32 -75.5t-32 -75.5t-76 -31.5h-196q23 -103 20 -202q-5 -176 -110 -264
q-87 -72 -199 -50q-117 23 -193 139q-58 90 -75 217q-12 90 -15 160h-146zM191 225l144 -1q103 -1 168 12t96.5 42.5t41 62.5t9.5 86q-2 109 -57.5 182t-154.5 73q-247 0 -247 -457zM192 10q3 -58 13 -130q16 -117 123 -171q90 -45 187 -24q90 21 116 87q7 19 8 41
q2 69 -11.5 126.5t-49.5 133.5q-94 -64 -243 -63l-101 1v-1h-42z" />
    <glyph glyph-name="uni0647.fina" unicode="&#x647;" horiz-adv-x="1124" arabic-form="final" 
d="M807 510q0 84 -94.5 148.5t-230.5 64.5q-91 0 -157.5 -20.5t-103.5 -57.5t-55 -82.5t-19 -101.5q5 -201 331 -201q184 0 256.5 54.5t72.5 175.5v20zM75 452v8v8q2 80 27 150t72 128t126.5 92t181.5 34q94 0 181 -41.5t144 -113.5v194h72v-450q0 -75 8.5 -118t35.5 -71.5
t71.5 -38t120.5 -9.5h19q44 0 75.5 -31.5t31.5 -75.5t-31.5 -75.5t-75.5 -31.5h-19q-223 0 -284 231q-93 -196 -353 -196q-101 0 -179 32t-125 89t-72 129t-27 157z" />
    <glyph glyph-name="uni0648.fina" unicode="&#x648;" horiz-adv-x="883" arabic-form="final" 
d="M174 394q-1 -95 72.5 -132.5t241.5 -37.5h240v33q0 198 -77 287t-223 89q-116 0 -182 -68t-72 -171zM87 -483v164h169q94 0 168.5 14.5t140.5 50t107 102t52 162.5h-236q-191 0 -287.5 88t-98.5 274q0 106 40 199.5t115.5 152t170.5 58.5q161 0 266.5 -132.5
t105.5 -392.5v-33h93q44 0 75.5 -31.5t31.5 -75.5t-31.5 -75.5t-75.5 -31.5h-95q-8 -117 -44.5 -206.5t-88.5 -143t-123 -86.5t-139 -45t-147 -12h-169z" />
    <glyph glyph-name="uni0649.fina" unicode="&#x649;" horiz-adv-x="1438" arabic-form="final" 
d="M826 366q200 -85 326.5 -113.5t295.5 -28.5q44 0 75.5 -31.5t31.5 -75.5t-31.5 -75.5t-75.5 -31.5q-126 0 -212 13q1 -139 -40 -243t-115 -165t-168 -90.5t-208 -29.5q-166 0 -286.5 43.5t-191.5 124.5t-109.5 197t-40.5 261.5t16 316.5h74q-35 -264 -7 -432.5
t156.5 -247.5t388.5 -79q226 0 341.5 84.5t115.5 274.5q-124 29 -364 130z" />
    <glyph glyph-name="uni064A.init" unicode="&#x64a;" horiz-adv-x="535" arabic-form="initial" 
d="M-9 10q-44 0 -75.5 31.5t-31.5 75.5t31.5 75.5t75.5 31.5h97q77 0 120.5 7.5t70 32t34.5 62t8 104.5v347h72v-347q0 -218 -73 -319t-232 -101h-97zM3 -249l117 115l116 -115l-117 -117zM251 -250l117 116l115 -116l-116 -117z" />
    <glyph glyph-name="uni064A.medi" unicode="&#x64a;" horiz-adv-x="638" arabic-form="medial" 
d="M365 460q0 -139 57.5 -187.5t225.5 -48.5q44 0 75.5 -31.5t31.5 -75.5t-31.5 -75.5t-75.5 -31.5q-266 0 -332 240q-43 -126 -116 -183t-179 -57h-30q-44 0 -75.5 31.5t-31.5 75.5t31.5 75.5t75.5 31.5h30q115 0 172.5 39t84.5 143t32 314h72q-3 -139 -19 -260h2zM66 -259
l121 121l120 -121l-121 -121zM323 -260l121 121l120 -121l-121 -121z" />
    <glyph glyph-name="uni064A.fina" unicode="&#x64a;" horiz-adv-x="1438" arabic-form="final" 
d="M826 366q200 -85 326.5 -113.5t295.5 -28.5q44 0 75.5 -31.5t31.5 -75.5t-31.5 -75.5t-75.5 -31.5q-126 0 -212 13q1 -139 -40 -243t-115 -165t-168 -90.5t-208 -29.5q-166 0 -286.5 43.5t-191.5 124.5t-109.5 197t-40.5 261.5t16 316.5h74q-35 -264 -7 -432.5
t156.5 -247.5t388.5 -79q226 0 341.5 84.5t115.5 274.5q-124 29 -364 130zM439 -741l121 121l121 -121l-121 -121zM696 -741l122 120l120 -120l-121 -122z" />
    <glyph glyph-name="uni066E.init" unicode="&#x66e;" horiz-adv-x="468" 
d="M-9 10q-44 0 -75.5 31.5t-31.5 75.5t31.5 75.5t75.5 31.5h97q77 0 120.5 7.5t70 32t34.5 62t8 104.5v347h72v-347q0 -218 -73 -319t-232 -101h-97z" />
    <glyph glyph-name="uni066E.medi" unicode="&#x66e;" horiz-adv-x="638" 
d="M365 460q0 -139 57.5 -187.5t225.5 -48.5q44 0 75.5 -31.5t31.5 -75.5t-31.5 -75.5t-75.5 -31.5q-266 0 -332 240q-43 -126 -116 -183t-179 -57h-30q-44 0 -75.5 31.5t-31.5 75.5t31.5 75.5t75.5 31.5h30q115 0 172.5 39t84.5 143t32 314h72q-3 -139 -19 -260h2z" />
    <glyph glyph-name="uni066E.fina" unicode="&#x66e;" horiz-adv-x="1748" 
d="M1525 426q0 -110 56.5 -157t176.5 -45q44 0 75.5 -31.5t31.5 -75.5t-31.5 -75.5t-75.5 -31.5q-93 -2 -164.5 50.5t-108.5 154.5q-41 -97 -119.5 -151t-186.5 -54h-620q-58 0 -103 3t-97 14t-90.5 29.5t-76 51t-61.5 77.5t-39.5 110.5t-16.5 148.5v8v11q6 178 98 341
l62 -36q-85 -149 -88 -313q1 -60 21.5 -102t53 -67t87.5 -39t111.5 -18.5t138.5 -4.5h620q144 0 208.5 52t64.5 151v407h73v-407v-1z" />
    <glyph glyph-name="uni066F.fina" unicode="&#x66f;" horiz-adv-x="1287" 
d="M292 473q-74 -76 -121.5 -199t-50.5 -271q4 -181 100 -278.5t308 -97.5q118 0 203.5 9.5t145 31t96 49.5t57 73.5t27.5 93.5t7 118v22h-296q-361 0 -331 395h2q13 146 114 241.5t215 95.5q65 0 126.5 -31.5t115.5 -93t88 -165.5t38 -236v-6h161q44 0 75.5 -31.5
t31.5 -75.5t-31.5 -75.5t-75.5 -31.5h-161v-8q0 -74 -6 -134.5t-23 -123t-45.5 -110.5t-75 -90.5t-109.5 -70.5t-151 -44t-198 -16q-222 0 -347 158.5t-133 415.5v15v17q5 155 58.5 288.5t134.5 216.5zM508 377q-1 -97 54.5 -133t205.5 -36h296q-1 106 -25.5 186.5
t-66.5 127t-93.5 69t-110.5 22.5q-104 0 -181 -66.5t-77 -163.5v-6h-2z" />
    <glyph glyph-name="uni0671.fina" unicode="&#x671;" horiz-adv-x="494" arabic-form="final" 
d="M504 224q44 0 75.5 -31.5t31.5 -75.5t-31.5 -75.5t-75.5 -31.5h-40q-169 0 -251 119t-82 373v934h72v-934q0 -168 51.5 -223t209.5 -55h40zM-106 1552v99h11q48 0 71.5 21.5t23.5 56.5v94h34v-94q0 -26 -2 -37h2q57 60 120 97.5t117 46.5t98 -1.5t69.5 -43t25.5 -80.5v-5
q0 -70 -31.5 -112t-95.5 -42h-68q-102 0 -158.5 14t-101.5 57q-38 -71 -104 -71h-11zM79 1670q67 -19 190 -19h68q58 0 75.5 12t17.5 43v5q0 27 -20.5 46t-56 24t-79 -2.5t-96 -35.5t-99.5 -73z" />
    <glyph glyph-name="uni0679.init" unicode="&#x679;" horiz-adv-x="468" arabic-form="initial" 
d="M-9 10q-44 0 -75.5 31.5t-31.5 75.5t31.5 75.5t75.5 31.5h97q77 0 120.5 7.5t70 32t34.5 62t8 104.5v347h72v-347q0 -218 -73 -319t-232 -101h-97zM24 976v67h68v378h22v-347q62 98 147 133.5t144.5 4t59.5 -108.5v-4q0 -52 -29 -87.5t-92 -35.5h-320zM125 1043h219
q98 0 98 56v4q0 61 -56 83q-64 25 -144 -21q-69 -40 -117 -122z" />
    <glyph glyph-name="uni0679.medi" unicode="&#x679;" horiz-adv-x="638" arabic-form="medial" 
d="M365 460q0 -139 57.5 -187.5t225.5 -48.5q44 0 75.5 -31.5t31.5 -75.5t-31.5 -75.5t-75.5 -31.5q-266 0 -332 240q-43 -126 -116 -183t-179 -57h-30q-44 0 -75.5 31.5t-31.5 75.5t31.5 75.5t75.5 31.5h30q115 0 172.5 39t84.5 143t32 314h72q-3 -139 -19 -260h2zM106 873
v67h68v379h22v-347q62 98 147 133.5t144.5 3.5t59.5 -109v-4q0 -52 -29 -87.5t-92 -35.5h-320zM207 940h219q98 0 98 56v4q0 61 -56 83q-64 25 -144 -21q-69 -40 -117 -122z" />
    <glyph glyph-name="uni0679.fina" unicode="&#x679;" horiz-adv-x="1748" arabic-form="final" 
d="M1525 426q0 -110 56.5 -157t176.5 -45q44 0 75.5 -31.5t31.5 -75.5t-31.5 -75.5t-75.5 -31.5q-93 -2 -164.5 50.5t-108.5 154.5q-41 -97 -119.5 -151t-186.5 -54h-620q-58 0 -103 3t-97 14t-90.5 29.5t-76 51t-61.5 77.5t-39.5 110.5t-16.5 148.5v8v11q6 178 98 341
l62 -36q-85 -149 -88 -313q1 -60 21.5 -102t53 -67t87.5 -39t111.5 -18.5t138.5 -4.5h620q144 0 208.5 52t64.5 151v407h73v-407v-1zM582 890v67h68v378h23v-347q62 98 147 133.5t144.5 4t59.5 -108.5v-4q0 -52 -29 -87.5t-92 -35.5h-321zM684 957h219q98 0 98 56v4
q0 61 -56 83q-64 25 -144 -21q-69 -40 -117 -122z" />
    <glyph glyph-name="uni067E.init" unicode="&#x67e;" horiz-adv-x="468" arabic-form="initial" 
d="M-9 10q-44 0 -75.5 31.5t-31.5 75.5t31.5 75.5t75.5 31.5h97q77 0 120.5 7.5t70 32t34.5 62t8 104.5v347h72v-347q0 -218 -73 -319t-232 -101h-97zM-25 -239l122 121l120 -121l-121 -121zM104 -459l121 121l121 -121l-122 -120zM233 -240l121 121l120 -121l-121 -120z
" />
    <glyph glyph-name="uni067E.medi" unicode="&#x67e;" horiz-adv-x="638" arabic-form="medial" 
d="M365 460q0 -139 57.5 -187.5t225.5 -48.5q44 0 75.5 -31.5t31.5 -75.5t-31.5 -75.5t-75.5 -31.5q-266 0 -332 240q-43 -126 -116 -183t-179 -57h-30q-44 0 -75.5 31.5t-31.5 75.5t31.5 75.5t75.5 31.5h30q115 0 172.5 39t84.5 143t32 314h72q-3 -139 -19 -260h2zM52 -239
l122 121l120 -121l-121 -121zM181 -459l121 121l121 -121l-122 -120zM310 -240l121 121l120 -121l-121 -120z" />
    <glyph glyph-name="uni067E.fina" unicode="&#x67e;" horiz-adv-x="1748" arabic-form="final" 
d="M1525 426q0 -110 56.5 -157t176.5 -45q44 0 75.5 -31.5t31.5 -75.5t-31.5 -75.5t-75.5 -31.5q-93 -2 -164.5 50.5t-108.5 154.5q-41 -97 -119.5 -151t-186.5 -54h-620q-58 0 -103 3t-97 14t-90.5 29.5t-76 51t-61.5 77.5t-39.5 110.5t-16.5 148.5v8v11q6 178 98 341
l62 -36q-85 -149 -88 -313q1 -60 21.5 -102t53 -67t87.5 -39t111.5 -18.5t138.5 -4.5h620q144 0 208.5 52t64.5 151v407h73v-407v-1zM562 -239l121 121l121 -121l-122 -121zM691 -459l121 121l120 -121l-121 -120zM819 -240l121 121l121 -121l-121 -120z" />
    <glyph glyph-name="uni0686.init" unicode="&#x686;" horiz-adv-x="1261" arabic-form="initial" 
d="M1189 401q-144 -106 -281.5 -182t-239 -115.5t-209 -61.5t-173 -27t-148.5 -5h-147q-44 0 -75.5 31.5t-31.5 75.5t31.5 75.5t75.5 31.5h147q498 0 922 266q-105 25 -198.5 65.5t-242.5 123.5q-74 41 -143.5 55t-131.5 2.5t-113.5 -36t-106.5 -64.5v118q62 41 117 64
t120 31.5t137.5 -9.5t153.5 -63q165 -91 271 -131t265 -68h1v-177zM326 -206l121 122l121 -122l-122 -120zM455 -425l121 121l120 -121l-121 -121zM583 -206l122 121l120 -121l-121 -121z" />
    <glyph glyph-name="uni0686.medi" unicode="&#x686;" horiz-adv-x="1400" arabic-form="medial" 
d="M1189 401q-80 -58 -149 -103q133 -74 347 -74h22q44 0 75.5 -31.5t31.5 -75.5t-31.5 -75.5t-75.5 -31.5h-22q-154 0 -258.5 44.5t-211.5 169.5q-125 -71 -240.5 -117t-216.5 -65.5t-170 -25.5t-152 -6h-147q-44 0 -75.5 31.5t-31.5 75.5t31.5 75.5t75.5 31.5h147
q498 0 922 266q-105 25 -198.5 65.5t-242.5 123.5q-74 41 -143.5 55t-131.5 2.5t-113.5 -36t-106.5 -64.5v118q62 41 117 64t120 31.5t137.5 -9.5t153.5 -63q165 -91 271 -131t265 -68h1v-177zM393 -183l121 122l121 -122l-121 -120zM522 -402l121 121l120 -121l-121 -121z
M650 -184l122 122l120 -122l-121 -120z" />
    <glyph glyph-name="uni0686.fina" unicode="&#x686;" horiz-adv-x="1439" arabic-form="final" 
d="M1253 594v-213l-190 -43q128 -114 344 -114h41q44 0 76 -31.5t32 -75.5t-32 -75.5t-76 -31.5h-41q-94 0 -171.5 26.5t-151.5 95.5t-132 181l-17 -4q-219 -50 -375 -111.5t-246.5 -133t-130 -148.5t-36.5 -167q4 -69 37.5 -128t103.5 -110.5t179 -79.5t265.5 -35t362.5 24
v-143q-215 -31 -381 -19t-284.5 50.5t-196 107t-115.5 150.5t-43 181q-8 285 203 479.5t640 292.5l113 25q-70 33 -201 119t-174 112q-67 40 -132.5 54t-132 2t-125.5 -36.5t-133 -67.5v127q80 44 141 67.5t131 33t141 -9t148 -65.5q54 -32 141 -90t135 -87.5t125 -58.5
t157 -37l-1 -13h2zM623 -103l104 102l102 -102l-103 -103zM732 -290l104 103l102 -103l-103 -102zM842 -104l103 102l103 -102l-103 -102z" />
    <glyph glyph-name="uni0688.fina" unicode="&#x688;" horiz-adv-x="1033" arabic-form="final" 
d="M815 410q-2 -70 -12 -121q73 -65 223 -65h17q44 0 75.5 -31.5t31.5 -75.5t-31.5 -75.5t-75.5 -31.5h-17q-92 0 -159 34.5t-115 112.5q-92 -147 -321 -147h-387v214h387q117 0 186 21t97 60.5t29 104.5v7q0 317 -519 259v143q591 63 591 -402v-7zM165 980v67h68v378h22
v-347q62 98 147 133.5t144.5 4t59.5 -108.5v-4q0 -52 -29 -87.5t-92 -35.5h-320zM266 1047h219q98 0 98 56v4q0 61 -56 83q-64 25 -144 -21q-69 -40 -117 -122z" />
    <glyph glyph-name="uni0691.fina" unicode="&#x691;" horiz-adv-x="736" arabic-form="final" 
d="M0 -318q58 0 104 3.5t84.5 12.5t68.5 20t53 30.5t39.5 40t28 51.5t18.5 61.5t11 75t5.5 86.5t1.5 101v589h72v-292q0 -144 45 -190.5t192 -46.5h22q44 0 76 -31.5t32 -75.5t-32 -75.5t-76 -31.5h-22q-161 0 -237 117q-1 -88 -6.5 -157t-20 -138t-37.5 -120t-60 -96
t-87 -73.5t-119 -44.5t-156 -16v200zM293 890v67h68v378h22v-347q62 98 147.5 133.5t145 4t59.5 -108.5v-4q0 -52 -29 -87.5t-92 -35.5h-321zM395 957h219q98 0 98 56v4q0 61 -56 83q-64 25 -144 -21q-69 -40 -117 -122z" />
    <glyph glyph-name="uni0698.fina" unicode="&#x698;" horiz-adv-x="736" arabic-form="final" 
d="M0 -318q58 0 104 3.5t84.5 12.5t68.5 20t53 30.5t39.5 40t28 51.5t18.5 61.5t11 75t5.5 86.5t1.5 101v589h72v-292q0 -144 45 -190.5t192 -46.5h22q44 0 76 -31.5t32 -75.5t-32 -75.5t-76 -31.5h-22q-161 0 -237 117q-1 -88 -6.5 -157t-20 -138t-37.5 -120t-60 -96
t-87 -73.5t-119 -44.5t-156 -16v200zM296 1031l121 121l120 -121l-121 -121zM424 1250l122 121l120 -121l-121 -121zM553 1031l122 120l120 -120l-121 -122z" />
    <glyph glyph-name="uni06A1.init" unicode="&#x6a1;" horiz-adv-x="887" 
d="M812 461q0 -228 -76 -339.5t-233 -111.5h-512q-44 0 -75.5 31.5t-31.5 75.5t31.5 75.5t75.5 31.5h512q137 0 184 40t52 158h-297q-164 0 -247 72t-82 242v9q0 3 0.5 10t0.5 11q12 139 110 228.5t222 89.5q70 0 135.5 -34.5t117 -97.5t82.5 -161t31 -216v-114zM186 750
q-4 -103 48.5 -138.5t207.5 -35.5h298q0 180 -82.5 278.5t-211.5 98.5q-106 0 -180.5 -57.5t-79.5 -145.5z" />
    <glyph glyph-name="uni06A1.medi" unicode="&#x6a1;" horiz-adv-x="892" 
d="M111 517q0 53 13.5 107t41.5 103.5t67 88t94.5 61.5t118.5 23q78 0 142.5 -34.5t105.5 -90.5t63.5 -124t23.5 -138v-32q0 -151 -66 -257h30h156q44 0 75.5 -31.5t31.5 -75.5t-31.5 -75.5t-75.5 -31.5h-156q-172 0 -297 33q-123 -33 -292 -33h-165q-44 0 -75.5 31.5
t-31.5 75.5t31.5 75.5t75.5 31.5h165h22q-66 102 -67 253v40zM184 481q0 -171 265 -229q260 58 260 229v25q0 48 -15 91.5t-45 80t-82.5 58t-120.5 21.5t-120.5 -21.5t-82 -57t-44.5 -76.5t-15 -85v-36z" />
    <glyph glyph-name="uni06A1.fina" unicode="&#x6a1;" horiz-adv-x="2010" 
d="M235 768q-85 -149 -88 -313q1 -60 21.5 -102t53 -67t87.5 -39t111.5 -18.5t138.5 -4.5h716h28q-72 101 -73 253v40q0 97 37 185.5t115.5 149t182.5 60.5q78 0 142.5 -34.5t105 -92t63 -128t23.5 -144.5v-32q0 -150 -72 -256q12 -1 36 -1h156q44 0 76 -31.5t32 -75.5
t-32 -75.5t-76 -31.5h-156q-170 0 -296 39q-125 -39 -292 -39h-716q-58 0 -103 3t-97 14t-90.5 29.5t-76 51t-61.5 77.5t-39.5 110.5t-16.5 148.5v8v11q6 178 98 341zM1302 481q0 -81 71 -137.5t194 -87.5q121 31 190.5 87.5t69.5 137.5v25q0 52 -15 97.5t-45 83t-82 59.5
t-120 22t-120.5 -21.5t-82.5 -58t-45 -80t-15 -91.5v-36z" />
    <glyph glyph-name="uni06A4.init" unicode="&#x6a4;" horiz-adv-x="887" arabic-form="initial" 
d="M812 461q0 -228 -76 -339.5t-233 -111.5h-512q-44 0 -75.5 31.5t-31.5 75.5t31.5 75.5t75.5 31.5h512q137 0 184 40t52 158h-297q-164 0 -247 72t-82 242v9q0 3 0.5 10t0.5 11q12 139 110 228.5t222 89.5q70 0 135.5 -34.5t117 -97.5t82.5 -161t31 -216v-114zM186 750
q-4 -103 48.5 -138.5t207.5 -35.5h298q0 180 -82.5 278.5t-211.5 98.5q-106 0 -180.5 -57.5t-79.5 -145.5zM213 1358l121 121l121 -121l-122 -121zM342 1577l121 120l120 -120l-121 -121zM470 1357l122 121l121 -121l-122 -121z" />
    <glyph glyph-name="uni06A4.medi" unicode="&#x6a4;" horiz-adv-x="892" arabic-form="medial" 
d="M111 517q0 53 13.5 107t41.5 103.5t67 88t94.5 61.5t118.5 23q78 0 142.5 -34.5t105.5 -90.5t63.5 -124t23.5 -138v-32q0 -151 -66 -257h30h156q44 0 75.5 -31.5t31.5 -75.5t-31.5 -75.5t-75.5 -31.5h-156q-172 0 -297 33q-123 -33 -292 -33h-165q-44 0 -75.5 31.5
t-31.5 75.5t31.5 75.5t75.5 31.5h165h22q-66 102 -67 253v40zM184 481q0 -171 265 -229q260 58 260 229v25q0 48 -15 91.5t-45 80t-82.5 58t-120.5 21.5t-120.5 -21.5t-82 -57t-44.5 -76.5t-15 -85v-36zM215 1194l121 121l120 -121l-121 -121zM343 1413l121 121l121 -121
l-121 -121zM472 1194l122 120l120 -120l-121 -122z" />
    <glyph glyph-name="uni06A4.fina" unicode="&#x6a4;" horiz-adv-x="2010" arabic-form="final" 
d="M235 768q-85 -149 -88 -313q1 -60 21.5 -102t53 -67t87.5 -39t111.5 -18.5t138.5 -4.5h716h28q-72 101 -73 253v40q0 97 37 185.5t115.5 149t182.5 60.5q78 0 142.5 -34.5t105 -92t63 -128t23.5 -144.5v-32q0 -150 -72 -256q12 -1 36 -1h156q44 0 76 -31.5t32 -75.5
t-32 -75.5t-76 -31.5h-156q-170 0 -296 39q-125 -39 -292 -39h-716q-58 0 -103 3t-97 14t-90.5 29.5t-76 51t-61.5 77.5t-39.5 110.5t-16.5 148.5v8v11q6 178 98 341zM1302 481q0 -81 71 -137.5t194 -87.5q121 31 190.5 87.5t69.5 137.5v25q0 52 -15 97.5t-45 83t-82 59.5
t-120 22t-120.5 -21.5t-82.5 -58t-45 -80t-15 -91.5v-36zM1332 1189l121 121l121 -121l-122 -121zM1461 1408l121 121l120 -121l-121 -121zM1589 1189l122 120l121 -120l-122 -122z" />
    <glyph glyph-name="uni06A9.init" unicode="&#x6a9;" horiz-adv-x="1232" arabic-form="initial" 
d="M1172 1509v-116l-998 -437l406 -186q337 -163 346 -378v-7v-5q-3 -186 -99.5 -278t-293.5 -92h-542q-44 0 -75.5 31.5t-31.5 75.5t31.5 75.5t75.5 31.5h542q127 0 197.5 18t96.5 51.5t27 91.5q-1 23 -11.5 45t-39.5 53.5t-93.5 71.5t-160.5 86l-493 225v155z" />
    <glyph glyph-name="uni06A9.medi" unicode="&#x6a9;" horiz-adv-x="1210" arabic-form="medial" 
d="M1139 1465v-117l-995 -420l322 -159q210 -103 287 -264l1 1q83 -157 172 -219.5t204 -62.5h90q44 0 75.5 -31.5t31.5 -75.5t-31.5 -75.5t-75.5 -31.5h-90q-88 0 -169.5 57t-178.5 216q-21 -124 -108 -198.5t-215 -74.5h-468q-44 0 -75.5 31.5t-31.5 75.5t31.5 75.5
t75.5 31.5h468q118 0 187 38t70 93q1 19 -12 57q-44 118 -269 228l-392 194v144v24z" />
    <glyph glyph-name="uni06A9.fina" unicode="&#x6a9;" horiz-adv-x="1975" arabic-form="final" 
d="M75 732h72v-243q0 -56 4 -91.5t17 -68t35.5 -50.5t62.5 -31.5t95 -18.5t135 -5h661q127 0 197 18t96 51.5t27 91.5q-1 23 -11.5 45t-39.5 53.5t-93.5 71.5t-160.5 86l-493 225v155l1117 488v-116l-999 -437l406 -186q319 -154 344 -354q32 -52 66.5 -88.5t65.5 -56.5
t70.5 -31t70 -13.5t74.5 -2.5h90q44 0 75.5 -31.5t31.5 -75.5t-31.5 -75.5t-75.5 -31.5h-90q-35 0 -57 2t-54 9t-57.5 23t-57 42.5t-64.5 70t-69 102.5q-59 -249 -378 -249h-661q-103 0 -178.5 23.5t-121.5 63.5t-73.5 103t-37.5 131t-10 158v243z" />
    <glyph glyph-name="uni06AF.init" unicode="&#x6af;" horiz-adv-x="1232" arabic-form="initial" 
d="M1172 1509v-116l-998 -437l406 -186q337 -163 346 -378v-7v-5q-3 -186 -99.5 -278t-293.5 -92h-542q-44 0 -75.5 31.5t-31.5 75.5t31.5 75.5t75.5 31.5h542q127 0 197.5 18t96.5 51.5t27 91.5q-1 23 -11.5 45t-39.5 53.5t-93.5 71.5t-160.5 86l-493 225v155zM21 1318
l819 356l28 -66l-819 -355z" />
    <glyph glyph-name="uni06AF.medi" unicode="&#x6af;" horiz-adv-x="1210" arabic-form="medial" 
d="M1139 1465v-117l-995 -420l322 -159q210 -103 287 -264l1 1q83 -157 172 -219.5t204 -62.5h90q44 0 75.5 -31.5t31.5 -75.5t-31.5 -75.5t-75.5 -31.5h-90q-88 0 -169.5 57t-178.5 216q-21 -124 -108 -198.5t-215 -74.5h-468q-44 0 -75.5 31.5t-31.5 75.5t31.5 75.5
t75.5 31.5h468q118 0 187 38t70 93q1 19 -12 57q-44 118 -269 228l-392 194v144v24zM1 1298l819 355l28 -65l-819 -356z" />
    <glyph glyph-name="uni06AF.fina" unicode="&#x6af;" horiz-adv-x="1975" arabic-form="final" 
d="M75 732h72v-243q0 -56 4 -91.5t17 -68t35.5 -50.5t62.5 -31.5t95 -18.5t135 -5h661q127 0 197 18t96 51.5t27 91.5q-1 23 -11.5 45t-39.5 53.5t-93.5 71.5t-160.5 86l-493 225v155l1117 488v-116l-999 -437l406 -186q319 -154 344 -354q32 -52 66.5 -88.5t65.5 -56.5
t70.5 -31t70 -13.5t74.5 -2.5h90q44 0 75.5 -31.5t31.5 -75.5t-31.5 -75.5t-75.5 -31.5h-90q-35 0 -57 2t-54 9t-57.5 23t-57 42.5t-64.5 70t-69 102.5q-59 -249 -378 -249h-661q-103 0 -178.5 23.5t-121.5 63.5t-73.5 103t-37.5 131t-10 158v243zM691 1343l819 355l28 -65
l-820 -356z" />
    <glyph glyph-name="uni06BA.fina" unicode="&#x6ba;" horiz-adv-x="1277" arabic-form="final" 
d="M319 670q-74 -77 -121.5 -200t-50.5 -270q4 -182 100.5 -279t308.5 -97q438 0 438 376v553h72v-385q0 -39 11.5 -66.5t28 -42.5t44 -23t50.5 -10t56 -2h30q44 0 75.5 -31.5t31.5 -75.5t-31.5 -75.5t-75.5 -31.5h-30q-123 0 -194 98q-10 -118 -47.5 -208.5t-88 -144
t-117 -88t-127.5 -46.5t-126 -12q-149 0 -257 75t-163 203t-60 296h-1v15q0 11 1 17q5 155 58.5 289t134.5 217z" />
    <glyph glyph-name="uni06BE.init" unicode="&#x6be;" horiz-adv-x="1200" arabic-form="initial" 
d="M-9 10q-44 0 -75.5 31.5t-31.5 75.5t31.5 75.5t75.5 31.5h49h193q-84 107 -84 263q0 74 24 135.5t63.5 100t90.5 60.5t103.5 23.5t103.5 -18t91.5 -57t66 -100.5t26.5 -143q4 -153 -77 -260q54 -3 104 -3q163 0 236.5 44t71.5 127v45q-6 86 -62 158t-161 127.5
t-272.5 86.5t-383.5 31v143q461 0 706.5 -152.5t245.5 -415.5v-18q1 -62 -10 -117t-38.5 -106t-70.5 -87.5t-110 -58t-152 -21.5q-206 0 -305 32q-51 -17 -116.5 -25.5t-103.5 -9.5t-106.5 0.5t-73.5 1.5h-49zM205 487q0 -100 65 -163.5t174 -81.5q7 1 19 5q2 1 7 1
q107 45 151 99.5t42 137.5q-1 55 -27 97t-66.5 62.5t-89 29.5t-97 -2t-88.5 -33t-65 -62t-25 -90z" />
    <glyph glyph-name="uni06BE.medi" unicode="&#x6be;" horiz-adv-x="1221" arabic-form="medial" 
d="M-9 10q-44 0 -75.5 31.5t-31.5 75.5t31.5 75.5t75.5 31.5h49h193q-84 107 -84 263q0 74 24 135.5t63.5 100t90.5 60.5t103.5 23.5t103.5 -18t91.5 -57t66 -100.5t26.5 -143q4 -153 -77 -260q54 -3 104 -3q163 0 236.5 44t71.5 127v45q-6 86 -62 158t-161 127.5
t-272.5 86.5t-383.5 31v143q461 0 706.5 -152.5t245.5 -415.5v-18q3 -94 -27 -177h131q44 0 76 -31.5t32 -75.5t-32 -75.5t-76 -31.5h-455q-10 0 -15 1h-15q-206 0 -305 32q-51 -17 -116.5 -25.5t-103.5 -9.5t-106.5 0.5t-73.5 1.5h-49zM205 487q0 -100 65 -163.5t174 -81.5
q7 1 19 5q2 1 7 1q107 45 151 99.5t42 137.5q-1 55 -27 97t-66.5 62.5t-89 29.5t-97 -2t-88.5 -33t-65 -62t-25 -90z" />
    <glyph glyph-name="uni06BE.fina" unicode="&#x6be;" horiz-adv-x="1014" arabic-form="final" 
d="M786 427q-2 103 -64.5 184.5t-143.5 73.5q-47 -5 -83 -26.5t-59 -60t-38 -82t-22 -105.5t-9.5 -117t-2.5 -130v-30l78 25q347 108 344 268zM74 44l219 68q-1 17 -1 52q0 75 4.5 146t15.5 151t32 146.5t50.5 123t74.5 91.5t101 41q63 7 128.5 -51t110 -158t49.5 -207h1
q7 -120 -43 -223h207q44 0 75.5 -31.5t31.5 -75.5t-31.5 -75.5t-75.5 -31.5h-123q19 -64 20.5 -129t-13.5 -121t-42 -105.5t-66 -83.5t-83 -52.5t-95.5 -15.5t-101.5 29q-63 33 -116 136.5t-83 240.5l-225 -70zM391 -69q46 -178 161 -240q109 -57 193 -7q72 43 85 137
q16 123 -82 246q-13 16 -27 31q-101 -96 -257 -144zM800 195l1 -2v4z" />
    <glyph glyph-name="uni06C1.init" unicode="&#x6c1;" horiz-adv-x="512" arabic-form="initial" 
d="M-9 10q-44 0 -75.5 31.5t-31.5 75.5t31.5 75.5t75.5 31.5h97q77 0 120.5 7.5t70 32t34.5 62t8 104.5v347h72v-347q0 -165 -41 -262t-128 -134q-1 -161 1 -185q7 -73 49 -93q42 -19 148 -6l8 -152q-85 -11 -142.5 5t-85 52.5t-41.5 87.5t-12.5 111t1.5 123q1 25 1 37
q-40 -4 -63 -4h-97z" />
    <glyph glyph-name="uni06C1.medi" unicode="&#x6c1;" horiz-adv-x="860" arabic-form="medial" 
d="M-27 10q-44 0 -75.5 31.5t-31.5 75.5t31.5 75.5t75.5 31.5h146q0 90 10.5 178t35.5 173t61 149t90.5 103.5t121.5 39.5q73 0 138 -60.5t103.5 -158t42.5 -206.5q2 -128 -31 -218h196q44 0 76 -31.5t32 -75.5t-32 -75.5t-76 -31.5h-196q23 -103 20 -202q-5 -176 -110 -264
q-87 -72 -199 -50q-117 23 -193 139q-58 90 -75 217q-12 90 -15 160h-146zM191 225l144 -1q103 -1 168 12t96.5 42.5t41 62.5t9.5 86q-2 109 -57.5 182t-154.5 73q-247 0 -247 -457zM192 10q3 -58 13 -130q16 -117 123 -171q90 -45 187 -24q90 21 116 87q7 19 8 41
q2 69 -11.5 126.5t-49.5 133.5q-94 -64 -243 -63l-101 1v-1h-42z" />
    <glyph glyph-name="uni06C1.fina" unicode="&#x6c1;" horiz-adv-x="1192" arabic-form="final" 
d="M138 -34l-54 144l195 218q80 89 157 137t139.5 55.5t124 -8.5t111.5 -50.5t102 -74.5t95 -77t91.5 -61.5t90.5 -24.5h41q44 0 76 -31.5t32 -75.5t-32 -75.5t-76 -31.5h-41q-42 0 -95.5 30.5t-105.5 73.5t-112 90t-123.5 78.5t-130 41.5t-141.5 -24.5t-149 -115.5z" />
    <glyph glyph-name="uni06C2.fina" unicode="&#x6c2;" horiz-adv-x="1192" 
d="M138 -34l-54 144l195 218q80 89 157 137t139.5 55.5t124 -8.5t111.5 -50.5t102 -74.5t95 -77t91.5 -61.5t90.5 -24.5h41q44 0 76 -31.5t32 -75.5t-32 -75.5t-76 -31.5h-41q-42 0 -95.5 30.5t-105.5 73.5t-112 90t-123.5 78.5t-130 41.5t-141.5 -24.5t-149 -115.5z
M428 700v91h99q-23 42 -21 92t28.5 89.5t79 56.5t131.5 -6v-74q-119 41 -177 -10q-38 -34 -24 -83q14 -46 66 -65h212v-91h-394z" />
    <glyph glyph-name="uni06C3.fina" unicode="&#x6c3;" horiz-adv-x="1192" 
d="M138 -34l-54 144l195 218q80 89 157 137t139.5 55.5t124 -8.5t111.5 -50.5t102 -74.5t95 -77t91.5 -61.5t90.5 -24.5h41q44 0 76 -31.5t32 -75.5t-32 -75.5t-76 -31.5h-41q-42 0 -95.5 30.5t-105.5 73.5t-112 90t-123.5 78.5t-130 41.5t-141.5 -24.5t-149 -115.5z
M383 810l121 121l120 -121l-121 -121zM640 809l121 121l120 -121l-121 -121z" />
    <glyph glyph-name="uni06CC.init" unicode="&#x6cc;" horiz-adv-x="535" arabic-form="initial" 
d="M-9 10q-44 0 -75.5 31.5t-31.5 75.5t31.5 75.5t75.5 31.5h97q77 0 120.5 7.5t70 32t34.5 62t8 104.5v347h72v-347q0 -218 -73 -319t-232 -101h-97zM3 -249l117 115l116 -115l-117 -117zM251 -250l117 116l115 -116l-116 -117z" />
    <glyph glyph-name="uni06CC.medi" unicode="&#x6cc;" horiz-adv-x="638" arabic-form="medial" 
d="M365 460q0 -139 57.5 -187.5t225.5 -48.5q44 0 75.5 -31.5t31.5 -75.5t-31.5 -75.5t-75.5 -31.5q-266 0 -332 240q-43 -126 -116 -183t-179 -57h-30q-44 0 -75.5 31.5t-31.5 75.5t31.5 75.5t75.5 31.5h30q115 0 172.5 39t84.5 143t32 314h72q-3 -139 -19 -260h2zM66 -259
l121 121l120 -121l-121 -121zM323 -260l121 121l120 -121l-121 -121z" />
    <glyph glyph-name="uni06CC.fina" unicode="&#x6cc;" horiz-adv-x="1438" arabic-form="final" 
d="M826 366q200 -85 326.5 -113.5t295.5 -28.5q44 0 75.5 -31.5t31.5 -75.5t-31.5 -75.5t-75.5 -31.5q-126 0 -212 13q1 -139 -40 -243t-115 -165t-168 -90.5t-208 -29.5q-166 0 -286.5 43.5t-191.5 124.5t-109.5 197t-40.5 261.5t16 316.5h74q-35 -264 -7 -432.5
t156.5 -247.5t388.5 -79q226 0 341.5 84.5t115.5 274.5q-124 29 -364 130z" />
    <glyph glyph-name="uni06D2.fina" unicode="&#x6d2;" horiz-adv-x="1748" arabic-form="final" 
d="M1710 -543q-148 0 -410 -2q-281 -5 -493.5 -0.5t-360 27t-236 79.5t-121.5 158v1q-1 2 -1 5q-82 499 370 499h1299q44 0 75.5 -31.5t31.5 -75.5t-31.5 -75.5t-75.5 -31.5h-1299q-157 0 -224.5 -22t-81 -77.5t6.5 -150.5q42 -115 274.5 -139.5t885.5 -21.5q250 1 391 1
v-143z" />
    <glyph glyph-name="uni06D3.fina" unicode="&#x6d3;" horiz-adv-x="1748" arabic-form="final" 
d="M1710 -543q-148 0 -410 -2q-281 -5 -493.5 -0.5t-360 27t-236 79.5t-121.5 158v1q-1 2 -1 5q-82 499 370 499h1299q44 0 75.5 -31.5t31.5 -75.5t-31.5 -75.5t-75.5 -31.5h-1299q-157 0 -224.5 -22t-81 -77.5t6.5 -150.5q42 -115 274.5 -139.5t885.5 -21.5q250 1 391 1
v-143zM704 513v92h99q-23 42 -21 92t29 89t79.5 56t131.5 -6v-73q-119 41 -177 -10q-39 -34 -24 -83q13 -46 65 -65h213v-92h-395z" />
    <glyph glyph-name="uniFDFC" unicode="&#xfdfc;" horiz-adv-x="2476" arabic-form="isolated" 
d="M1382 -130l120 -121l-121 -121l-120 121zM75 223v19q0 14 1 21q11 272 176 473l56 -45q-154 -184 -161 -447q5 -195 112 -296.5t306 -101.5q438 0 438 376v1037h446v-746q0 -65 2 -103t11.5 -71.5t23 -48.5t43 -26.5t64 -14t93.5 -2.5h15q126 0 181 46t55 162v402h72
v-402q0 -208 -83 -315.5t-225 -107.5h-15q-171 0 -240 109.5t-69 371.5v531h-302v-822q0 -101 -17 -185.5t-46 -144.5t-70.5 -106.5t-86 -75t-96 -47t-98.5 -25.5t-96 -7q-210 0 -344.5 158t-144.5 434h-1zM1518 -251l121 120l121 -120l-122 -122zM1798 -518v200
q58 0 104 3.5t84.5 12.5t68.5 20t53 30.5t39.5 40t28 51.5t18.5 61.5t11 75t5.5 86.5t1.5 101v589h72v-589q0 -93 -4.5 -165t-18 -146t-35.5 -127.5t-59 -101.5t-87.5 -78t-121.5 -47t-160 -17z" />
    <glyph glyph-name=".notdef" horiz-adv-x="994" 
d="M73 1506h848v-1497h-848v1497zM224 212h546v1091h-546v-1091z" />
    <glyph glyph-name=".null" horiz-adv-x="99" 
 />
    <glyph glyph-name="nonmarkingreturn" horiz-adv-x="682" 
 />
    <glyph glyph-name="space" unicode=" " horiz-adv-x="239" 
 />
    <glyph glyph-name="exclam" unicode="!" horiz-adv-x="386" 
d="M193 40l121 -120l-121 -122l-121 122zM157 235v1022h72v-1022h-72z" />
    <glyph glyph-name="quotedbl" unicode="&#x22;" horiz-adv-x="620" 
d="M499 1099h-85v643h85v-643zM120 1099v643h86v-643h-86z" />
    <glyph glyph-name="numbersign" unicode="#" horiz-adv-x="1344" 
d="M341 0h-77l64 287h-256v143h288l97 439h-385v144h416l64 285h77l-64 -285h375l64 285h77l-64 -285h254v-144h-286l-97 -439h383v-143h-415l-64 -287h-77l64 287h-374zM437 430h374l97 439h-374z" />
    <glyph glyph-name="dollar" unicode="$" horiz-adv-x="1073" 
d="M999 482v-3v-1l-1 -27q-7 -218 -116 -323.5t-312 -119.5v-169h-72v167q-164 0 -395 44v213q235 -45 395 -48v474q-220 12 -316 96.5t-105 227.5h-2v21v17h1q4 83 26 145t56.5 102.5t88.5 67.5t113 40t138 19v302h72v-298q25 1 333 1v-143q-285 0 -333 -1v-450
q211 -3 319 -92.5t110 -261.5zM148 1033q2 -45 17.5 -76.5t52.5 -58.5t106.5 -42t173.5 -19v447q-87 -5 -147 -18.5t-106.5 -41.5t-70 -75t-26.5 -116zM570 215q356 14 357 264q-1 102 -83.5 154.5t-273.5 53.5v-472z" />
    <glyph glyph-name="percent" unicode="%" horiz-adv-x="1504" 
d="M449 0h-79l652 1416h78zM75 1117q0 113 69.5 191t167.5 78q97 0 166.5 -78t69.5 -191t-69.5 -192.5t-166.5 -79.5t-167 79.5t-70 192.5zM131 1117q0 -63 49 -106t132 -43q82 0 131 43t49 106q0 62 -49 104t-131 42q-83 0 -132 -42t-49 -104zM956 360q0 113 70 192t168 79
q96 0 166 -79t70 -192t-69.5 -191.5t-166.5 -78.5q-98 0 -168 78.5t-70 191.5zM1012 360q0 -62 49 -104.5t133 -42.5q82 0 131 42.5t49 104.5t-49 105t-131 43q-83 0 -132.5 -43t-49.5 -105z" />
    <glyph glyph-name="ampersand" unicode="&#x26;" horiz-adv-x="1363" 
d="M1101 795q0 -287 -55 -458l243 -210l-47 -54l-222 192q-33 -75 -80 -126t-106.5 -78.5t-123 -39t-143.5 -11.5q-244 0 -365.5 110t-126.5 302v8q0 8 1 11q6 116 88.5 196t245.5 156q-109 103 -154 179.5t-45 160.5q0 134 95 201.5t247 67.5q150 0 246 -68.5t96 -189.5
v-14q0 -21 -1 -30q-3 -75 -24 -134t-56.5 -100t-76 -68.5t-92.5 -48.5l-52 -22l378 -326q58 125 58 394h72zM147 429q2 -47 22 -81.5t65.5 -64t129 -44.5t203.5 -15q141 0 227 24.5t139 90.5l-414 358q-198 -84 -283 -142.5t-89 -125.5zM283 1133q0 -72 43 -138.5
t156 -169.5q22 9 67.5 27.5t68.5 28.5q115 47 159.5 98t44.5 151v14q0 91 -71 138.5t-198 47.5q-270 0 -270 -197z" />
    <glyph glyph-name="quotesingle" unicode="'" horiz-adv-x="271" 
d="M178 1099h-85v643h85v-643z" />
    <glyph glyph-name="parenleft" unicode="(" horiz-adv-x="534" 
d="M419 -31q-149 105 -246.5 321t-97.5 467q0 250 97 463.5t247 319.5l41 -126q-151 -106 -232 -275t-81 -382q0 -216 81 -386t232 -276z" />
    <glyph glyph-name="parenright" unicode=")" horiz-adv-x="534" 
d="M75 95q151 105 231.5 275.5t80.5 386.5q0 214 -80.5 383t-231.5 274l41 126q150 -106 247 -319.5t97 -463.5q0 -251 -97.5 -467t-246.5 -321z" />
    <glyph glyph-name="asterisk" unicode="*" horiz-adv-x="1070" 
d="M587 233h-102v340l-241 -240l-72 72l241 241h-341v102h340l-240 240l72 72l241 -241v341h102v-340l240 240l72 -72l-240 -240h340v-102h-340l240 -241l-72 -72l-240 240v-340z" />
    <glyph glyph-name="plus" unicode="+" horiz-adv-x="1052" 
d="M981 712v-154h-419v-378h-72v378h-418v154h418v377h72v-377h419z" />
    <glyph glyph-name="comma" unicode="," horiz-adv-x="295" 
d="M164 -238l-72 5l40 639l72 -5z" />
    <glyph glyph-name="hyphen" unicode="-" horiz-adv-x="804" 
d="M732 197v-72h-660v72h660z" />
    <glyph glyph-name="period" unicode="." horiz-adv-x="349" 
d="M174 16q-45 0 -76 32t-31 77t31 76.5t76 31.5q46 0 77.5 -31.5t31.5 -76.5t-31.5 -77t-77.5 -32z" />
    <glyph glyph-name="slash" unicode="/" horiz-adv-x="934" 
d="M165 -338l-72 26l678 1887l72 -26z" />
    <glyph glyph-name="zero" unicode="0" horiz-adv-x="1201" 
d="M164 588q0 -196 79 -280t276 -84h163q198 0 277 84t79 280v325q0 170 -95.5 271.5t-260.5 101.5h-163q-164 0 -259.5 -102t-95.5 -271v-325zM92 588v325q0 224 121 370.5t306 146.5h163q184 0 306 -146t122 -371v-325q0 -279 -109.5 -428.5t-318.5 -149.5h-163
q-208 0 -317.5 149t-109.5 429z" />
    <glyph glyph-name="one" unicode="1" horiz-adv-x="647" 
d="M466 -1h-72v1213h-216v214h288v-1427z" />
    <glyph glyph-name="two" unicode="2" horiz-adv-x="1297" 
d="M72 10v214h1v6l693 503q163 119 229.5 194.5t68.5 152.5q-2 97 -65.5 152t-191.5 55h-670v143h670q150 0 237.5 -97.5t91.5 -247.5v-6v-7q-2 -65 -25 -124t-68.5 -114t-100 -103t-133.5 -106l-554 -401h971v-214h-1154z" />
    <glyph glyph-name="three" unicode="3" horiz-adv-x="1073" 
d="M205 705v144h336q104 0 177 11t113.5 27t62 44.5t27 53.5t5.5 64q0 135 -70.5 186t-252.5 51h-531v144h531q197 0 296 -87.5t99 -293.5q0 -37 -3.5 -68t-16.5 -69t-34 -67.5t-59 -57.5t-90 -46q203 -76 203 -298l-1 -34q-4 -90 -27.5 -161t-69 -125.5t-121 -83.5
t-176.5 -29h-531v214h531q180 0 251.5 51.5t71.5 166.5v1q0 31 -4 56.5t-15 56.5t-34 54.5t-58 44.5t-91 34t-128 17q-17 -1 -55 -1h-336z" />
    <glyph glyph-name="four" unicode="4" horiz-adv-x="1204" 
d="M73 360v215h2l-1 2l774 853l2 -2v8h72v-861h209v-215h-209v-360h-72v360h-777zM206 575h644v710z" />
    <glyph glyph-name="five" unicode="5" horiz-adv-x="1119" 
d="M1044 536v-12v-8q-5 -260 -132 -383t-369 -123h-471v214h471q234 0 330 69t99 231q-5 224 -304 224h-539v688h73v-6h775v-143h-775v-396h466q94 0 166.5 -29t116.5 -79.5t67 -112.5t26 -134z" />
    <glyph glyph-name="six" unicode="6" horiz-adv-x="1069" 
d="M75 508q0 107 11.5 203t39 191t71 173.5t111 147t154 115.5t205 73.5t260.5 26.5v-103q-147 0 -265 -27.5t-200.5 -76t-143 -120.5t-95 -154t-53.5 -183q60 68 148 102.5t184 34.5h78q186 0 297.5 -107t117.5 -285v-11v-9q-3 -105 -30.5 -191t-83 -154t-147.5 -106
t-215 -38q-114 0 -212.5 54t-163 161t-68.5 247v34v2zM147 491q0 -116 102 -191.5t270 -75.5q215 0 307.5 71.5t95.5 212.5q-3 120 -88.5 190t-253.5 70h-78q-154 0 -254.5 -68.5t-100.5 -193.5v-15z" />
    <glyph glyph-name="seven" unicode="7" horiz-adv-x="1166" 
d="M1015 1436h75l-490 -1436h-75l414 1212h-867v214h940z" />
    <glyph glyph-name="eight" unicode="8" horiz-adv-x="1069" 
d="M995 537v-13v-7q-1 -104 -17 -184.5t-46.5 -135.5t-70 -92t-96 -57.5t-116 -29t-137.5 -8.5q-62 0 -114 8.5t-102.5 28t-88.5 54.5t-68 85t-46.5 122.5t-17.5 164.5v34q0 117 51 200.5t143 129.5q-84 92 -87 248v24q0 86 26.5 150t72 100t98.5 53.5t112 17.5h82
q135 0 208.5 -81t77.5 -218v-8v-6q-3 -171 -73 -261q99 -40 151.5 -125.5t57.5 -193.5zM147 492q0 -150 87.5 -209t277.5 -59q117 0 189.5 12t124.5 45.5t73.5 91.5t22.5 151q-5 219 -304 219h-116q-169 0 -262 -61.5t-93 -174.5v-15zM254 1099q0 -106 60.5 -159.5
t176.5 -53.5q166 0 230 50t65 186q-2 83 -48.5 123.5t-164.5 40.5h-82q-237 0 -237 -177v-10z" />
    <glyph glyph-name="nine" unicode="9" horiz-adv-x="1085" 
d="M92 936v10v8q3 104 30.5 188.5t80.5 148.5t136.5 99t192.5 35q68 0 129.5 -15.5t122 -55.5t105 -101.5t73 -161t30.5 -226.5q5 -149 -12.5 -268.5t-63.5 -223t-122.5 -179t-192 -129.5t-270.5 -82l-13 100q263 49 398.5 160t179.5 300h-398q-185 0 -292.5 108.5
t-113.5 284.5zM164 946q3 -106 85.5 -167.5t248.5 -61.5h421q3 73 1 131v11q0 3 -0.5 10t-0.5 10q-16 332 -387 332q-192 0 -278.5 -66.5t-89.5 -198.5z" />
    <glyph glyph-name="colon" unicode=":" horiz-adv-x="387" 
d="M194 371l121 -120l-122 -122l-120 122zM72 584l121 121l121 -121l-121 -121z" />
    <glyph glyph-name="semicolon" unicode=";" horiz-adv-x="386" 
d="M193 828l121 -120l-121 -121l-121 121zM110 -233l40 639l72 -5l-40 -639z" />
    <glyph glyph-name="less" unicode="&#x3c;" horiz-adv-x="902" 
d="M799 194l-724 361v98l725 359l31 -64l-684 -339v-9l684 -342z" />
    <glyph glyph-name="equal" unicode="=" horiz-adv-x="1052" 
d="M981 654v-72h-909v72h909zM72 225v72h909v-72h-909z" />
    <glyph glyph-name="greater" unicode="&#x3e;" horiz-adv-x="902" 
d="M104 194l-33 64l685 342v9l-684 339l31 64l725 -359v-98z" />
    <glyph glyph-name="question" unicode="?" horiz-adv-x="1001" 
d="M854 785v6q0 114 -76.5 183.5t-213.5 69.5h-492v144h492q159 0 261 -113.5t102 -283.5v-6q-2 -188 -106 -307t-257 -119h-219v-343h-72v557h291q140 0 214 59.5t76 152.5zM203 -158l121 120l121 -120l-121 -121z" />
    <glyph glyph-name="at" unicode="@" horiz-adv-x="1912" 
d="M1645 -451v-109h-1080q-212 0 -351 144.5t-139 363.5v999q0 219 139 363.5t351 144.5h781q212 0 351.5 -144.5t139.5 -363.5v-816q0 -145 -87 -240t-218 -95t-217.5 94.5t-88.5 236.5q-100 -145 -331 -145h-77q-70 0 -118.5 4.5t-95.5 17.5t-77 37t-54 62t-35.5 93.5
t-13.5 131.5v15v21q4 70 24 120.5t62 88.5t112 57t170 19h434v72q0 93 -54.5 133t-187.5 40h-519v108h519q153 0 233.5 -70.5t80.5 -210.5v-590q0 -103 62.5 -165t171.5 -62q108 0 170.5 62t62.5 165v816q0 177 -115.5 288.5t-303.5 111.5h-781q-188 0 -303 -111.5
t-115 -288.5v-999q0 -177 115 -288t303 -111h1080zM496 347q2 -39 11.5 -64.5t29.5 -43t59 -26.5t90 -12.5t132 -3.5h77q161 0 246 50t85 163v95h-434q-122 0 -186 -16.5t-86 -48.5t-24 -93z" />
    <glyph glyph-name="A" unicode="A" horiz-adv-x="1380" 
d="M1303 0h-145l-106 500h-649l-108 -500h-213l229 1059q23 104 56 171t84 105.5t114 53.5t155 16h6h8q44 -1 81 -8t65.5 -17t52.5 -28.5t40.5 -34t31.5 -43t24 -47t19 -54t15 -55t13 -59.5zM419 572h617l-100 472q-11 51 -17 78t-16.5 63.5t-20.5 54.5t-25 39t-33.5 30.5
t-43.5 16.5t-57 7q-37 0 -56.5 -2t-40.5 -13.5t-31 -26t-24 -52t-23.5 -78t-26.5 -117.5z" />
    <glyph glyph-name="B" unicode="B" horiz-adv-x="1038" 
d="M458 1430q93 0 164 -23t111 -57t66 -82t35.5 -89.5t11.5 -89.5h1v-17q0 -9 -1 -14q-5 -172 -82 -262q185 -86 199 -323h1v-18q0 -11 -1 -16q-3 -86 -23.5 -153.5t-56 -113.5t-81 -78t-106 -50t-123 -25.5t-138.5 -7.5h-288v-11h-72v1430h383zM147 226h288
q227 0 338.5 52.5t118.5 179.5q-3 55 -21 96.5t-58.5 75.5t-114.5 52t-180 18h-371v-474zM147 844h371q43 0 74 3.5t67 17t59 37.5t39 67.5t18 104.5q-1 36 -7 63t-25.5 56.5t-53 48.5t-92 31.5t-139.5 12.5h-311v-442z" />
    <glyph glyph-name="C" unicode="C" horiz-adv-x="1010" 
d="M939 3h-157q-153 0 -256.5 11t-187 43.5t-131 81.5t-79 134.5t-42.5 193t-11 266.5v6q0 92 5 162t18 139t35.5 119.5t57 96t83.5 76t115 53t151 33t191 10.5h159v-143h-159q-100 0 -176.5 -6t-137 -21.5t-102.5 -36t-73 -55.5t-49 -72.5t-28.5 -95.5t-14 -116.5
t-3.5 -142.5v-6q0 -77 1.5 -129t8.5 -104.5t16 -85.5t29.5 -65t42.5 -50t61.5 -35t80.5 -24t105 -13t129.5 -7.5t160.5 -1.5h157v-215z" />
    <glyph glyph-name="D" unicode="D" horiz-adv-x="1137" 
d="M147 0h-72l1 1436h72v-6h239q155 0 272 -31t193 -86.5t123.5 -139t67 -181t19.5 -221.5v-65v-9v-20q-2 -122 -23 -220t-55 -167t-86 -120t-107.5 -81t-128 -48.5t-139 -24.5t-148.5 -6h-228v-10zM147 224h228q84 0 149.5 4.5t131.5 18t114.5 35.5t91.5 58t69.5 85
t42.5 118t16 155v73q0 105 -15 181.5t-54.5 142.5t-107 106.5t-173.5 63t-253 22.5h-239z" />
    <glyph glyph-name="E" unicode="E" horiz-adv-x="1071" 
d="M999 224v-214h-534q-195 0 -292.5 127t-97.5 359v934h924v-143h-852v-469h756v-72h-756v-250q0 -147 70 -209.5t248 -62.5h534z" />
    <glyph glyph-name="F" unicode="F" horiz-adv-x="913" 
d="M147 0h-72l1 1436h72v-8h693v-184h-693v-517h588v-103h-589v-624z" />
    <glyph glyph-name="G" unicode="G" horiz-adv-x="1256" 
d="M1173 800h8v-284q0 -111 -28 -202.5t-82.5 -159.5t-141 -106t-198.5 -38h-62q-96 2 -179 23.5t-161 72.5t-133 128.5t-88 199.5t-33 278v6q0 349 165 530.5t453 181.5v-2q54 -1 95.5 -3.5t81 -9.5t61.5 -12t70 -18t74 -19l-17 -140q-21 5 -70.5 18.5t-70 17.5t-62.5 11
t-87.5 9.5t-106.5 2.5q-253 -8 -383.5 -146.5t-130.5 -420.5v-6q0 -135 39.5 -231.5t114 -151.5t169.5 -80t219 -25h42q197 0 287.5 73.5t90.5 218.5v176h-492v108h556z" />
    <glyph glyph-name="H" unicode="H" horiz-adv-x="1105" 
d="M147 0h-72l1 1436h72v-642h810v642h73l-1 -1436h-72v579h-811v-579z" />
    <glyph glyph-name="I" unicode="I" horiz-adv-x="335" 
d="M203 0h-72l2 1436h72z" />
    <glyph glyph-name="J" unicode="J" horiz-adv-x="776" 
d="M73 -72q212 0 331.5 48t171.5 154.5t52 294.5v1011h72v-1011q0 -359 -152.5 -517.5t-474.5 -158.5v179z" />
    <glyph glyph-name="K" unicode="K" horiz-adv-x="1074" 
d="M147 0h-72l1 1436h72v-627h2l777 639l45 -56l-708 -583h199q276 0 406 -152t130 -460v-197h-72v197q0 235 -102 331.5t-362 96.5h-316v-625z" />
    <glyph glyph-name="L" unicode="L" horiz-adv-x="847" 
d="M775 224v-214h-283q-111 0 -192.5 34t-130 97t-71.5 144.5t-23 184.5l1 966h72l-1 -966q0 -129 77 -187.5t268 -58.5h283z" />
    <glyph glyph-name="M" unicode="M" horiz-adv-x="1508" 
d="M75 1436h205l544 -1331l497 1331h112v-1436h-72v1300l-486 -1300h-202l-526 1288l1 -1288h-72z" />
    <glyph glyph-name="N" unicode="N" horiz-adv-x="1155" 
d="M76 1436h210l718 -1313v1313h72v-1436h-209l-719 1313l1 -1313h-72z" />
    <glyph glyph-name="O" unicode="O" horiz-adv-x="1119" 
d="M972 891q0 192 -91.5 294.5t-261.5 102.5h-119q-84 0 -147 -20.5t-102 -55.5t-62.5 -87t-32.5 -108t-9 -126v-306q0 -67 8 -117.5t31 -98t61.5 -78t102 -49t150.5 -18.5h119q87 0 150.5 18.5t102 49t61.5 78t31 98t8 117.5v306zM75 585v306q0 83 12.5 157t43 145.5
t77.5 123t122 83t170 31.5h119q191 0 308 -147.5t117 -392.5v-306q0 -88 -12.5 -167t-43.5 -155t-78 -131t-122 -88.5t-169 -33.5h-119q-94 0 -169 33.5t-122 88.5t-78 131t-43.5 155t-12.5 167z" />
    <glyph glyph-name="P" unicode="P" horiz-adv-x="954" 
d="M808 986q0 161 -61 231t-187 70h-412v-352q3 -48 13 -77.5t31 -51t62.5 -31.5t96.5 -14.5t145 -4.5q81 0 135 9t96 32.5t61.5 67.5t19.5 111v10zM75 982v135h1v313h484q136 0 223.5 -103t95.5 -305h1v-36v-10q0 -80 -12 -145t-31.5 -109.5t-49.5 -78t-61.5 -52.5
t-72.5 -31t-77 -15.5t-80 -3.5q-132 0 -216 27t-132 91l1 -659h-72l-1 927q-1 18 -1 55z" />
    <glyph glyph-name="Q" unicode="Q" horiz-adv-x="1210" 
d="M972 891q0 192 -91.5 294.5t-261.5 102.5h-119q-84 0 -147 -20.5t-102 -55.5t-62.5 -87t-32.5 -108t-9 -126v-306q0 -67 8 -117.5t31 -98t61.5 -78t102 -49t150.5 -18.5h119q97 0 164 23l-159 217l58 42l168 -230q69 43 95.5 120.5t26.5 188.5v306zM75 585v306
q0 83 12.5 157t43 145.5t77.5 123t122 83t170 31.5h119q191 0 308 -147.5t117 -392.5v-306q0 -270 -111 -423l202 -276l-57 -42l-192 263q-103 -97 -267 -97h-119q-94 0 -169 33.5t-122 88.5t-78 131t-43.5 155t-12.5 167z" />
    <glyph glyph-name="R" unicode="R" horiz-adv-x="1146" 
d="M1071 27l-48 -54l-667 600h-207v-573h-72v573h-2v539h1v314h458q340 0 346 -455v-25q0 -111 -30.5 -187.5t-87 -115.5t-120 -54.5t-146.5 -15.5h-33zM148 1212v-496h348q158 0 235 49.5t77 180.5v7q0 152 -56.5 205.5t-217.5 53.5h-386z" />
    <glyph glyph-name="S" unicode="S" horiz-adv-x="1073" 
d="M999 482v-3v-1l-1 -27q-3 -96 -27 -170.5t-64 -126t-101 -84t-132.5 -48.5t-164 -16.5t-190.5 10.5t-216 34v213q260 -49 443 -48.5t281.5 66.5t99.5 198q-1 104 -86.5 156t-285.5 52q-130 1 -223 25.5t-146.5 70t-78.5 101.5t-30 129h-2v21v17h1q4 81 24.5 142t55 101.5
t83 68t109 40.5t131.5 20.5t151.5 7t168.5 -0.5h104v-143h-113q-75 1 -142 0.5t-125.5 -3t-108.5 -9t-91 -18t-72.5 -30.5t-53.5 -45.5t-34.5 -63.5t-14.5 -85q2 -48 20 -81.5t62.5 -61t128 -41t209.5 -13.5q212 -2 320.5 -91.5t110.5 -262.5z" />
    <glyph glyph-name="T" unicode="T" horiz-adv-x="1000" 
d="M536 0h-72v1248h-464v179h1000v-179h-463z" />
    <glyph glyph-name="U" unicode="U" horiz-adv-x="1203" 
d="M1056 1436h72v-863q0 -261 -127 -411t-360 -150h-80q-229 0 -357.5 148.5t-128.5 412.5v863h72v-863q0 -346 414 -346h80q206 0 310.5 84t104.5 262v863z" />
    <glyph glyph-name="V" unicode="V" horiz-adv-x="1373" 
d="M610 0l-529 1436h223l492 -1336l427 1336h75l-458 -1436h-230z" />
    <glyph glyph-name="W" unicode="W" horiz-adv-x="1885" 
d="M221 0l-139 1436h216l126 -1296l492 1246h160l510 -1307l152 1357h72l-161 -1436h-186l-506 1295l-511 -1295h-225z" />
    <glyph glyph-name="X" unicode="X" horiz-adv-x="1538" 
d="M1338 1459l55 -46l-494 -589l104 -92q85 -76 146 -145.5t114.5 -157t84.5 -192t41 -229.5l-159 -16q-10 130 -51.5 231.5t-105.5 179.5t-177 179l-114 102l-594 -707l-56 46l595 709l-650 579l107 150l661 -589z" />
    <glyph glyph-name="Y" unicode="Y" horiz-adv-x="1227" 
d="M687 0h-72v553q-60 8 -109.5 30.5t-82.5 52.5t-62 74t-46.5 83t-36.5 92l-199 554h187l180 -503q46 -127 85.5 -178t116.5 -58h1q70 -5 116.5 26t65.5 88l235 625h87l-260 -693q-31 -86 -84.5 -136.5t-121.5 -58.5v-551z" />
    <glyph glyph-name="Z" unicode="Z" horiz-adv-x="1391" 
d="M1239 1162q-1 71 -63 101.5t-190 30.5h-879v143h879q314 0 325 -257h1v-44q0 -50 -21.5 -94.5t-50.5 -75.5t-77.5 -62t-83 -48.5t-87.5 -40.5l-529 -236q-165 -72 -224 -114q-90 -61 -92 -126q1 -47 28.5 -70t107.5 -34t243 -11h784v-214h-784q-135 0 -222 17.5
t-136.5 56.5t-69 92t-22.5 134h-1v25v3v8q2 50 26.5 95t57 76.5t81.5 62t86 48.5t84 39q5 2 8 3.5t7.5 3t7.5 3.5l530 236q66 29 107.5 50.5t84.5 50t63.5 59t20.5 63.5v26z" />
    <glyph glyph-name="bracketleft" unicode="[" horiz-adv-x="610" 
d="M538 -60v-214h-463v1754h463v-214h-391v-1326h391z" />
    <glyph glyph-name="backslash" unicode="\" horiz-adv-x="934" 
d="M770 -338l-678 1887l72 26l678 -1887z" />
    <glyph glyph-name="bracketright" unicode="]" horiz-adv-x="610" 
d="M72 -60h391v1326h-391v214h463v-1754h-463v214z" />
    <glyph glyph-name="asciicircum" unicode="^" horiz-adv-x="858" 
d="M784 894l-61 -38l-290 460h-7l-291 -460l-60 38l312 494h86z" />
    <glyph glyph-name="underscore" unicode="_" horiz-adv-x="1160" 
d="M1089 -185v-72h-1017v72h1017z" />
    <glyph glyph-name="grave" unicode="`" horiz-adv-x="361" 
d="M195 863l-77 -26l-114 342l77 26z" />
    <glyph glyph-name="a" unicode="a" horiz-adv-x="1070" 
d="M757 927h72v-522q0 -80 15.5 -135t45 -84t64.5 -40.5t82 -11.5v-145q-79 0 -147.5 49t-103.5 159q-86 -199 -341 -199q-355 0 -368 424h-1v16q0 11 1 17q7 222 107 333t261 111q213 0 313 -176v204zM147 437q1 -61 12 -99.5t42.5 -68.5t90.5 -43t152 -13q99 0 161 13
t94 42.5t43.5 66.5t11.5 95q-1 73 -16 129t-48.5 102t-95.5 70.5t-150 24.5q-148 0 -221 -75t-76 -244z" />
    <glyph glyph-name="b" unicode="b" horiz-adv-x="955" 
d="M147 0h-72v1436h72v-686q59 89 153.5 134t187.5 45h26q160 0 263 -119.5t103 -314.5v-38q-2 -104 -27.5 -185t-63.5 -129t-89.5 -79t-99.5 -42.5t-99 -11.5h-54q-93 0 -171 46t-129 132v-188zM147 489q0 -131 79 -198t221 -67h54q65 0 118 13t96.5 40.5t68 77.5t24.5 119
v21q0 138 -77 214.5t-217 76.5h-26q-63 0 -122 -17.5t-109 -52.5t-80 -93.5t-30 -133.5z" />
    <glyph glyph-name="c" unicode="c" horiz-adv-x="912" 
d="M147 519q0 -398 693 -290v-215q-175 -29 -314.5 -14.5t-238 68.5t-153 160t-58.5 261h-1v30v2q0 109 45.5 200.5t136.5 155t227 79.5t316 -25v-144q-163 40 -285.5 34t-204 -48.5t-122.5 -107.5t-41 -144v-2z" />
    <glyph glyph-name="d" unicode="d" horiz-adv-x="955" 
d="M808 0v188q-51 -86 -129 -132t-171 -46h-53q-51 0 -99 11.5t-99.5 42.5t-90 79t-64 129t-27.5 185v38q0 195 103.5 314.5t263.5 119.5h25q93 0 187.5 -45t153.5 -134v686h72v-1436h-72zM147 474q0 -69 24.5 -119t68.5 -77.5t97 -40.5t118 -13h53q142 0 221 67t79 198
q0 75 -30 133.5t-80 93.5t-109 52.5t-122 17.5h-25q-141 0 -218 -76.5t-77 -214.5v-21z" />
    <glyph glyph-name="e" unicode="e" horiz-adv-x="854" 
d="M753 653v-7v-6q-8 -265 -301 -262l-304 3q6 -77 50 -127.5t108.5 -70t143.5 -20t155.5 16.5t145.5 45l28 -155q-61 -25 -125.5 -42t-134 -23.5t-133 0.5t-120.5 34.5t-99 73t-67 120.5t-25 174v137q0 89 22 161.5t57 119t81.5 78.5t93.5 45.5t95 13.5q62 0 116.5 -15
t103 -48.5t78 -96.5t31.5 -149zM147 494l305 -3q129 -1 178 34.5t51 120.5q-4 172 -257 172q-119 0 -198 -66.5t-79 -207.5v-50z" />
    <glyph glyph-name="f" unicode="f" horiz-adv-x="917" 
d="M845 1426v-214h-185q-170 0 -235 -53t-65 -179v-227h453v-144h-453v-607h-72v607h-216v144h216v227q0 211 91.5 328.5t280.5 117.5h185z" />
    <glyph glyph-name="g" unicode="g" horiz-adv-x="948" 
d="M216 -331q220 0 346 46t182.5 147t56.5 278v89q-93 -218 -349 -218q-191 0 -280 113t-96 322h-1v20v22h1q9 220 111 331.5t265 111.5q133 0 219.5 -64.5t129.5 -175.5v245h72v-796q0 -327 -158 -470.5t-499 -143.5v143zM147 466q2 -92 26 -141t90 -74t189 -25
q93 0 156 15.5t98 46.5t49.5 70.5t15.5 94.5q-1 75 -16.5 132.5t-50.5 105t-98.5 72.5t-153.5 25q-150 0 -225.5 -76.5t-79.5 -245.5z" />
    <glyph glyph-name="h" unicode="h" horiz-adv-x="955" 
d="M147 0h-72v1436h72v-643q105 179 341 179h26q176 0 271 -127t95 -367v-478h-72v478q0 167 -65.5 238.5t-228.5 71.5h-26q-52 0 -94.5 -6t-90.5 -26t-80.5 -53.5t-54 -93.5t-21.5 -141v-468z" />
    <glyph glyph-name="i" unicode="i" horiz-adv-x="386" 
d="M231 0h-72v936h72v-936zM72 1182l121 121l121 -121l-121 -121z" />
    <glyph glyph-name="j" unicode="j" horiz-adv-x="860" 
d="M72 -331q311 0 434.5 104.5t123.5 366.5v796h72v-796q0 -327 -151.5 -470.5t-478.5 -143.5v143zM547 1182l121 121l121 -121l-121 -121z" />
    <glyph glyph-name="k" unicode="k" horiz-adv-x="973" 
d="M147 0h-72l1 1436h72l-1 -752h103l577 519l48 -54l-517 -465h16q118 0 204 -24.5t151.5 -81.5t98 -157t32.5 -243v-178h-72v178q0 97 -21.5 159.5t-73 100t-127 52.5t-192.5 15h-227v-505z" />
    <glyph glyph-name="l" unicode="l" horiz-adv-x="607" 
d="M535 224v-214h-106q-97 0 -160.5 24.5t-109 86.5t-65 168.5t-19.5 269.5l1 877h72l-1 -877q0 -79 3.5 -129.5t16 -90.5t29.5 -60.5t52 -34t75 -17t106 -3.5h106z" />
    <glyph glyph-name="m" unicode="m" horiz-adv-x="1688" 
d="M147 0h-72v963h72v-185q104 178 338 178h25q125 0 210.5 -64t125.5 -187q28 77 75 130.5t102.5 77.5t102 33.5t95.5 9.5h26q171 0 268.5 -128t97.5 -365v-463h-72v463q0 163 -68.5 236t-225.5 73h-26q-52 0 -94.5 -6t-90.5 -26t-80.5 -53.5t-54 -93.5t-21.5 -141v-452
h-72v463q0 166 -67.5 237.5t-230.5 71.5h-25q-52 0 -93 -5t-89.5 -24.5t-80 -52.5t-53.5 -94t-22 -144v-452z" />
    <glyph glyph-name="n" unicode="n" horiz-adv-x="955" 
d="M147 0h-72v963h72v-182q105 178 341 178h26q176 0 271 -127t95 -366v-466h-72v466q0 167 -65.5 238t-228.5 71h-26q-52 0 -94.5 -6t-90.5 -26t-80.5 -53.5t-54 -93.5t-21.5 -141v-455z" />
    <glyph glyph-name="o" unicode="o" horiz-adv-x="965" 
d="M890 536q3 -133 -13.5 -225.5t-60.5 -162.5t-124 -104t-200 -34q-105 0 -180.5 23.5t-122 65.5t-73 110t-35 144.5t-6.5 182.5v2q0 120 30 207.5t87 139t131 75.5t169 24q184 0 289 -111.5t109 -333.5v-3zM147 499q0 -61 3.5 -99.5t17.5 -72t36 -51.5t62.5 -31t93 -17
t132.5 -4q73 0 123 4.5t88 18t59.5 32t35 52t17.5 73t4 98.5h-1v35q-3 163 -84 233t-242 70q-181 0 -263 -68.5t-82 -233.5v-39z" />
    <glyph glyph-name="p" unicode="p" horiz-adv-x="954" 
d="M808 528q0 149 -67 215t-215 66h-378v-290q8 -128 76.5 -179.5t230.5 -51.5q177 0 265 51t88 180v9zM75 556v83h1v313h450q159 -1 252 -98.5t101 -290.5h1v-35v-9q0 -108 -24 -189.5t-62.5 -129t-96 -77t-114.5 -39.5t-128 -10q-213 0 -307 155l1 -707h-72l-1 985
q-1 16 -1 49z" />
    <glyph glyph-name="q" unicode="q" horiz-adv-x="1134" 
d="M1063 -324v-154h-261v666q-98 -177 -341 -177q-372 0 -385 431h-1v14q0 11 1 16q6 229 110.5 343.5t274.5 114.5q240 0 341 -204v219h72v-1269h189zM147 456q1 -62 13 -101t45 -70t95.5 -45t160.5 -14q100 0 165 14.5t100 45.5t48.5 69.5t14.5 95.5q-1 75 -17 132.5
t-52 105t-101 72.5t-158 25q-156 0 -233.5 -77.5t-80.5 -252.5z" />
    <glyph glyph-name="r" unicode="r" horiz-adv-x="650" 
d="M147 0h-72v942h72v-228q34 63 81.5 109.5t96 70t89 34t74.5 10.5h90v-184h-90q-41 0 -83 -8.5t-90 -34t-84 -64.5t-60 -107.5t-24 -156.5v-383z" />
    <glyph glyph-name="s" unicode="s" horiz-adv-x="782" 
d="M707 327v-1v-1v-18q-4 -103 -49.5 -171.5t-124.5 -99.5t-189.5 -33t-244.5 29v183q259 -54 397 -21.5t139 132.5q-2 153 -251 153v1q-289 8 -304 235h-1v13q0 9 1 13q3 63 20.5 108.5t60.5 72.5t74 43t106 22.5t108.5 7.5t128.5 0h64v-108q-225 0 -266 -3
q-149 -10 -195 -70q-26 -34 -29 -87q2 -47 23 -76t77 -46t152 -17v-1q139 -5 220.5 -72t82.5 -188z" />
    <glyph glyph-name="t" unicode="t" horiz-adv-x="877" 
d="M804 946v-108h-436v-222v-13v-102.5t3.5 -82t8 -69.5t16 -51.5t25 -42t39 -28t53.5 -22t71.5 -10.5t91.5 -8t115 -1v-184q-74 0 -135 6.5t-108 19t-83.5 31.5t-63 43t-45.5 53t-30 63.5t-18 73.5t-9 82t-3 90.5t0 97.5v18.5v17v18.5v222h-224v108h224v490h72v-490h436z
" />
    <glyph glyph-name="u" unicode="u" horiz-adv-x="1055" 
d="M702 946h72v-19h2v-522q0 -80 15.5 -135t45.5 -84t65 -40.5t82 -11.5v-145q-80 0 -148.5 49.5t-103.5 158.5q-74 -187 -292 -187h-30q-85 0 -147.5 29.5t-97.5 74.5t-56 112t-27.5 128.5t-6.5 137.5v454h72v-454q0 -53 2.5 -85t11 -66.5t26 -53t46.5 -34.5t72.5 -22.5
t104.5 -6.5h30q61 0 104.5 6.5t72.5 22.5t46 34.5t25.5 53t11 66.5t2.5 85v454z" />
    <glyph glyph-name="v" unicode="v" horiz-adv-x="945" 
d="M518 7h-1h-1h-21q-82 5 -128.5 53t-75.5 152l-212 734h155l199 -691q20 -70 30 -82t53 -12q37 0 52 15.5t30 73.5l192 696h80l-203 -737q-30 -111 -66.5 -156t-82.5 -46z" />
    <glyph glyph-name="w" unicode="w" horiz-adv-x="1431" 
d="M408 224l301 657v2h121l288 -727h35l129 790h74l-153 -935l-68 1h-81l-295 745l-343 -747h-134l-202 936h149l156 -722h23z" />
    <glyph glyph-name="x" unicode="x" horiz-adv-x="1195" 
d="M931 946h95l-340 -385l37 -29q140 -111 183 -151q134 -128 187 -288q14 -44 24 -93h-154q-16 63 -40.5 111.5t-69 96t-80.5 78.5t-111 90q-22 17 -33 26l-49 40l-391 -442h-95l429 486l-445 351l93 130l459 -362z" />
    <glyph glyph-name="y" unicode="y" horiz-adv-x="849" 
d="M702 963h72v-917q0 -328 -158.5 -471.5t-499.5 -143.5v144q220 0 346.5 45.5t183 147t56.5 278.5v93q-82 -129 -262 -129h-30q-85 0 -147.5 29.5t-97.5 74.5t-56 112t-27.5 128.5t-6.5 137.5v471h72v-471q0 -53 2.5 -85t11 -66.5t26 -53t46.5 -34.5t72.5 -22.5
t104.5 -6.5h30q61 0 104.5 6.5t72.5 22.5t46 34.5t25.5 53t11 66.5t2.5 85v471z" />
    <glyph glyph-name="z" unicode="z" horiz-adv-x="1074" 
d="M884 777q-1 41 -39.5 57t-124.5 16h-623v108h623q226 0 236 -170v-27q0 -150 -231 -231l-362 -129q-206 -72 -208 -131q1 -35 17.5 -51t68 -23t163.5 -7h595v-178h-595q-96 0 -159 15.5t-97.5 48t-48.5 75t-16 105.5v14v1v4q5 143 255 229l364 129q182 63 182 129v16z
" />
    <glyph glyph-name="braceleft" unicode="{" horiz-adv-x="900" 
d="M828 -90v-154h-118q-151 0 -248 110t-97 276v192l-286 269l286 269v192q0 166 98.5 276t246.5 110h118v-154h-118q-129 0 -201 -64t-72 -168v-282l-189 -179l189 -179v-282q0 -104 72 -168t201 -64h118z" />
    <glyph glyph-name="bar" unicode="|" horiz-adv-x="545" 
d="M309 158h-72v1428h72v-1428z" />
    <glyph glyph-name="braceright" unicode="}" horiz-adv-x="900" 
d="M190 -90q129 0 201 64t72 168v282l189 179l-189 179v282q0 104 -72 168t-201 64h-118v154h118q148 0 246.5 -110t98.5 -276v-192l286 -269l-286 -269v-192q0 -166 -97 -276t-248 -110h-118v154h118z" />
    <glyph glyph-name="asciitilde" unicode="~" horiz-adv-x="1188" 
d="M1113 655q-79 -104 -168 -155.5t-188 -42.5t-197 84q-140 113 -237 95t-184 -183l-64 33q69 131 152 184t175.5 34t202.5 -105q236 -183 451 99z" />
    <glyph glyph-name="uni00A0" unicode="&#xa0;" horiz-adv-x="239" 
 />
    <glyph glyph-name="exclamdown" unicode="&#xa1;" horiz-adv-x="386" 
d="M193 1021l-121 120l121 121l121 -121zM157 -196v1022h72v-1022h-72z" />
    <glyph glyph-name="cent" unicode="&#xa2;" horiz-adv-x="1010" 
d="M939 3h-157q-65 0 -167 4v-207h-72v213q-98 10 -168 30.5t-123.5 59t-86.5 90.5t-53.5 132.5t-28.5 176.5t-8 231v6q0 108 7 188t25.5 156t51.5 129t84.5 96.5t126 70t173.5 38.5v271h72v-263q54 3 116 3h159v-143h-159q-62 0 -116 -3v-1062q100 -2 167 -2h157v-215z
M147 733q0 -81 2 -135.5t9.5 -108t19 -87t32.5 -65t49 -49t70 -32.5t93.5 -22t120.5 -11v1054q-76 -7 -133 -22t-99.5 -36.5t-71.5 -56t-47.5 -72t-28 -95t-13 -115.5t-3.5 -141v-6z" />
    <glyph glyph-name="sterling" unicode="&#xa3;" horiz-adv-x="1160" 
d="M176 0h-72v301q106 108 142.5 185t36.5 205v88h-198v108h198v565h73v-5h732v-144h-732l-1 -416h477v-108h-477v-88q0 -283 -135 -467h869v-214h-913v-10z" />
    <glyph glyph-name="currency" unicode="&#xa4;" horiz-adv-x="1339" 
d="M666 338q141 0 234 89t93 219t-93 219t-234 89t-234 -89t-93 -219t93 -219t234 -89zM75 92l291 279q-99 118 -99 275q0 147 88 259l-280 271l49 52l280 -270q112 104 262 104q152 0 265 -107l285 273l49 -52l-285 -274q85 -112 85 -256q0 -154 -96 -271l296 -283l-49 -53
l-298 285q-109 -95 -252 -95q-138 0 -249 92l-293 -282z" />
    <glyph glyph-name="yen" unicode="&#xa5;" horiz-adv-x="1446" 
d="M1244 461v-72h-385v-101h385v-73h-385v-241h-73v241h-326v73h326v101h-326v72h326v33l-711 858l127 138l665 -803l441 799l63 -52l-512 -926v-47h385z" />
    <glyph glyph-name="brokenbar" unicode="&#xa6;" horiz-adv-x="256" 
d="M164 725h-72v505h72v-505zM92 12v506h72v-506h-72z" />
    <glyph glyph-name="section" unicode="&#xa7;" horiz-adv-x="1111" 
d="M678 459q69 0 109 1.5t75.5 7.5t52 15t29 28t15.5 42.5t3 61.5v28h1q-3 46 -23.5 68.5t-73 33t-161.5 13.5h-298q-73 0 -116.5 -3.5t-74.5 -11.5t-44.5 -25.5t-19 -40t-5.5 -61.5q0 -50 8 -76.5t39.5 -44.5t82.5 -24t147 -8l254 -5v1zM75 616q0 158 69 221
q-69 65 -69 222q0 163 74 224.5t258 61.5h545v-143h-545q-119 0 -171.5 -11.5t-70.5 -39.5t-18 -92q0 -40 6 -63.5t21 -42t48 -27.5t79 -13.5t123 -6.5l242 -5l39 -1h1q70 -1 124 -12t88.5 -29.5t59 -43.5t35.5 -54.5t17.5 -62t5 -66.5t-1.5 -68h-2q-7 -129 -62 -184
q33 -31 49 -76t16 -89.5t-1 -94.5h-2q-8 -174 -89 -241t-265 -67h-544v214h544q82 0 129.5 3.5t81.5 11t48 26t19.5 41t5.5 63.5v29h1q-3 46 -23.5 68.5t-73.5 33t-161 13.5l-282 5q-194 4 -271 66.5t-77 229.5z" />
    <glyph glyph-name="dieresis" unicode="&#xa8;" horiz-adv-x="680" 
d="M97 1221l96 -96l-96 -97l-97 97zM328 1124l97 97l97 -97l-97 -97z" />
    <glyph glyph-name="copyright" unicode="&#xa9;" horiz-adv-x="1753" 
d="M564 553q0 -319 554 -233v-171q-597 -90 -612 380v24v2q0 119 64.5 207t193 127t321.5 -7v-114q-174 44 -289.5 20.5t-173.5 -85.5t-58 -148v-2zM75 543q0 171 63.5 326t171 267t256 178t311.5 66q217 0 401 -111.5t292 -304.5t108 -421q0 -229 -108 -422t-292 -304.5
t-401 -111.5q-163 0 -311.5 66t-256 178t-171 267.5t-63.5 326.5zM147 543q0 -142 55.5 -270t151.5 -221.5t232.5 -148.5t290.5 -55t290 55t232 148.5t151.5 221.5t55.5 270t-55.5 270t-151.5 221t-232 148t-290 55t-290.5 -55t-232.5 -148t-151.5 -221t-55.5 -270z" />
    <glyph glyph-name="ordfeminine" unicode="&#xaa;" horiz-adv-x="1070" 
d="M757 927h72v-522q0 -80 15.5 -135t45 -84t64.5 -40.5t82 -11.5v-145q-79 0 -147.5 49t-103.5 159q-86 -199 -341 -199q-355 0 -368 424h-1v16q0 11 1 17q7 222 107 333t261 111q213 0 313 -176v204zM147 437q1 -61 12 -99.5t42.5 -68.5t90.5 -43t152 -13q99 0 161 13
t94 42.5t43.5 66.5t11.5 95q-1 73 -16 129t-48.5 102t-95.5 70.5t-150 24.5q-148 0 -221 -75t-76 -244z" />
    <glyph glyph-name="guillemotleft" unicode="&#xab;" horiz-adv-x="1318" 
d="M1250 -18l-61 -57l-521 525l521 531l61 -58l-464 -473zM76 450l522 531l61 -58l-465 -473l465 -468l-61 -57z" />
    <glyph glyph-name="logicalnot" unicode="&#xac;" horiz-adv-x="1182" 
d="M1108 153h-73v401h-963v143h1036v-544z" />
    <glyph glyph-name="uni00AD" unicode="&#xad;" horiz-adv-x="804" 
d="M732 197v-72h-660v72h660z" />
    <glyph glyph-name="registered" unicode="&#xae;" horiz-adv-x="1055" 
d="M528 493q178 0 295 111t117 271t-117 271t-295 111q-179 0 -296 -111t-117 -271t117 -271t296 -111zM74 875q0 133 60.5 244.5t165 176t228.5 64.5q122 0 226.5 -64.5t165.5 -176t61 -244.5t-61 -244.5t-165.5 -176t-226.5 -64.5q-124 0 -228.5 64.5t-165 176
t-60.5 244.5zM344 819v200h1v117h169q125 0 128 -169v-9q0 -79 -38 -109t-103 -30h-13l226 -202l-18 -20l-248 222h-77v-212h-26v212h-1zM371 872h130q58 0 86.5 18.5t28.5 67.5v2q0 56 -21.5 76.5t-80.5 20.5h-143v-185z" />
    <glyph glyph-name="macron" unicode="&#xaf;" horiz-adv-x="822" 
d="M723 1049v-77h-723v77h723z" />
    <glyph glyph-name="degree" unicode="&#xb0;" horiz-adv-x="829" 
d="M415 998q150 0 208.5 49t58.5 165t-58.5 165t-208.5 49q-151 0 -209.5 -49t-58.5 -165t58.5 -165t209.5 -49zM75 1212q0 187 84.5 290t255.5 103q170 0 254.5 -103t84.5 -290t-84.5 -290t-254.5 -103q-171 0 -255.5 103t-84.5 290z" />
    <glyph glyph-name="plusminus" unicode="&#xb1;" horiz-adv-x="1052" 
d="M981 831v-154h-419v-378h-72v378h-418v154h418v377h72v-377h419zM72 154v72h909v-72h-909z" />
    <glyph glyph-name="uni00B2" unicode="&#xb2;" horiz-adv-x="1297" 
d="M72 10v214h1v6l693 503q163 119 229.5 194.5t68.5 152.5q-2 97 -65.5 152t-191.5 55h-670v143h670q150 0 237.5 -97.5t91.5 -247.5v-6v-7q-2 -65 -25 -124t-68.5 -114t-100 -103t-133.5 -106l-554 -401h971v-214h-1154z" />
    <glyph glyph-name="uni00B3" unicode="&#xb3;" horiz-adv-x="1073" 
d="M205 705v144h336q104 0 177 11t113.5 27t62 44.5t27 53.5t5.5 64q0 135 -70.5 186t-252.5 51h-531v144h531q197 0 296 -87.5t99 -293.5q0 -37 -3.5 -68t-16.5 -69t-34 -67.5t-59 -57.5t-90 -46q203 -76 203 -298l-1 -34q-4 -90 -27.5 -161t-69 -125.5t-121 -83.5
t-176.5 -29h-531v214h531q180 0 251.5 51.5t71.5 166.5v1q0 31 -4 56.5t-15 56.5t-34 54.5t-58 44.5t-91 34t-128 17q-17 -1 -55 -1h-336z" />
    <glyph glyph-name="acute" unicode="&#xb4;" horiz-adv-x="361" 
d="M3 863l114 342l77 -26l-114 -342z" />
    <glyph glyph-name="uni00B5" unicode="&#xb5;" horiz-adv-x="1342" 
d="M148 -280h-72v745q-1 11 -1 33v30h1v571h72v-623q9 -113 98 -182.5t246 -69.5h17q165 0 255 76t90 198v601h72v-601q0 -122 90 -198t255 -76v-214q-128 0 -230 75t-151 205q-49 -130 -151 -205t-230 -75h-17q-107 0 -197 53.5t-147 148.5v-492z" />
    <glyph glyph-name="paragraph" unicode="&#xb6;" horiz-adv-x="675" 
d="M598 0h-102v1643h102v-1643zM72 939v708h252v-4h40v-1643h-72v939h-220z" />
    <glyph glyph-name="periodcentered" unicode="&#xb7;" 
d="M158 249q-45 0 -76.5 31.5t-31.5 76.5q0 46 31.5 77t76.5 31t76.5 -31t31.5 -77q0 -45 -31.5 -76.5t-76.5 -31.5z" />
    <glyph glyph-name="cedilla" unicode="&#xb8;" horiz-adv-x="941" 
d="M0 -345q72 0 102 1t63 7.5t43 21t10 40.5t-1.5 36t-7.5 21.5t-23 14t-42 4.5t-72 2v197h41v-105q27 -1 49.5 -6t37.5 -15.5t25.5 -18.5t17 -25t10 -25t5 -28.5t1.5 -25.5v-26q0 -24 -2.5 -44t-9.5 -35t-13 -27t-20 -21t-23.5 -15t-29 -9.5t-32 -6t-37.5 -3.5t-39.5 -1
h-44.5h-8v92z" />
    <glyph glyph-name="uni00B9" unicode="&#xb9;" horiz-adv-x="647" 
d="M466 -1h-72v1213h-216v214h288v-1427z" />
    <glyph glyph-name="ordmasculine" unicode="&#xba;" horiz-adv-x="965" 
d="M890 536q3 -133 -13.5 -225.5t-60.5 -162.5t-124 -104t-200 -34q-105 0 -180.5 23.5t-122 65.5t-73 110t-35 144.5t-6.5 182.5v2q0 120 30 207.5t87 139t131 75.5t169 24q184 0 289 -111.5t109 -333.5v-3zM147 499q0 -61 3.5 -99.5t17.5 -72t36 -51.5t62.5 -31t93 -17
t132.5 -4q73 0 123 4.5t88 18t59.5 32t35 52t17.5 73t4 98.5h-1v35q-3 163 -84 233t-242 70q-181 0 -263 -68.5t-82 -233.5v-39z" />
    <glyph glyph-name="guillemotright" unicode="&#xbb;" horiz-adv-x="1318" 
d="M68 -18l464 468l-464 473l61 58l521 -531l-521 -525zM659 -18l465 468l-465 473l61 58l522 -531l-522 -525z" />
    <glyph glyph-name="onequarter" unicode="&#xbc;" horiz-adv-x="1649" 
d="M942 216v129h2l-1 1l464 512l1 -2v6h44v-517h126v-129h-126v-216h-44v216h-466zM72 1317v130h173v-857h-43v727h-130zM217 -312l678 1887l72 -26l-678 -1887zM1022 345h386v425z" />
    <glyph glyph-name="onehalf" unicode="&#xbd;" horiz-adv-x="1924" 
d="M245 590h-43v727h-130v130h173v-857zM217 -312l678 1887l72 -26l-678 -1887zM1160 6v132l416 302q99 72 139 117t41 91q-2 58 -40 91t-115 33h-403v86h403q90 0 142.5 -58.5t54.5 -148.5v-4v-4q-3 -75 -51.5 -136t-144.5 -132l-332 -240h582v-129h-692z" />
    <glyph glyph-name="threequarters" unicode="&#xbe;" horiz-adv-x="1642" 
d="M152 963v86h202q77 0 126 9t70.5 28t27.5 37t6 48q0 81 -42 111t-151 30h-319v86h319q118 0 177.5 -52t59.5 -175q0 -62 -25 -111t-96 -75q121 -46 121 -178l-1 -21q-10 -240 -236 -240h-319v130h319q108 0 150.5 30.5t42.5 99.5v1q0 29 -6 51t-24 46.5t-58 40t-101 19.5
q-13 -1 -41 -1h-202zM419 -312l678 1887l72 -26l-678 -1887zM935 216v129h1v1l464 512l1 -2v6h43v-517h126v-129h-126v-216h-43v216h-466zM1015 345h386v425z" />
    <glyph glyph-name="questiondown" unicode="&#xbf;" horiz-adv-x="1001" 
d="M147 -32v-6q0 -114 77 -184t214 -70h492v-143h-492q-159 0 -261 113.5t-102 283.5v6q2 188 106 307t257 119h219v343h72v-558h-291q-140 0 -214.5 -59t-76.5 -152zM557 911l120 121l122 -121l-121 -120z" />
    <glyph glyph-name="Agrave" unicode="&#xc0;" horiz-adv-x="1380" 
d="M1303 0h-145l-106 500h-649l-108 -500h-213l229 1059q23 104 56 171t84 105.5t114 53.5t155 16h6h8q44 -1 81 -8t65.5 -17t52.5 -28.5t40.5 -34t31.5 -43t24 -47t19 -54t15 -55t13 -59.5zM419 572h617l-100 472q-11 51 -17 78t-16.5 63.5t-20.5 54.5t-25 39t-33.5 30.5
t-43.5 16.5t-57 7q-37 0 -56.5 -2t-40.5 -13.5t-31 -26t-24 -52t-23.5 -78t-26.5 -117.5zM582 1914l77 26l114 -342l-77 -26z" />
    <glyph glyph-name="Aacute" unicode="&#xc1;" horiz-adv-x="1380" 
d="M1303 0h-145l-106 500h-649l-108 -500h-213l229 1059q23 104 56 171t84 105.5t114 53.5t155 16h6h8q44 -1 81 -8t65.5 -17t52.5 -28.5t40.5 -34t31.5 -43t24 -47t19 -54t15 -55t13 -59.5zM419 572h617l-100 472q-11 51 -17 78t-16.5 63.5t-20.5 54.5t-25 39t-33.5 30.5
t-43.5 16.5t-57 7q-37 0 -56.5 -2t-40.5 -13.5t-31 -26t-24 -52t-23.5 -78t-26.5 -117.5zM649 1592l114 341l77 -26l-114 -342z" />
    <glyph glyph-name="Acircumflex" unicode="&#xc2;" horiz-adv-x="1380" 
d="M1303 0h-145l-106 500h-649l-108 -500h-213l229 1059q23 104 56 171t84 105.5t114 53.5t155 16h6h8q44 -1 81 -8t65.5 -17t52.5 -28.5t40.5 -34t31.5 -43t24 -47t19 -54t15 -55t13 -59.5zM419 572h617l-100 472q-11 51 -17 78t-16.5 63.5t-20.5 54.5t-25 39t-33.5 30.5
t-43.5 16.5t-57 7q-37 0 -56.5 -2t-40.5 -13.5t-31 -26t-24 -52t-23.5 -78t-26.5 -117.5zM452 1625l259 257l259 -258l-54 -54l-205 204l-205 -203z" />
    <glyph glyph-name="Atilde" unicode="&#xc3;" horiz-adv-x="1380" 
d="M1303 0h-145l-106 500h-649l-108 -500h-213l229 1059q23 104 56 171t84 105.5t114 53.5t155 16h6h8q44 -1 81 -8t65.5 -17t52.5 -28.5t40.5 -34t31.5 -43t24 -47t19 -54t15 -55t13 -59.5zM372 1728q88 48 139 63.5t103 5t122 -54.5q72 -46 122 -37t141 86l52 -62
q-107 -91 -185.5 -103t-173.5 48q-56 36 -90 43.5t-72 -5t-119 -56.5zM419 572h617l-100 472q-11 51 -17 78t-16.5 63.5t-20.5 54.5t-25 39t-33.5 30.5t-43.5 16.5t-57 7q-37 0 -56.5 -2t-40.5 -13.5t-31 -26t-24 -52t-23.5 -78t-26.5 -117.5z" />
    <glyph glyph-name="Adieresis" unicode="&#xc4;" horiz-adv-x="1380" 
d="M1303 0h-145l-106 500h-649l-108 -500h-213l229 1059q23 104 56 171t84 105.5t114 53.5t155 16h6h8q44 -1 81 -8t65.5 -17t52.5 -28.5t40.5 -34t31.5 -43t24 -47t19 -54t15 -55t13 -59.5zM419 572h617l-100 472q-11 51 -17 78t-16.5 63.5t-20.5 54.5t-25 39t-33.5 30.5
t-43.5 16.5t-57 7q-37 0 -56.5 -2t-40.5 -13.5t-31 -26t-24 -52t-23.5 -78t-26.5 -117.5zM451 1678l97 96l97 -96l-97 -97zM780 1677l97 97l96 -97l-96 -97z" />
    <glyph glyph-name="Aring" unicode="&#xc5;" horiz-adv-x="1380" 
d="M1303 0h-145l-106 500h-649l-108 -500h-213l229 1059q23 104 56 171t84 105.5t114 53.5t155 16h6h8q44 -1 81 -8t65.5 -17t52.5 -28.5t40.5 -34t31.5 -43t24 -47t19 -54t15 -55t13 -59.5zM419 572h617l-100 472q-11 51 -17 78t-16.5 63.5t-20.5 54.5t-25 39t-33.5 30.5
t-43.5 16.5t-57 7q-37 0 -56.5 -2t-40.5 -13.5t-31 -26t-24 -52t-23.5 -78t-26.5 -117.5zM556 1876q0 76 46 128t110 52q63 0 108.5 -52t45.5 -128t-45.5 -128.5t-108.5 -52.5q-64 0 -110 52.5t-46 128.5zM597 1876q0 -38 31 -63.5t84 -25.5t83 25.5t30 63.5t-30 63t-83 25
q-54 0 -84.5 -25t-30.5 -63z" />
    <glyph glyph-name="AE" unicode="&#xc6;" horiz-adv-x="1989" 
d="M1184 1457v1h733v-143h-697v-524h590v-144h-590v-424h698v-215h-698v-8h-72v375h-626l-252 -375h-189l978 1457h125zM618 519h530v788z" />
    <glyph glyph-name="Ccedilla" unicode="&#xc7;" horiz-adv-x="1010" 
d="M939 3h-157q-153 0 -256.5 11t-187 43.5t-131 81.5t-79 134.5t-42.5 193t-11 266.5v6q0 92 5 162t18 139t35.5 119.5t57 96t83.5 76t115 53t151 33t191 10.5h159v-143h-159q-100 0 -176.5 -6t-137 -21.5t-102.5 -36t-73 -55.5t-49 -72.5t-28.5 -95.5t-14 -116.5
t-3.5 -142.5v-6q0 -77 1.5 -129t8.5 -104.5t16 -85.5t29.5 -65t42.5 -50t61.5 -35t80.5 -24t105 -13t129.5 -7.5t160.5 -1.5h157v-215zM462 -437v92q72 0 102 1t63 7.5t43 21t10 40.5t-1.5 36t-7.5 21.5t-23 14t-42 4.5t-72 2v197h41v-105q27 -1 49.5 -6t37.5 -15.5
t25.5 -18.5t17 -25t10 -25t5 -28.5t1.5 -25.5v-26q0 -24 -2.5 -44t-9.5 -35t-13 -27t-20 -21t-23.5 -15t-29 -9.5t-32 -6t-37.5 -3.5t-39.5 -1h-44.5h-8z" />
    <glyph glyph-name="Egrave" unicode="&#xc8;" horiz-adv-x="1071" 
d="M999 224v-214h-534q-195 0 -292.5 127t-97.5 359v934h924v-143h-852v-469h756v-72h-756v-250q0 -147 70 -209.5t248 -62.5h534zM338 1914l77 26l113 -342l-77 -26z" />
    <glyph glyph-name="Eacute" unicode="&#xc9;" horiz-adv-x="1071" 
d="M999 224v-214h-534q-195 0 -292.5 127t-97.5 359v934h924v-143h-852v-469h756v-72h-756v-250q0 -147 70 -209.5t248 -62.5h534zM404 1592l114 341l77 -26l-114 -342z" />
    <glyph glyph-name="Ecircumflex" unicode="&#xca;" horiz-adv-x="1071" 
d="M999 224v-214h-534q-195 0 -292.5 127t-97.5 359v934h924v-143h-852v-469h756v-72h-756v-250q0 -147 70 -209.5t248 -62.5h534zM207 1625l259 257l259 -258l-54 -54l-205 204l-205 -203z" />
    <glyph glyph-name="Edieresis" unicode="&#xcb;" horiz-adv-x="1071" 
d="M999 224v-214h-534q-195 0 -292.5 127t-97.5 359v934h924v-143h-852v-469h756v-72h-756v-250q0 -147 70 -209.5t248 -62.5h534zM206 1678l97 96l97 -96l-97 -97zM535 1677l97 97l96 -97l-96 -97z" />
    <glyph glyph-name="Igrave" unicode="&#xcc;" horiz-adv-x="335" 
d="M203 0h-72l2 1436h72zM39 1914l77 26l113 -342l-77 -26z" />
    <glyph glyph-name="Iacute" unicode="&#xcd;" horiz-adv-x="335" 
d="M203 0h-72l2 1436h72zM105 1592l114 341l77 -26l-114 -342z" />
    <glyph glyph-name="Icircumflex" unicode="&#xce;" horiz-adv-x="335" 
d="M203 0h-72l2 1436h72zM-92 1625l259 257l259 -258l-54 -54l-205 204l-205 -203z" />
    <glyph glyph-name="Idieresis" unicode="&#xcf;" horiz-adv-x="335" 
d="M203 0h-72l2 1436h72zM-93 1678l97 96l97 -96l-97 -97zM236 1677l97 97l96 -97l-96 -97z" />
    <glyph glyph-name="Eth" unicode="&#xd0;" horiz-adv-x="1356" 
d="M373 0h-72v691h-234v72h234v673h73v-6h238q155 0 272 -31t193 -86.5t123.5 -139t67 -181t19.5 -221.5v-65v-9v-20q-2 -122 -23 -220t-55 -167t-86 -120t-107.5 -81t-128 -48.5t-139 -24.5t-148.5 -6h-227v-10zM373 224h227q84 0 149.5 4.5t131.5 18t114.5 35.5t91.5 58
t69.5 85t42.5 118t16 155v73q0 105 -15 181.5t-54.5 142.5t-107 106.5t-173.5 63t-253 22.5h-238v-524h444v-72h-445v-467z" />
    <glyph glyph-name="Ntilde" unicode="&#xd1;" horiz-adv-x="1155" 
d="M76 1436h210l718 -1313v1313h72v-1436h-209l-719 1313l1 -1313h-72zM238 1728q88 48 139 63.5t103 5t122 -54.5q72 -46 121.5 -37t140.5 86l53 -62q-107 -91 -185.5 -103t-173.5 48q-56 36 -90 43.5t-72 -5t-119 -56.5z" />
    <glyph glyph-name="Ograve" unicode="&#xd2;" horiz-adv-x="1119" 
d="M972 891q0 192 -91.5 294.5t-261.5 102.5h-119q-84 0 -147 -20.5t-102 -55.5t-62.5 -87t-32.5 -108t-9 -126v-306q0 -67 8 -117.5t31 -98t61.5 -78t102 -49t150.5 -18.5h119q87 0 150.5 18.5t102 49t61.5 78t31 98t8 117.5v306zM75 585v306q0 83 12.5 157t43 145.5
t77.5 123t122 83t170 31.5h119q191 0 308 -147.5t117 -392.5v-306q0 -88 -12.5 -167t-43.5 -155t-78 -131t-122 -88.5t-169 -33.5h-119q-94 0 -169 33.5t-122 88.5t-78 131t-43.5 155t-12.5 167zM416 1914l77 26l114 -342l-77 -26z" />
    <glyph glyph-name="Oacute" unicode="&#xd3;" horiz-adv-x="1119" 
d="M972 891q0 192 -91.5 294.5t-261.5 102.5h-119q-84 0 -147 -20.5t-102 -55.5t-62.5 -87t-32.5 -108t-9 -126v-306q0 -67 8 -117.5t31 -98t61.5 -78t102 -49t150.5 -18.5h119q87 0 150.5 18.5t102 49t61.5 78t31 98t8 117.5v306zM75 585v306q0 83 12.5 157t43 145.5
t77.5 123t122 83t170 31.5h119q191 0 308 -147.5t117 -392.5v-306q0 -88 -12.5 -167t-43.5 -155t-78 -131t-122 -88.5t-169 -33.5h-119q-94 0 -169 33.5t-122 88.5t-78 131t-43.5 155t-12.5 167zM483 1592l113 341l77 -26l-113 -342z" />
    <glyph glyph-name="Ocircumflex" unicode="&#xd4;" horiz-adv-x="1119" 
d="M972 891q0 192 -91.5 294.5t-261.5 102.5h-119q-84 0 -147 -20.5t-102 -55.5t-62.5 -87t-32.5 -108t-9 -126v-306q0 -67 8 -117.5t31 -98t61.5 -78t102 -49t150.5 -18.5h119q87 0 150.5 18.5t102 49t61.5 78t31 98t8 117.5v306zM75 585v306q0 83 12.5 157t43 145.5
t77.5 123t122 83t170 31.5h119q191 0 308 -147.5t117 -392.5v-306q0 -88 -12.5 -167t-43.5 -155t-78 -131t-122 -88.5t-169 -33.5h-119q-94 0 -169 33.5t-122 88.5t-78 131t-43.5 155t-12.5 167zM286 1625l259 257l259 -258l-54 -54l-205 204l-205 -203z" />
    <glyph glyph-name="Otilde" unicode="&#xd5;" horiz-adv-x="1119" 
d="M972 891q0 192 -91.5 294.5t-261.5 102.5h-119q-84 0 -147 -20.5t-102 -55.5t-62.5 -87t-32.5 -108t-9 -126v-306q0 -67 8 -117.5t31 -98t61.5 -78t102 -49t150.5 -18.5h119q87 0 150.5 18.5t102 49t61.5 78t31 98t8 117.5v306zM75 585v306q0 83 12.5 157t43 145.5
t77.5 123t122 83t170 31.5h119q191 0 308 -147.5t117 -392.5v-306q0 -88 -12.5 -167t-43.5 -155t-78 -131t-122 -88.5t-169 -33.5h-119q-94 0 -169 33.5t-122 88.5t-78 131t-43.5 155t-12.5 167zM206 1728q88 48 139 63.5t103 5t122 -54.5q72 -46 121.5 -37t140.5 86l53 -62
q-107 -91 -185.5 -103t-173.5 48q-56 36 -90 43.5t-72 -5t-119 -56.5z" />
    <glyph glyph-name="Odieresis" unicode="&#xd6;" horiz-adv-x="1119" 
d="M972 891q0 192 -91.5 294.5t-261.5 102.5h-119q-84 0 -147 -20.5t-102 -55.5t-62.5 -87t-32.5 -108t-9 -126v-306q0 -67 8 -117.5t31 -98t61.5 -78t102 -49t150.5 -18.5h119q87 0 150.5 18.5t102 49t61.5 78t31 98t8 117.5v306zM75 585v306q0 83 12.5 157t43 145.5
t77.5 123t122 83t170 31.5h119q191 0 308 -147.5t117 -392.5v-306q0 -88 -12.5 -167t-43.5 -155t-78 -131t-122 -88.5t-169 -33.5h-119q-94 0 -169 33.5t-122 88.5t-78 131t-43.5 155t-12.5 167zM285 1678l97 96l96 -96l-96 -97zM614 1677l96 97l97 -97l-97 -97z" />
    <glyph glyph-name="multiply" unicode="&#xd7;" horiz-adv-x="842" 
d="M797 375l-109 -109l-296 297l-267 -267l-50 51l267 267l-296 294l109 109l296 -294l266 266l51 -51l-267 -266z" />
    <glyph glyph-name="Oslash" unicode="&#xd8;" horiz-adv-x="1532" 
d="M1173 891q0 86 -20 158l-739 -722q84 -103 287 -103h120q87 0 150.5 18.5t102 49t61 78t30.5 98t8 117.5v306zM74 96l236 230q-33 113 -33 259v306q0 83 12 157t42.5 145.5t77.5 123t122 83t170 31.5h120q124 0 219.5 -65t148.5 -183l218 213l51 -51l-242 -236
q29 -94 29 -218v-306q0 -88 -12.5 -167t-43.5 -155t-78 -131t-121.5 -88.5t-168.5 -33.5h-120q-259 0 -364 242l-212 -207zM349 585q0 -119 29 -193l748 729q-87 167 -305 167h-120q-104 0 -175.5 -30t-109 -87.5t-52.5 -124t-15 -155.5v-306z" />
    <glyph glyph-name="Ugrave" unicode="&#xd9;" horiz-adv-x="1203" 
d="M1056 1436h72v-863q0 -261 -127 -411t-360 -150h-80q-229 0 -357.5 148.5t-128.5 412.5v863h72v-863q0 -346 414 -346h80q206 0 310.5 84t104.5 262v863zM473 1914l77 26l114 -342l-77 -26z" />
    <glyph glyph-name="Uacute" unicode="&#xda;" horiz-adv-x="1203" 
d="M1056 1436h72v-863q0 -261 -127 -411t-360 -150h-80q-229 0 -357.5 148.5t-128.5 412.5v863h72v-863q0 -346 414 -346h80q206 0 310.5 84t104.5 262v863zM539 1592l114 341l77 -26l-114 -342z" />
    <glyph glyph-name="Ucircumflex" unicode="&#xdb;" horiz-adv-x="1203" 
d="M1056 1436h72v-863q0 -261 -127 -411t-360 -150h-80q-229 0 -357.5 148.5t-128.5 412.5v863h72v-863q0 -346 414 -346h80q206 0 310.5 84t104.5 262v863zM342 1625l259 257l259 -258l-54 -54l-205 204l-205 -203z" />
    <glyph glyph-name="Udieresis" unicode="&#xdc;" horiz-adv-x="1203" 
d="M1056 1436h72v-863q0 -261 -127 -411t-360 -150h-80q-229 0 -357.5 148.5t-128.5 412.5v863h72v-863q0 -346 414 -346h80q206 0 310.5 84t104.5 262v863zM342 1678l96 96l97 -96l-97 -97zM670 1677l97 97l96 -97l-96 -97z" />
    <glyph glyph-name="Yacute" unicode="&#xdd;" horiz-adv-x="1227" 
d="M687 0h-72v553q-60 8 -109.5 30.5t-82.5 52.5t-62 74t-46.5 83t-36.5 92l-199 554h187l180 -503q46 -127 85.5 -178t116.5 -58h1q70 -5 116.5 26t65.5 88l235 625h87l-260 -693q-31 -86 -84.5 -136.5t-121.5 -58.5v-551zM560 1592l113 341l77 -26l-113 -342z" />
    <glyph glyph-name="Thorn" unicode="&#xde;" horiz-adv-x="953" 
d="M806 584q0 161 -60.5 230.5t-187.5 69.5h-410v-347q2 -49 12 -79t30.5 -52t62 -32.5t97 -15t145.5 -4.5q81 0 135 9t96 32.5t61 67.5t19 111v10zM75 162v391v27v135l1 721h72v-409h410q140 0 228 -107.5t92 -317.5v-18v-10q0 -111 -23 -192.5t-58 -127.5t-88.5 -72.5
t-102 -34.5t-111.5 -8q-132 0 -216 27t-131 91v-562h-72v467h-1z" />
    <glyph glyph-name="germandbls" unicode="&#xdf;" horiz-adv-x="1113" 
d="M1037 465q3 -68 -8 -132t-40 -123t-73 -103t-112 -70.5t-153 -26.5h-377v214h377q178 0 247 57.5t67 164.5q-5 123 -90 193.5t-241 71.5h-295v143h370q160 0 160 182h2v30q0 53 -12.5 91.5t-43 72t-90.5 51t-148 17.5h-430v-1298h-72v1441h502q81 0 145 -21.5
t104.5 -56.5t67.5 -84.5t38 -101.5t11 -111q0 -43 -3 -67q-12 -130 -75 -211q76 -50 120 -134t51 -189h1z" />
    <glyph glyph-name="agrave" unicode="&#xe0;" horiz-adv-x="1070" 
d="M757 927h72v-522q0 -80 15.5 -135t45 -84t64.5 -40.5t82 -11.5v-145q-79 0 -147.5 49t-103.5 159q-86 -199 -341 -199q-355 0 -368 424h-1v16q0 11 1 17q7 222 107 333t261 111q213 0 313 -176v204zM147 437q1 -61 12 -99.5t42.5 -68.5t90.5 -43t152 -13q99 0 161 13
t94 42.5t43.5 66.5t11.5 95q-1 73 -16 129t-48.5 102t-95.5 70.5t-150 24.5q-148 0 -221 -75t-76 -244zM360 1502l77 26l114 -342l-78 -26z" />
    <glyph glyph-name="aacute" unicode="&#xe1;" horiz-adv-x="1070" 
d="M757 927h72v-522q0 -80 15.5 -135t45 -84t64.5 -40.5t82 -11.5v-145q-79 0 -147.5 49t-103.5 159q-86 -199 -341 -199q-355 0 -368 424h-1v16q0 11 1 17q7 222 107 333t261 111q213 0 313 -176v204zM147 437q1 -61 12 -99.5t42.5 -68.5t90.5 -43t152 -13q99 0 161 13
t94 42.5t43.5 66.5t11.5 95q-1 73 -16 129t-48.5 102t-95.5 70.5t-150 24.5q-148 0 -221 -75t-76 -244zM426 1180l114 341l77 -26l-114 -342z" />
    <glyph glyph-name="acircumflex" unicode="&#xe2;" horiz-adv-x="1070" 
d="M757 927h72v-522q0 -80 15.5 -135t45 -84t64.5 -40.5t82 -11.5v-145q-79 0 -147.5 49t-103.5 159q-86 -199 -341 -199q-355 0 -368 424h-1v16q0 11 1 17q7 222 107 333t261 111q213 0 313 -176v204zM147 437q1 -61 12 -99.5t42.5 -68.5t90.5 -43t152 -13q99 0 161 13
t94 42.5t43.5 66.5t11.5 95q-1 73 -16 129t-48.5 102t-95.5 70.5t-150 24.5q-148 0 -221 -75t-76 -244zM229 1213l259 257l259 -258l-54 -54l-205 204l-205 -203z" />
    <glyph glyph-name="atilde" unicode="&#xe3;" horiz-adv-x="1070" 
d="M757 927h72v-522q0 -80 15.5 -135t45 -84t64.5 -40.5t82 -11.5v-145q-79 0 -147.5 49t-103.5 159q-86 -199 -341 -199q-355 0 -368 424h-1v16q0 11 1 17q7 222 107 333t261 111q213 0 313 -176v204zM147 437q1 -61 12 -99.5t42.5 -68.5t90.5 -43t152 -13q99 0 161 13
t94 42.5t43.5 66.5t11.5 95q-1 73 -16 129t-48.5 102t-95.5 70.5t-150 24.5q-148 0 -221 -75t-76 -244zM149 1316q88 48 139.5 63.5t103.5 5t122 -54.5q72 -46 121.5 -37t140.5 86l52 -63q-107 -91 -185.5 -102.5t-173.5 48.5q-56 36 -90 43.5t-72 -5t-119 -56.5z" />
    <glyph glyph-name="adieresis" unicode="&#xe4;" horiz-adv-x="1070" 
d="M757 927h72v-522q0 -80 15.5 -135t45 -84t64.5 -40.5t82 -11.5v-145q-79 0 -147.5 49t-103.5 159q-86 -199 -341 -199q-355 0 -368 424h-1v16q0 11 1 17q7 222 107 333t261 111q213 0 313 -176v204zM147 437q1 -61 12 -99.5t42.5 -68.5t90.5 -43t152 -13q99 0 161 13
t94 42.5t43.5 66.5t11.5 95q-1 73 -16 129t-48.5 102t-95.5 70.5t-150 24.5q-148 0 -221 -75t-76 -244zM229 1266l96 96l97 -96l-97 -97zM557 1265l97 97l96 -97l-96 -97z" />
    <glyph glyph-name="aring" unicode="&#xe5;" horiz-adv-x="1070" 
d="M757 927h72v-522q0 -80 15.5 -135t45 -84t64.5 -40.5t82 -11.5v-145q-79 0 -147.5 49t-103.5 159q-86 -199 -341 -199q-355 0 -368 424h-1v16q0 11 1 17q7 222 107 333t261 111q213 0 313 -176v204zM147 437q1 -61 12 -99.5t42.5 -68.5t90.5 -43t152 -13q99 0 161 13
t94 42.5t43.5 66.5t11.5 95q-1 73 -16 129t-48.5 102t-95.5 70.5t-150 24.5q-148 0 -221 -75t-76 -244zM333 1464q0 76 46 128t110 52q63 0 108.5 -52t45.5 -128t-45.5 -128.5t-108.5 -52.5q-64 0 -110 52.5t-46 128.5zM374 1464q0 -38 31 -63.5t84 -25.5t83 25.5t30 63.5
t-30 63t-83 25q-54 0 -84.5 -25t-30.5 -63z" />
    <glyph glyph-name="ae" unicode="&#xe6;" horiz-adv-x="1532" 
d="M757 927h72v-121q50 72 124 107.5t150 35.5q49 0 93 -9t87 -31t74.5 -56t51.5 -88.5t22 -124.5v-7v-6q-8 -265 -301 -262l-300 3q2 -28 4 -44q20 -79 87 -123t155 -49t180 10.5t174 49.5l27 -155q-102 -42 -213.5 -60t-207.5 0v-8q-79 0 -147.5 49t-103.5 159
q-86 -199 -341 -199q-355 0 -368 424h-1v16q0 11 1 17q7 222 107 333t261 111q213 0 313 -176v204zM147 437q1 -61 12 -99.5t42.5 -68.5t90.5 -43t152 -13q99 0 161 13t94 42.5t43.5 66.5t11.5 95q-1 73 -16 129t-48.5 102t-95.5 70.5t-150 24.5q-148 0 -221 -75t-76 -244z
M829 481l301 -3q130 -1 178.5 34t50.5 120q-4 173 -256 173q-107 0 -183 -54t-91 -168v-102z" />
    <glyph glyph-name="ccedilla" unicode="&#xe7;" horiz-adv-x="912" 
d="M147 519q0 -398 693 -290v-215q-132 -19 -228 -18v-98q31 -2 55.5 -9.5t39.5 -16t25.5 -26t15.5 -27.5t7.5 -32.5t2.5 -29.5v-30q0 -111 -70 -142q-43 -19 -165 -19h-24v92h6q70 0 99 1t61.5 7.5t42 20.5t9.5 40t-1.5 36t-7.5 21.5t-23 14.5t-42.5 5t-71.5 2v191
q-481 20 -495 492h-1v30v2q0 109 45.5 200.5t136.5 155t227 79.5t316 -25v-144q-163 40 -285.5 34t-204 -48.5t-122.5 -107.5t-41 -144v-2z" />
    <glyph glyph-name="egrave" unicode="&#xe8;" horiz-adv-x="854" 
d="M753 653v-7v-6q-8 -265 -301 -262l-304 3q6 -77 50 -127.5t108.5 -70t143.5 -20t155.5 16.5t145.5 45l28 -155q-61 -25 -125.5 -42t-134 -23.5t-133 0.5t-120.5 34.5t-99 73t-67 120.5t-25 174v137q0 89 22 161.5t57 119t81.5 78.5t93.5 45.5t95 13.5q62 0 116.5 -15
t103 -48.5t78 -96.5t31.5 -149zM147 494l305 -3q129 -1 178 34.5t51 120.5q-4 172 -257 172q-119 0 -198 -66.5t-79 -207.5v-50zM302 1473l77 26l114 -341l-77 -27z" />
    <glyph glyph-name="eacute" unicode="&#xe9;" horiz-adv-x="854" 
d="M753 653v-7v-6q-8 -265 -301 -262l-304 3q6 -77 50 -127.5t108.5 -70t143.5 -20t155.5 16.5t145.5 45l28 -155q-61 -25 -125.5 -42t-134 -23.5t-133 0.5t-120.5 34.5t-99 73t-67 120.5t-25 174v137q0 89 22 161.5t57 119t81.5 78.5t93.5 45.5t95 13.5q62 0 116.5 -15
t103 -48.5t78 -96.5t31.5 -149zM147 494l305 -3q129 -1 178 34.5t51 120.5q-4 172 -257 172q-119 0 -198 -66.5t-79 -207.5v-50zM369 1151l114 342l77 -27l-114 -341z" />
    <glyph glyph-name="ecircumflex" unicode="&#xea;" horiz-adv-x="854" 
d="M753 653v-7v-6q-8 -265 -301 -262l-304 3q6 -77 50 -127.5t108.5 -70t143.5 -20t155.5 16.5t145.5 45l28 -155q-61 -25 -125.5 -42t-134 -23.5t-133 0.5t-120.5 34.5t-99 73t-67 120.5t-25 174v137q0 89 22 161.5t57 119t81.5 78.5t93.5 45.5t95 13.5q62 0 116.5 -15
t103 -48.5t78 -96.5t31.5 -149zM147 494l305 -3q129 -1 178 34.5t51 120.5q-4 172 -257 172q-119 0 -198 -66.5t-79 -207.5v-50zM172 1185l259 256l259 -257l-54 -54l-205 203l-205 -203z" />
    <glyph glyph-name="edieresis" unicode="&#xeb;" horiz-adv-x="854" 
d="M753 653v-7v-6q-8 -265 -301 -262l-304 3q6 -77 50 -127.5t108.5 -70t143.5 -20t155.5 16.5t145.5 45l28 -155q-61 -25 -125.5 -42t-134 -23.5t-133 0.5t-120.5 34.5t-99 73t-67 120.5t-25 174v137q0 89 22 161.5t57 119t81.5 78.5t93.5 45.5t95 13.5q62 0 116.5 -15
t103 -48.5t78 -96.5t31.5 -149zM147 494l305 -3q129 -1 178 34.5t51 120.5q-4 172 -257 172q-119 0 -198 -66.5t-79 -207.5v-50zM171 1237l97 97l97 -97l-97 -97zM500 1236l96 97l97 -97l-97 -96z" />
    <glyph glyph-name="igrave" unicode="&#xec;" horiz-adv-x="400" 
d="M237 0h-72v923h72v-923zM71 1440l77 26l114 -341l-77 -26z" />
    <glyph glyph-name="iacute" unicode="&#xed;" horiz-adv-x="400" 
d="M237 0h-72v923h72v-923zM138 1118l113 342l77 -26l-113 -342z" />
    <glyph glyph-name="icircumflex" unicode="&#xee;" horiz-adv-x="400" 
d="M237 0h-72v923h72v-923zM-59 1152l259 256l259 -257l-54 -54l-205 203l-205 -202z" />
    <glyph glyph-name="idieresis" unicode="&#xef;" horiz-adv-x="400" 
d="M237 0h-72v923h72v-923zM-60 1204l97 97l97 -97l-97 -96zM269 1203l96 97l97 -97l-97 -96z" />
    <glyph glyph-name="eth" unicode="&#xf0;" horiz-adv-x="1101" 
d="M516 820l-21 34l255 156q-52 20 -137 20h-462v108h462q147 0 225 -75l170 104l21 -34l-165 -101q52 -73 52 -191v-386q0 -209 -106 -328.5t-282 -119.5h-73q-190 0 -282.5 87.5t-97.5 290.5v11q0 9 1 14q3 66 21.5 116.5t57.5 92t108.5 64t166.5 22.5h414v136
q0 104 -54 146zM147 396q2 -71 27 -107t89.5 -52t191.5 -16h73q150 0 233 59t83 175v106h-414q-87 0 -143 -10.5t-86 -33t-41.5 -50.5t-12.5 -71z" />
    <glyph glyph-name="ntilde" unicode="&#xf1;" horiz-adv-x="955" 
d="M147 0h-72v963h72v-182q105 178 341 178h26q176 0 271 -127t95 -366v-466h-72v466q0 167 -65.5 238t-228.5 71h-26q-52 0 -94.5 -6t-90.5 -26t-80.5 -53.5t-54 -93.5t-21.5 -141v-455zM144 1298q67 36 107.5 52.5t84 20.5t82 -10t91.5 -48q72 -46 121.5 -37t140.5 86
l52 -63q-107 -91 -185.5 -103t-173.5 48q-56 36 -90 43.5t-71.5 -5t-118.5 -56.5z" />
    <glyph glyph-name="ograve" unicode="&#xf2;" horiz-adv-x="965" 
d="M890 536q3 -133 -13.5 -225.5t-60.5 -162.5t-124 -104t-200 -34q-105 0 -180.5 23.5t-122 65.5t-73 110t-35 144.5t-6.5 182.5v2q0 120 30 207.5t87 139t131 75.5t169 24q184 0 289 -111.5t109 -333.5v-3zM147 499q0 -61 3.5 -99.5t17.5 -72t36 -51.5t62.5 -31t93 -17
t132.5 -4q73 0 123 4.5t88 18t59.5 32t35 52t17.5 73t4 98.5h-1v35q-3 163 -84 233t-242 70q-181 0 -263 -68.5t-82 -233.5v-39zM362 1461l77 27l114 -342l-77 -26z" />
    <glyph glyph-name="oacute" unicode="&#xf3;" horiz-adv-x="965" 
d="M890 536q3 -133 -13.5 -225.5t-60.5 -162.5t-124 -104t-200 -34q-105 0 -180.5 23.5t-122 65.5t-73 110t-35 144.5t-6.5 182.5v2q0 120 30 207.5t87 139t131 75.5t169 24q184 0 289 -111.5t109 -333.5v-3zM147 499q0 -61 3.5 -99.5t17.5 -72t36 -51.5t62.5 -31t93 -17
t132.5 -4q73 0 123 4.5t88 18t59.5 32t35 52t17.5 73t4 98.5h-1v35q-3 163 -84 233t-242 70q-181 0 -263 -68.5t-82 -233.5v-39zM428 1140l114 341l77 -26l-114 -342z" />
    <glyph glyph-name="ocircumflex" unicode="&#xf4;" horiz-adv-x="965" 
d="M890 536q3 -133 -13.5 -225.5t-60.5 -162.5t-124 -104t-200 -34q-105 0 -180.5 23.5t-122 65.5t-73 110t-35 144.5t-6.5 182.5v2q0 120 30 207.5t87 139t131 75.5t169 24q184 0 289 -111.5t109 -333.5v-3zM147 499q0 -61 3.5 -99.5t17.5 -72t36 -51.5t62.5 -31t93 -17
t132.5 -4q73 0 123 4.5t88 18t59.5 32t35 52t17.5 73t4 98.5h-1v35q-3 163 -84 233t-242 70q-181 0 -263 -68.5t-82 -233.5v-39zM232 1173l259 257l259 -258l-54 -54l-205 203l-205 -202z" />
    <glyph glyph-name="otilde" unicode="&#xf5;" horiz-adv-x="965" 
d="M890 536q3 -133 -13.5 -225.5t-60.5 -162.5t-124 -104t-200 -34q-105 0 -180.5 23.5t-122 65.5t-73 110t-35 144.5t-6.5 182.5v2q0 120 30 207.5t87 139t131 75.5t169 24q184 0 289 -111.5t109 -333.5v-3zM147 499q0 -61 3.5 -99.5t17.5 -72t36 -51.5t62.5 -31t93 -17
t132.5 -4q73 0 123 4.5t88 18t59.5 32t35 52t17.5 73t4 98.5h-1v35q-3 163 -84 233t-242 70q-181 0 -263 -68.5t-82 -233.5v-39zM152 1275q67 36 107.5 52.5t83.5 20.5t81.5 -10t91.5 -48q72 -46 121.5 -37t140.5 86l53 -63q-107 -91 -185.5 -103t-173.5 48q-56 36 -90 43.5
t-72 -5t-119 -56.5z" />
    <glyph glyph-name="odieresis" unicode="&#xf6;" horiz-adv-x="965" 
d="M890 536q3 -133 -13.5 -225.5t-60.5 -162.5t-124 -104t-200 -34q-105 0 -180.5 23.5t-122 65.5t-73 110t-35 144.5t-6.5 182.5v2q0 120 30 207.5t87 139t131 75.5t169 24q184 0 289 -111.5t109 -333.5v-3zM147 499q0 -61 3.5 -99.5t17.5 -72t36 -51.5t62.5 -31t93 -17
t132.5 -4q73 0 123 4.5t88 18t59.5 32t35 52t17.5 73t4 98.5h-1v35q-3 163 -84 233t-242 70q-181 0 -263 -68.5t-82 -233.5v-39zM231 1226l97 96l96 -96l-96 -97zM560 1225l96 96l97 -96l-97 -97z" />
    <glyph glyph-name="divide" unicode="&#xf7;" horiz-adv-x="1052" 
d="M981 654v-72h-909v72h909z" />
    <glyph glyph-name="oslash" unicode="&#xf8;" horiz-adv-x="1241" 
d="M986 536q3 -132 -14 -225t-61 -163t-124 -104t-200 -34q-248 0 -342 136l-121 -119l-51 51l138 135q-43 110 -40 323v2q0 446 416 446q190 0 294 -116l236 233l51 -51l-246 -241q61 -108 64 -270v-3zM242 499q0 -84 9.5 -133t36.5 -78l514 504q-76 48 -215 48
q-180 0 -262 -68.5t-82 -233.5zM350 249q68 -25 237 -25q88 0 143.5 8t94 25t57.5 51t26 78.5t7 115.5h-1v35q-3 134 -59 207z" />
    <glyph glyph-name="ugrave" unicode="&#xf9;" horiz-adv-x="1055" 
d="M702 946h72v-19h2v-522q0 -80 15.5 -135t45.5 -84t65 -40.5t82 -11.5v-145q-80 0 -148.5 49.5t-103.5 158.5q-74 -187 -292 -187h-30q-85 0 -147.5 29.5t-97.5 74.5t-56 112t-27.5 128.5t-6.5 137.5v454h72v-454q0 -53 2.5 -85t11 -66.5t26 -53t46.5 -34.5t72.5 -22.5
t104.5 -6.5h30q61 0 104.5 6.5t72.5 22.5t46 34.5t25.5 53t11 66.5t2.5 85v454zM399 1424l77 26l114 -342l-77 -26z" />
    <glyph glyph-name="uacute" unicode="&#xfa;" horiz-adv-x="1055" 
d="M702 946h72v-19h2v-522q0 -80 15.5 -135t45.5 -84t65 -40.5t82 -11.5v-145q-80 0 -148.5 49.5t-103.5 158.5q-74 -187 -292 -187h-30q-85 0 -147.5 29.5t-97.5 74.5t-56 112t-27.5 128.5t-6.5 137.5v454h72v-454q0 -53 2.5 -85t11 -66.5t26 -53t46.5 -34.5t72.5 -22.5
t104.5 -6.5h30q61 0 104.5 6.5t72.5 22.5t46 34.5t25.5 53t11 66.5t2.5 85v454zM465 1102l114 341l77 -26l-114 -341z" />
    <glyph glyph-name="ucircumflex" unicode="&#xfb;" horiz-adv-x="1055" 
d="M702 946h72v-19h2v-522q0 -80 15.5 -135t45.5 -84t65 -40.5t82 -11.5v-145q-80 0 -148.5 49.5t-103.5 158.5q-74 -187 -292 -187h-30q-85 0 -147.5 29.5t-97.5 74.5t-56 112t-27.5 128.5t-6.5 137.5v454h72v-454q0 -53 2.5 -85t11 -66.5t26 -53t46.5 -34.5t72.5 -22.5
t104.5 -6.5h30q61 0 104.5 6.5t72.5 22.5t46 34.5t25.5 53t11 66.5t2.5 85v454zM269 1135l259 257l258 -257l-54 -54l-204 203l-205 -203z" />
    <glyph glyph-name="udieresis" unicode="&#xfc;" horiz-adv-x="1055" 
d="M702 946h72v-19h2v-522q0 -80 15.5 -135t45.5 -84t65 -40.5t82 -11.5v-145q-80 0 -148.5 49.5t-103.5 158.5q-74 -187 -292 -187h-30q-85 0 -147.5 29.5t-97.5 74.5t-56 112t-27.5 128.5t-6.5 137.5v454h72v-454q0 -53 2.5 -85t11 -66.5t26 -53t46.5 -34.5t72.5 -22.5
t104.5 -6.5h30q61 0 104.5 6.5t72.5 22.5t46 34.5t25.5 53t11 66.5t2.5 85v454zM268 1188l97 97l96 -97l-96 -97zM596 1187l97 97l97 -97l-97 -97z" />
    <glyph glyph-name="yacute" unicode="&#xfd;" horiz-adv-x="849" 
d="M702 963h72v-917q0 -328 -158.5 -471.5t-499.5 -143.5v144q220 0 346.5 45.5t183 147t56.5 278.5v93q-82 -129 -262 -129h-30q-85 0 -147.5 29.5t-97.5 74.5t-56 112t-27.5 128.5t-6.5 137.5v471h72v-471q0 -53 2.5 -85t11 -66.5t26 -53t46.5 -34.5t72.5 -22.5
t104.5 -6.5h30q61 0 104.5 6.5t72.5 22.5t46 34.5t25.5 53t11 66.5t2.5 85v471zM361 1102l114 341l77 -26l-114 -341z" />
    <glyph glyph-name="thorn" unicode="&#xfe;" horiz-adv-x="953" 
d="M806 511q0 161 -60.5 230.5t-187.5 69.5h-410v-347q2 -49 12 -79t30.5 -52t62 -32.5t97 -15t145.5 -4.5q81 0 135 9t96 32.5t61 67.5t19 111v10zM75 89v391v27v135l1 721h72v-409h410q140 0 228 -107.5t92 -317.5v-18v-10q0 -111 -23 -192.5t-58 -127.5t-88.5 -72.5
t-102 -34.5t-111.5 -8q-132 0 -216 27t-131 91v-562h-72v467h-1z" />
    <glyph glyph-name="ydieresis" unicode="&#xff;" horiz-adv-x="849" 
d="M702 963h72v-917q0 -328 -158.5 -471.5t-499.5 -143.5v144q220 0 346.5 45.5t183 147t56.5 278.5v93q-82 -129 -262 -129h-30q-85 0 -147.5 29.5t-97.5 74.5t-56 112t-27.5 128.5t-6.5 137.5v471h72v-471q0 -53 2.5 -85t11 -66.5t26 -53t46.5 -34.5t72.5 -22.5
t104.5 -6.5h30q61 0 104.5 6.5t72.5 22.5t46 34.5t25.5 53t11 66.5t2.5 85v471zM164 1188l97 97l96 -97l-96 -97zM492 1187l97 97l97 -97l-97 -97z" />
    <glyph glyph-name="Amacron" unicode="&#x100;" horiz-adv-x="1380" 
d="M1303 0h-145l-106 500h-649l-108 -500h-213l229 1059q23 104 56 171t84 105.5t114 53.5t155 16h6h8q44 -1 81 -8t65.5 -17t52.5 -28.5t40.5 -34t31.5 -43t24 -47t19 -54t15 -55t13 -59.5zM351 1636v77h722v-77h-722zM419 572h617l-100 472q-11 51 -17 78t-16.5 63.5
t-20.5 54.5t-25 39t-33.5 30.5t-43.5 16.5t-57 7q-37 0 -56.5 -2t-40.5 -13.5t-31 -26t-24 -52t-23.5 -78t-26.5 -117.5z" />
    <glyph glyph-name="amacron" unicode="&#x101;" horiz-adv-x="1070" 
d="M757 927h72v-522q0 -80 15.5 -135t45 -84t64.5 -40.5t82 -11.5v-145q-79 0 -147.5 49t-103.5 159q-86 -199 -341 -199q-355 0 -368 424h-1v16q0 11 1 17q7 222 107 333t261 111q213 0 313 -176v204zM128 1224v77h722v-77h-722zM147 437q1 -61 12 -99.5t42.5 -68.5
t90.5 -43t152 -13q99 0 161 13t94 42.5t43.5 66.5t11.5 95q-1 73 -16 129t-48.5 102t-95.5 70.5t-150 24.5q-148 0 -221 -75t-76 -244z" />
    <glyph glyph-name="Abreve" unicode="&#x102;" horiz-adv-x="1380" 
d="M1303 0h-145l-106 500h-649l-108 -500h-213l229 1059q23 104 56 171t84 105.5t114 53.5t155 16h6h8q44 -1 81 -8t65.5 -17t52.5 -28.5t40.5 -34t31.5 -43t24 -47t19 -54t15 -55t13 -59.5zM419 572h617l-100 472q-11 51 -17 78t-16.5 63.5t-20.5 54.5t-25 39t-33.5 30.5
t-43.5 16.5t-57 7q-37 0 -56.5 -2t-40.5 -13.5t-31 -26t-24 -52t-23.5 -78t-26.5 -117.5zM533 1782v103h41v-103q0 -50 28 -84t68.5 -42t81 0t68.5 42t28 84v103h41v-103q0 -58 -19.5 -103.5t-51 -69t-69.5 -34.5t-76 0t-69.5 34.5t-51 69t-19.5 103.5z" />
    <glyph glyph-name="abreve" unicode="&#x103;" horiz-adv-x="1070" 
d="M757 927h72v-522q0 -80 15.5 -135t45 -84t64.5 -40.5t82 -11.5v-145q-79 0 -147.5 49t-103.5 159q-86 -199 -341 -199q-355 0 -368 424h-1v16q0 11 1 17q7 222 107 333t261 111q213 0 313 -176v204zM147 437q1 -61 12 -99.5t42.5 -68.5t90.5 -43t152 -13q99 0 161 13
t94 42.5t43.5 66.5t11.5 95q-1 73 -16 129t-48.5 102t-95.5 70.5t-150 24.5q-148 0 -221 -75t-76 -244zM310 1370v103h41v-103q0 -50 28 -84t68.5 -42t81 0t68.5 42t28 84v103h41v-103q0 -58 -19.5 -103.5t-51 -69t-69.5 -34.5t-76 0t-69.5 34.5t-51 69t-19.5 103.5z" />
    <glyph glyph-name="Aogonek" unicode="&#x104;" horiz-adv-x="1380" 
d="M1303 0h-2v-130q0 -44 34 -61t135 -17v-92q-110 0 -160 38.5t-50 131.5v130h-102l-106 500h-649l-108 -500h-213l229 1059q23 104 56 171t84 105.5t114 53.5t155 16h6h8q44 -1 81 -8t65.5 -17t52.5 -28.5t40.5 -34t31.5 -43t24 -47t19 -54t15 -55t13 -59.5l225 -1050v-2z
M419 572h617l-100 472q-11 51 -17 78t-16.5 63.5t-20.5 54.5t-25 39t-33.5 30.5t-43.5 16.5t-57 7q-37 0 -56.5 -2t-40.5 -13.5t-31 -26t-24 -52t-23.5 -78t-26.5 -117.5z" />
    <glyph glyph-name="aogonek" unicode="&#x105;" horiz-adv-x="1070" 
d="M757 927h72v-522q0 -80 15.5 -135t45 -84t64.5 -40.5t82 -11.5v-145q-79 0 -147.5 49t-103.5 159q-86 -199 -341 -199q-355 0 -368 424h-1v16q0 11 1 17q7 222 107 333t261 111q213 0 313 -176v204zM147 437q1 -61 12 -99.5t42.5 -68.5t90.5 -43t152 -13q99 0 161 13
t94 42.5t43.5 66.5t11.5 95q-1 73 -16 129t-48.5 102t-95.5 70.5t-150 24.5q-148 0 -221 -75t-76 -244zM889 -139v139h41v-139q0 -44 34 -61t135 -17v-92q-110 0 -160 38.5t-50 131.5z" />
    <glyph glyph-name="Cacute" unicode="&#x106;" horiz-adv-x="1010" 
d="M939 3h-157q-153 0 -256.5 11t-187 43.5t-131 81.5t-79 134.5t-42.5 193t-11 266.5v6q0 92 5 162t18 139t35.5 119.5t57 96t83.5 76t115 53t151 33t191 10.5h159v-143h-159q-100 0 -176.5 -6t-137 -21.5t-102.5 -36t-73 -55.5t-49 -72.5t-28.5 -95.5t-14 -116.5
t-3.5 -142.5v-6q0 -77 1.5 -129t8.5 -104.5t16 -85.5t29.5 -65t42.5 -50t61.5 -35t80.5 -24t105 -13t129.5 -7.5t160.5 -1.5h157v-215zM656 1592l114 341l77 -26l-114 -342z" />
    <glyph glyph-name="cacute" unicode="&#x107;" horiz-adv-x="912" 
d="M147 519q0 -398 693 -290v-215q-175 -29 -314.5 -14.5t-238 68.5t-153 160t-58.5 261h-1v30v2q0 109 45.5 200.5t136.5 155t227 79.5t316 -25v-144q-163 40 -285.5 34t-204 -48.5t-122.5 -107.5t-41 -144v-2zM476 1176l114 341l77 -26l-114 -342z" />
    <glyph glyph-name="Ccircumflex" unicode="&#x108;" horiz-adv-x="1010" 
d="M939 3h-157q-153 0 -256.5 11t-187 43.5t-131 81.5t-79 134.5t-42.5 193t-11 266.5v6q0 92 5 162t18 139t35.5 119.5t57 96t83.5 76t115 53t151 33t191 10.5h159v-143h-159q-100 0 -176.5 -6t-137 -21.5t-102.5 -36t-73 -55.5t-49 -72.5t-28.5 -95.5t-14 -116.5
t-3.5 -142.5v-6q0 -77 1.5 -129t8.5 -104.5t16 -85.5t29.5 -65t42.5 -50t61.5 -35t80.5 -24t105 -13t129.5 -7.5t160.5 -1.5h157v-215zM460 1625l258 257l259 -258l-54 -54l-205 204l-204 -203z" />
    <glyph glyph-name="ccircumflex" unicode="&#x109;" horiz-adv-x="912" 
d="M147 519q0 -398 693 -290v-215q-175 -29 -314.5 -14.5t-238 68.5t-153 160t-58.5 261h-1v30v2q0 109 45.5 200.5t136.5 155t227 79.5t316 -25v-144q-163 40 -285.5 34t-204 -48.5t-122.5 -107.5t-41 -144v-2zM279 1209l259 257l259 -258l-54 -54l-205 203l-205 -202z" />
    <glyph glyph-name="Cdotaccent" unicode="&#x10a;" horiz-adv-x="1010" 
d="M939 3h-157q-153 0 -256.5 11t-187 43.5t-131 81.5t-79 134.5t-42.5 193t-11 266.5v6q0 92 5 162t18 139t35.5 119.5t57 96t83.5 76t115 53t151 33t191 10.5h159v-143h-159q-100 0 -176.5 -6t-137 -21.5t-102.5 -36t-73 -55.5t-49 -72.5t-28.5 -95.5t-14 -116.5
t-3.5 -142.5v-6q0 -77 1.5 -129t8.5 -104.5t16 -85.5t29.5 -65t42.5 -50t61.5 -35t80.5 -24t105 -13t129.5 -7.5t160.5 -1.5h157v-215zM623 1701l96 96l97 -96l-97 -97z" />
    <glyph glyph-name="cdotaccent" unicode="&#x10b;" horiz-adv-x="912" 
d="M147 519q0 -398 693 -290v-215q-175 -29 -314.5 -14.5t-238 68.5t-153 160t-58.5 261h-1v30v2q0 109 45.5 200.5t136.5 155t227 79.5t316 -25v-144q-163 40 -285.5 34t-204 -48.5t-122.5 -107.5t-41 -144v-2zM442 1285l97 96l97 -96l-97 -97z" />
    <glyph glyph-name="Ccaron" unicode="&#x10c;" horiz-adv-x="1010" 
d="M939 3h-157q-153 0 -256.5 11t-187 43.5t-131 81.5t-79 134.5t-42.5 193t-11 266.5v6q0 92 5 162t18 139t35.5 119.5t57 96t83.5 76t115 53t151 33t191 10.5h159v-143h-159q-100 0 -176.5 -6t-137 -21.5t-102.5 -36t-73 -55.5t-49 -72.5t-28.5 -95.5t-14 -116.5
t-3.5 -142.5v-6q0 -77 1.5 -129t8.5 -104.5t16 -85.5t29.5 -65t42.5 -50t61.5 -35t80.5 -24t105 -13t129.5 -7.5t160.5 -1.5h157v-215zM460 1853l54 54l205 -202l205 203l54 -54l-259 -257z" />
    <glyph glyph-name="ccaron" unicode="&#x10d;" horiz-adv-x="912" 
d="M147 519q0 -398 693 -290v-215q-175 -29 -314.5 -14.5t-238 68.5t-153 160t-58.5 261h-1v30v2q0 109 45.5 200.5t136.5 155t227 79.5t316 -25v-144q-163 40 -285.5 34t-204 -48.5t-122.5 -107.5t-41 -144v-2zM280 1437l54 54l205 -202l205 203l54 -54l-259 -258z" />
    <glyph glyph-name="Dcaron" unicode="&#x10e;" horiz-adv-x="1137" 
d="M147 0h-72l1 1436h72v-6h239q155 0 272 -31t193 -86.5t123.5 -139t67 -181t19.5 -221.5v-65v-9v-20q-2 -122 -23 -220t-55 -167t-86 -120t-107.5 -81t-128 -48.5t-139 -24.5t-148.5 -6h-228v-10zM147 224h228q84 0 149.5 4.5t131.5 18t114.5 35.5t91.5 58t69.5 85
t42.5 118t16 155v73q0 105 -15 181.5t-54.5 142.5t-107 106.5t-173.5 63t-253 22.5h-239zM307 1853l54 54l205 -202l205 203l54 -54l-259 -257z" />
    <glyph glyph-name="dcaron" unicode="&#x10f;" horiz-adv-x="955" 
d="M808 0v188q-51 -86 -129 -132t-171 -46h-53q-51 0 -99 11.5t-99.5 42.5t-90 79t-64 129t-27.5 185v38q0 195 103.5 314.5t263.5 119.5h25q93 0 187.5 -45t153.5 -134v686h72v-1436h-72zM147 474q0 -69 24.5 -119t68.5 -77.5t97 -40.5t118 -13h53q142 0 221 67t79 198
q0 75 -30 133.5t-80 93.5t-109 52.5t-122 17.5h-25q-141 0 -218 -76.5t-77 -214.5v-21zM616 1085l114 342l77 -26l-114 -342z" />
    <glyph glyph-name="Dcroat" unicode="&#x110;" horiz-adv-x="1356" 
d="M373 0h-72v691h-234v72h234v673h73v-6h238q155 0 272 -31t193 -86.5t123.5 -139t67 -181t19.5 -221.5v-65v-9v-20q-2 -122 -23 -220t-55 -167t-86 -120t-107.5 -81t-128 -48.5t-139 -24.5t-148.5 -6h-227v-10zM373 224h227q84 0 149.5 4.5t131.5 18t114.5 35.5t91.5 58
t69.5 85t42.5 118t16 155v73q0 105 -15 181.5t-54.5 142.5t-107 106.5t-173.5 63t-253 22.5h-238v-524h444v-72h-445v-467z" />
    <glyph glyph-name="dcroat" unicode="&#x111;" horiz-adv-x="1222" 
d="M808 0v188q-51 -86 -129 -132t-171 -46h-53q-51 0 -99 11.5t-99.5 42.5t-90 79t-64 129t-27.5 185v38q0 195 103.5 314.5t263.5 119.5h25q93 0 187.5 -45t153.5 -134v444h-244v72h244v170h72v-170h269v-72h-269v-1194h-72zM147 474q0 -69 24.5 -119t68.5 -77.5t97 -40.5
t118 -13h53q142 0 221 67t79 198q0 75 -30 133.5t-80 93.5t-109 52.5t-122 17.5h-25q-141 0 -218 -76.5t-77 -214.5v-21z" />
    <glyph glyph-name="Emacron" unicode="&#x112;" horiz-adv-x="1071" 
d="M999 224v-214h-534q-195 0 -292.5 127t-97.5 359v934h924v-143h-852v-469h756v-72h-756v-250q0 -147 70 -209.5t248 -62.5h534zM106 1636v77h722v-77h-722z" />
    <glyph glyph-name="emacron" unicode="&#x113;" horiz-adv-x="854" 
d="M753 653v-7v-6q-8 -265 -301 -262l-304 3q6 -77 50 -127.5t108.5 -70t143.5 -20t155.5 16.5t145.5 45l28 -155q-61 -25 -125.5 -42t-134 -23.5t-133 0.5t-120.5 34.5t-99 73t-67 120.5t-25 174v137q0 89 22 161.5t57 119t81.5 78.5t93.5 45.5t95 13.5q62 0 116.5 -15
t103 -48.5t78 -96.5t31.5 -149zM70 1195v77h723v-77h-723zM147 494l305 -3q129 -1 178 34.5t51 120.5q-4 172 -257 172q-119 0 -198 -66.5t-79 -207.5v-50z" />
    <glyph glyph-name="Edotaccent" unicode="&#x116;" horiz-adv-x="1071" 
d="M999 224v-214h-534q-195 0 -292.5 127t-97.5 359v934h924v-143h-852v-469h756v-72h-756v-250q0 -147 70 -209.5t248 -62.5h534zM370 1701l97 96l97 -96l-97 -97z" />
    <glyph glyph-name="edotaccent" unicode="&#x117;" horiz-adv-x="854" 
d="M753 653v-7v-6q-8 -265 -301 -262l-304 3q6 -77 50 -127.5t108.5 -70t143.5 -20t155.5 16.5t145.5 45l28 -155q-61 -25 -125.5 -42t-134 -23.5t-133 0.5t-120.5 34.5t-99 73t-67 120.5t-25 174v137q0 89 22 161.5t57 119t81.5 78.5t93.5 45.5t95 13.5q62 0 116.5 -15
t103 -48.5t78 -96.5t31.5 -149zM147 494l305 -3q129 -1 178 34.5t51 120.5q-4 172 -257 172q-119 0 -198 -66.5t-79 -207.5v-50zM335 1260l97 97l96 -97l-96 -97z" />
    <glyph glyph-name="Eogonek" unicode="&#x118;" horiz-adv-x="1071" 
d="M999 224v-214h-534q-195 0 -292.5 127t-97.5 359v934h924v-143h-852v-469h756v-72h-756v-250q0 -147 70 -209.5t248 -62.5h534zM660 -130v139h41v-139q0 -44 34.5 -61t135.5 -17v-92q-110 0 -160.5 38.5t-50.5 131.5z" />
    <glyph glyph-name="eogonek" unicode="&#x119;" horiz-adv-x="854" 
d="M753 653v-7v-6q-8 -265 -301 -262l-304 3q6 -77 50 -127.5t108.5 -70t143.5 -20t155.5 16.5t145.5 45l28 -155q-61 -25 -125.5 -42t-134 -23.5t-133 0.5t-120.5 34.5t-99 73t-67 120.5t-25 174v137q0 89 22 161.5t57 119t81.5 78.5t93.5 45.5t95 13.5q62 0 116.5 -15
t103 -48.5t78 -96.5t31.5 -149zM147 494l305 -3q129 -1 178 34.5t51 120.5q-4 172 -257 172q-119 0 -198 -66.5t-79 -207.5v-50zM455 -147v139h41v-139q0 -44 34.5 -61t135.5 -17v-92q-110 0 -160.5 38.5t-50.5 131.5z" />
    <glyph glyph-name="Ecaron" unicode="&#x11a;" horiz-adv-x="1071" 
d="M999 224v-214h-534q-195 0 -292.5 127t-97.5 359v934h924v-143h-852v-469h756v-72h-756v-250q0 -147 70 -209.5t248 -62.5h534zM208 1853l54 54l205 -202l205 203l54 -54l-259 -257z" />
    <glyph glyph-name="ecaron" unicode="&#x11b;" horiz-adv-x="854" 
d="M753 653v-7v-6q-8 -265 -301 -262l-304 3q6 -77 50 -127.5t108.5 -70t143.5 -20t155.5 16.5t145.5 45l28 -155q-61 -25 -125.5 -42t-134 -23.5t-133 0.5t-120.5 34.5t-99 73t-67 120.5t-25 174v137q0 89 22 161.5t57 119t81.5 78.5t93.5 45.5t95 13.5q62 0 116.5 -15
t103 -48.5t78 -96.5t31.5 -149zM147 494l305 -3q129 -1 178 34.5t51 120.5q-4 172 -257 172q-119 0 -198 -66.5t-79 -207.5v-50zM173 1412l54 54l205 -202l205 203l54 -54l-259 -257z" />
    <glyph glyph-name="Gcircumflex" unicode="&#x11c;" horiz-adv-x="1256" 
d="M1173 800h8v-284q0 -111 -28 -202.5t-82.5 -159.5t-141 -106t-198.5 -38h-62q-96 2 -179 23.5t-161 72.5t-133 128.5t-88 199.5t-33 278v6q0 349 165 530.5t453 181.5v-2q54 -1 95.5 -3.5t81 -9.5t61.5 -12t70 -18t74 -19l-17 -140q-21 5 -70.5 18.5t-70 17.5t-62.5 11
t-87.5 9.5t-106.5 2.5q-253 -8 -383.5 -146.5t-130.5 -420.5v-6q0 -135 39.5 -231.5t114 -151.5t169.5 -80t219 -25h42q197 0 287.5 73.5t90.5 218.5v176h-492v108h556zM431 1625l259 257l259 -258l-54 -54l-205 204l-205 -203z" />
    <glyph glyph-name="gcircumflex" unicode="&#x11d;" horiz-adv-x="948" 
d="M216 -331q220 0 346 46t182.5 147t56.5 278v89q-93 -218 -349 -218q-191 0 -280 113t-96 322h-1v20v22h1q9 220 111 331.5t265 111.5q133 0 219.5 -64.5t129.5 -175.5v245h72v-796q0 -327 -158 -470.5t-499 -143.5v143zM147 466q2 -92 26 -141t90 -74t189 -25
q93 0 156 15.5t98 46.5t49.5 70.5t15.5 94.5q-1 75 -16.5 132.5t-50.5 105t-98.5 72.5t-153.5 25q-150 0 -225.5 -76.5t-79.5 -245.5zM262 1124l259 256l259 -257l-54 -54l-205 203l-205 -202z" />
    <glyph glyph-name="Gbreve" unicode="&#x11e;" horiz-adv-x="1256" 
d="M1173 800h8v-284q0 -111 -28 -202.5t-82.5 -159.5t-141 -106t-198.5 -38h-62q-96 2 -179 23.5t-161 72.5t-133 128.5t-88 199.5t-33 278v6q0 349 165 530.5t453 181.5v-2q54 -1 95.5 -3.5t81 -9.5t61.5 -12t70 -18t74 -19l-17 -140q-21 5 -70.5 18.5t-70 17.5t-62.5 11
t-87.5 9.5t-106.5 2.5q-253 -8 -383.5 -146.5t-130.5 -420.5v-6q0 -135 39.5 -231.5t114 -151.5t169.5 -80t219 -25h42q197 0 287.5 73.5t90.5 218.5v176h-492v108h556zM512 1782v103h41v-103q0 -50 28 -84t68.5 -42t81 0t68.5 42t28 84v103h41v-103q0 -58 -19.5 -103.5
t-51 -69t-69.5 -34.5t-76 0t-69.5 34.5t-51 69t-19.5 103.5z" />
    <glyph glyph-name="gbreve" unicode="&#x11f;" horiz-adv-x="948" 
d="M216 -331q220 0 346 46t182.5 147t56.5 278v89q-93 -218 -349 -218q-191 0 -280 113t-96 322h-1v20v22h1q9 220 111 331.5t265 111.5q133 0 219.5 -64.5t129.5 -175.5v245h72v-796q0 -327 -158 -470.5t-499 -143.5v143zM147 466q2 -92 26 -141t90 -74t189 -25
q93 0 156 15.5t98 46.5t49.5 70.5t15.5 94.5q-1 75 -16.5 132.5t-50.5 105t-98.5 72.5t-153.5 25q-150 0 -225.5 -76.5t-79.5 -245.5zM343 1280v104h41v-104q0 -50 28 -84t68.5 -42t81 0t68.5 42t28 84v104h41v-104q0 -58 -19.5 -103.5t-51 -69t-69.5 -34.5t-76 0
t-69.5 34.5t-51 69t-19.5 103.5z" />
    <glyph glyph-name="Gdotaccent" unicode="&#x120;" horiz-adv-x="1256" 
d="M1173 800h8v-284q0 -111 -28 -202.5t-82.5 -159.5t-141 -106t-198.5 -38h-62q-96 2 -179 23.5t-161 72.5t-133 128.5t-88 199.5t-33 278v6q0 349 165 530.5t453 181.5v-2q54 -1 95.5 -3.5t81 -9.5t61.5 -12t70 -18t74 -19l-17 -140q-21 5 -70.5 18.5t-70 17.5t-62.5 11
t-87.5 9.5t-106.5 2.5q-253 -8 -383.5 -146.5t-130.5 -420.5v-6q0 -135 39.5 -231.5t114 -151.5t169.5 -80t219 -25h42q197 0 287.5 73.5t90.5 218.5v176h-492v108h556zM594 1701l97 96l96 -96l-96 -97z" />
    <glyph glyph-name="gdotaccent" unicode="&#x121;" horiz-adv-x="948" 
d="M216 -331q220 0 346 46t182.5 147t56.5 278v89q-93 -218 -349 -218q-191 0 -280 113t-96 322h-1v20v22h1q9 220 111 331.5t265 111.5q133 0 219.5 -64.5t129.5 -175.5v245h72v-796q0 -327 -158 -470.5t-499 -143.5v143zM147 466q2 -92 26 -141t90 -74t189 -25
q93 0 156 15.5t98 46.5t49.5 70.5t15.5 94.5q-1 75 -16.5 132.5t-50.5 105t-98.5 72.5t-153.5 25q-150 0 -225.5 -76.5t-79.5 -245.5zM425 1199l97 97l96 -97l-96 -96z" />
    <glyph glyph-name="uni0122" unicode="&#x122;" horiz-adv-x="1256" 
d="M1173 800h8v-284q0 -111 -28 -202.5t-82.5 -159.5t-141 -106t-198.5 -38h-62q-96 2 -179 23.5t-161 72.5t-133 128.5t-88 199.5t-33 278v6q0 349 165 530.5t453 181.5v-2q54 -1 95.5 -3.5t81 -9.5t61.5 -12t70 -18t74 -19l-17 -140q-21 5 -70.5 18.5t-70 17.5t-62.5 11
t-87.5 9.5t-106.5 2.5q-253 -8 -383.5 -146.5t-130.5 -420.5v-6q0 -135 39.5 -231.5t114 -151.5t169.5 -80t219 -25h42q197 0 287.5 73.5t90.5 218.5v176h-492v108h556zM587 -435l113 342l77 -27l-113 -341z" />
    <glyph glyph-name="uni0123" unicode="&#x123;" horiz-adv-x="948" 
d="M216 -331q220 0 346 46t182.5 147t56.5 278v89q-93 -218 -349 -218q-191 0 -280 113t-96 322h-1v20v22h1q9 220 111 331.5t265 111.5q133 0 219.5 -64.5t129.5 -175.5v245h72v-796q0 -327 -158 -470.5t-499 -143.5v143zM147 466q2 -92 26 -141t90 -74t189 -25
q93 0 156 15.5t98 46.5t49.5 70.5t15.5 94.5q-1 75 -16.5 132.5t-50.5 105t-98.5 72.5t-153.5 25q-150 0 -225.5 -76.5t-79.5 -245.5zM417 1279v138h41v-138q0 -44 34.5 -61t135.5 -17v-92q-110 0 -160.5 38t-50.5 132z" />
    <glyph glyph-name="Hcircumflex" unicode="&#x124;" horiz-adv-x="1105" 
d="M147 0h-72l1 1436h72v-642h810v642h73l-1 -1436h-72v579h-811v-579zM269 1625l259 257l258 -258l-54 -54l-204 204l-205 -203z" />
    <glyph glyph-name="hcircumflex" unicode="&#x125;" horiz-adv-x="955" 
d="M147 0h-72v1436h72v-643q105 179 341 179h26q176 0 271 -127t95 -367v-478h-72v478q0 167 -65.5 238.5t-228.5 71.5h-26q-52 0 -94.5 -6t-90.5 -26t-80.5 -53.5t-54 -93.5t-21.5 -141v-468zM269 1625l259 257l258 -258l-54 -54l-204 204l-205 -203z" />
    <glyph glyph-name="Hbar" unicode="&#x126;" horiz-adv-x="1481" 
d="M338 0h-73l1 1140h-194v72h194v224h72v-224h811v224h72v-224h188v-72h-188l-1 -1140h-72v579h-810v-579zM338 794h811v346h-811v-346z" />
    <glyph glyph-name="hbar" unicode="&#x127;" horiz-adv-x="1119" 
d="M312 0h-72v1177h-168v72h168v187h72v-187h426v-72h-426v-384q105 179 341 179h25q176 0 271 -127t95 -367v-478h-72v478q0 167 -65.5 238.5t-228.5 71.5h-25q-52 0 -94.5 -6t-90.5 -26t-80.5 -53.5t-54 -93.5t-21.5 -141v-468z" />
    <glyph glyph-name="Itilde" unicode="&#x128;" horiz-adv-x="335" 
d="M203 0h-72l2 1436h72zM-172 1728q88 48 139.5 63.5t103.5 5t122 -54.5q72 -46 121.5 -37t140.5 86l52 -62q-107 -91 -185.5 -103t-173.5 48q-56 36 -90 43.5t-72 -5t-119 -56.5z" />
    <glyph glyph-name="itilde" unicode="&#x129;" horiz-adv-x="256" 
d="M164 0h-72v1105h72v-1105z" />
    <glyph glyph-name="Imacron" unicode="&#x12a;" horiz-adv-x="335" 
d="M203 0h-72l2 1436h72zM-193 1636v77h722v-77h-722z" />
    <glyph glyph-name="imacron" unicode="&#x12b;" horiz-adv-x="256" 
d="M164 0h-72v1105h72v-1105z" />
    <glyph glyph-name="Iogonek" unicode="&#x12e;" horiz-adv-x="335" 
d="M131 0l2 1436h72l-2 -1430h39v-140q0 -44 34 -60.5t135 -16.5v-92q-110 0 -160 38t-50 131v134h-70z" />
    <glyph glyph-name="iogonek" unicode="&#x12f;" horiz-adv-x="256" 
d="M164 0h-16v-139q0 -44 34.5 -61t135.5 -17v-92q-110 0 -160.5 38.5t-50.5 131.5v139h-15v1105h72v-1105z" />
    <glyph glyph-name="Idotaccent" unicode="&#x130;" horiz-adv-x="335" 
d="M203 0h-72l2 1436h72zM71 1701l97 96l97 -96l-97 -97z" />
    <glyph glyph-name="dotlessi" unicode="&#x131;" horiz-adv-x="400" 
d="M237 0h-72v923h72v-923z" />
    <glyph glyph-name="IJ" unicode="&#x132;" horiz-adv-x="1111" 
d="M203 0h-72l2 1436h72zM408 -251v179q212 0 331.5 48t171.5 154.5t52 294.5v1011h72v-1011q0 -359 -152.5 -517.5t-474.5 -158.5z" />
    <glyph glyph-name="ij" unicode="&#x133;" horiz-adv-x="1011" 
d="M231 0h-72v936h72v-936zM72 1182l121 121l121 -121l-121 -121zM223 -474v143q311 0 434.5 104.5t123.5 366.5v796h72v-796q0 -327 -151.5 -470.5t-478.5 -143.5zM698 1182l121 121l121 -121l-122 -121z" />
    <glyph glyph-name="Jcircumflex" unicode="&#x134;" horiz-adv-x="776" 
d="M73 -72q212 0 331.5 48t171.5 154.5t52 294.5v1011h72v-1011q0 -359 -152.5 -517.5t-474.5 -158.5v179zM406 1625l258 257l259 -258l-54 -54l-205 204l-204 -203z" />
    <glyph glyph-name="jcircumflex" unicode="&#x135;" horiz-adv-x="777" 
d="M72 -331q311 0 434.5 104.5t123.5 366.5v796h72v-796q0 -327 -151.5 -470.5t-478.5 -143.5v143zM406 1126l259 256l259 -257l-54 -54l-205 203l-205 -202z" />
    <glyph glyph-name="uni0136" unicode="&#x136;" horiz-adv-x="1074" 
d="M147 0h-72l1 1436h72v-627h2l777 639l45 -56l-708 -583h199q276 0 406 -152t130 -460v-197h-72v197q0 235 -102 331.5t-362 96.5h-316v-625zM435 -435l114 342l77 -27l-114 -341z" />
    <glyph glyph-name="uni0137" unicode="&#x137;" horiz-adv-x="973" 
d="M147 0h-72l1 1436h72l-1 -752h103l577 519l48 -54l-517 -465h16q118 0 204 -24.5t151.5 -81.5t98 -157t32.5 -243v-178h-72v178q0 97 -21.5 159.5t-73 100t-127 52.5t-192.5 15h-227v-505zM420 -435l114 342l77 -27l-114 -341z" />
    <glyph glyph-name="Lacute" unicode="&#x139;" horiz-adv-x="847" 
d="M775 224v-214h-283q-111 0 -192.5 34t-130 97t-71.5 144.5t-23 184.5l1 966h72l-1 -966q0 -129 77 -187.5t268 -58.5h283zM288 1592l113 341l77 -26l-113 -342z" />
    <glyph glyph-name="lacute" unicode="&#x13a;" horiz-adv-x="607" 
d="M535 224v-214h-106q-97 0 -160.5 24.5t-109 86.5t-65 168.5t-19.5 269.5l1 877h72l-1 -877q0 -79 3.5 -129.5t16 -90.5t29.5 -60.5t52 -34t75 -17t106 -3.5h106zM206 1592l114 341l77 -26l-114 -342z" />
    <glyph glyph-name="uni013B" unicode="&#x13b;" horiz-adv-x="847" 
d="M775 224v-214h-283q-111 0 -192.5 34t-130 97t-71.5 144.5t-23 184.5l1 966h72l-1 -966q0 -129 77 -187.5t268 -58.5h283zM303 -435l114 342l77 -27l-114 -341z" />
    <glyph glyph-name="uni013C" unicode="&#x13c;" horiz-adv-x="607" 
d="M535 224v-214h-106q-97 0 -160.5 24.5t-109 86.5t-65 168.5t-19.5 269.5l1 877h72l-1 -877q0 -79 3.5 -129.5t16 -90.5t29.5 -60.5t52 -34t75 -17t106 -3.5h106zM163 -435l114 342l77 -27l-114 -341z" />
    <glyph glyph-name="Lcaron" unicode="&#x13d;" horiz-adv-x="847" 
d="M775 224v-214h-283q-111 0 -192.5 34t-130 97t-71.5 144.5t-23 184.5l1 966h72l-1 -966q0 -129 77 -187.5t268 -58.5h283zM467 1031l114 342l77 -26l-114 -342z" />
    <glyph glyph-name="lcaron" unicode="&#x13e;" horiz-adv-x="607" 
d="M535 224v-214h-106q-97 0 -160.5 24.5t-109 86.5t-65 168.5t-19.5 269.5l1 877h72l-1 -877q0 -79 3.5 -129.5t16 -90.5t29.5 -60.5t52 -34t75 -17t106 -3.5h106zM396 1031l114 342l77 -26l-114 -342z" />
    <glyph glyph-name="Lslash" unicode="&#x141;" horiz-adv-x="988" 
d="M917 224v-214h-283q-111 0 -192.5 34t-130 97t-71.5 144.5t-23 184.5v474l-109 -60l-34 62l144 79v411h72v-371l322 177l34 -62l-356 -196l-1 -514q0 -129 77 -187.5t268 -58.5h283z" />
    <glyph glyph-name="lslash" unicode="&#x142;" horiz-adv-x="823" 
d="M750 224v-214h-105q-97 0 -160.5 24.5t-109 86.5t-65 168.5t-19.5 269.5v406l-196 -61l-21 68l218 68v396h72v-373l295 93l21 -69l-317 -99v-429q0 -79 3.5 -129.5t16 -90.5t29.5 -60.5t52 -34t75 -17t106 -3.5h105z" />
    <glyph glyph-name="Nacute" unicode="&#x143;" horiz-adv-x="1155" 
d="M76 1436h210l718 -1313v1313h72v-1436h-209l-719 1313l1 -1313h-72zM514 1592l114 341l77 -26l-114 -342z" />
    <glyph glyph-name="nacute" unicode="&#x144;" horiz-adv-x="955" 
d="M147 0h-72v963h72v-182q105 178 341 178h26q176 0 271 -127t95 -366v-466h-72v466q0 167 -65.5 238t-228.5 71h-26q-52 0 -94.5 -6t-90.5 -26t-80.5 -53.5t-54 -93.5t-21.5 -141v-455zM421 1162l114 342l77 -26l-114 -342z" />
    <glyph glyph-name="uni0145" unicode="&#x145;" horiz-adv-x="1155" 
d="M76 1436h210l718 -1313v1313h72v-1436h-209l-719 1313l1 -1313h-72zM462 -435l114 342l77 -27l-114 -341z" />
    <glyph glyph-name="uni0146" unicode="&#x146;" horiz-adv-x="955" 
d="M147 0h-72v963h72v-182q105 178 341 178h26q176 0 271 -127t95 -366v-466h-72v466q0 167 -65.5 238t-228.5 71h-26q-52 0 -94.5 -6t-90.5 -26t-80.5 -53.5t-54 -93.5t-21.5 -141v-455zM376 -435l114 342l77 -27l-114 -341z" />
    <glyph glyph-name="Ncaron" unicode="&#x147;" horiz-adv-x="1155" 
d="M76 1436h210l718 -1313v1313h72v-1436h-209l-719 1313l1 -1313h-72zM319 1853l54 54l205 -202l204 203l54 -54l-258 -257z" />
    <glyph glyph-name="ncaron" unicode="&#x148;" horiz-adv-x="955" 
d="M147 0h-72v963h72v-182q105 178 341 178h26q176 0 271 -127t95 -366v-466h-72v466q0 167 -65.5 238t-228.5 71h-26q-52 0 -94.5 -6t-90.5 -26t-80.5 -53.5t-54 -93.5t-21.5 -141v-455zM225 1424l54 54l205 -203l205 204l54 -54l-259 -258z" />
    <glyph glyph-name="Omacron" unicode="&#x14c;" horiz-adv-x="1119" 
d="M972 891q0 192 -91.5 294.5t-261.5 102.5h-119q-84 0 -147 -20.5t-102 -55.5t-62.5 -87t-32.5 -108t-9 -126v-306q0 -67 8 -117.5t31 -98t61.5 -78t102 -49t150.5 -18.5h119q87 0 150.5 18.5t102 49t61.5 78t31 98t8 117.5v306zM75 585v306q0 83 12.5 157t43 145.5
t77.5 123t122 83t170 31.5h119q191 0 308 -147.5t117 -392.5v-306q0 -88 -12.5 -167t-43.5 -155t-78 -131t-122 -88.5t-169 -33.5h-119q-94 0 -169 33.5t-122 88.5t-78 131t-43.5 155t-12.5 167zM184 1636v77h723v-77h-723z" />
    <glyph glyph-name="omacron" unicode="&#x14d;" horiz-adv-x="965" 
d="M890 536q3 -133 -13.5 -225.5t-60.5 -162.5t-124 -104t-200 -34q-105 0 -180.5 23.5t-122 65.5t-73 110t-35 144.5t-6.5 182.5v2q0 120 30 207.5t87 139t131 75.5t169 24q184 0 289 -111.5t109 -333.5v-3zM130 1184v77h723v-77h-723zM147 499q0 -61 3.5 -99.5t17.5 -72
t36 -51.5t62.5 -31t93 -17t132.5 -4q73 0 123 4.5t88 18t59.5 32t35 52t17.5 73t4 98.5h-1v35q-3 163 -84 233t-242 70q-181 0 -263 -68.5t-82 -233.5v-39z" />
    <glyph glyph-name="Ohungarumlaut" unicode="&#x150;" horiz-adv-x="1119" 
d="M972 891q0 192 -91.5 294.5t-261.5 102.5h-119q-84 0 -147 -20.5t-102 -55.5t-62.5 -87t-32.5 -108t-9 -126v-306q0 -67 8 -117.5t31 -98t61.5 -78t102 -49t150.5 -18.5h119q87 0 150.5 18.5t102 49t61.5 78t31 98t8 117.5v306zM75 585v306q0 83 12.5 157t43 145.5
t77.5 123t122 83t170 31.5h119q191 0 308 -147.5t117 -392.5v-306q0 -88 -12.5 -167t-43.5 -155t-78 -131t-122 -88.5t-169 -33.5h-119q-94 0 -169 33.5t-122 88.5t-78 131t-43.5 155t-12.5 167zM320 1616l114 342l77 -26l-114 -342zM579 1604l114 342l77 -27l-114 -341z
" />
    <glyph glyph-name="ohungarumlaut" unicode="&#x151;" horiz-adv-x="965" 
d="M890 536q3 -133 -13.5 -225.5t-60.5 -162.5t-124 -104t-200 -34q-105 0 -180.5 23.5t-122 65.5t-73 110t-35 144.5t-6.5 182.5v2q0 120 30 207.5t87 139t131 75.5t169 24q184 0 289 -111.5t109 -333.5v-3zM147 499q0 -61 3.5 -99.5t17.5 -72t36 -51.5t62.5 -31t93 -17
t132.5 -4q73 0 123 4.5t88 18t59.5 32t35 52t17.5 73t4 98.5h-1v35q-3 163 -84 233t-242 70q-181 0 -263 -68.5t-82 -233.5v-39zM266 1164l114 342l77 -27l-114 -341zM525 1152l114 341l77 -26l-114 -341z" />
    <glyph glyph-name="OE" unicode="&#x152;" horiz-adv-x="1969" 
d="M972 891q0 192 -91.5 294.5t-261.5 102.5h-119q-84 0 -147 -20.5t-102 -55.5t-62.5 -87t-32.5 -108t-9 -126v-306q0 -67 8 -117.5t31 -98t61.5 -78t102 -49t150.5 -18.5h119q87 0 150.5 18.5t102 49t61.5 78t31 98t8 117.5v306zM75 585v306q0 83 12.5 157t43 145.5
t77.5 123t122 83t170 31.5h119q116 0 207 -56.5t146 -160.5v216h924v-143h-852v-469h756v-72h-756v-250q0 -147 70 -209.5t248 -62.5h534v-214h-534q-288 0 -364 277q-46 -128 -139.5 -202.5t-239.5 -74.5h-119q-94 0 -169 33.5t-122 88.5t-78 131t-43.5 155t-12.5 167z" />
    <glyph glyph-name="oe" unicode="&#x153;" horiz-adv-x="1596" 
d="M890 536v-4l304 -4q129 -1 178 34.5t51 120.5q-4 173 -256 173q-119 0 -198 -66.5t-79 -207.5v-18v-25v-3zM75 536v2q0 120 30 207.5t87 139t131 75.5t169 24q264 0 355 -216q29 80 84.5 134t114.5 75.5t121 21.5t116.5 -15t103 -48.5t77.5 -96t31 -148.5v-7v-7
q-8 -265 -301 -262l-304 4q6 -77 50 -127.5t108.5 -70t143.5 -20t155.5 16.5t145.5 45l28 -156q-70 -29 -144 -47t-154 -20.5t-148.5 13.5t-127 62t-90.5 118q-38 -112 -125 -167.5t-240 -55.5q-105 0 -180.5 23.5t-122 65.5t-73 110t-35 144.5t-6.5 182.5zM147 499
q0 -61 3.5 -99.5t17.5 -72t36 -51.5t62.5 -31t93 -17t132.5 -4q130 0 197 18.5t95.5 62.5t33.5 132v8v115q-8 150 -89.5 215t-236.5 65q-181 0 -263 -68.5t-82 -233.5v-39z" />
    <glyph glyph-name="Racute" unicode="&#x154;" horiz-adv-x="1146" 
d="M1071 27l-48 -54l-667 600h-207v-573h-72v573h-2v539h1v314h458q340 0 346 -455v-25q0 -111 -30.5 -187.5t-87 -115.5t-120 -54.5t-146.5 -15.5h-33zM148 1212v-496h348q158 0 235 49.5t77 180.5v7q0 152 -56.5 205.5t-217.5 53.5h-386zM518 1592l114 341l77 -26
l-114 -342z" />
    <glyph glyph-name="racute" unicode="&#x155;" horiz-adv-x="650" 
d="M147 0h-72v942h72v-228q34 63 81.5 109.5t96 70t89 34t74.5 10.5h90v-184h-90q-41 0 -83 -8.5t-90 -34t-84 -64.5t-60 -107.5t-24 -156.5v-383zM273 1118l114 342l77 -26l-114 -342z" />
    <glyph glyph-name="uni0156" unicode="&#x156;" horiz-adv-x="1146" 
d="M1071 27l-48 -54l-667 600h-207v-573h-72v573h-2v539h1v314h458q340 0 346 -455v-25q0 -111 -30.5 -187.5t-87 -115.5t-120 -54.5t-146.5 -15.5h-33zM148 1212v-496h348q158 0 235 49.5t77 180.5v7q0 152 -56.5 205.5t-217.5 53.5h-386zM465 -435l114 342l77 -27
l-114 -341z" />
    <glyph glyph-name="uni0157" unicode="&#x157;" horiz-adv-x="650" 
d="M147 0h-72v942h72v-228q34 63 81.5 109.5t96 70t89 34t74.5 10.5h90v-184h-90q-41 0 -83 -8.5t-90 -34t-84 -64.5t-60 -107.5t-24 -156.5v-383zM220 -435l114 342l77 -27l-114 -341z" />
    <glyph glyph-name="Rcaron" unicode="&#x158;" horiz-adv-x="1146" 
d="M1071 27l-48 -54l-667 600h-207v-573h-72v573h-2v539h1v314h458q340 0 346 -455v-25q0 -111 -30.5 -187.5t-87 -115.5t-120 -54.5t-146.5 -15.5h-33zM148 1212v-496h348q158 0 235 49.5t77 180.5v7q0 152 -56.5 205.5t-217.5 53.5h-386zM322 1853l54 54l205 -202l205 203
l54 -54l-259 -257z" />
    <glyph glyph-name="rcaron" unicode="&#x159;" horiz-adv-x="650" 
d="M147 0h-72v942h72v-228q34 63 81.5 109.5t96 70t89 34t74.5 10.5h90v-184h-90q-41 0 -83 -8.5t-90 -34t-84 -64.5t-60 -107.5t-24 -156.5v-383zM77 1380l54 54l205 -203l205 203l54 -54l-259 -257z" />
    <glyph glyph-name="Sacute" unicode="&#x15a;" horiz-adv-x="1073" 
d="M999 482v-3v-1l-1 -27q-3 -96 -27 -170.5t-64 -126t-101 -84t-132.5 -48.5t-164 -16.5t-190.5 10.5t-216 34v213q260 -49 443 -48.5t281.5 66.5t99.5 198q-1 104 -86.5 156t-285.5 52q-130 1 -223 25.5t-146.5 70t-78.5 101.5t-30 129h-2v21v17h1q4 81 24.5 142t55 101.5
t83 68t109 40.5t131.5 20.5t151.5 7t168.5 -0.5h104v-143h-113q-75 1 -142 0.5t-125.5 -3t-108.5 -9t-91 -18t-72.5 -30.5t-53.5 -45.5t-34.5 -63.5t-14.5 -85q2 -48 20 -81.5t62.5 -61t128 -41t209.5 -13.5q212 -2 320.5 -91.5t110.5 -262.5zM514 1592l114 341l77 -26
l-114 -342z" />
    <glyph glyph-name="sacute" unicode="&#x15b;" horiz-adv-x="782" 
d="M707 327v-1v-1v-18q-4 -103 -49.5 -171.5t-124.5 -99.5t-189.5 -33t-244.5 29v183q259 -54 397 -21.5t139 132.5q-2 153 -251 153v1q-289 8 -304 235h-1v13q0 9 1 13q3 63 20.5 108.5t60.5 72.5t74 43t106 22.5t108.5 7.5t128.5 0h64v-108q-225 0 -266 -3
q-149 -10 -195 -70q-26 -34 -29 -87q2 -47 23 -76t77 -46t152 -17v-1q139 -5 220.5 -72t82.5 -188zM315 1149l113 342l77 -26l-113 -342z" />
    <glyph glyph-name="Scircumflex" unicode="&#x15c;" horiz-adv-x="1073" 
d="M999 482v-3v-1l-1 -27q-3 -96 -27 -170.5t-64 -126t-101 -84t-132.5 -48.5t-164 -16.5t-190.5 10.5t-216 34v213q260 -49 443 -48.5t281.5 66.5t99.5 198q-1 104 -86.5 156t-285.5 52q-130 1 -223 25.5t-146.5 70t-78.5 101.5t-30 129h-2v21v17h1q4 81 24.5 142t55 101.5
t83 68t109 40.5t131.5 20.5t151.5 7t168.5 -0.5h104v-143h-113q-75 1 -142 0.5t-125.5 -3t-108.5 -9t-91 -18t-72.5 -30.5t-53.5 -45.5t-34.5 -63.5t-14.5 -85q2 -48 20 -81.5t62.5 -61t128 -41t209.5 -13.5q212 -2 320.5 -91.5t110.5 -262.5zM317 1625l259 257l259 -258
l-54 -54l-205 204l-205 -203z" />
    <glyph glyph-name="scircumflex" unicode="&#x15d;" horiz-adv-x="782" 
d="M707 327v-1v-1v-18q-4 -103 -49.5 -171.5t-124.5 -99.5t-189.5 -33t-244.5 29v183q259 -54 397 -21.5t139 132.5q-2 153 -251 153v1q-289 8 -304 235h-1v13q0 9 1 13q3 63 20.5 108.5t60.5 72.5t74 43t106 22.5t108.5 7.5t128.5 0h64v-108q-225 0 -266 -3
q-149 -10 -195 -70q-26 -34 -29 -87q2 -47 23 -76t77 -46t152 -17v-1q139 -5 220.5 -72t82.5 -188zM118 1183l259 256l259 -257l-54 -54l-205 203l-205 -202z" />
    <glyph glyph-name="Scedilla" unicode="&#x15e;" horiz-adv-x="1073" 
d="M999 482v-3v-1l-1 -27q-3 -96 -27 -170.5t-64 -126t-101 -84t-132.5 -48.5t-164 -16.5t-190.5 10.5t-216 34v213q260 -49 443 -48.5t281.5 66.5t99.5 198q-1 104 -86.5 156t-285.5 52q-130 1 -223 25.5t-146.5 70t-78.5 101.5t-30 129h-2v21v17h1q4 81 24.5 142t55 101.5
t83 68t109 40.5t131.5 20.5t151.5 7t168.5 -0.5h104v-143h-113q-75 1 -142 0.5t-125.5 -3t-108.5 -9t-91 -18t-72.5 -30.5t-53.5 -45.5t-34.5 -63.5t-14.5 -85q2 -48 20 -81.5t62.5 -61t128 -41t209.5 -13.5q212 -2 320.5 -91.5t110.5 -262.5zM484 -437v92q72 0 102 1
t63 7.5t43 21t10 40.5t-1.5 36t-7.5 21.5t-23 14t-42 4.5t-72 2v197h41v-105q27 -1 49.5 -6t37.5 -15.5t25.5 -18.5t17 -25t10 -25t5 -28.5t1.5 -25.5v-26q0 -24 -2.5 -44t-9.5 -35t-13 -27t-20 -21t-23.5 -15t-29 -9.5t-32 -6t-37.5 -3.5t-39.5 -1h-44.5h-8z" />
    <glyph glyph-name="scedilla" unicode="&#x15f;" horiz-adv-x="782" 
d="M707 327v-1v-1v-18q-4 -103 -49.5 -171.5t-124.5 -99.5t-189.5 -33t-244.5 29v183q259 -54 397 -21.5t139 132.5q-2 153 -251 153v1q-289 8 -304 235h-1v13q0 9 1 13q3 63 20.5 108.5t60.5 72.5t74 43t106 22.5t108.5 7.5t128.5 0h64v-108q-225 0 -266 -3
q-149 -10 -195 -70q-26 -34 -29 -87q2 -47 23 -76t77 -46t152 -17v-1q139 -5 220.5 -72t82.5 -188zM311 -437v92q72 0 102 1t63 7.5t43 21t10 40.5t-1.5 36t-7.5 21.5t-23 14t-42 4.5t-72 2v197h41v-105q27 -1 49.5 -6t37.5 -15.5t25.5 -18.5t17 -25t10 -25t5 -28.5
t1.5 -25.5v-26q0 -24 -2.5 -44t-9.5 -35t-13 -27t-20 -21t-23.5 -15t-29 -9.5t-32 -6t-37.5 -3.5t-39.5 -1h-44.5h-8z" />
    <glyph glyph-name="Scaron" unicode="&#x160;" horiz-adv-x="1073" 
d="M999 482v-3v-1l-1 -27q-3 -96 -27 -170.5t-64 -126t-101 -84t-132.5 -48.5t-164 -16.5t-190.5 10.5t-216 34v213q260 -49 443 -48.5t281.5 66.5t99.5 198q-1 104 -86.5 156t-285.5 52q-130 1 -223 25.5t-146.5 70t-78.5 101.5t-30 129h-2v21v17h1q4 81 24.5 142t55 101.5
t83 68t109 40.5t131.5 20.5t151.5 7t168.5 -0.5h104v-143h-113q-75 1 -142 0.5t-125.5 -3t-108.5 -9t-91 -18t-72.5 -30.5t-53.5 -45.5t-34.5 -63.5t-14.5 -85q2 -48 20 -81.5t62.5 -61t128 -41t209.5 -13.5q212 -2 320.5 -91.5t110.5 -262.5zM318 1853l54 54l205 -202
l205 203l54 -54l-259 -257z" />
    <glyph glyph-name="scaron" unicode="&#x161;" horiz-adv-x="782" 
d="M707 327v-1v-1v-18q-4 -103 -49.5 -171.5t-124.5 -99.5t-189.5 -33t-244.5 29v183q259 -54 397 -21.5t139 132.5q-2 153 -251 153v1q-289 8 -304 235h-1v13q0 9 1 13q3 63 20.5 108.5t60.5 72.5t74 43t106 22.5t108.5 7.5t128.5 0h64v-108q-225 0 -266 -3
q-149 -10 -195 -70q-26 -34 -29 -87q2 -47 23 -76t77 -46t152 -17v-1q139 -5 220.5 -72t82.5 -188zM119 1411l54 54l205 -203l204 204l55 -55l-259 -257z" />
    <glyph glyph-name="uni0162" unicode="&#x162;" horiz-adv-x="1000" 
d="M536 0h-15v-105q27 -1 49.5 -6t37.5 -15.5t25.5 -18.5t17 -25t10 -25t5 -28.5t1.5 -25.5v-26q0 -24 -2.5 -44t-9.5 -35t-13 -27t-20 -21t-23.5 -15t-29 -9.5t-32 -6t-37.5 -3.5t-39.5 -1h-44.5h-8v92q72 0 102 1t63 7.5t43 21t10 40.5t-1.5 36t-7.5 21.5t-23 14t-42 4.5
t-72 2v197h-16v1248h-464v179h1000v-179h-463z" />
    <glyph glyph-name="uni0163" unicode="&#x163;" horiz-adv-x="877" 
d="M804 946v-108h-436v-222v-13v-102.5t3.5 -82t8 -69.5t16 -51.5t25 -42t39 -28t53.5 -22t71.5 -10.5t91.5 -8t115 -1v-184q-53 0 -96 3v-103q31 -2 55.5 -9.5t39.5 -16t25.5 -26.5t15 -27t7 -33t2.5 -29.5v-29.5t-2.5 -43.5t-9.5 -35t-13 -27.5t-19.5 -20.5t-22.5 -14.5
t-28.5 -10t-31.5 -6t-37.5 -3t-39 -1h-43.5h-11v92h6q70 0 99 1t61.5 7.5t42 20.5t9.5 40t-1.5 36t-7.5 21.5t-23 14.5t-42.5 5t-71.5 2v197h19q-62 6 -112.5 18t-88 30t-66 42t-47 53.5t-31.5 64t-19 73.5t-9.5 82.5t-3.5 91.5v100v54v222h-224v108h224v490h72v-490h436z
" />
    <glyph glyph-name="Tcaron" unicode="&#x164;" horiz-adv-x="1000" 
d="M536 0h-72v1248h-464v179h1000v-179h-463zM242 1853l54 54l205 -202l204 203l54 -54l-258 -257z" />
    <glyph glyph-name="tcaron" unicode="&#x165;" horiz-adv-x="877" 
d="M804 946v-108h-436v-222v-13v-102.5t3.5 -82t8 -69.5t16 -51.5t25 -42t39 -28t53.5 -22t71.5 -10.5t91.5 -8t115 -1v-184q-74 0 -135 6.5t-108 19t-83.5 31.5t-63 43t-45.5 53t-30 63.5t-18 73.5t-9 82t-3 90.5t0 97.5v18.5v17v18.5v222h-224v108h224v490h72v-490h436z
M703 1064l114 342l77 -26l-114 -342z" />
    <glyph glyph-name="Utilde" unicode="&#x168;" horiz-adv-x="1203" 
d="M1056 1436h72v-863q0 -261 -127 -411t-360 -150h-80q-229 0 -357.5 148.5t-128.5 412.5v863h72v-863q0 -346 414 -346h80q206 0 310.5 84t104.5 262v863zM262 1728q88 48 139.5 63.5t103.5 5t122 -54.5q72 -46 121.5 -37t140.5 86l52 -62q-107 -91 -185.5 -103t-173.5 48
q-56 36 -90 43.5t-72 -5t-119 -56.5z" />
    <glyph glyph-name="utilde" unicode="&#x169;" horiz-adv-x="1055" 
d="M702 946h72v-19h2v-522q0 -80 15.5 -135t45.5 -84t65 -40.5t82 -11.5v-145q-80 0 -148.5 49.5t-103.5 158.5q-74 -187 -292 -187h-30q-85 0 -147.5 29.5t-97.5 74.5t-56 112t-27.5 128.5t-6.5 137.5v454h72v-454q0 -53 2.5 -85t11 -66.5t26 -53t46.5 -34.5t72.5 -22.5
t104.5 -6.5h30q61 0 104.5 6.5t72.5 22.5t46 34.5t25.5 53t11 66.5t2.5 85v454zM188 1238q67 36 107.5 52.5t84 20.5t82 -10t91.5 -48q72 -46 121.5 -37.5t140.5 85.5l53 -62q-107 -91 -185.5 -103t-173.5 48q-56 36 -90 43.5t-72 -5t-119 -56.5z" />
    <glyph glyph-name="Umacron" unicode="&#x16a;" horiz-adv-x="1203" 
d="M1056 1436h72v-863q0 -261 -127 -411t-360 -150h-80q-229 0 -357.5 148.5t-128.5 412.5v863h72v-863q0 -346 414 -346h80q206 0 310.5 84t104.5 262v863zM241 1636v77h722v-77h-722z" />
    <glyph glyph-name="umacron" unicode="&#x16b;" horiz-adv-x="1055" 
d="M702 946h72v-19h2v-522q0 -80 15.5 -135t45.5 -84t65 -40.5t82 -11.5v-145q-80 0 -148.5 49.5t-103.5 158.5q-74 -187 -292 -187h-30q-85 0 -147.5 29.5t-97.5 74.5t-56 112t-27.5 128.5t-6.5 137.5v454h72v-454q0 -53 2.5 -85t11 -66.5t26 -53t46.5 -34.5t72.5 -22.5
t104.5 -6.5h30q61 0 104.5 6.5t72.5 22.5t46 34.5t25.5 53t11 66.5t2.5 85v454zM167 1146v77h723v-77h-723z" />
    <glyph glyph-name="Ubreve" unicode="&#x16c;" horiz-adv-x="1203" 
d="M1056 1436h72v-863q0 -261 -127 -411t-360 -150h-80q-229 0 -357.5 148.5t-128.5 412.5v863h72v-863q0 -346 414 -346h80q206 0 310.5 84t104.5 262v863zM424 1782v103h40v-103q0 -50 28 -84t68.5 -42t81 0t68.5 42t28 84v103h41v-103q0 -67 -26.5 -116.5t-65.5 -72
t-85.5 -22.5t-85.5 22.5t-65.5 72t-26.5 116.5z" />
    <glyph glyph-name="ubreve" unicode="&#x16d;" horiz-adv-x="1055" 
d="M702 946h72v-19h2v-522q0 -80 15.5 -135t45.5 -84t65 -40.5t82 -11.5v-145q-80 0 -148.5 49.5t-103.5 158.5q-74 -187 -292 -187h-30q-85 0 -147.5 29.5t-97.5 74.5t-56 112t-27.5 128.5t-6.5 137.5v454h72v-454q0 -53 2.5 -85t11 -66.5t26 -53t46.5 -34.5t72.5 -22.5
t104.5 -6.5h30q61 0 104.5 6.5t72.5 22.5t46 34.5t25.5 53t11 66.5t2.5 85v454zM350 1292v103h41v-103q0 -50 28 -84t68.5 -42t80.5 0t68 42t28 84v103h41v-103q0 -67 -26.5 -116.5t-65.5 -72t-85.5 -22.5t-85.5 22.5t-65.5 72t-26.5 116.5z" />
    <glyph glyph-name="Uring" unicode="&#x16e;" horiz-adv-x="1203" 
d="M1056 1436h72v-863q0 -261 -127 -411t-360 -150h-80q-229 0 -357.5 148.5t-128.5 412.5v863h72v-863q0 -346 414 -346h80q206 0 310.5 84t104.5 262v863zM446 1876q0 76 46 128t110 52q63 0 108.5 -52t45.5 -128t-45.5 -128.5t-108.5 -52.5q-64 0 -110 52.5t-46 128.5z
M487 1876q0 -38 31 -63.5t84 -25.5t83 25.5t30 63.5t-30 63t-83 25q-54 0 -84.5 -25t-30.5 -63z" />
    <glyph glyph-name="uring" unicode="&#x16f;" horiz-adv-x="1055" 
d="M702 946h72v-19h2v-522q0 -80 15.5 -135t45.5 -84t65 -40.5t82 -11.5v-145q-80 0 -148.5 49.5t-103.5 158.5q-74 -187 -292 -187h-30q-85 0 -147.5 29.5t-97.5 74.5t-56 112t-27.5 128.5t-6.5 137.5v454h72v-454q0 -53 2.5 -85t11 -66.5t26 -53t46.5 -34.5t72.5 -22.5
t104.5 -6.5h30q61 0 104.5 6.5t72.5 22.5t46 34.5t25.5 53t11 66.5t2.5 85v454zM373 1386q0 76 45.5 128t109.5 52q63 0 108.5 -52t45.5 -128t-45.5 -128.5t-108.5 -52.5q-64 0 -109.5 52.5t-45.5 128.5zM414 1386q0 -38 30.5 -63.5t83.5 -25.5t83 25.5t30 63.5t-30 63.5
t-83 25.5t-83.5 -25.5t-30.5 -63.5z" />
    <glyph glyph-name="Uhungarumlaut" unicode="&#x170;" horiz-adv-x="1203" 
d="M1056 1436h72v-863q0 -261 -127 -411t-360 -150h-80q-229 0 -357.5 148.5t-128.5 412.5v863h72v-863q0 -346 414 -346h80q206 0 310.5 84t104.5 262v863zM377 1616l114 342l77 -26l-114 -342zM636 1604l114 342l77 -27l-114 -341z" />
    <glyph glyph-name="uhungarumlaut" unicode="&#x171;" horiz-adv-x="1055" 
d="M702 946h72v-19h2v-522q0 -80 15.5 -135t45.5 -84t65 -40.5t82 -11.5v-145q-80 0 -148.5 49.5t-103.5 158.5q-74 -187 -292 -187h-30q-85 0 -147.5 29.5t-97.5 74.5t-56 112t-27.5 128.5t-6.5 137.5v454h72v-454q0 -53 2.5 -85t11 -66.5t26 -53t46.5 -34.5t72.5 -22.5
t104.5 -6.5h30q61 0 104.5 6.5t72.5 22.5t46 34.5t25.5 53t11 66.5t2.5 85v454zM303 1126l114 342l77 -26l-114 -342zM562 1114l114 342l77 -26l-114 -342z" />
    <glyph glyph-name="Uogonek" unicode="&#x172;" horiz-adv-x="1203" 
d="M1056 1436h72v-863q0 -261 -127 -411t-360 -150h-80q-229 0 -357.5 148.5t-128.5 412.5v863h72v-863q0 -346 414 -346h80q206 0 310.5 84t104.5 262v863zM778 -130v139h41v-139q0 -44 34.5 -61t135.5 -17v-92q-110 0 -160.5 38.5t-50.5 131.5z" />
    <glyph glyph-name="uogonek" unicode="&#x173;" horiz-adv-x="1055" 
d="M702 946h72v-19h2v-522q0 -80 15.5 -135t45.5 -84t65 -40.5t82 -11.5v-145h-13v-119q0 -44 34 -61t135 -17v-92q-110 0 -160 38.5t-50 131.5v125q-145 31 -198 202q-74 -187 -292 -187h-30q-85 0 -147.5 29.5t-97.5 74.5t-56 112t-27.5 128.5t-6.5 137.5v454h72v-454
q0 -53 2.5 -85t11 -66.5t26 -53t46.5 -34.5t72.5 -22.5t104.5 -6.5h30q61 0 104.5 6.5t72.5 22.5t46 34.5t25.5 53t11 66.5t2.5 85v454z" />
    <glyph glyph-name="Wcircumflex" unicode="&#x174;" horiz-adv-x="1885" 
d="M221 0l-139 1436h216l126 -1296l492 1246h160l510 -1307l152 1357h72l-161 -1436h-186l-506 1295l-511 -1295h-225zM697 1625l259 257l259 -258l-54 -54l-205 204l-205 -203z" />
    <glyph glyph-name="wcircumflex" unicode="&#x175;" horiz-adv-x="1431" 
d="M408 224l301 657v2h121l288 -727h35l129 790h74l-153 -935l-68 1h-81l-295 745l-343 -747h-134l-202 936h149l156 -722h23zM496 1135l258 257l259 -257l-54 -54l-205 203l-204 -203z" />
    <glyph glyph-name="Ycircumflex" unicode="&#x176;" horiz-adv-x="1227" 
d="M687 0h-72v553q-60 8 -109.5 30.5t-82.5 52.5t-62 74t-46.5 83t-36.5 92l-199 554h187l180 -503q46 -127 85.5 -178t116.5 -58h1q70 -5 116.5 26t65.5 88l235 625h87l-260 -693q-31 -86 -84.5 -136.5t-121.5 -58.5v-551zM363 1625l259 257l259 -258l-54 -54l-205 204
l-205 -203z" />
    <glyph glyph-name="ycircumflex" unicode="&#x177;" horiz-adv-x="849" 
d="M702 963h72v-917q0 -328 -158.5 -471.5t-499.5 -143.5v144q220 0 346.5 45.5t183 147t56.5 278.5v93q-82 -129 -262 -129h-30q-85 0 -147.5 29.5t-97.5 74.5t-56 112t-27.5 128.5t-6.5 137.5v471h72v-471q0 -53 2.5 -85t11 -66.5t26 -53t46.5 -34.5t72.5 -22.5
t104.5 -6.5h30q61 0 104.5 6.5t72.5 22.5t46 34.5t25.5 53t11 66.5t2.5 85v471zM165 1135l259 257l258 -257l-54 -54l-204 203l-205 -203z" />
    <glyph glyph-name="Ydieresis" unicode="&#x178;" horiz-adv-x="1227" 
d="M687 0h-72v553q-60 8 -109.5 30.5t-82.5 52.5t-62 74t-46.5 83t-36.5 92l-199 554h187l180 -503q46 -127 85.5 -178t116.5 -58h1q70 -5 116.5 26t65.5 88l235 625h87l-260 -693q-31 -86 -84.5 -136.5t-121.5 -58.5v-551zM362 1678l97 96l96 -96l-96 -97zM691 1677l96 97
l97 -97l-97 -97z" />
    <glyph glyph-name="Zacute" unicode="&#x179;" horiz-adv-x="1391" 
d="M1239 1162q-1 71 -63 101.5t-190 30.5h-879v143h879q314 0 325 -257h1v-44q0 -50 -21.5 -94.5t-50.5 -75.5t-77.5 -62t-83 -48.5t-87.5 -40.5l-529 -236q-165 -72 -224 -114q-90 -61 -92 -126q1 -47 28.5 -70t107.5 -34t243 -11h784v-214h-784q-135 0 -222 17.5
t-136.5 56.5t-69 92t-22.5 134h-1v25v3v8q2 50 26.5 95t57 76.5t81.5 62t86 48.5t84 39q5 2 8 3.5t7.5 3t7.5 3.5l530 236q66 29 107.5 50.5t84.5 50t63.5 59t20.5 63.5v26zM603 1592l114 341l77 -26l-114 -342z" />
    <glyph glyph-name="zacute" unicode="&#x17a;" horiz-adv-x="1074" 
d="M884 777q-1 41 -39.5 57t-124.5 16h-623v108h623q226 0 236 -170v-27q0 -150 -231 -231l-362 -129q-206 -72 -208 -131q1 -35 17.5 -51t68 -23t163.5 -7h595v-178h-595q-96 0 -159 15.5t-97.5 48t-48.5 75t-16 105.5v14v1v4q5 143 255 229l364 129q182 63 182 129v16z
M474 1130l114 341l77 -26l-114 -342z" />
    <glyph glyph-name="Zdotaccent" unicode="&#x17b;" horiz-adv-x="1391" 
d="M1239 1162q-1 71 -63 101.5t-190 30.5h-879v143h879q314 0 325 -257h1v-44q0 -50 -21.5 -94.5t-50.5 -75.5t-77.5 -62t-83 -48.5t-87.5 -40.5l-529 -236q-165 -72 -224 -114q-90 -61 -92 -126q1 -47 28.5 -70t107.5 -34t243 -11h784v-214h-784q-135 0 -222 17.5
t-136.5 56.5t-69 92t-22.5 134h-1v25v3v8q2 50 26.5 95t57 76.5t81.5 62t86 48.5t84 39q5 2 8 3.5t7.5 3t7.5 3.5l530 236q66 29 107.5 50.5t84.5 50t63.5 59t20.5 63.5v26zM569 1701l97 96l97 -96l-97 -97z" />
    <glyph glyph-name="zdotaccent" unicode="&#x17c;" horiz-adv-x="1074" 
d="M884 777q-1 41 -39.5 57t-124.5 16h-623v108h623q226 0 236 -170v-27q0 -150 -231 -231l-362 -129q-206 -72 -208 -131q1 -35 17.5 -51t68 -23t163.5 -7h595v-178h-595q-96 0 -159 15.5t-97.5 48t-48.5 75t-16 105.5v14v1v4q5 143 255 229l364 129q182 63 182 129v16z
M441 1239l96 96l97 -96l-97 -97z" />
    <glyph glyph-name="Zcaron" unicode="&#x17d;" horiz-adv-x="1391" 
d="M1239 1162q-1 71 -63 101.5t-190 30.5h-879v143h879q314 0 325 -257h1v-44q0 -50 -21.5 -94.5t-50.5 -75.5t-77.5 -62t-83 -48.5t-87.5 -40.5l-529 -236q-165 -72 -224 -114q-90 -61 -92 -126q1 -47 28.5 -70t107.5 -34t243 -11h784v-214h-784q-135 0 -222 17.5
t-136.5 56.5t-69 92t-22.5 134h-1v25v3v8q2 50 26.5 95t57 76.5t81.5 62t86 48.5t84 39q5 2 8 3.5t7.5 3t7.5 3.5l530 236q66 29 107.5 50.5t84.5 50t63.5 59t20.5 63.5v26zM407 1853l54 54l205 -202l205 203l54 -54l-259 -257z" />
    <glyph glyph-name="zcaron" unicode="&#x17e;" horiz-adv-x="1074" 
d="M884 777q-1 41 -39.5 57t-124.5 16h-623v108h623q226 0 236 -170v-27q0 -150 -231 -231l-362 -129q-206 -72 -208 -131q1 -35 17.5 -51t68 -23t163.5 -7h595v-178h-595q-96 0 -159 15.5t-97.5 48t-48.5 75t-16 105.5v14v1v4q5 143 255 229l364 129q182 63 182 129v16z
M279 1391l54 54l204 -202l205 203l54 -54l-259 -257z" />
    <glyph glyph-name="uni018F" unicode="&#x18f;" horiz-adv-x="1036" 
d="M75 396v1v3q1 61 22 115.5t62 99t108 71t152 26.5h469q-1 58 -7 100t-20.5 81t-37.5 65t-60.5 48.5t-87.5 34t-119.5 18t-156 6t-197.5 -7.5v143q192 12 326 -3t219 -52t132 -107.5t64 -154.5t17 -209q1 -102 -1.5 -176t-11.5 -144t-24.5 -117t-42 -88.5t-62.5 -66
t-87 -43t-114.5 -25.5t-146.5 -7q-107 0 -185.5 31t-123 86.5t-65 122.5t-21.5 149zM147 399q1 -88 75.5 -133t247.5 -45q82 0 130 1t98.5 8t75.5 15.5t51 30.5t35 45.5t18 67.5t10 90.5t1 119.5h-470q-138 0 -204.5 -56t-67.5 -144z" />
    <glyph glyph-name="florin" unicode="&#x192;" horiz-adv-x="1094" 
d="M72 -253v214h158q60 0 98.5 4t65.5 19t41 29t21 52t8 67t1 94v270h-215v143h215v265q0 211 91.5 329t280.5 118h185v-215h-185q-170 0 -235 -53t-65 -179v-265h453v-143h-453v-270q0 -46 -0.5 -73.5t-3.5 -72.5t-8.5 -74t-16 -67.5t-25.5 -63t-38.5 -51.5t-53.5 -42
t-71 -25t-90 -10h-158z" />
    <glyph glyph-name="uni0218" unicode="&#x218;" horiz-adv-x="1073" 
d="M999 482v-3v-1l-1 -27q-3 -96 -27 -170.5t-64 -126t-101 -84t-132.5 -48.5t-164 -16.5t-190.5 10.5t-216 34v213q260 -49 443 -48.5t281.5 66.5t99.5 198q-1 104 -86.5 156t-285.5 52q-130 1 -223 25.5t-146.5 70t-78.5 101.5t-30 129h-2v21v17h1q4 81 24.5 142t55 101.5
t83 68t109 40.5t131.5 20.5t151.5 7t168.5 -0.5h104v-143h-113q-75 1 -142 0.5t-125.5 -3t-108.5 -9t-91 -18t-72.5 -30.5t-53.5 -45.5t-34.5 -63.5t-14.5 -85q2 -48 20 -81.5t62.5 -61t128 -41t209.5 -13.5q212 -2 320.5 -91.5t110.5 -262.5zM461 -435l114 342l77 -27
l-114 -341z" />
    <glyph glyph-name="uni0219" unicode="&#x219;" horiz-adv-x="782" 
d="M707 327v-1v-1v-18q-4 -103 -49.5 -171.5t-124.5 -99.5t-189.5 -33t-244.5 29v183q259 -54 397 -21.5t139 132.5q-2 153 -251 153v1q-289 8 -304 235h-1v13q0 9 1 13q3 63 20.5 108.5t60.5 72.5t74 43t106 22.5t108.5 7.5t128.5 0h64v-108q-225 0 -266 -3
q-149 -10 -195 -70q-26 -34 -29 -87q2 -47 23 -76t77 -46t152 -17v-1q139 -5 220.5 -72t82.5 -188zM288 -435l114 342l77 -27l-114 -341z" />
    <glyph glyph-name="uni021A" unicode="&#x21a;" horiz-adv-x="1000" 
d="M536 0h-72v1248h-464v179h1000v-179h-463zM385 -435l114 342l77 -27l-114 -341z" />
    <glyph glyph-name="uni021B" unicode="&#x21b;" horiz-adv-x="877" 
d="M804 946v-108h-436v-222v-13v-102.5t3.5 -82t8 -69.5t16 -51.5t25 -42t39 -28t53.5 -22t71.5 -10.5t91.5 -8t115 -1v-184q-74 0 -135 6.5t-108 19t-83.5 31.5t-63 43t-45.5 53t-30 63.5t-18 73.5t-9 82t-3 90.5t0 97.5v18.5v17v18.5v222h-224v108h224v490h72v-490h436z
M559 -428l114 341l77 -26l-114 -342z" />
    <glyph glyph-name="uni0237" unicode="&#x237;" horiz-adv-x="777" 
d="M72 -331q311 0 434.5 104.5t123.5 366.5v796h72v-796q0 -327 -151.5 -470.5t-478.5 -143.5v143z" />
    <glyph glyph-name="uni0259" unicode="&#x259;" horiz-adv-x="990" 
d="M916 455q0 -209 -106 -328.5t-282 -119.5h-73q-190 0 -282.5 87.5t-97.5 290.5v11q0 9 1 14q3 66 21.5 116.5t57.5 92t108.5 64t166.5 22.5h414v136q0 102 -52.5 145.5t-178.5 43.5h-462v108h462q154 0 228.5 -78t74.5 -219v-386zM147 396q2 -71 27 -107t89.5 -52
t191.5 -16h73q150 0 233 59t83 175v106h-414q-87 0 -143 -10.5t-86 -33t-41.5 -50.5t-12.5 -71z" />
    <glyph glyph-name="circumflex" unicode="&#x2c6;" horiz-adv-x="820" 
d="M520 1144l-54 -54l-205 204l-204 -203l-55 54l259 257z" />
    <glyph glyph-name="caron" unicode="&#x2c7;" horiz-adv-x="1068" 
d="M520 1325l-259 -257l-259 257l55 54l204 -203l205 204z" />
    <glyph glyph-name="breve" unicode="&#x2d8;" horiz-adv-x="986" 
d="M316 1379h41v-104q0 -58 -19.5 -103.5t-51 -69t-69 -34.5t-75.5 0t-69.5 34.5t-51 69t-19.5 103.5v104h41v-104q0 -50 28 -84t68.5 -42t80.5 0t68 42t28 84v104z" />
    <glyph glyph-name="dotaccent" unicode="&#x2d9;" horiz-adv-x="315" 
d="M97 1221l96 -96l-96 -97l-97 97z" />
    <glyph glyph-name="ring" unicode="&#x2da;" horiz-adv-x="509" 
d="M157 1103q53 0 83 26t30 64t-30 63t-83 25t-83.5 -25t-30.5 -63t30.5 -64t83.5 -26zM2 1193q0 76 45.5 128t109.5 52q63 0 108.5 -52t45.5 -128t-45.5 -128.5t-108.5 -52.5q-64 0 -109.5 52.5t-45.5 128.5z" />
    <glyph glyph-name="ogonek" unicode="&#x2db;" horiz-adv-x="371" 
d="M2 0h41v-139q0 -44 34 -61t135 -17v-92q-110 0 -160 38.5t-50 131.5v139z" />
    <glyph glyph-name="tilde" unicode="&#x2dc;" horiz-adv-x="782" 
d="M681 1169q-107 -91 -185.5 -103t-173.5 48q-56 36 -90 43.5t-72 -5t-119 -56.5l-39 72q67 36 107.5 52.5t83.5 20.5t81.5 -10t91.5 -48q72 -46 121.5 -37.5t140.5 85.5z" />
    <glyph glyph-name="hungarumlaut" unicode="&#x2dd;" horiz-adv-x="1033" 
d="M3 853l114 341l77 -26l-114 -341zM262 840l114 342l77 -26l-114 -342z" />
    <glyph glyph-name="gravecomb" unicode="&#x300;" 
d="M195 863l-77 -26l-114 342l77 26z" />
    <glyph glyph-name="acutecomb" unicode="&#x301;" 
d="M3 863l114 342l77 -26l-114 -342z" />
    <glyph glyph-name="uni0302" unicode="&#x302;" 
d="M520 1144l-54 -54l-205 204l-204 -203l-55 54l259 257z" />
    <glyph glyph-name="tildecomb" unicode="&#x303;" 
d="M681 1169q-107 -91 -185.5 -103t-173.5 48q-56 36 -90 43.5t-72 -5t-119 -56.5l-39 72q67 36 107.5 52.5t83.5 20.5t81.5 -10t91.5 -48q72 -46 121.5 -37.5t140.5 85.5z" />
    <glyph glyph-name="uni0304" unicode="&#x304;" 
d="M723 1049v-77h-723v77h723z" />
    <glyph glyph-name="uni0306" unicode="&#x306;" 
d="M316 1379h41v-104q0 -58 -19.5 -103.5t-51 -69t-69 -34.5t-75.5 0t-69.5 34.5t-51 69t-19.5 103.5v104h41v-104q0 -50 28 -84t68.5 -42t80.5 0t68 42t28 84v104z" />
    <glyph glyph-name="uni0307" unicode="&#x307;" 
d="M97 1221l96 -96l-96 -97l-97 97z" />
    <glyph glyph-name="uni0308" unicode="&#x308;" 
d="M97 1221l96 -96l-96 -97l-97 97zM328 1124l97 97l97 -97l-97 -97z" />
    <glyph glyph-name="uni030A" unicode="&#x30a;" 
d="M157 1103q53 0 83 26t30 64t-30 63t-83 25t-83.5 -25t-30.5 -63t30.5 -64t83.5 -26zM2 1193q0 76 45.5 128t109.5 52q63 0 108.5 -52t45.5 -128t-45.5 -128.5t-108.5 -52.5q-64 0 -109.5 52.5t-45.5 128.5z" />
    <glyph glyph-name="uni030B" unicode="&#x30b;" 
d="M3 853l114 341l77 -26l-114 -341zM262 840l114 342l77 -26l-114 -342z" />
    <glyph glyph-name="uni030C" unicode="&#x30c;" 
d="M520 1325l-259 -257l-259 257l55 54l204 -203l205 204z" />
    <glyph glyph-name="uni0312" unicode="&#x312;" 
d="M2 1601h41v-139q0 -44 34 -61t135 -17v-91q-110 0 -160 37.5t-50 131.5v139z" />
    <glyph glyph-name="uni0326" unicode="&#x326;" 
d="M3 -479l114 341l77 -26l-114 -341z" />
    <glyph glyph-name="uni0327" unicode="&#x327;" 
d="M0 -345q72 0 102 1t63 7.5t43 21t10 40.5t-1.5 36t-7.5 21.5t-23 14t-42 4.5t-72 2v197h41v-105q27 -1 49.5 -6t37.5 -15.5t25.5 -18.5t17 -25t10 -25t5 -28.5t1.5 -25.5v-26q0 -24 -2.5 -44t-9.5 -35t-13 -27t-20 -21t-23.5 -15t-29 -9.5t-32 -6t-37.5 -3.5t-39.5 -1
h-44.5h-8v92z" />
    <glyph glyph-name="uni0328" unicode="&#x328;" 
d="M2 0h41v-139q0 -44 34 -61t135 -17v-92q-110 0 -160 38.5t-50 131.5v139z" />
    <glyph glyph-name="uni0600" unicode="&#x600;" horiz-adv-x="3796" 
d="M72 -695v185h2696q28 23 63 23h199q-48 64 -65.5 139t-4.5 147q23 121 112.5 191.5t225.5 84t310 -17.5v-132q-168 32 -293 22t-200.5 -55.5t-89.5 -116.5q-15 -80 28.5 -152t148.5 -110h520v-199h-113v-9h-3537z" />
    <glyph glyph-name="uni0601" unicode="&#x601;" horiz-adv-x="5958" 
d="M1741 -818q-256 4 -321 240q-43 -126 -116 -183t-179 -57h-31h-4q-216 3 -276 231q-93 -195 -353 -195q-101 0 -178.5 32t-125 89t-72 129t-26.5 157v7v8q2 80 26.5 150t72 128t126.5 92t181 34q94 0 181.5 -41.5t144.5 -113.5v195h72v-450q0 -75 8.5 -118t35.5 -71.5
t71.5 -38t120.5 -9.5h26q86 0 137 19t85.5 75.5t48 149.5t17.5 252h72q-3 -139 -19 -260h2q0 -139 57.5 -187.5t225.5 -48.5h4151v-215h-4161zM131 -366q5 -202 330 -202q185 0 257.5 54.5t72.5 175.5v21q0 84 -95 148t-231 64q-91 0 -157 -20.5t-103.5 -57.5t-55 -82
t-18.5 -101zM241 342l121 121l121 -121l-122 -121zM498 342l121 120l121 -120l-122 -122zM1326 221l122 121l120 -121l-121 -121z" />
    <glyph glyph-name="uni0602" unicode="&#x602;" horiz-adv-x="3348" 
d="M75 -170q0 171 103 298q95 116 229 135q165 24 306 -114q183 -178 270 -576h2293v-214h-2747q-250 0 -352 109.5t-102 361.5zM147 -170q0 -82 12.5 -127t54 -77t114.5 -42.5t201 -10.5h373q-88 348 -284 462q-132 77 -273 30q-106 -36 -163 -123q-35 -54 -35 -112z" />
    <glyph glyph-name="uni0603" unicode="&#x603;" horiz-adv-x="4303" 
d="M72 -869v214h2535q4 1 13 1h33q149 0 217 60t68 196v273h73v-273q0 -17 -5 -87q91 100 189 179.5t191 130.5t185 83.5t174.5 38.5t156.5 -5t133.5 -46t102.5 -85t66.5 -122t23.5 -158v-14q0 -79 -21.5 -146.5t-65.5 -122t-118.5 -85.5t-171.5 -31h-170q-123 0 -214 7
t-186.5 27.5t-174.5 62.5t-144 107q-87 -196 -295 -204v-1h-2595zM3067 -551q193 -103 614 -103h170q305 0 305 171v14q0 174 -127 259q-130 87 -335 48q-251 -48 -497 -262q-67 -58 -130 -127z" />
    <glyph glyph-name="uni0605" unicode="&#x605;" horiz-adv-x="1911" 
d="M75 1382q50 102 96.5 172.5t100 119.5t109 63.5t121.5 -5t139 -76.5q150 -118 475.5 -128.5t700.5 99.5l21 -138q-255 -76 -489.5 -98t-430.5 16t-322 136q-69 54 -131.5 65t-118.5 -22t-106 -98.5t-101 -169.5z" />
    <glyph glyph-name="uni0606" unicode="&#x606;" horiz-adv-x="1835" 
d="M1064 978h-24v479h24v-150q6 0 25.5 -1t26.5 -1t23 2t22.5 7t17.5 14.5t15 24t8 36t4 50.5h24q0 -38 -6 -86q7 -24 22.5 -32.5t60.5 -8.5q42 0 53.5 24t11.5 103h24q0 -199 -89 -199q-41 0 -62.5 16t-33.5 48q-10 -26 -25 -41t-38 -21t-38 -7t-46 0v-257zM75 1329l60 77
l796 -1245l223 480q29 62 61.5 108.5t79 87t109 60.5t138.5 15l222 -11l-4 -142l-222 10q-226 13 -318 -188l-281 -603z" />
    <glyph glyph-name="uni0607" unicode="&#x607;" horiz-adv-x="1835" 
d="M1212 1367v-1h73v-50h-73q-62 0 -95.5 -22t-35.5 -61q2 -44 33.5 -64.5t108.5 -20.5h107v-77h-107q-163 0 -167 158v3v3q3 69 54 104q-57 37 -57 114v8q0 50 29.5 83t79.5 33h102v-51h-102q-84 0 -84 -65v-8q0 -39 31 -62.5t83 -23.5h20zM75 1329l60 77l796 -1245
l223 480q29 62 61.5 108.5t79 87t109 60.5t138.5 15l222 -11l-4 -142l-222 10q-226 13 -318 -188l-281 -603z" />
    <glyph glyph-name="uni0608" unicode="&#x608;" horiz-adv-x="1526" 
d="M531 473q-74 -76 -121.5 -199t-50.5 -271q4 -181 100.5 -278.5t308.5 -97.5q118 0 203.5 9.5t144.5 31t96 49.5t57 73.5t27 93.5t7 118v22h-296q-360 0 -330 395h1q13 146 114 241.5t215 95.5q65 0 126.5 -31.5t115.5 -93t88 -165.5t38 -236v-6h161q44 0 75.5 -31.5
t31.5 -75.5t-31.5 -75.5t-75.5 -31.5h-161v-8q0 -65 -5 -118.5t-16.5 -109.5t-33 -100.5t-53 -86.5t-78 -73t-106.5 -54t-139.5 -35t-175.5 -12q-222 0 -347 158.5t-133 415.5h-1v15q0 11 1 17q9 252 131 431h-347v72h405v-1l3 3zM747 377q-1 -97 54.5 -133t205.5 -36h296
q-1 106 -25.5 186.5t-66.5 127t-93.5 69t-110.5 22.5q-104 0 -181 -66.5t-77 -163.5v-6h-2z" />
    <glyph glyph-name="uni0609" unicode="&#x609;" horiz-adv-x="1494" 
d="M203 0h-98l818 1603h99zM67 1234l121 120l121 -120l-121 -122zM818 409l122 120l120 -120l-121 -121zM1186 406l121 121l121 -121l-121 -121z" />
    <glyph glyph-name="uni060A" unicode="&#x60a;" horiz-adv-x="1843" 
d="M203 0h-98l818 1603h99zM67 1234l121 120l121 -120l-121 -122zM818 409l122 120l120 -120l-121 -121zM1186 406l121 121l121 -121l-121 -121zM1535 406l121 120l121 -120l-121 -122z" />
    <glyph glyph-name="uni060B" unicode="&#x60b;" horiz-adv-x="887" 
d="M812 461q0 -228 -76 -339.5t-233 -111.5h-512q-44 0 -75.5 31.5t-31.5 75.5t31.5 75.5t75.5 31.5h512q137 0 184 40t52 158h-297q-164 0 -247 72t-82 242v9q0 3 0.5 10t0.5 11q12 139 110 228.5t222 89.5q70 0 135.5 -34.5t117 -97.5t82.5 -161t31 -216v-114zM186 750
q-4 -103 48.5 -138.5t207.5 -35.5h298q0 180 -82.5 278.5t-211.5 98.5q-106 0 -180.5 -57.5t-79.5 -145.5zM328 1392l121 120l120 -120l-121 -121zM388 -476v359h48v-359h-48z" />
    <glyph glyph-name="uni060C" unicode="&#x60c;" horiz-adv-x="418" 
d="M143 682h63l-50 -231q-10 -48 -15.5 -75.5t-7 -56t0.5 -42.5t14 -28t24.5 -18.5t41.5 -9t56.5 -5t76.5 -0.5v-154q-72 0 -120.5 10.5t-85.5 37.5t-52 74t-12.5 121t24.5 178z" />
    <glyph glyph-name="uni060D" unicode="&#x60d;" horiz-adv-x="417" 
d="M72 33q38 0 61 1.5t46.5 11.5t35.5 22.5t24 43t16.5 64t8.5 95t5 125.5t1 166h72q0 -295 -27.5 -456t-84 -224.5t-158.5 -63.5v215z" />
    <glyph glyph-name="uni060E" unicode="&#x60e;" horiz-adv-x="2320" 
d="M153 -174q-10 -90 15.5 -143t105.5 -81.5t226 -28.5q140 0 363 21q-64 304 -247 405q-126 70 -267 26q-108 -33 -163 -113q-29 -42 -33 -86zM184 -534q-137 217 -96 427q31 158 148 254q116 95 255 80q167 -18 287 -192q112 -162 160 -434q321 34 671.5 101t618.5 149
l22 -207q-411 -125 -922.5 -205t-827.5 -80q-209 0 -316 107z" />
    <glyph glyph-name="uni060F" unicode="&#x60f;" horiz-adv-x="1319" 
d="M1244 -1087l-69 -20l-145 530l69 20zM75 -29q0 61 13 123t44 128t78.5 123t121 107t166.5 81q-98 64 -139 160.5t-25 189.5q18 100 78 168t152 99.5t212.5 35.5t258.5 -24v-144q-182 35 -317.5 25t-217 -58.5t-95.5 -125.5q-6 -37 3.5 -73.5t40.5 -72.5t79.5 -63t127 -44
t177.5 -17v-5h9h375v-215h-375q-161 0 -287.5 -27t-202.5 -69t-124.5 -98t-65.5 -110t-15 -109q3 -61 37.5 -113t106 -95.5t182 -66t265.5 -25.5t357 26v-160q-268 -33 -461 -16t-317.5 82t-183.5 161.5t-58 221.5z" />
    <glyph glyph-name="uni0615" unicode="&#x615;" 
d="M441 1254q0 -52 -29.5 -87.5t-92.5 -35.5h-320v67h68v379h22v-347q74 116 179 144q83 22 135 -25q38 -33 38 -91v-4zM101 1198h218q99 0 99 56v4q0 61 -56 83q-64 25 -144 -21q-69 -40 -117 -122z" />
    <glyph glyph-name="uni061B" unicode="&#x61b;" horiz-adv-x="438" 
d="M143 742h63l-50 -231q-8 -38 -13 -61.5t-7.5 -49t-3.5 -40t4.5 -29.5t10.5 -22t20 -14.5t28 -10t39.5 -5t49.5 -2.5h63v-154q-72 0 -120.5 10.5t-85.5 37.5t-52 74t-12.5 121t24.5 178zM144 -10l97 97l97 -97l-97 -96z" />
    <glyph glyph-name="uni061C" unicode="&#x61c;" horiz-adv-x="579" 
 />
    <glyph glyph-name="uni061E" unicode="&#x61e;" horiz-adv-x="811" 
d="M406 486q-33 0 -56 23t-23 56q0 32 23 55.5t56 23.5q32 0 55.5 -23.5t23.5 -55.5q0 -33 -23.5 -56t-55.5 -23zM67 188q0 32 23.5 55t56.5 23q32 0 55 -23t23 -55q0 -33 -23 -56.5t-55 -23.5q-33 0 -56.5 23.5t-23.5 56.5zM587 188q0 32 23 55t56 23q32 0 55.5 -23
t23.5 -55q0 -33 -23.5 -56.5t-55.5 -23.5q-33 0 -56 23.5t-23 56.5z" />
    <glyph glyph-name="uni061F" unicode="&#x61f;" horiz-adv-x="1001" 
d="M75 785v6q0 170 102 283.5t261 113.5h492v-144h-492q-137 0 -214 -69.5t-77 -183.5v-6q2 -93 76.5 -152.5t214.5 -59.5h291v-557h-72v343h-219q-153 0 -257 119t-106 307zM557 -158l121 120l121 -120l-122 -121z" />
    <glyph glyph-name="uni0621" unicode="&#x621;" horiz-adv-x="1030" 
d="M810 603q-237 77 -378 7q-87 -43 -102 -125q-14 -80 49 -143q53 -52 144 -68h435v-185h-886v185h239q-53 87 -47 192t70 187t188.5 114t310.5 -28z" />
    <glyph glyph-name="uni0622" unicode="&#x622;" horiz-adv-x="456" 
d="M265 0h-72v1436h72v-1436zM-106 1694v74q75 32 146 36t127 -8t113 -23.5t129.5 -3.5t151.5 46v-74q-68 -31 -131.5 -41.5t-110.5 -3.5t-99.5 16.5t-97.5 17.5t-105 0t-123 -36z" />
    <glyph glyph-name="uni0623" unicode="&#x623;" horiz-adv-x="456" 
d="M265 0h-72v1436h72v-1436zM34 1606v91h100q-23 42 -21 92t28.5 89.5t79 56.5t131.5 -6v-74q-119 41 -177 -10q-38 -34 -24 -83q14 -46 66 -65h212v-91h-395z" />
    <glyph glyph-name="uni0624" unicode="&#x624;" horiz-adv-x="875" 
d="M174 394q-1 -95 72.5 -132.5t241.5 -37.5h240v33q0 198 -77 287t-223 89q-116 0 -182 -68t-72 -171zM87 -483v164h169q94 0 168.5 14.5t140.5 50t107 102t52 162.5h-236q-191 0 -287.5 88t-98.5 274q0 106 40 199.5t115.5 152t170.5 58.5q161 0 266.5 -132.5
t105.5 -392.5v-172q0 -136 -32.5 -239.5t-84.5 -164.5t-126 -99t-145.5 -51.5t-155.5 -13.5h-169zM243 949v91h99q-23 42 -21 92t29 89.5t79.5 56.5t131.5 -6v-74q-119 41 -177 -10q-38 -34 -24 -83q14 -46 66 -65h212v-91h-395z" />
    <glyph glyph-name="uni0625" unicode="&#x625;" horiz-adv-x="456" 
d="M265 0h-72v1436h72v-1436zM27 -432v92h99q-23 42 -21 92t29 89.5t79.5 56.5t131.5 -6v-74q-119 41 -177 -10q-38 -34 -24 -83q14 -46 66 -65h212v-92h-395z" />
    <glyph glyph-name="uni0626" unicode="&#x626;" horiz-adv-x="1410" 
d="M308 839q-154 -184 -161 -446q10 -372 418 -372h214q111 0 197 15.5t135.5 39.5t81 57t42.5 63t11 62t-12 57.5t-36 43.5t-54.5 30.5t-76 21.5t-92.5 14t-110 9q-133 8 -209.5 82t-79.5 189v23q0 111 82.5 185t214.5 74h446v-113h-446q-109 0 -167 -41.5t-58 -104.5v-13
q0 -58 54.5 -94.5t167.5 -43.5q57 -4 100 -8.5t92 -15t84 -25t69.5 -38.5t55.5 -55.5t34 -77t13 -101.5h-1q0 -49 -10.5 -97t-33 -100t-64 -96t-98.5 -79.5t-142.5 -56t-189.5 -20.5h-214q-219 0 -349.5 149.5t-139.5 415.5h-1v19q0 13 1 20q11 273 176 474zM188 1081v92h99
q-23 42 -21 92t28.5 89.5t79 56.5t131.5 -6v-74q-119 41 -177 -10q-38 -34 -24 -83q14 -46 66 -65h212v-92h-394z" />
    <glyph glyph-name="uni0627" unicode="&#x627;" horiz-adv-x="456" 
d="M265 0h-72v1436h72v-1436z" />
    <glyph glyph-name="uni0628" unicode="&#x628;" horiz-adv-x="1599" 
d="M235 768q-85 -149 -88 -313q1 -60 21.5 -102t53 -67t87.5 -39t111.5 -18.5t138.5 -4.5h620q144 0 208.5 52t64.5 151v407h73v-407q0 -187 -92.5 -302t-253.5 -115h-620q-58 0 -103 3t-97 14t-90.5 29.5t-76 51t-61.5 77.5t-39.5 110.5t-16.5 148.5v8v11q6 178 98 341z
M704 -260l121 121l120 -121l-121 -121z" />
    <glyph glyph-name="uni0629" unicode="&#x629;" horiz-adv-x="829" 
d="M297 1232l121 -120l-121 -122l-121 122zM75 377v17q0 11 1 17q7 210 95.5 324.5t237.5 114.5q87 0 154.5 -36.5t107 -99t60.5 -137.5t23 -161v-10v-9q-1 -61 -8 -109.5t-28.5 -102.5t-58 -90.5t-100.5 -60.5t-150 -24q-78 0 -137.5 21.5t-95 56t-58 84.5t-31.5 98.5
t-11 106.5h-1zM147 393q1 -39 6 -63t20 -46.5t43.5 -34t75.5 -18.5t117 -7q75 0 124.5 7.5t79.5 19.5t45 36.5t19.5 49.5t4.5 68q-1 68 -14.5 120t-43.5 94.5t-84 65t-131 22.5q-133 0 -196 -75t-66 -239zM433 1111l122 120l120 -120l-121 -121z" />
    <glyph glyph-name="uni062A" unicode="&#x62a;" horiz-adv-x="1599" 
d="M235 768q-85 -149 -88 -313q1 -60 21.5 -102t53 -67t87.5 -39t111.5 -18.5t138.5 -4.5h620q144 0 208.5 52t64.5 151v407h73v-407q0 -187 -92.5 -302t-253.5 -115h-620q-58 0 -103 3t-97 14t-90.5 29.5t-76 51t-61.5 77.5t-39.5 110.5t-16.5 148.5v8v11q6 178 98 341z
M586 1017l121 120l120 -120l-121 -122zM843 1016l121 120l121 -120l-122 -121z" />
    <glyph glyph-name="uni062B" unicode="&#x62b;" horiz-adv-x="1599" 
d="M235 768q-85 -149 -88 -313q1 -60 21.5 -102t53 -67t87.5 -39t111.5 -18.5t138.5 -4.5h620q144 0 208.5 52t64.5 151v407h73v-407q0 -187 -92.5 -302t-253.5 -115h-620q-58 0 -103 3t-97 14t-90.5 29.5t-76 51t-61.5 77.5t-39.5 110.5t-16.5 148.5v8v11q6 178 98 341z
M589 1031l121 121l121 -121l-122 -121zM718 1250l121 121l120 -121l-121 -121zM846 1031l122 120l121 -120l-122 -122z" />
    <glyph glyph-name="uni062C" unicode="&#x62c;" horiz-adv-x="1324" 
d="M1253 823v-213l-318 -72q-219 -50 -375 -111.5t-246.5 -133t-130 -148.5t-36.5 -167q4 -69 37.5 -128t103.5 -110.5t179 -79.5t265.5 -35t362.5 24v-143q-215 -31 -381 -19t-284.5 50.5t-196 107t-115.5 150.5t-43 181q-8 285 203 479.5t640 292.5l113 25
q-70 33 -201 119t-174 112q-67 40 -132.5 54.5t-132 2.5t-126 -36.5t-132.5 -67.5v127q79 44 140.5 67t131.5 32.5t141 -9t148 -65.5q54 -32 141 -90t135 -87.5t125 -58.5t157 -37l-1 -13h2zM691 -15l122 121l120 -121l-121 -121z" />
    <glyph glyph-name="uni062D" unicode="&#x62d;" horiz-adv-x="1324" 
d="M1253 823v-213l-318 -72q-219 -50 -375 -111.5t-246.5 -133t-130 -148.5t-36.5 -167q4 -69 37.5 -128t103.5 -110.5t179 -79.5t265.5 -35t362.5 24v-143q-215 -31 -381 -19t-284.5 50.5t-196 107t-115.5 150.5t-43 181q-8 285 203 479.5t640 292.5l113 25
q-70 33 -201 119t-174 112q-67 40 -132.5 54.5t-132 2.5t-126 -36.5t-132.5 -67.5v127q79 44 140.5 67t131.5 32.5t141 -9t148 -65.5q54 -32 141 -90t135 -87.5t125 -58.5t157 -37l-1 -13h2z" />
    <glyph glyph-name="uni062E" unicode="&#x62e;" horiz-adv-x="1324" 
d="M1253 823v-213l-318 -72q-219 -50 -375 -111.5t-246.5 -133t-130 -148.5t-36.5 -167q4 -69 37.5 -128t103.5 -110.5t179 -79.5t265.5 -35t362.5 24v-143q-215 -31 -381 -19t-284.5 50.5t-196 107t-115.5 150.5t-43 181q-8 285 203 479.5t640 292.5l113 25
q-70 33 -201 119t-174 112q-67 40 -132.5 54.5t-132 2.5t-126 -36.5t-132.5 -67.5v127q79 44 140.5 67t131.5 32.5t141 -9t148 -65.5q54 -32 141 -90t135 -87.5t125 -58.5t157 -37l-1 -13h2zM330 1482l121 120l121 -120l-121 -121z" />
    <glyph glyph-name="uni062F" unicode="&#x62f;" horiz-adv-x="862" 
d="M815 410q-5 -400 -384 -400h-387v214h387q117 0 186 21t97 60.5t29 104.5v7q0 317 -519 259v143q591 63 591 -402v-7z" />
    <glyph glyph-name="uni0630" unicode="&#x630;" horiz-adv-x="862" 
d="M815 410q-5 -400 -384 -400h-387v214h387q117 0 186 21t97 60.5t29 104.5v7q0 317 -519 259v143q591 63 591 -402v-7zM269 1167l121 120l120 -120l-121 -122z" />
    <glyph glyph-name="uni0631" unicode="&#x631;" horiz-adv-x="561" 
d="M0 -318q58 0 104 3.5t84.5 12.5t68.5 20t53 30.5t39.5 40t28 51.5t18.5 61.5t11 75t5.5 86.5t1.5 101v589h72v-589q0 -93 -4.5 -165t-18 -146t-35.5 -127.5t-59 -101.5t-87.5 -78t-121.5 -47t-160 -17v200z" />
    <glyph glyph-name="uni0632" unicode="&#x632;" horiz-adv-x="625" 
d="M0 -318q58 0 104 3.5t84.5 12.5t68.5 20t53 30.5t39.5 40t28 51.5t18.5 61.5t11 75t5.5 86.5t1.5 101v589h72v-589q0 -93 -4.5 -165t-18 -146t-35.5 -127.5t-59 -101.5t-87.5 -78t-121.5 -47t-160 -17v200zM328 1065l122 120l120 -120l-121 -121z" />
    <glyph glyph-name="uni0633" unicode="&#x633;" horiz-adv-x="2240" 
d="M319 670q-74 -77 -121.5 -200t-50.5 -270q4 -182 100.5 -279t308.5 -97q438 0 438 376v553h72v-428q26 -50 80 -81.5t116 -34.5t120.5 14.5t100.5 68.5t48 125l21 234h74l-23 -254q-3 -43 -12 -82q102 -91 227 -91h39q119 0 177.5 46.5t58.5 129.5v399h72v-399
q0 -174 -87 -282t-221 -108h-39q-71 0 -135 36t-147 123q-55 -95 -138 -135.5t-173 -15.5t-161 115q-8 -124 -44.5 -219t-87 -151.5t-118 -92.5t-129.5 -48.5t-129 -12.5q-149 0 -257 75t-163 203t-60 296h-1v15q0 11 1 17q5 155 58.5 289t134.5 217z" />
    <glyph glyph-name="uni0634" unicode="&#x634;" horiz-adv-x="2240" 
d="M319 670q-74 -77 -121.5 -200t-50.5 -270q4 -182 100.5 -279t308.5 -97q438 0 438 376v553h72v-428q26 -50 80 -81.5t116 -34.5t120.5 14.5t100.5 68.5t48 125l21 234h74l-23 -254q-3 -43 -12 -82q102 -91 227 -91h39q119 0 177.5 46.5t58.5 129.5v399h72v-399
q0 -174 -87 -282t-221 -108h-39q-71 0 -135 36t-147 123q-55 -95 -138 -135.5t-173 -15.5t-161 115q-8 -124 -44.5 -219t-87 -151.5t-118 -92.5t-129.5 -48.5t-129 -12.5q-149 0 -257 75t-163 203t-60 296h-1v15q0 11 1 17q5 155 58.5 289t134.5 217zM1358 1031l121 121
l121 -121l-121 -121zM1487 1250l121 121l121 -121l-122 -121zM1615 1031l123 120l120 -120l-121 -122z" />
    <glyph glyph-name="uni0635" unicode="&#x635;" horiz-adv-x="2347" 
d="M2272 389q0 -168 -83.5 -273.5t-229.5 -105.5h-233q-221 0 -378 47t-282 148v-5q0 -140 -33 -248t-84.5 -171t-121.5 -103.5t-135.5 -54.5t-135.5 -14q-149 0 -257 75t-163 203t-60 296h-1v15q0 11 1 17q5 155 58.5 289t134.5 217l50 -51q-74 -77 -121.5 -200t-50.5 -270
q4 -182 100.5 -279t308.5 -97q438 0 438 376v553h72v-347q116 127 242 219t241.5 138t225 61t199 -10t157 -77t104.5 -139t37 -196v-13zM1138 351q218 -127 588 -127h233q131 0 186 43t55 122v13q0 120 -61.5 202.5t-170 107.5t-241 2t-289 -117t-300.5 -246z" />
    <glyph glyph-name="uni0636" unicode="&#x636;" horiz-adv-x="2347" 
d="M2272 389q0 -168 -83.5 -273.5t-229.5 -105.5h-233q-221 0 -378 47t-282 148v-5q0 -140 -33 -248t-84.5 -171t-121.5 -103.5t-135.5 -54.5t-135.5 -14q-149 0 -257 75t-163 203t-60 296h-1v15q0 11 1 17q5 155 58.5 289t134.5 217l50 -51q-74 -77 -121.5 -200t-50.5 -270
q4 -182 100.5 -279t308.5 -97q438 0 438 376v553h72v-347q116 127 242 219t241.5 138t225 61t199 -10t157 -77t104.5 -139t37 -196v-13zM1138 351q218 -127 588 -127h233q131 0 186 43t55 122v13q0 120 -61.5 202.5t-170 107.5t-241 2t-289 -117t-300.5 -246zM1248 1109
l122 121l120 -121l-121 -121z" />
    <glyph glyph-name="uni0637" unicode="&#x637;" horiz-adv-x="1558" 
d="M1484 404q0 -61 -12 -116t-41 -106.5t-72.5 -89t-110.5 -60t-151 -22.5h-1025v214h216v1212h72v-1109q181 285 432 408q208 102 394 62q163 -34 242 -165q56 -92 56 -215v-13zM394 224h703q74 0 130 9.5t90.5 25.5t56 39.5t29.5 49t8 56.5v13q0 151 -115 231
q-116 81 -291 53q-212 -33 -401 -210q-118 -111 -210 -267z" />
    <glyph glyph-name="uni0638" unicode="&#x638;" horiz-adv-x="1558" 
d="M1484 404q0 -61 -12 -116t-41 -106.5t-72.5 -89t-110.5 -60t-151 -22.5h-1025v214h216v1212h72v-1109q181 285 432 408q208 102 394 62q163 -34 242 -165q56 -92 56 -215v-13zM394 224h703q74 0 130 9.5t90.5 25.5t56 39.5t29.5 49t8 56.5v13q0 151 -115 231
q-116 81 -291 53q-212 -33 -401 -210q-118 -111 -210 -267zM667 1196l121 120l120 -120l-121 -121z" />
    <glyph glyph-name="uni0639" unicode="&#x639;" horiz-adv-x="1289" 
d="M1095 -478q-268 -33 -461 -16t-317.5 82t-183.5 161.5t-58 221.5q0 61 13 123t44 128t78.5 123t121 107t166.5 81q-98 64 -139 160.5t-25 189.5q18 100 78 168t152 99.5t212.5 35.5t258.5 -24v-144q-182 35 -317.5 25t-217 -58.5t-95.5 -125.5q-6 -37 3.5 -73.5
t40.5 -72.5t79.5 -63t127 -44t177.5 -17v-5h9h375v-215h-375q-161 0 -287.5 -27t-202.5 -69t-124.5 -98t-65.5 -110t-15 -109q3 -61 37.5 -113t106 -95.5t182 -66t265.5 -25.5t357 26v-160z" />
    <glyph glyph-name="uni063A" unicode="&#x63a;" horiz-adv-x="1289" 
d="M1095 -478q-268 -33 -461 -16t-317.5 82t-183.5 161.5t-58 221.5q0 61 13 123t44 128t78.5 123t121 107t166.5 81q-98 64 -139 160.5t-25 189.5q18 100 78 168t152 99.5t212.5 35.5t258.5 -24v-144q-182 35 -317.5 25t-217 -58.5t-95.5 -125.5q-6 -37 3.5 -73.5
t40.5 -72.5t79.5 -63t127 -44t177.5 -17v-5h9h375v-215h-375q-161 0 -287.5 -27t-202.5 -69t-124.5 -98t-65.5 -110t-15 -109q3 -61 37.5 -113t106 -95.5t182 -66t265.5 -25.5t357 26v-160zM621 1532l121 120l121 -120l-122 -121z" />
    <glyph glyph-name="uni0640" unicode="&#x640;" horiz-adv-x="440" 
d="M450 224q44 0 75.5 -31.5t31.5 -75.5t-31.5 -75.5t-75.5 -31.5h-459q-44 0 -75.5 31.5t-31.5 75.5t31.5 75.5t75.5 31.5h459z" />
    <glyph glyph-name="uni0641" unicode="&#x641;" horiz-adv-x="1918" 
d="M235 768q-85 -149 -88 -313q1 -60 21.5 -102t53 -67t87.5 -39t111.5 -18.5t138.5 -4.5h843q196 0 278 44.5t90 153.5h-296q-163 0 -246 69t-84 236q0 23 2 35q8 92 58 166.5t122.5 115t150.5 40.5q71 0 136 -34t116.5 -96.5t82.5 -161t31 -217.5v-124q0 -236 -112 -338.5
t-329 -102.5h-843q-58 0 -103 3t-97 14t-90.5 29.5t-76 51t-61.5 77.5t-39.5 110.5t-16.5 148.5v8v11q6 178 98 341zM1217 736q-1 -96 51.5 -128t205.5 -32h297q0 182 -82 279.5t-212 97.5q-106 0 -180.5 -62.5t-79.5 -154.5zM1356 1389l121 121l120 -121l-121 -121z" />
    <glyph glyph-name="uni0642" unicode="&#x642;" horiz-adv-x="1183" 
d="M1136 117q0 -74 -6 -134.5t-23 -123t-45.5 -110.5t-75 -90.5t-109.5 -70.5t-151 -44t-198 -16q-222 0 -347 158.5t-133 415.5v16v16q5 155 58.5 289t134.5 217l51 -51q-74 -76 -121.5 -199t-50.5 -271q4 -181 100 -278.5t308 -97.5q141 0 237 15t155 41.5t91 75t42.5 103
t10.5 139.5v22h-296q-361 0 -331 396h2q13 146 114 241.5t215 95.5q65 0 126.5 -31.5t115.5 -93t88 -165.5t38 -236v-229zM508 492q-1 -97 54.5 -132.5t205.5 -35.5h296q-1 106 -25.5 186.5t-66.5 126.5t-93.5 68.5t-110.5 22.5q-104 0 -181 -66.5t-77 -163.5v-6h-2z
M528 1149l122 121l120 -121l-121 -121zM786 1149l121 120l120 -120l-121 -122z" />
    <glyph glyph-name="uni0643" unicode="&#x643;" horiz-adv-x="1599" 
d="M75 732h72v-243q0 -56 4 -91.5t17 -68t35.5 -50.5t62.5 -31.5t95 -18.5t135 -5h675q281 0 281 208v1020h73v-1020q0 -189 -94.5 -305.5t-259.5 -116.5h-675q-103 0 -178.5 23.5t-121.5 63.5t-73.5 103t-37.5 131t-10 158v243zM637 889l323 108v-74l-248 -82l178 -40
q64 -15 93 -44t30 -75q2 -46 -31 -80t-96 -38l-232 -15v72l231 15q48 3 69.5 15.5t20.5 29.5q-1 16 -20.5 27t-73.5 23l-240 52z" />
    <glyph glyph-name="uni0644" unicode="&#x644;" horiz-adv-x="1141" 
d="M319 680q-74 -77 -121.5 -200t-50.5 -270q8 -386 409 -386q438 0 438 376v1252h72v-1252q0 -140 -33 -248t-84.5 -171t-121.5 -103.5t-135.5 -54.5t-135.5 -14q-113 0 -204 46t-149.5 126t-90.5 185t-36 227h-1v15q0 11 1 17q5 155 58.5 289t134.5 217z" />
    <glyph glyph-name="uni0645" unicode="&#x645;" horiz-adv-x="1263" 
d="M1188 401v-4v-2q-1 -113 -41.5 -206.5t-124.5 -153t-198 -59.5q-116 0 -206.5 39t-182.5 143l-52 -14q-66 -17 -109 -38t-69 -44.5t-38.5 -61t-16 -73.5t-3.5 -96v-428h-72v428q0 75 7 137t28 128.5t55.5 115.5t94.5 88t141 56l45 12q6 18 15 54t20.5 70.5t28.5 68.5
q49 95 120 150t144.5 65.5t148 -11.5t132.5 -72t95 -126.5t38 -165.5zM502 287q116 -96 322 -96q155 0 223 56.5t69 149.5q-1 62 -33 115t-82.5 86t-113.5 45.5t-123.5 1.5t-115 -55.5t-86.5 -116.5q-13 -31 -35 -104.5t-25 -81.5z" />
    <glyph glyph-name="uni0646" unicode="&#x646;" horiz-adv-x="1141" 
d="M319 670q-74 -77 -121.5 -200t-50.5 -270q4 -182 100.5 -279t308.5 -97q438 0 438 376v553h72v-553q0 -140 -33 -248t-84.5 -171t-121.5 -103.5t-135.5 -54.5t-135.5 -14q-149 0 -257 75t-163 203t-60 296h-1v15q0 11 1 17q5 155 58.5 289t134.5 217zM518 1001l121 120
l120 -120l-121 -121z" />
    <glyph glyph-name="uni0647" unicode="&#x647;" horiz-adv-x="829" 
d="M75 377v17q0 11 1 17q7 210 95.5 324.5t237.5 114.5q87 0 154.5 -36.5t107 -99t60.5 -137.5t23 -161v-10v-9q-1 -61 -8 -109.5t-28.5 -102.5t-58 -90.5t-100.5 -60.5t-150 -24q-78 0 -137.5 21.5t-95 56t-58 84.5t-31.5 98.5t-11 106.5h-1zM147 393q1 -39 6 -63t20 -46.5
t43.5 -34t75.5 -18.5t117 -7q75 0 124.5 7.5t79.5 19.5t45 36.5t19.5 49.5t4.5 68q-1 68 -14.5 120t-43.5 94.5t-84 65t-131 22.5q-133 0 -196 -75t-66 -239z" />
    <glyph glyph-name="uni0648" unicode="&#x648;" horiz-adv-x="875" 
d="M174 394q-1 -95 72.5 -132.5t241.5 -37.5h240v33q0 198 -77 287t-223 89q-116 0 -182 -68t-72 -171zM87 -483v164h169q94 0 168.5 14.5t140.5 50t107 102t52 162.5h-236q-191 0 -287.5 88t-98.5 274q0 106 40 199.5t115.5 152t170.5 58.5q161 0 266.5 -132.5
t105.5 -392.5v-172q0 -136 -32.5 -239.5t-84.5 -164.5t-126 -99t-145.5 -51.5t-155.5 -13.5h-169z" />
    <glyph glyph-name="uni0649" unicode="&#x649;" horiz-adv-x="1410" 
d="M308 839q-154 -184 -161 -446q10 -372 418 -372h214q111 0 197 15.5t135.5 39.5t81 57t42.5 63t11 62t-12 57.5t-36 43.5t-54.5 30.5t-76 21.5t-92.5 14t-110 9q-133 8 -209.5 82t-79.5 189v23q0 111 82.5 185t214.5 74h446v-113h-446q-109 0 -167 -41.5t-58 -104.5v-13
q0 -58 54.5 -94.5t167.5 -43.5q57 -4 100 -8.5t92 -15t84 -25t69.5 -38.5t55.5 -55.5t34 -77t13 -101.5h-1q0 -49 -10.5 -97t-33 -100t-64 -96t-98.5 -79.5t-142.5 -56t-189.5 -20.5h-214q-219 0 -349.5 149.5t-139.5 415.5h-1v19q0 13 1 20q11 273 176 474z" />
    <glyph glyph-name="uni064A" unicode="&#x64a;" horiz-adv-x="1410" 
d="M308 839q-154 -184 -161 -446q10 -372 418 -372h214q111 0 197 15.5t135.5 39.5t81 57t42.5 63t11 62t-12 57.5t-36 43.5t-54.5 30.5t-76 21.5t-92.5 14t-110 9q-133 8 -209.5 82t-79.5 189v23q0 111 82.5 185t214.5 74h446v-113h-446q-109 0 -167 -41.5t-58 -104.5v-13
q0 -58 54.5 -94.5t167.5 -43.5q57 -4 100 -8.5t92 -15t84 -25t69.5 -38.5t55.5 -55.5t34 -77t13 -101.5h-1q0 -49 -10.5 -97t-33 -100t-64 -96t-98.5 -79.5t-142.5 -56t-189.5 -20.5h-214q-219 0 -349.5 149.5t-139.5 415.5h-1v19q0 13 1 20q11 273 176 474zM505 -432
l122 121l120 -121l-121 -121zM763 -433l121 121l120 -121l-121 -121z" />
    <glyph glyph-name="uni064B" unicode="&#x64b;" 
d="M8 650l-8 41l436 86l8 -41zM0 572l436 87l8 -41l-436 -87z" />
    <glyph glyph-name="uni064C" unicode="&#x64c;" 
d="M2 822q132 60 176 82q-33 28 -43.5 70t0 78.5t43.5 60t80 17.5q37 -5 63.5 -41t26.5 -80t-33 -84q-48 -50 -298 -162zM238 936q37 21 49 33q31 32 19 62.5t-53 35.5q-51 6 -75.5 -18.5t-8.5 -59.5t69 -53zM262 814q110 50 176 83q-44 38 -49 95.5t31 98t99 32.5
q37 -5 63.5 -41t26.5 -80t-33 -84q-48 -50 -298 -162zM499 929q35 19 48 33q31 32 19.5 62t-52.5 35q-51 6 -75.5 -18.5t-8.5 -59t69 -52.5z" />
    <glyph glyph-name="uni064D" unicode="&#x64d;" 
d="M8 -139l-8 41l436 87l8 -41zM0 -217l436 87l8 -41l-436 -87z" />
    <glyph glyph-name="uni064E" unicode="&#x64e;" 
d="M8 600l-8 41l436 86l8 -41z" />
    <glyph glyph-name="uni064F" unicode="&#x64f;" 
d="M2 854q94 41 182 86q-45 40 -50.5 99.5t32 101t102.5 33.5q38 -5 65.5 -42.5t28 -83t-33.5 -87.5q-23 -24 -87 -59.5t-101.5 -53t-121.5 -55.5zM248 973q38 21 50 34q31 34 19.5 65t-54.5 36q-32 4 -55.5 -5t-31.5 -25.5t-5 -35.5t23.5 -38.5t53.5 -30.5z" />
    <glyph glyph-name="uni0650" unicode="&#x650;" 
d="M8 -206l-8 41l436 86l8 -41z" />
    <glyph glyph-name="uni0651" unicode="&#x651;" 
d="M32 1221q0 -11 -0.5 -34.5t0 -31t2 -22.5t6.5 -20t14 -12t23 -9t34 -2h23t17 2.5t13 4.5t8.5 11t6 16t2 25.5t1.5 33.5v47h29q0 -88 -5 -128q83 -24 115 -9.5t32 77.5v67h30v-67q0 -121 -49 -150t-156 9q-21 -21 -67 -21q-23 0 -41.5 6.5t-30 16t-19.5 26t-12 30
t-5.5 35.5t-1.5 34.5t0.5 34.5t0.5 30h30z" />
    <glyph glyph-name="uni0652" unicode="&#x652;" 
d="M230 1421v-4v-4q-2 -54 -30 -87t-84 -33q-54 0 -83 33t-31 88v3v4q2 50 28.5 85.5t80.5 35.5q61 0 89 -35t30 -86zM30 1418q1 -24 19.5 -36t66.5 -12q50 0 67.5 11t18.5 36q-1 35 -20.5 54.5t-70.5 19.5q-79 0 -81 -73z" />
    <glyph glyph-name="uni0653" unicode="&#x653;" 
d="M2 1288q75 32 146 36t127 -8.5t113 -23.5t129.5 -3.5t151.5 45.5v-73q-68 -31 -131.5 -41.5t-110.5 -3.5t-99.5 16.5t-97.5 17.5t-105 0t-123 -36v74z" />
    <glyph glyph-name="uni0654" unicode="&#x654;" 
d="M0 1562v92h99q-23 42 -21 92t29 89.5t79.5 56.5t131.5 -6v-74q-119 41 -177 -10q-38 -34 -24 -83q14 -46 66 -65h212v-92h-395z" />
    <glyph glyph-name="uni0655" unicode="&#x655;" 
d="M0 -332v92h99q-23 42 -21 92t29 89.5t79.5 56.5t131.5 -6v-74q-119 41 -177 -10q-38 -34 -24 -83q14 -46 66 -65h212v-92h-395z" />
    <glyph glyph-name="uni0656" unicode="&#x656;" 
d="M70 -121v-359h-48v359h48z" />
    <glyph glyph-name="uni0657" unicode="&#x657;" 
d="M361 922q-94 -41 -182 -86q45 -40 50.5 -99.5t-32 -101.5t-102.5 -34q-38 5 -65.5 42.5t-28 83t33.5 87.5q23 24 87 59.5t101.5 53t121.5 55.5zM65 768q-31 -34 -19.5 -65t54.5 -36q32 -4 55.5 5t31.5 25.5t5 35.5t-23.5 38.5t-53.5 30.5q-38 -21 -50 -34z" />
    <glyph glyph-name="uni0658" unicode="&#x658;" 
d="M125 1363q-40 -38 -63.5 -102t-25.5 -132q4 -192 197 -192q214 0 214 190v271h35v-271q0 -67 -15.5 -118.5t-40 -81.5t-59 -49.5t-66.5 -26t-68 -6.5q-77 0 -130 40.5t-76 101t-25 135.5v7v6q2 75 28.5 145.5t69.5 112.5z" />
    <glyph glyph-name="uni0659" unicode="&#x659;" 
d="M0 628v82h643v-82h-643z" />
    <glyph glyph-name="uni065A" unicode="&#x65a;" 
d="M470 1621l46 -33l-229 -317h-57l-228 317l46 33l211 -292z" />
    <glyph glyph-name="uni065B" unicode="&#x65b;" 
d="M470 981l-211 292l-211 -292l-46 32l228 317h57l229 -317z" />
    </font>
</defs>
</svg>
