<?xml version="1.0" standalone="no"?>
<!DOCTYPE svg PUBLIC "-//W3C//DTD SVG 1.1//EN" "http://www.w3.org/Graphics/SVG/1.1/DTD/svg11.dtd" >
<svg xmlns="http://www.w3.org/2000/svg" xmlns:xlink="http://www.w3.org/1999/xlink" version="1.1">
<metadata>
Created by FontForge 20170731 at Sat Aug  5 00:30:53 2023
 By Aleksey,,,
Atype Studio
</metadata>
<defs>
<font id="GHAITHSANS-Bold" horiz-adv-x="0" >
  <font-face 
    font-family="GHAITHSANS Bold"
    font-weight="700"
    font-stretch="normal"
    units-per-em="2048"
    panose-1="0 0 0 0 0 0 0 0 0 0"
    ascent="1638"
    descent="-410"
    x-height="1046"
    cap-height="1536"
    bbox="-314 -1024 6610 2481.22"
    underline-thickness="102"
    underline-position="-357"
    unicode-range="U+0020-FF5D"
  />
<missing-glyph horiz-adv-x="1025" 
d="M65 1562h897v-1546h-897v1546zM327 372h373v834h-373v-834z" />
    <glyph glyph-name="fi" unicode="fi" horiz-adv-x="1325" 
d="M828 1520v-381h-185q-118 0 -176 -14.5t-76.5 -44t-18.5 -90.5v-161h804v-829h-127v575h-677v-572h-127v572h-189v254h189v161q0 109 20 199.5t64 167t124 120t190 43.5h185zM903 1112l183 183l184 -183l-184 -184z" />
    <glyph glyph-name="fl" unicode="fl" horiz-adv-x="1575" 
d="M828 1570v-381h-185q-118 0 -176 -14.5t-76.5 -44t-18.5 -90.5v-131h641v627h127l-1 -800q0 -95 0.5 -143.5t14.5 -93.5t24 -60t51.5 -27.5t74 -13t114.5 -0.5h5h5h5.5h5.5h81v-381h-81q-81 0 -141.5 16t-114.5 58t-88.5 113t-56 184t-25.5 267h-641v-652h-127v652h-189
v254h189v131q0 109 20 199.5t64 167t124 120t190 43.5h185z" />
    <glyph glyph-name="uni0622.fina" unicode="&#x622;" horiz-adv-x="476" arabic-form="final" 
d="M486 398q79 0 135 -56t56 -135t-56 -134.5t-135 -55.5h-31q-182 0 -263 139t-81 430v950h127v-950q0 -112 10 -140q13 -35 63 -43q32 -5 144 -5h31zM-165 1728v123q75 32 144.5 36t126 -8.5t113.5 -23.5t130 -3t152 46v-123q-80 -37 -153.5 -44t-130 5t-112.5 24
t-125.5 7t-144.5 -39z" />
    <glyph glyph-name="uni0623.fina" unicode="&#x623;" horiz-adv-x="476" arabic-form="final" 
d="M486 398q79 0 135 -56t56 -135t-56 -134.5t-135 -55.5h-31q-182 0 -263 139t-81 430v950h127v-950q0 -112 10 -140q13 -35 63 -43q32 -5 144 -5h31zM-31 1701v149h97q-13 47 -4.5 95t37 85t78.5 52.5t121 -2.5v-113q-109 35 -160 -8q-35 -28 -19 -68q12 -26 39 -41h220
v-149h-409z" />
    <glyph glyph-name="uni0624.fina" unicode="&#x624;" horiz-adv-x="890" arabic-form="final" 
d="M85 -484v287h169q185 0 288 47.5t138 166.5h-228q-90 0 -159.5 27t-112 72.5t-68.5 110t-34 134t-4 150.5h1q13 166 116.5 284t231.5 118q58 0 111 -16t103.5 -54.5t89 -96.5t64.5 -147t33 -201h75q79 0 135 -56t56 -135t-56 -134.5t-135 -55.5h-82q-18 -140 -71 -240.5
t-131.5 -156t-167 -80t-193.5 -24.5h-169zM200 470q1 -24 10.5 -37.5t39 -21.5t74.5 -10.5t128 -2.5h244q-14 148 -82 203.5t-191 55.5q-103 0 -163 -55t-60 -132zM224 1089v149h98q-13 47 -4.5 95t37 85t78.5 52.5t121 -2.5v-113q-109 35 -160 -8q-35 -28 -19 -68
q12 -26 39 -41h219v-149h-409z" />
    <glyph glyph-name="uni0625.fina" unicode="&#x625;" horiz-adv-x="476" arabic-form="final" 
d="M486 398q79 0 135 -56t56 -135t-56 -134.5t-135 -55.5h-31q-182 0 -263 139t-81 430v950h127v-950q0 -112 10 -140q13 -35 63 -43q32 -5 144 -5h31zM19 -475v149h97q-13 47 -4.5 95t37 85t78.5 52.5t121 -2.5v-113q-109 35 -160 -8q-35 -28 -19 -68q12 -26 39 -41h220
v-149h-409z" />
    <glyph glyph-name="uni0626.init" unicode="&#x626;" horiz-adv-x="470" arabic-form="initial" 
d="M-9 17q-79 0 -135 55.5t-56 134.5t56 135t135 56h88h55t43 2t35 2.5t25 6.5t19.5 9t11.5 15.5t8.5 20t3 28t2.5 34.5v44v303h127v-303q0 -281 -79 -412t-251 -131h-88zM108 1053v150h98q-13 47 -5 95t36.5 85t78.5 52.5t121 -2.5v-113q-109 35 -160 -8q-35 -28 -19 -68
q12 -26 39 -41h220v-150h-409z" />
    <glyph glyph-name="uni0626.medi" unicode="&#x626;" horiz-adv-x="669" arabic-form="medial" 
d="M396 569q0 -44 1.5 -67t12.5 -45.5t26 -31.5t50 -16.5t77 -9t115 -1.5q79 0 135 -56t56 -135t-56 -134.5t-135 -55.5q-275 0 -363 234q-99 -234 -281 -234h-43q-79 0 -135 55.5t-56 134.5t56 135t135 56h43h14q45 0 64.5 1t50 8t43 23t30 43.5t25 72.5t15.5 107.5
t12 150.5h128q-7 -141 -20 -235zM153 976v149h98q-13 47 -4.5 95t37 85t78.5 52.5t121 -2.5v-113q-110 35 -161 -8q-35 -29 -18 -69q11 -25 38 -40h220v-149h-409z" />
    <glyph glyph-name="uni0626.fina" unicode="&#x626;" horiz-adv-x="1409" arabic-form="final" 
d="M764 516q228 -71 358.5 -94.5t296.5 -23.5q79 0 135 -56t56 -135t-56 -134.5t-135 -55.5q-81 0 -153 6q0 -133 -46.5 -236.5t-125.5 -165t-175 -92.5t-204 -31q-154 0 -270 37t-200.5 115.5t-127.5 201.5t-52.5 294.5t23.5 394.5h132q-24 -155 -30 -263.5t10 -192
t50.5 -133.5t101 -81.5t151.5 -42.5t212 -11q199 0 300.5 53t109.5 173q-130 27 -398 109zM129 730v149h98q-13 47 -4.5 95t37 85t78.5 52.5t121 -2.5v-113q-109 35 -160 -8q-35 -28 -19 -68q10 -25 39 -41h219v-149h-409z" />
    <glyph glyph-name="uni0627.fina" unicode="&#x627;" horiz-adv-x="476" arabic-form="final" 
d="M486 398q79 0 135 -56t56 -135t-56 -134.5t-135 -55.5h-31q-182 0 -263 139t-81 430v950h127v-950q0 -112 10 -140q13 -35 63 -43q32 -5 144 -5h31z" />
    <glyph glyph-name="uni0628.init" unicode="&#x628;" horiz-adv-x="470" arabic-form="initial" 
d="M-9 17q-79 0 -135 55.5t-56 134.5t56 135t135 56h88h55t43 2t35 2.5t25 6.5t19.5 9t11.5 15.5t8.5 20t3 28t2.5 34.5v44v303h127v-303q0 -281 -79 -412t-251 -131h-88zM61 -292l184 184l183 -184l-183 -183z" />
    <glyph glyph-name="uni0628.medi" unicode="&#x628;" horiz-adv-x="669" arabic-form="medial" 
d="M396 569q0 -44 1.5 -67t12.5 -45.5t26 -31.5t50 -16.5t77 -9t115 -1.5q79 0 135 -56t56 -135t-56 -134.5t-135 -55.5q-275 0 -363 234q-99 -234 -281 -234h-43q-79 0 -135 55.5t-56 134.5t56 135t135 56h43h14q45 0 64.5 1t50 8t43 23t30 43.5t25 72.5t15.5 107.5
t12 150.5h128q-7 -141 -20 -235zM143 -292l183 184l184 -184l-184 -183z" />
    <glyph glyph-name="uni0628.fina" unicode="&#x628;" horiz-adv-x="1739" arabic-form="final" 
d="M273 845q-82 -144 -85 -299q1 -33 12.5 -57t35 -40t53 -26.5t76 -15.5t93 -7t114.5 -2h583q118 0 180 17t83 49t21 91v369h127v-369q0 -27 -1 -40q0 -26 3 -43t7 -31t15.5 -21.5t21.5 -13t34 -7t44 -2t59 -0.5q79 0 134.5 -55.5t55.5 -134.5t-55.5 -134.5t-134.5 -55.5
q-85 -1 -150.5 50.5t-105.5 145.5q-106 -196 -338 -196h-583q-260 0 -383.5 120t-127.5 397v8v12q6 183 100 353zM657 -292l183 184l184 -184l-184 -183z" />
    <glyph glyph-name="uni0629.fina" unicode="&#x629;" horiz-adv-x="1103" arabic-form="final" 
d="M1112 398q79 0 135 -56t56 -135t-56 -134.5t-135 -55.5h-13q-217 0 -292 212q-102 -173 -330 -173q-92 0 -164.5 28t-118 74t-76 111t-43 132.5t-14.5 144.5v9q0 10 1 15q3 79 28.5 152t74 136.5t131 101.5t189.5 38q164 0 278 -100v157h127v-445v0v-41q0 -40 -0.5 -57
t4 -41.5t6 -31.5t16.5 -19t23.5 -13.5t38.5 -5t51 -3.5h70h13zM159 1322l183 184l159 -158l158 157l183 -184l-183 -183l-158 159l-159 -158zM188 557q2 -47 23 -71t83 -36.5t183 -12.5q82 0 131 4.5t82.5 13t47.5 29.5t19.5 45.5t5.5 69.5q-1 43 -41.5 76.5t-102.5 50
t-134 16.5q-86 0 -146 -14.5t-91 -42t-44.5 -58t-15.5 -70.5z" />
    <glyph glyph-name="uni062A.init" unicode="&#x62a;" horiz-adv-x="611" arabic-form="initial" 
d="M-9 17q-79 0 -135 55.5t-56 134.5t56 135t135 56h88h55t43 2t35 2.5t25 6.5t19.5 9t11.5 15.5t8.5 20t3 28t2.5 34.5v44v303h127v-303q0 -281 -79 -412t-251 -131h-88zM-30 1158l169 170l147 -147l146 146l169 -169l-169 -170l-147 147l-146 -146z" />
    <glyph glyph-name="uni062A.medi" unicode="&#x62a;" horiz-adv-x="669" arabic-form="medial" 
d="M396 569q0 -44 1.5 -67t12.5 -45.5t26 -31.5t50 -16.5t77 -9t115 -1.5q79 0 135 -56t56 -135t-56 -134.5t-135 -55.5q-275 0 -363 234q-99 -234 -281 -234h-43q-79 0 -135 55.5t-56 134.5t56 135t135 56h43h14q45 0 64.5 1t50 8t43 23t30 43.5t25 72.5t15.5 107.5
t12 150.5h128q-7 -141 -20 -235zM40 1054l170 170l146 -147l146 146l170 -170l-170 -169l-146 147l-146 -146z" />
    <glyph glyph-name="uni062A.fina" unicode="&#x62a;" horiz-adv-x="1739" arabic-form="final" 
d="M273 845q-82 -144 -85 -299q1 -33 12.5 -57t35 -40t53 -26.5t76 -15.5t93 -7t114.5 -2h583q118 0 180 17t83 49t21 91v369h127v-369q0 -27 -1 -40q0 -26 3 -43t7 -31t15.5 -21.5t21.5 -13t34 -7t44 -2t59 -0.5q79 0 134.5 -55.5t55.5 -134.5t-55.5 -134.5t-134.5 -55.5
q-85 -1 -150.5 50.5t-105.5 145.5q-106 -196 -338 -196h-583q-260 0 -383.5 120t-127.5 397v8v12q6 183 100 353zM501 1106l184 183l159 -158l157 158l184 -184l-184 -183l-158 159l-158 -159z" />
    <glyph glyph-name="uni062B.init" unicode="&#x62b;" horiz-adv-x="618" arabic-form="initial" 
d="M-9 17q-79 0 -135 55.5t-56 134.5t56 135t135 56h88h55t43 2t35 2.5t25 6.5t19.5 9t11.5 15.5t8.5 20t3 28t2.5 34.5v44v303h127v-303q0 -281 -79 -412t-251 -131h-88zM-29 1162l184 184l159 -159l158 158l183 -183l-183 -184l-159 159l-158 -158zM129 1445l184 184
l184 -184l-184 -183z" />
    <glyph glyph-name="uni062B.medi" unicode="&#x62b;" horiz-adv-x="669" arabic-form="medial" 
d="M396 569q0 -44 1.5 -67t12.5 -45.5t26 -31.5t50 -16.5t77 -9t115 -1.5q79 0 135 -56t56 -135t-56 -134.5t-135 -55.5q-275 0 -363 234q-99 -234 -281 -234h-43q-79 0 -135 55.5t-56 134.5t56 135t135 56h43h14q45 0 64.5 1t50 8t43 23t30 43.5t25 72.5t15.5 107.5
t12 150.5h128q-7 -141 -20 -235zM41 1064l170 170l147 -147l146 146l169 -170l-169 -169l-148 146l-145 -145zM188 1325l169 170l171 -170l-171 -169z" />
    <glyph glyph-name="uni062B.fina" unicode="&#x62b;" horiz-adv-x="1739" arabic-form="final" 
d="M273 845q-82 -144 -85 -299q1 -33 12.5 -57t35 -40t53 -26.5t76 -15.5t93 -7t114.5 -2h583q118 0 180 17t83 49t21 91v369h127v-369q0 -27 -1 -40q0 -26 3 -43t7 -31t15.5 -21.5t21.5 -13t34 -7t44 -2t59 -0.5q79 0 134.5 -55.5t55.5 -134.5t-55.5 -134.5t-134.5 -55.5
q-85 -1 -150.5 50.5t-105.5 145.5q-106 -196 -338 -196h-583q-260 0 -383.5 120t-127.5 397v8v12q6 183 100 353zM502 1117l184 183l159 -159l158 158l183 -183l-183 -184l-159 159l-158 -158zM660 1399l184 184l184 -184l-184 -183z" />
    <glyph glyph-name="uni062C.init" unicode="&#x62c;" horiz-adv-x="1250" arabic-form="initial" 
d="M1192 430q-107 -86 -208 -153t-178.5 -110t-160 -73t-135.5 -45t-124 -22.5t-106.5 -8.5t-99.5 -1h-17h-172q-79 0 -135 55.5t-56 134.5t56 135t135 56h172q91 0 164 4.5t183.5 21t227 56t228.5 100.5q-144 38 -375 156q-248 130 -502 -47v205q92 52 175.5 73t181 8
t202.5 -67q164 -83 274 -119.5t270 -54.5v-304zM419 -279l183 184l184 -184l-184 -183z" />
    <glyph glyph-name="uni062C.medi" unicode="&#x62c;" horiz-adv-x="1366" arabic-form="medial" 
d="M1192 430l-19 -15q80 -17 180 -17h22q79 0 135 -56t56 -135t-56 -134.5t-135 -55.5h-22q-147 0 -239.5 48t-199.5 166q-74 -46 -145.5 -81t-125.5 -57.5t-118.5 -38t-100 -22.5t-97 -11t-83 -4h-81.5h-172q-79 0 -135 55.5t-56 134.5t56 135t135 56h172q91 0 164 4.5
t183.5 21t227 56t228.5 100.5q-144 38 -375 156q-248 130 -502 -47v205q92 52 175.5 73t181 8t202.5 -67q164 -83 274 -119.5t270 -54.5v-304zM455 -232l183 184l184 -184l-184 -183z" />
    <glyph glyph-name="uni062C.fina" unicode="&#x62c;" horiz-adv-x="1419" arabic-form="final" 
d="M1269 786v-377q64 -11 130 -11h30q79 0 135 -56t56 -135t-56 -134.5t-135 -55.5h-30q-304 0 -471 314q-216 -51 -364.5 -105t-230.5 -112.5t-115.5 -117t-29.5 -126.5q4 -42 20 -79.5t50 -73.5t83.5 -64t123 -48t165 -29t213.5 -4.5t265 24.5v-254q-220 -31 -390 -17.5
t-291.5 55.5t-201 117t-119 167t-45.5 204q-4 150 41.5 276t146 234.5t270.5 192t404 137.5q-46 24 -137 79t-130 77q-217 126 -510 -55v206q71 38 134 60t136 31t149.5 -8.5t154.5 -62.5q37 -21 114.5 -68.5t110 -65t91.5 -44.5t112.5 -40t118.5 -19l-1 -12h3zM640 -113
l183 183l184 -183l-184 -184z" />
    <glyph glyph-name="uni062D.init" unicode="&#x62d;" horiz-adv-x="1250" arabic-form="initial" 
d="M1192 430q-107 -86 -208 -153t-178.5 -110t-160 -73t-135.5 -45t-124 -22.5t-106.5 -8.5t-99.5 -1h-17h-172q-79 0 -135 55.5t-56 134.5t56 135t135 56h172q91 0 164 4.5t183.5 21t227 56t228.5 100.5q-144 38 -375 156q-248 130 -502 -47v205q92 52 175.5 73t181 8
t202.5 -67q164 -83 274 -119.5t270 -54.5v-304z" />
    <glyph glyph-name="uni062D.medi" unicode="&#x62d;" horiz-adv-x="1366" arabic-form="medial" 
d="M1192 430l-19 -15q80 -17 180 -17h22q79 0 135 -56t56 -135t-56 -134.5t-135 -55.5h-22q-147 0 -239.5 48t-199.5 166q-74 -46 -145.5 -81t-125.5 -57.5t-118.5 -38t-100 -22.5t-97 -11t-83 -4h-81.5h-172q-79 0 -135 55.5t-56 134.5t56 135t135 56h172q91 0 164 4.5
t183.5 21t227 56t228.5 100.5q-144 38 -375 156q-248 130 -502 -47v205q92 52 175.5 73t181 8t202.5 -67q164 -83 274 -119.5t270 -54.5v-304z" />
    <glyph glyph-name="uni062D.fina" unicode="&#x62d;" horiz-adv-x="1419" arabic-form="final" 
d="M1269 786v-377q64 -11 130 -11h30q79 0 135 -56t56 -135t-56 -134.5t-135 -55.5h-30q-304 0 -471 314q-216 -51 -364.5 -105t-230.5 -112.5t-115.5 -117t-29.5 -126.5q4 -42 20 -79.5t50 -73.5t83.5 -64t123 -48t165 -29t213.5 -4.5t265 24.5v-254q-220 -31 -390 -17.5
t-291.5 55.5t-201 117t-119 167t-45.5 204q-4 150 41.5 276t146 234.5t270.5 192t404 137.5q-46 24 -137 79t-130 77q-217 126 -510 -55v206q71 38 134 60t136 31t149.5 -8.5t154.5 -62.5q37 -21 114.5 -68.5t110 -65t91.5 -44.5t112.5 -40t118.5 -19l-1 -12h3z" />
    <glyph glyph-name="uni062E.init" unicode="&#x62e;" horiz-adv-x="1250" arabic-form="initial" 
d="M1192 430q-107 -86 -208 -153t-178.5 -110t-160 -73t-135.5 -45t-124 -22.5t-106.5 -8.5t-99.5 -1h-17h-172q-79 0 -135 55.5t-56 134.5t56 135t135 56h172q91 0 164 4.5t183.5 21t227 56t228.5 100.5q-144 38 -375 156q-248 130 -502 -47v205q92 52 175.5 73t181 8
t202.5 -67q164 -83 274 -119.5t270 -54.5v-304zM217 1291l184 184l183 -184l-183 -183z" />
    <glyph glyph-name="uni062E.medi" unicode="&#x62e;" horiz-adv-x="1366" arabic-form="medial" 
d="M1192 430l-19 -15q80 -17 180 -17h22q79 0 135 -56t56 -135t-56 -134.5t-135 -55.5h-22q-147 0 -239.5 48t-199.5 166q-74 -46 -145.5 -81t-125.5 -57.5t-118.5 -38t-100 -22.5t-97 -11t-83 -4h-81.5h-172q-79 0 -135 55.5t-56 134.5t56 135t135 56h172q91 0 164 4.5
t183.5 21t227 56t228.5 100.5q-144 38 -375 156q-248 130 -502 -47v205q92 52 175.5 73t181 8t202.5 -67q164 -83 274 -119.5t270 -54.5v-304zM269 1328l183 183l184 -183l-184 -184z" />
    <glyph glyph-name="uni062E.fina" unicode="&#x62e;" horiz-adv-x="1419" arabic-form="final" 
d="M1269 786v-377q64 -11 130 -11h30q79 0 135 -56t56 -135t-56 -134.5t-135 -55.5h-30q-304 0 -471 314q-216 -51 -364.5 -105t-230.5 -112.5t-115.5 -117t-29.5 -126.5q4 -42 20 -79.5t50 -73.5t83.5 -64t123 -48t165 -29t213.5 -4.5t265 24.5v-254q-220 -31 -390 -17.5
t-291.5 55.5t-201 117t-119 167t-45.5 204q-4 150 41.5 276t146 234.5t270.5 192t404 137.5q-46 24 -137 79t-130 77q-217 126 -510 -55v206q71 38 134 60t136 31t149.5 -8.5t154.5 -62.5q37 -21 114.5 -68.5t110 -65t91.5 -44.5t112.5 -40t118.5 -19l-1 -12h3zM279 1451
l183 183l184 -183l-184 -184z" />
    <glyph glyph-name="uni062F.fina" unicode="&#x62f;" horiz-adv-x="1010" arabic-form="final" 
d="M843 501q-2 -52 -4 -77q60 -26 160 -26h20q79 0 135 -56t56 -135t-56 -134.5t-135 -55.5h-20q-154 0 -249 140q-104 -140 -319 -140h-387v381h387q117 0 179.5 12t83 32.5t21.5 58.5h1v6q0 95 -63.5 147.5t-173 61.5t-255.5 -5v254q619 64 619 -458v-6z" />
    <glyph glyph-name="uni0630.fina" unicode="&#x630;" horiz-adv-x="1010" arabic-form="final" 
d="M843 501q-2 -52 -4 -77q60 -26 160 -26h20q79 0 135 -56t56 -135t-56 -134.5t-135 -55.5h-20q-154 0 -249 140q-104 -140 -319 -140h-387v381h387q117 0 179.5 12t83 32.5t21.5 58.5h1v6q0 95 -63.5 147.5t-173 61.5t-255.5 -5v254q619 64 619 -458v-6zM225 1284l184 183
l183 -183l-183 -184z" />
    <glyph glyph-name="uni0631.fina" unicode="&#x631;" horiz-adv-x="729" arabic-form="final" 
d="M0 -152q56 0 98 1.5t79.5 7.5t63.5 13t48 22t36 29t25 41t16 51.5t8.5 66t4.5 79t1 95.5v589h127v-274v-73t9 -46.5t16 -31t38 -13t56.5 -7.5h89.5h23q79 0 135 -56t56 -135t-56 -134.5t-135 -55.5h-23q-133 0 -213 80q-6 -111 -23 -196.5t-53 -163.5t-90.5 -129
t-139.5 -80.5t-197 -29.5v350z" />
    <glyph glyph-name="uni0632.fina" unicode="&#x632;" horiz-adv-x="729" arabic-form="final" 
d="M0 -152q56 0 98 1.5t79.5 7.5t63.5 13t48 22t36 29t25 41t16 51.5t8.5 66t4.5 79t1 95.5v589h127v-274v-73t9 -46.5t16 -31t38 -13t56.5 -7.5h89.5h23q79 0 135 -56t56 -135t-56 -134.5t-135 -55.5h-23q-133 0 -213 80q-6 -111 -23 -196.5t-53 -163.5t-90.5 -129
t-139.5 -80.5t-197 -29.5v350zM288 1145l184 184l183 -184l-183 -183z" />
    <glyph glyph-name="uni0633.init" unicode="&#x633;" horiz-adv-x="1550" arabic-form="initial" 
d="M-9 17q-79 0 -135 55.5t-56 134.5t56 135t135 56h19q53 0 86.5 4t63.5 18t46.5 36.5t30 64.5t20.5 96.5t12 137.5h127q-11 -182 -37 -311q50 -38 125 -52t142.5 -4t118 47t55.5 93l19 226h130l-23 -261l-4 -35q76 -60 204 -60h7q100 0 150 11t65 31t15 61v299h127v-299
q0 -76 -11.5 -144.5t-39 -131.5t-67.5 -108.5t-101.5 -72.5t-137.5 -27h-7q-78 0 -143 41t-147 128q-36 -65 -83 -109t-104 -62.5t-118 -9.5t-129 54t-133 125q-97 -167 -259 -167h-19z" />
    <glyph glyph-name="uni0633.medi" unicode="&#x633;" horiz-adv-x="1709" arabic-form="medial" 
d="M1719 398q79 0 135 -56t56 -135t-56 -134.5t-135 -55.5h-49q-164 0 -247 173q-92 -173 -290 -173h-7q-78 0 -143 41t-147 128q-36 -65 -83 -109t-104 -62.5t-118 -9.5t-129 54t-133 125q-97 -167 -259 -167h-19q-79 0 -135 55.5t-56 134.5t56 135t135 56h19q53 0 86.5 4
t63.5 18t46.5 36.5t30 64.5t20.5 96.5t12 137.5h127q-11 -182 -37 -311q50 -38 125 -52t142.5 -4t118 47t55.5 93l19 226h130l-23 -261l-4 -35q76 -60 204 -60h7q100 0 150 11t65 31t15 61v299h127v-299v-21q2 -58 30.5 -70t135.5 -12h14h49z" />
    <glyph glyph-name="uni0633.fina" unicode="&#x633;" horiz-adv-x="2454" arabic-form="final" 
d="M2463 398q79 0 135 -56t56 -135t-56 -134.5t-135 -55.5q-210 0 -311 198q-43 -92 -114 -145t-164 -53h-40q-76 0 -137.5 39t-140.5 121q-85 -141 -209 -158.5t-244 112.5q-34 -247 -170.5 -381t-357.5 -134q-230 0 -367.5 177.5t-145.5 474.5h-1v17q0 13 1 20
q6 165 60 292.5t129 211.5l96 -85q-153 -171 -159 -436q5 -151 93 -221t294 -70q73 0 131.5 7.5t112 27.5t89 52t56.5 84t21 122v553h127v-385q25 -45 90.5 -68t133.5 -19t123 41.5t61 101.5l21 227h129l-23 -261l-4 -30q77 -52 191 -52h40q124 0 166 23t42 79v389h127v-330
q0 -34 7.5 -59.5t17.5 -42.5t31 -28.5t37.5 -17.5t48.5 -9t52.5 -3.5t59.5 -0.5z" />
    <glyph glyph-name="uni0634.init" unicode="&#x634;" horiz-adv-x="1550" arabic-form="initial" 
d="M-9 17q-79 0 -135 55.5t-56 134.5t56 135t135 56h19q53 0 86.5 4t63.5 18t46.5 36.5t30 64.5t20.5 96.5t12 137.5h127q-11 -182 -37 -311q50 -38 125 -52t142.5 -4t118 47t55.5 93l19 226h130l-23 -261l-4 -35q76 -60 204 -60h7q100 0 150 11t65 31t15 61v299h127v-299
q0 -76 -11.5 -144.5t-39 -131.5t-67.5 -108.5t-101.5 -72.5t-137.5 -27h-7q-78 0 -143 41t-147 128q-36 -65 -83 -109t-104 -62.5t-118 -9.5t-129 54t-133 125q-97 -167 -259 -167h-19zM551 1117l183 183l159 -159l158 158l184 -183l-184 -184l-159 159l-158 -158zM709 1399
l183 184l184 -184l-184 -183z" />
    <glyph glyph-name="uni0634.medi" unicode="&#x634;" horiz-adv-x="1709" arabic-form="medial" 
d="M1719 398q79 0 135 -56t56 -135t-56 -134.5t-135 -55.5h-49q-164 0 -247 173q-92 -173 -290 -173h-7q-78 0 -143 41t-147 128q-36 -65 -83 -109t-104 -62.5t-118 -9.5t-129 54t-133 125q-97 -167 -259 -167h-19q-79 0 -135 55.5t-56 134.5t56 135t135 56h19q53 0 86.5 4
t63.5 18t46.5 36.5t30 64.5t20.5 96.5t12 137.5h127q-11 -182 -37 -311q50 -38 125 -52t142.5 -4t118 47t55.5 93l19 226h130l-23 -261l-4 -35q76 -60 204 -60h7q100 0 150 11t65 31t15 61v299h127v-299v-21q2 -58 30.5 -70t135.5 -12h14h49zM551 1117l183 183l159 -159
l158 158l184 -183l-184 -184l-159 159l-158 -158zM709 1399l183 184l184 -184l-184 -183z" />
    <glyph glyph-name="uni0634.fina" unicode="&#x634;" horiz-adv-x="2454" arabic-form="final" 
d="M2463 398q79 0 135 -56t56 -135t-56 -134.5t-135 -55.5q-210 0 -311 198q-43 -92 -114 -145t-164 -53h-40q-76 0 -137.5 39t-140.5 121q-85 -141 -209 -158.5t-244 112.5q-34 -247 -170.5 -381t-357.5 -134q-230 0 -367.5 177.5t-145.5 474.5h-1v17q0 13 1 20
q6 165 60 292.5t129 211.5l96 -85q-153 -171 -159 -436q5 -151 93 -221t294 -70q73 0 131.5 7.5t112 27.5t89 52t56.5 84t21 122v553h127v-385q25 -45 90.5 -68t133.5 -19t123 41.5t61 101.5l21 227h129l-23 -261l-4 -30q77 -52 191 -52h40q124 0 166 23t42 79v389h127v-330
q0 -34 7.5 -59.5t17.5 -42.5t31 -28.5t37.5 -17.5t48.5 -9t52.5 -3.5t59.5 -0.5zM1262 1117l184 183l159 -159l158 158l183 -183l-183 -184l-159 159l-158 -158zM1420 1399l184 184l184 -184l-184 -183z" />
    <glyph glyph-name="uni0635.init" unicode="&#x635;" horiz-adv-x="1714" arabic-form="initial" 
d="M-9 17q-79 0 -135 55.5t-56 134.5t56 135t135 56h34q143 0 200.5 42.5t57.5 129.5v273h127v-273q0 -34 -3 -69q94 100 194.5 178t195.5 128t189 81t178 36.5t159 -6t135 -45.5t104 -83t67.5 -118t23.5 -150v-12q0 -73 -13 -141t-44 -133t-76.5 -113t-115.5 -77t-157 -29
h-168q-155 0 -251.5 5.5t-195 24t-172.5 56t-142 98.5q-110 -184 -293 -184h-34zM562 434q192 -36 517 -36h168q115 0 178.5 15.5t82 38t18.5 58.5v12q0 87 -54.5 147t-151.5 76.5t-216.5 -4.5t-263.5 -100.5t-278 -206.5z" />
    <glyph glyph-name="uni0635.medi" unicode="&#x635;" horiz-adv-x="1767" arabic-form="medial" 
d="M-9 17q-79 0 -135 55.5t-56 134.5t56 135t135 56h34q143 0 200.5 42.5t57.5 129.5v273h127v-273q0 -34 -3 -69q94 100 194.5 178t195.5 128t189 81t178 36.5t159 -6t135 -45.5t104 -83t67.5 -118t23.5 -150v-12q0 -63 -8 -112h131q79 0 135 -56t56 -135t-56 -134.5
t-135 -55.5l-504 1q-8 -1 -25 -1h-168q-155 0 -251.5 5.5t-195 24t-172.5 56t-142 98.5q-110 -184 -293 -184h-34zM562 434q192 -36 517 -36h168q115 0 178.5 15.5t82 38t18.5 58.5v12q0 87 -54.5 147t-151.5 76.5t-216.5 -4.5t-263.5 -100.5t-278 -206.5z" />
    <glyph glyph-name="uni0635.fina" unicode="&#x635;" horiz-adv-x="2419" arabic-form="final" 
d="M2314 496q0 -57 -5 -98h120q79 0 135 -56t56 -135t-56 -134.5t-135 -55.5h-466h-14h-210q-217 0 -360.5 42t-269.5 135q-22 -276 -160.5 -427t-373.5 -151q-230 0 -367.5 177.5t-145.5 474.5h-1v17q0 13 1 20q6 165 60 292.5t129 211.5l96 -85q-153 -171 -159 -436
q5 -151 93 -221t294 -70q73 0 131.5 7.5t112 27.5t89 52t56.5 84t21 122v553h127v-279q139 142 288 232.5t279.5 121.5t248.5 18t202.5 -68t134 -148t49.5 -211v-13zM1246 475q195 -77 493 -77h210q107 0 159 10.5t65.5 29t13.5 58.5v13q0 63 -27.5 115t-78.5 85t-118.5 49
t-152 6.5t-175 -40.5t-192 -95t-197.5 -154z" />
    <glyph glyph-name="uni0636.init" unicode="&#x636;" horiz-adv-x="1714" arabic-form="initial" 
d="M-9 17q-79 0 -135 55.5t-56 134.5t56 135t135 56h34q143 0 200.5 42.5t57.5 129.5v273h127v-273q0 -34 -3 -69q94 100 194.5 178t195.5 128t189 81t178 36.5t159 -6t135 -45.5t104 -83t67.5 -118t23.5 -150v-12q0 -73 -13 -141t-44 -133t-76.5 -113t-115.5 -77t-157 -29
h-168q-155 0 -251.5 5.5t-195 24t-172.5 56t-142 98.5q-110 -184 -293 -184h-34zM429 1209l184 184l183 -184l-183 -183zM562 434q192 -36 517 -36h168q115 0 178.5 15.5t82 38t18.5 58.5v12q0 87 -54.5 147t-151.5 76.5t-216.5 -4.5t-263.5 -100.5t-278 -206.5z" />
    <glyph glyph-name="uni0636.medi" unicode="&#x636;" horiz-adv-x="1767" arabic-form="medial" 
d="M-9 17q-79 0 -135 55.5t-56 134.5t56 135t135 56h34q143 0 200.5 42.5t57.5 129.5v273h127v-273q0 -34 -3 -69q94 100 194.5 178t195.5 128t189 81t178 36.5t159 -6t135 -45.5t104 -83t67.5 -118t23.5 -150v-12q0 -63 -8 -112h131q79 0 135 -56t56 -135t-56 -134.5
t-135 -55.5l-504 1q-8 -1 -25 -1h-168q-155 0 -251.5 5.5t-195 24t-172.5 56t-142 98.5q-110 -184 -293 -184h-34zM428 1209l184 184l183 -184l-183 -183zM562 434q192 -36 517 -36h168q115 0 178.5 15.5t82 38t18.5 58.5v12q0 87 -54.5 147t-151.5 76.5t-216.5 -4.5
t-263.5 -100.5t-278 -206.5z" />
    <glyph glyph-name="uni0636.fina" unicode="&#x636;" horiz-adv-x="2419" arabic-form="final" 
d="M2314 496q0 -57 -5 -98h120q79 0 135 -56t56 -135t-56 -134.5t-135 -55.5h-466h-14h-210q-217 0 -360.5 42t-269.5 135q-22 -276 -160.5 -427t-373.5 -151q-230 0 -367.5 177.5t-145.5 474.5h-1v17q0 13 1 20q6 165 60 292.5t129 211.5l96 -85q-153 -171 -159 -436
q5 -151 93 -221t294 -70q73 0 131.5 7.5t112 27.5t89 52t56.5 84t21 122v553h127v-279q139 142 288 232.5t279.5 121.5t248.5 18t202.5 -68t134 -148t49.5 -211v-13zM1235 1234l184 183l183 -183l-183 -184zM1246 475q195 -77 493 -77h210q107 0 159 10.5t65.5 29t13.5 58.5
v13q0 63 -27.5 115t-78.5 85t-118.5 49t-152 6.5t-175 -40.5t-192 -95t-197.5 -154z" />
    <glyph glyph-name="uni0637.init" unicode="&#x637;" horiz-adv-x="1403" arabic-form="initial" 
d="M1343 513q0 -72 -12.5 -139t-43 -133t-76.5 -115t-117.5 -79t-161.5 -30h-941q-79 0 -135 55.5t-56 134.5t56 135t135 56h109v1138h127v-1008q78 93 164 166.5t169.5 119t168 73t160.5 31t145.5 -9t125.5 -46.5t97 -81.5t63.5 -113t22.5 -142.5v-12zM313 398h619
q90 0 148 8t87 24.5t39 35.5t10 47v12q0 119 -104 180q-113 67 -287 31q-222 -46 -421 -239q-47 -46 -91 -99z" />
    <glyph glyph-name="uni0637.medi" unicode="&#x637;" horiz-adv-x="1457" arabic-form="medial" 
d="M979 17v3q-23 -3 -47 -3h-941q-79 0 -135 55.5t-56 134.5t56 135t135 56h109v1138h127v-1008q78 93 164 166.5t169.5 119t168 73t160.5 31t145.5 -9t125.5 -46.5t97 -81.5t63.5 -113t22.5 -142.5v-12q0 -65 -9 -115h132q79 0 135 -56t56 -135t-56 -134.5t-135 -55.5h-487
zM313 398h619q90 0 148 8t87 24.5t39 35.5t10 47v12q0 119 -104 180q-113 67 -287 31q-222 -46 -421 -239q-47 -46 -91 -99z" />
    <glyph glyph-name="uni0637.fina" unicode="&#x637;" horiz-adv-x="1690" arabic-form="final" 
d="M1496 17q-48 0 -89.5 22t-67.5 60q-100 -82 -249 -82h-1034v381h202v1138h127v-1008q78 93 164 166.5t169.5 119t168 73t160.5 31t145.5 -9t125.5 -46.5t97 -81.5t63.5 -113t22.5 -142.5v-12q0 -65 -9 -115h4h203q79 0 135 -56t56 -135t-56 -134.5t-135 -55.5h-203z
M471 398h619q90 0 148 8t87 24.5t39 35.5t10 47v12q0 119 -104 180q-113 67 -287 31q-222 -46 -421 -239q-47 -46 -91 -99z" />
    <glyph glyph-name="uni0638.init" unicode="&#x638;" horiz-adv-x="1403" arabic-form="initial" 
d="M1343 513q0 -72 -12.5 -139t-43 -133t-76.5 -115t-117.5 -79t-161.5 -30h-941q-79 0 -135 55.5t-56 134.5t56 135t135 56h109v1138h127v-1008q78 93 164 166.5t169.5 119t168 73t160.5 31t145.5 -9t125.5 -46.5t97 -81.5t63.5 -113t22.5 -142.5v-12zM313 398h619
q90 0 148 8t87 24.5t39 35.5t10 47v12q0 119 -104 180q-113 67 -287 31q-222 -46 -421 -239q-47 -46 -91 -99zM460 1294l183 183l184 -183l-184 -184z" />
    <glyph glyph-name="uni0638.medi" unicode="&#x638;" horiz-adv-x="1457" arabic-form="medial" 
d="M979 17v3q-23 -3 -47 -3h-941q-79 0 -135 55.5t-56 134.5t56 135t135 56h109v1138h127v-1008q78 93 164 166.5t169.5 119t168 73t160.5 31t145.5 -9t125.5 -46.5t97 -81.5t63.5 -113t22.5 -142.5v-12q0 -65 -9 -115h132q79 0 135 -56t56 -135t-56 -134.5t-135 -55.5h-487
zM313 398h619q90 0 148 8t87 24.5t39 35.5t10 47v12q0 119 -104 180q-113 67 -287 31q-222 -46 -421 -239q-47 -46 -91 -99zM472 1294l183 183l184 -183l-184 -184z" />
    <glyph glyph-name="uni0638.fina" unicode="&#x638;" horiz-adv-x="1690" arabic-form="final" 
d="M1496 17q-48 0 -89.5 22t-67.5 60q-100 -82 -249 -82h-1034v381h202v1138h127v-1008q78 93 164 166.5t169.5 119t168 73t160.5 31t145.5 -9t125.5 -46.5t97 -81.5t63.5 -113t22.5 -142.5v-12q0 -65 -9 -115h4h203q79 0 135 -56t56 -135t-56 -134.5t-135 -55.5h-203z
M471 398h619q90 0 148 8t87 24.5t39 35.5t10 47v12q0 119 -104 180q-113 67 -287 31q-222 -46 -421 -239q-47 -46 -91 -99zM641 1294l183 183l184 -183l-184 -184z" />
    <glyph glyph-name="uni0639.init" unicode="&#x639;" horiz-adv-x="998" arabic-form="initial" 
d="M-20 17q-79 0 -135 55.5t-56 134.5t56 135t135 56h138q-46 122 -26 237q40 221 227.5 301.5t499.5 22.5v-254q-269 49 -427.5 12.5t-175.5 -128.5q-9 -52 15 -103t86 -88h626v-381h-963z" />
    <glyph glyph-name="uni0639.medi" unicode="&#x639;" horiz-adv-x="1114" arabic-form="medial" 
d="M-9 17q-79 0 -135 55.5t-56 134.5t56 135t135 56h179q80 0 176 16q-132 116 -280 321l4 3h-5v254l976 -2v-254h-1q-92 -181 -261 -322q114 -16 242 -16h102q79 0 135 -56t56 -135t-56 -134.5t-135 -55.5h-102q-157 0 -249.5 23.5t-222.5 98.5q-112 -73 -187.5 -97.5
t-191.5 -24.5h-179zM256 737q155 -190 299 -255q85 34 170 103.5t146 150.5z" />
    <glyph glyph-name="uni0639.fina" unicode="&#x639;" horiz-adv-x="1233" arabic-form="final" 
d="M70 -211v5q-4 131 29 238.5t87 178t133 132.5q-120 155 -222 402l1 2h-5v254l1010 -2v-254h-35l28 -22q-46 -182 -164 -319q98 -6 156 -6h155q79 0 135 -56t56 -135t-56 -134.5t-135 -55.5h-155q-162 0 -278.5 24.5t-250.5 92.5q-21 -11 -58 -29.5t-56.5 -28.5
t-51.5 -27.5t-49 -29t-42 -28.5t-38 -31t-28.5 -33t-23 -37t-12 -40t-3.5 -45v-7q4 -42 26.5 -78t66 -68.5t116.5 -54t170.5 -32.5t235.5 -5.5t305 28.5v-285q-218 -31 -386.5 -23t-290.5 44t-202.5 103.5t-121 157t-46.5 204.5zM283 746q50 -86 112 -138t177 -113
q13 6 50.5 25t51.5 26t46 24.5t47 26.5t41.5 25t41.5 28.5t33.5 28.5t32.5 32.5t25 33.5z" />
    <glyph glyph-name="uni063A.init" unicode="&#x63a;" horiz-adv-x="998" arabic-form="initial" 
d="M-20 17q-79 0 -135 55.5t-56 134.5t56 135t135 56h138q-46 122 -26 237q40 221 227.5 301.5t499.5 22.5v-254q-269 49 -427.5 12.5t-175.5 -128.5q-9 -52 15 -103t86 -88h626v-381h-963zM334 1299l184 184l183 -184l-183 -183z" />
    <glyph glyph-name="uni063A.medi" unicode="&#x63a;" horiz-adv-x="1114" arabic-form="medial" 
d="M-9 17q-79 0 -135 55.5t-56 134.5t56 135t135 56h179q80 0 176 16q-132 116 -280 321l4 3h-5v254l976 -2v-254h-1q-92 -181 -261 -322q114 -16 242 -16h102q79 0 135 -56t56 -135t-56 -134.5t-135 -55.5h-102q-157 0 -249.5 23.5t-222.5 98.5q-112 -73 -187.5 -97.5
t-191.5 -24.5h-179zM256 737q155 -190 299 -255q85 34 170 103.5t146 150.5zM354 1297l183 183l184 -183l-184 -184z" />
    <glyph glyph-name="uni063A.fina" unicode="&#x63a;" horiz-adv-x="1233" arabic-form="final" 
d="M70 -211v5q-4 131 29 238.5t87 178t133 132.5q-120 155 -222 402l1 2h-5v254l1010 -2v-254h-35l28 -22q-46 -182 -164 -319q98 -6 156 -6h155q79 0 135 -56t56 -135t-56 -134.5t-135 -55.5h-155q-162 0 -278.5 24.5t-250.5 92.5q-21 -11 -58 -29.5t-56.5 -28.5
t-51.5 -27.5t-49 -29t-42 -28.5t-38 -31t-28.5 -33t-23 -37t-12 -40t-3.5 -45v-7q4 -42 26.5 -78t66 -68.5t116.5 -54t170.5 -32.5t235.5 -5.5t305 28.5v-285q-218 -31 -386.5 -23t-290.5 44t-202.5 103.5t-121 157t-46.5 204.5zM283 746q50 -86 112 -138t177 -113
q13 6 50.5 25t51.5 26t46 24.5t47 26.5t41.5 25t41.5 28.5t33.5 28.5t32.5 32.5t25 33.5zM401 1313l184 184l183 -184l-183 -183z" />
    <glyph glyph-name="uni0641.init" unicode="&#x641;" horiz-adv-x="890" arabic-form="initial" 
d="M830 569q0 -278 -79 -415t-258 -137h-502q-79 0 -135 55.5t-56 134.5t56 135t135 56h502q32 -2 58 0t46 1t35.5 3.5t26.5 6.5t19 11t12.5 16.5t7.5 23.5t4 31.5t1 39.5h-270q-103 0 -173.5 22.5t-111.5 69t-57.5 111.5t-13.5 156q8 153 110.5 253.5t252.5 100.5
q106 0 196 -69t142 -188.5t52 -261.5v-156zM202 869q1 -53 41.5 -66.5t189.5 -13.5h265q-15 105 -82 165t-176 60q-113 0 -175 -41t-63 -104zM262 1554l184 184l183 -184l-183 -183z" />
    <glyph glyph-name="uni0641.medi" unicode="&#x641;" horiz-adv-x="892" arabic-form="medial" 
d="M84 607q0 62 15 123.5t45.5 118.5t73 100.5t101.5 69.5t127 26q83 0 153 -39t115 -103t69.5 -142t25.5 -158v-32q0 -91 -19 -173h111q79 0 135 -56t56 -135t-56 -134.5t-135 -55.5h-156q-172 0 -296 36q-122 -36 -293 -36h-165q-79 0 -135 55.5t-56 134.5t56 135t135 56
h112q-19 81 -19 169v40zM211 571q0 -54 63.5 -92t175.5 -58q232 43 232 150v25q0 86 -55 140.5t-181 54.5q-65 0 -113 -15.5t-73.5 -42.5t-37 -58t-11.5 -68v-36zM265 1370l183 183l184 -183l-184 -184z" />
    <glyph glyph-name="uni0641.fina" unicode="&#x641;" horiz-adv-x="2029" arabic-form="final" 
d="M273 845q-82 -144 -85 -299q1 -33 12.5 -57t35 -40t53 -26.5t76 -15.5t93 -7t114.5 -2h670q-20 85 -20 169v40q0 63 15 126t45.5 120t73 101t101.5 70t127 26q84 0 153.5 -39.5t114 -103.5t69 -143t25.5 -161v-32q0 -93 -20 -173h113q79 0 135 -56t56 -135t-56 -134.5
t-135 -55.5h-157q-165 0 -296 38q-129 -38 -292 -38h-722q-260 0 -383.5 120t-127.5 397v8v12q6 183 100 353zM1349 571q0 -51 63.5 -88.5t175.5 -59.5q109 22 170 59.5t61 88.5v25q0 89 -54 144.5t-181 55.5q-125 0 -180 -53.5t-55 -135.5v-36zM1404 1358l184 184l183 -184
l-183 -183z" />
    <glyph glyph-name="uni0642.init" unicode="&#x642;" horiz-adv-x="890" arabic-form="initial" 
d="M830 569q0 -278 -79 -415t-258 -137h-502q-79 0 -135 55.5t-56 134.5t56 135t135 56h502q32 -2 58 0t46 1t35.5 3.5t26.5 6.5t19 11t12.5 16.5t7.5 23.5t4 31.5t1 39.5h-270q-103 0 -173.5 22.5t-111.5 69t-57.5 111.5t-13.5 156q8 153 110.5 253.5t252.5 100.5
q106 0 196 -69t142 -188.5t52 -261.5v-156zM108 1515l184 183l159 -158l157 157l183 -183l-183 -184l-158 159l-158 -158zM202 869q1 -53 41.5 -66.5t189.5 -13.5h265q-15 105 -82 165t-176 60q-113 0 -175 -41t-63 -104z" />
    <glyph glyph-name="uni0642.medi" unicode="&#x642;" horiz-adv-x="892" arabic-form="medial" 
d="M84 607q0 62 15 123.5t45.5 118.5t73 100.5t101.5 69.5t127 26q83 0 153 -39t115 -103t69.5 -142t25.5 -158v-32q0 -91 -19 -173h111q79 0 135 -56t56 -135t-56 -134.5t-135 -55.5h-156q-172 0 -296 36q-122 -36 -293 -36h-165q-79 0 -135 55.5t-56 134.5t56 135t135 56
h112q-19 81 -19 169v40zM111 1330l183 184l159 -158l157 157l184 -183l-184 -184l-158 159l-158 -158zM211 571q0 -54 63.5 -92t175.5 -58q232 43 232 150v25q0 86 -55 140.5t-181 54.5q-65 0 -113 -15.5t-73.5 -42.5t-37 -58t-11.5 -68v-36z" />
    <glyph glyph-name="uni0642.fina" unicode="&#x642;" horiz-adv-x="1309" arabic-form="final" 
d="M336 527q-152 -170 -158 -436q5 -152 92.5 -222t293.5 -70q133 0 221 8.5t145.5 24.5t88.5 47.5t43 69t14 97.5h-269q-89 0 -156 26.5t-107 70t-63.5 105.5t-29.5 126.5t-1 139.5h1q14 164 120.5 275.5t235.5 111.5q64 0 126.5 -31t118 -90.5t95.5 -158.5t52 -223h120
q79 0 135 -56t56 -135t-56 -134.5t-135 -55.5h-116q-5 -113 -26 -201t-67 -164.5t-117 -126.5t-179 -78.5t-250 -28.5q-230 0 -367 177.5t-145 474.5h-1v18q0 12 1 19q6 165 60 293t129 212zM487 1176l184 183l159 -158l157 157l184 -183l-184 -184l-158 159l-158 -158z
M575 467q-2 -65 41 -83.5t191 -18.5h267q-15 147 -86 214.5t-181 67.5q-98 0 -164 -50.5t-66 -123.5v-6h-2z" />
    <glyph glyph-name="uni0643.init" unicode="&#x643;" horiz-adv-x="1193" arabic-form="initial" 
d="M1142 1563v-198l-845 -353l294 -112q201 -82 290.5 -181t95.5 -219v-12v-5q-1 -88 -12 -154.5t-40 -127.5t-77 -99.5t-124 -61.5t-179 -23h-554q-79 0 -135 55.5t-56 134.5t56 135t135 56h554q145 0 204.5 6.5t79.5 23t21 58.5q-6 55 -267 163l-525 199v254h1v9z" />
    <glyph glyph-name="uni0643.medi" unicode="&#x643;" horiz-adv-x="1210" arabic-form="medial" 
d="M1139 1577v-198l-910 -372l233 -113q117 -57 186.5 -115t121.5 -145l1 3q82 -143 156 -191t203 -48h90q79 0 135 -56t56 -135t-56 -134.5t-135 -55.5h-90q-42 0 -75.5 10.5t-74 39.5t-87.5 85.5t-104 144.5q-37 -127 -123.5 -203.5t-206.5 -76.5h-468q-79 0 -135 55.5
t-56 134.5t56 135t135 56h468q105 0 160 18.5t65 47.5q-2 8 -7 17q-20 38 -80 79t-191 104l-363 177v256v33z" />
    <glyph glyph-name="uni0643.fina" unicode="&#x643;" horiz-adv-x="1771" arabic-form="final" 
d="M61 822h127v-243q0 -38 0.5 -57t6 -42.5t12 -33t25 -21.5t37.5 -15t58 -7t78 -4.5t105 -0.5h628q93 0 152 9t92 31t45 51t12 76v41q-1 25 -1 74h1v863h127v-950q2 -47 7 -78.5t17 -54t25 -34.5t40.5 -18.5t53 -8t71.5 -1.5q79 0 135 -56t56 -135t-56 -134.5t-135 -55.5
q-89 0 -158.5 61.5t-114.5 173.5q-106 -235 -369 -235h-628q-108 0 -188.5 28.5t-129.5 76.5t-79 121.5t-41 153t-11 182.5v243zM629 1043l328 100v-113l-189 -58l122 -27q71 -15 100.5 -46t29.5 -92q2 -55 -32.5 -96t-102.5 -45l-231 -11v113l227 11q80 3 80 26
q0 8 -13.5 13.5t-70.5 17.5l-239 51z" />
    <glyph glyph-name="uni0644.init" unicode="&#x644;" horiz-adv-x="456" arabic-form="initial" 
d="M-9 17q-79 0 -135 55.5t-56 134.5t56 135t135 56h23h89.5t57 7.5t38.5 13t16 31t9 46.5v73v967h127v-967q0 -278 -79 -415t-258 -137h-23z" />
    <glyph glyph-name="uni0644.medi" unicode="&#x644;" horiz-adv-x="575" arabic-form="medial" 
d="M-7 17q-77 -1 -134 54.5t-57 135.5q0 79 55 134.5t134 55.5l55 1q68 1 102.5 5t55 20.5t25 39t4.5 70.5v1003h127v-940q0 -43 2.5 -74t8.5 -53t15.5 -35t22.5 -21.5t30.5 -11t39.5 -3.5t49 0h31h25q79 0 135 -56t56 -135t-56 -134.5t-135 -55.5h-25q-175 0 -260 193
q-87 -191 -251 -192z" />
    <glyph glyph-name="uni0644.fina" unicode="&#x644;" horiz-adv-x="1313" arabic-form="final" 
d="M347 745q-153 -171 -159 -438q5 -157 94 -233.5t293 -76.5q73 0 131.5 7.5t112 27.5t89 52t56.5 84t21 122v1253h127v-1029q3 -30 7.5 -51t15 -34t18.5 -20t27 -9.5t30 -3t39 0.5t43 1h31q79 0 135 -56t56 -135t-56 -134.5t-135 -55.5h-31q-116 0 -193 95
q-36 -238 -172 -367t-352 -129q-225 0 -365 185.5t-148 486.5h-1v17q0 12 1 19q6 165 60 293t129 213z" />
    <glyph glyph-name="uni0645.init" unicode="&#x645;" horiz-adv-x="1004" arabic-form="initial" 
d="M944 489v-20q0 -79 -11 -149.5t-38 -138t-69.5 -115.5t-110 -77.5t-153.5 -29.5q-126 0 -210 66.5t-128 177.5q-78 -186 -215 -186h-18q-79 0 -135 55.5t-56 134.5t56 135t135 56h18q57 0 88 4t47.5 18.5t22 31.5t12.5 52q2 15 4 23q19 167 126 277t253 110
q150 0 262 -122t119 -303h1zM306 470v-9q0 -44 16.5 -67.5t73.5 -38t166 -14.5q76 0 120.5 3.5t74 10t41.5 24t15.5 35.5t3.5 55v2q-2 81 -68.5 135t-186.5 54q-115 0 -184.5 -52t-71.5 -138z" />
    <glyph glyph-name="uni0645.medi" unicode="&#x645;" horiz-adv-x="1134" arabic-form="medial" 
d="M944 489v-2l3 -18q6 -35 20.5 -49t45 -18t109.5 -4h22q79 0 134.5 -56t55.5 -135t-55.5 -134.5t-134.5 -55.5h-22q-147 0 -225 170q-90 -228 -335 -228q-126 0 -210 66.5t-128 177.5q-78 -186 -215 -186h-18q-79 0 -135 55.5t-56 134.5t56 135t135 56h18q57 0 88 4
t47.5 18.5t22 31.5t12.5 52q2 15 4 23q19 167 126 277t253 110q150 0 261 -120.5t119 -299.5l1 -5h1zM306 470v-9q0 -44 16.5 -67.5t73.5 -38t166 -14.5q76 0 120.5 3.5t74 10t41.5 24t15.5 35.5t3.5 55v2q-2 81 -68.5 135t-186.5 54q-115 0 -184.5 -52t-71.5 -138z" />
    <glyph glyph-name="uni0645.fina" unicode="&#x645;" horiz-adv-x="1395" arabic-form="final" 
d="M1405 398q79 0 135 -56t56 -135t-56 -134.5t-135 -55.5h-25q-157 0 -237 176q-96 -204 -320 -204q-122 0 -210.5 34.5t-184.5 140.5l-32 -8q-155 -41 -182 -78.5t-26 -201.5v-416h-127v416q0 68 2.5 122.5t11.5 118t24.5 113t42 99.5t62.5 86t88.5 65t118.5 44l33 9
q25 77 43 114q54 114 130.5 179.5t154.5 78t156 -13.5t138.5 -83.5t98.5 -143.5t38 -182q3 -22 8.5 -37t16 -24.5t18.5 -14.5t26.5 -7t29.5 -2t37.5 0.5t40.5 0.5h25zM551 414q118 -43 272 -43q71 0 116.5 4.5t73 11.5t41 23t17.5 31.5t5 43.5q-1 45 -29 85t-71 66t-97 36.5
t-105.5 2t-98.5 -43t-74 -92.5q-31 -64 -50 -125z" />
    <glyph glyph-name="uni0646.init" unicode="&#x646;" horiz-adv-x="470" arabic-form="initial" 
d="M-9 17q-79 0 -135 55.5t-56 134.5t56 135t135 56h88h55t43 2t35 2.5t25 6.5t19.5 9t11.5 15.5t8.5 20t3 28t2.5 34.5v44v303h127v-303q0 -281 -79 -412t-251 -131h-88zM25 1191l183 184l184 -184l-184 -183z" />
    <glyph glyph-name="uni0646.medi" unicode="&#x646;" horiz-adv-x="669" arabic-form="medial" 
d="M396 569q0 -44 1.5 -67t12.5 -45.5t26 -31.5t50 -16.5t77 -9t115 -1.5q79 0 135 -56t56 -135t-56 -134.5t-135 -55.5q-275 0 -363 234q-99 -234 -281 -234h-43q-79 0 -135 55.5t-56 134.5t56 135t135 56h43h14q45 0 64.5 1t50 8t43 23t30 43.5t25 72.5t15.5 107.5
t12 150.5h128q-7 -141 -20 -235zM169 1113l183 184l184 -184l-184 -183z" />
    <glyph glyph-name="uni0646.fina" unicode="&#x646;" horiz-adv-x="1303" arabic-form="final" 
d="M347 724q-153 -171 -159 -436q5 -151 93 -221t294 -70q73 0 131.5 7.5t112 27.5t89 52t56.5 84t21 122v553h127v-344q0 -31 0.5 -47.5t6 -30t10.5 -18t21.5 -7.5t29.5 -1.5t45 2.5t59 1h28q79 0 135 -56t56 -135t-56 -134.5t-135 -55.5h-28q-115 0 -187 78
q-40 -230 -175 -354.5t-347 -124.5q-230 0 -367.5 177.5t-145.5 474.5h-1v17q0 13 1 20q6 165 60 292.5t129 211.5zM451 1124l184 183l183 -183l-183 -184z" />
    <glyph glyph-name="uni0647.init" unicode="&#x647;" horiz-adv-x="1214" arabic-form="initial" 
d="M-9 17q-79 0 -135 55.5t-56 134.5t56 135t135 56h49q23 0 125 -2q-36 85 -36 191q0 175 96 281q-62 2 -96 2v254q206 0 375.5 -30.5t288.5 -85t201 -129.5t120.5 -163.5t38.5 -187.5v-19q2 -76 -9 -143t-41.5 -132.5t-79.5 -112t-129.5 -75t-184.5 -28.5q-97 0 -152 6
t-125 29q-54 -20 -116.5 -29.5t-100.5 -10t-99.5 1.5t-75.5 2h-49zM225 587q0 -62 55 -113t153 -68q7 1 18.5 3.5t16.5 3.5l3 2h2q96 42 133 80.5t36 90.5q0 46 -23.5 80.5t-60 51.5t-81 24t-89 -2.5t-81 -28t-59.5 -51.5t-23 -73zM692 804q46 -90 47 -217q1 -99 -34 -188h4
q127 0 199 13.5t95.5 34.5t22.5 55v39q-7 74 -90 145t-244 118z" />
    <glyph glyph-name="uni0647.medi" unicode="&#x647;" horiz-adv-x="860" arabic-form="medial" 
d="M-27 17q-79 0 -135 55.5t-56 134.5t56 135t135 56h125q5 90 19.5 175.5t42 168.5t65 144.5t92.5 99.5t121 38q79 0 150 -70t114 -183t47 -237q2 -67 -7 -136h145q79 0 135 -56t56 -135t-56 -134.5t-135 -55.5h-153q5 -70 4 -121q-3 -95 -28.5 -173t-66.5 -129t-93.5 -80
t-107.5 -32.5t-110 20.5t-100.5 72t-79.5 129t-46 185q-7 56 -11 129h-122zM224 17q1 -15 4.5 -44.5t4.5 -38.5q5 -44 45.5 -73t95 -36t108.5 -2t91.5 28t38.5 55q2 66 -3 94.5t-30 81.5q-99 -68 -245 -65l-100 1v-1h-10zM224 398l112 -1q71 -1 116 0t79 7t51 12.5t27 22.5
t12 32t2 45q-3 189 -185 189q-116 0 -162 -76.5t-52 -230.5z" />
    <glyph glyph-name="uni0647.fina" unicode="&#x647;" horiz-adv-x="1103" arabic-form="final" 
d="M1112 398q79 0 135 -56t56 -135t-56 -134.5t-135 -55.5h-13q-217 0 -292 212q-102 -173 -330 -173q-92 0 -164.5 28t-118 74t-76 111t-43 132.5t-14.5 144.5v9q0 10 1 15q3 79 28.5 152t74 136.5t131 101.5t189.5 38q164 0 278 -100v157h127v-445v0v-41q0 -40 -0.5 -57
t4 -41.5t6 -31.5t16.5 -19t23.5 -13.5t38.5 -5t51 -3.5h70h13zM188 557q2 -47 23 -71t83 -36.5t183 -12.5q82 0 131 4.5t82.5 13t47.5 29.5t19.5 45.5t5.5 69.5q-1 43 -41.5 76.5t-102.5 50t-134 16.5q-86 0 -146 -14.5t-91 -42t-44.5 -58t-15.5 -70.5z" />
    <glyph glyph-name="uni0648.fina" unicode="&#x648;" horiz-adv-x="890" arabic-form="final" 
d="M85 -484v287h169q185 0 288 47.5t138 166.5h-228q-90 0 -159.5 27t-112 72.5t-68.5 110t-34 134t-4 150.5h1q13 166 116.5 284t231.5 118q58 0 111 -16t103.5 -54.5t89 -96.5t64.5 -147t33 -201h75q79 0 135 -56t56 -135t-56 -134.5t-135 -55.5h-82q-18 -140 -71 -240.5
t-131.5 -156t-167 -80t-193.5 -24.5h-169zM200 470q1 -24 10.5 -37.5t39 -21.5t74.5 -10.5t128 -2.5h244q-14 148 -82 203.5t-191 55.5q-103 0 -163 -55t-60 -132z" />
    <glyph glyph-name="uni0649.fina" unicode="&#x649;" horiz-adv-x="1409" arabic-form="final" 
d="M764 516q228 -71 358.5 -94.5t296.5 -23.5q79 0 135 -56t56 -135t-56 -134.5t-135 -55.5q-81 0 -153 6q0 -133 -46.5 -236.5t-125.5 -165t-175 -92.5t-204 -31q-154 0 -270 37t-200.5 115.5t-127.5 201.5t-52.5 294.5t23.5 394.5h132q-24 -155 -30 -263.5t10 -192
t50.5 -133.5t101 -81.5t151.5 -42.5t212 -11q199 0 300.5 53t109.5 173q-130 27 -398 109z" />
    <glyph glyph-name="uni064A.init" unicode="&#x64a;" horiz-adv-x="605" arabic-form="initial" 
d="M-9 17q-79 0 -135 55.5t-56 134.5t56 135t135 56h88h55t43 2t35 2.5t25 6.5t19.5 9t11.5 15.5t8.5 20t3 28t2.5 34.5v44v303h127v-303q0 -281 -79 -412t-251 -131h-88zM-67 -269l169 170l147 -147l146 146l169 -170l-169 -169l-147 147l-146 -147z" />
    <glyph glyph-name="uni064A.medi" unicode="&#x64a;" horiz-adv-x="669" arabic-form="medial" 
d="M396 569q0 -44 1.5 -67t12.5 -45.5t26 -31.5t50 -16.5t77 -9t115 -1.5q79 0 135 -56t56 -135t-56 -134.5t-135 -55.5q-275 0 -363 234q-99 -234 -281 -234h-43q-79 0 -135 55.5t-56 134.5t56 135t135 56h43h14q45 0 64.5 1t50 8t43 23t30 43.5t25 72.5t15.5 107.5
t12 150.5h128q-7 -141 -20 -235zM-16 -291l184 184l159 -159l157 158l184 -184l-184 -183l-158 158l-158 -157z" />
    <glyph glyph-name="uni064A.fina" unicode="&#x64a;" horiz-adv-x="1409" arabic-form="final" 
d="M764 516q228 -71 358.5 -94.5t296.5 -23.5q79 0 135 -56t56 -135t-56 -134.5t-135 -55.5q-81 0 -153 6q0 -133 -46.5 -236.5t-125.5 -165t-175 -92.5t-204 -31q-154 0 -270 37t-200.5 115.5t-127.5 201.5t-52.5 294.5t23.5 394.5h132q-24 -155 -30 -263.5t10 -192
t50.5 -133.5t101 -81.5t151.5 -42.5t212 -11q199 0 300.5 53t109.5 173q-130 27 -398 109zM343 -772l184 184l159 -159l157 158l183 -184l-183 -183l-158 158l-158 -157z" />
    <glyph glyph-name="uni066E.init" unicode="&#x66e;" horiz-adv-x="470" 
d="M-9 17q-79 0 -135 55.5t-56 134.5t56 135t135 56h88h55t43 2t35 2.5t25 6.5t19.5 9t11.5 15.5t8.5 20t3 28t2.5 34.5v44v303h127v-303q0 -281 -79 -412t-251 -131h-88z" />
    <glyph glyph-name="uni066E.medi" unicode="&#x66e;" horiz-adv-x="669" 
d="M396 569q0 -44 1.5 -67t12.5 -45.5t26 -31.5t50 -16.5t77 -9t115 -1.5q79 0 135 -56t56 -135t-56 -134.5t-135 -55.5q-275 0 -363 234q-99 -234 -281 -234h-43q-79 0 -135 55.5t-56 134.5t56 135t135 56h43h14q45 0 64.5 1t50 8t43 23t30 43.5t25 72.5t15.5 107.5
t12 150.5h128q-7 -141 -20 -235z" />
    <glyph glyph-name="uni066E.fina" unicode="&#x66e;" horiz-adv-x="1739" 
d="M273 845q-82 -144 -85 -299q1 -33 12.5 -57t35 -40t53 -26.5t76 -15.5t93 -7t114.5 -2h583q118 0 180 17t83 49t21 91v369h127v-369q0 -27 -1 -40q0 -26 3 -43t7 -31t15.5 -21.5t21.5 -13t34 -7t44 -2t59 -0.5q79 0 134.5 -55.5t55.5 -134.5t-55.5 -134.5t-134.5 -55.5
q-85 -1 -150.5 50.5t-105.5 145.5q-106 -196 -338 -196h-583q-260 0 -383.5 120t-127.5 397v8v12q6 183 100 353z" />
    <glyph glyph-name="uni066F.fina" unicode="&#x66f;" horiz-adv-x="1309" 
d="M336 527q-152 -170 -158 -436q5 -152 92.5 -222t293.5 -70q133 0 221 8.5t145.5 24.5t88.5 47.5t43 69t14 97.5h-269q-89 0 -156 26.5t-107 70t-63.5 105.5t-29.5 126.5t-1 139.5h1q14 164 120.5 275.5t235.5 111.5q64 0 126.5 -31t118 -90.5t95.5 -158.5t52 -223h120
q79 0 135 -56t56 -135t-56 -134.5t-135 -55.5h-116q-5 -113 -26 -201t-67 -164.5t-117 -126.5t-179 -78.5t-250 -28.5q-230 0 -367 177.5t-145 474.5h-1v18q0 12 1 19q6 165 60 293t129 212zM575 467q-2 -65 41 -83.5t191 -18.5h267q-15 147 -86 214.5t-181 67.5
q-98 0 -164 -50.5t-66 -123.5v-6h-2z" />
    <glyph glyph-name="uni0671.fina" unicode="&#x671;" horiz-adv-x="476" arabic-form="final" 
d="M486 398q79 0 135 -56t56 -135t-56 -134.5t-135 -55.5h-31q-182 0 -263 139t-81 430v950h127v-950q0 -112 10 -140q13 -35 63 -43q32 -5 144 -5h31zM-127 1667v148h11q86 0 86 53v94h54v-94l-1 -17q60 62 125 98.5t119.5 43.5t98.5 -6.5t69 -49.5t25 -86v-5
q0 -74 -32 -126.5t-105 -52.5h-68q-109 0 -163 14.5t-100 59.5q-40 -74 -108 -74h-11zM102 1824q50 -9 153 -9h68q59 0 71.5 5t12.5 26v5q0 22 -17 37.5t-47 20t-67.5 -0.5t-83.5 -26.5t-90 -57.5z" />
    <glyph glyph-name="uni0679.init" unicode="&#x679;" horiz-adv-x="470" arabic-form="initial" 
d="M-9 17q-79 0 -135 55.5t-56 134.5t56 135t135 56h88h55t43 2t35 2.5t25 6.5t19.5 9t11.5 15.5t8.5 20t3 28t2.5 34.5v44v303h127v-303q0 -281 -79 -412t-251 -131h-88zM65 1027v120h63v355h40v-314q43 52 93.5 82.5t94.5 36.5t80.5 -5t58 -42t21.5 -74v-3q0 -62 -31 -109
t-97 -47h-323zM195 1147h193q53 0 71 9t18 27v3q0 45 -44 63t-112.5 -7.5t-125.5 -94.5z" />
    <glyph glyph-name="uni0679.medi" unicode="&#x679;" horiz-adv-x="669" arabic-form="medial" 
d="M396 569q0 -44 1.5 -67t12.5 -45.5t26 -31.5t50 -16.5t77 -9t115 -1.5q79 0 135 -56t56 -135t-56 -134.5t-135 -55.5q-275 0 -363 234q-99 -234 -281 -234h-43q-79 0 -135 55.5t-56 134.5t56 135t135 56h43h14q45 0 64.5 1t50 8t43 23t30 43.5t25 72.5t15.5 107.5
t12 150.5h128q-7 -141 -20 -235zM110 949v120h63v356h40v-315q43 52 93.5 82.5t94.5 36.5t80.5 -5t58 -42t21.5 -74v-3q0 -62 -31 -109t-97 -47h-323zM240 1069h193q53 0 71 9t18 27v3q0 45 -44 63t-112.5 -7.5t-125.5 -94.5z" />
    <glyph glyph-name="uni0679.fina" unicode="&#x679;" horiz-adv-x="1739" arabic-form="final" 
d="M273 845q-82 -144 -85 -299q1 -33 12.5 -57t35 -40t53 -26.5t76 -15.5t93 -7t114.5 -2h583q118 0 180 17t83 49t21 91v369h127v-369q0 -27 -1 -40q0 -26 3 -43t7 -31t15.5 -21.5t21.5 -13t34 -7t44 -2t59 -0.5q79 0 134.5 -55.5t55.5 -134.5t-55.5 -134.5t-134.5 -55.5
q-85 -1 -150.5 50.5t-105.5 145.5q-106 -196 -338 -196h-583q-260 0 -383.5 120t-127.5 397v8v12q6 183 100 353zM596 981v120h63v356h41v-315q43 52 93.5 82.5t94.5 36.5t80.5 -5t58 -42t21.5 -74v-3q0 -62 -31 -109t-97 -47h-324zM727 1101h193q53 0 70.5 9t17.5 27v3
q0 45 -44 63t-112 -7.5t-125 -94.5z" />
    <glyph glyph-name="uni067E.init" unicode="&#x67e;" horiz-adv-x="470" arabic-form="initial" 
d="M-9 17q-79 0 -135 55.5t-56 134.5t56 135t135 56h88h55t43 2t35 2.5t25 6.5t19.5 9t11.5 15.5t8.5 20t3 28t2.5 34.5v44v303h127v-303q0 -281 -79 -412t-251 -131h-88zM-102 -260l184 184l159 -159l157 158l184 -184l-184 -183l-158 158l-158 -157zM57 -543l183 183
l184 -183l-184 -184z" />
    <glyph glyph-name="uni067E.medi" unicode="&#x67e;" horiz-adv-x="669" arabic-form="medial" 
d="M396 569q0 -44 1.5 -67t12.5 -45.5t26 -31.5t50 -16.5t77 -9t115 -1.5q79 0 135 -56t56 -135t-56 -134.5t-135 -55.5q-275 0 -363 234q-99 -234 -281 -234h-43q-79 0 -135 55.5t-56 134.5t56 135t135 56h43h14q45 0 64.5 1t50 8t43 23t30 43.5t25 72.5t15.5 107.5
t12 150.5h128q-7 -141 -20 -235zM-20 -260l183 184l159 -159l157 158l184 -184l-184 -183l-158 158l-158 -157zM138 -543l183 183l184 -183l-184 -184z" />
    <glyph glyph-name="uni067E.fina" unicode="&#x67e;" horiz-adv-x="1739" arabic-form="final" 
d="M273 845q-82 -144 -85 -299q1 -33 12.5 -57t35 -40t53 -26.5t76 -15.5t93 -7t114.5 -2h583q118 0 180 17t83 49t21 91v369h127v-369q0 -27 -1 -40q0 -26 3 -43t7 -31t15.5 -21.5t21.5 -13t34 -7t44 -2t59 -0.5q79 0 134.5 -55.5t55.5 -134.5t-55.5 -134.5t-134.5 -55.5
q-85 -1 -150.5 50.5t-105.5 145.5q-106 -196 -338 -196h-583q-260 0 -383.5 120t-127.5 397v8v12q6 183 100 353zM494 -260l183 184l159 -159l158 158l183 -184l-183 -183l-158 158l-159 -157zM652 -543l184 183l183 -183l-183 -184z" />
    <glyph glyph-name="uni0686.init" unicode="&#x686;" horiz-adv-x="1250" arabic-form="initial" 
d="M1192 430q-107 -86 -208 -153t-178.5 -110t-160 -73t-135.5 -45t-124 -22.5t-106.5 -8.5t-99.5 -1h-17h-172q-79 0 -135 55.5t-56 134.5t56 135t135 56h172q91 0 164 4.5t183.5 21t227 56t228.5 100.5q-144 38 -375 156q-248 130 -502 -47v205q92 52 175.5 73t181 8
t202.5 -67q164 -83 274 -119.5t270 -54.5v-304zM256 -247l183 184l159 -159l157 158l184 -183l-184 -184l-158 158l-158 -157zM414 -530l183 183l184 -183l-184 -184z" />
    <glyph glyph-name="uni0686.medi" unicode="&#x686;" horiz-adv-x="1366" arabic-form="medial" 
d="M1192 430l-19 -15q80 -17 180 -17h22q79 0 135 -56t56 -135t-56 -134.5t-135 -55.5h-22q-147 0 -239.5 48t-199.5 166q-74 -46 -145.5 -81t-125.5 -57.5t-118.5 -38t-100 -22.5t-97 -11t-83 -4h-81.5h-172q-79 0 -135 55.5t-56 134.5t56 135t135 56h172q91 0 164 4.5
t183.5 21t227 56t228.5 100.5q-144 38 -375 156q-248 130 -502 -47v205q92 52 175.5 73t181 8t202.5 -67q164 -83 274 -119.5t270 -54.5v-304zM292 -200l183 184l159 -159l157 158l184 -184l-184 -183l-158 158l-158 -157zM450 -483l183 183l184 -183l-184 -184z" />
    <glyph glyph-name="uni0686.fina" unicode="&#x686;" horiz-adv-x="1419" arabic-form="final" 
d="M1269 786v-377q64 -11 130 -11h30q79 0 135 -56t56 -135t-56 -134.5t-135 -55.5h-30q-304 0 -471 314q-216 -51 -364.5 -105t-230.5 -112.5t-115.5 -117t-29.5 -126.5q4 -42 20 -79.5t50 -73.5t83.5 -64t123 -48t165 -29t213.5 -4.5t265 24.5v-254q-220 -31 -390 -17.5
t-291.5 55.5t-201 117t-119 167t-45.5 204q-4 150 41.5 276t146 234.5t270.5 192t404 137.5q-46 24 -137 79t-130 77q-217 126 -510 -55v206q71 38 134 60t136 31t149.5 -8.5t154.5 -62.5q37 -21 114.5 -68.5t110 -65t91.5 -44.5t112.5 -40t118.5 -19l-1 -12h3zM546 -16
l129 128l111 -110l110 110l129 -128l-129 -129l-110 111l-111 -110zM657 -215l129 129l128 -129l-128 -127z" />
    <glyph glyph-name="uni0688.fina" unicode="&#x688;" horiz-adv-x="1010" arabic-form="final" 
d="M843 501q-2 -52 -4 -77q60 -26 160 -26h20q79 0 135 -56t56 -135t-56 -134.5t-135 -55.5h-20q-154 0 -249 140q-104 -140 -319 -140h-387v381h387q117 0 179.5 12t83 32.5t21.5 58.5h1v6q0 95 -63.5 147.5t-173 61.5t-255.5 -5v254q619 64 619 -458v-6zM166 1120v119h63
v356h41v-315q43 52 93.5 83t94.5 36.5t80.5 -5t58 -41.5t21.5 -74v-4q0 -62 -31 -108.5t-97 -46.5h-324zM297 1239h193q53 0 70.5 9t17.5 27v4q0 45 -44 63t-112 -8t-125 -95z" />
    <glyph glyph-name="uni0691.fina" unicode="&#x691;" horiz-adv-x="729" arabic-form="final" 
d="M0 -152q56 0 98 1.5t79.5 7.5t63.5 13t48 22t36 29t25 41t16 51.5t8.5 66t4.5 79t1 95.5v589h127v-274v-73t9 -46.5t16 -31t38 -13t56.5 -7.5h89.5h23q79 0 135 -56t56 -135t-56 -134.5t-135 -55.5h-23q-133 0 -213 80q-6 -111 -23 -196.5t-53 -163.5t-90.5 -129
t-139.5 -80.5t-197 -29.5v350zM229 981v120h63v356h41v-315q43 52 93.5 82.5t94.5 36.5t80.5 -5t58 -42t21.5 -74v-3q0 -62 -31 -109t-97 -47h-324zM360 1101h193q53 0 70.5 9t17.5 27v3q0 45 -44 63t-112 -7.5t-125 -94.5z" />
    <glyph glyph-name="uni0698.fina" unicode="&#x698;" horiz-adv-x="729" arabic-form="final" 
d="M0 -152q56 0 98 1.5t79.5 7.5t63.5 13t48 22t36 29t25 41t16 51.5t8.5 66t4.5 79t1 95.5v589h127v-274v-73t9 -46.5t16 -31t38 -13t56.5 -7.5h89.5h23q79 0 135 -56t56 -135t-56 -134.5t-135 -55.5h-23q-133 0 -213 80q-6 -111 -23 -196.5t-53 -163.5t-90.5 -129
t-139.5 -80.5t-197 -29.5v350zM135 1117l184 183l159 -159l158 158l183 -183l-183 -184l-159 159l-158 -158zM293 1399l184 184l184 -184l-184 -183z" />
    <glyph glyph-name="uni06A1.init" unicode="&#x6a1;" horiz-adv-x="890" 
d="M830 569q0 -278 -79 -415t-258 -137h-502q-79 0 -135 55.5t-56 134.5t56 135t135 56h502q32 -2 58 0t46 1t35.5 3.5t26.5 6.5t19 11t12.5 16.5t7.5 23.5t4 31.5t1 39.5h-270q-103 0 -173.5 22.5t-111.5 69t-57.5 111.5t-13.5 156q8 153 110.5 253.5t252.5 100.5
q106 0 196 -69t142 -188.5t52 -261.5v-156zM202 869q1 -53 41.5 -66.5t189.5 -13.5h265q-15 105 -82 165t-176 60q-113 0 -175 -41t-63 -104z" />
    <glyph glyph-name="uni06A1.medi" unicode="&#x6a1;" horiz-adv-x="892" 
d="M84 607q0 62 15 123.5t45.5 118.5t73 100.5t101.5 69.5t127 26q83 0 153 -39t115 -103t69.5 -142t25.5 -158v-32q0 -91 -19 -173h111q79 0 135 -56t56 -135t-56 -134.5t-135 -55.5h-156q-172 0 -296 36q-122 -36 -293 -36h-165q-79 0 -135 55.5t-56 134.5t56 135t135 56
h112q-19 81 -19 169v40zM211 571q0 -54 63.5 -92t175.5 -58q232 43 232 150v25q0 86 -55 140.5t-181 54.5q-65 0 -113 -15.5t-73.5 -42.5t-37 -58t-11.5 -68v-36z" />
    <glyph glyph-name="uni06A1.fina" unicode="&#x6a1;" horiz-adv-x="2029" 
d="M273 845q-82 -144 -85 -299q1 -33 12.5 -57t35 -40t53 -26.5t76 -15.5t93 -7t114.5 -2h670q-20 85 -20 169v40q0 63 15 126t45.5 120t73 101t101.5 70t127 26q84 0 153.5 -39.5t114 -103.5t69 -143t25.5 -161v-32q0 -93 -20 -173h113q79 0 135 -56t56 -135t-56 -134.5
t-135 -55.5h-157q-165 0 -296 38q-129 -38 -292 -38h-722q-260 0 -383.5 120t-127.5 397v8v12q6 183 100 353zM1349 571q0 -51 63.5 -88.5t175.5 -59.5q109 22 170 59.5t61 88.5v25q0 89 -54 144.5t-181 55.5q-125 0 -180 -53.5t-55 -135.5v-36z" />
    <glyph glyph-name="uni06A4.init" unicode="&#x6a4;" horiz-adv-x="890" arabic-form="initial" 
d="M830 569q0 -278 -79 -415t-258 -137h-502q-79 0 -135 55.5t-56 134.5t56 135t135 56h502q32 -2 58 0t46 1t35.5 3.5t26.5 6.5t19 11t12.5 16.5t7.5 23.5t4 31.5t1 39.5h-270q-103 0 -173.5 22.5t-111.5 69t-57.5 111.5t-13.5 156q8 153 110.5 253.5t252.5 100.5
q106 0 196 -69t142 -188.5t52 -261.5v-156zM109 1525l183 184l159 -159l158 158l184 -183l-184 -184l-158 159l-159 -158zM202 869q1 -53 41.5 -66.5t189.5 -13.5h265q-15 105 -82 165t-176 60q-113 0 -175 -41t-63 -104zM267 1808l184 183l184 -183l-184 -184z" />
    <glyph glyph-name="uni06A4.medi" unicode="&#x6a4;" horiz-adv-x="892" arabic-form="medial" 
d="M84 607q0 62 15 123.5t45.5 118.5t73 100.5t101.5 69.5t127 26q83 0 153 -39t115 -103t69.5 -142t25.5 -158v-32q0 -91 -19 -173h111q79 0 135 -56t56 -135t-56 -134.5t-135 -55.5h-156q-172 0 -296 36q-122 -36 -293 -36h-165q-79 0 -135 55.5t-56 134.5t56 135t135 56
h112q-19 81 -19 169v40zM111 1341l184 184l159 -159l158 158l183 -184l-183 -183l-159 159l-158 -158zM211 571q0 -54 63.5 -92t175.5 -58q232 43 232 150v25q0 86 -55 140.5t-181 54.5q-65 0 -113 -15.5t-73.5 -42.5t-37 -58t-11.5 -68v-36zM270 1624l183 183l184 -183
l-184 -184z" />
    <glyph glyph-name="uni06A4.fina" unicode="&#x6a4;" horiz-adv-x="2029" arabic-form="final" 
d="M273 845q-82 -144 -85 -299q1 -33 12.5 -57t35 -40t53 -26.5t76 -15.5t93 -7t114.5 -2h670q-20 85 -20 169v40q0 63 15 126t45.5 120t73 101t101.5 70t127 26q84 0 153.5 -39.5t114 -103.5t69 -143t25.5 -161v-32q0 -93 -20 -173h113q79 0 135 -56t56 -135t-56 -134.5
t-135 -55.5h-157q-165 0 -296 38q-129 -38 -292 -38h-722q-260 0 -383.5 120t-127.5 397v8v12q6 183 100 353zM1251 1330l183 183l159 -159l158 158l184 -183l-184 -184l-158 159l-159 -158zM1349 571q0 -51 63.5 -88.5t175.5 -59.5q109 22 170 59.5t61 88.5v25
q0 89 -54 144.5t-181 55.5q-125 0 -180 -53.5t-55 -135.5v-36zM1409 1612l184 184l184 -184l-184 -183z" />
    <glyph glyph-name="uni06A9.init" unicode="&#x6a9;" horiz-adv-x="1193" arabic-form="initial" 
d="M1142 1563v-198l-845 -353l294 -112q201 -82 290.5 -181t95.5 -219v-12v-5q-1 -88 -12 -154.5t-40 -127.5t-77 -99.5t-124 -61.5t-179 -23h-554q-79 0 -135 55.5t-56 134.5t56 135t135 56h554q145 0 204.5 6.5t79.5 23t21 58.5q-6 55 -267 163l-525 199v254h1v9z" />
    <glyph glyph-name="uni06A9.medi" unicode="&#x6a9;" horiz-adv-x="1210" arabic-form="medial" 
d="M1139 1577v-198l-910 -372l233 -113q117 -57 186.5 -115t121.5 -145l1 3q82 -143 156 -191t203 -48h90q79 0 135 -56t56 -135t-56 -134.5t-135 -55.5h-90q-42 0 -75.5 10.5t-74 39.5t-87.5 85.5t-104 144.5q-37 -127 -123.5 -203.5t-206.5 -76.5h-468q-79 0 -135 55.5
t-56 134.5t56 135t135 56h468q105 0 160 18.5t65 47.5q-2 8 -7 17q-20 38 -80 79t-191 104l-363 177v256v33z" />
    <glyph glyph-name="uni06A9.fina" unicode="&#x6a9;" horiz-adv-x="1941" arabic-form="final" 
d="M61 822h127v-243q0 -38 0.5 -57t6 -42.5t12 -33t25 -21.5t37.5 -15t58 -7t78 -4.5t105 -0.5h602q145 0 204.5 6.5t79.5 23t21 58.5q-6 55 -267 163l-525 199v254h1v9l1083 452v-198l-846 -353l295 -112q185 -76 275.5 -166t106.5 -197q65 -87 137 -113.5t183 -25.5h91
q79 0 134.5 -56t55.5 -135t-55.5 -134.5t-134.5 -55.5h-91q-46 0 -77 6.5t-73.5 29.5t-90 75t-103.5 136q-37 -121 -132 -184t-272 -63h-602q-108 0 -188.5 28.5t-129.5 76.5t-79 121.5t-41 153t-11 182.5v243z" />
    <glyph glyph-name="uni06AF.init" unicode="&#x6af;" horiz-adv-x="1193" arabic-form="initial" 
d="M1142 1563v-198l-845 -353l294 -112q201 -82 290.5 -181t95.5 -219v-12v-5q-1 -88 -12 -154.5t-40 -127.5t-77 -99.5t-124 -61.5t-179 -23h-554q-79 0 -135 55.5t-56 134.5t56 135t135 56h554q145 0 204.5 6.5t79.5 23t21 58.5q-6 55 -267 163l-525 199v254h1v9zM6 1432
l833 345l49 -118l-833 -345z" />
    <glyph glyph-name="uni06AF.medi" unicode="&#x6af;" horiz-adv-x="1210" arabic-form="medial" 
d="M1139 1577v-198l-910 -372l233 -113q117 -57 186.5 -115t121.5 -145l1 3q82 -143 156 -191t203 -48h90q79 0 135 -56t56 -135t-56 -134.5t-135 -55.5h-90q-42 0 -75.5 10.5t-74 39.5t-87.5 85.5t-104 144.5q-37 -127 -123.5 -203.5t-206.5 -76.5h-468q-79 0 -135 55.5
t-56 134.5t56 135t135 56h468q105 0 160 18.5t65 47.5q-2 8 -7 17q-20 38 -80 79t-191 104l-363 177v256v33zM-2 1457l833 345l50 -118l-833 -345z" />
    <glyph glyph-name="uni06AF.fina" unicode="&#x6af;" horiz-adv-x="1941" arabic-form="final" 
d="M61 822h127v-243q0 -38 0.5 -57t6 -42.5t12 -33t25 -21.5t37.5 -15t58 -7t78 -4.5t105 -0.5h602q145 0 204.5 6.5t79.5 23t21 58.5q-6 55 -267 163l-525 199v254h1v9l1083 452v-198l-846 -353l295 -112q185 -76 275.5 -166t106.5 -197q65 -87 137 -113.5t183 -25.5h91
q79 0 134.5 -56t55.5 -135t-55.5 -134.5t-134.5 -55.5h-91q-46 0 -77 6.5t-73.5 29.5t-90 75t-103.5 136q-37 -121 -132 -184t-272 -63h-602q-108 0 -188.5 28.5t-129.5 76.5t-79 121.5t-41 153t-11 182.5v243zM618 1448l833 344l49 -118l-833 -344z" />
    <glyph glyph-name="uni06BA.fina" unicode="&#x6ba;" horiz-adv-x="1303" arabic-form="final" 
d="M347 724q-153 -171 -159 -436q5 -151 93 -221t294 -70q73 0 131.5 7.5t112 27.5t89 52t56.5 84t21 122v553h127v-344q0 -31 0.5 -47.5t6 -30t10.5 -18t21.5 -7.5t29.5 -1.5t45 2.5t59 1h28q79 0 135 -56t56 -135t-56 -134.5t-135 -55.5h-28q-115 0 -187 78
q-40 -230 -175 -354.5t-347 -124.5q-230 0 -367.5 177.5t-145.5 474.5h-1v17q0 13 1 20q6 165 60 292.5t129 211.5z" />
    <glyph glyph-name="uni06BE.init" unicode="&#x6be;" horiz-adv-x="1214" arabic-form="initial" 
d="M-9 17q-79 0 -135 55.5t-56 134.5t56 135t135 56h49q23 0 125 -2q-36 85 -36 191q0 175 96 281q-62 2 -96 2v254q206 0 375.5 -30.5t288.5 -85t201 -129.5t120.5 -163.5t38.5 -187.5v-19q2 -76 -9 -143t-41.5 -132.5t-79.5 -112t-129.5 -75t-184.5 -28.5q-97 0 -152 6
t-125 29q-54 -20 -116.5 -29.5t-100.5 -10t-99.5 1.5t-75.5 2h-49zM225 587q0 -62 55 -113t153 -68q7 1 18.5 3.5t16.5 3.5l3 2h2q96 42 133 80.5t36 90.5q0 46 -23.5 80.5t-60 51.5t-81 24t-89 -2.5t-81 -28t-59.5 -51.5t-23 -73zM692 804q46 -90 47 -217q1 -99 -34 -188h4
q127 0 199 13.5t95.5 34.5t22.5 55v39q-7 74 -90 145t-244 118z" />
    <glyph glyph-name="uni06BE.medi" unicode="&#x6be;" horiz-adv-x="1225" arabic-form="medial" 
d="M-9 17q-79 0 -135 55.5t-56 134.5t56 135t135 56h49q23 0 125 -2q-36 85 -36 191q0 175 96 281q-62 2 -96 2v254q206 0 375.5 -30.5t288.5 -85t201 -129.5t120.5 -163.5t38.5 -187.5v-19q1 -52 -5 -111h87q79 0 134.5 -56t55.5 -135t-55.5 -134.5t-134.5 -55.5h-448
q-15 0 -30 3q-32 -2 -48 -2q-97 0 -152 6t-125 29q-54 -20 -116.5 -29.5t-100.5 -10t-99.5 1.5t-75.5 2h-49zM225 587q0 -62 55 -113t153 -68q7 1 18.5 3.5t16.5 3.5l3 2h2q96 42 133 80.5t36 90.5q0 46 -23.5 80.5t-60 51.5t-81 24t-89 -2.5t-81 -28t-59.5 -51.5t-23 -73z
M692 804q46 -90 47 -217q1 -99 -34 -188h4q127 0 199 13.5t95.5 34.5t22.5 55v39q-7 74 -90 145t-244 118z" />
    <glyph glyph-name="uni06BE.fina" unicode="&#x6be;" horiz-adv-x="1006" arabic-form="final" 
d="M751 516q-2 80 -52.5 139t-125.5 51q-70 -7 -109 -37.5t-51.5 -80t-14.5 -117.5t2 -151l26 8q322 99 325 188zM57 214l217 67q5 712 286 741q77 8 150 -68.5t117 -190t50 -222.5q4 -74 -8 -143h147q79 0 135 -56t56 -135t-56 -134.5t-135 -55.5h-63q9 -75 -3.5 -149
t-40.5 -134.5t-71.5 -107t-94 -72t-110 -25t-118.5 31.5q-49 26 -102.5 126t-90.5 234l-227 -71zM461 -36q45 -85 113 -121q43 -22 81.5 -29.5t66.5 1t48 26.5t26 47.5t1.5 64t-26 76t-57.5 82.5q-103 -100 -250 -146z" />
    <glyph glyph-name="uni06C1.init" unicode="&#x6c1;" horiz-adv-x="524" arabic-form="initial" 
d="M-9 17q-79 0 -135 55.5t-56 134.5t56 135t135 56h88h55t43 2t35 2.5t25 6.5t19.5 9t11.5 15.5t8.5 20t3 28t2.5 34.5v44v303h127v-303q0 -380 -148 -490v-90.5t4.5 -66.5t6 -49.5t15 -31t20.5 -19.5t32.5 -7.5t41.5 -3t57 2.5h1l7 -257q-96 -5 -161 19.5t-95.5 70
t-46 107t-13.5 132t2 143.5q-24 -3 -53 -3h-88z" />
    <glyph glyph-name="uni06C1.medi" unicode="&#x6c1;" horiz-adv-x="860" arabic-form="medial" 
d="M-27 17q-79 0 -135 55.5t-56 134.5t56 135t135 56h125q5 90 19.5 175.5t42 168.5t65 144.5t92.5 99.5t121 38q79 0 150 -70t114 -183t47 -237q2 -67 -7 -136h145q79 0 135 -56t56 -135t-56 -134.5t-135 -55.5h-153q5 -70 4 -121q-3 -95 -28.5 -173t-66.5 -129t-93.5 -80
t-107.5 -32.5t-110 20.5t-100.5 72t-79.5 129t-46 185q-7 56 -11 129h-122zM224 17q1 -15 4.5 -44.5t4.5 -38.5q5 -44 45.5 -73t95 -36t108.5 -2t91.5 28t38.5 55q2 66 -3 94.5t-30 81.5q-99 -68 -245 -65l-100 1v-1h-10zM224 398l112 -1q71 -1 116 0t79 7t51 12.5t27 22.5
t12 32t2 45q-3 189 -185 189q-116 0 -162 -76.5t-52 -230.5z" />
    <glyph glyph-name="uni06C1.fina" unicode="&#x6c1;" horiz-adv-x="1210" arabic-form="final" 
d="M158 -33l-95 256l196 217q72 80 142.5 129t131 65.5t118 14.5t109 -22.5t99 -48t92.5 -59.5t84 -58.5t80 -44.5t75 -18h41q79 0 135 -56t56 -135t-56 -134.5t-135 -55.5h-41q-41 0 -95.5 27t-108.5 65t-116 80t-126 70.5t-128 38.5t-132 -17.5t-130 -96.5z" />
    <glyph glyph-name="uni06C2.fina" unicode="&#x6c2;" horiz-adv-x="1210" 
d="M158 -33l-95 256l196 217q72 80 142.5 129t131 65.5t118 14.5t109 -22.5t99 -48t92.5 -59.5t84 -58.5t80 -44.5t75 -18h41q79 0 135 -56t56 -135t-56 -134.5t-135 -55.5h-41q-41 0 -95.5 27t-108.5 65t-116 80t-126 70.5t-128 38.5t-132 -17.5t-130 -96.5zM430 857v149
h98q-13 47 -5 95t36.5 85t78.5 52.5t121 -2.5v-113q-109 35 -160 -8q-35 -28 -19 -68q12 -26 39 -41h220v-149h-409z" />
    <glyph glyph-name="uni06C3.fina" unicode="&#x6c3;" horiz-adv-x="1210" 
d="M158 -33l-95 256l196 217q72 80 142.5 129t131 65.5t118 14.5t109 -22.5t99 -48t92.5 -59.5t84 -58.5t80 -44.5t75 -18h41q79 0 135 -56t56 -135t-56 -134.5t-135 -55.5h-41q-41 0 -95.5 27t-108.5 65t-116 80t-126 70.5t-128 38.5t-132 -17.5t-130 -96.5zM292 955
l183 184l159 -158l157 157l184 -184l-184 -183l-158 159l-158 -158z" />
    <glyph glyph-name="uni06CC.init" unicode="&#x6cc;" horiz-adv-x="605" arabic-form="initial" 
d="M-9 17q-79 0 -135 55.5t-56 134.5t56 135t135 56h88h55t43 2t35 2.5t25 6.5t19.5 9t11.5 15.5t8.5 20t3 28t2.5 34.5v44v303h127v-303q0 -281 -79 -412t-251 -131h-88zM-67 -269l169 170l147 -147l146 146l169 -170l-169 -169l-147 147l-146 -147z" />
    <glyph glyph-name="uni06CC.medi" unicode="&#x6cc;" horiz-adv-x="669" arabic-form="medial" 
d="M396 569q0 -44 1.5 -67t12.5 -45.5t26 -31.5t50 -16.5t77 -9t115 -1.5q79 0 135 -56t56 -135t-56 -134.5t-135 -55.5q-275 0 -363 234q-99 -234 -281 -234h-43q-79 0 -135 55.5t-56 134.5t56 135t135 56h43h14q45 0 64.5 1t50 8t43 23t30 43.5t25 72.5t15.5 107.5
t12 150.5h128q-7 -141 -20 -235zM-16 -291l184 184l159 -159l157 158l184 -184l-184 -183l-158 158l-158 -157z" />
    <glyph glyph-name="uni06CC.fina" unicode="&#x6cc;" horiz-adv-x="1409" arabic-form="final" 
d="M764 516q228 -71 358.5 -94.5t296.5 -23.5q79 0 135 -56t56 -135t-56 -134.5t-135 -55.5q-81 0 -153 6q0 -133 -46.5 -236.5t-125.5 -165t-175 -92.5t-204 -31q-154 0 -270 37t-200.5 115.5t-127.5 201.5t-52.5 294.5t23.5 394.5h132q-24 -155 -30 -263.5t10 -192
t50.5 -133.5t101 -81.5t151.5 -42.5t212 -11q199 0 300.5 53t109.5 173q-130 27 -398 109z" />
    <glyph glyph-name="uni06D2.fina" unicode="&#x6d2;" horiz-adv-x="1762" arabic-form="final" 
d="M1725 -508q-157 0 -435 -3q-276 -6 -487 -1t-358.5 30.5t-238.5 92.5t-128 184h-1q-15 88 -16 167.5t20 161t65 140.5t127 96.5t199 37.5h1299q79 0 135 -56t56 -135t-56 -134.5t-135 -55.5h-1299q-220 0 -255 -19.5t-16 -132.5q19 -47 90 -73t199.5 -36.5t320 -12
t452.5 0.5q292 2 462 2v-254z" />
    <glyph glyph-name="uni06D3.fina" unicode="&#x6d3;" horiz-adv-x="1762" arabic-form="final" 
d="M1725 -508q-157 0 -435 -3q-276 -6 -487 -1t-358.5 30.5t-238.5 92.5t-128 184h-1q-15 88 -16 167.5t20 161t65 140.5t127 96.5t199 37.5h1299q79 0 135 -56t56 -135t-56 -134.5t-135 -55.5h-1299q-220 0 -255 -19.5t-16 -132.5q19 -47 90 -73t199.5 -36.5t320 -12
t452.5 0.5q292 2 462 2v-254zM708 629v149h97q-13 47 -4.5 95t37 85t78.5 52.5t121 -2.5v-113q-109 35 -160 -8q-35 -28 -19 -68q10 -25 39 -41h220v-149h-409z" />
    <glyph glyph-name="uniFDFC" unicode="&#xfdfc;" horiz-adv-x="2479" arabic-form="isolated" 
d="M1293 -99l159 -159l157 158l183 -183l-183 -184l-158 158l-158 -157l-184 183zM61 300v19q0 14 1 21q11 282 183 491l98 -81q-65 -79 -108 -179t-47 -249q5 -161 98 -238.5t293 -77.5q93 0 162.5 13t128 44t89.5 90.5t31 145.5v1120h500v-829v-78t9 -49.5t16 -33.5
t38 -14t56.5 -8h89.5h15q140 0 174.5 19.5t34.5 104.5v403h127v-403q0 -146 -35 -257t-112.5 -179.5t-188.5 -68.5h-15q-184 0 -260 136t-76 428v448h-246v-739q0 -319 -141.5 -497t-396.5 -178q-222 1 -365 184.5t-152 491.5h-1zM1811 -502v350q56 0 98 1.5t79.5 7.5
t63.5 13t48 22t36 29t25 41t16 51.5t8.5 66t4.5 79t1 95.5v589h127v-589q0 -99 -5 -177.5t-19 -159t-37.5 -141t-62.5 -115t-91.5 -89t-126 -54.5t-165.5 -20z" />
    <glyph glyph-name=".notdef" horiz-adv-x="1025" 
d="M65 1562h897v-1546h-897v1546zM327 372h373v834h-373v-834z" />
    <glyph glyph-name=".null" horiz-adv-x="200" 
 />
    <glyph glyph-name="nonmarkingreturn" horiz-adv-x="682" 
 />
    <glyph glyph-name="space" unicode=" " horiz-adv-x="256" 
 />
    <glyph glyph-name="exclam" unicode="!" horiz-adv-x="478" 
d="M239 113l184 -183l-184 -184l-183 184zM176 261v1096h127v-1096h-127z" />
    <glyph glyph-name="quotedbl" unicode="&#x22;" horiz-adv-x="675" 
d="M569 1099h-132v643h132v-643zM106 1099v643h132v-643h-132z" />
    <glyph glyph-name="numbersign" unicode="#" horiz-adv-x="1310" 
d="M353 0h-136l52 231h-213v254h269l73 328h-342v254h399l51 231h136l-51 -231h315l52 231h136l-52 -231h213v-254h-270l-72 -328h342v-254h-399l-52 -231h-136l52 231h-315zM461 485h316l73 328h-316z" />
    <glyph glyph-name="dollar" unicode="$" horiz-adv-x="1083" 
d="M1023 553v-2v-1v-27q-6 -237 -108 -359.5t-317 -146.5v-178h-127v172q-144 0 -371 40v378q213 -39 371 -48v315q-110 10 -188.5 41.5t-125 81.5t-69 110t-26.5 136h-1v20q0 11 1 17q4 110 34 187.5t86.5 123.5t125 69.5t163.5 33.5v211h127v-202q43 1 94.5 1t118.5 -0.5
t105 -0.5v-254q-42 0 -110 0.5t-118 0.5t-90 -1v-315q100 -3 177 -28.5t123 -64t75 -92t39.5 -106t10.5 -112.5zM189 1084q3 -40 23 -63.5t82.5 -40.5t176.5 -22v308q-142 -10 -209 -49.5t-73 -132.5zM598 379q297 11 298 172q-1 46 -26 74.5t-92 46t-180 19.5v-312z" />
    <glyph glyph-name="percent" unicode="%" horiz-adv-x="1481" 
d="M431 0h-141l752 1528h141zM60 1149q0 125 74.5 216.5t182.5 91.5q111 0 184 -94t73 -214t-73 -213.5t-184 -93.5t-184 93t-73 214zM156 1149q0 -48 41 -79t120 -31t120 31t41 79q0 47 -41.5 79t-119.5 32q-79 0 -120 -31.5t-41 -79.5zM908 428q0 77 31 146.5t91 114.5
t135 45q111 0 183.5 -93t72.5 -213q0 -125 -74 -216.5t-182 -91.5q-109 0 -183 91.5t-74 216.5zM1004 428q0 -49 41 -80.5t120 -31.5t119.5 31.5t40.5 80.5q0 47 -41 78t-119 31q-79 0 -120 -31t-41 -78z" />
    <glyph glyph-name="ampersand" unicode="&#x26;" horiz-adv-x="1379" 
d="M1142 885q0 -281 -43 -456l222 -191l-84 -96l-179 155q-65 -153 -181.5 -216.5t-295.5 -63.5q-124 0 -217.5 28t-149.5 73t-91 111.5t-47.5 133.5t-14.5 150v8q0 9 1 14q5 123 76 208t222 164q-88 89 -125.5 161.5t-37.5 154.5q0 78 29 137t81 93t116.5 50.5t142.5 16.5
q162 0 266 -73t104 -213v-14v-30q-5 -164 -64 -253t-193 -146l295 -254q41 95 41 348h127zM188 518q1 -51 25 -74t107 -34.5t261 -11.5q118 0 190 9t119 35l-344 295q-195 -80 -274.5 -128t-83.5 -91zM324 1223q0 -61 34 -117t124 -141q57 25 139 58q56 23 79.5 32t51 25.5
t34 23.5t15 28.5t8.5 36v51.5v14q0 83 -60 121t-183 38q-126 0 -184 -38t-58 -132z" />
    <glyph glyph-name="quotesingle" unicode="'" horiz-adv-x="321" 
d="M227 1099h-133v643h133v-643z" />
    <glyph glyph-name="parenleft" unicode="(" horiz-adv-x="565" 
d="M433 -74q-158 112 -265 352t-107 516q0 273 107 511.5t265 350.5l73 -211q-320 -224 -318 -651q0 -433 318 -656z" />
    <glyph glyph-name="parenright" unicode=")" horiz-adv-x="565" 
d="M59 138q319 224 319 656q0 427 -319 651l74 211q158 -112 265 -350.5t107 -511.5q0 -276 -107 -516t-265 -352z" />
    <glyph glyph-name="asterisk" unicode="*" horiz-adv-x="1037" 
d="M613 233h-189v236l-167 -167l-132 133l167 167h-236v189h236l-167 167l132 132l167 -167v237h189v-237l167 167l133 -132l-168 -167h236v-189h-236l168 -167l-133 -133l-167 167v-236z" />
    <glyph glyph-name="plus" unicode="+" horiz-adv-x="1019" 
d="M964 781v-258h-391v-326h-127v326h-390v258h390v324h127v-324h391z" />
    <glyph glyph-name="comma" unicode="," horiz-adv-x="356" 
d="M221 -240l-126 8l40 639l126 -8z" />
    <glyph glyph-name="hyphen" unicode="-" horiz-adv-x="770" 
d="M715 288v-127h-659v127h659z" />
    <glyph glyph-name="period" unicode="." horiz-adv-x="446" 
d="M224 7q-71 0 -121 49.5t-50 119.5t50.5 120.5t120.5 50.5t119.5 -50t49.5 -121q0 -70 -49.5 -119.5t-119.5 -49.5z" />
    <glyph glyph-name="slash" unicode="/" horiz-adv-x="988" 
d="M215 -347l-121 44l679 1887l121 -44z" />
    <glyph glyph-name="zero" unicode="0" horiz-adv-x="1261" 
d="M222 678q0 -67 8 -111t28.5 -79t58.5 -53.5t93.5 -27.5t138.5 -9h164q83 0 138.5 9t93.5 27.5t58.5 53.5t28.5 79t8 111v275q0 149 -83.5 233t-243.5 84h-164q-160 0 -243.5 -84t-83.5 -233v-275zM95 678v275q0 249 130.5 410t323.5 161h164q193 0 323.5 -161t130.5 -410
v-275q0 -309 -116 -485t-338 -176h-164q-222 0 -338.5 176.5t-115.5 484.5z" />
    <glyph glyph-name="one" unicode="1" horiz-adv-x="774" 
d="M591 -2h-127v1141h-286v381h413v-1522z" />
    <glyph glyph-name="two" unicode="2" horiz-adv-x="1281" 
d="M56 17v381h1v9l694 470q174 119 229 167t57 89q-2 67 -55 102.5t-175 35.5h-687v254h687q86 0 155 -32.5t111.5 -87.5t65.5 -123t25 -144v-7v-5q-2 -94 -42.5 -171t-108.5 -139t-190 -145l-403 -273h806v-381h-1170z" />
    <glyph glyph-name="three" unicode="3" horiz-adv-x="1040" 
d="M188 714v253h307q103 0 170 5.5t105 13.5t56 26.5t22 34.5t4 47q0 107 -58.5 142t-237.5 35h-500v254h500q204 0 313.5 -99.5t109.5 -331.5q0 -43 -5 -78.5t-19 -80.5t-48 -85t-85 -69q157 -76 157 -266v-32h-2q-2 -76 -15.5 -141.5t-44 -126.5t-77 -104t-119 -68.5
t-165.5 -25.5h-500v381h500q124 0 189 13t85.5 36.5t21.5 66.5v1q0 39 -5 64.5t-25.5 53t-58 43t-104.5 25.5t-164 10v3h-307z" />
    <glyph glyph-name="four" unicode="4" horiz-adv-x="1178" 
d="M56 367v381h5l-3 5l751 774l3 -7v16h127v-788h183v-381h-183v-367h-127v367h-756zM314 748h498v514z" />
    <glyph glyph-name="five" unicode="5" horiz-adv-x="1116" 
d="M1055 626v-12v-8q-9 -589 -528 -589h-471v381h471q160 0 246 22t119.5 67t35.5 127q-1 33 -14 58t-42.5 46t-85 32.5t-135.5 11.5h-565v774h127v-11h747v-254h-747v-255h438q99 0 176.5 -32.5t125.5 -88t73.5 -124t28.5 -145.5z" />
    <glyph glyph-name="six" unicode="6" horiz-adv-x="1096" 
d="M61 598q0 112 12 210t40.5 194t73.5 173.5t114.5 145t159 113t211 71t268.5 25.5v-188q-299 0 -464.5 -92t-231.5 -269q112 75 271 75h101q101 0 180.5 -34t130 -94.5t78 -139t30.5 -170.5v-10v-8q-2 -96 -17.5 -178t-53 -158t-95 -129.5t-147.5 -85.5t-205 -32
q-135 0 -239 76t-158.5 198.5t-58.5 270.5v34v2zM188 581q0 -80 82 -131.5t247 -51.5q155 0 240.5 23t117 67t33.5 121q-2 96 -67 144.5t-225 48.5h-101q-159 0 -243 -52.5t-84 -153.5v-15z" />
    <glyph glyph-name="seven" unicode="7" horiz-adv-x="1195" 
d="M999 1536h135l-520 -1536h-135l386 1139h-809v381h938z" />
    <glyph glyph-name="eight" unicode="8" horiz-adv-x="1096" 
d="M1035 610v-12v-7q-3 -290 -116.5 -432t-373.5 -142q-131 0 -225 37.5t-149.5 110t-81.5 167t-28 218.5v32q0 106 39.5 192.5t116.5 143.5q-45 87 -48 208v23q0 173 87.5 274.5t240.5 101.5h82q83 0 145.5 -28.5t99.5 -79t55.5 -112t20.5 -134.5v-8v-6q-3 -130 -37 -213
q83 -52 125.5 -141t46.5 -193zM188 567q0 -95 79 -132t278 -37q92 0 148.5 4.5t101.5 15.5t67.5 34.5t33.5 57.5t12 88q-1 35 -13.5 61t-42 47.5t-84.5 32.5t-136 11h-117q-164 0 -245.5 -44t-81.5 -124v-15zM296 1140q0 -72 47.5 -104t160.5 -32q164 0 216 30.5t53 127.5
q-1 42 -15.5 64t-56.5 33.5t-122 11.5h-82q-100 0 -150.5 -28t-50.5 -94v-9z" />
    <glyph glyph-name="nine" unicode="9" horiz-adv-x="1125" 
d="M1030 911l1 -25v-35q0 -95 -5 -168.5t-22 -159.5t-47 -151.5t-83 -132.5t-126 -115.5t-179.5 -88t-240.5 -61.5l-20 185q175 29 292 80.5t178 118.5t91 160h-371q-103 0 -182 37t-125 100.5t-70 139t-26 161.5v10v8q2 93 18 173t50.5 149.5t85.5 118.5t126 77t168 28
q53 0 103 -11t105 -35.5t101.5 -71t85.5 -111t63 -162t29 -218.5zM222 966q2 -67 60.5 -100t215.5 -33h406v18q0 73 -16.5 125t-44 83.5t-75 49.5t-99.5 24t-126 6q-179 0 -248.5 -39.5t-72.5 -133.5z" />
    <glyph glyph-name="colon" unicode=":" horiz-adv-x="480" 
d="M241 427l183 -184l-183 -183l-184 183zM56 658l183 183l184 -183l-184 -184z" />
    <glyph glyph-name="semicolon" unicode=";" horiz-adv-x="478" 
d="M239 906l184 -183l-184 -184l-183 184zM123 -232l40 639l126 -8l-40 -639z" />
    <glyph glyph-name="less" unicode="&#x3c;" horiz-adv-x="910" 
d="M804 201l-743 325v164l743 314l50 -116l-662 -280l662 -291z" />
    <glyph glyph-name="equal" unicode="=" horiz-adv-x="1019" 
d="M964 682v-127h-908v127h908zM56 198v127h908v-127h-908z" />
    <glyph glyph-name="greater" unicode="&#x3e;" horiz-adv-x="910" 
d="M106 201l-50 116l662 291l-661 280l49 116l744 -314v-164z" />
    <glyph glyph-name="question" unicode="?" horiz-adv-x="998" 
d="M811 875v6q0 91 -66 144.5t-198 53.5h-491v254h491q164 0 277.5 -127t113.5 -325v-6q-2 -132 -46.5 -246t-135 -188.5t-209.5 -74.5h-191v-260h-127v641h318q137 0 199 36t64 92h1zM126 -153l184 183l183 -183l-183 -184z" />
    <glyph glyph-name="at" unicode="@" horiz-adv-x="1938" 
d="M1658 -320v-190h-1079q-224 0 -371 157t-147 392v998q0 235 147 392t371 157h781q148 0 266.5 -72t185 -197.5t66.5 -279.5v-816q0 -161 -94.5 -268.5t-238.5 -107.5q-118 0 -204.5 75t-115.5 197q-109 -128 -317 -128h-77q-99 0 -171.5 18.5t-119.5 51.5t-75.5 87.5
t-40.5 119t-14 153.5v14v21q4 82 26.5 143t68.5 106t121 68t180 23h407v17q0 75 -44 103.5t-172 28.5h-518v190h518q165 0 254 -80.5t89 -241.5v-590q0 -89 51.5 -137.5t153.5 -48.5t154 48.5t52 137.5v816q0 162 -105 260.5t-286 98.5h-781q-182 0 -286.5 -98.5
t-104.5 -260.5v-998q0 -162 104.5 -260.5t286.5 -98.5h1079zM537 434q1 -47 43.5 -55.5t250.5 -8.5h77q305 -1 305 131v39h-407q-123 0 -177.5 -9t-72.5 -29.5t-19 -67.5z" />
    <glyph glyph-name="A" unicode="A" horiz-adv-x="1519" 
d="M1452 0h-254l-99 506h-550l-98 -506h-379l220 1130q19 97 53.5 166.5t78 112.5t105.5 67.5t125 33.5t148 10h6h9q102 -2 173 -26.5t118 -76t75 -119.5t47 -168zM573 633h501l-93 473q-32 168 -52 212q-25 58 -80 70q-19 5 -44 5q-62 -1 -81 -40t-59 -247z" />
    <glyph glyph-name="B" unicode="B" horiz-adv-x="1033" 
d="M458 1525q97 0 171 -26.5t116 -66t68.5 -94.5t35.5 -101t11 -97h1v-16q0 -10 -1 -14q-3 -135 -47 -228q148 -106 159 -334h1v-18q0 -10 -1 -15q-8 -254 -138 -375.5t-398 -121.5h-248v-18h-127v1525h397zM188 399h248q209 0 305.5 32.5t103.5 103.5q-2 43 -16.5 72.5
t-49.5 53.5t-100.5 35.5t-164.5 11.5h-326v-309zM188 962h326q43 0 70 2t58 11.5t48.5 26.5t30 48t13.5 76q-1 30 -6 49.5t-21 39t-45.5 31t-80 18.5t-123.5 7h-270v-309z" />
    <glyph glyph-name="C" unicode="C" horiz-adv-x="1007" 
d="M952 3h-157q-157 0 -265.5 13t-194 48.5t-135.5 88.5t-83 143.5t-44.5 203.5t-11.5 277v5q0 112 7 196t25.5 164.5t51 137.5t84 105.5t123.5 77t169.5 44.5t223.5 16h158v-254h-158q-100 0 -172.5 -4t-132.5 -16t-98.5 -27t-68.5 -46t-45.5 -62.5t-25 -86t-12 -108
t-2.5 -137.5v-5q0 -66 0.5 -103t7 -82.5t11.5 -67t25 -48.5t37 -37.5t58 -24.5t76 -17t103 -7.5t128 -5t161 -0.5h157v-381z" />
    <glyph glyph-name="D" unicode="D" horiz-adv-x="1123" 
d="M188 0h-127l1 1536h126v-11h218q657 0 657 -684v-92v-25v-11q-2 -160 -36.5 -282t-91.5 -199.5t-142 -126.5t-179.5 -68.5t-212.5 -19.5h-213v-17zM188 398h213q294 0 415 77.5t119 273.5h1v92q0 115 -25 192.5t-85 132.5t-163 80t-257 25h-218v-873z" />
    <glyph glyph-name="E" unicode="E" horiz-adv-x="1101" 
d="M1046 398v-381h-567q-91 0 -163.5 30t-119.5 81t-78 123t-44 151t-13 169v954h984v-254h-857v-360h761v-127h-761v-213q0 -69 21 -103.5t83.5 -52t186.5 -17.5h567z" />
    <glyph glyph-name="F" unicode="F" horiz-adv-x="933" 
d="M188 0h-127l1 1536h126v-14h690v-319h-690v-422h590v-189h-590v-592z" />
    <glyph glyph-name="G" unicode="G" horiz-adv-x="1241" 
d="M659 17q-66 2 -126.5 13.5t-121.5 38t-112 66t-96 100t-76 137t-48.5 180t-17.5 225.5v6q0 353 163.5 547t457.5 194v-1q52 -1 92 -3.5t78 -9.5t60 -11.5t69.5 -17t74.5 -19.5l-30 -247q-19 5 -65 17t-65 16t-59 10.5t-83 9t-102 2.5q-237 -7 -350.5 -123t-113.5 -364v-6
q0 -205 123.5 -292t367.5 -87h40q129 0 203.5 23t102.5 63t28 106v126h-443v190h443v7h127v-323q0 -117 -26.5 -217.5t-80.5 -181.5t-144.5 -127.5t-209.5 -46.5h-60z" />
    <glyph glyph-name="H" unicode="H" horiz-adv-x="1132" 
d="M188 0h-127l1 1536h126v-601h757v601h127l-1 -1536h-126v554h-757v-554z" />
    <glyph glyph-name="I" unicode="I" horiz-adv-x="455" 
d="M290 0h-126l1 1536h127z" />
    <glyph glyph-name="J" unicode="J" horiz-adv-x="746" 
d="M56 101q204 0 310.5 37t149 120.5t42.5 242.5v1035h127v-1035q0 -176 -33 -305.5t-106 -224t-195.5 -141.5t-294.5 -47v318z" />
    <glyph glyph-name="K" unicode="K" horiz-adv-x="1123" 
d="M188 0h-127l1 1536h126v-601l738 617l82 -97l-632 -528h88q313 0 456 -185t143 -532v-210h-127v210q0 115 -21 187.5t-75 121.5t-144 68.5t-232 19.5h-276v-607z" />
    <glyph glyph-name="L" unicode="L" horiz-adv-x="843" 
d="M788 398v-381h-238q-116 0 -202 26.5t-140.5 73t-87.5 118.5t-46 153.5t-13 188.5l1 959h126v-959q0 -41 4 -65.5t18 -47t36 -33.5t64.5 -19.5t98.5 -11t141 -2.5h238z" />
    <glyph glyph-name="M" unicode="M" horiz-adv-x="1624" 
d="M61 1536h353l491 -1334l469 1334h189v-1536h-127v1266l-445 -1266h-349l-454 1233v-1233h-126z" />
    <glyph glyph-name="N" unicode="N" horiz-adv-x="1247" 
d="M64 1536h360l629 -1284v1284h127v-1536h-358l-632 1290l1 -1290h-126z" />
    <glyph glyph-name="O" unicode="O" horiz-adv-x="1130" 
d="M943 949q0 163 -75 242.5t-234 79.5h-137q-96 0 -159 -22t-95 -67t-43.5 -99t-11.5 -134v-293q0 -48 3.5 -80t14.5 -64t32 -51t55 -34.5t84.5 -22t119.5 -6.5h137q69 0 119.5 6.5t84.5 22t55 34.5t32 51t14.5 64t3.5 80v293zM61 656v293q0 86 12.5 164t44 155t80 132.5
t125.5 90t174 34.5h137q191 0 313.5 -157t122.5 -419v-293q0 -93 -13 -179t-44.5 -171.5t-80 -148t-125 -101.5t-173.5 -39h-137q-96 0 -172.5 38.5t-125 101t-80.5 148t-45 172t-13 179.5z" />
    <glyph glyph-name="P" unicode="P" horiz-adv-x="1005" 
d="M817 1026q0 139 -49.5 192t-171.5 53h-407v-279q2 -31 11.5 -49t28.5 -32t60.5 -20t96.5 -8.5t147 -2.5q73 0 114 2t79 9.5t55 22.5t26.5 39.5t9.5 63.5v9zM61 1022v136v367h535q151 0 245.5 -121t101.5 -342h1v-36v-9q0 -253 -99 -385.5t-312 -132.5q-233 0 -344 97
v-596h-126l-1 976q-1 16 -1 46z" />
    <glyph glyph-name="Q" unicode="Q" horiz-adv-x="1259" 
d="M943 949q0 163 -75 242.5t-234 79.5h-137q-96 0 -159 -22t-95 -67t-43.5 -99t-11.5 -134v-293q0 -48 3.5 -80t14.5 -64t32 -51t55 -34.5t84.5 -22t119.5 -6.5h137q62 0 108 6l-120 165l103 75l146 -200q43 29 57.5 79t14.5 133v293zM61 656v293q0 86 12.5 164t44 155
t80 132.5t125.5 90t174 34.5h137q191 0 313.5 -157t122.5 -419v-293q0 -228 -71 -386l200 -275l-103 -75l-169 232q-110 -135 -293 -135h-137q-96 0 -172.5 38.5t-125 101t-80.5 148t-45 172t-13 179.5z" />
    <glyph glyph-name="R" unicode="R" horiz-adv-x="1171" 
d="M1112 46l-89 -92l-629 606h-205v-560h-126l-1 560h-1v595v365h485q93 0 163 -26.5t114 -72t71 -114.5t38 -144.5t12 -171.5v-27q0 -81 -18.5 -148t-59.5 -123.5t-114.5 -90.5t-174.5 -40zM189 814h344q150 0 217 34t67 116v3q0 35 -0.5 54t-5.5 40.5t-10.5 31t-21.5 20.5
t-32.5 14.5t-49 7t-65 4t-86.5 0.5h-357v-325z" />
    <glyph glyph-name="S" unicode="S" horiz-adv-x="1083" 
d="M1023 553v-2v-1v-27q-8 -342 -224 -450.5t-699 -21.5v378q386 -73 590.5 -42.5t205.5 164.5q-1 72 -72.5 106t-253.5 34q-138 1 -236.5 28.5t-155.5 79.5t-84.5 116.5t-31.5 149.5h-1v20q0 11 1 17q3 90 24.5 158.5t58 113.5t88 75.5t114 45t136.5 23t156.5 8t172.5 -0.5
h104v-254h-129q-95 2 -175.5 0.5t-146 -5.5t-116 -16t-85 -32.5t-53.5 -53.5t-22 -80q3 -46 30.5 -71t114 -40.5t248.5 -15.5q104 -1 184 -26t127.5 -63.5t77.5 -93t41 -107.5t11 -114z" />
    <glyph glyph-name="T" unicode="T" horiz-adv-x="1053" 
d="M589 0h-126l1 1203h-464v318h1053v-318h-463z" />
    <glyph glyph-name="U" unicode="U" horiz-adv-x="1266" 
d="M1078 1536h127v-875q0 -142 -30.5 -257.5t-92 -202.5t-161.5 -135t-231 -48h-114q-104 0 -189 31t-145.5 87t-101 136t-60 177.5t-19.5 211.5v875h127v-875q0 -142 90.5 -202t297.5 -60h114q207 0 297.5 60t90.5 202v875z" />
    <glyph glyph-name="V" unicode="V" horiz-adv-x="1462" 
d="M553 0l-482 1536h392l419 -1336l387 1336h133l-445 -1536h-404z" />
    <glyph glyph-name="W" unicode="W" horiz-adv-x="1984" 
d="M233 0l-160 1536h382l129 -1247l387 1227h273l426 -1360l126 1380h127l-139 -1536h-330l-413 1318l-415 -1318h-393z" />
    <glyph glyph-name="X" unicode="X" horiz-adv-x="1596" 
d="M1295 1574l102 -76l-430 -578l64 -58q85 -77 141.5 -136t114.5 -135.5t95.5 -155.5t68 -182.5t47.5 -228.5l-268 -48q-15 110 -37 184t-70 146t-105.5 132t-166.5 158l-75 68l-522 -702l-102 76l530 711l-618 555l180 266l628 -565z" />
    <glyph glyph-name="Y" unicode="Y" horiz-adv-x="1340" 
d="M779 0h-127v552q-148 23 -239.5 120.5t-144.5 259.5l-198 606h327l172 -525q41 -124 72 -167t91 -45h5q72 -2 111.5 24t59.5 81l222 632h149l-251 -716q-87 -250 -249 -274v-548z" />
    <glyph glyph-name="Z" unicode="Z" horiz-adv-x="1460" 
d="M1271 1188q-1 46 -55 64.5t-183 18.5h-913v254h913q174 0 264.5 -76t98.5 -235h2v-49q0 -52 -18.5 -97t-49 -78t-78 -63t-96 -51.5t-112.5 -44.5l-548 -199q-75 -28 -112 -42.5t-90 -39t-77.5 -46.5t-27.5 -44q2 -22 12.5 -33.5t53.5 -18.5t106.5 -8.5t193.5 -1.5h829
v-381h-829q-104 0 -181 10.5t-131 35t-89 56t-54.5 81t-27.5 102.5t-10 128h-1v25v5q0 10 1 15q3 40 17 75.5t34.5 63.5t53 54t62.5 44.5t72.5 38t74.5 32t77 28.5l549 199q136 48 202.5 83.5t66.5 71.5v23z" />
    <glyph glyph-name="bracketleft" unicode="[" horiz-adv-x="607" 
d="M551 24v-382h-490v1922h490v-381h-363v-1159h363z" />
    <glyph glyph-name="backslash" unicode="\" horiz-adv-x="988" 
d="M773 -347l-678 1887l121 44l679 -1887z" />
    <glyph glyph-name="bracketright" unicode="]" horiz-adv-x="607" 
d="M56 24h363v1159h-363v381h490v-1922h-490v382z" />
    <glyph glyph-name="asciicircum" unicode="^" horiz-adv-x="876" 
d="M817 908l-108 -67l-271 429l-270 -429l-108 67l320 507l117 1z" />
    <glyph glyph-name="underscore" unicode="_" horiz-adv-x="1127" 
d="M1072 -161v-127h-1016v127h1016z" />
    <glyph glyph-name="grave" unicode="`" horiz-adv-x="327" 
d="M257 963l-124 -41l-127 381l124 41z" />
    <glyph glyph-name="a" unicode="a" horiz-adv-x="1089" 
d="M723 1039h127v-575q0 -66 16.5 -111.5t47 -69.5t67 -34t84.5 -10v-254q-49 0 -98 16t-103 63t-88 120q-97 -172 -330 -172q-88 0 -155.5 27.5t-108.5 71.5t-68 109t-38 130.5t-14 145.5h-1v23v27h1q12 225 116.5 347t267.5 122q173 0 277 -122v146zM188 513
q0 -24 1.5 -39t7.5 -29t11.5 -21.5t22 -14t30.5 -9t46 -4.5t60 -2.5t79 -0.5q194 0 232 15.5t39 97.5q-1 63 -12.5 106.5t-40.5 79t-83 52.5t-135 17q-137 0 -196 -56t-62 -192z" />
    <glyph glyph-name="b" unicode="b" horiz-adv-x="982" 
d="M188 0h-127v1536h127v-626q65 68 149 104t164 36h26q176 0 285.5 -130t109.5 -345v-25q0 -250 -106 -391.5t-295 -141.5h-77q-154 0 -256 124v-141zM188 568q0 -91 58 -130.5t198 -39.5h77q56 0 93.5 3t74.5 12t58.5 25.5t34.5 44t13 67.5v25q0 113 -64.5 167t-203.5 54
h-26q-127 0 -220 -62t-93 -166z" />
    <glyph glyph-name="c" unicode="c" horiz-adv-x="905" 
d="M188 592q0 -147 167 -199.5t495 2.5v-379q-772 -130 -789 547v29v1q0 84 27 164.5t83.5 153.5t145 117t211 54.5t281.5 -33.5v-254q-156 45 -273 44.5t-194 -37.5t-115.5 -91.5t-38.5 -117.5v-1z" />
    <glyph glyph-name="d" unicode="d" horiz-adv-x="982" 
d="M795 0v142q-101 -125 -257 -125h-77q-189 0 -294.5 141t-105.5 392v25q0 215 109 345t285 130h26q81 0 165 -36t149 -105v627h127v-1536h-127zM188 550q0 -40 13 -67.5t34 -44t58 -25.5t74.5 -12t93.5 -3h77q141 0 199 39.5t58 130.5q0 103 -93 165.5t-221 62.5h-26
q-139 0 -203 -54t-64 -167v-25z" />
    <glyph glyph-name="e" unicode="e" horiz-adv-x="878" 
d="M807 711v-7v-9q-4 -126 -77 -202t-239 -73l-298 5q14 -70 72.5 -109.5t143 -46t178 6.5t186.5 44l40 -275q-71 -23 -140.5 -37.5t-145.5 -17.5t-142 8.5t-126.5 44.5t-103.5 86.5t-68.5 140t-25.5 198.5v140q0 95 21.5 174.5t58 133t85 91t102 54.5t109.5 17
q96 0 167.5 -27.5t114.5 -78.5t64.5 -115.5t23.5 -145.5zM188 618l304 -6q80 -1 119.5 7t53.5 26t15 56q-3 69 -65.5 96t-177.5 27q-242 0 -249 -206z" />
    <glyph glyph-name="f" unicode="f" horiz-adv-x="883" 
d="M828 1520v-381h-185q-118 0 -176 -14.5t-76.5 -44t-18.5 -90.5v-161h423v-254h-423v-572h-127v572h-189v254h189v161q0 109 20 199.5t64 167t124 120t190 43.5h185z" />
    <glyph glyph-name="g" unicode="g" horiz-adv-x="969" 
d="M223 -242q219 0 338.5 39.5t169.5 127.5t50 249v19q-100 -175 -331 -175q-107 0 -183.5 38t-119 108t-62 152.5t-23.5 189.5h-1v24v30h2q12 224 117 346t270 122q226 0 331 -201v200h127v-853q0 -353 -168 -511.5t-517 -158.5v254zM188 523q0 -24 1.5 -39.5t7.5 -30
t11.5 -22.5t22.5 -15t31.5 -9.5t47 -4.5t60.5 -2.5t80 -0.5q59 0 96 1.5t69.5 3.5t50 8.5t30.5 13.5t18 22t7.5 29.5t2.5 39.5q-1 64 -12.5 107.5t-41 79.5t-84 53t-136.5 17q-137 0 -197.5 -57t-64.5 -194z" />
    <glyph glyph-name="h" unicode="h" horiz-adv-x="982" 
d="M188 0h-127v1536h127v-601q68 85 155 121t158 36h26q395 0 395 -586v-506h-127v506q0 60 -3 97t-13.5 70t-27 50t-48 29.5t-72.5 16.5t-104 4h-26q-46 0 -84 -5t-82.5 -22.5t-75 -47t-51 -83t-20.5 -125.5v-490z" />
    <glyph glyph-name="i" unicode="i" horiz-adv-x="478" 
d="M310 0h-126v1027h126v-1027zM56 1291l183 184l184 -184l-184 -183z" />
    <glyph glyph-name="j" unicode="j" horiz-adv-x="863" 
d="M56 -242q100 0 173.5 8.5t131 29t94.5 51.5t60.5 78.5t33.5 107.5t10 141v853h127v-853q0 -351 -155 -510.5t-475 -159.5v254zM441 1291l183 184l184 -184l-184 -183z" />
    <glyph glyph-name="k" unicode="k" horiz-adv-x="1005" 
d="M188 0h-127l1 1536h126v-773h104l522 469l85 -95l-418 -375q120 -7 207 -50.5t140 -121t77.5 -181t24.5 -238.5v-171h-127v171q0 111 -31 168t-110 82t-232 25h-242v-446z" />
    <glyph glyph-name="l" unicode="l" horiz-adv-x="624" 
d="M569 398v-381h-81q-86 0 -148.5 18t-118 65t-89.5 127t-53 207t-18 302l1 800h126v-800q0 -95 0.5 -143.5t14.5 -93.5t24 -60t51.5 -27.5t74 -13t114.5 -0.5h21h81z" />
    <glyph glyph-name="m" unicode="m" horiz-adv-x="1714" 
d="M188 0h-127v1080h127v-174q67 84 152 119.5t155 35.5h25q255 0 349 -239q36 70 86.5 120t102.5 74t95.5 34.5t81.5 10.5h25q195 0 294.5 -154t99.5 -433v-474h-127v474q0 55 -4 93t-15.5 69.5t-29.5 50t-49 31.5t-71 18t-98 5h-25q-46 0 -84 -5t-83 -22.5t-75 -46.5
t-50.5 -82.5t-20.5 -125.5v-459h-127v474q0 59 -3.5 96.5t-14.5 70t-28.5 49.5t-49.5 30t-74 17t-105 4h-25q-46 0 -82.5 -4.5t-80.5 -21.5t-73.5 -46t-50 -83t-20.5 -127v-459z" />
    <glyph glyph-name="n" unicode="n" horiz-adv-x="982" 
d="M188 0h-127v1080h127v-170q68 85 155 121t158 36h26q395 0 395 -585v-482h-127v482q0 60 -3 97t-13.5 70t-27 49.5t-48 29t-72.5 16.5t-104 4h-26q-46 0 -84 -5t-82.5 -22.5t-75 -47t-51 -83t-20.5 -125.5v-465z" />
    <glyph glyph-name="o" unicode="o" horiz-adv-x="1012" 
d="M951 614q3 -146 -16.5 -251.5t-68 -185.5t-136 -120t-215.5 -40q-110 0 -190.5 26t-132 73.5t-81.5 123.5t-41 165t-9 209v1q0 130 34 226.5t96.5 153t143 83.5t180.5 27q208 0 319.5 -127t116.5 -361v-3zM188 578v-59.5t7.5 -44t12 -32.5t27.5 -20.5t38 -14t60 -6.5
t77.5 -3h104.5q61 0 97.5 0.5t74 4t56 7.5t37 15t25.5 22t12.5 32.5t6.5 43.5t0 58v1l-1 32q-2 131 -74.5 184t-233.5 53q-182 0 -254.5 -51.5t-72.5 -184.5v-37z" />
    <glyph glyph-name="p" unicode="p" horiz-adv-x="978" 
d="M791 584q0 113 -56.5 158.5t-205.5 45.5h-340v-262q2 -26 6.5 -43t17.5 -30t29.5 -19.5t50.5 -10.5t71 -5t99 -1q182 0 255 34.5t73 122.5v10zM61 560v114v368h468q179 0 279.5 -112t108.5 -312h1v-34v-10q0 -538 -455 -538q-178 0 -274 91v-610h-126l-1 1001
q-1 14 -1 42z" />
    <glyph glyph-name="q" unicode="q" horiz-adv-x="1168" 
d="M1114 -216v-258h-327v622q-104 -130 -319 -130q-93 0 -164.5 27t-115 71t-72 109t-40 131.5t-14.5 147.5h-1v22v27h1q12 227 121 350.5t285 123.5q208 0 319 -156v160h127v-1247h200zM188 520q1 -31 3 -49t14.5 -33t27 -21.5t51.5 -11.5t74.5 -5.5t109.5 -0.5
q75 0 117.5 1t79 6t52.5 11t27.5 21t13.5 31t2 46q-1 63 -13.5 107t-43.5 80t-89.5 53.5t-145.5 17.5q-146 0 -211 -57.5t-69 -195.5z" />
    <glyph glyph-name="r" unicode="r" horiz-adv-x="645" 
d="M188 0h-127v1038h127v-186q70 92 158.5 133t154.5 41h89v-320h-89q-41 0 -79 -6t-82 -26t-76.5 -52t-54 -88.5t-21.5 -131.5v-402z" />
    <glyph glyph-name="s" unicode="s" horiz-adv-x="831" 
d="M771 418v-1v-1v-19q-6 -236 -167 -334t-494 -29v317q104 -23 192.5 -32.5t150.5 -5.5t105.5 18.5t64.5 36t21 49.5q-1 58 -55.5 87t-180.5 29v1q-170 5 -253.5 77.5t-90.5 195.5h-1v14q0 7 1 11q3 64 20.5 114t46.5 81.5t68.5 54t87 32.5t101 16.5t110 6t115.5 -0.5h64
v-190q-243 0 -284 -3q-141 -9 -181 -61q-19 -25 -22 -63q3 -34 21 -53t70 -30.5t147 -11.5v-1q171 -6 256.5 -92t86.5 -213z" />
    <glyph glyph-name="t" unicode="t" horiz-adv-x="877" 
d="M822 1044v-190h-409v-181q0 -189 12 -241q15 -64 67 -84q46 -18 199 -18h50h66v-319q-86 0 -156 10.5t-121.5 29.5t-91.5 46.5t-65 61.5t-43.5 74.5t-26 85t-13 93.5t-4.5 100.5t0 104.5v19.5v17v19.5v181h-230v190h230v492h127v-492h409z" />
    <glyph glyph-name="u" unicode="u" horiz-adv-x="1088" 
d="M688 1046h127v-7h3v-575q0 -66 16.5 -111.5t47 -69.5t67 -34t84.5 -10v-254q-50 0 -99.5 16.5t-104 64t-87.5 121.5q-89 -170 -289 -170h-30q-362 0 -362 565v464h127v-464v-57.5t4 -43t8.5 -33t18 -22t27.5 -16t42.5 -7.5t57.5 -4.5t77 -0.5h30h63t50.5 2.5t40 4t29.5 9
t22 12t14 18t9.5 22.5t4.5 31t2 38v47v464z" />
    <glyph glyph-name="v" unicode="v" horiz-adv-x="1029" 
d="M591 11h-5h-2l-24 1q-124 5 -192 66t-103 201l-198 767h264l182 -703q14 -55 23 -64t51 -9q36 0 45 9.5t22 61.5l176 705h139l-192 -767q-31 -126 -75.5 -195t-110.5 -73z" />
    <glyph glyph-name="w" unicode="w" horiz-adv-x="1646" 
d="M1315 267l137 779h133l-182 -1033h-258l-262 750l-337 -746l-231 -1l-247 1030h269l155 -648h39l269 596l4 -5l-2 6h210l253 -728h50z" />
    <glyph glyph-name="x" unicode="x" horiz-adv-x="1269" 
d="M963 1046h167l-345 -407q68 -56 113 -98t99.5 -103.5t90 -121.5t67 -141.5t48.5 -174.5h-273q-17 69 -42.5 123.5t-70 106.5t-88 92t-120.5 104l-3 2l-362 -428h-167l431 510l-443 366l168 218l453 -374z" />
    <glyph glyph-name="y" unicode="y" horiz-adv-x="876" 
d="M688 1053h127v-917q0 -354 -168 -511.5t-517 -157.5v254q213 0 331 37t170.5 119.5t56.5 232.5q-88 -93 -235 -93h-30q-362 0 -362 565v471h127v-471v-57.5t4 -43t8.5 -33t18 -22t27.5 -16t42.5 -7.5t57.5 -4.5t77 -0.5h30h63t50.5 2.5t40 4t29.5 9t22 12t14 18t9.5 22.5
t4.5 31t2 38v47v471z" />
    <glyph glyph-name="z" unicode="z" horiz-adv-x="1070" 
d="M865 842q-1 23 -28 31t-108 8h-623v191h623q252 0 262 -213h1v-31q0 -192 -251 -264l-363 -109q-77 -23 -130 -47t-56 -38q1 -27 31 -32t175 -5h15h595v-318h-595q-71 0 -125.5 10t-92 30.5t-63 48t-40 67.5t-20.5 83t-7 100v15v3v10q10 175 277 255l363 108
q160 47 160 83v14z" />
    <glyph glyph-name="braceleft" unicode="{" horiz-adv-x="932" 
d="M877 -39v-258h-118q-156 0 -264 123t-108 316v162l-318 299l318 299v162q0 192 108 315t264 123h118v-258h-118q-124 0 -184.5 -48.5t-60.5 -131.5v-313l-158 -148l158 -148v-313q0 -83 61 -132t184 -49h118z" />
    <glyph glyph-name="bar" unicode="|" horiz-adv-x="539" 
d="M333 158h-127v1428h127v-1428z" />
    <glyph glyph-name="braceright" unicode="}" horiz-adv-x="932" 
d="M174 -39q123 0 184 49t61 132v313l158 148l-158 148v313q0 83 -60.5 131.5t-184.5 48.5h-118v258h118q156 0 264 -123t108 -315v-162l317 -299l-317 -299v-162q0 -193 -108 -316t-264 -123h-118v258h118z" />
    <glyph glyph-name="asciitilde" unicode="~" horiz-adv-x="1205" 
d="M1145 638q-83 -109 -177.5 -163t-202 -44.5t-212.5 89.5q-92 72 -154.5 88.5t-115.5 -23t-109 -145.5l-113 59q211 402 571 121q76 -60 146 -67.5t134 33t132 129.5z" />
    <glyph glyph-name="uni00A0" unicode="&#xa0;" horiz-adv-x="256" 
 />
    <glyph glyph-name="exclamdown" unicode="&#xa1;" horiz-adv-x="478" 
d="M239 1022l-183 184l183 183l184 -183zM176 -222v1097h127v-1097h-127z" />
    <glyph glyph-name="cent" unicode="&#xa2;" horiz-adv-x="1007" 
d="M952 3h-157q-67 0 -126 3v-183h-127v193q-119 14 -200.5 46.5t-137.5 87t-86.5 144.5t-43.5 203.5t-13 279.5v5q0 114 7.5 199.5t26 166.5t53 138.5t87.5 105t129.5 76.5t177.5 43v200h127v-190q50 2 76 2h158v-254h-158q-52 0 -76 -1v-884h126h157v-381zM188 777
q0 -55 0.5 -87.5t3.5 -72.5t7.5 -61.5t14.5 -48t22.5 -40t33 -29t45 -22.5t59.5 -14t75 -10t93 -5v875q-62 -5 -108.5 -13.5t-83.5 -24.5t-62.5 -34.5t-44 -49.5t-29 -62.5t-16.5 -80.5t-8 -96.5t-2 -118.5v-5z" />
    <glyph glyph-name="sterling" unicode="&#xa3;" horiz-adv-x="1140" 
d="M200 0h-127l-1 440q54 56 70.5 73.5t46 52t34.5 46t15.5 39.5t11 50t1.5 60h-170v190h170l1 592h126v-11h706v-254h-706v-327h450v-190h-450q-3 -202 -68 -363h775v-381h-885v-17z" />
    <glyph glyph-name="currency" unicode="&#xa4;" horiz-adv-x="1346" 
d="M669 433q135 0 217.5 76t82.5 191t-82.5 191t-217.5 76t-216.5 -75.5t-81.5 -191.5t81.5 -191.5t216.5 -75.5zM59 166l270 259q-85 122 -85 275q0 144 75 260l-260 251l88 92l256 -246q117 101 266 101q150 0 271 -105l259 250l89 -92l-265 -255q73 -116 73 -256
q0 -150 -83 -271l275 -263l-89 -91l-272 261q-115 -94 -258 -94q-140 0 -253 91l-269 -258z" />
    <glyph glyph-name="yen" unicode="&#xa5;" horiz-adv-x="1499" 
d="M1286 532v-126h-358v-91h358v-127h-358v-214h-127v214h-299v127h299v91h-299v126h274l-712 812l234 251l644 -734l383 729l114 -88l-511 -970h358z" />
    <glyph glyph-name="brokenbar" unicode="&#xa6;" horiz-adv-x="316" 
d="M222 725h-127v505h127v-505zM95 12v506h127v-506h-127z" />
    <glyph glyph-name="section" unicode="&#xa7;" horiz-adv-x="1137" 
d="M692 556q87 0 124.5 2t72.5 5.5t43 19t12.5 32t4.5 54.5v25q-4 44 -35 57q-30 13 -166 16h-1h-1h-1h-1h-1h-1h-1l-1 1h-1h-1h-1h-1h-1h-1h-1h-1h-1h-1h-1h-1h-1h-1h-1h-1h-1h-1h-1h-1h-1h-2h-297q-171 0 -201.5 -13t-30.5 -85q0 -21 0.5 -32.5t5 -24.5t9.5 -18.5
t20 -12.5t29.5 -9.5t45 -5.5t60.5 -4t81 -2zM61 670q0 156 50 234q-50 78 -50 233q0 89 15 150t54 109t110.5 71t179.5 23h545v-254h-545q-79 0 -113.5 -2t-65.5 -4.5t-38.5 -16.5t-11 -28t-3.5 -48q0 -21 0.5 -32.5t5 -24.5t9.5 -18.5t20 -12.5t29.5 -9.5t45 -5.5t60.5 -4
t81 -2l281 -6q105 -2 178.5 -29.5t107.5 -70t53.5 -95.5t17.5 -107t-1 -104h-1q-5 -127 -44 -192q24 -38 35.5 -89t10.5 -95.5t-2 -90.5q-2 -78 -13 -136.5t-37 -111t-68 -85.5t-108.5 -52t-156.5 -19h-545v382h545q192 0 224.5 9.5t32.5 65.5v25q-4 44 -35 57
q-30 13 -166 16h-1h-1h-1h-1h-1h-1h-1l-1 1h-1h-1h-1h-1h-1h-1h-1h-1h-1h-1h-1h-1h-1h-1h-1h-1h-1h-1h-1h-1h-1h-2l-281 6q-113 3 -187.5 27.5t-115 73.5t-56.5 111t-16 151z" />
    <glyph glyph-name="dieresis" unicode="&#xa8;" horiz-adv-x="719" 
d="M147 1293l146 -147l-146 -147l-147 147zM361 1145l147 147l147 -147l-147 -147z" />
    <glyph glyph-name="copyright" unicode="&#xa9;" horiz-adv-x="1780" 
d="M584 551q0 -118 133 -159.5t396 2.5v-303q-617 -102 -630 437v23v1q0 67 21.5 131.5t67 123t116 94t168.5 44t225 -26.5v-204q-125 36 -218.5 35.5t-155.5 -30t-92.5 -73.5t-30.5 -94v-1zM61 543q0 182 66 347.5t177 284.5t264.5 189.5t321.5 70.5q134 0 260.5 -44.5
t228.5 -127t179.5 -192t119.5 -246t42 -282.5q0 -244 -112 -449.5t-303 -324.5t-415 -119q-168 0 -321.5 70.5t-264.5 189.5t-177 284.5t-66 348.5zM188 543q0 -131 51.5 -248t142.5 -203.5t223 -137t285 -50.5q152 0 284 50.5t223.5 137t143.5 203.5t52 248t-52 248
t-143.5 203t-223.5 136.5t-284 50.5q-153 0 -285 -50.5t-223 -136.5t-142.5 -203t-51.5 -248z" />
    <glyph glyph-name="ordfeminine" unicode="&#xaa;" horiz-adv-x="1089" 
d="M723 1039h127v-575q0 -66 16.5 -111.5t47 -69.5t67 -34t84.5 -10v-254q-49 0 -98 16t-103 63t-88 120q-97 -172 -330 -172q-88 0 -155.5 27.5t-108.5 71.5t-68 109t-38 130.5t-14 145.5h-1v23v27h1q12 225 116.5 347t267.5 122q173 0 277 -122v146zM188 513
q0 -24 1.5 -39t7.5 -29t11.5 -21.5t22 -14t30.5 -9t46 -4.5t60 -2.5t79 -0.5q194 0 232 15.5t39 97.5q-1 63 -12.5 106.5t-40.5 79t-83 52.5t-135 17q-137 0 -196 -56t-62 -192z" />
    <glyph glyph-name="guillemotleft" unicode="&#xab;" horiz-adv-x="1416" 
d="M1361 93l-89 -99l-615 546l615 551l89 -98l-506 -453zM66 540l615 551l88 -98l-505 -453l505 -447l-88 -99z" />
    <glyph glyph-name="logicalnot" unicode="&#xac;" horiz-adv-x="1179" 
d="M1119 153h-127v345h-936v254h1063v-599z" />
    <glyph glyph-name="uni00AD" unicode="&#xad;" horiz-adv-x="770" 
d="M715 288v-127h-659v127h659z" />
    <glyph glyph-name="registered" unicode="&#xae;" horiz-adv-x="1048" 
d="M525 528q177 0 288.5 101t111.5 246t-111.5 245.5t-288.5 100.5q-178 0 -289.5 -100.5t-111.5 -245.5t111.5 -246t289.5 -101zM58 875q0 143 63 263t170 188.5t234 68.5q192 0 328.5 -151t136.5 -369t-136.5 -369t-328.5 -151q-127 0 -234 68.5t-170 188.5t-63 263z
M359 820v195h1v120h159q73 0 100.5 -45t29.5 -129v-9q0 -124 -121 -132l177 -170l-30 -29l-206 199h-68v-184h-41v184h-1zM401 903h113q49 0 71 11t22 38v1q0 40 -12.5 48t-75.5 8h-118v-106z" />
    <glyph glyph-name="macron" unicode="&#xaf;" horiz-adv-x="761" 
d="M723 1144v-130h-723v130h723z" />
    <glyph glyph-name="degree" unicode="&#xb0;" horiz-adv-x="856" 
d="M428 1067q104 0 155 14t68 43t17 88t-17 88t-68 43t-155 14t-155 -14t-68 -43t-17 -88t17 -88t68.5 -43t154.5 -14zM61 1212q0 76 11.5 142.5t39 126t69 101.5t104.5 67t143 25q99 0 172 -37t114.5 -102.5t61 -145.5t19.5 -177q0 -76 -11.5 -142.5t-39 -126t-69 -101.5
t-104.5 -67t-143 -25t-143 25t-104.5 67t-69 101.5t-39 126t-11.5 142.5z" />
    <glyph glyph-name="plusminus" unicode="&#xb1;" horiz-adv-x="1019" 
d="M964 899v-258h-391v-326h-127v326h-390v258h390v325h127v-325h391zM56 127v127h908v-127h-908z" />
    <glyph glyph-name="uni00B2" unicode="&#xb2;" horiz-adv-x="1281" 
d="M56 17v381h1v9l694 470q174 119 229 167t57 89q-2 67 -55 102.5t-175 35.5h-687v254h687q86 0 155 -32.5t111.5 -87.5t65.5 -123t25 -144v-7v-5q-2 -94 -42.5 -171t-108.5 -139t-190 -145l-403 -273h806v-381h-1170z" />
    <glyph glyph-name="uni00B3" unicode="&#xb3;" horiz-adv-x="1040" 
d="M188 714v253h307q103 0 170 5.5t105 13.5t56 26.5t22 34.5t4 47q0 107 -58.5 142t-237.5 35h-500v254h500q204 0 313.5 -99.5t109.5 -331.5q0 -43 -5 -78.5t-19 -80.5t-48 -85t-85 -69q157 -76 157 -266v-32h-2q-2 -76 -15.5 -141.5t-44 -126.5t-77 -104t-119 -68.5
t-165.5 -25.5h-500v381h500q124 0 189 13t85.5 36.5t21.5 66.5v1q0 39 -5 64.5t-25.5 53t-58 43t-104.5 25.5t-164 10v3h-307z" />
    <glyph glyph-name="acute" unicode="&#xb4;" horiz-adv-x="327" 
d="M6 963l127 381l124 -41l-127 -381z" />
    <glyph glyph-name="uni00B5" unicode="&#xb5;" horiz-adv-x="1339" 
d="M189 -324h-127v876q-1 12 -1 36v30h1v571h127v-618q7 -78 84 -125.5t232 -47.5h17q164 0 241 52.5t77 137.5v601h127v-601q0 -85 76.5 -137.5t240.5 -52.5v-381q-129 0 -226.5 73t-154.5 196q-57 -123 -155 -196t-226 -73h-17q-192 0 -316 162v-503z" />
    <glyph glyph-name="paragraph" unicode="&#xb6;" horiz-adv-x="939" 
d="M876 0h-189v1644h189v-1644zM56 939v706h413v-1h68v-1644h-127v939h-354z" />
    <glyph glyph-name="periodcentered" unicode="&#xb7;" 
d="M190 208q-70 0 -120 50t-50 120t49.5 119.5t120.5 49.5q70 0 120 -49.5t50 -119.5t-50 -120t-120 -50z" />
    <glyph glyph-name="cedilla" unicode="&#xb8;" horiz-adv-x="546" 
d="M0 -324q129 0 167.5 7.5t38.5 41.5q0 20 -1 28t-5.5 16t-17.5 9.5t-32.5 2.5t-54.5 1h-11h-11h-13v218h65v-84q43 -4 72.5 -20.5t43.5 -33.5t21.5 -48t8 -45t0.5 -44q0 -113 -57 -148.5t-214 -35.5v135z" />
    <glyph glyph-name="uni00B9" unicode="&#xb9;" horiz-adv-x="774" 
d="M591 -2h-127v1141h-286v381h413v-1522z" />
    <glyph glyph-name="ordmasculine" unicode="&#xba;" horiz-adv-x="1012" 
d="M951 614q3 -146 -16.5 -251.5t-68 -185.5t-136 -120t-215.5 -40q-110 0 -190.5 26t-132 73.5t-81.5 123.5t-41 165t-9 209v1q0 130 34 226.5t96.5 153t143 83.5t180.5 27q208 0 319.5 -127t116.5 -361v-3zM188 578v-59.5t7.5 -44t12 -32.5t27.5 -20.5t38 -14t60 -6.5
t77.5 -3h104.5q61 0 97.5 0.5t74 4t56 7.5t37 15t25.5 22t12.5 32.5t6.5 43.5t0 58v1l-1 32q-2 131 -74.5 184t-233.5 53q-182 0 -254.5 -51.5t-72.5 -184.5v-37z" />
    <glyph glyph-name="guillemotright" unicode="&#xbb;" horiz-adv-x="1416" 
d="M56 93l505 447l-505 453l88 98l615 -551l-615 -546zM647 93l506 447l-506 453l89 98l615 -551l-615 -546z" />
    <glyph glyph-name="onequarter" unicode="&#xbc;" horiz-adv-x="1611" 
d="M916 220v229h3l-1 2l449 465l2 -3v9h76v-473h111v-229h-111v-220h-76v220h-453zM55 1274v228h248v-912h-76v684h-172zM202 -303l679 1887l121 -44l-678 -1887zM1071 449h298v308z" />
    <glyph glyph-name="onehalf" unicode="&#xbd;" horiz-adv-x="1891" 
d="M303 590h-76v684h-172v228h248v-912zM202 -303l679 1887l121 -44l-678 -1887zM1134 10v234l417 283q105 71 137.5 99t33.5 53q-3 84 -138 84h-412v152h412q101 0 156.5 -68t57.5 -165v-4v-3q-1 -82 -47.5 -140t-156.5 -133l-242 -164h484v-228h-702z" />
    <glyph glyph-name="threequarters" unicode="&#xbe;" horiz-adv-x="1613" 
d="M135 969v152h184q76 0 120.5 4t64.5 15t24.5 22.5t4.5 34.5q0 64 -35 85t-142 21h-300v153h300q123 0 188 -60t65 -199q0 -135 -94 -188q94 -45 94 -159v-19q-12 -280 -253 -280h-300v228h300q74 0 113 8.5t51 22.5t13 40q0 30 -6 48t-26 35.5t-65 25.5t-117 8v2h-184z
M337 -303l678 1887l121 -44l-678 -1887zM918 220v229h3l-2 2l450 465l2 -3v9h76v-473h110v-229h-110v-220h-76v220h-453zM1072 449h299v308z" />
    <glyph glyph-name="questiondown" unicode="&#xbf;" horiz-adv-x="998" 
d="M188 -32v-7q0 -91 65.5 -144t197.5 -53h492v-254h-492q-164 0 -277 126.5t-113 324.5v7q2 132 46.5 246.5t135 189t208.5 74.5h192v259h127v-640h-319q-137 0 -199 -36t-64 -93zM505 996l184 184l183 -184l-183 -183z" />
    <glyph glyph-name="Agrave" unicode="&#xc0;" horiz-adv-x="1519" 
d="M1452 0h-254l-99 506h-550l-98 -506h-379l220 1130q19 97 53.5 166.5t78 112.5t105.5 67.5t125 33.5t148 10h6h9q102 -2 173 -26.5t118 -76t75 -119.5t47 -168zM573 633h501l-93 473q-32 168 -52 212q-25 58 -80 70q-19 5 -44 5q-62 -1 -81 -40t-59 -247zM635 2017
l124 41l127 -382l-124 -41z" />
    <glyph glyph-name="Aacute" unicode="&#xc1;" horiz-adv-x="1519" 
d="M1452 0h-254l-99 506h-550l-98 -506h-379l220 1130q19 97 53.5 166.5t78 112.5t105.5 67.5t125 33.5t148 10h6h9q102 -2 173 -26.5t118 -76t75 -119.5t47 -168zM573 633h501l-93 473q-32 168 -52 212q-25 58 -80 70q-19 5 -44 5q-62 -1 -81 -40t-59 -247zM689 1674
l127 381l124 -41l-127 -381z" />
    <glyph glyph-name="Acircumflex" unicode="&#xc2;" horiz-adv-x="1519" 
d="M1452 0h-254l-99 506h-550l-98 -506h-379l220 1130q19 97 53.5 166.5t78 112.5t105.5 67.5t125 33.5t148 10h6h9q102 -2 173 -26.5t118 -76t75 -119.5t47 -168zM503 1765l298 295l299 -295l-90 -92l-209 205l-208 -205zM573 633h501l-93 473q-32 168 -52 212
q-25 58 -80 70q-19 5 -44 5q-62 -1 -81 -40t-59 -247z" />
    <glyph glyph-name="Atilde" unicode="&#xc3;" horiz-adv-x="1519" 
d="M1452 0h-254l-99 506h-550l-98 -506h-379l220 1130q19 97 53.5 166.5t78 112.5t105.5 67.5t125 33.5t148 10h6h9q102 -2 173 -26.5t118 -76t75 -119.5t47 -168zM448 1833q91 50 146 66.5t112 5.5t130 -58q66 -42 106.5 -34t127.5 81l85 -100q-113 -96 -199.5 -108.5
t-189.5 52.5q-40 26 -60 35.5t-50.5 7t-57.5 -15.5t-88 -46zM573 633h501l-93 473q-32 168 -52 212q-25 58 -80 70q-19 5 -44 5q-62 -1 -81 -40t-59 -247z" />
    <glyph glyph-name="Adieresis" unicode="&#xc4;" horiz-adv-x="1519" 
d="M1452 0h-254l-99 506h-550l-98 -506h-379l220 1130q19 97 53.5 166.5t78 112.5t105.5 67.5t125 33.5t148 10h6h9q102 -2 173 -26.5t118 -76t75 -119.5t47 -168zM474 1787l147 146l147 -146l-147 -148zM573 633h501l-93 473q-32 168 -52 212q-25 58 -80 70q-19 5 -44 5
q-62 -1 -81 -40t-59 -247zM836 1786l146 146l147 -146l-147 -148z" />
    <glyph glyph-name="Aring" unicode="&#xc5;" horiz-adv-x="1519" 
d="M1452 0h-254l-99 506h-550l-98 -506h-379l220 1130q19 97 53.5 166.5t78 112.5t105.5 67.5t125 33.5t148 10h6h9q102 -2 173 -26.5t118 -76t75 -119.5t47 -168zM573 633h501l-93 473q-32 168 -52 212q-25 58 -80 70q-19 5 -44 5q-62 -1 -81 -40t-59 -247zM622 1898
q0 85 52 149.5t128 64.5q75 0 127 -65t52 -149q0 -85 -52 -150t-127 -65q-77 0 -128.5 65t-51.5 150zM687 1898q0 -34 29.5 -56.5t85.5 -22.5q55 0 84 22.5t29 56.5t-29 56.5t-84 22.5t-85 -23t-30 -56z" />
    <glyph glyph-name="AE" unicode="&#xc6;" horiz-adv-x="2086" 
d="M1339 1538v-1h691v-254h-691v-361h590v-254h-590v-271h692v-381h-692v-16h-127v332h-584l-223 -332h-335l1034 1538h235zM798 586h414v616z" />
    <glyph glyph-name="Ccedilla" unicode="&#xc7;" horiz-adv-x="1007" 
d="M952 3h-157q-157 0 -265.5 13t-194 48.5t-135.5 88.5t-83 143.5t-44.5 203.5t-11.5 277v5q0 112 7 196t25.5 164.5t51 137.5t84 105.5t123.5 77t169.5 44.5t223.5 16h158v-254h-158q-100 0 -172.5 -4t-132.5 -16t-98.5 -27t-68.5 -46t-45.5 -62.5t-25 -86t-12 -108
t-2.5 -137.5v-5q0 -66 0.5 -103t7 -82.5t11.5 -67t25 -48.5t37 -37.5t58 -24.5t76 -17t103 -7.5t128 -5t161 -0.5h157v-381zM510 -459v135q129 0 167 7.5t38 41.5q0 20 -1 28t-5.5 16t-17.5 9.5t-32.5 2.5t-54.5 1h-35v218h66v-84q43 -4 72.5 -20.5t43.5 -33.5t21.5 -48
t8 -45t0.5 -44q0 -113 -57 -148.5t-214 -35.5z" />
    <glyph glyph-name="Egrave" unicode="&#xc8;" horiz-adv-x="1101" 
d="M1046 398v-381h-567q-91 0 -163.5 30t-119.5 81t-78 123t-44 151t-13 169v954h984v-254h-857v-360h761v-127h-761v-213q0 -69 21 -103.5t83.5 -52t186.5 -17.5h567zM303 2017l125 41l127 -382l-125 -41z" />
    <glyph glyph-name="Eacute" unicode="&#xc9;" horiz-adv-x="1101" 
d="M1046 398v-381h-567q-91 0 -163.5 30t-119.5 81t-78 123t-44 151t-13 169v954h984v-254h-857v-360h761v-127h-761v-213q0 -69 21 -103.5t83.5 -52t186.5 -17.5h567zM357 1674l127 381l125 -41l-127 -381z" />
    <glyph glyph-name="Ecircumflex" unicode="&#xca;" horiz-adv-x="1101" 
d="M1046 398v-381h-567q-91 0 -163.5 30t-119.5 81t-78 123t-44 151t-13 169v954h984v-254h-857v-360h761v-127h-761v-213q0 -69 21 -103.5t83.5 -52t186.5 -17.5h567zM171 1765l298 295l299 -295l-90 -92l-209 205l-208 -205z" />
    <glyph glyph-name="Edieresis" unicode="&#xcb;" horiz-adv-x="1101" 
d="M1046 398v-381h-567q-91 0 -163.5 30t-119.5 81t-78 123t-44 151t-13 169v954h984v-254h-857v-360h761v-127h-761v-213q0 -69 21 -103.5t83.5 -52t186.5 -17.5h567zM143 1787l146 146l147 -146l-147 -148zM504 1786l146 146l147 -146l-147 -148z" />
    <glyph glyph-name="Igrave" unicode="&#xcc;" horiz-adv-x="455" 
d="M290 0h-126l1 1536h127zM61 2017l124 41l127 -382l-124 -41z" />
    <glyph glyph-name="Iacute" unicode="&#xcd;" horiz-adv-x="455" 
d="M290 0h-126l1 1536h127zM115 1674l127 381l124 -41l-127 -381z" />
    <glyph glyph-name="Icircumflex" unicode="&#xce;" horiz-adv-x="455" 
d="M290 0h-126l1 1536h127zM-71 1765l298 295l299 -295l-90 -92l-209 205l-208 -205z" />
    <glyph glyph-name="Idieresis" unicode="&#xcf;" horiz-adv-x="455" 
d="M290 0h-126l1 1536h127zM-100 1787l147 146l146 -146l-146 -148zM261 1786l147 146l147 -146l-147 -148z" />
    <glyph glyph-name="Eth" unicode="&#xd0;" horiz-adv-x="1286" 
d="M353 0h-126v745h-174v127h175v664h126v-11h218q656 0 656 -684v-92v-25v-11q-2 -160 -36.5 -282t-91.5 -199.5t-142 -126.5t-179.5 -68.5t-212.5 -19.5h-213v-17zM353 398h213q294 0 415 77.5t119 273.5h1v92q0 115 -24.5 192.5t-85 132.5t-163 80t-256.5 25h-218v-399
h451v-127h-452v-347z" />
    <glyph glyph-name="Ntilde" unicode="&#xd1;" horiz-adv-x="1247" 
d="M64 1536h360l629 -1284v1284h127v-1536h-358l-632 1290l1 -1290h-126zM270 1833q91 50 146 66.5t112 5.5t130 -58q67 -42 106.5 -34t126.5 81l85 -100q-113 -96 -199.5 -108.5t-189.5 52.5q-33 21 -51.5 29.5t-37 13.5t-43 -3.5t-49 -20t-74.5 -38.5z" />
    <glyph glyph-name="Ograve" unicode="&#xd2;" horiz-adv-x="1130" 
d="M943 949q0 163 -75 242.5t-234 79.5h-137q-96 0 -159 -22t-95 -67t-43.5 -99t-11.5 -134v-293q0 -48 3.5 -80t14.5 -64t32 -51t55 -34.5t84.5 -22t119.5 -6.5h137q69 0 119.5 6.5t84.5 22t55 34.5t32 51t14.5 64t3.5 80v293zM61 656v293q0 86 12.5 164t44 155t80 132.5
t125.5 90t174 34.5h137q191 0 313.5 -157t122.5 -419v-293q0 -93 -13 -179t-44.5 -171.5t-80 -148t-125 -101.5t-173.5 -39h-137q-96 0 -172.5 38.5t-125 101t-80.5 148t-45 172t-13 179.5zM393 2017l125 41l127 -382l-125 -41z" />
    <glyph glyph-name="Oacute" unicode="&#xd3;" horiz-adv-x="1130" 
d="M943 949q0 163 -75 242.5t-234 79.5h-137q-96 0 -159 -22t-95 -67t-43.5 -99t-11.5 -134v-293q0 -48 3.5 -80t14.5 -64t32 -51t55 -34.5t84.5 -22t119.5 -6.5h137q69 0 119.5 6.5t84.5 22t55 34.5t32 51t14.5 64t3.5 80v293zM61 656v293q0 86 12.5 164t44 155t80 132.5
t125.5 90t174 34.5h137q191 0 313.5 -157t122.5 -419v-293q0 -93 -13 -179t-44.5 -171.5t-80 -148t-125 -101.5t-173.5 -39h-137q-96 0 -172.5 38.5t-125 101t-80.5 148t-45 172t-13 179.5zM447 1674l127 381l125 -41l-127 -381z" />
    <glyph glyph-name="Ocircumflex" unicode="&#xd4;" horiz-adv-x="1130" 
d="M943 949q0 163 -75 242.5t-234 79.5h-137q-96 0 -159 -22t-95 -67t-43.5 -99t-11.5 -134v-293q0 -48 3.5 -80t14.5 -64t32 -51t55 -34.5t84.5 -22t119.5 -6.5h137q69 0 119.5 6.5t84.5 22t55 34.5t32 51t14.5 64t3.5 80v293zM61 656v293q0 86 12.5 164t44 155t80 132.5
t125.5 90t174 34.5h137q191 0 313.5 -157t122.5 -419v-293q0 -93 -13 -179t-44.5 -171.5t-80 -148t-125 -101.5t-173.5 -39h-137q-96 0 -172.5 38.5t-125 101t-80.5 148t-45 172t-13 179.5zM261 1765l299 295l299 -295l-91 -92l-208 205l-209 -205z" />
    <glyph glyph-name="Otilde" unicode="&#xd5;" horiz-adv-x="1130" 
d="M943 949q0 163 -75 242.5t-234 79.5h-137q-96 0 -159 -22t-95 -67t-43.5 -99t-11.5 -134v-293q0 -48 3.5 -80t14.5 -64t32 -51t55 -34.5t84.5 -22t119.5 -6.5h137q69 0 119.5 6.5t84.5 22t55 34.5t32 51t14.5 64t3.5 80v293zM61 656v293q0 86 12.5 164t44 155t80 132.5
t125.5 90t174 34.5h137q191 0 313.5 -157t122.5 -419v-293q0 -93 -13 -179t-44.5 -171.5t-80 -148t-125 -101.5t-173.5 -39h-137q-96 0 -172.5 38.5t-125 101t-80.5 148t-45 172t-13 179.5zM206 1833q91 50 146 66.5t112.5 5.5t130.5 -58q67 -42 106.5 -34t126.5 81l85 -100
q-113 -96 -199.5 -108.5t-189.5 52.5q-33 21 -51.5 29.5t-37 13.5t-43 -3.5t-49 -20t-74.5 -38.5z" />
    <glyph glyph-name="Odieresis" unicode="&#xd6;" horiz-adv-x="1130" 
d="M943 949q0 163 -75 242.5t-234 79.5h-137q-96 0 -159 -22t-95 -67t-43.5 -99t-11.5 -134v-293q0 -48 3.5 -80t14.5 -64t32 -51t55 -34.5t84.5 -22t119.5 -6.5h137q69 0 119.5 6.5t84.5 22t55 34.5t32 51t14.5 64t3.5 80v293zM61 656v293q0 86 12.5 164t44 155t80 132.5
t125.5 90t174 34.5h137q191 0 313.5 -157t122.5 -419v-293q0 -93 -13 -179t-44.5 -171.5t-80 -148t-125 -101.5t-173.5 -39h-137q-96 0 -172.5 38.5t-125 101t-80.5 148t-45 172t-13 179.5zM233 1787l146 146l147 -146l-147 -148zM594 1786l147 146l146 -146l-146 -148z" />
    <glyph glyph-name="multiply" unicode="&#xd7;" horiz-adv-x="851" 
d="M838 435l-183 -182l-276 276l-231 -230l-89 90l230 230l-276 276l183 182l276 -275l229 229l90 -90l-230 -229z" />
    <glyph glyph-name="Oslash" unicode="&#xd8;" horiz-adv-x="1596" 
d="M1199 949q0 72 -13 124l-663 -633q69 -42 231 -42h136q69 0 119.5 6.5t84.5 22t55 34.5t32 51t14.5 64t3.5 80v293zM59 173l279 266q-20 101 -20 217v293q0 86 12.5 164t44 155t80 132.5t125.5 90t174 34.5h136q112 0 204 -57t150 -162l205 195l89 -92l-241 -230
q29 -104 29 -230v-293q0 -93 -13 -179t-44.5 -171.5t-80 -148t-125 -101.5t-173.5 -39h-136q-141 0 -234 76.5t-143 206.5l-230 -219zM445 656q0 -72 8 -107l672 642q-75 80 -235 80h-136q-96 0 -159 -22t-95 -67t-43.5 -99t-11.5 -134v-293z" />
    <glyph glyph-name="Ugrave" unicode="&#xd9;" horiz-adv-x="1266" 
d="M1078 1536h127v-875q0 -142 -30.5 -257.5t-92 -202.5t-161.5 -135t-231 -48h-114q-104 0 -189 31t-145.5 87t-101 136t-60 177.5t-19.5 211.5v875h127v-875q0 -142 90.5 -202t297.5 -60h114q207 0 297.5 60t90.5 202v875zM466 2017l125 41l127 -382l-125 -41z" />
    <glyph glyph-name="Uacute" unicode="&#xda;" horiz-adv-x="1266" 
d="M1078 1536h127v-875q0 -142 -30.5 -257.5t-92 -202.5t-161.5 -135t-231 -48h-114q-104 0 -189 31t-145.5 87t-101 136t-60 177.5t-19.5 211.5v875h127v-875q0 -142 90.5 -202t297.5 -60h114q207 0 297.5 60t90.5 202v875zM520 1674l127 381l125 -41l-127 -381z" />
    <glyph glyph-name="Ucircumflex" unicode="&#xdb;" horiz-adv-x="1266" 
d="M1078 1536h127v-875q0 -142 -30.5 -257.5t-92 -202.5t-161.5 -135t-231 -48h-114q-104 0 -189 31t-145.5 87t-101 136t-60 177.5t-19.5 211.5v875h127v-875q0 -142 90.5 -202t297.5 -60h114q207 0 297.5 60t90.5 202v875zM334 1765l298 295l299 -295l-90 -92l-209 205
l-208 -205z" />
    <glyph glyph-name="Udieresis" unicode="&#xdc;" horiz-adv-x="1266" 
d="M1078 1536h127v-875q0 -142 -30.5 -257.5t-92 -202.5t-161.5 -135t-231 -48h-114q-104 0 -189 31t-145.5 87t-101 136t-60 177.5t-19.5 211.5v875h127v-875q0 -142 90.5 -202t297.5 -60h114q207 0 297.5 60t90.5 202v875zM306 1787l146 146l147 -146l-147 -148zM667 1786
l146 146l147 -146l-147 -148z" />
    <glyph glyph-name="Yacute" unicode="&#xdd;" horiz-adv-x="1340" 
d="M779 0h-127v552q-148 23 -239.5 120.5t-144.5 259.5l-198 606h327l172 -525q41 -124 72 -167t91 -45h5q72 -2 111.5 24t59.5 81l222 632h149l-251 -716q-87 -250 -249 -274v-548zM559 1674l127 381l124 -41l-127 -381z" />
    <glyph glyph-name="Thorn" unicode="&#xde;" horiz-adv-x="1003" 
d="M61 -336l1 1486v386h126v-386h407q156 0 252 -130t96 -368v-10q0 -253 -98.5 -385t-312.5 -132q-236 0 -344 96v-557h-127zM188 647q0 -34 3 -54t16.5 -38t33.5 -26t61.5 -14.5t93.5 -8t136 -1.5q73 0 114 2t79 9.5t55 22.5t26.5 39.5t9.5 63.5l-1 38q-4 122 -54 169
t-166 47h-407v-249z" />
    <glyph glyph-name="germandbls" unicode="&#xdf;" horiz-adv-x="1109" 
d="M1048 553q2 -104 -18.5 -196t-64 -170t-120.5 -124t-179 -46h-346v381h346q112 0 166.5 13.5t71.5 39t18 79.5q-3 93 -65 130.5t-207 39.5h-298v254h63v1l308 -1q79 0 106 30.5t28 84.5v30q0 84 -58 130t-208 46h-403v-1275h-127v1529h530q96 0 172.5 -36t124 -96.5
t72 -136.5t24.5 -161q0 -37 -2 -51q-4 -103 -48 -196q105 -103 113 -299h1z" />
    <glyph glyph-name="agrave" unicode="&#xe0;" horiz-adv-x="1089" 
d="M723 1039h127v-575q0 -66 16.5 -111.5t47 -69.5t67 -34t84.5 -10v-254q-49 0 -98 16t-103 63t-88 120q-97 -172 -330 -172q-88 0 -155.5 27.5t-108.5 71.5t-68 109t-38 130.5t-14 145.5h-1v23v27h1q12 225 116.5 347t267.5 122q173 0 277 -122v146zM188 513
q0 -24 1.5 -39t7.5 -29t11.5 -21.5t22 -14t30.5 -9t46 -4.5t60 -2.5t79 -0.5q194 0 232 15.5t39 97.5q-1 63 -12.5 106.5t-40.5 79t-83 52.5t-135 17q-137 0 -196 -56t-62 -192zM328 1592l125 41l127 -382l-125 -41z" />
    <glyph glyph-name="aacute" unicode="&#xe1;" horiz-adv-x="1089" 
d="M723 1039h127v-575q0 -66 16.5 -111.5t47 -69.5t67 -34t84.5 -10v-254q-49 0 -98 16t-103 63t-88 120q-97 -172 -330 -172q-88 0 -155.5 27.5t-108.5 71.5t-68 109t-38 130.5t-14 145.5h-1v23v27h1q12 225 116.5 347t267.5 122q173 0 277 -122v146zM188 513
q0 -24 1.5 -39t7.5 -29t11.5 -21.5t22 -14t30.5 -9t46 -4.5t60 -2.5t79 -0.5q194 0 232 15.5t39 97.5q-1 63 -12.5 106.5t-40.5 79t-83 52.5t-135 17q-137 0 -196 -56t-62 -192zM383 1248l127 382l124 -41l-127 -381z" />
    <glyph glyph-name="acircumflex" unicode="&#xe2;" horiz-adv-x="1089" 
d="M723 1039h127v-575q0 -66 16.5 -111.5t47 -69.5t67 -34t84.5 -10v-254q-49 0 -98 16t-103 63t-88 120q-97 -172 -330 -172q-88 0 -155.5 27.5t-108.5 71.5t-68 109t-38 130.5t-14 145.5h-1v23v27h1q12 225 116.5 347t267.5 122q173 0 277 -122v146zM188 513
q0 -24 1.5 -39t7.5 -29t11.5 -21.5t22 -14t30.5 -9t46 -4.5t60 -2.5t79 -0.5q194 0 232 15.5t39 97.5q-1 63 -12.5 106.5t-40.5 79t-83 52.5t-135 17q-137 0 -196 -56t-62 -192zM197 1339l298 296l299 -296l-90 -91l-209 205l-208 -205z" />
    <glyph glyph-name="atilde" unicode="&#xe3;" horiz-adv-x="1089" 
d="M723 1039h127v-575q0 -66 16.5 -111.5t47 -69.5t67 -34t84.5 -10v-254q-49 0 -98 16t-103 63t-88 120q-97 -172 -330 -172q-88 0 -155.5 27.5t-108.5 71.5t-68 109t-38 130.5t-14 145.5h-1v23v27h1q12 225 116.5 347t267.5 122q173 0 277 -122v146zM142 1408
q91 50 146 66.5t112 5.5t130 -58q67 -42 106.5 -34t126.5 81l86 -100q-114 -96 -200 -109t-189 52q-52 34 -80.5 40.5t-62.5 -4.5t-113 -54zM188 513q0 -24 1.5 -39t7.5 -29t11.5 -21.5t22 -14t30.5 -9t46 -4.5t60 -2.5t79 -0.5q194 0 232 15.5t39 97.5q-1 63 -12.5 106.5
t-40.5 79t-83 52.5t-135 17q-137 0 -196 -56t-62 -192z" />
    <glyph glyph-name="adieresis" unicode="&#xe4;" horiz-adv-x="1089" 
d="M723 1039h127v-575q0 -66 16.5 -111.5t47 -69.5t67 -34t84.5 -10v-254q-49 0 -98 16t-103 63t-88 120q-97 -172 -330 -172q-88 0 -155.5 27.5t-108.5 71.5t-68 109t-38 130.5t-14 145.5h-1v23v27h1q12 225 116.5 347t267.5 122q173 0 277 -122v146zM168 1362l147 146
l146 -146l-146 -148zM188 513q0 -24 1.5 -39t7.5 -29t11.5 -21.5t22 -14t30.5 -9t46 -4.5t60 -2.5t79 -0.5q194 0 232 15.5t39 97.5q-1 63 -12.5 106.5t-40.5 79t-83 52.5t-135 17q-137 0 -196 -56t-62 -192zM529 1361l147 146l146 -146l-146 -148z" />
    <glyph glyph-name="aring" unicode="&#xe5;" horiz-adv-x="1089" 
d="M723 1039h127v-575q0 -66 16.5 -111.5t47 -69.5t67 -34t84.5 -10v-254q-49 0 -98 16t-103 63t-88 120q-97 -172 -330 -172q-88 0 -155.5 27.5t-108.5 71.5t-68 109t-38 130.5t-14 145.5h-1v23v27h1q12 225 116.5 347t267.5 122q173 0 277 -122v146zM188 513
q0 -24 1.5 -39t7.5 -29t11.5 -21.5t22 -14t30.5 -9t46 -4.5t60 -2.5t79 -0.5q194 0 232 15.5t39 97.5q-1 63 -12.5 106.5t-40.5 79t-83 52.5t-135 17q-137 0 -196 -56t-62 -192zM315 1473q0 85 52.5 149.5t128.5 64.5q75 0 126.5 -65t51.5 -149q0 -86 -51.5 -150.5
t-126.5 -64.5q-77 0 -129 65t-52 150zM381 1473q0 -34 29.5 -57t85.5 -23q55 0 84 23t29 57t-29 56.5t-84 22.5t-85 -23t-30 -56z" />
    <glyph glyph-name="ae" unicode="&#xe6;" horiz-adv-x="1539" 
d="M723 1039h127v-69q103 103 248 103q96 0 167.5 -27.5t114.5 -78.5t64.5 -115.5t23.5 -145.5v-7v-9q-4 -126 -77 -202t-239 -73l-298 5q14 -70 72.5 -109.5t143 -46t178 6.5t186.5 44l40 -275q-232 -76 -409 -50v-5q-49 0 -98 16t-103 63t-88 120q-97 -172 -330 -172
q-88 0 -155.5 27.5t-108.5 71.5t-68 109t-38 130.5t-14 145.5h-1v23v27h1q12 225 116.5 347t267.5 122q173 0 277 -122v146zM188 513q0 -24 1.5 -39t7.5 -29t11.5 -21.5t22 -14t30.5 -9t46 -4.5t60 -2.5t79 -0.5q194 0 232 15.5t39 97.5q-1 63 -12.5 106.5t-40.5 79
t-83 52.5t-135 17q-137 0 -196 -56t-62 -192zM850 613l303 -6q80 -1 119.5 7t53.5 26t15 56q-3 69 -65.5 96t-177.5 27q-233 0 -248 -192v-14z" />
    <glyph glyph-name="ccedilla" unicode="&#xe7;" horiz-adv-x="905" 
d="M188 592q0 -147 167 -199.5t495 2.5v-379q-120 -20 -232 -20v-80q31 -3 55 -12.5t39.5 -20t26 -29.5t15.5 -31t7.5 -35t2.5 -31.5v-30.5q0 -113 -57 -148.5t-214 -35.5v135q129 0 167.5 7.5t38.5 41.5q0 20 -1 28t-5.5 16t-17.5 9.5t-32.5 2.5t-54.5 1h-35v215
q-480 35 -492 565v29v1q0 84 27 164.5t83.5 153.5t145 117t211 54.5t281.5 -33.5v-254q-156 45 -273 44.5t-194 -37.5t-115.5 -91.5t-38.5 -117.5v-1z" />
    <glyph glyph-name="egrave" unicode="&#xe8;" horiz-adv-x="878" 
d="M807 711v-7v-9q-4 -126 -77 -202t-239 -73l-298 5q14 -70 72.5 -109.5t143 -46t178 6.5t186.5 44l40 -275q-71 -23 -140.5 -37.5t-145.5 -17.5t-142 8.5t-126.5 44.5t-103.5 86.5t-68.5 140t-25.5 198.5v140q0 95 21.5 174.5t58 133t85 91t102 54.5t109.5 17
q96 0 167.5 -27.5t114.5 -78.5t64.5 -115.5t23.5 -145.5zM188 618l304 -6q80 -1 119.5 7t53.5 26t15 56q-3 69 -65.5 96t-177.5 27q-242 0 -249 -206zM286 1585l124 41l127 -382l-124 -41z" />
    <glyph glyph-name="eacute" unicode="&#xe9;" horiz-adv-x="878" 
d="M807 711v-7v-9q-4 -126 -77 -202t-239 -73l-298 5q14 -70 72.5 -109.5t143 -46t178 6.5t186.5 44l40 -275q-71 -23 -140.5 -37.5t-145.5 -17.5t-142 8.5t-126.5 44.5t-103.5 86.5t-68.5 140t-25.5 198.5v140q0 95 21.5 174.5t58 133t85 91t102 54.5t109.5 17
q96 0 167.5 -27.5t114.5 -78.5t64.5 -115.5t23.5 -145.5zM188 618l304 -6q80 -1 119.5 7t53.5 26t15 56q-3 69 -65.5 96t-177.5 27q-242 0 -249 -206zM340 1242l127 382l124 -41l-127 -382z" />
    <glyph glyph-name="ecircumflex" unicode="&#xea;" horiz-adv-x="878" 
d="M807 711v-7v-9q-4 -126 -77 -202t-239 -73l-298 5q14 -70 72.5 -109.5t143 -46t178 6.5t186.5 44l40 -275q-71 -23 -140.5 -37.5t-145.5 -17.5t-142 8.5t-126.5 44.5t-103.5 86.5t-68.5 140t-25.5 198.5v140q0 95 21.5 174.5t58 133t85 91t102 54.5t109.5 17
q96 0 167.5 -27.5t114.5 -78.5t64.5 -115.5t23.5 -145.5zM154 1333l298 296l299 -296l-90 -92l-209 206l-208 -206zM188 618l304 -6q80 -1 119.5 7t53.5 26t15 56q-3 69 -65.5 96t-177.5 27q-242 0 -249 -206z" />
    <glyph glyph-name="edieresis" unicode="&#xeb;" horiz-adv-x="878" 
d="M807 711v-7v-9q-4 -126 -77 -202t-239 -73l-298 5q14 -70 72.5 -109.5t143 -46t178 6.5t186.5 44l40 -275q-71 -23 -140.5 -37.5t-145.5 -17.5t-142 8.5t-126.5 44.5t-103.5 86.5t-68.5 140t-25.5 198.5v140q0 95 21.5 174.5t58 133t85 91t102 54.5t109.5 17
q96 0 167.5 -27.5t114.5 -78.5t64.5 -115.5t23.5 -145.5zM125 1355l147 147l147 -147l-147 -147zM188 618l304 -6q80 -1 119.5 7t53.5 26t15 56q-3 69 -65.5 96t-177.5 27q-242 0 -249 -206zM487 1354l146 147l147 -147l-147 -147z" />
    <glyph glyph-name="igrave" unicode="&#xec;" horiz-adv-x="427" 
d="M278 0h-127v959h127v-959zM47 1519l124 41l127 -382l-124 -41z" />
    <glyph glyph-name="iacute" unicode="&#xed;" horiz-adv-x="427" 
d="M278 0h-127v959h127v-959zM101 1176l127 381l124 -41l-127 -381z" />
    <glyph glyph-name="icircumflex" unicode="&#xee;" horiz-adv-x="427" 
d="M278 0h-127v959h127v-959zM-85 1266l298 296l299 -296l-90 -91l-209 205l-208 -205z" />
    <glyph glyph-name="idieresis" unicode="&#xef;" horiz-adv-x="427" 
d="M278 0h-127v959h127v-959zM-114 1289l147 146l146 -146l-146 -148zM247 1288l147 146l147 -146l-147 -148z" />
    <glyph glyph-name="eth" unicode="&#xf0;" horiz-adv-x="1147" 
d="M473 922l-31 57l167 93h-465v190h496q131 0 212 -56l207 115l31 -58l-186 -103q73 -88 73 -242v-384q-4 -156 -50 -270.5t-141.5 -181t-233.5 -66.5h-74q-122 0 -204 30t-127.5 92t-64.5 141.5t-21 194.5v13q0 13 1 20q2 61 13.5 111t39 97.5t70 79.5t110.5 51.5
t157 19.5h398v52q0 70 -25.5 103.5t-91.5 44.5zM188 487q1 -66 43 -78.5t247 -12.5h74q159 0 228.5 35t69.5 125v56h-398q-120 0 -174.5 -11.5t-71.5 -35.5t-18 -78z" />
    <glyph glyph-name="ntilde" unicode="&#xf1;" horiz-adv-x="982" 
d="M188 0h-127v1080h127v-170q68 85 155 121t158 36h26q395 0 395 -585v-482h-127v482q0 60 -3 97t-13.5 70t-27 49.5t-48 29t-72.5 16.5t-104 4h-26q-46 0 -84 -5t-82.5 -22.5t-75 -47t-51 -83t-20.5 -125.5v-465zM136 1465q91 50 146 66.5t112 5.5t130 -58
q66 -42 107 -34.5t127 80.5l85 -100q-113 -96 -199.5 -108.5t-189.5 52.5q-40 26 -60 35.5t-50.5 7t-57.5 -15.5t-88 -46z" />
    <glyph glyph-name="ograve" unicode="&#xf2;" horiz-adv-x="1012" 
d="M951 614q3 -146 -16.5 -251.5t-68 -185.5t-136 -120t-215.5 -40q-110 0 -190.5 26t-132 73.5t-81.5 123.5t-41 165t-9 209v1q0 130 34 226.5t96.5 153t143 83.5t180.5 27q208 0 319.5 -127t116.5 -361v-3zM188 578v-59.5t7.5 -44t12 -32.5t27.5 -20.5t38 -14t60 -6.5
t77.5 -3h104.5q61 0 97.5 0.5t74 4t56 7.5t37 15t25.5 22t12.5 32.5t6.5 43.5t0 58v1l-1 32q-2 131 -74.5 184t-233.5 53q-182 0 -254.5 -51.5t-72.5 -184.5v-37zM338 1602l125 41l127 -381l-125 -41z" />
    <glyph glyph-name="oacute" unicode="&#xf3;" horiz-adv-x="1012" 
d="M951 614q3 -146 -16.5 -251.5t-68 -185.5t-136 -120t-215.5 -40q-110 0 -190.5 26t-132 73.5t-81.5 123.5t-41 165t-9 209v1q0 130 34 226.5t96.5 153t143 83.5t180.5 27q208 0 319.5 -127t116.5 -361v-3zM188 578v-59.5t7.5 -44t12 -32.5t27.5 -20.5t38 -14t60 -6.5
t77.5 -3h104.5q61 0 97.5 0.5t74 4t56 7.5t37 15t25.5 22t12.5 32.5t6.5 43.5t0 58v1l-1 32q-2 131 -74.5 184t-233.5 53q-182 0 -254.5 -51.5t-72.5 -184.5v-37zM392 1259l127 382l125 -41l-127 -382z" />
    <glyph glyph-name="ocircumflex" unicode="&#xf4;" horiz-adv-x="1012" 
d="M951 614q3 -146 -16.5 -251.5t-68 -185.5t-136 -120t-215.5 -40q-110 0 -190.5 26t-132 73.5t-81.5 123.5t-41 165t-9 209v1q0 130 34 226.5t96.5 153t143 83.5t180.5 27q208 0 319.5 -127t116.5 -361v-3zM188 578v-59.5t7.5 -44t12 -32.5t27.5 -20.5t38 -14t60 -6.5
t77.5 -3h104.5q61 0 97.5 0.5t74 4t56 7.5t37 15t25.5 22t12.5 32.5t6.5 43.5t0 58v1l-1 32q-2 131 -74.5 184t-233.5 53q-182 0 -254.5 -51.5t-72.5 -184.5v-37zM206 1350l299 296l299 -296l-90 -92l-209 206l-208 -206z" />
    <glyph glyph-name="otilde" unicode="&#xf5;" horiz-adv-x="1012" 
d="M951 614q3 -146 -16.5 -251.5t-68 -185.5t-136 -120t-215.5 -40q-110 0 -190.5 26t-132 73.5t-81.5 123.5t-41 165t-9 209v1q0 130 34 226.5t96.5 153t143 83.5t180.5 27q208 0 319.5 -127t116.5 -361v-3zM152 1419q91 50 146 66.5t112 5.5t130 -58q66 -42 106.5 -34.5
t126.5 80.5l86 -99q-114 -96 -200.5 -109t-189.5 52q-33 21 -51.5 29.5t-37 13.5t-43 -3.5t-49 -20t-74.5 -38.5zM188 578v-59.5t7.5 -44t12 -32.5t27.5 -20.5t38 -14t60 -6.5t77.5 -3h104.5q61 0 97.5 0.5t74 4t56 7.5t37 15t25.5 22t12.5 32.5t6.5 43.5t0 58v1l-1 32
q-2 131 -74.5 184t-233.5 53q-182 0 -254.5 -51.5t-72.5 -184.5v-37z" />
    <glyph glyph-name="odieresis" unicode="&#xf6;" horiz-adv-x="1012" 
d="M951 614q3 -146 -16.5 -251.5t-68 -185.5t-136 -120t-215.5 -40q-110 0 -190.5 26t-132 73.5t-81.5 123.5t-41 165t-9 209v1q0 130 34 226.5t96.5 153t143 83.5t180.5 27q208 0 319.5 -127t116.5 -361v-3zM178 1372l146 147l147 -147l-147 -147zM188 578v-59.5t7.5 -44
t12 -32.5t27.5 -20.5t38 -14t60 -6.5t77.5 -3h104.5q61 0 97.5 0.5t74 4t56 7.5t37 15t25.5 22t12.5 32.5t6.5 43.5t0 58v1l-1 32q-2 131 -74.5 184t-233.5 53q-182 0 -254.5 -51.5t-72.5 -184.5v-37zM539 1371l147 147l146 -147l-146 -147z" />
    <glyph glyph-name="divide" unicode="&#xf7;" horiz-adv-x="1019" 
d="M964 682v-127h-908v127h908z" />
    <glyph glyph-name="oslash" unicode="&#xf8;" horiz-adv-x="1381" 
d="M1115 614q3 -146 -16.5 -251.5t-68 -185.5t-136 -120t-215.5 -40q-270 0 -373 163l-161 -149l-87 94l195 181q-32 119 -29 308h1v1q0 130 34 226.5t96.5 153t143 83.5t180.5 27q197 0 310 -116l247 229l87 -93l-262 -244q51 -108 54 -264v-3zM351 578q-1 -66 5.5 -99
t29.5 -51l439 408q-55 15 -146 15q-182 0 -254.5 -51.5t-72.5 -184.5zM541 399q38 -1 138 -1q61 0 97.5 0.5t74 4t56 7.5t37 15t25.5 22t12.5 32.5t6.5 43.5t0 58v1l-1 32q-3 101 -46 156z" />
    <glyph glyph-name="ugrave" unicode="&#xf9;" horiz-adv-x="1088" 
d="M688 1046h127v-7h3v-575q0 -66 16.5 -111.5t47 -69.5t67 -34t84.5 -10v-254q-50 0 -99.5 16.5t-104 64t-87.5 121.5q-89 -170 -289 -170h-30q-362 0 -362 565v464h127v-464v-57.5t4 -43t8.5 -33t18 -22t27.5 -16t42.5 -7.5t57.5 -4.5t77 -0.5h30h63t50.5 2.5t40 4t29.5 9
t22 12t14 18t9.5 22.5t4.5 31t2 38v47v464zM378 1527l124 41l127 -382l-124 -41z" />
    <glyph glyph-name="uacute" unicode="&#xfa;" horiz-adv-x="1088" 
d="M688 1046h127v-7h3v-575q0 -66 16.5 -111.5t47 -69.5t67 -34t84.5 -10v-254q-50 0 -99.5 16.5t-104 64t-87.5 121.5q-89 -170 -289 -170h-30q-362 0 -362 565v464h127v-464v-57.5t4 -43t8.5 -33t18 -22t27.5 -16t42.5 -7.5t57.5 -4.5t77 -0.5h30h63t50.5 2.5t40 4t29.5 9
t22 12t14 18t9.5 22.5t4.5 31t2 38v47v464zM432 1184l127 381l124 -40l-127 -382z" />
    <glyph glyph-name="ucircumflex" unicode="&#xfb;" horiz-adv-x="1088" 
d="M688 1046h127v-7h3v-575q0 -66 16.5 -111.5t47 -69.5t67 -34t84.5 -10v-254q-50 0 -99.5 16.5t-104 64t-87.5 121.5q-89 -170 -289 -170h-30q-362 0 -362 565v464h127v-464v-57.5t4 -43t8.5 -33t18 -22t27.5 -16t42.5 -7.5t57.5 -4.5t77 -0.5h30h63t50.5 2.5t40 4t29.5 9
t22 12t14 18t9.5 22.5t4.5 31t2 38v47v464zM246 1275l298 295l299 -295l-90 -92l-209 206l-208 -206z" />
    <glyph glyph-name="udieresis" unicode="&#xfc;" horiz-adv-x="1088" 
d="M688 1046h127v-7h3v-575q0 -66 16.5 -111.5t47 -69.5t67 -34t84.5 -10v-254q-50 0 -99.5 16.5t-104 64t-87.5 121.5q-89 -170 -289 -170h-30q-362 0 -362 565v464h127v-464v-57.5t4 -43t8.5 -33t18 -22t27.5 -16t42.5 -7.5t57.5 -4.5t77 -0.5h30h63t50.5 2.5t40 4t29.5 9
t22 12t14 18t9.5 22.5t4.5 31t2 38v47v464zM217 1297l147 146l146 -146l-146 -148zM578 1296l147 147l147 -147l-147 -147z" />
    <glyph glyph-name="yacute" unicode="&#xfd;" horiz-adv-x="876" 
d="M688 1053h127v-917q0 -354 -168 -511.5t-517 -157.5v254q213 0 331 37t170.5 119.5t56.5 232.5q-88 -93 -235 -93h-30q-362 0 -362 565v471h127v-471v-57.5t4 -43t8.5 -33t18 -22t27.5 -16t42.5 -7.5t57.5 -4.5t77 -0.5h30h63t50.5 2.5t40 4t29.5 9t22 12t14 18t9.5 22.5
t4.5 31t2 38v47v471zM325 1184l127 381l125 -40l-127 -382z" />
    <glyph glyph-name="thorn" unicode="&#xfe;" horiz-adv-x="1003" 
d="M61 -422l1 1486v386h126v-386h407q156 0 252 -130t96 -368v-10q0 -253 -98.5 -385t-312.5 -132q-236 0 -344 96v-557h-127zM188 561q0 -34 3 -54t16.5 -38t33.5 -26t61.5 -14.5t93.5 -8t136 -1.5q73 0 114 2t79 9.5t55 22.5t26.5 39.5t9.5 63.5l-1 38q-4 122 -54 169
t-166 47h-407v-249z" />
    <glyph glyph-name="ydieresis" unicode="&#xff;" horiz-adv-x="876" 
d="M688 1053h127v-917q0 -354 -168 -511.5t-517 -157.5v254q213 0 331 37t170.5 119.5t56.5 232.5q-88 -93 -235 -93h-30q-362 0 -362 565v471h127v-471v-57.5t4 -43t8.5 -33t18 -22t27.5 -16t42.5 -7.5t57.5 -4.5t77 -0.5h30h63t50.5 2.5t40 4t29.5 9t22 12t14 18t9.5 22.5
t4.5 31t2 38v47v471zM111 1297l146 146l147 -146l-147 -148zM472 1296l146 147l147 -147l-147 -147z" />
    <glyph glyph-name="Amacron" unicode="&#x100;" horiz-adv-x="1519" 
d="M1452 0h-254l-99 506h-550l-98 -506h-379l220 1130q19 97 53.5 166.5t78 112.5t105.5 67.5t125 33.5t148 10h6h9q102 -2 173 -26.5t118 -76t75 -119.5t47 -168zM441 1700v129h722v-129h-722zM573 633h501l-93 473q-32 168 -52 212q-25 58 -80 70q-19 5 -44 5
q-62 -1 -81 -40t-59 -247z" />
    <glyph glyph-name="amacron" unicode="&#x101;" horiz-adv-x="1089" 
d="M723 1039h127v-575q0 -66 16.5 -111.5t47 -69.5t67 -34t84.5 -10v-254q-49 0 -98 16t-103 63t-88 120q-97 -172 -330 -172q-88 0 -155.5 27.5t-108.5 71.5t-68 109t-38 130.5t-14 145.5h-1v23v27h1q12 225 116.5 347t267.5 122q173 0 277 -122v146zM134 1275v129h723
v-129h-723zM188 513q0 -24 1.5 -39t7.5 -29t11.5 -21.5t22 -14t30.5 -9t46 -4.5t60 -2.5t79 -0.5q194 0 232 15.5t39 97.5q-1 63 -12.5 106.5t-40.5 79t-83 52.5t-135 17q-137 0 -196 -56t-62 -192z" />
    <glyph glyph-name="Abreve" unicode="&#x102;" horiz-adv-x="1519" 
d="M1452 0h-254l-99 506h-550l-98 -506h-379l220 1130q19 97 53.5 166.5t78 112.5t105.5 67.5t125 33.5t148 10h6h9q102 -2 173 -26.5t118 -76t75 -119.5t47 -168zM573 633h501l-93 473q-32 168 -52 212q-25 58 -80 70q-19 5 -44 5q-62 -1 -81 -40t-59 -247zM611 1898v103
h66v-103q0 -54 39 -85t85.5 -31t85.5 31t39 85v103h65v-103q0 -56 -16.5 -101.5t-43 -73.5t-60.5 -43t-70 -15t-70 15t-60.5 43t-43 73.5t-16.5 101.5z" />
    <glyph glyph-name="abreve" unicode="&#x103;" horiz-adv-x="1089" 
d="M723 1039h127v-575q0 -66 16.5 -111.5t47 -69.5t67 -34t84.5 -10v-254q-49 0 -98 16t-103 63t-88 120q-97 -172 -330 -172q-88 0 -155.5 27.5t-108.5 71.5t-68 109t-38 130.5t-14 145.5h-1v23v27h1q12 225 116.5 347t267.5 122q173 0 277 -122v146zM188 513
q0 -24 1.5 -39t7.5 -29t11.5 -21.5t22 -14t30.5 -9t46 -4.5t60 -2.5t79 -0.5q194 0 232 15.5t39 97.5q-1 63 -12.5 106.5t-40.5 79t-83 52.5t-135 17q-137 0 -196 -56t-62 -192zM305 1473v103h65v-103q0 -54 39 -85t85.5 -31t85.5 31t39 85v103h66v-103q0 -56 -16.5 -101.5
t-43 -73.5t-60.5 -43t-70 -15t-70 15t-60.5 43t-43 73.5t-16.5 101.5z" />
    <glyph glyph-name="Aogonek" unicode="&#x104;" horiz-adv-x="1519" 
d="M72 0l220 1130q19 97 53.5 166.5t78 112.5t105.5 67.5t125 33.5t148 10h6h9q102 -2 173 -26.5t118 -76t75 -119.5t47 -168l221 -1121h24v-139q0 -34 29.5 -45.5t128.5 -11.5v-135q-122 0 -172.5 48.5t-50.5 143.5v130h-212l-99 506h-550l-98 -506h-379zM573 633h501
l-93 473q-32 168 -52 212q-25 58 -80 70q-19 5 -44 5q-62 -1 -81 -40t-59 -247z" />
    <glyph glyph-name="aogonek" unicode="&#x105;" horiz-adv-x="1089" 
d="M723 1039h127v-575q0 -66 16.5 -111.5t47 -69.5t67 -34t84.5 -10v-254q-36 0 -75 10v-134q0 -34 29.5 -45.5t127.5 -11.5v-135q-122 0 -172.5 48.5t-50.5 143.5v139h49q-132 43 -197 184q-97 -172 -330 -172q-88 0 -155.5 27.5t-108.5 71.5t-68 109t-38 130.5t-14 145.5
h-1v23v27h1q12 225 116.5 347t267.5 122q173 0 277 -122v146zM188 513q0 -24 1.5 -39t7.5 -29t11.5 -21.5t22 -14t30.5 -9t46 -4.5t60 -2.5t79 -0.5q194 0 232 15.5t39 97.5q-1 63 -12.5 106.5t-40.5 79t-83 52.5t-135 17q-137 0 -196 -56t-62 -192z" />
    <glyph glyph-name="Cacute" unicode="&#x106;" horiz-adv-x="1007" 
d="M952 3h-157q-157 0 -265.5 13t-194 48.5t-135.5 88.5t-83 143.5t-44.5 203.5t-11.5 277v5q0 112 7 196t25.5 164.5t51 137.5t84 105.5t123.5 77t169.5 44.5t223.5 16h158v-254h-158q-100 0 -172.5 -4t-132.5 -16t-98.5 -27t-68.5 -46t-45.5 -62.5t-25 -86t-12 -108
t-2.5 -137.5v-5q0 -66 0.5 -103t7 -82.5t11.5 -67t25 -48.5t37 -37.5t58 -24.5t76 -17t103 -7.5t128 -5t161 -0.5h157v-381zM606 1674l127 381l125 -41l-127 -381z" />
    <glyph glyph-name="cacute" unicode="&#x107;" horiz-adv-x="905" 
d="M188 592q0 -147 167 -199.5t495 2.5v-379q-772 -130 -789 547v29v1q0 84 27 164.5t83.5 153.5t145 117t211 54.5t281.5 -33.5v-254q-156 45 -273 44.5t-194 -37.5t-115.5 -91.5t-38.5 -117.5v-1zM459 1290l127 382l124 -41l-127 -382z" />
    <glyph glyph-name="Ccircumflex" unicode="&#x108;" horiz-adv-x="1007" 
d="M952 3h-157q-157 0 -265.5 13t-194 48.5t-135.5 88.5t-83 143.5t-44.5 203.5t-11.5 277v5q0 112 7 196t25.5 164.5t51 137.5t84 105.5t123.5 77t169.5 44.5t223.5 16h158v-254h-158q-100 0 -172.5 -4t-132.5 -16t-98.5 -27t-68.5 -46t-45.5 -62.5t-25 -86t-12 -108
t-2.5 -137.5v-5q0 -66 0.5 -103t7 -82.5t11.5 -67t25 -48.5t37 -37.5t58 -24.5t76 -17t103 -7.5t128 -5t161 -0.5h157v-381zM420 1765l298 295l299 -295l-90 -92l-209 205l-208 -205z" />
    <glyph glyph-name="ccircumflex" unicode="&#x109;" horiz-adv-x="905" 
d="M188 592q0 -147 167 -199.5t495 2.5v-379q-772 -130 -789 547v29v1q0 84 27 164.5t83.5 153.5t145 117t211 54.5t281.5 -33.5v-254q-156 45 -273 44.5t-194 -37.5t-115.5 -91.5t-38.5 -117.5v-1zM273 1381l298 296l299 -296l-90 -92l-209 206l-208 -206z" />
    <glyph glyph-name="Cdotaccent" unicode="&#x10a;" horiz-adv-x="1007" 
d="M952 3h-157q-157 0 -265.5 13t-194 48.5t-135.5 88.5t-83 143.5t-44.5 203.5t-11.5 277v5q0 112 7 196t25.5 164.5t51 137.5t84 105.5t123.5 77t169.5 44.5t223.5 16h158v-254h-158q-100 0 -172.5 -4t-132.5 -16t-98.5 -27t-68.5 -46t-45.5 -62.5t-25 -86t-12 -108
t-2.5 -137.5v-5q0 -66 0.5 -103t7 -82.5t11.5 -67t25 -48.5t37 -37.5t58 -24.5t76 -17t103 -7.5t128 -5t161 -0.5h157v-381zM573 1797l146 146l147 -146l-147 -148z" />
    <glyph glyph-name="cdotaccent" unicode="&#x10b;" horiz-adv-x="905" 
d="M188 592q0 -147 167 -199.5t495 2.5v-379q-772 -130 -789 547v29v1q0 84 27 164.5t83.5 153.5t145 117t211 54.5t281.5 -33.5v-254q-156 45 -273 44.5t-194 -37.5t-115.5 -91.5t-38.5 -117.5v-1zM425 1413l147 147l146 -147l-146 -147z" />
    <glyph glyph-name="Ccaron" unicode="&#x10c;" horiz-adv-x="1007" 
d="M952 3h-157q-157 0 -265.5 13t-194 48.5t-135.5 88.5t-83 143.5t-44.5 203.5t-11.5 277v5q0 112 7 196t25.5 164.5t51 137.5t84 105.5t123.5 77t169.5 44.5t223.5 16h158v-254h-158q-100 0 -172.5 -4t-132.5 -16t-98.5 -27t-68.5 -46t-45.5 -62.5t-25 -86t-12 -108
t-2.5 -137.5v-5q0 -66 0.5 -103t7 -82.5t11.5 -67t25 -48.5t37 -37.5t58 -24.5t76 -17t103 -7.5t128 -5t161 -0.5h157v-381zM421 1982l90 92l208 -205l209 205l90 -92l-299 -295z" />
    <glyph glyph-name="ccaron" unicode="&#x10d;" horiz-adv-x="905" 
d="M188 592q0 -147 167 -199.5t495 2.5v-379q-772 -130 -789 547v29v1q0 84 27 164.5t83.5 153.5t145 117t211 54.5t281.5 -33.5v-254q-156 45 -273 44.5t-194 -37.5t-115.5 -91.5t-38.5 -117.5v-1zM274 1599l90 92l208 -206l209 206l90 -92l-299 -296z" />
    <glyph glyph-name="Dcaron" unicode="&#x10e;" horiz-adv-x="1123" 
d="M188 0h-127l1 1536h126v-11h218q657 0 657 -684v-92v-25v-11q-2 -160 -36.5 -282t-91.5 -199.5t-142 -126.5t-179.5 -68.5t-212.5 -19.5h-213v-17zM188 398h213q294 0 415 77.5t119 273.5h1v92q0 115 -25 192.5t-85 132.5t-163 80t-257 25h-218v-873zM263 1982l90 92
l208 -205l209 205l90 -92l-299 -295z" />
    <glyph glyph-name="dcaron" unicode="&#x10f;" horiz-adv-x="982" 
d="M795 0v142q-101 -125 -257 -125h-77q-189 0 -294.5 141t-105.5 392v25q0 215 109 345t285 130h26q81 0 165 -36t149 -105v627h127v-1536h-127zM188 550q0 -40 13 -67.5t34 -44t58 -25.5t74.5 -12t93.5 -3h77q141 0 199 39.5t58 130.5q0 103 -93 165.5t-221 62.5h-26
q-139 0 -203 -54t-64 -167v-25zM370 1209l127 382l125 -41l-127 -382z" />
    <glyph glyph-name="Dcroat" unicode="&#x110;" horiz-adv-x="1286" 
d="M353 0h-126v745h-174v127h175v664h126v-11h218q656 0 656 -684v-92v-25v-11q-2 -160 -36.5 -282t-91.5 -199.5t-142 -126.5t-179.5 -68.5t-212.5 -19.5h-213v-17zM353 398h213q294 0 415 77.5t119 273.5h1v92q0 115 -24.5 192.5t-85 132.5t-163 80t-256.5 25h-218v-399
h451v-127h-452v-347z" />
    <glyph glyph-name="dcroat" unicode="&#x111;" horiz-adv-x="1205" 
d="M795 0v142q-101 -125 -257 -125h-77q-189 0 -294.5 141t-105.5 392v25q0 215 109 345t285 130h26q81 0 165 -36t149 -105v348h-231v127h231v152h127v-152h227v-127h-227v-1257h-127zM188 550q0 -40 13 -67.5t34 -44t58 -25.5t74.5 -12t93.5 -3h77q141 0 199 39.5
t58 130.5q0 103 -93 165.5t-221 62.5h-26q-139 0 -203 -54t-64 -167v-25z" />
    <glyph glyph-name="Emacron" unicode="&#x112;" horiz-adv-x="1101" 
d="M1046 398v-381h-567q-91 0 -163.5 30t-119.5 81t-78 123t-44 151t-13 169v954h984v-254h-857v-360h761v-127h-761v-213q0 -69 21 -103.5t83.5 -52t186.5 -17.5h567zM109 1700v129h722v-129h-722z" />
    <glyph glyph-name="emacron" unicode="&#x113;" horiz-adv-x="878" 
d="M807 711v-7v-9q-4 -126 -77 -202t-239 -73l-298 5q14 -70 72.5 -109.5t143 -46t178 6.5t186.5 44l40 -275q-71 -23 -140.5 -37.5t-145.5 -17.5t-142 8.5t-126.5 44.5t-103.5 86.5t-68.5 140t-25.5 198.5v140q0 95 21.5 174.5t58 133t85 91t102 54.5t109.5 17
q96 0 167.5 -27.5t114.5 -78.5t64.5 -115.5t23.5 -145.5zM92 1268v130h722v-130h-722zM188 618l304 -6q80 -1 119.5 7t53.5 26t15 56q-3 69 -65.5 96t-177.5 27q-242 0 -249 -206z" />
    <glyph glyph-name="Edotaccent" unicode="&#x116;" horiz-adv-x="1101" 
d="M1046 398v-381h-567q-91 0 -163.5 30t-119.5 81t-78 123t-44 151t-13 169v954h984v-254h-857v-360h761v-127h-761v-213q0 -69 21 -103.5t83.5 -52t186.5 -17.5h567zM324 1797l146 146l147 -146l-147 -148z" />
    <glyph glyph-name="edotaccent" unicode="&#x117;" horiz-adv-x="878" 
d="M807 711v-7v-9q-4 -126 -77 -202t-239 -73l-298 5q14 -70 72.5 -109.5t143 -46t178 6.5t186.5 44l40 -275q-71 -23 -140.5 -37.5t-145.5 -17.5t-142 8.5t-126.5 44.5t-103.5 86.5t-68.5 140t-25.5 198.5v140q0 95 21.5 174.5t58 133t85 91t102 54.5t109.5 17
q96 0 167.5 -27.5t114.5 -78.5t64.5 -115.5t23.5 -145.5zM188 618l304 -6q80 -1 119.5 7t53.5 26t15 56q-3 69 -65.5 96t-177.5 27q-242 0 -249 -206zM306 1365l147 146l147 -146l-147 -148z" />
    <glyph glyph-name="Eogonek" unicode="&#x118;" horiz-adv-x="1101" 
d="M1046 398v-381h-567q-91 0 -163.5 30t-119.5 81t-78 123t-44 151t-13 169v954h984v-254h-857v-360h761v-127h-761v-213q0 -69 21 -103.5t83.5 -52t186.5 -17.5h567zM647 -130v139h66v-139q0 -34 29.5 -45.5t127.5 -11.5v-135q-122 0 -172.5 48.5t-50.5 143.5z" />
    <glyph glyph-name="eogonek" unicode="&#x119;" horiz-adv-x="878" 
d="M807 711v-7v-9q-4 -126 -77 -202t-239 -73l-298 5q14 -70 72.5 -109.5t143 -46t178 6.5t186.5 44l40 -275q-71 -23 -140.5 -37.5t-145.5 -17.5t-142 8.5t-126.5 44.5t-103.5 86.5t-68.5 140t-25.5 198.5v140q0 95 21.5 174.5t58 133t85 91t102 54.5t109.5 17
q96 0 167.5 -27.5t114.5 -78.5t64.5 -115.5t23.5 -145.5zM188 618l304 -6q80 -1 119.5 7t53.5 26t15 56q-3 69 -65.5 96t-177.5 27q-242 0 -249 -206zM469 -156v140h66v-140q0 -23 11 -34t44.5 -16.5t101.5 -5.5v-135q-122 0 -172.5 48t-50.5 143z" />
    <glyph glyph-name="Ecaron" unicode="&#x11a;" horiz-adv-x="1101" 
d="M1046 398v-381h-567q-91 0 -163.5 30t-119.5 81t-78 123t-44 151t-13 169v954h984v-254h-857v-360h761v-127h-761v-213q0 -69 21 -103.5t83.5 -52t186.5 -17.5h567zM172 1982l90 92l208 -205l209 205l90 -92l-299 -295z" />
    <glyph glyph-name="ecaron" unicode="&#x11b;" horiz-adv-x="878" 
d="M807 711v-7v-9q-4 -126 -77 -202t-239 -73l-298 5q14 -70 72.5 -109.5t143 -46t178 6.5t186.5 44l40 -275q-71 -23 -140.5 -37.5t-145.5 -17.5t-142 8.5t-126.5 44.5t-103.5 86.5t-68.5 140t-25.5 198.5v140q0 95 21.5 174.5t58 133t85 91t102 54.5t109.5 17
q96 0 167.5 -27.5t114.5 -78.5t64.5 -115.5t23.5 -145.5zM155 1551l90 91l208 -205l209 205l90 -91l-299 -296zM188 618l304 -6q80 -1 119.5 7t53.5 26t15 56q-3 69 -65.5 96t-177.5 27q-242 0 -249 -206z" />
    <glyph glyph-name="Gcircumflex" unicode="&#x11c;" horiz-adv-x="1241" 
d="M659 17q-66 2 -126.5 13.5t-121.5 38t-112 66t-96 100t-76 137t-48.5 180t-17.5 225.5v6q0 353 163.5 547t457.5 194v-1q52 -1 92 -3.5t78 -9.5t60 -11.5t69.5 -17t74.5 -19.5l-30 -247q-19 5 -65 17t-65 16t-59 10.5t-83 9t-102 2.5q-237 -7 -350.5 -123t-113.5 -364v-6
q0 -205 123.5 -292t367.5 -87h40q129 0 203.5 23t102.5 63t28 106v126h-443v190h443v7h127v-323q0 -117 -26.5 -217.5t-80.5 -181.5t-144.5 -127.5t-209.5 -46.5h-60zM363 1765l298 295l299 -295l-90 -92l-209 205l-208 -205z" />
    <glyph glyph-name="gcircumflex" unicode="&#x11d;" horiz-adv-x="969" 
d="M223 -242q219 0 338.5 39.5t169.5 127.5t50 249v19q-100 -175 -331 -175q-107 0 -183.5 38t-119 108t-62 152.5t-23.5 189.5h-1v24v30h2q12 224 117 346t270 122q226 0 331 -201v200h127v-853q0 -353 -168 -511.5t-517 -158.5v254zM178 1256l298 296l299 -296l-90 -92
l-209 206l-208 -206zM188 523q0 -24 1.5 -39.5t7.5 -30t11.5 -22.5t22.5 -15t31.5 -9.5t47 -4.5t60.5 -2.5t80 -0.5q59 0 96 1.5t69.5 3.5t50 8.5t30.5 13.5t18 22t7.5 29.5t2.5 39.5q-1 64 -12.5 107.5t-41 79.5t-84 53t-136.5 17q-137 0 -197.5 -57t-64.5 -194z" />
    <glyph glyph-name="Gbreve" unicode="&#x11e;" horiz-adv-x="1241" 
d="M659 17q-66 2 -126.5 13.5t-121.5 38t-112 66t-96 100t-76 137t-48.5 180t-17.5 225.5v6q0 353 163.5 547t457.5 194v-1q52 -1 92 -3.5t78 -9.5t60 -11.5t69.5 -17t74.5 -19.5l-30 -247q-19 5 -65 17t-65 16t-59 10.5t-83 9t-102 2.5q-237 -7 -350.5 -123t-113.5 -364v-6
q0 -205 123.5 -292t367.5 -87h40q129 0 203.5 23t102.5 63t28 106v126h-443v190h443v7h127v-323q0 -117 -26.5 -217.5t-80.5 -181.5t-144.5 -127.5t-209.5 -46.5h-60zM471 1898v103h66v-103q0 -54 39 -85t85.5 -31t85.5 31t39 85v103h65v-103q0 -56 -16.5 -101.5t-43 -73.5
t-60.5 -43t-70 -15t-70 15t-60.5 43t-43 73.5t-16.5 101.5z" />
    <glyph glyph-name="gbreve" unicode="&#x11f;" horiz-adv-x="969" 
d="M223 -242q219 0 338.5 39.5t169.5 127.5t50 249v19q-100 -175 -331 -175q-107 0 -183.5 38t-119 108t-62 152.5t-23.5 189.5h-1v24v30h2q12 224 117 346t270 122q226 0 331 -201v200h127v-853q0 -353 -168 -511.5t-517 -158.5v254zM188 523q0 -24 1.5 -39.5t7.5 -30
t11.5 -22.5t22.5 -15t31.5 -9.5t47 -4.5t60.5 -2.5t80 -0.5q59 0 96 1.5t69.5 3.5t50 8.5t30.5 13.5t18 22t7.5 29.5t2.5 39.5q-1 64 -12.5 107.5t-41 79.5t-84 53t-136.5 17q-137 0 -197.5 -57t-64.5 -194zM286 1389v104h65v-104q0 -54 39 -85t85.5 -31t85.5 31t39 85v104
h66v-104q0 -56 -16.5 -101.5t-43 -73.5t-60.5 -43t-70 -15t-70 15t-60.5 43t-43 73.5t-16.5 101.5z" />
    <glyph glyph-name="Gdotaccent" unicode="&#x120;" horiz-adv-x="1241" 
d="M659 17q-66 2 -126.5 13.5t-121.5 38t-112 66t-96 100t-76 137t-48.5 180t-17.5 225.5v6q0 353 163.5 547t457.5 194v-1q52 -1 92 -3.5t78 -9.5t60 -11.5t69.5 -17t74.5 -19.5l-30 -247q-19 5 -65 17t-65 16t-59 10.5t-83 9t-102 2.5q-237 -7 -350.5 -123t-113.5 -364v-6
q0 -205 123.5 -292t367.5 -87h40q129 0 203.5 23t102.5 63t28 106v126h-443v190h443v7h127v-323q0 -117 -26.5 -217.5t-80.5 -181.5t-144.5 -127.5t-209.5 -46.5h-60zM515 1797l147 146l147 -146l-147 -148z" />
    <glyph glyph-name="gdotaccent" unicode="&#x121;" horiz-adv-x="969" 
d="M223 -242q219 0 338.5 39.5t169.5 127.5t50 249v19q-100 -175 -331 -175q-107 0 -183.5 38t-119 108t-62 152.5t-23.5 189.5h-1v24v30h2q12 224 117 346t270 122q226 0 331 -201v200h127v-853q0 -353 -168 -511.5t-517 -158.5v254zM188 523q0 -24 1.5 -39.5t7.5 -30
t11.5 -22.5t22.5 -15t31.5 -9.5t47 -4.5t60.5 -2.5t80 -0.5q59 0 96 1.5t69.5 3.5t50 8.5t30.5 13.5t18 22t7.5 29.5t2.5 39.5q-1 64 -12.5 107.5t-41 79.5t-84 53t-136.5 17q-137 0 -197.5 -57t-64.5 -194zM330 1288l147 146l146 -146l-146 -148z" />
    <glyph glyph-name="uni0122" unicode="&#x122;" horiz-adv-x="1241" 
d="M659 17q-66 2 -126.5 13.5t-121.5 38t-112 66t-96 100t-76 137t-48.5 180t-17.5 225.5v6q0 353 163.5 547t457.5 194v-1q52 -1 92 -3.5t78 -9.5t60 -11.5t69.5 -17t74.5 -19.5l-30 -247q-19 5 -65 17t-65 16t-59 10.5t-83 9t-102 2.5q-237 -7 -350.5 -123t-113.5 -364v-6
q0 -205 123.5 -292t367.5 -87h40q129 0 203.5 23t102.5 63t28 106v126h-443v190h443v7h127v-323q0 -117 -26.5 -217.5t-80.5 -181.5t-144.5 -127.5t-209.5 -46.5h-60zM551 -450l127 382l125 -41l-127 -382z" />
    <glyph glyph-name="uni0123" unicode="&#x123;" horiz-adv-x="969" 
d="M223 -242q219 0 338.5 39.5t169.5 127.5t50 249v19q-100 -175 -331 -175q-107 0 -183.5 38t-119 108t-62 152.5t-23.5 189.5h-1v24v30h2q12 224 117 346t270 122q226 0 331 -201v200h127v-853q0 -353 -168 -511.5t-517 -158.5v254zM188 523q0 -24 1.5 -39.5t7.5 -30
t11.5 -22.5t22.5 -15t31.5 -9.5t47 -4.5t60.5 -2.5t80 -0.5q59 0 96 1.5t69.5 3.5t50 8.5t30.5 13.5t18 22t7.5 29.5t2.5 39.5q-1 64 -12.5 107.5t-41 79.5t-84 53t-136.5 17q-137 0 -197.5 -57t-64.5 -194zM366 1362v139h66v-139q0 -23 11 -34t44 -16t102 -5v-136
q-122 0 -172.5 47.5t-50.5 143.5z" />
    <glyph glyph-name="Hcircumflex" unicode="&#x124;" horiz-adv-x="1132" 
d="M188 0h-127l1 1536h126v-601h757v601h127l-1 -1536h-126v554h-757v-554zM218 1765l298 295l299 -295l-90 -92l-209 205l-208 -205z" />
    <glyph glyph-name="hcircumflex" unicode="&#x125;" horiz-adv-x="982" 
d="M188 0h-127v1536h127v-601q68 85 155 121t158 36h26q395 0 395 -586v-506h-127v506q0 60 -3 97t-13.5 70t-27 50t-48 29.5t-72.5 16.5t-104 4h-26q-46 0 -84 -5t-82.5 -22.5t-75 -47t-51 -83t-20.5 -125.5v-490zM212 1765l298 295l299 -295l-90 -92l-209 205l-208 -205z
" />
    <glyph glyph-name="Hbar" unicode="&#x126;" horiz-adv-x="1512" 
d="M378 0h-126l1 1213h-197v127h197v196h126v-196h757v196h126v-196h195v-127h-195v-1213h-127v554h-757v-554zM379 935h757v278h-757v-278z" />
    <glyph glyph-name="hbar" unicode="&#x127;" horiz-adv-x="1149" 
d="M356 0h-127v1250h-173v127h173v159h127v-159h366v-127h-366v-315q68 85 154.5 121t157.5 36h26q395 0 395 -586v-506h-127v506q0 60 -3 97t-13.5 70t-27 50t-48 29.5t-72.5 16.5t-104 4h-26q-46 0 -84 -5t-82.5 -22.5t-74.5 -47t-50.5 -83t-20.5 -125.5v-490z" />
    <glyph glyph-name="Itilde" unicode="&#x128;" horiz-adv-x="455" 
d="M290 0h-126l1 1536h127zM-126 1833q91 50 146 66.5t112 5.5t130 -58q66 -42 106.5 -34t127.5 81l85 -100q-113 -96 -199.5 -108.5t-189.5 52.5q-40 26 -60 35.5t-50.5 7t-57.5 -15.5t-88 -46z" />
    <glyph glyph-name="itilde" unicode="&#x129;" horiz-adv-x="316" 
d="M222 0h-127v1139h127v-1139z" />
    <glyph glyph-name="Imacron" unicode="&#x12a;" horiz-adv-x="455" 
d="M290 0h-126l1 1536h127zM-134 1700v129h723v-129h-723z" />
    <glyph glyph-name="imacron" unicode="&#x12b;" horiz-adv-x="316" 
d="M222 0h-127v1139h127v-1139z" />
    <glyph glyph-name="Iogonek" unicode="&#x12e;" horiz-adv-x="455" 
d="M290 0h-8v-137q0 -23 11 -34t44.5 -16.5t101.5 -5.5v-135q-122 0 -172.5 48t-50.5 143v137h-52l1 1536h127z" />
    <glyph glyph-name="iogonek" unicode="&#x12f;" horiz-adv-x="316" 
d="M222 0h-34v-139q0 -34 29.5 -45.5t127.5 -11.5v-135q-122 0 -172.5 48.5t-50.5 143.5v139h-27v1139h127v-1139z" />
    <glyph glyph-name="Idotaccent" unicode="&#x130;" horiz-adv-x="455" 
d="M290 0h-126l1 1536h127zM81 1797l147 146l146 -146l-146 -148z" />
    <glyph glyph-name="dotlessi" unicode="&#x131;" horiz-adv-x="427" 
d="M278 0h-127v959h127v-959z" />
    <glyph glyph-name="IJ" unicode="&#x132;" horiz-adv-x="1201" 
d="M290 0h-126l1 1536h127zM511 -217v318q204 0 310.5 37t149 120.5t42.5 242.5v1035h127v-1035q0 -176 -33 -305.5t-106 -224t-195.5 -141.5t-294.5 -47z" />
    <glyph glyph-name="ij" unicode="&#x133;" horiz-adv-x="1164" 
d="M310 0h-126v1027h126v-1027zM56 1291l183 184l184 -184l-184 -183zM357 -496v254q100 0 173.5 8.5t131 29t94.5 51.5t60.5 78.5t33.5 107.5t10 141v853h127v-853q0 -351 -155 -510.5t-475 -159.5zM742 1291l184 184l183 -184l-183 -183z" />
    <glyph glyph-name="Jcircumflex" unicode="&#x134;" horiz-adv-x="746" 
d="M56 101q204 0 310.5 37t149 120.5t42.5 242.5v1035h127v-1035q0 -176 -33 -305.5t-106 -224t-195.5 -141.5t-294.5 -47v318zM323 1765l298 295l299 -295l-90 -92l-209 205l-208 -205z" />
    <glyph glyph-name="jcircumflex" unicode="&#x135;" horiz-adv-x="746" 
d="M56 -242q100 0 173.5 8.5t131 29t94.5 51.5t60.5 78.5t33.5 107.5t10 141v853h127v-853q0 -351 -155 -510.5t-475 -159.5v254zM323 1256l298 296l299 -296l-90 -92l-209 206l-208 -206z" />
    <glyph glyph-name="uni0136" unicode="&#x136;" horiz-adv-x="1123" 
d="M188 0h-127l1 1536h126v-601l738 617l82 -97l-632 -528h88q313 0 456 -185t143 -532v-210h-127v210q0 115 -21 187.5t-75 121.5t-144 68.5t-232 19.5h-276v-607zM460 -450l127 382l125 -41l-127 -382z" />
    <glyph glyph-name="uni0137" unicode="&#x137;" horiz-adv-x="1005" 
d="M188 0h-127l1 1536h126v-773h104l522 469l85 -95l-418 -375q120 -7 207 -50.5t140 -121t77.5 -181t24.5 -238.5v-171h-127v171q0 111 -31 168t-110 82t-232 25h-242v-446zM419 -450l127 382l125 -41l-127 -382z" />
    <glyph glyph-name="Lacute" unicode="&#x139;" horiz-adv-x="843" 
d="M788 398v-381h-238q-116 0 -202 26.5t-140.5 73t-87.5 118.5t-46 153.5t-13 188.5l1 959h126v-959q0 -41 4 -65.5t18 -47t36 -33.5t64.5 -19.5t98.5 -11t141 -2.5h238zM171 1674l127 381l125 -41l-127 -381z" />
    <glyph glyph-name="lacute" unicode="&#x13a;" horiz-adv-x="624" 
d="M569 398v-381h-81q-86 0 -148.5 18t-118 65t-89.5 127t-53 207t-18 302l1 800h126v-800q0 -95 0.5 -143.5t14.5 -93.5t24 -60t51.5 -27.5t74 -13t114.5 -0.5h21h81zM130 1674l127 381l125 -41l-127 -381z" />
    <glyph glyph-name="uni013B" unicode="&#x13b;" horiz-adv-x="843" 
d="M788 398v-381h-238q-116 0 -202 26.5t-140.5 73t-87.5 118.5t-46 153.5t-13 188.5l1 959h126v-959q0 -41 4 -65.5t18 -47t36 -33.5t64.5 -19.5t98.5 -11t141 -2.5h238zM287 -450l127 382l124 -41l-127 -382z" />
    <glyph glyph-name="uni013C" unicode="&#x13c;" horiz-adv-x="624" 
d="M569 398v-381h-81q-86 0 -148.5 18t-118 65t-89.5 127t-53 207t-18 302l1 800h126v-800q0 -95 0.5 -143.5t14.5 -93.5t24 -60t51.5 -27.5t74 -13t114.5 -0.5h21h81zM127 -450l127 382l124 -41l-127 -382z" />
    <glyph glyph-name="Lcaron" unicode="&#x13d;" horiz-adv-x="843" 
d="M788 398v-381h-238q-116 0 -202 26.5t-140.5 73t-87.5 118.5t-46 153.5t-13 188.5l1 959h126v-959q0 -41 4 -65.5t18 -47t36 -33.5t64.5 -19.5t98.5 -11t141 -2.5h238zM430 1134l127 382l125 -41l-127 -382z" />
    <glyph glyph-name="lcaron" unicode="&#x13e;" horiz-adv-x="624" 
d="M569 398v-381h-81q-86 0 -148.5 18t-118 65t-89.5 127t-53 207t-18 302l1 800h126v-800q0 -95 0.5 -143.5t14.5 -93.5t24 -60t51.5 -27.5t74 -13t114.5 -0.5h21h81zM338 1134l127 382l125 -41l-127 -382z" />
    <glyph glyph-name="Lslash" unicode="&#x141;" horiz-adv-x="983" 
d="M927 398v-381h-238q-116 0 -202 26.5t-140.5 73t-87.5 118.5t-45.5 153.5t-12.5 188.5v327l-82 -45l-61 112l143 78l1 487h126v-417l268 147l61 -111l-330 -181v-397q0 -41 4 -65.5t18 -47t36 -33.5t64.5 -19.5t98.5 -11t141 -2.5h238z" />
    <glyph glyph-name="lslash" unicode="&#x142;" horiz-adv-x="832" 
d="M777 398v-381h-81q-86 0 -148.5 18t-117.5 65t-89 127t-53 207t-18 302v286l-175 -55l-38 122l213 66v381h126v-341l246 77l38 -121l-284 -89v-326q0 -95 0.5 -143.5t14.5 -93.5t24 -60t51.5 -27.5t74 -13t114.5 -0.5h21h81z" />
    <glyph glyph-name="Nacute" unicode="&#x143;" horiz-adv-x="1247" 
d="M64 1536h360l629 -1284v1284h127v-1536h-358l-632 1290l1 -1290h-126zM510 1674l127 381l125 -41l-127 -381z" />
    <glyph glyph-name="nacute" unicode="&#x144;" horiz-adv-x="982" 
d="M188 0h-127v1080h127v-170q68 85 155 121t158 36h26q395 0 395 -585v-482h-127v482q0 60 -3 97t-13.5 70t-27 49.5t-48 29t-72.5 16.5t-104 4h-26q-46 0 -84 -5t-82.5 -22.5t-75 -47t-51 -83t-20.5 -125.5v-465zM377 1305l127 382l124 -41l-127 -382z" />
    <glyph glyph-name="uni0145" unicode="&#x145;" horiz-adv-x="1247" 
d="M64 1536h360l629 -1284v1284h127v-1536h-358l-632 1290l1 -1290h-126zM490 -450l127 382l124 -41l-127 -382z" />
    <glyph glyph-name="uni0146" unicode="&#x146;" horiz-adv-x="982" 
d="M188 0h-127v1080h127v-170q68 85 155 121t158 36h26q395 0 395 -585v-482h-127v482q0 60 -3 97t-13.5 70t-27 49.5t-48 29t-72.5 16.5t-104 4h-26q-46 0 -84 -5t-82.5 -22.5t-75 -47t-51 -83t-20.5 -125.5v-465zM371 -450l127 382l125 -41l-127 -382z" />
    <glyph glyph-name="Ncaron" unicode="&#x147;" horiz-adv-x="1247" 
d="M64 1536h360l629 -1284v1284h127v-1536h-358l-632 1290l1 -1290h-126zM325 1982l90 92l208 -205l209 205l90 -92l-299 -295z" />
    <glyph glyph-name="ncaron" unicode="&#x148;" horiz-adv-x="982" 
d="M188 0h-127v1080h127v-170q68 85 155 121t158 36h26q395 0 395 -585v-482h-127v482q0 60 -3 97t-13.5 70t-27 49.5t-48 29t-72.5 16.5t-104 4h-26q-46 0 -84 -5t-82.5 -22.5t-75 -47t-51 -83t-20.5 -125.5v-465zM192 1614l90 92l208 -206l209 206l90 -92l-299 -296z" />
    <glyph glyph-name="Omacron" unicode="&#x14c;" horiz-adv-x="1130" 
d="M943 949q0 163 -75 242.5t-234 79.5h-137q-96 0 -159 -22t-95 -67t-43.5 -99t-11.5 -134v-293q0 -48 3.5 -80t14.5 -64t32 -51t55 -34.5t84.5 -22t119.5 -6.5h137q69 0 119.5 6.5t84.5 22t55 34.5t32 51t14.5 64t3.5 80v293zM61 656v293q0 86 12.5 164t44 155t80 132.5
t125.5 90t174 34.5h137q191 0 313.5 -157t122.5 -419v-293q0 -93 -13 -179t-44.5 -171.5t-80 -148t-125 -101.5t-173.5 -39h-137q-96 0 -172.5 38.5t-125 101t-80.5 148t-45 172t-13 179.5zM199 1700v129h723v-129h-723z" />
    <glyph glyph-name="omacron" unicode="&#x14d;" horiz-adv-x="1012" 
d="M951 614q3 -146 -16.5 -251.5t-68 -185.5t-136 -120t-215.5 -40q-110 0 -190.5 26t-132 73.5t-81.5 123.5t-41 165t-9 209v1q0 130 34 226.5t96.5 153t143 83.5t180.5 27q208 0 319.5 -127t116.5 -361v-3zM144 1285v130h723v-130h-723zM188 578v-59.5t7.5 -44t12 -32.5
t27.5 -20.5t38 -14t60 -6.5t77.5 -3h104.5q61 0 97.5 0.5t74 4t56 7.5t37 15t25.5 22t12.5 32.5t6.5 43.5t0 58v1l-1 32q-2 131 -74.5 184t-233.5 53q-182 0 -254.5 -51.5t-72.5 -184.5v-37z" />
    <glyph glyph-name="Ohungarumlaut" unicode="&#x150;" horiz-adv-x="1130" 
d="M943 949q0 163 -75 242.5t-234 79.5h-137q-96 0 -159 -22t-95 -67t-43.5 -99t-11.5 -134v-293q0 -48 3.5 -80t14.5 -64t32 -51t55 -34.5t84.5 -22t119.5 -6.5h137q69 0 119.5 6.5t84.5 22t55 34.5t32 51t14.5 64t3.5 80v293zM61 656v293q0 86 12.5 164t44 155t80 132.5
t125.5 90t174 34.5h137q191 0 313.5 -157t122.5 -419v-293q0 -93 -13 -179t-44.5 -171.5t-80 -148t-125 -101.5t-173.5 -39h-137q-96 0 -172.5 38.5t-125 101t-80.5 148t-45 172t-13 179.5zM288 1683l127 382l125 -41l-127 -382zM580 1659l127 382l124 -41l-126 -382z" />
    <glyph glyph-name="ohungarumlaut" unicode="&#x151;" horiz-adv-x="1012" 
d="M951 614q3 -146 -16.5 -251.5t-68 -185.5t-136 -120t-215.5 -40q-110 0 -190.5 26t-132 73.5t-81.5 123.5t-41 165t-9 209v1q0 130 34 226.5t96.5 153t143 83.5t180.5 27q208 0 319.5 -127t116.5 -361v-3zM188 578v-59.5t7.5 -44t12 -32.5t27.5 -20.5t38 -14t60 -6.5
t77.5 -3h104.5q61 0 97.5 0.5t74 4t56 7.5t37 15t25.5 22t12.5 32.5t6.5 43.5t0 58v1l-1 32q-2 131 -74.5 184t-233.5 53q-182 0 -254.5 -51.5t-72.5 -184.5v-37zM233 1269l127 382l125 -41l-127 -382zM525 1244l127 382l125 -41l-127 -382z" />
    <glyph glyph-name="OE" unicode="&#x152;" horiz-adv-x="1985" 
d="M943 949q0 163 -75 242.5t-234 79.5h-137q-96 0 -159 -22t-95 -67t-43.5 -99t-11.5 -134v-293q0 -48 3.5 -80t14.5 -64t32 -51t55 -34.5t84.5 -22t119.5 -6.5h137q69 0 119.5 6.5t84.5 22t55 34.5t32 51t14.5 64t3.5 80v293zM61 656v293q0 86 12.5 164t44 155t80 132.5
t125.5 90t174 34.5h137q191 0 311 -154v154h984v-254h-857v-360h761v-127h-761v-213q0 -69 21 -103.5t83.5 -52t186.5 -17.5h567v-381h-567q-267 0 -367 248q-113 -248 -362 -248h-137q-96 0 -172.5 38.5t-125 101t-80.5 148t-45 172t-13 179.5z" />
    <glyph glyph-name="oe" unicode="&#x153;" horiz-adv-x="1635" 
d="M188 578v-59.5t7.5 -44t12 -32.5t27.5 -20.5t38 -14t60 -6.5t77.5 -3h104.5q179 0 236.5 14.5t68.5 73.5q-1 11 -1 32v140v7q-15 101 -87.5 143.5t-216.5 42.5q-182 0 -254.5 -51.5t-72.5 -184.5v-37zM61 614v1q0 130 34 226.5t96.5 153t143 83.5t180.5 27
q249 0 360 -182q50 101 136 153t183 52q187 0 277 -100t94 -267v-7v-9q-4 -126 -77.5 -202t-239.5 -73l-298 5q14 -70 72.5 -109.5t143.5 -46t178.5 6.5t186.5 44l39 -275q-97 -32 -189.5 -45.5t-187.5 -8t-175 49t-129 124.5q-97 -198 -374 -198q-110 0 -190.5 26
t-132 73.5t-81.5 123.5t-41 165t-9 209zM947 685q2 -12 2 -17l301 -6q80 -1 119.5 7t53.5 26t15 56q-3 69 -66 96t-178 27q-231 0 -247 -189z" />
    <glyph glyph-name="Racute" unicode="&#x154;" horiz-adv-x="1171" 
d="M1112 46l-89 -92l-629 606h-205v-560h-126l-1 560h-1v595v365h485q93 0 163 -26.5t114 -72t71 -114.5t38 -144.5t12 -171.5v-27q0 -81 -18.5 -148t-59.5 -123.5t-114.5 -90.5t-174.5 -40zM189 814h344q150 0 217 34t67 116v3q0 35 -0.5 54t-5.5 40.5t-10.5 31t-21.5 20.5
t-32.5 14.5t-49 7t-65 4t-86.5 0.5h-357v-325zM488 1674l127 381l125 -41l-127 -381z" />
    <glyph glyph-name="racute" unicode="&#x155;" horiz-adv-x="645" 
d="M188 0h-127v1038h127v-186q70 92 158.5 133t154.5 41h89v-320h-89q-41 0 -79 -6t-82 -26t-76.5 -52t-54 -88.5t-21.5 -131.5v-402zM196 1176l127 381l124 -41l-127 -381z" />
    <glyph glyph-name="uni0156" unicode="&#x156;" horiz-adv-x="1171" 
d="M1112 46l-89 -92l-629 606h-205v-560h-126l-1 560h-1v595v365h485q93 0 163 -26.5t114 -72t71 -114.5t38 -144.5t12 -171.5v-27q0 -81 -18.5 -148t-59.5 -123.5t-114.5 -90.5t-174.5 -40zM189 814h344q150 0 217 34t67 116v3q0 35 -0.5 54t-5.5 40.5t-10.5 31t-21.5 20.5
t-32.5 14.5t-49 7t-65 4t-86.5 0.5h-357v-325zM468 -450l127 382l124 -41l-127 -382z" />
    <glyph glyph-name="uni0157" unicode="&#x157;" horiz-adv-x="645" 
d="M188 0h-127v1038h127v-186q70 92 158.5 133t154.5 41h89v-320h-89q-41 0 -79 -6t-82 -26t-76.5 -52t-54 -88.5t-21.5 -131.5v-402zM175 -450l127 382l125 -41l-127 -382z" />
    <glyph glyph-name="Rcaron" unicode="&#x158;" horiz-adv-x="1171" 
d="M1112 46l-89 -92l-629 606h-205v-560h-126l-1 560h-1v595v365h485q93 0 163 -26.5t114 -72t71 -114.5t38 -144.5t12 -171.5v-27q0 -81 -18.5 -148t-59.5 -123.5t-114.5 -90.5t-174.5 -40zM189 814h344q150 0 217 34t67 116v3q0 35 -0.5 54t-5.5 40.5t-10.5 31t-21.5 20.5
t-32.5 14.5t-49 7t-65 4t-86.5 0.5h-357v-325zM303 1982l90 92l208 -205l209 205l90 -92l-299 -295z" />
    <glyph glyph-name="rcaron" unicode="&#x159;" horiz-adv-x="645" 
d="M188 0h-127v1038h127v-186q70 92 158.5 133t154.5 41h89v-320h-89q-41 0 -79 -6t-82 -26t-76.5 -52t-54 -88.5t-21.5 -131.5v-402zM11 1484l90 92l208 -205l209 205l90 -92l-299 -295z" />
    <glyph glyph-name="Sacute" unicode="&#x15a;" horiz-adv-x="1083" 
d="M1023 553v-2v-1v-27q-8 -342 -224 -450.5t-699 -21.5v378q386 -73 590.5 -42.5t205.5 164.5q-1 72 -72.5 106t-253.5 34q-138 1 -236.5 28.5t-155.5 79.5t-84.5 116.5t-31.5 149.5h-1v20q0 11 1 17q3 90 24.5 158.5t58 113.5t88 75.5t114 45t136.5 23t156.5 8t172.5 -0.5
h104v-254h-129q-95 2 -175.5 0.5t-146 -5.5t-116 -16t-85 -32.5t-53.5 -53.5t-22 -80q3 -46 30.5 -71t114 -40.5t248.5 -15.5q104 -1 184 -26t127.5 -63.5t77.5 -93t41 -107.5t11 -114zM461 1674l127 381l125 -41l-127 -381z" />
    <glyph glyph-name="sacute" unicode="&#x15b;" horiz-adv-x="831" 
d="M771 418v-1v-1v-19q-6 -236 -167 -334t-494 -29v317q104 -23 192.5 -32.5t150.5 -5.5t105.5 18.5t64.5 36t21 49.5q-1 58 -55.5 87t-180.5 29v1q-170 5 -253.5 77.5t-90.5 195.5h-1v14q0 7 1 11q3 64 20.5 114t46.5 81.5t68.5 54t87 32.5t101 16.5t110 6t115.5 -0.5h64
v-190q-243 0 -284 -3q-141 -9 -181 -61q-19 -25 -22 -63q3 -34 21 -53t70 -30.5t147 -11.5v-1q171 -6 256.5 -92t86.5 -213zM275 1279l127 382l125 -41l-127 -382z" />
    <glyph glyph-name="Scircumflex" unicode="&#x15c;" horiz-adv-x="1083" 
d="M1023 553v-2v-1v-27q-8 -342 -224 -450.5t-699 -21.5v378q386 -73 590.5 -42.5t205.5 164.5q-1 72 -72.5 106t-253.5 34q-138 1 -236.5 28.5t-155.5 79.5t-84.5 116.5t-31.5 149.5h-1v20q0 11 1 17q3 90 24.5 158.5t58 113.5t88 75.5t114 45t136.5 23t156.5 8t172.5 -0.5
h104v-254h-129q-95 2 -175.5 0.5t-146 -5.5t-116 -16t-85 -32.5t-53.5 -53.5t-22 -80q3 -46 30.5 -71t114 -40.5t248.5 -15.5q104 -1 184 -26t127.5 -63.5t77.5 -93t41 -107.5t11 -114zM275 1765l298 295l299 -295l-90 -92l-209 205l-208 -205z" />
    <glyph glyph-name="scircumflex" unicode="&#x15d;" horiz-adv-x="831" 
d="M771 418v-1v-1v-19q-6 -236 -167 -334t-494 -29v317q104 -23 192.5 -32.5t150.5 -5.5t105.5 18.5t64.5 36t21 49.5q-1 58 -55.5 87t-180.5 29v1q-170 5 -253.5 77.5t-90.5 195.5h-1v14q0 7 1 11q3 64 20.5 114t46.5 81.5t68.5 54t87 32.5t101 16.5t110 6t115.5 -0.5h64
v-190q-243 0 -284 -3q-141 -9 -181 -61q-19 -25 -22 -63q3 -34 21 -53t70 -30.5t147 -11.5v-1q171 -6 256.5 -92t86.5 -213zM89 1370l298 295l299 -295l-90 -92l-209 206l-208 -206z" />
    <glyph glyph-name="Scedilla" unicode="&#x15e;" horiz-adv-x="1083" 
d="M1023 553v-2v-1v-27q-8 -342 -224 -450.5t-699 -21.5v378q386 -73 590.5 -42.5t205.5 164.5q-1 72 -72.5 106t-253.5 34q-138 1 -236.5 28.5t-155.5 79.5t-84.5 116.5t-31.5 149.5h-1v20q0 11 1 17q3 90 24.5 158.5t58 113.5t88 75.5t114 45t136.5 23t156.5 8t172.5 -0.5
h104v-254h-129q-95 2 -175.5 0.5t-146 -5.5t-116 -16t-85 -32.5t-53.5 -53.5t-22 -80q3 -46 30.5 -71t114 -40.5t248.5 -15.5q104 -1 184 -26t127.5 -63.5t77.5 -93t41 -107.5t11 -114zM482 -459v135q129 0 167 7.5t38 41.5q0 20 -1 28t-5.5 16t-17.5 9.5t-32.5 2.5t-54.5 1
h-35v218h66v-84q43 -4 72.5 -20.5t43.5 -33.5t21.5 -48t8 -45t0.5 -44q0 -113 -57 -148.5t-214 -35.5z" />
    <glyph glyph-name="scedilla" unicode="&#x15f;" horiz-adv-x="831" 
d="M771 418v-1v-1v-19q-6 -236 -167 -334t-494 -29v317q104 -23 192.5 -32.5t150.5 -5.5t105.5 18.5t64.5 36t21 49.5q-1 58 -55.5 87t-180.5 29v1q-170 5 -253.5 77.5t-90.5 195.5h-1v14q0 7 1 11q3 64 20.5 114t46.5 81.5t68.5 54t87 32.5t101 16.5t110 6t115.5 -0.5h64
v-190q-243 0 -284 -3q-141 -9 -181 -61q-19 -25 -22 -63q3 -34 21 -53t70 -30.5t147 -11.5v-1q171 -6 256.5 -92t86.5 -213zM348 -459v135q129 0 167.5 7.5t38.5 41.5q0 20 -1 28t-5.5 16t-17.5 9.5t-32.5 2.5t-54.5 1h-11h-11h-13v218h65v-84q43 -4 72.5 -20.5t43.5 -33.5
t21.5 -48t8 -45t0.5 -44q0 -113 -57 -148.5t-214 -35.5z" />
    <glyph glyph-name="Scaron" unicode="&#x160;" horiz-adv-x="1083" 
d="M1023 553v-2v-1v-27q-8 -342 -224 -450.5t-699 -21.5v378q386 -73 590.5 -42.5t205.5 164.5q-1 72 -72.5 106t-253.5 34q-138 1 -236.5 28.5t-155.5 79.5t-84.5 116.5t-31.5 149.5h-1v20q0 11 1 17q3 90 24.5 158.5t58 113.5t88 75.5t114 45t136.5 23t156.5 8t172.5 -0.5
h104v-254h-129q-95 2 -175.5 0.5t-146 -5.5t-116 -16t-85 -32.5t-53.5 -53.5t-22 -80q3 -46 30.5 -71t114 -40.5t248.5 -15.5q104 -1 184 -26t127.5 -63.5t77.5 -93t41 -107.5t11 -114zM276 1982l90 92l208 -205l209 205l90 -92l-299 -295z" />
    <glyph glyph-name="scaron" unicode="&#x161;" horiz-adv-x="831" 
d="M771 418v-1v-1v-19q-6 -236 -167 -334t-494 -29v317q104 -23 192.5 -32.5t150.5 -5.5t105.5 18.5t64.5 36t21 49.5q-1 58 -55.5 87t-180.5 29v1q-170 5 -253.5 77.5t-90.5 195.5h-1v14q0 7 1 11q3 64 20.5 114t46.5 81.5t68.5 54t87 32.5t101 16.5t110 6t115.5 -0.5h64
v-190q-243 0 -284 -3q-141 -9 -181 -61q-19 -25 -22 -63q3 -34 21 -53t70 -30.5t147 -11.5v-1q171 -6 256.5 -92t86.5 -213zM90 1588l90 91l208 -205l209 205l90 -91l-299 -296z" />
    <glyph glyph-name="uni0162" unicode="&#x162;" horiz-adv-x="1053" 
d="M589 0h-29v-84q42 -4 71 -19.5t43 -32.5t21.5 -45.5t8.5 -44.5t1 -43v-6q0 -113 -57 -148.5t-214 -35.5v135q129 0 167.5 7.5t38.5 41.5q0 20 -1 28t-5.5 16t-17.5 9.5t-32.5 2.5t-54.5 1h-35v218h-31l1 1203h-464v318h1053v-318h-463z" />
    <glyph glyph-name="uni0163" unicode="&#x163;" horiz-adv-x="877" 
d="M822 1044v-190h-409v-181q0 -189 12 -241q15 -64 67 -84q46 -18 199 -18h50h66v-319q-86 0 -156 10.5t-121.5 29.5t-91.5 46.5t-65 61.5t-43.5 74.5t-26 85t-13 93.5t-4.5 100.5t0 104.5v19.5v17v19.5v181h-230v190h230v492h127v-492h409zM584 -446v135q130 0 168 7
t38 41q0 20 -1 28t-5.5 16t-17.5 9.5t-32.5 2.5t-54.5 1h-35v218h65v-84q43 -4 72.5 -20.5t43.5 -33.5t21.5 -48t8 -45t0.5 -44q0 -113 -57 -148t-214 -35z" />
    <glyph glyph-name="Tcaron" unicode="&#x164;" horiz-adv-x="1053" 
d="M589 0h-126l1 1203h-464v318h1053v-318h-463zM229 1982l90 92l208 -205l209 205l90 -92l-299 -295z" />
    <glyph glyph-name="tcaron" unicode="&#x165;" horiz-adv-x="877" 
d="M822 1044v-190h-409v-181q0 -189 12 -241q15 -64 67 -84q46 -18 199 -18h50h66v-319q-86 0 -156 10.5t-121.5 29.5t-91.5 46.5t-65 61.5t-43.5 74.5t-26 85t-13 93.5t-4.5 100.5t0 104.5v19.5v17v19.5v181h-230v190h230v492h127v-492h409zM668 1201l127 382l124 -41
l-127 -382z" />
    <glyph glyph-name="Utilde" unicode="&#x168;" horiz-adv-x="1266" 
d="M1078 1536h127v-875q0 -142 -30.5 -257.5t-92 -202.5t-161.5 -135t-231 -48h-114q-104 0 -189 31t-145.5 87t-101 136t-60 177.5t-19.5 211.5v875h127v-875q0 -142 90.5 -202t297.5 -60h114q207 0 297.5 60t90.5 202v875zM279 1833q91 50 146 66.5t112.5 5.5t130.5 -58
q67 -42 106.5 -34t126.5 81l85 -100q-113 -96 -199.5 -108.5t-189.5 52.5q-33 21 -51.5 29.5t-37 13.5t-43 -3.5t-49 -20t-74.5 -38.5z" />
    <glyph glyph-name="utilde" unicode="&#x169;" horiz-adv-x="1088" 
d="M688 1046h127v-7h3v-575q0 -66 16.5 -111.5t47 -69.5t67 -34t84.5 -10v-254q-50 0 -99.5 16.5t-104 64t-87.5 121.5q-89 -170 -289 -170h-30q-362 0 -362 565v464h127v-464v-57.5t4 -43t8.5 -33t18 -22t27.5 -16t42.5 -7.5t57.5 -4.5t77 -0.5h30h63t50.5 2.5t40 4t29.5 9
t22 12t14 18t9.5 22.5t4.5 31t2 38v47v464zM191 1343q91 50 146 66.5t112 5.5t130 -58q66 -42 106.5 -34t127.5 81l85 -100q-113 -96 -199.5 -108.5t-189.5 52.5q-40 26 -60 35.5t-50.5 7t-57.5 -15.5t-88 -46z" />
    <glyph glyph-name="Umacron" unicode="&#x16a;" horiz-adv-x="1266" 
d="M1078 1536h127v-875q0 -142 -30.5 -257.5t-92 -202.5t-161.5 -135t-231 -48h-114q-104 0 -189 31t-145.5 87t-101 136t-60 177.5t-19.5 211.5v875h127v-875q0 -142 90.5 -202t297.5 -60h114q207 0 297.5 60t90.5 202v875zM272 1700v129h723v-129h-723z" />
    <glyph glyph-name="umacron" unicode="&#x16b;" horiz-adv-x="1088" 
d="M688 1046h127v-7h3v-575q0 -66 16.5 -111.5t47 -69.5t67 -34t84.5 -10v-254q-50 0 -99.5 16.5t-104 64t-87.5 121.5q-89 -170 -289 -170h-30q-362 0 -362 565v464h127v-464v-57.5t4 -43t8.5 -33t18 -22t27.5 -16t42.5 -7.5t57.5 -4.5t77 -0.5h30h63t50.5 2.5t40 4t29.5 9
t22 12t14 18t9.5 22.5t4.5 31t2 38v47v464zM184 1210v129h722v-129h-722z" />
    <glyph glyph-name="Ubreve" unicode="&#x16c;" horiz-adv-x="1266" 
d="M1078 1536h127v-875q0 -142 -30.5 -257.5t-92 -202.5t-161.5 -135t-231 -48h-114q-104 0 -189 31t-145.5 87t-101 136t-60 177.5t-19.5 211.5v875h127v-875q0 -142 90.5 -202t297.5 -60h114q207 0 297.5 60t90.5 202v875zM442 1898v103h66v-103q0 -54 39 -85t85.5 -31
t85.5 31t39 85v103h65v-103q0 -56 -16.5 -101.5t-43 -73.5t-60.5 -43t-70 -15t-70 15t-60.5 43t-43 73.5t-16.5 101.5z" />
    <glyph glyph-name="ubreve" unicode="&#x16d;" horiz-adv-x="1088" 
d="M688 1046h127v-7h3v-575q0 -66 16.5 -111.5t47 -69.5t67 -34t84.5 -10v-254q-50 0 -99.5 16.5t-104 64t-87.5 121.5q-89 -170 -289 -170h-30q-362 0 -362 565v464h127v-464v-57.5t4 -43t8.5 -33t18 -22t27.5 -16t42.5 -7.5t57.5 -4.5t77 -0.5h30h63t50.5 2.5t40 4t29.5 9
t22 12t14 18t9.5 22.5t4.5 31t2 38v47v464zM354 1408v103h65v-103q0 -54 39 -85t85.5 -31t85.5 31t39 85v103h66v-103q0 -56 -16.5 -101.5t-43 -73.5t-60.5 -43t-70 -15t-70 15t-60.5 43t-43 73.5t-16.5 101.5z" />
    <glyph glyph-name="Uring" unicode="&#x16e;" horiz-adv-x="1266" 
d="M1078 1536h127v-875q0 -142 -30.5 -257.5t-92 -202.5t-161.5 -135t-231 -48h-114q-104 0 -189 31t-145.5 87t-101 136t-60 177.5t-19.5 211.5v875h127v-875q0 -142 90.5 -202t297.5 -60h114q207 0 297.5 60t90.5 202v875zM453 1898q0 85 52 149.5t128 64.5q75 0 127 -65
t52 -149q0 -85 -52 -150t-127 -65q-77 0 -128.5 65t-51.5 150zM519 1898q0 -34 29 -56.5t85 -22.5q55 0 84 22.5t29 56.5t-29 56.5t-84 22.5t-84.5 -23t-29.5 -56z" />
    <glyph glyph-name="uring" unicode="&#x16f;" horiz-adv-x="1088" 
d="M688 1046h127v-7h3v-575q0 -66 16.5 -111.5t47 -69.5t67 -34t84.5 -10v-254q-50 0 -99.5 16.5t-104 64t-87.5 121.5q-89 -170 -289 -170h-30q-362 0 -362 565v464h127v-464v-57.5t4 -43t8.5 -33t18 -22t27.5 -16t42.5 -7.5t57.5 -4.5t77 -0.5h30h63t50.5 2.5t40 4t29.5 9
t22 12t14 18t9.5 22.5t4.5 31t2 38v47v464zM365 1408q0 85 52 149.5t128 64.5q75 0 126.5 -65t51.5 -149q0 -86 -51.5 -150t-126.5 -64q-77 0 -128.5 64.5t-51.5 149.5zM430 1408q0 -34 29.5 -56.5t85.5 -22.5q55 0 84 22.5t29 56.5t-29 56.5t-84 22.5t-85 -23t-30 -56z" />
    <glyph glyph-name="Uhungarumlaut" unicode="&#x170;" horiz-adv-x="1266" 
d="M1078 1536h127v-875q0 -142 -30.5 -257.5t-92 -202.5t-161.5 -135t-231 -48h-114q-104 0 -189 31t-145.5 87t-101 136t-60 177.5t-19.5 211.5v875h127v-875q0 -142 90.5 -202t297.5 -60h114q207 0 297.5 60t90.5 202v875zM361 1683l127 382l125 -41l-127 -382zM653 1659
l127 382l124 -41l-127 -382z" />
    <glyph glyph-name="uhungarumlaut" unicode="&#x171;" horiz-adv-x="1088" 
d="M688 1046h127v-7h3v-575q0 -66 16.5 -111.5t47 -69.5t67 -34t84.5 -10v-254q-50 0 -99.5 16.5t-104 64t-87.5 121.5q-89 -170 -289 -170h-30q-362 0 -362 565v464h127v-464v-57.5t4 -43t8.5 -33t18 -22t27.5 -16t42.5 -7.5t57.5 -4.5t77 -0.5h30h63t50.5 2.5t40 4t29.5 9
t22 12t14 18t9.5 22.5t4.5 31t2 38v47v464zM273 1194l127 381l124 -41l-127 -381zM564 1169l127 382l125 -41l-127 -382z" />
    <glyph glyph-name="Uogonek" unicode="&#x172;" horiz-adv-x="1266" 
d="M1078 1536h127v-875q0 -142 -30.5 -257.5t-92 -202.5t-161.5 -135t-231 -48h-114q-104 0 -189 31t-145.5 87t-101 136t-60 177.5t-19.5 211.5v875h127v-875q0 -142 90.5 -202t297.5 -60h114q207 0 297.5 60t90.5 202v875zM993 -130v139h65v-139q0 -34 29.5 -45.5
t128.5 -11.5v-135q-122 0 -172.5 48.5t-50.5 143.5z" />
    <glyph glyph-name="uogonek" unicode="&#x173;" horiz-adv-x="1088" 
d="M688 1046h127v-7h3v-575q0 -66 16.5 -111.5t47 -69.5t67 -34t84.5 -10v-254q-13 0 -20 1v-116q0 -34 29.5 -45.5t127.5 -11.5v-135q-122 0 -172.5 48.5t-50.5 143.5v128q-137 41 -205 189q-89 -170 -289 -170h-30q-362 0 -362 565v464h127v-464v-57.5t4 -43t8.5 -33
t18 -22t27.5 -16t42.5 -7.5t57.5 -4.5t77 -0.5h30h63t50.5 2.5t40 4t29.5 9t22 12t14 18t9.5 22.5t4.5 31t2 38v47v464z" />
    <glyph glyph-name="Wcircumflex" unicode="&#x174;" horiz-adv-x="1984" 
d="M233 0l-160 1536h382l129 -1247l387 1227h273l426 -1360l126 1380h127l-139 -1536h-330l-413 1318l-415 -1318h-393zM768 1765l298 295l299 -295l-90 -92l-209 205l-208 -205z" />
    <glyph glyph-name="wcircumflex" unicode="&#x175;" horiz-adv-x="1646" 
d="M1315 267l137 779h133l-182 -1033h-258l-262 750l-337 -746l-231 -1l-247 1030h269l155 -648h39l269 596l4 -5l-2 6h210l253 -728h50zM603 1275l298 295l299 -295l-90 -92l-209 206l-208 -206z" />
    <glyph glyph-name="Ycircumflex" unicode="&#x176;" horiz-adv-x="1340" 
d="M779 0h-127v552q-148 23 -239.5 120.5t-144.5 259.5l-198 606h327l172 -525q41 -124 72 -167t91 -45h5q72 -2 111.5 24t59.5 81l222 632h149l-251 -716q-87 -250 -249 -274v-548zM373 1765l298 295l299 -295l-90 -92l-209 205l-208 -205z" />
    <glyph glyph-name="ycircumflex" unicode="&#x177;" horiz-adv-x="876" 
d="M688 1053h127v-917q0 -354 -168 -511.5t-517 -157.5v254q213 0 331 37t170.5 119.5t56.5 232.5q-88 -93 -235 -93h-30q-362 0 -362 565v471h127v-471v-57.5t4 -43t8.5 -33t18 -22t27.5 -16t42.5 -7.5t57.5 -4.5t77 -0.5h30h63t50.5 2.5t40 4t29.5 9t22 12t14 18t9.5 22.5
t4.5 31t2 38v47v471zM139 1275l298 295l299 -295l-90 -92l-209 206l-208 -206z" />
    <glyph glyph-name="Ydieresis" unicode="&#x178;" horiz-adv-x="1340" 
d="M779 0h-127v552q-148 23 -239.5 120.5t-144.5 259.5l-198 606h327l172 -525q41 -124 72 -167t91 -45h5q72 -2 111.5 24t59.5 81l222 632h149l-251 -716q-87 -250 -249 -274v-548zM344 1787l147 146l146 -146l-146 -148zM705 1786l147 146l147 -146l-147 -148z" />
    <glyph glyph-name="Zacute" unicode="&#x179;" horiz-adv-x="1460" 
d="M1271 1188q-1 46 -55 64.5t-183 18.5h-913v254h913q174 0 264.5 -76t98.5 -235h2v-49q0 -52 -18.5 -97t-49 -78t-78 -63t-96 -51.5t-112.5 -44.5l-548 -199q-75 -28 -112 -42.5t-90 -39t-77.5 -46.5t-27.5 -44q2 -22 12.5 -33.5t53.5 -18.5t106.5 -8.5t193.5 -1.5h829
v-381h-829q-104 0 -181 10.5t-131 35t-89 56t-54.5 81t-27.5 102.5t-10 128h-1v25v5q0 10 1 15q3 40 17 75.5t34.5 63.5t53 54t62.5 44.5t72.5 38t74.5 32t77 28.5l549 199q136 48 202.5 83.5t66.5 71.5v23zM551 1674l127 381l125 -41l-127 -381z" />
    <glyph glyph-name="zacute" unicode="&#x17a;" horiz-adv-x="1070" 
d="M865 842q-1 23 -28 31t-108 8h-623v191h623q252 0 262 -213h1v-31q0 -192 -251 -264l-363 -109q-77 -23 -130 -47t-56 -38q1 -27 31 -32t175 -5h15h595v-318h-595q-71 0 -125.5 10t-92 30.5t-63 48t-40 67.5t-20.5 83t-7 100v15v3v10q10 175 277 255l363 108
q160 47 160 83v14zM423 1239l127 382l124 -41l-127 -382z" />
    <glyph glyph-name="Zdotaccent" unicode="&#x17b;" horiz-adv-x="1460" 
d="M1271 1188q-1 46 -55 64.5t-183 18.5h-913v254h913q174 0 264.5 -76t98.5 -235h2v-49q0 -52 -18.5 -97t-49 -78t-78 -63t-96 -51.5t-112.5 -44.5l-548 -199q-75 -28 -112 -42.5t-90 -39t-77.5 -46.5t-27.5 -44q2 -22 12.5 -33.5t53.5 -18.5t106.5 -8.5t193.5 -1.5h829
v-381h-829q-104 0 -181 10.5t-131 35t-89 56t-54.5 81t-27.5 102.5t-10 128h-1v25v5q0 10 1 15q3 40 17 75.5t34.5 63.5t53 54t62.5 44.5t72.5 38t74.5 32t77 28.5l549 199q136 48 202.5 83.5t66.5 71.5v23zM518 1797l146 146l147 -146l-147 -148z" />
    <glyph glyph-name="zdotaccent" unicode="&#x17c;" horiz-adv-x="1070" 
d="M865 842q-1 23 -28 31t-108 8h-623v191h623q252 0 262 -213h1v-31q0 -192 -251 -264l-363 -109q-77 -23 -130 -47t-56 -38q1 -27 31 -32t175 -5h15h595v-318h-595q-71 0 -125.5 10t-92 30.5t-63 48t-40 67.5t-20.5 83t-7 100v15v3v10q10 175 277 255l363 108
q160 47 160 83v14zM389 1362l147 147l146 -147l-146 -147z" />
    <glyph glyph-name="Zcaron" unicode="&#x17d;" horiz-adv-x="1460" 
d="M1271 1188q-1 46 -55 64.5t-183 18.5h-913v254h913q174 0 264.5 -76t98.5 -235h2v-49q0 -52 -18.5 -97t-49 -78t-78 -63t-96 -51.5t-112.5 -44.5l-548 -199q-75 -28 -112 -42.5t-90 -39t-77.5 -46.5t-27.5 -44q2 -22 12.5 -33.5t53.5 -18.5t106.5 -8.5t193.5 -1.5h829
v-381h-829q-104 0 -181 10.5t-131 35t-89 56t-54.5 81t-27.5 102.5t-10 128h-1v25v5q0 10 1 15q3 40 17 75.5t34.5 63.5t53 54t62.5 44.5t72.5 38t74.5 32t77 28.5l549 199q136 48 202.5 83.5t66.5 71.5v23zM366 1982l90 92l208 -205l209 205l90 -92l-299 -295z" />
    <glyph glyph-name="zcaron" unicode="&#x17e;" horiz-adv-x="1070" 
d="M865 842q-1 23 -28 31t-108 8h-623v191h623q252 0 262 -213h1v-31q0 -192 -251 -264l-363 -109q-77 -23 -130 -47t-56 -38q1 -27 31 -32t175 -5h15h595v-318h-595q-71 0 -125.5 10t-92 30.5t-63 48t-40 67.5t-20.5 83t-7 100v15v3v10q10 175 277 255l363 108
q160 47 160 83v14zM238 1548l90 92l208 -206l209 206l90 -92l-299 -295z" />
    <glyph glyph-name="uni018F" unicode="&#x18f;" horiz-adv-x="1081" 
d="M1019 736q0 -153 -11.5 -263.5t-38.5 -192t-65 -132t-98.5 -80.5t-131.5 -41t-172 -11q-99 0 -175 24.5t-125.5 66.5t-81.5 104.5t-45 132.5t-14 155v2v5q2 66 25.5 125t68 107t118.5 76t168 28h449q-5 61 -20 102.5t-48.5 72.5t-81.5 47t-128 23t-178.5 4.5
t-242.5 -12.5v254q136 12 246 8.5t196.5 -15.5t151 -43t109.5 -74t73 -109t40.5 -147t12.5 -189zM188 503q3 -56 74 -81.5t240 -25.5q78 0 116 0.5t88.5 4t70 9.5t47 19.5t35.5 30t18.5 45.5t12.5 62t3 83h-452q-246 0 -253 -147z" />
    <glyph glyph-name="florin" unicode="&#x192;" horiz-adv-x="1061" 
d="M56 -247v382h157q157 0 183 22.5t26 158.5v214h-189v254h189v211q0 86 12 160.5t41 143.5t73.5 118t114 78.5t158.5 29.5h185v-381h-185q-118 0 -176 -14.5t-77 -44t-19 -90.5v-211h424v-254h-424v-214q0 -48 -0.5 -77t-3.5 -80t-9 -85t-17.5 -80.5t-28 -77t-42.5 -64.5
t-58.5 -53.5t-77.5 -32.5t-99 -13h-157z" />
    <glyph glyph-name="uni0218" unicode="&#x218;" horiz-adv-x="1083" 
d="M1023 553v-2v-1v-27q-8 -342 -224 -450.5t-699 -21.5v378q386 -73 590.5 -42.5t205.5 164.5q-1 72 -72.5 106t-253.5 34q-138 1 -236.5 28.5t-155.5 79.5t-84.5 116.5t-31.5 149.5h-1v20q0 11 1 17q3 90 24.5 158.5t58 113.5t88 75.5t114 45t136.5 23t156.5 8t172.5 -0.5
h104v-254h-129q-95 2 -175.5 0.5t-146 -5.5t-116 -16t-85 -32.5t-53.5 -53.5t-22 -80q3 -46 30.5 -71t114 -40.5t248.5 -15.5q104 -1 184 -26t127.5 -63.5t77.5 -93t41 -107.5t11 -114zM441 -450l127 382l124 -41l-127 -382z" />
    <glyph glyph-name="uni0219" unicode="&#x219;" horiz-adv-x="831" 
d="M771 418v-1v-1v-19q-6 -236 -167 -334t-494 -29v317q104 -23 192.5 -32.5t150.5 -5.5t105.5 18.5t64.5 36t21 49.5q-1 58 -55.5 87t-180.5 29v1q-170 5 -253.5 77.5t-90.5 195.5h-1v14q0 7 1 11q3 64 20.5 114t46.5 81.5t68.5 54t87 32.5t101 16.5t110 6t115.5 -0.5h64
v-190q-243 0 -284 -3q-141 -9 -181 -61q-19 -25 -22 -63q3 -34 21 -53t70 -30.5t147 -11.5v-1q171 -6 256.5 -92t86.5 -213zM307 -450l127 382l125 -41l-127 -382z" />
    <glyph glyph-name="uni021A" unicode="&#x21a;" horiz-adv-x="1053" 
d="M589 0h-126l1 1203h-464v318h1053v-318h-463zM393 -450l127 382l125 -41l-127 -382z" />
    <glyph glyph-name="uni021B" unicode="&#x21b;" horiz-adv-x="877" 
d="M822 1044v-190h-409v-181q0 -189 12 -241q15 -64 67 -84q46 -18 199 -18h50h66v-319q-86 0 -156 10.5t-121.5 29.5t-91.5 46.5t-65 61.5t-43.5 74.5t-26 85t-13 93.5t-4.5 100.5t0 104.5v19.5v17v19.5v181h-230v190h230v492h127v-492h409zM543 -437l127 381l125 -41
l-127 -381z" />
    <glyph glyph-name="uni0237" unicode="&#x237;" horiz-adv-x="746" 
d="M56 -242q100 0 173.5 8.5t131 29t94.5 51.5t60.5 78.5t33.5 107.5t10 141v853h127v-853q0 -351 -155 -510.5t-475 -159.5v254z" />
    <glyph glyph-name="uni0259" unicode="&#x259;" horiz-adv-x="1038" 
d="M977 534q-4 -156 -50 -270.5t-141.5 -181t-233.5 -66.5h-74q-122 0 -204 30t-127.5 92t-64.5 141.5t-21 194.5v13q0 13 1 20q2 61 13.5 111t39 97.5t70 79.5t110.5 51.5t157 19.5h398v52q0 88 -43 121t-167 33h-496v190h496q170 0 253.5 -91.5t83.5 -252.5v-384zM188 487
q1 -66 43 -78.5t247 -12.5h74q159 0 228.5 35t69.5 125v56h-398q-120 0 -174.5 -11.5t-71.5 -35.5t-18 -78z" />
    <glyph glyph-name="circumflex" unicode="&#x2c6;" horiz-adv-x="706" 
d="M601 1155l-90 -92l-209 206l-208 -206l-90 92l298 296z" />
    <glyph glyph-name="caron" unicode="&#x2c7;" horiz-adv-x="800" 
d="M601 1315l-299 -296l-298 296l90 92l208 -206l209 206z" />
    <glyph glyph-name="breve" unicode="&#x2d8;" horiz-adv-x="636" 
d="M317 1379h66v-104q0 -56 -16.5 -101.5t-43 -73.5t-61 -43t-70 -15t-70 15t-61 43t-43 73.5t-16.5 101.5v104h66v-104q0 -54 39 -85t85.5 -31t85.5 31t39 85v104z" />
    <glyph glyph-name="dotaccent" unicode="&#x2d9;" horiz-adv-x="342" 
d="M147 1293l146 -147l-146 -147l-147 147z" />
    <glyph glyph-name="ring" unicode="&#x2da;" horiz-adv-x="495" 
d="M183 1126q55 0 84 22.5t29 56.5t-29 56.5t-84 22.5t-85 -23t-30 -56q0 -34 29.5 -56.5t85.5 -22.5zM2 1205q0 85 52.5 149.5t128.5 64.5q75 0 126.5 -65t51.5 -149q0 -86 -51.5 -150.5t-126.5 -64.5q-77 0 -129 65t-52 150z" />
    <glyph glyph-name="ogonek" unicode="&#x2db;" horiz-adv-x="289" 
d="M2 0h66v-139q0 -34 29.5 -45.5t127.5 -11.5v-135q-122 0 -172.5 48.5t-50.5 143.5v139z" />
    <glyph glyph-name="tilde" unicode="&#x2dc;" horiz-adv-x="752" 
d="M710 1150q-113 -96 -199.5 -108.5t-189.5 52.5q-33 21 -51.5 29.5t-37 13.5t-43 -3.5t-49 -20t-74.5 -38.5l-63 114q91 50 146 66.5t112.5 5.5t130.5 -58q67 -42 106.5 -34t126.5 81z" />
    <glyph glyph-name="hungarumlaut" unicode="&#x2dd;" horiz-adv-x="731" 
d="M6 958l127 382l124 -41l-127 -381zM297 934l127 382l125 -41l-127 -382z" />
    <glyph glyph-name="gravecomb" unicode="&#x300;" 
d="M257 963l-124 -41l-127 381l124 41z" />
    <glyph glyph-name="acutecomb" unicode="&#x301;" 
d="M6 963l127 381l124 -41l-127 -381z" />
    <glyph glyph-name="uni0302" unicode="&#x302;" 
d="M601 1155l-90 -92l-209 206l-208 -206l-90 92l298 296z" />
    <glyph glyph-name="tildecomb" unicode="&#x303;" 
d="M710 1150q-113 -96 -199.5 -108.5t-189.5 52.5q-33 21 -51.5 29.5t-37 13.5t-43 -3.5t-49 -20t-74.5 -38.5l-63 114q91 50 146 66.5t112.5 5.5t130.5 -58q67 -42 106.5 -34t126.5 81z" />
    <glyph glyph-name="uni0304" unicode="&#x304;" 
d="M723 1144v-130h-723v130h723z" />
    <glyph glyph-name="uni0306" unicode="&#x306;" 
d="M317 1379h66v-104q0 -56 -16.5 -101.5t-43 -73.5t-61 -43t-70 -15t-70 15t-61 43t-43 73.5t-16.5 101.5v104h66v-104q0 -54 39 -85t85.5 -31t85.5 31t39 85v104z" />
    <glyph glyph-name="uni0307" unicode="&#x307;" 
d="M147 1293l146 -147l-146 -147l-147 147z" />
    <glyph glyph-name="uni0308" unicode="&#x308;" 
d="M147 1293l146 -147l-146 -147l-147 147zM361 1145l147 147l147 -147l-147 -147z" />
    <glyph glyph-name="uni030A" unicode="&#x30a;" 
d="M183 1126q55 0 84 22.5t29 56.5t-29 56.5t-84 22.5t-85 -23t-30 -56q0 -34 29.5 -56.5t85.5 -22.5zM2 1205q0 85 52.5 149.5t128.5 64.5q75 0 126.5 -65t51.5 -149q0 -86 -51.5 -150.5t-126.5 -64.5q-77 0 -129 65t-52 150z" />
    <glyph glyph-name="uni030B" unicode="&#x30b;" 
d="M6 958l127 382l124 -41l-127 -381zM297 934l127 382l125 -41l-127 -382z" />
    <glyph glyph-name="uni030C" unicode="&#x30c;" 
d="M601 1315l-299 -296l-298 296l90 92l208 -206l209 206z" />
    <glyph glyph-name="uni0312" unicode="&#x312;" 
d="M2 1601h66v-139q0 -23 11 -34t44 -16t102 -5v-136q-122 0 -172.5 47.5t-50.5 143.5v139z" />
    <glyph glyph-name="uni0326" unicode="&#x326;" 
d="M6 -468l127 382l124 -41l-127 -382z" />
    <glyph glyph-name="uni0327" unicode="&#x327;" 
d="M0 -324q129 0 167.5 7.5t38.5 41.5q0 20 -1 28t-5.5 16t-17.5 9.5t-32.5 2.5t-54.5 1h-11h-11h-13v218h65v-84q43 -4 72.5 -20.5t43.5 -33.5t21.5 -48t8 -45t0.5 -44q0 -113 -57 -148.5t-214 -35.5v135z" />
    <glyph glyph-name="uni0328" unicode="&#x328;" 
d="M2 0h66v-139q0 -34 29.5 -45.5t127.5 -11.5v-135q-122 0 -172.5 48.5t-50.5 143.5v139z" />
    <glyph glyph-name="uni0600" unicode="&#x600;" horiz-adv-x="3693" 
d="M56 -696v320h2684q35 19 76 19h117q-40 108 -22 201q34 189 194 257.5t424 18.5v-216q-229 41 -363.5 10t-148.5 -109q-8 -44 12.5 -87.5t73.5 -74.5h531v-325h-42v-14h-3536z" />
    <glyph glyph-name="uni0601" unicode="&#x601;" horiz-adv-x="6632" 
d="M1724 -811q-270 1 -358 234q-98 -234 -281 -234h-44q-21 0 -49 7q-157 29 -219 204q-102 -173 -330 -173q-92 0 -164.5 28t-118 74t-75.5 111.5t-42.5 132.5t-14.5 145v10q0 10 1 15q2 62 18 121t49 115.5t80 98t118 67t157 25.5q164 0 278 -100v158h127v-445v0v-41
q0 -40 -0.5 -57t4 -41.5t6 -32t16.5 -19.5t23.5 -13.5t38.5 -5t51 -3.5h70h20h13q52 0 74.5 1.5t55 13t45.5 36t29.5 70t24 114.5t12.5 172h127q-7 -141 -20 -235h1q0 -44 1.5 -67t12 -46t26 -31.5t50.5 -16.5t77 -9.5t115 -1.5h4881v-381h-4886zM125 495l184 183l159 -158
l157 157l184 -183l-184 -184l-158 159l-158 -158zM155 -270q2 -47 22.5 -71.5t83 -37.5t182.5 -13q68 0 112.5 2.5t78 10t51 17.5t28 30.5t13.5 42.5t3 60q-1 43 -41.5 76.5t-102.5 50.5t-134 17q-86 0 -145.5 -14.5t-90.5 -42t-44.5 -58t-15.5 -70.5zM1219 286l183 183
l184 -183l-184 -184z" />
    <glyph glyph-name="uni0602" unicode="&#x602;" horiz-adv-x="3344" 
d="M61 -164q0 198 109 341q97 128 235 153q166 29 314 -107q187 -172 285 -567h2285v-381h-2747q-100 0 -176.5 17.5t-129 53t-87.5 82t-54 112.5t-26.5 135.5t-7.5 160.5zM188 -164q0 -35 1 -55t7 -42t14 -32.5t28 -22t42.5 -15.5t63.5 -8t85 -4.5t113 -0.5h311
q-92 256 -275 327q-127 50 -253 -1q-90 -35 -124 -98q-13 -25 -13 -48z" />
    <glyph glyph-name="uni0603" unicode="&#x603;" horiz-adv-x="4326" 
d="M56 -863v381h2529q6 1 18 1h34q143 0 200.5 43t57.5 130v273h127v-273q0 -47 -2 -70q120 127 250 219.5t249.5 139t233 62.5t205.5 -7t161.5 -72.5t108 -132.5t38.5 -187v-13q0 -73 -13.5 -141t-44 -133t-76.5 -113t-116 -77t-157 -29h-168q-154 0 -251.5 5.5
t-195.5 24.5t-172 56.5t-142 98.5q-106 -178 -280 -185v-1h-2594zM3174 -444q195 -37 517 -37h168q115 0 179 15.5t82.5 38t18.5 58.5v13q0 87 -54.5 147t-152 76.5t-217 -4.5t-263.5 -100.5t-278 -206.5z" />
    <glyph glyph-name="uni0605" unicode="&#x605;" horiz-adv-x="1913" 
d="M61 1406q54 111 102 185.5t104.5 129t115.5 70t131 -6t154 -85.5q141 -110 461 -118.5t691 98.5l36 -242q-260 -78 -491 -101.5t-434 16t-341 147.5q-63 50 -119.5 59.5t-107.5 -20t-96.5 -89.5t-91.5 -155z" />
    <glyph glyph-name="uni0606" unicode="&#x606;" horiz-adv-x="1837" 
d="M1036 1037h-40v489h40v-120q37 -1 63 -1t40.5 23t14.5 78h41q0 -35 -4 -79q5 -11 16 -13.5t53 -2.5q40 0 47 12t7 83h40q0 -217 -94 -217q-65 0 -91 55q-14 -28 -38 -42t-42.5 -16t-52.5 -2v-247zM61 1389l106 137l770 -1203l201 432q33 70 68 122.5t81.5 96.5t106.5 66
t131 20l258 -4l-2 -254l-259 4q-110 3 -172 -41t-97 -118l-303 -650z" />
    <glyph glyph-name="uni0607" unicode="&#x607;" horiz-adv-x="1837" 
d="M1105 1450h10h72v-91h-72q-117 0 -120 -61q2 -31 26.5 -41.5t104.5 -10.5h107v-136h-107q-97 0 -135.5 49.5t-41.5 135.5v4v2q2 63 37 101q-41 46 -41 109v7q0 53 30 91.5t83 38.5h95v-90h-95q-68 0 -68 -40v-7q0 -27 25 -44t71 -17h19zM61 1389l106 137l770 -1203
l201 432q33 70 68 122.5t81.5 96.5t106.5 66t131 20l258 -4l-2 -254l-259 4q-110 3 -172 -41t-97 -118l-303 -650z" />
    <glyph glyph-name="uni0608" unicode="&#x608;" horiz-adv-x="1562" 
d="M587 527q-152 -170 -158 -436q5 -152 92.5 -222t293.5 -70q133 0 221 8.5t146 24.5t88.5 47.5t43 69t14.5 97.5h-270q-89 0 -156 26.5t-107 70t-63.5 105.5t-29.5 126.5t-1 139.5h2q14 164 120 275.5t235 111.5q64 0 126.5 -31t118.5 -90.5t96 -158.5t52 -223h119
q79 0 135 -56t56 -135t-56 -134.5t-135 -55.5h-116q-5 -113 -26 -201t-67 -164.5t-117 -126.5t-179 -78.5t-250 -28.5q-230 0 -367 177.5t-145 474.5h-1v18q0 12 1 19q8 211 98 375h-345v127h431v-3l5 6zM827 467q-2 -65 40.5 -83.5t190.5 -18.5h267q-15 147 -86 214.5
t-181 67.5q-98 0 -164 -50.5t-66 -123.5v-6h-1z" />
    <glyph glyph-name="uni0609" unicode="&#x609;" horiz-adv-x="1656" 
d="M256 0h-150l819 1603h149zM53 1260l184 183l183 -183l-183 -184zM777 406l183 183l184 -183l-184 -184zM1235 401l184 183l183 -183l-183 -184z" />
    <glyph glyph-name="uni060A" unicode="&#x60a;" horiz-adv-x="2102" 
d="M256 0h-150l819 1603h149zM53 1260l184 183l183 -183l-183 -184zM777 406l183 183l184 -183l-184 -184zM1235 401l184 183l183 -183l-183 -184zM1683 399l183 183l184 -183l-184 -184z" />
    <glyph glyph-name="uni060B" unicode="&#x60b;" horiz-adv-x="890" 
d="M830 569q0 -278 -79 -415t-258 -137h-502q-79 0 -135 55.5t-56 134.5t56 135t135 56h502q32 -2 58 0t46 1t35.5 3.5t26.5 6.5t19 11t12.5 16.5t7.5 23.5t4 31.5t1 39.5h-270q-103 0 -173.5 22.5t-111.5 69t-57.5 111.5t-13.5 156q8 153 110.5 253.5t252.5 100.5
q106 0 196 -69t142 -188.5t52 -261.5v-156zM202 869q1 -53 41.5 -66.5t189.5 -13.5h265q-15 105 -82 165t-176 60q-113 0 -175 -41t-63 -104zM262 1554l184 184l183 -184l-183 -183zM399 -513v409h78v-409h-78z" />
    <glyph glyph-name="uni060C" unicode="&#x60c;" horiz-adv-x="408" 
d="M128 772h106l-53 -242q-28 -129 -6.5 -150.5t178.5 -20.5v-258q-73 0 -125 13t-92 45.5t-58 86.5t-16.5 138.5t26.5 199.5z" />
    <glyph glyph-name="uni060D" unicode="&#x60d;" horiz-adv-x="414" 
d="M56 206q87 0 112 12q38 18 49 93q10 65 10 341h127q0 -314 -32 -495.5t-95.5 -256.5t-170.5 -75v381z" />
    <glyph glyph-name="uni060E" unicode="&#x60e;" horiz-adv-x="2736" 
d="M142 -514q-117 251 -62 483q43 175 167 274t270 73q175 -31 306 -234q101 -158 159 -403q414 34 879 102.5t788 150.5l31 -369q-488 -124 -1142 -206t-1007 -82q-139 0 -236 56.5t-153 154.5zM190 -170q-2 -43 11.5 -73t49.5 -54t105.5 -35.5t174.5 -11.5q127 0 305 12
q-84 235 -262 300q-126 46 -252 -4q-90 -35 -121 -95q-11 -20 -11 -39z" />
    <glyph glyph-name="uni060F" unicode="&#x60f;" horiz-adv-x="1332" 
d="M1271 -990l-122 -34l-151 541q-238 -22 -419 5t-294 98.5t-169 177.5t-55 244q1 111 38 218t124 210t213 168q-76 78 -104 179t-10 185q43 217 231.5 294.5t494.5 20.5v-254q-293 60 -470 1q-117 -38 -132 -113q-11 -51 32 -107q89 -100 369 -100v-7q16 1 48 1h335v-381
h-335q-133 0 -245 -16.5t-187.5 -44.5t-132.5 -62t-87.5 -72t-44 -72t-10.5 -64q4 -49 35 -91t101 -77.5t172 -54.5t259.5 -17.5t352.5 28.5v-218z" />
    <glyph glyph-name="uni0615" unicode="&#x615;" 
d="M451 1289q0 -62 -30.5 -109t-96.5 -47h-324v120h63v355h40v-314q43 52 93.5 82.5t94.5 36.5t80.5 -5t58 -42t21.5 -74v-3zM130 1253h194q53 0 70.5 9t17.5 27v3q0 45 -44 63t-112.5 -7.5t-125.5 -94.5z" />
    <glyph glyph-name="uni061B" unicode="&#x61b;" horiz-adv-x="446" 
d="M128 850h106l-53 -242q-7 -32 -10.5 -46.5t-5.5 -36.5t-3 -29.5t4 -21t8 -16.5t18 -9.5t24 -7t35.5 -2.5t44 -2h57.5v-258q-73 0 -125 13t-92 45.5t-58 86.5t-16.5 138.5t26.5 199.5zM86 -34l147 146l146 -146l-146 -147z" />
    <glyph glyph-name="uni061C" unicode="&#x61c;" horiz-adv-x="552" 
 />
    <glyph glyph-name="uni061E" unicode="&#x61e;" horiz-adv-x="869" 
d="M435 465q-49 0 -83 34t-34 83t34 83t83 34t82.5 -34t33.5 -83t-33.5 -83t-82.5 -34zM53 204q0 48 34 82t83 34t83.5 -34t34.5 -82q0 -49 -34.5 -83t-83.5 -34t-83 34t-34 83zM582 204q0 48 34.5 82t83.5 34q48 0 82 -34t34 -82q0 -49 -34 -83t-82 -34q-50 0 -84 34
t-34 83z" />
    <glyph glyph-name="uni061F" unicode="&#x61f;" horiz-adv-x="998" 
d="M61 875v6q0 198 113 325t277 127h492v-254h-492q-132 0 -197.5 -53.5t-65.5 -144.5v-6q2 -56 64 -92t199 -36h319v-641h-127v260h-192q-119 0 -209 74.5t-134.5 188.5t-46.5 246zM505 -153l184 183l183 -183l-183 -184z" />
    <glyph glyph-name="uni0621" unicode="&#x621;" horiz-adv-x="1002" 
d="M818 623q-232 72 -361 17q-73 -32 -78 -90q-6 -60 61 -103q42 -27 104 -38h403v-320h-891v320h226q-29 100 -8 201.5t90.5 178.5t192.5 102.5t298 -26.5z" />
    <glyph glyph-name="uni0622" unicode="&#x622;" horiz-adv-x="449" 
d="M288 0h-127v1536h127v-1536zM-109 1734v123q75 32 145 36t126 -8t113.5 -23.5t130.5 -3t152 46.5v-123q-80 -37 -153.5 -44t-130 4.5t-112.5 23.5t-126 7t-145 -39z" />
    <glyph glyph-name="uni0623" unicode="&#x623;" horiz-adv-x="449" 
d="M288 0h-127v1536h127v-1536zM25 1707v149h98q-13 47 -4.5 95t37 85.5t78.5 53t121 -2.5v-114q-109 35 -160 -8q-35 -28 -19 -68q12 -26 39 -41h219v-149h-409z" />
    <glyph glyph-name="uni0624" unicode="&#x624;" horiz-adv-x="887" 
d="M85 -484v287h169q185 0 288 47.5t138 166.5h-228q-90 0 -159.5 27t-112 72.5t-68.5 110t-34 134t-4 150.5h1q13 166 116.5 284t231.5 118q62 0 118.5 -18.5t109.5 -63t91.5 -111.5t61.5 -170.5t23 -234.5v-141q0 -150 -31.5 -266t-84 -188.5t-127.5 -119.5t-155.5 -65.5
t-174.5 -18.5h-169zM200 470q1 -24 10.5 -37.5t39 -21.5t74.5 -10.5t128 -2.5h244q-14 148 -82 203.5t-191 55.5q-103 0 -163 -55t-60 -132zM242 1094v149h97q-13 47 -4.5 95t37 85t78.5 52.5t121 -2.5v-113q-109 35 -160 -8q-35 -28 -19 -68q12 -26 39 -41h219v-149h-408z
" />
    <glyph glyph-name="uni0625" unicode="&#x625;" horiz-adv-x="449" 
d="M288 0h-127v1536h127v-1536zM18 -475v149h98q-13 47 -5 95t36.5 85t78.5 52.5t121 -2.5v-113q-109 35 -160 -8q-35 -28 -19 -68q12 -26 39 -41h220v-149h-409z" />
    <glyph glyph-name="uni0626" unicode="&#x626;" horiz-adv-x="1427" 
d="M343 913q-29 -36 -52 -71.5t-47.5 -88t-39 -121t-16.5 -147.5q5 -152 97.5 -221t293.5 -69h213q439 0 439 154h2q-2 58 -84.5 83t-271.5 37q-149 9 -231 101t-84 226v22q0 123 87 211t238 88h445v-192h-445q-103 0 -150.5 -29.5t-47.5 -77.5v-13q0 -69 196 -82
q121 -8 205.5 -29.5t147 -64.5t92.5 -112.5t30 -170.5h-2q0 -68 -13.5 -133.5t-52 -140.5t-98.5 -130t-164 -92t-238 -37h-213q-230 0 -369 174t-148 475h-1v19q0 14 1 21q11 282 183 491zM171 1208v149h98q-13 47 -4.5 95t37 85t78.5 52.5t121 -2.5v-113q-110 35 -161 -8
q-35 -29 -18 -69q11 -25 38 -40h220v-149h-409z" />
    <glyph glyph-name="uni0627" unicode="&#x627;" horiz-adv-x="449" 
d="M288 0h-127v1536h127v-1536z" />
    <glyph glyph-name="uni0628" unicode="&#x628;" horiz-adv-x="1626" 
d="M273 845q-82 -144 -85 -299q1 -33 12.5 -57t35 -40t53 -26.5t76 -15.5t93 -7t114.5 -2h583q118 0 180 17t83 49t21 91v369h127v-369q0 -109 -22.5 -202t-69 -170t-128.5 -121.5t-191 -44.5h-583q-260 0 -383.5 120t-127.5 397v8v12q6 183 100 353zM657 -292l183 184
l184 -184l-184 -183z" />
    <glyph glyph-name="uni0629" unicode="&#x629;" horiz-adv-x="876" 
d="M291 1455l159 -158l157 157l184 -183l-184 -184l-158 159l-158 -158l-184 183zM61 478v23v28h2q10 217 109.5 341.5t260.5 124.5q96 0 170.5 -41.5t118.5 -111.5t66.5 -152.5t25.5 -175.5h1v-16v-11q-1 -49 -4.5 -91t-14.5 -91.5t-28 -89t-46 -77.5t-68 -64t-95.5 -41.5
t-125.5 -15.5q-87 0 -153 27t-105.5 70t-65 105.5t-35.5 123.5t-12 135h-1zM188 496q1 -72 37 -85.5t208 -12.5q184 0 219 13t36 85q-1 61 -12 103t-38 76t-78 50t-127 16q-131 0 -186.5 -55.5t-58.5 -189.5z" />
    <glyph glyph-name="uni062A" unicode="&#x62a;" horiz-adv-x="1626" 
d="M273 845q-82 -144 -85 -299q1 -33 12.5 -57t35 -40t53 -26.5t76 -15.5t93 -7t114.5 -2h583q118 0 180 17t83 49t21 91v369h127v-369q0 -109 -22.5 -202t-69 -170t-128.5 -121.5t-191 -44.5h-583q-260 0 -383.5 120t-127.5 397v8v12q6 183 100 353zM507 1106l184 183
l159 -158l157 158l183 -184l-183 -183l-158 159l-158 -159z" />
    <glyph glyph-name="uni062B" unicode="&#x62b;" horiz-adv-x="1626" 
d="M273 845q-82 -144 -85 -299q1 -33 12.5 -57t35 -40t53 -26.5t76 -15.5t93 -7t114.5 -2h583q118 0 180 17t83 49t21 91v369h127v-369q0 -109 -22.5 -202t-69 -170t-128.5 -121.5t-191 -44.5h-583q-260 0 -383.5 120t-127.5 397v8v12q6 183 100 353zM508 1117l183 183
l159 -159l158 158l184 -183l-184 -184l-158 159l-159 -158zM666 1399l184 184l184 -184l-184 -183z" />
    <glyph glyph-name="uni062C" unicode="&#x62c;" horiz-adv-x="1324" 
d="M1269 985v-379l-311 -70q-225 -51 -379.5 -106t-239.5 -114.5t-120 -119t-31 -128.5q4 -42 20 -79.5t50 -73.5t83.5 -64t123 -48t165 -29t213.5 -4.5t265 24.5v-254q-220 -31 -390 -17.5t-291.5 55.5t-201 117t-119 167t-45.5 204q-4 150 41.5 276t146 234.5t270.5 192
t404 137.5q-45 24 -135.5 78.5t-131.5 78.5q-216 126 -510 -56v206q71 38 134 60t136 31t149.5 -8.5t154.5 -62.5q37 -21 114.5 -68.5t110 -65t91.5 -44.5t112.5 -40t118.5 -19l-1 -12zM643 102l184 184l183 -184l-183 -183z" />
    <glyph glyph-name="uni062D" unicode="&#x62d;" horiz-adv-x="1324" 
d="M1269 985v-379l-311 -70q-225 -51 -379.5 -106t-239.5 -114.5t-120 -119t-31 -128.5q4 -42 20 -79.5t50 -73.5t83.5 -64t123 -48t165 -29t213.5 -4.5t265 24.5v-254q-220 -31 -390 -17.5t-291.5 55.5t-201 117t-119 167t-45.5 204q-4 150 41.5 276t146 234.5t270.5 192
t404 137.5q-45 24 -135.5 78.5t-131.5 78.5q-216 126 -510 -56v206q71 38 134 60t136 31t149.5 -8.5t154.5 -62.5q37 -21 114.5 -68.5t110 -65t91.5 -44.5t112.5 -40t118.5 -19l-1 -12z" />
    <glyph glyph-name="uni062E" unicode="&#x62e;" horiz-adv-x="1324" 
d="M1269 985v-379l-311 -70q-225 -51 -379.5 -106t-239.5 -114.5t-120 -119t-31 -128.5q4 -42 20 -79.5t50 -73.5t83.5 -64t123 -48t165 -29t213.5 -4.5t265 24.5v-254q-220 -31 -390 -17.5t-291.5 55.5t-201 117t-119 167t-45.5 204q-4 150 41.5 276t146 234.5t270.5 192
t404 137.5q-45 24 -135.5 78.5t-131.5 78.5q-216 126 -510 -56v206q71 38 134 60t136 31t149.5 -8.5t154.5 -62.5q37 -21 114.5 -68.5t110 -65t91.5 -44.5t112.5 -40t118.5 -19l-1 -12zM297 1615l183 183l184 -183l-184 -184z" />
    <glyph glyph-name="uni062F" unicode="&#x62f;" horiz-adv-x="892" 
d="M843 501q-1 -79 -13 -146.5t-41.5 -131t-75 -108t-117.5 -71.5t-165 -27h-387v381h387q117 0 179.5 12t83 32.5t21.5 58.5h1v6q0 95 -63.5 147.5t-173 61.5t-255.5 -5v254q619 64 619 -458v-6z" />
    <glyph glyph-name="uni0630" unicode="&#x630;" horiz-adv-x="892" 
d="M843 501q-1 -79 -13 -146.5t-41.5 -131t-75 -108t-117.5 -71.5t-165 -27h-387v381h387q117 0 179.5 12t83 32.5t21.5 58.5h1v6q0 95 -63.5 147.5t-173 61.5t-255.5 -5v254q619 64 619 -458v-6zM199 1307l184 183l183 -183l-183 -184z" />
    <glyph glyph-name="uni0631" unicode="&#x631;" horiz-adv-x="567" 
d="M0 -152q56 0 98 1.5t79.5 7.5t63.5 13t48 22t36 29t25 41t16 51.5t8.5 66t4.5 79t1 95.5v589h127v-589q0 -99 -5 -177.5t-19 -159t-37.5 -141t-62.5 -115t-91.5 -89t-126 -54.5t-165.5 -20v350z" />
    <glyph glyph-name="uni0632" unicode="&#x632;" horiz-adv-x="694" 
d="M0 -152q56 0 98 1.5t79.5 7.5t63.5 13t48 22t36 29t25 41t16 51.5t8.5 66t4.5 79t1 95.5v589h127v-589q0 -99 -5 -177.5t-19 -159t-37.5 -141t-62.5 -115t-91.5 -89t-126 -54.5t-165.5 -20v350zM260 1145l183 184l184 -184l-184 -183z" />
    <glyph glyph-name="uni0633" unicode="&#x633;" horiz-adv-x="2270" 
d="M347 724q-153 -171 -159 -436q5 -151 93 -221t294 -70q73 0 131.5 7.5t112 27.5t89 52t56.5 84t21 122v553h127v-385q25 -45 90.5 -68t133.5 -19t123 41.5t61 101.5l21 227h129l-23 -261l-4 -30q77 -52 191 -52h40q124 0 166 23t42 79v389h127v-389q0 -131 -37 -238.5
t-115 -176t-183 -68.5h-40q-76 0 -137.5 39t-140.5 121q-85 -141 -209 -158.5t-244 112.5q-34 -247 -170.5 -381t-357.5 -134q-230 0 -367.5 177.5t-145.5 474.5h-1v17q0 13 1 20q6 165 60 292.5t129 211.5z" />
    <glyph glyph-name="uni0634" unicode="&#x634;" horiz-adv-x="2270" 
d="M347 724q-153 -171 -159 -436q5 -151 93 -221t294 -70q73 0 131.5 7.5t112 27.5t89 52t56.5 84t21 122v553h127v-385q25 -45 90.5 -68t133.5 -19t123 41.5t61 101.5l21 227h129l-23 -261l-4 -30q77 -52 191 -52h40q124 0 166 23t42 79v389h127v-389q0 -131 -37 -238.5
t-115 -176t-183 -68.5h-40q-76 0 -137.5 39t-140.5 121q-85 -141 -209 -158.5t-244 112.5q-34 -247 -170.5 -381t-357.5 -134q-230 0 -367.5 177.5t-145.5 474.5h-1v17q0 13 1 20q6 165 60 292.5t129 211.5zM1280 1117l183 183l159 -159l158 158l184 -183l-184 -184
l-159 159l-158 -158zM1438 1399l183 184l185 -184l-185 -183z" />
    <glyph glyph-name="uni0635" unicode="&#x635;" horiz-adv-x="2374" 
d="M2314 496q0 -70 -10.5 -134.5t-37 -128.5t-67 -111t-105 -76t-145.5 -29h-210q-217 0 -360.5 42t-269.5 135q-22 -276 -160.5 -427t-373.5 -151q-230 0 -367.5 177.5t-145.5 474.5h-1v17q0 13 1 20q6 165 60 292.5t129 211.5l96 -85q-153 -171 -159 -436q5 -151 93 -221
t294 -70q73 0 131.5 7.5t112 27.5t89 52t56.5 84t21 122v553h127v-279q139 142 288 232.5t279.5 121.5t248.5 18t202.5 -68t134 -148t49.5 -211v-13zM1246 475q195 -77 493 -77h210q107 0 159 10.5t65.5 29t13.5 58.5v13q0 63 -27.5 115t-78.5 85t-118.5 49t-152 6.5
t-175 -40.5t-192 -95t-197.5 -154z" />
    <glyph glyph-name="uni0636" unicode="&#x636;" horiz-adv-x="2374" 
d="M2314 496q0 -70 -10.5 -134.5t-37 -128.5t-67 -111t-105 -76t-145.5 -29h-210q-217 0 -360.5 42t-269.5 135q-22 -276 -160.5 -427t-373.5 -151q-230 0 -367.5 177.5t-145.5 474.5h-1v17q0 13 1 20q6 165 60 292.5t129 211.5l96 -85q-153 -171 -159 -436q5 -151 93 -221
t294 -70q73 0 131.5 7.5t112 27.5t89 52t56.5 84t21 122v553h127v-279q139 142 288 232.5t279.5 121.5t248.5 18t202.5 -68t134 -148t49.5 -211v-13zM1229 1234l183 183l184 -183l-184 -184zM1246 475q195 -77 493 -77h210q107 0 159 10.5t65.5 29t13.5 58.5v13
q0 63 -27.5 115t-78.5 85t-118.5 49t-152 6.5t-175 -40.5t-192 -95t-197.5 -154z" />
    <glyph glyph-name="uni0637" unicode="&#x637;" horiz-adv-x="1561" 
d="M1501 513q0 -71 -12.5 -138.5t-43 -133t-76.5 -114.5t-117.5 -79.5t-161.5 -30.5h-1034v381h202v1138h127v-1008q78 93 164 166.5t169.5 119t168 73t160.5 31t145.5 -9t125.5 -46.5t97 -81.5t63.5 -113t22.5 -142.5v-12zM471 398h619q90 0 148 8t87 24.5t39 35.5t10 47
v12q0 119 -104 180q-113 67 -287 31q-222 -46 -421 -239q-47 -46 -91 -99z" />
    <glyph glyph-name="uni0638" unicode="&#x638;" horiz-adv-x="1561" 
d="M1501 513q0 -71 -12.5 -138.5t-43 -133t-76.5 -114.5t-117.5 -79.5t-161.5 -30.5h-1034v381h202v1138h127v-1008q78 93 164 166.5t169.5 119t168 73t160.5 31t145.5 -9t125.5 -46.5t97 -81.5t63.5 -113t22.5 -142.5v-12zM471 398h619q90 0 148 8t87 24.5t39 35.5t10 47
v12q0 119 -104 180q-113 67 -287 31q-222 -46 -421 -239q-47 -46 -91 -99zM574 1294l184 183l183 -183l-183 -184z" />
    <glyph glyph-name="uni0639" unicode="&#x639;" horiz-adv-x="1286" 
d="M1108 -471q-272 -34 -470 -14.5t-326.5 91t-190 181t-60.5 255.5q1 111 38 218t124 210t213 168q-76 78 -104 179t-10 185q43 217 231.5 294.5t494.5 20.5v-254q-293 60 -470 1q-117 -38 -132 -113q-11 -51 32 -107q89 -100 369 -100v-7q16 1 48 1h335v-381h-335
q-133 0 -245 -16.5t-187.5 -44.5t-132.5 -62t-87.5 -72t-44 -72t-10.5 -64q4 -49 35 -91t101 -77.5t172 -54.5t259.5 -17.5t352.5 28.5v-285z" />
    <glyph glyph-name="uni063A" unicode="&#x63a;" horiz-adv-x="1286" 
d="M1108 -471q-272 -34 -470 -14.5t-326.5 91t-190 181t-60.5 255.5q1 111 38 218t124 210t213 168q-76 78 -104 179t-10 185q43 217 231.5 294.5t494.5 20.5v-254q-293 60 -470 1q-117 -38 -132 -113q-11 -51 32 -107q89 -100 369 -100v-7q16 1 48 1h335v-381h-335
q-133 0 -245 -16.5t-187.5 -44.5t-132.5 -62t-87.5 -72t-44 -72t-10.5 -64q4 -49 35 -91t101 -77.5t172 -54.5t259.5 -17.5t352.5 28.5v-285zM554 1701l183 184l184 -184l-184 -183z" />
    <glyph glyph-name="uni0640" unicode="&#x640;" horiz-adv-x="440" 
d="M450 398q79 0 135 -56t56 -135t-56 -134.5t-135 -55.5h-459q-79 0 -135 55.5t-56 134.5t56 135t135 56h459z" />
    <glyph glyph-name="uni0641" unicode="&#x641;" horiz-adv-x="1906" 
d="M273 845q-82 -144 -85 -299q1 -33 12.5 -57t35 -40t53 -26.5t76 -15.5t93 -7t114.5 -2h824q131 0 200.5 14t94.5 41t27 78h-270q-194 0 -274.5 77.5t-82.5 243.5h-1l1 24v7q12 151 117 256t246 105q164 0 277.5 -149t113.5 -370v-186q0 -522 -449 -522h-824
q-260 0 -383.5 120t-127.5 397v8v12q6 183 100 353zM1217 859q2 -46 43 -58t188 -12h266q-15 107 -81.5 166t-178.5 59q-108 0 -171 -45t-66 -110zM1271 1549l183 184l184 -184l-184 -183z" />
    <glyph glyph-name="uni0642" unicode="&#x642;" horiz-adv-x="1253" 
d="M1204 207q0 -126 -17 -224t-60.5 -185t-115 -143t-184 -88.5t-263.5 -32.5q-230 0 -367 177.5t-145 474.5h-1v17q0 13 1 20q6 165 60 292.5t129 211.5l95 -85q-152 -170 -158 -436q5 -152 92.5 -221.5t293.5 -69.5q133 0 221 8.5t145.5 24.5t88.5 47t43 68.5t14 97.5
h-269q-89 0 -156 26.5t-107 70t-63.5 105.5t-29.5 126.5t-1 139.5h1q14 164 120.5 276t235.5 112q55 0 109 -21.5t105 -68.5t90.5 -114t64.5 -164.5t28 -212.5v-229zM469 1298l184 183l159 -158l157 157l184 -183l-184 -184l-158 159l-158 -158zM575 582q-1 -45 17 -65
t65 -28t150 -8h267q-15 147 -86 214.5t-181 67.5q-98 0 -164 -51t-66 -124v-6h-2z" />
    <glyph glyph-name="uni0643" unicode="&#x643;" horiz-adv-x="1626" 
d="M61 822h127v-243q0 -38 0.5 -57t6 -42.5t12 -33t25 -21.5t37.5 -15t58 -7t78 -4.5t105 -0.5h628q93 0 152 9t92 31t45 51t12 76v978h127v-978q0 -88 -14 -165.5t-46 -149t-80 -122.5t-122 -81t-166 -30h-628q-108 0 -188.5 28.5t-129.5 76.5t-79 121.5t-41 153t-11 182.5
v243zM629 1043l328 100v-113l-189 -58l122 -27q71 -15 100.5 -46t29.5 -92q2 -55 -32.5 -96t-102.5 -45l-231 -11v113l227 11q80 3 80 26q0 8 -13.5 13.5t-70.5 17.5l-239 51z" />
    <glyph glyph-name="uni0644" unicode="&#x644;" horiz-adv-x="1173" 
d="M347 745q-153 -171 -159 -438q5 -157 94 -233.5t293 -76.5q73 0 131.5 7.5t112 27.5t89 52t56.5 84t21 122v1253h127v-1253q0 -319 -141 -496.5t-396 -177.5q-225 0 -365 185.5t-148 486.5h-1v17q0 12 1 19q6 165 60 293t129 213z" />
    <glyph glyph-name="uni0645" unicode="&#x645;" horiz-adv-x="1264" 
d="M61 -540v416q0 68 2.5 122.5t11.5 118t24.5 113t42 99.5t62.5 86t88.5 65t118.5 44l33 9q25 77 43 114q54 114 130.5 180t154.5 78t156.5 -14.5t138.5 -84t98 -143.5t38 -182q-1 -68 -11.5 -132.5t-38 -131.5t-68.5 -116t-109 -80.5t-153 -31.5q-122 0 -210.5 34.5
t-184.5 140.5l-32 -8q-155 -41 -182 -78.5t-26 -201.5v-416h-127zM551 414q118 -43 272 -43q71 0 116.5 4.5t73 11.5t41 23t17.5 31.5t5 43.5q-1 45 -29 85t-71 66t-97 36.5t-105.5 2t-98.5 -43t-74 -92.5q-31 -64 -50 -125z" />
    <glyph glyph-name="uni0646" unicode="&#x646;" horiz-adv-x="1173" 
d="M347 724q-153 -171 -159 -436q5 -151 93 -221t294 -70q73 0 131.5 7.5t112 27.5t89 52t56.5 84t21 122v553h127v-553q0 -319 -141 -496.5t-396 -177.5q-230 0 -367.5 177.5t-145.5 474.5h-1v17q0 13 1 20q6 165 60 292.5t129 211.5zM446 1120l183 183l184 -183l-184 -184
z" />
    <glyph glyph-name="uni0647" unicode="&#x647;" horiz-adv-x="876" 
d="M61 478v23v28h2q10 217 109.5 341.5t260.5 124.5q96 0 170.5 -41.5t118.5 -111.5t66.5 -152.5t25.5 -175.5h1v-16v-11q-1 -49 -4.5 -91t-14.5 -91.5t-28 -89t-46 -77.5t-68 -64t-95.5 -41.5t-125.5 -15.5q-87 0 -153 27t-105.5 70t-65 105.5t-35.5 123.5t-12 135h-1z
M188 496q1 -72 37 -85.5t208 -12.5q184 0 219 13t36 85q-1 61 -12 103t-38 76t-78 50t-127 16q-131 0 -186.5 -55.5t-58.5 -189.5z" />
    <glyph glyph-name="uni0648" unicode="&#x648;" horiz-adv-x="887" 
d="M85 -484v287h169q185 0 288 47.5t138 166.5h-228q-90 0 -159.5 27t-112 72.5t-68.5 110t-34 134t-4 150.5h1q13 166 116.5 284t231.5 118q62 0 118.5 -18.5t109.5 -63t91.5 -111.5t61.5 -170.5t23 -234.5v-141q0 -150 -31.5 -266t-84 -188.5t-127.5 -119.5t-155.5 -65.5
t-174.5 -18.5h-169zM200 470q1 -24 10.5 -37.5t39 -21.5t74.5 -10.5t128 -2.5h244q-14 148 -82 203.5t-191 55.5q-103 0 -163 -55t-60 -132z" />
    <glyph glyph-name="uni0649" unicode="&#x649;" horiz-adv-x="1427" 
d="M343 913q-29 -36 -52 -71.5t-47.5 -88t-39 -121t-16.5 -147.5q5 -152 97.5 -221t293.5 -69h213q439 0 439 154h2q-2 58 -84.5 83t-271.5 37q-149 9 -231 101t-84 226v22q0 123 87 211t238 88h445v-192h-445q-103 0 -150.5 -29.5t-47.5 -77.5v-13q0 -69 196 -82
q121 -8 205.5 -29.5t147 -64.5t92.5 -112.5t30 -170.5h-2q0 -68 -13.5 -133.5t-52 -140.5t-98.5 -130t-164 -92t-238 -37h-213q-230 0 -369 174t-148 475h-1v19q0 14 1 21q11 282 183 491z" />
    <glyph glyph-name="uni064A" unicode="&#x64a;" horiz-adv-x="1427" 
d="M343 913q-29 -36 -52 -71.5t-47.5 -88t-39 -121t-16.5 -147.5q5 -152 97.5 -221t293.5 -69h213q439 0 439 154h2q-2 58 -84.5 83t-271.5 37q-149 9 -231 101t-84 226v22q0 123 87 211t238 88h445v-192h-445q-103 0 -150.5 -29.5t-47.5 -77.5v-13q0 -69 196 -82
q121 -8 205.5 -29.5t147 -64.5t92.5 -112.5t30 -170.5h-2q0 -68 -13.5 -133.5t-52 -140.5t-98.5 -130t-164 -92t-238 -37h-213q-230 0 -369 174t-148 475h-1v19q0 14 1 21q11 282 183 491zM403 -460l184 183l158 -159l158 158l183 -183l-183 -184l-158 158l-158 -157z" />
    <glyph glyph-name="uni064B" unicode="&#x64b;" 
d="M12 688l-11 64l504 93l12 -63zM1 617l504 93l12 -64l-505 -93z" />
    <glyph glyph-name="uni064C" unicode="&#x64c;" 
d="M2 1063q10 5 157 77q-26 34 -31.5 78.5t8.5 81.5t49 60t84 17q44 -5 74.5 -49.5t27.5 -100t-44 -87.5q-27 -23 -73 -48.5t-124.5 -62.5t-100.5 -48zM240 1180q42 23 53 35q25 24 14.5 44.5t-46.5 25.5q-46 5 -68.5 -13.5t-9.5 -46t57 -45.5zM292 1062q10 5 157 77
q-26 34 -31.5 78.5t8.5 81.5t49 60t84 17q44 -5 74.5 -49.5t27.5 -100t-44 -87.5q-27 -23 -73 -48.5t-124.5 -62.5t-100.5 -48zM530 1180q44 24 53 34q25 24 14.5 45t-46.5 26q-46 5 -68.5 -13.5t-9.5 -46t57 -45.5z" />
    <glyph glyph-name="uni064D" unicode="&#x64d;" 
d="M12 -101l-11 64l504 94l12 -64zM1 -172l504 93l12 -64l-505 -93z" />
    <glyph glyph-name="uni064E" unicode="&#x64e;" 
d="M12 588l-11 64l504 93l12 -63z" />
    <glyph glyph-name="uni064F" unicode="&#x64f;" 
d="M2 1149q61 32 170 83q-28 37 -34 84.5t9 88t53 65.5t91 19q35 -4 63 -34.5t39.5 -70t2 -83t-42.5 -69.5q-29 -25 -80.5 -53t-131.5 -66t-110 -53zM259 1276q46 24 58 37q28 26 16.5 48.5t-50.5 27.5q-50 6 -74.5 -14t-10.5 -50t61 -49z" />
    <glyph glyph-name="uni0650" unicode="&#x650;" 
d="M12 -218l-11 64l504 93l12 -64z" />
    </font>
</defs>
</svg>
