<?xml version="1.0" standalone="no"?>
<!DOCTYPE svg PUBLIC "-//W3C//DTD SVG 1.1//EN" "http://www.w3.org/Graphics/SVG/1.1/DTD/svg11.dtd" >
<svg xmlns="http://www.w3.org/2000/svg" xmlns:xlink="http://www.w3.org/1999/xlink" version="1.1">
<metadata>
Created by FontForge 20170731 at Sat Aug  5 00:30:49 2023
 By Aleksey,,,
Atype Studio
</metadata>
<defs>
<font id="GHAITHSANS-ExtraBold" horiz-adv-x="0" >
  <font-face 
    font-family="GHAITHSANS ExtraBold"
    font-weight="800"
    font-stretch="normal"
    units-per-em="2048"
    panose-1="0 0 0 0 0 0 0 0 0 0"
    ascent="1638"
    descent="-410"
    x-height="1080"
    cap-height="1570"
    bbox="-331 -1042 6846 2504.24"
    underline-thickness="102"
    underline-position="-357"
    unicode-range="U+0020-FF5D"
  />
<missing-glyph horiz-adv-x="1036" 
d="M62 1580h912v-1563h-912v1563zM360 425h316v747h-316v-747z" />
    <glyph glyph-name="fi" unicode="fi" horiz-adv-x="1342" 
d="M823 1550v-436h-185q-120 0 -175 -11t-71.5 -34t-16.5 -76v-138h815v-855h-146v564h-669v-560h-146v560h-179v291h179v138q0 88 12 165.5t42 151t75.5 125.5t117 83.5t162.5 31.5h185zM884 1144l205 204l204 -204l-205 -204z" />
    <glyph glyph-name="fl" unicode="fl" horiz-adv-x="1581" 
d="M823 1604v-436h-185q-120 0 -175 -11t-71.5 -34t-16.5 -76v-98h633v621h146l-1 -775q0 -103 -0.5 -145t13 -92.5t23.5 -62t56.5 -26t83.5 -14.5h131h71v-436h-71q-84 0 -147 16.5t-119 59t-92.5 114t-60.5 183.5t-31 266h-635v-654h-146v654h-179v291h179v98
q0 88 12 165.5t42 151t75.5 125.5t117 83.5t162.5 31.5h185z" />
    <glyph glyph-name="uni0622.fina" unicode="&#x622;" horiz-adv-x="471" arabic-form="final" 
d="M480 455q90 0 154 -64t64 -154t-64 -154t-154 -64h-27q-184 0 -267 143t-83 452v956h146v-956v-43.5t2.5 -34t2.5 -27.5t8.5 -19.5t12 -15t19.5 -9t25 -6.5t35 -2t43 -2h56h27zM-170 1745v139q74 31 144 35t126.5 -8t114 -23t130.5 -2.5t152 46.5v-140
q-79 -36 -152 -42.5t-130 5t-113.5 23.5t-126.5 6.5t-145 -39.5z" />
    <glyph glyph-name="uni0623.fina" unicode="&#x623;" horiz-adv-x="471" arabic-form="final" 
d="M480 455q90 0 154 -64t64 -154t-64 -154t-154 -64h-27q-184 0 -267 143t-83 452v956h146v-956v-43.5t2.5 -34t2.5 -27.5t8.5 -19.5t12 -15t19.5 -9t25 -6.5t35 -2t43 -2h56h27zM-38 1738v168h99q-10 48 -0.5 95.5t38.5 84t78.5 51.5t117.5 -1v-127q-107 33 -156 -8
q-32 -27 -14 -64q9 -18 29 -31h222v-168h-414z" />
    <glyph glyph-name="uni0624.fina" unicode="&#x624;" horiz-adv-x="892" arabic-form="final" 
d="M84 -485v328h170q176 0 272.5 39.5t134.5 136.5h-220q-112 0 -191 44t-120 120.5t-56.5 168t-8.5 199.5q16 166 123 285.5t233 119.5q53 0 103 -13t102.5 -48t93 -89.5t70.5 -144.5t40 -206h72q90 0 154 -64t64 -154t-64 -154t-154 -64h-80q-75 -504 -568 -504h-170z
M210 523q-4 -51 25.5 -59.5t205.5 -8.5h240q-20 122 -84 165.5t-176 43.5q-89 0 -145.5 -41t-65.5 -100zM220 1137v169h99q-10 48 -0.5 95.5t38.5 84t78.5 51.5t117.5 -1v-127q-107 33 -156 -8q-32 -27 -14 -64q9 -18 29 -31h222v-169h-414z" />
    <glyph glyph-name="uni0625.fina" unicode="&#x625;" horiz-adv-x="471" arabic-form="final" 
d="M480 455q90 0 154 -64t64 -154t-64 -154t-154 -64h-27q-184 0 -267 143t-83 452v956h146v-956v-43.5t2.5 -34t2.5 -27.5t8.5 -19.5t12 -15t19.5 -9t25 -6.5t35 -2t43 -2h56h27zM11 -489v169h99q-10 48 -0.5 95.5t38.5 84t78.5 51.5t117.5 -1v-127q-107 33 -156 -8
q-32 -27 -14 -64q9 -18 29 -31h222v-169h-414z" />
    <glyph glyph-name="uni0626.init" unicode="&#x626;" horiz-adv-x="470" arabic-form="initial" 
d="M-9 19q-90 0 -154 64t-64 154t64 154t154 64h86h52t41 1.5t33.5 2t23.5 6.5t18.5 8.5t11 14t8 18t2.5 26t2 32v40.5v289h146v-289q0 -107 -9 -191t-32.5 -160t-61 -126t-97 -79t-138.5 -29h-86zM121 1073v169h99q-10 48 -0.5 95.5t38.5 84t78.5 51.5t117.5 -1v-127
q-107 33 -156 -8q-32 -27 -14 -64q9 -18 29 -31h222v-169h-414z" />
    <glyph glyph-name="uni0626.medi" unicode="&#x626;" horiz-adv-x="679" arabic-form="medial" 
d="M407 605q0 -113 35 -131.5t246 -18.5q90 0 154 -64t64 -154t-64 -154t-154 -64q-278 0 -373 234q-102 -234 -276 -234h-48q-90 0 -154 64t-64 154t64 154t154 64h48h48.5t39.5 1t34.5 3.5t26.5 7t23.5 11.5t17 17t14.5 24t9 32t9 41v13h2q8 63 18 227h147
q-8 -130 -22 -227h1zM153 1004v168h98q-10 48 -0.5 95.5t39 84t79 51.5t117.5 -1v-127q-107 33 -156 -8q-32 -27 -14 -64q9 -18 29 -31h222v-168h-414z" />
    <glyph glyph-name="uni0626.fina" unicode="&#x626;" horiz-adv-x="1400" arabic-form="final" 
d="M742 567q244 -67 373.5 -89.5t293.5 -22.5q90 0 154 -64t64 -154t-64 -154t-154 -64q-79 0 -136 4q-6 -127 -57.5 -229.5t-131 -165.5t-174 -96t-191.5 -33q-205 0 -342.5 60.5t-218.5 190.5t-96.5 334.5t24.5 491.5h152q-19 -118 -27.5 -208t-5 -164t16.5 -125.5
t43.5 -90.5t68.5 -62.5t98 -38t127 -19.5t160 -5q185 0 281.5 42.5t111.5 138.5q-109 21 -407 102zM106 768v168h98q-10 48 -0.5 95.5t38.5 84t78.5 52t117.5 -0.5v-127q-107 33 -156 -9q-32 -27 -14 -64q9 -18 29 -31h222v-168h-413z" />
    <glyph glyph-name="uni0627.fina" unicode="&#x627;" horiz-adv-x="471" arabic-form="final" 
d="M480 455q90 0 154 -64t64 -154t-64 -154t-154 -64h-27q-184 0 -267 143t-83 452v956h146v-956v-43.5t2.5 -34t2.5 -27.5t8.5 -19.5t12 -15t19.5 -9t25 -6.5t35 -2t43 -2h56h27z" />
    <glyph glyph-name="uni0628.init" unicode="&#x628;" horiz-adv-x="470" arabic-form="initial" 
d="M-9 19q-90 0 -154 64t-64 154t64 154t154 64h86h52t41 1.5t33.5 2t23.5 6.5t18.5 8.5t11 14t8 18t2.5 26t2 32v40.5v289h146v-289q0 -107 -9 -191t-32.5 -160t-61 -126t-97 -79t-138.5 -29h-86zM43 -301l204 204l204 -204l-204 -205z" />
    <glyph glyph-name="uni0628.medi" unicode="&#x628;" horiz-adv-x="679" arabic-form="medial" 
d="M407 605q0 -113 35 -131.5t246 -18.5q90 0 154 -64t64 -154t-64 -154t-154 -64q-278 0 -373 234q-102 -234 -276 -234h-48q-90 0 -154 64t-64 154t64 154t154 64h48h48.5t39.5 1t34.5 3.5t26.5 7t23.5 11.5t17 17t14.5 24t9 32t9 41v13h2q8 63 18 227h147
q-8 -130 -22 -227h1zM125 -301l204 204l204 -204l-205 -205z" />
    <glyph glyph-name="uni0628.fina" unicode="&#x628;" horiz-adv-x="1736" arabic-form="final" 
d="M285 870q-80 -139 -83 -294q1 -22 6 -38.5t17.5 -29t26.5 -21.5t40.5 -15t50 -9.5t65 -5t76.5 -2t92 -0.5h571q125 0 186.5 14.5t81 42.5t19.5 85v357h145v-357v-43v-45.5t5.5 -29t9 -17.5t20 -7.5t28.5 -2.5t45 2t59 1q90 0 154 -64t64 -154t-64 -154t-154 -64
q-84 0 -148 51.5t-104 143.5q-111 -195 -347 -195h-571q-269 0 -392 127.5t-127 417.5v8v11q6 191 102 359zM641 -301l204 204l204 -204l-204 -205z" />
    <glyph glyph-name="uni0629.fina" unicode="&#x629;" horiz-adv-x="1096" arabic-form="final" 
d="M1105 455q90 0 154 -64t64 -154t-64 -154t-154 -64h-12q-216 0 -293 205q-105 -165 -324 -165q-95 0 -168 29.5t-119 77.5t-75.5 117t-42 140t-14.5 154v10v18q3 60 18.5 118.5t48.5 116.5t80 101.5t120 71t162 27.5q151 0 261 -85v148h146v-498v-41t2 -31.5t2.5 -26.5
t8.5 -18.5t11 -14t18.5 -8.5t24 -6.5l34 -2t42 -1.5h53.5h4h12zM126 1373l205 204l168 -168l168 167l204 -204l-205 -205l-168 169l-168 -168zM202 588q1 -42 20 -60t74 -25.5t180 -7.5h85.5t64 2.5t49 5t32 10.5t22.5 16t10.5 24t6.5 32t1 43q-1 39 -40.5 67t-97 40.5
t-123.5 12.5q-84 0 -141.5 -12.5t-87 -36.5t-41.5 -50t-14 -61z" />
    <glyph glyph-name="uni062A.init" unicode="&#x62a;" horiz-adv-x="634" arabic-form="initial" 
d="M-9 19q-90 0 -154 64t-64 154t64 154t154 64h86h52t41 1.5t33.5 2t23.5 6.5t18.5 8.5t11 14t8 18t2.5 26t2 32v40.5v289h146v-289q0 -107 -9 -191t-32.5 -160t-61 -126t-97 -79t-138.5 -29h-86zM-48 1175l186 186l154 -153l153 152l186 -186l-187 -187l-153 154
l-153 -153z" />
    <glyph glyph-name="uni062A.medi" unicode="&#x62a;" horiz-adv-x="679" arabic-form="medial" 
d="M407 605q0 -113 35 -131.5t246 -18.5q90 0 154 -64t64 -154t-64 -154t-154 -64q-278 0 -373 234q-102 -234 -276 -234h-48q-90 0 -154 64t-64 154t64 154t154 64h48h48.5t39.5 1t34.5 3.5t26.5 7t23.5 11.5t17 17t14.5 24t9 32t9 41v13h2q8 63 18 227h147
q-8 -130 -22 -227h1zM17 1075l187 186l153 -153l153 152l186 -186l-186 -187l-154 154l-153 -153z" />
    <glyph glyph-name="uni062A.fina" unicode="&#x62a;" horiz-adv-x="1736" arabic-form="final" 
d="M285 870q-80 -139 -83 -294q1 -22 6 -38.5t17.5 -29t26.5 -21.5t40.5 -15t50 -9.5t65 -5t76.5 -2t92 -0.5h571q125 0 186.5 14.5t81 42.5t19.5 85v357h145v-357v-43v-45.5t5.5 -29t9 -17.5t20 -7.5t28.5 -2.5t45 2t59 1q90 0 154 -64t64 -154t-64 -154t-154 -64
q-84 0 -148 51.5t-104 143.5q-111 -195 -347 -195h-571q-269 0 -392 127.5t-127 417.5v8v11q6 191 102 359zM474 1135l205 204l168 -168l168 167l204 -204l-205 -205l-168 169l-168 -168z" />
    <glyph glyph-name="uni062B.init" unicode="&#x62b;" horiz-adv-x="643" arabic-form="initial" 
d="M-9 19q-90 0 -154 64t-64 154t64 154t154 64h86h52t41 1.5t33.5 2t23.5 6.5t18.5 8.5t11 14t8 18t2.5 26t2 32v40.5v289h146v-289q0 -107 -9 -191t-32.5 -160t-61 -126t-97 -79t-138.5 -29h-86zM-48 1178l205 204l169 -168l168 167l204 -204l-205 -205l-169 169
l-168 -168zM120 1482l206 204l204 -204l-206 -205z" />
    <glyph glyph-name="uni062B.medi" unicode="&#x62b;" horiz-adv-x="679" arabic-form="medial" 
d="M407 605q0 -113 35 -131.5t246 -18.5q90 0 154 -64t64 -154t-64 -154t-154 -64q-278 0 -373 234q-102 -234 -276 -234h-48q-90 0 -154 64t-64 154t64 154t154 64h48h48.5t39.5 1t34.5 3.5t26.5 7t23.5 11.5t17 17t14.5 24t9 32t9 41v13h2q8 63 18 227h147
q-8 -130 -22 -227h1zM17 1085l187 186l154 -154l153 153l186 -186l-187 -187l-153 154l-154 -153zM170 1362l188 186l186 -186l-187 -186z" />
    <glyph glyph-name="uni062B.fina" unicode="&#x62b;" horiz-adv-x="1736" arabic-form="final" 
d="M285 870q-80 -139 -83 -294q1 -22 6 -38.5t17.5 -29t26.5 -21.5t40.5 -15t50 -9.5t65 -5t76.5 -2t92 -0.5h571q125 0 186.5 14.5t81 42.5t19.5 85v357h145v-357v-43v-45.5t5.5 -29t9 -17.5t20 -7.5t28.5 -2.5t45 2t59 1q90 0 154 -64t64 -154t-64 -154t-154 -64
q-84 0 -148 51.5t-104 143.5q-111 -195 -347 -195h-571q-269 0 -392 127.5t-127 417.5v8v11q6 191 102 359zM475 1145l205 204l169 -168l168 167l204 -204l-205 -204l-169 168l-168 -168zM643 1449l206 204l204 -204l-206 -205z" />
    <glyph glyph-name="uni062C.init" unicode="&#x62c;" horiz-adv-x="1246" arabic-form="initial" 
d="M1194 441q-107 -88 -207 -156.5t-176 -112.5t-157 -75t-132 -46t-121 -22.5t-103 -8.5t-98 -1h-28h-181q-90 0 -154 64t-64 154t64 154t154 64h181q90 0 156.5 3.5t173 17t216 47.5t215.5 87q-132 36 -351 144q-87 44 -178 49.5t-170.5 -20t-155.5 -77.5v234
q94 50 181 70t185 6.5t202 -65.5q163 -80 275.5 -115t272.5 -50v-345zM401 -295l205 204l204 -204l-205 -205z" />
    <glyph glyph-name="uni062C.medi" unicode="&#x62c;" horiz-adv-x="1355" arabic-form="medial" 
d="M1194 466q68 -11 149 -11h22q90 0 154 -64t64 -154t-64 -154t-154 -64h-22q-76 0 -135 13t-110 43.5t-91 65t-94 92.5q-97 -62 -188.5 -105t-155 -64t-141 -32t-115.5 -12t-111 -1h-30h-181q-90 0 -154 64t-64 154t64 154t154 64h181q90 0 156.5 3.5t173 17t216 47.5
t215.5 87q-132 36 -351 144q-87 44 -178 49.5t-170.5 -20t-155.5 -77.5v234q94 50 181 70t185 6.5t202 -65.5q163 -80 275.5 -115t272.5 -50v-320zM428 -240l204 204l204 -204l-204 -205z" />
    <glyph glyph-name="uni062C.fina" unicode="&#x62c;" horiz-adv-x="1413" arabic-form="final" 
d="M1275 850v-386q59 -9 121 -9h26q90 0 154 -64t64 -154t-64 -154t-154 -64h-26q-306 0 -475 318q-171 -40 -298.5 -82.5t-208.5 -82.5t-129.5 -84.5t-67 -87t-15.5 -90.5q5 -56 35.5 -103.5t96 -90.5t169 -64t255.5 -24.5t355 27.5v-291q-222 -32 -393 -18t-294 58
t-203.5 121t-120.5 172t-45 211q-4 151 39 278.5t139 238t260 196t391 141.5q-40 21 -121.5 69t-107.5 62q-61 35 -132 44t-138 -5t-125.5 -38.5t-110.5 -58.5v233q93 49 176.5 72.5t191.5 13.5t210 -69q27 -15 97 -55.5t92.5 -53t77 -39t88 -36.5t84.5 -22t106 -17l-1 -12
h2zM609 -87l204 204l204 -204l-204 -205z" />
    <glyph glyph-name="uni062D.init" unicode="&#x62d;" horiz-adv-x="1246" arabic-form="initial" 
d="M1194 441q-107 -88 -207 -156.5t-176 -112.5t-157 -75t-132 -46t-121 -22.5t-103 -8.5t-98 -1h-28h-181q-90 0 -154 64t-64 154t64 154t154 64h181q90 0 156.5 3.5t173 17t216 47.5t215.5 87q-132 36 -351 144q-87 44 -178 49.5t-170.5 -20t-155.5 -77.5v234
q94 50 181 70t185 6.5t202 -65.5q163 -80 275.5 -115t272.5 -50v-345z" />
    <glyph glyph-name="uni062D.medi" unicode="&#x62d;" horiz-adv-x="1355" arabic-form="medial" 
d="M1194 466q68 -11 149 -11h22q90 0 154 -64t64 -154t-64 -154t-154 -64h-22q-76 0 -135 13t-110 43.5t-91 65t-94 92.5q-97 -62 -188.5 -105t-155 -64t-141 -32t-115.5 -12t-111 -1h-30h-181q-90 0 -154 64t-64 154t64 154t154 64h181q90 0 156.5 3.5t173 17t216 47.5
t215.5 87q-132 36 -351 144q-87 44 -178 49.5t-170.5 -20t-155.5 -77.5v234q94 50 181 70t185 6.5t202 -65.5q163 -80 275.5 -115t272.5 -50v-320z" />
    <glyph glyph-name="uni062D.fina" unicode="&#x62d;" horiz-adv-x="1413" arabic-form="final" 
d="M1275 850v-386q59 -9 121 -9h26q90 0 154 -64t64 -154t-64 -154t-154 -64h-26q-306 0 -475 318q-171 -40 -298.5 -82.5t-208.5 -82.5t-129.5 -84.5t-67 -87t-15.5 -90.5q5 -56 35.5 -103.5t96 -90.5t169 -64t255.5 -24.5t355 27.5v-291q-222 -32 -393 -18t-294 58
t-203.5 121t-120.5 172t-45 211q-4 151 39 278.5t139 238t260 196t391 141.5q-40 21 -121.5 69t-107.5 62q-61 35 -132 44t-138 -5t-125.5 -38.5t-110.5 -58.5v233q93 49 176.5 72.5t191.5 13.5t210 -69q27 -15 97 -55.5t92.5 -53t77 -39t88 -36.5t84.5 -22t106 -17l-1 -12
h2z" />
    <glyph glyph-name="uni062E.init" unicode="&#x62e;" horiz-adv-x="1246" arabic-form="initial" 
d="M1194 441q-107 -88 -207 -156.5t-176 -112.5t-157 -75t-132 -46t-121 -22.5t-103 -8.5t-98 -1h-28h-181q-90 0 -154 64t-64 154t64 154t154 64h181q90 0 156.5 3.5t173 17t216 47.5t215.5 87q-132 36 -351 144q-87 44 -178 49.5t-170.5 -20t-155.5 -77.5v234
q94 50 181 70t185 6.5t202 -65.5q163 -80 275.5 -115t272.5 -50v-345zM191 1325l205 204l204 -204l-205 -205z" />
    <glyph glyph-name="uni062E.medi" unicode="&#x62e;" horiz-adv-x="1355" arabic-form="medial" 
d="M1194 466q68 -11 149 -11h22q90 0 154 -64t64 -154t-64 -154t-154 -64h-22q-76 0 -135 13t-110 43.5t-91 65t-94 92.5q-97 -62 -188.5 -105t-155 -64t-141 -32t-115.5 -12t-111 -1h-30h-181q-90 0 -154 64t-64 154t64 154t154 64h181q90 0 156.5 3.5t173 17t216 47.5
t215.5 87q-132 36 -351 144q-87 44 -178 49.5t-170.5 -20t-155.5 -77.5v234q94 50 181 70t185 6.5t202 -65.5q163 -80 275.5 -115t272.5 -50v-320zM242 1377l204 204l204 -204l-204 -205z" />
    <glyph glyph-name="uni062E.fina" unicode="&#x62e;" horiz-adv-x="1413" arabic-form="final" 
d="M1275 850v-386q59 -9 121 -9h26q90 0 154 -64t64 -154t-64 -154t-154 -64h-26q-306 0 -475 318q-171 -40 -298.5 -82.5t-208.5 -82.5t-129.5 -84.5t-67 -87t-15.5 -90.5q5 -56 35.5 -103.5t96 -90.5t169 -64t255.5 -24.5t355 27.5v-291q-222 -32 -393 -18t-294 58
t-203.5 121t-120.5 172t-45 211q-4 151 39 278.5t139 238t260 196t391 141.5q-40 21 -121.5 69t-107.5 62q-61 35 -132 44t-138 -5t-125.5 -38.5t-110.5 -58.5v233q93 49 176.5 72.5t191.5 13.5t210 -69q27 -15 97 -55.5t92.5 -53t77 -39t88 -36.5t84.5 -22t106 -17l-1 -12
h2zM259 1509l205 204l204 -204l-205 -205z" />
    <glyph glyph-name="uni062F.fina" unicode="&#x62f;" horiz-adv-x="1002" arabic-form="final" 
d="M852 531q0 -42 -2 -62q51 -14 140 -14h22q90 0 154 -64t64 -154t-64 -154t-154 -64h-22q-146 0 -241 137q-106 -137 -318 -137h-387v436h387q117 0 177.5 9t78.5 23.5t19 43.5v6q0 87 -61 135t-168 57t-253 -6v290q146 15 259.5 -4t197 -74t127.5 -155.5t44 -242.5v-6z
" />
    <glyph glyph-name="uni0630.fina" unicode="&#x630;" horiz-adv-x="1002" arabic-form="final" 
d="M852 531q0 -42 -2 -62q51 -14 140 -14h22q90 0 154 -64t64 -154t-64 -154t-154 -64h-22q-146 0 -241 137q-106 -137 -318 -137h-387v436h387q117 0 177.5 9t78.5 23.5t19 43.5v6q0 87 -61 135t-168 57t-253 -6v290q146 15 259.5 -4t197 -74t127.5 -155.5t44 -242.5v-6z
M206 1326l205 204l204 -204l-205 -205z" />
    <glyph glyph-name="uni0631.fina" unicode="&#x631;" horiz-adv-x="728" arabic-form="final" 
d="M0 -97q71 0 118 1.5t89.5 10.5t66 18t44 33.5t29 46.5t14.5 68.5t7 87.5t1 115v588h145v-267v-50t4 -36t6 -28t15.5 -17t22 -11.5t36.5 -4.5t47 -3h65h4h22q90 0 154 -64t64 -154t-64 -154t-154 -64h-22q-130 0 -206 69q-8 -109 -26.5 -193.5t-56 -160t-93 -125
t-139.5 -78t-193 -28.5v400z" />
    <glyph glyph-name="uni0632.fina" unicode="&#x632;" horiz-adv-x="728" arabic-form="final" 
d="M0 -97q71 0 118 1.5t89.5 10.5t66 18t44 33.5t29 46.5t14.5 68.5t7 87.5t1 115v588h145v-267v-50t4 -36t6 -28t15.5 -17t22 -11.5t36.5 -4.5t47 -3h65h4h22q90 0 154 -64t64 -154t-64 -154t-154 -64h-22q-130 0 -206 69q-8 -109 -26.5 -193.5t-56 -160t-93 -125
t-139.5 -78t-193 -28.5v400zM247 1171l205 204l204 -204l-205 -204z" />
    <glyph glyph-name="uni0633.init" unicode="&#x633;" horiz-adv-x="1555" arabic-form="initial" 
d="M-9 19q-90 0 -154 64t-64 154t64 154t154 64h19q55 0 88 3t62.5 16.5t44.5 33t27.5 59.5t18.5 89.5t11 129.5h148q-10 -156 -36 -296q48 -32 118.5 -43.5t134 -2.5t110 40t50.5 77l19 224h149l-24 -265l-1 -14q69 -51 195 -51h5q105 0 151.5 7.5t59 22t12.5 48.5v297h146
v-297q0 -80 -11.5 -151.5t-39 -139t-68.5 -116t-105.5 -78t-144.5 -29.5h-5q-78 0 -140.5 40.5t-149.5 132.5q-36 -64 -81 -108.5t-100.5 -66t-115.5 -13.5t-129 55t-137 132q-100 -172 -262 -172h-19z" />
    <glyph glyph-name="uni0633.medi" unicode="&#x633;" horiz-adv-x="1703" arabic-form="medial" 
d="M1713 455q90 0 154 -64t64 -154t-64 -154t-154 -64h-50q-157 0 -241 169q-94 -169 -292 -169h-5q-78 0 -140.5 40.5t-149.5 132.5q-36 -64 -81 -108.5t-100.5 -66t-115.5 -13.5t-129 55t-137 132q-100 -172 -262 -172h-19q-90 0 -154 64t-64 154t64 154t154 64h19
q55 0 88 3t62.5 16.5t44.5 33t27.5 59.5t18.5 89.5t11 129.5h148q-10 -156 -36 -296q48 -32 118.5 -43.5t134 -2.5t110 40t50.5 77l19 224h149l-24 -265l-1 -14q69 -51 195 -51h5q103 0 149.5 7t59.5 21t14 47v6v294h146v-275h1l-1 -27v-11q0 -24 3.5 -37t8 -20.5t19.5 -9
t29 -0.5t45 3t59 2h50z" />
    <glyph glyph-name="uni0633.fina" unicode="&#x633;" horiz-adv-x="2464" arabic-form="final" 
d="M2473 455q90 0 154 -64t64 -154t-64 -154t-154 -64q-100 0 -181 51t-133 148q-45 -93 -115.5 -146t-165.5 -53h-38q-75 0 -136.5 38t-142.5 123q-42 -67 -94.5 -107.5t-110.5 -51t-121 17t-121 92.5q-38 -245 -175 -379t-357 -134q-123 0 -222 52.5t-163 145t-100 214.5
t-40 266v18v20q11 297 190 504l109 -95q-148 -171 -154 -425q5 -139 91 -201.5t289 -62.5q75 0 131.5 6t109 23.5t86 46.5t53.5 76.5t20 112.5v553h146v-371q31 -52 123 -70t175.5 12.5t90.5 102.5l20 226h147l-23 -263v-13q64 -41 179 -41h38q94 0 133.5 6t53 21t13.5 51
v386h146v-327q0 -25 5 -45.5t14 -34.5t22 -24.5t28.5 -16t34 -9.5t38.5 -5t41.5 -2t42.5 0h23z" />
    <glyph glyph-name="uni0634.init" unicode="&#x634;" horiz-adv-x="1555" arabic-form="initial" 
d="M-9 19q-90 0 -154 64t-64 154t64 154t154 64h19q55 0 88 3t62.5 16.5t44.5 33t27.5 59.5t18.5 89.5t11 129.5h148q-10 -156 -36 -296q48 -32 118.5 -43.5t134 -2.5t110 40t50.5 77l19 224h149l-24 -265l-1 -14q69 -51 195 -51h5q105 0 151.5 7.5t59 22t12.5 48.5v297h146
v-297q0 -80 -11.5 -151.5t-39 -139t-68.5 -116t-105.5 -78t-144.5 -29.5h-5q-78 0 -140.5 40.5t-149.5 132.5q-36 -64 -81 -108.5t-100.5 -66t-115.5 -13.5t-129 55t-137 132q-100 -172 -262 -172h-19zM521 1145l205 204l169 -168l168 167l203 -204l-204 -204l-169 168
l-168 -168zM689 1449l206 204l204 -204l-206 -205z" />
    <glyph glyph-name="uni0634.medi" unicode="&#x634;" horiz-adv-x="1703" arabic-form="medial" 
d="M1713 455q90 0 154 -64t64 -154t-64 -154t-154 -64h-50q-157 0 -241 169q-94 -169 -292 -169h-5q-78 0 -140.5 40.5t-149.5 132.5q-36 -64 -81 -108.5t-100.5 -66t-115.5 -13.5t-129 55t-137 132q-100 -172 -262 -172h-19q-90 0 -154 64t-64 154t64 154t154 64h19
q55 0 88 3t62.5 16.5t44.5 33t27.5 59.5t18.5 89.5t11 129.5h148q-10 -156 -36 -296q48 -32 118.5 -43.5t134 -2.5t110 40t50.5 77l19 224h149l-24 -265l-1 -14q69 -51 195 -51h5q103 0 149.5 7t59.5 21t14 47v6v294h146v-275h1l-1 -27v-11q0 -24 3.5 -37t8 -20.5t19.5 -9
t29 -0.5t45 3t59 2h50zM521 1145l205 204l169 -168l168 167l203 -204l-204 -204l-169 168l-168 -168zM689 1449l206 204l204 -204l-206 -205z" />
    <glyph glyph-name="uni0634.fina" unicode="&#x634;" horiz-adv-x="2464" arabic-form="final" 
d="M2473 455q90 0 154 -64t64 -154t-64 -154t-154 -64q-100 0 -181 51t-133 148q-45 -93 -115.5 -146t-165.5 -53h-38q-75 0 -136.5 38t-142.5 123q-42 -67 -94.5 -107.5t-110.5 -51t-121 17t-121 92.5q-38 -245 -175 -379t-357 -134q-123 0 -222 52.5t-163 145t-100 214.5
t-40 266v18v20q11 297 190 504l109 -95q-148 -171 -154 -425q5 -139 91 -201.5t289 -62.5q75 0 131.5 6t109 23.5t86 46.5t53.5 76.5t20 112.5v553h146v-371q31 -52 123 -70t175.5 12.5t90.5 102.5l20 226h147l-23 -263v-13q64 -41 179 -41h38q94 0 133.5 6t53 21t13.5 51
v386h146v-327q0 -25 5 -45.5t14 -34.5t22 -24.5t28.5 -16t34 -9.5t38.5 -5t41.5 -2t42.5 0h23zM1236 1145l205 204l169 -168l168 167l204 -204l-205 -204l-169 168l-168 -168zM1404 1449l206 204l204 -204l-206 -205z" />
    <glyph glyph-name="uni0635.init" unicode="&#x635;" horiz-adv-x="1727" arabic-form="initial" 
d="M-9 19q-90 0 -154 64t-64 154t64 154t154 64h34q141 0 194.5 36.5t53.5 108.5v272h146v-272q0 -32 -3 -63q95 99 196.5 176.5t197 127t190.5 80.5t179 36t160 -6t136 -45t104.5 -82.5t68 -116t23.5 -147.5v-13q0 -76 -13 -148.5t-44.5 -142t-78 -121.5t-119 -84
t-161.5 -32h-168q-135 0 -213 2.5t-169.5 11.5t-151.5 28t-122.5 52.5t-119.5 83.5q-113 -178 -286 -178h-34zM616 478q183 -23 471 -23h168q116 0 177 12.5t77 30t16 49.5v13q0 76 -50.5 128t-141 67t-202.5 -3.5t-248.5 -89t-266.5 -184.5z" />
    <glyph glyph-name="uni0635.medi" unicode="&#x635;" horiz-adv-x="1767" arabic-form="medial" 
d="M-9 19q-90 0 -154 64t-64 154t64 154t154 64h34q141 0 194.5 36.5t53.5 108.5v272h146v-272q0 -32 -3 -63q95 99 196.5 176.5t197 127t190.5 80.5t179 36t160 -6t136 -45t104.5 -82.5t68 -116t23.5 -147.5v-13q0 -40 -5 -92h110q90 0 154 -64t64 -154t-64 -154t-154 -64
h-487v1q-11 -1 -34 -1h-168q-135 0 -213 2.5t-169.5 11.5t-151.5 28t-122.5 52.5t-119.5 83.5q-113 -178 -286 -178h-34zM616 478q183 -23 471 -23h168q116 0 177 12.5t77 30t16 49.5v13q0 76 -50.5 128t-141 67t-202.5 -3.5t-248.5 -89t-266.5 -184.5z" />
    <glyph glyph-name="uni0635.fina" unicode="&#x635;" horiz-adv-x="2420" arabic-form="final" 
d="M2327 532q0 -38 -3 -77h106q90 0 154 -64t64 -154t-64 -154t-154 -64l-464 1q-7 -1 -20 -1h-203q-222 0 -363 42.5t-259 128.5q-27 -271 -166.5 -421.5t-372.5 -150.5q-123 0 -222 52.5t-163 145t-100 214.5t-40 266v18v20q11 297 190 504l109 -95q-148 -171 -154 -425
q5 -139 91 -201.5t289 -62.5q75 0 131.5 6t109 23.5t86 46.5t53.5 76.5t20 112.5v553h146v-255q106 105 217.5 181t214 116.5t202 55.5t183 2.5t155 -48t121.5 -90t78 -129t28 -161.5v-12zM1286 518q189 -63 457 -63h203q118 0 165 6.5t59 20t12 50.5v12q0 56 -26 102.5
t-74 77t-111.5 46.5t-144.5 8.5t-167 -35t-183 -85t-190 -140.5z" />
    <glyph glyph-name="uni0636.init" unicode="&#x636;" horiz-adv-x="1727" arabic-form="initial" 
d="M-9 19q-90 0 -154 64t-64 154t64 154t154 64h34q141 0 194.5 36.5t53.5 108.5v272h146v-272q0 -32 -3 -63q95 99 196.5 176.5t197 127t190.5 80.5t179 36t160 -6t136 -45t104.5 -82.5t68 -116t23.5 -147.5v-13q0 -76 -13 -148.5t-44.5 -142t-78 -121.5t-119 -84
t-161.5 -32h-168q-135 0 -213 2.5t-169.5 11.5t-151.5 28t-122.5 52.5t-119.5 83.5q-113 -178 -286 -178h-34zM395 1247l205 204l204 -204l-205 -205zM616 478q183 -23 471 -23h168q116 0 177 12.5t77 30t16 49.5v13q0 76 -50.5 128t-141 67t-202.5 -3.5t-248.5 -89
t-266.5 -184.5z" />
    <glyph glyph-name="uni0636.medi" unicode="&#x636;" horiz-adv-x="1767" arabic-form="medial" 
d="M-9 19q-90 0 -154 64t-64 154t64 154t154 64h34q141 0 194.5 36.5t53.5 108.5v272h146v-272q0 -32 -3 -63q95 99 196.5 176.5t197 127t190.5 80.5t179 36t160 -6t136 -45t104.5 -82.5t68 -116t23.5 -147.5v-13q0 -40 -5 -92h110q90 0 154 -64t64 -154t-64 -154t-154 -64
h-487v1q-11 -1 -34 -1h-168q-135 0 -213 2.5t-169.5 11.5t-151.5 28t-122.5 52.5t-119.5 83.5q-113 -178 -286 -178h-34zM395 1247l205 204l204 -204l-205 -205zM616 478q183 -23 471 -23h168q116 0 177 12.5t77 30t16 49.5v13q0 76 -50.5 128t-141 67t-202.5 -3.5
t-248.5 -89t-266.5 -184.5z" />
    <glyph glyph-name="uni0636.fina" unicode="&#x636;" horiz-adv-x="2420" arabic-form="final" 
d="M2327 532q0 -38 -3 -77h106q90 0 154 -64t64 -154t-64 -154t-154 -64l-464 1q-7 -1 -20 -1h-203q-222 0 -363 42.5t-259 128.5q-27 -271 -166.5 -421.5t-372.5 -150.5q-123 0 -222 52.5t-163 145t-100 214.5t-40 266v18v20q11 297 190 504l109 -95q-148 -171 -154 -425
q5 -139 91 -201.5t289 -62.5q75 0 131.5 6t109 23.5t86 46.5t53.5 76.5t20 112.5v553h146v-255q106 105 217.5 181t214 116.5t202 55.5t183 2.5t155 -48t121.5 -90t78 -129t28 -161.5v-12zM1225 1275l205 204l203 -204l-204 -204zM1286 518q189 -63 457 -63h203
q118 0 165 6.5t59 20t12 50.5v12q0 56 -26 102.5t-74 77t-111.5 46.5t-144.5 8.5t-167 -35t-183 -85t-190 -140.5z" />
    <glyph glyph-name="uni0637.init" unicode="&#x637;" horiz-adv-x="1411" arabic-form="initial" 
d="M1356 549q0 -76 -13 -148.5t-45 -142.5t-78.5 -122.5t-119.5 -84.5t-163 -32h-946q-90 0 -154 64t-64 154t64 154t154 64h106v1115h145v-979q81 89 169 158.5t172 112t168 67.5t159.5 26.5t144 -12t123 -48t95 -81.5t62 -112t21.5 -141v-12zM355 455h582q89 0 145.5 6
t83.5 20t35.5 29t8.5 39v12q0 108 -100 163q-112 62 -285 23q-227 -51 -432 -253z" />
    <glyph glyph-name="uni0637.medi" unicode="&#x637;" horiz-adv-x="1473" arabic-form="medial" 
d="M1014 19v6q-36 -6 -77 -6h-946q-90 0 -154 64t-64 154t64 154t154 64h106v1115h145v-979q81 89 169 158.5t172 112t168 67.5t159.5 26.5t144 -12t123 -48t95 -81.5t62 -112t21.5 -141v-12q0 -46 -6 -94h133q90 0 154 -64t64 -154t-64 -154t-154 -64h-469zM355 455h582
q89 0 145.5 6t83.5 20t35.5 29t8.5 39v12q0 108 -100 163q-112 62 -285 23q-227 -51 -432 -253z" />
    <glyph glyph-name="uni0637.fina" unicode="&#x637;" horiz-adv-x="1690" arabic-form="final" 
d="M1531 19q-55 0 -103 26.5t-78 70.5q-105 -97 -262 -97h-1038v436h197v1115h145v-979q81 89 169 158.5t172 112t168 67.5t159.5 26.5t144 -12t123 -48t95 -81.5t62 -112t21.5 -141v-12q0 -47 -6 -97q15 3 31 3h168q90 0 154 -64t64 -154t-64 -154t-154 -64h-168zM505 455
h583q89 0 145 6t83 19.5t35.5 28.5t8.5 40v12q0 108 -100 163q-112 62 -285 23q-227 -51 -432 -253z" />
    <glyph glyph-name="uni0638.init" unicode="&#x638;" horiz-adv-x="1411" arabic-form="initial" 
d="M1356 549q0 -76 -13 -148.5t-45 -142.5t-78.5 -122.5t-119.5 -84.5t-163 -32h-946q-90 0 -154 64t-64 154t64 154t154 64h106v1115h145v-979q81 89 169 158.5t172 112t168 67.5t159.5 26.5t144 -12t123 -48t95 -81.5t62 -112t21.5 -141v-12zM355 455h582q89 0 145.5 6
t83.5 20t35.5 29t8.5 39v12q0 108 -100 163q-112 62 -285 23q-227 -51 -432 -253zM439 1326l205 204l204 -204l-205 -205z" />
    <glyph glyph-name="uni0638.medi" unicode="&#x638;" horiz-adv-x="1473" arabic-form="medial" 
d="M1014 19v6q-36 -6 -77 -6h-946q-90 0 -154 64t-64 154t64 154t154 64h106v1115h145v-979q81 89 169 158.5t172 112t168 67.5t159.5 26.5t144 -12t123 -48t95 -81.5t62 -112t21.5 -141v-12q0 -46 -6 -94h133q90 0 154 -64t64 -154t-64 -154t-154 -64h-469zM355 455h582
q89 0 145.5 6t83.5 20t35.5 29t8.5 39v12q0 108 -100 163q-112 62 -285 23q-227 -51 -432 -253zM459 1326l205 204l204 -204l-205 -205z" />
    <glyph glyph-name="uni0638.fina" unicode="&#x638;" horiz-adv-x="1690" arabic-form="final" 
d="M1531 19q-55 0 -103 26.5t-78 70.5q-105 -97 -262 -97h-1038v436h197v1115h145v-979q81 89 169 158.5t172 112t168 67.5t159.5 26.5t144 -12t123 -48t95 -81.5t62 -112t21.5 -141v-12q0 -47 -6 -97q15 3 31 3h168q90 0 154 -64t64 -154t-64 -154t-154 -64h-168zM505 455
h583q89 0 145 6t83 19.5t35.5 28.5t8.5 40v12q0 108 -100 163q-112 62 -285 23q-227 -51 -432 -253zM620 1326l205 204l204 -204l-205 -205z" />
    <glyph glyph-name="uni0639.init" unicode="&#x639;" horiz-adv-x="992" arabic-form="initial" 
d="M-20 19q-90 0 -154 64t-64 154t64 154t154 64h120q-35 112 -17 213q21 119 82.5 200t156.5 119t221 44t276 -24v-291q-179 36 -308.5 29.5t-203 -41t-82.5 -87.5q-17 -96 78 -162h640v-436h-963z" />
    <glyph glyph-name="uni0639.medi" unicode="&#x639;" horiz-adv-x="1114" arabic-form="medial" 
d="M-9 19q-90 0 -154 64t-64 154t64 154t154 64h195q65 0 125 9q-111 106 -249 285l5 5h-10v290l995 -2v-290h-8l4 -3q-85 -153 -233 -285q90 -9 197 -9h111q90 0 154 -64t64 -154t-64 -154t-154 -64h-111q-161 0 -243 20t-225 102q-115 -73 -185 -97.5t-173 -24.5h-195z
M282 754q149 -170 269 -221q73 24 153 85t143 135z" />
    <glyph glyph-name="uni0639.fina" unicode="&#x639;" horiz-adv-x="1234" arabic-form="final" 
d="M612 531q10 -5 39 -17q105 58 173 114.5t104 128.5l-611 2q43 -62 110 -114.5t185 -113.5zM60 -181v5q-3 92 16.5 170t58.5 139t86.5 108t110.5 91q-120 154 -234 422l4 5h-9v290l1010 -3v-290h-34l28 -18q-36 -162 -121 -280q54 -3 113 -3h155q90 0 153.5 -64t63.5 -154
t-63.5 -154t-153.5 -64h-155q-163 0 -279 24.5t-252 94.5q-18 -9 -61 -29.5t-61 -29.5t-53.5 -27.5t-51 -29.5t-41 -29.5t-37 -33.5t-25 -34.5t-18 -40.5t-4.5 -44q2 -48 29 -88.5t93.5 -75t166.5 -52t260 -15t362 30.5v-327q-1022 -137 -1057 506z" />
    <glyph glyph-name="uni063A.init" unicode="&#x63a;" horiz-adv-x="992" arabic-form="initial" 
d="M-20 19q-90 0 -154 64t-64 154t64 154t154 64h120q-35 112 -17 213q21 119 82.5 200t156.5 119t221 44t276 -24v-291q-179 36 -308.5 29.5t-203 -41t-82.5 -87.5q-17 -96 78 -162h640v-436h-963zM308 1345l205 204l204 -204l-205 -205z" />
    <glyph glyph-name="uni063A.medi" unicode="&#x63a;" horiz-adv-x="1114" arabic-form="medial" 
d="M-9 19q-90 0 -154 64t-64 154t64 154t154 64h195q65 0 125 9q-111 106 -249 285l5 5h-10v290l995 -2v-290h-8l4 -3q-85 -153 -233 -285q90 -9 197 -9h111q90 0 154 -64t64 -154t-64 -154t-154 -64h-111q-161 0 -243 20t-225 102q-115 -73 -185 -97.5t-173 -24.5h-195z
M282 754q149 -170 269 -221q73 24 153 85t143 135zM329 1348l205 204l204 -204l-205 -204z" />
    <glyph glyph-name="uni063A.fina" unicode="&#x63a;" horiz-adv-x="1234" arabic-form="final" 
d="M612 531q10 -5 39 -17q105 58 173 114.5t104 128.5l-611 2q43 -62 110 -114.5t185 -113.5zM60 -181v5q-3 92 16.5 170t58.5 139t86.5 108t110.5 91q-120 154 -234 422l4 5h-9v290l1010 -3v-290h-34l28 -18q-36 -162 -121 -280q54 -3 113 -3h155q90 0 153.5 -64t63.5 -154
t-63.5 -154t-153.5 -64h-155q-163 0 -279 24.5t-252 94.5q-18 -9 -61 -29.5t-61 -29.5t-53.5 -27.5t-51 -29.5t-41 -29.5t-37 -33.5t-25 -34.5t-18 -40.5t-4.5 -44q2 -48 29 -88.5t93.5 -75t166.5 -52t260 -15t362 30.5v-327q-1022 -137 -1057 506zM370 1360l205 204
l204 -204l-205 -205z" />
    <glyph glyph-name="uni0641.init" unicode="&#x641;" horiz-adv-x="892" arabic-form="initial" 
d="M836 605q0 -301 -81 -443.5t-264 -142.5h-500q-90 0 -154 64t-64 154t64 154t154 64h500h60.5t45.5 2t36 4t23.5 8t17.5 13t8.5 20t6.5 27t1 37h-260q-104 0 -175 21.5t-113 67t-60 108t-19 151.5v3v14q6 154 110.5 260t263.5 106q111 0 203.5 -73.5t144 -193
t51.5 -255.5v-170zM209 917q1 -14 3 -22.5t11.5 -16t22 -10.5t40.5 -5.5t59 -3t85 -0.5h250q-20 81 -81.5 128.5t-161.5 47.5q-111 0 -168.5 -33.5t-59.5 -84.5zM240 1608l205 204l204 -204l-205 -205z" />
    <glyph glyph-name="uni0641.medi" unicode="&#x641;" horiz-adv-x="892" arabic-form="medial" 
d="M75 637q0 81 25 161.5t70.5 147t117.5 107.5t158 41q85 0 156.5 -40.5t117.5 -107t71.5 -147.5t26.5 -166v-32q0 -69 -12 -146h95q90 0 154 -64t64 -154t-64 -154t-154 -64h-156q-170 0 -296 37q-126 -37 -293 -37h-165q-90 0 -154 64t-64 154t64 154t154 64h96
q-12 66 -12 142v40zM220 601q0 -42 61 -74t169 -51q222 39 222 125v25q0 178 -226 178q-123 0 -174.5 -47t-51.5 -120v-36zM242 1416l205 204l204 -204l-205 -204z" />
    <glyph glyph-name="uni0641.fina" unicode="&#x641;" horiz-adv-x="2036" arabic-form="final" 
d="M285 870q-80 -139 -83 -294q1 -22 6 -38.5t17.5 -29t26.5 -21.5t40.5 -15t50 -9.5t65 -5t76.5 -2t92 -0.5h655q-12 65 -12 142v40q0 82 25 163t70.5 147.5t117.5 108t158 41.5t157.5 -41t116.5 -108t70.5 -148.5t26.5 -166.5v-32q0 -79 -12 -146h96q90 0 154 -64t64 -154
t-64 -154t-154 -64h-157q-163 0 -295 38q-128 -38 -292 -38h-725q-269 0 -392 127.5t-127 417.5v8v11q6 191 102 359zM1365 601q0 -83 229 -124q221 41 221 124v25q0 83 -50 131.5t-175 48.5q-225 0 -225 -169v-36zM1389 1403l205 204l204 -204l-205 -205z" />
    <glyph glyph-name="uni0642.init" unicode="&#x642;" horiz-adv-x="892" arabic-form="initial" 
d="M836 605q0 -301 -81 -443.5t-264 -142.5h-500q-90 0 -154 64t-64 154t64 154t154 64h500h60.5t45.5 2t36 4t23.5 8t17.5 13t8.5 20t6.5 27t1 37h-260q-104 0 -175 21.5t-113 67t-60 108t-19 151.5v3v14q6 154 110.5 260t263.5 106q111 0 203.5 -73.5t144 -193
t51.5 -255.5v-170zM75 1571l204 204l168 -168l168 167l204 -204l-205 -204l-168 168l-167 -168zM209 917q1 -14 3 -22.5t11.5 -16t22 -10.5t40.5 -5.5t59 -3t85 -0.5h250q-20 81 -81.5 128.5t-161.5 47.5q-111 0 -168.5 -33.5t-59.5 -84.5z" />
    <glyph glyph-name="uni0642.medi" unicode="&#x642;" horiz-adv-x="892" arabic-form="medial" 
d="M75 637q0 81 25 161.5t70.5 147t117.5 107.5t158 41q85 0 156.5 -40.5t117.5 -107t71.5 -147.5t26.5 -166v-32q0 -69 -12 -146h95q90 0 154 -64t64 -154t-64 -154t-154 -64h-156q-170 0 -296 37q-126 -37 -293 -37h-165q-90 0 -154 64t-64 154t64 154t154 64h96
q-12 66 -12 142v40zM77 1380l205 204l168 -168l168 167l204 -204l-205 -205l-168 169l-168 -168zM220 601q0 -42 61 -74t169 -51q222 39 222 125v25q0 178 -226 178q-123 0 -174.5 -47t-51.5 -120v-36z" />
    <glyph glyph-name="uni0642.fina" unicode="&#x642;" horiz-adv-x="1317" arabic-form="final" 
d="M351 546q-148 -171 -154 -426q5 -139 90 -201t289 -62q210 0 314.5 18.5t143.5 58t45 120.5h-259q-89 0 -157 26.5t-109.5 72t-66 109.5t-31.5 133.5t-1 150.5q14 171 123.5 287.5t241.5 116.5q64 0 127.5 -31t119 -90t96.5 -156t56 -218h107q90 0 154 -64t64 -154
t-64 -154t-154 -64h-103q-5 -93 -22 -169.5t-49 -145t-82 -119.5t-119 -88.5t-163.5 -56.5t-211.5 -19q-164 0 -282.5 91.5t-177 242t-64.5 343.5h-1v18q0 14 1 21q11 299 189 504zM459 1225l205 204l167 -168l168 167l204 -204l-204 -205l-168 169l-168 -168zM598 497
q-1 -37 15 -52t59 -20.5t148 -5.5h254q-34 240 -254 240q-96 0 -158 -45.5t-62 -110.5v-6h-2z" />
    <glyph glyph-name="uni0643.init" unicode="&#x643;" horiz-adv-x="1179" arabic-form="initial" 
d="M1132 1581v-226l-787 -324l275 -98q363 -135 374 -398v-12v-6q-1 -78 -8 -138.5t-25 -119.5t-50.5 -100.5t-81 -74.5t-119 -49t-162.5 -16h-557q-90 0 -154 64t-64 154t64 154t154 64h557q214 0 256.5 8.5t43.5 55.5q-4 39 -277 140l-511 183v292h1v7z" />
    <glyph glyph-name="uni0643.medi" unicode="&#x643;" horiz-adv-x="1210" arabic-form="medial" 
d="M1139 1614v-225l-883 -355l204 -98q125 -60 192 -113.5t124 -143.5l1 2q82 -140 150 -183t203 -43h90q90 0 154 -64t64 -154t-64 -154t-154 -64h-90q-56 0 -98.5 18.5t-102.5 82t-138 183.5q-41 -129 -126.5 -206.5t-205.5 -77.5h-468q-90 0 -154 64t-64 154t64 154
t154 64h468q182 0 211 43l-2 3q-19 32 -77 69.5t-193 102.5l-355 172v291v36z" />
    <glyph glyph-name="uni0643.fina" unicode="&#x643;" horiz-adv-x="1764" arabic-form="final" 
d="M57 851h145v-242q0 -115 38.5 -134.5t267.5 -19.5h6h612q132 0 198.5 16t88 46.5t21.5 91.5v26q-2 50 -2 75h2v863h145v-964v-21q4 -86 32 -110q24 -21 109 -23h54q90 0 153.5 -64t63.5 -154t-63.5 -154t-153.5 -64q-86 0 -153.5 61t-112.5 170q-112 -231 -382 -231h-612
q-108 0 -188.5 28.5t-131 78t-82 126t-43.5 162t-12 195.5v242zM626 1094l330 97v-126l-169 -50l103 -22q73 -15 103 -47t30 -98q0 -59 -35 -102.5t-104 -45.5l-230 -10v126l227 11q32 1 49 4t21.5 7t4.5 10t-10 8t-69 14l-240 52z" />
    <glyph glyph-name="uni0644.init" unicode="&#x644;" horiz-adv-x="460" arabic-form="initial" 
d="M-9 19q-90 0 -154 64t-64 154t64 154t154 64h23q128 0 157 9q33 11 39 51q4 23 4 90v965h146v-965q0 -301 -81 -443.5t-265 -142.5h-23z" />
    <glyph glyph-name="uni0644.medi" unicode="&#x644;" horiz-adv-x="568" arabic-form="medial" 
d="M-7 19q-89 -1 -154 62.5t-65 155.5q0 90 63.5 154t153.5 64h60q38 0 56 0.5t41 3t31 3.5t19.5 8t13 11.5t5 19t3.5 24.5v33v1012h145v-938v-48.5t2 -37.5t2.5 -30.5t8 -22t10.5 -17t17.5 -10t22.5 -7t31.5 -2.5t38.5 -2h50h3h26q90 0 154 -64t64 -154t-64 -154t-154 -64
h-26q-170 0 -257 187q-41 -86 -103 -135.5t-139 -50.5z" />
    <glyph glyph-name="uni0644.fina" unicode="&#x644;" horiz-adv-x="1318" arabic-form="final" 
d="M356 767q-148 -171 -154 -426q5 -148 92 -217.5t288 -69.5q75 0 131.5 6t109 23.5t86 46.5t53.5 76.5t20 112.5v1254h146v-1004q3 -43 7.5 -65.5t9.5 -36.5t19.5 -16.5t27 -2t43.5 3.5t59 3h33q90 0 154 -64t64 -154t-64 -154t-154 -64h-33q-111 0 -183 92
q-42 -235 -178 -364t-351 -129q-227 0 -372 192.5t-153 508.5v19v20q11 297 190 504z" />
    <glyph glyph-name="uni0645.init" unicode="&#x645;" horiz-adv-x="987" arabic-form="initial" 
d="M931 520v-16v-7q0 -49 -3.5 -95.5t-14.5 -101t-28.5 -101t-47.5 -90.5t-69.5 -75t-96.5 -50t-126 -19q-230 0 -330 226q-76 -172 -205 -172h-19q-90 0 -154 64t-64 154t64 154t154 64h19q35 0 48.5 0.5t33.5 3.5t26.5 8.5t16.5 18.5t14.5 29.5t11.5 44.5
q19 170 128 283.5t256 113.5q155 0 266.5 -128t119.5 -309zM303 493q0 -39 13.5 -56t65 -26.5t163.5 -9.5h7q176 0 205 12t29 84v2q-1 72 -63 119.5t-178 47.5q-111 0 -176.5 -46t-65.5 -121v-6z" />
    <glyph glyph-name="uni0645.medi" unicode="&#x645;" horiz-adv-x="1103" arabic-form="medial" 
d="M931 520v-5l3 -12q7 -36 26.5 -42t129.5 -6h22q90 0 154 -64t64 -154t-64 -154t-154 -64h-22q-136 0 -213 161q-93 -215 -332 -215q-230 0 -330 226q-76 -172 -205 -172h-19q-90 0 -154 64t-64 154t64 154t154 64h19q35 0 48.5 0.5t33.5 3.5t26.5 8.5t16.5 18.5
t14.5 29.5t11.5 44.5q19 170 128 283.5t256 113.5q155 0 266.5 -128t119.5 -309zM303 493q0 -39 13.5 -56t65 -26.5t163.5 -9.5h7q176 0 205 12t29 84v2q-1 72 -63 119.5t-178 47.5q-111 0 -176.5 -46t-65.5 -121v-6z" />
    <glyph glyph-name="uni0645.fina" unicode="&#x645;" horiz-adv-x="1391" arabic-form="final" 
d="M1208 516v-2v-4v-5q3 -21 9 -33t13.5 -17.5t22.5 -6t29.5 1t41.5 3.5t52 2h25q90 0 154 -64t64 -154t-64 -154t-154 -64h-25q-153 0 -236 170q-97 -194 -317 -194q-63 0 -106 5t-93.5 21.5t-98.5 51.5t-100 92q-41 -11 -61 -16t-47.5 -15.5t-38.5 -14t-27.5 -16.5
t-21 -17.5t-13 -23.5t-9 -29t-3 -38t-2.5 -45.5v-57.5v-412h-145v412q0 72 2.5 127.5t10.5 122.5t22.5 118t40 104.5t60.5 92t86.5 70t116.5 49.5l49 13q21 59 37 93q55 119 133 186.5t156.5 79.5t157.5 -15.5t139.5 -87t99.5 -146.5t40 -183zM572 461q115 -30 251 -30
q172 0 206 11.5t34 68.5q0 40 -26.5 76t-67 60.5t-92 34.5t-100.5 3t-93.5 -39t-70.5 -87q-23 -49 -41 -98z" />
    <glyph glyph-name="uni0646.init" unicode="&#x646;" horiz-adv-x="470" arabic-form="initial" 
d="M-9 19q-90 0 -154 64t-64 154t64 154t154 64h86h52t41 1.5t33.5 2t23.5 6.5t18.5 8.5t11 14t8 18t2.5 26t2 32v40.5v289h146v-289q0 -107 -9 -191t-32.5 -160t-61 -126t-97 -79t-138.5 -29h-86zM2 1204l204 204l204 -204l-204 -205z" />
    <glyph glyph-name="uni0646.medi" unicode="&#x646;" horiz-adv-x="679" arabic-form="medial" 
d="M407 605q0 -113 35 -131.5t246 -18.5q90 0 154 -64t64 -154t-64 -154t-154 -64q-278 0 -373 234q-102 -234 -276 -234h-48q-90 0 -154 64t-64 154t64 154t154 64h48h48.5t39.5 1t34.5 3.5t26.5 7t23.5 11.5t17 17t14.5 24t9 32t9 41v13h2q8 63 18 227h147
q-8 -130 -22 -227h1zM150 1135l205 204l204 -204l-205 -205z" />
    <glyph glyph-name="uni0646.fina" unicode="&#x646;" horiz-adv-x="1312" arabic-form="final" 
d="M356 743q-148 -171 -154 -425q5 -139 91 -201.5t289 -62.5q75 0 131.5 6t109 23.5t86 46.5t53.5 76.5t20 112.5v553h146v-329q0 -66 21 -77t145 -11h27q90 0 154 -64t64 -154t-64 -154t-154 -64h-27q-113 0 -186 73q-45 -226 -180.5 -350t-345.5 -124q-123 0 -222 52.5
t-163 145t-100 214.5t-40 266v18v20q11 297 190 504zM424 1161l205 204l204 -204l-205 -205z" />
    <glyph glyph-name="uni0647.init" unicode="&#x647;" horiz-adv-x="1218" arabic-form="initial" 
d="M-9 19q-90 0 -154 64t-64 154t64 154t154 64h49q21 0 109 -2q-27 81 -27 167q0 152 70 258q-25 1 -79 1v291q217 0 394 -33t294 -88t198.5 -130t119 -155.5t43.5 -168.5v-4v-26v-18q2 -82 -9 -153.5t-42.5 -142t-82.5 -120t-135.5 -80.5t-195.5 -31q-95 0 -145 6.5
t-123 30.5l1 10q-167 -48 -390 -48h-49zM232 620q0 -51 51.5 -97t144.5 -62q14 2 38 6l7 3v2l3 -1q91 39 126 73t34 75q0 43 -22.5 75t-58 47.5t-78.5 22t-86 -2.5t-78.5 -26t-58 -47.5t-22.5 -67.5zM716 805q29 -79 29 -184q0 -89 -25 -166q93 1 154 7t91.5 17.5t41 24
t10.5 30.5l-1 43q-7 59 -81 121t-219 107z" />
    <glyph glyph-name="uni0647.medi" unicode="&#x647;" horiz-adv-x="860" arabic-form="medial" 
d="M-27 19q-90 0 -154 64t-64 154t64 154t154 64h119q6 90 21.5 175.5t44 167.5t66.5 143t93.5 98.5t120.5 37.5q89 0 163.5 -83.5t114 -199t43.5 -230.5q1 -47 -5 -109h133q90 0 154 -64t64 -154t-64 -154t-154 -64h-141q3 -52 2 -94q-3 -99 -30 -182.5t-69 -138.5
t-96 -87.5t-110.5 -37.5t-113 19t-103.5 73.5t-81.5 135t-47.5 195.5q-6 60 -9 117h-115zM235 20q1 -9 3.5 -32.5t3.5 -36.5q4 -35 42.5 -56.5t90.5 -25.5t103.5 1t87 23.5t36.5 42.5q2 57 -1.5 82t-21.5 66q-98 -68 -245 -65zM236 456l100 -1q193 -2 230 6q38 9 45 38
q3 14 2 47q-1 80 -40.5 123.5t-134.5 43.5q-107 0 -150.5 -62.5t-51.5 -194.5z" />
    <glyph glyph-name="uni0647.fina" unicode="&#x647;" horiz-adv-x="1096" arabic-form="final" 
d="M1105 455q90 0 154 -64t64 -154t-64 -154t-154 -64h-12q-216 0 -293 205q-105 -165 -324 -165q-95 0 -168 29.5t-119 77.5t-75.5 117t-42 140t-14.5 154v10v18q3 60 18.5 118.5t48.5 116.5t80 101.5t120 71t162 27.5q151 0 261 -85v148h146v-498v-41t2 -31.5t2.5 -26.5
t8.5 -18.5t11 -14t18.5 -8.5t24 -6.5l34 -2t42 -1.5h53.5h4h12zM202 588q1 -42 20 -60t74 -25.5t180 -7.5h85.5t64 2.5t49 5t32 10.5t22.5 16t10.5 24t6.5 32t1 43q-1 39 -40.5 67t-97 40.5t-123.5 12.5q-84 0 -141.5 -12.5t-87 -36.5t-41.5 -50t-14 -61z" />
    <glyph glyph-name="uni0648.fina" unicode="&#x648;" horiz-adv-x="892" arabic-form="final" 
d="M84 -485v328h170q176 0 272.5 39.5t134.5 136.5h-220q-112 0 -191 44t-120 120.5t-56.5 168t-8.5 199.5q16 166 123 285.5t233 119.5q53 0 103 -13t102.5 -48t93 -89.5t70.5 -144.5t40 -206h72q90 0 154 -64t64 -154t-64 -154t-154 -64h-80q-75 -504 -568 -504h-170z
M210 523q-4 -51 25.5 -59.5t205.5 -8.5h240q-20 122 -84 165.5t-176 43.5q-89 0 -145.5 -41t-65.5 -100z" />
    <glyph glyph-name="uni0649.fina" unicode="&#x649;" horiz-adv-x="1400" arabic-form="final" 
d="M742 567q244 -67 373.5 -89.5t293.5 -22.5q90 0 154 -64t64 -154t-64 -154t-154 -64q-79 0 -136 4q-6 -127 -57.5 -229.5t-131 -165.5t-174 -96t-191.5 -33q-205 0 -342.5 60.5t-218.5 190.5t-96.5 334.5t24.5 491.5h152q-19 -118 -27.5 -208t-5 -164t16.5 -125.5
t43.5 -90.5t68.5 -62.5t98 -38t127 -19.5t160 -5q185 0 281.5 42.5t111.5 138.5q-109 21 -407 102z" />
    <glyph glyph-name="uni064A.init" unicode="&#x64a;" horiz-adv-x="628" arabic-form="initial" 
d="M-9 19q-90 0 -154 64t-64 154t64 154t154 64h86h52t41 1.5t33.5 2t23.5 6.5t18.5 8.5t11 14t8 18t2.5 26t2 32v40.5v289h146v-289q0 -107 -9 -191t-32.5 -160t-61 -126t-97 -79t-138.5 -29h-86zM-90 -274l187 186l153 -154l153 153l186 -186l-187 -187l-153 154
l-153 -153z" />
    <glyph glyph-name="uni064A.medi" unicode="&#x64a;" horiz-adv-x="679" arabic-form="medial" 
d="M407 605q0 -113 35 -131.5t246 -18.5q90 0 154 -64t64 -154t-64 -154t-154 -64q-278 0 -373 234q-102 -234 -276 -234h-48q-90 0 -154 64t-64 154t64 154t154 64h48h48.5t39.5 1t34.5 3.5t26.5 7t23.5 11.5t17 17t14.5 24t9 32t9 41v13h2q8 63 18 227h147
q-8 -130 -22 -227h1zM-43 -301l204 204l168 -168l168 168l204 -204l-205 -205l-168 168l-167 -167z" />
    <glyph glyph-name="uni064A.fina" unicode="&#x64a;" horiz-adv-x="1400" arabic-form="final" 
d="M742 567q244 -67 373.5 -89.5t293.5 -22.5q90 0 154 -64t64 -154t-64 -154t-154 -64q-79 0 -136 4q-6 -127 -57.5 -229.5t-131 -165.5t-174 -96t-191.5 -33q-205 0 -342.5 60.5t-218.5 190.5t-96.5 334.5t24.5 491.5h152q-19 -118 -27.5 -208t-5 -164t16.5 -125.5
t43.5 -90.5t68.5 -62.5t98 -38t127 -19.5t160 -5q185 0 281.5 42.5t111.5 138.5q-109 21 -407 102zM310 -781l205 204l168 -168l168 167l204 -204l-205 -204l-168 168l-168 -167z" />
    <glyph glyph-name="uni066E.init" unicode="&#x66e;" horiz-adv-x="470" 
d="M-9 19q-90 0 -154 64t-64 154t64 154t154 64h86h52t41 1.5t33.5 2t23.5 6.5t18.5 8.5t11 14t8 18t2.5 26t2 32v40.5v289h146v-289q0 -107 -9 -191t-32.5 -160t-61 -126t-97 -79t-138.5 -29h-86z" />
    <glyph glyph-name="uni066E.medi" unicode="&#x66e;" horiz-adv-x="679" 
d="M407 605q0 -113 35 -131.5t246 -18.5q90 0 154 -64t64 -154t-64 -154t-154 -64q-278 0 -373 234q-102 -234 -276 -234h-48q-90 0 -154 64t-64 154t64 154t154 64h48h48.5t39.5 1t34.5 3.5t26.5 7t23.5 11.5t17 17t14.5 24t9 32t9 41v13h2q8 63 18 227h147
q-8 -130 -22 -227h1z" />
    <glyph glyph-name="uni066E.fina" unicode="&#x66e;" horiz-adv-x="1736" 
d="M285 870q-80 -139 -83 -294q1 -22 6 -38.5t17.5 -29t26.5 -21.5t40.5 -15t50 -9.5t65 -5t76.5 -2t92 -0.5h571q125 0 186.5 14.5t81 42.5t19.5 85v357h145v-357v-43v-45.5t5.5 -29t9 -17.5t20 -7.5t28.5 -2.5t45 2t59 1q90 0 154 -64t64 -154t-64 -154t-154 -64
q-84 0 -148 51.5t-104 143.5q-111 -195 -347 -195h-571q-269 0 -392 127.5t-127 417.5v8v11q6 191 102 359z" />
    <glyph glyph-name="uni066F.fina" unicode="&#x66f;" horiz-adv-x="1317" 
d="M351 546q-148 -171 -154 -426q5 -139 90 -201t289 -62q210 0 314.5 18.5t143.5 58t45 120.5h-259q-89 0 -157 26.5t-109.5 72t-66 109.5t-31.5 133.5t-1 150.5q14 171 123.5 287.5t241.5 116.5q64 0 127.5 -31t119 -90t96.5 -156t56 -218h107q90 0 154 -64t64 -154
t-64 -154t-154 -64h-103q-5 -93 -22 -169.5t-49 -145t-82 -119.5t-119 -88.5t-163.5 -56.5t-211.5 -19q-164 0 -282.5 91.5t-177 242t-64.5 343.5h-1v18q0 14 1 21q11 299 189 504zM598 497q-1 -37 15 -52t59 -20.5t148 -5.5h254q-34 240 -254 240q-96 0 -158 -45.5
t-62 -110.5v-6h-2z" />
    <glyph glyph-name="uni0671.fina" unicode="&#x671;" horiz-adv-x="471" arabic-form="final" 
d="M480 455q90 0 154 -64t64 -154t-64 -154t-154 -64h-27q-184 0 -267 143t-83 452v956h146v-956v-43.5t2.5 -34t2.5 -27.5t8.5 -19.5t12 -15t19.5 -9t25 -6.5t35 -2t43 -2h56h27zM-134 1706v164h12q48 0 65.5 11.5t17.5 33.5v94h59v-94v-9q61 62 126 98t119.5 42t98.5 -8
t69 -51t25 -89v-5q0 -48 -10.5 -87t-43.5 -69.5t-85 -30.5h-68q-108 0 -162 14.5t-102 61.5q-43 -76 -109 -76h-12zM111 1878q58 -8 140 -8h68q60 0 70 3t10 20v5q0 20 -15.5 34.5t-44 19.5t-64 0.5t-79 -23.5t-85.5 -51z" />
    <glyph glyph-name="uni0679.init" unicode="&#x679;" horiz-adv-x="470" arabic-form="initial" 
d="M-9 19q-90 0 -154 64t-64 154t64 154t154 64h86h52t41 1.5t33.5 2t23.5 6.5t18.5 8.5t11 14t8 18t2.5 26t2 32v40.5v289h146v-289q0 -107 -9 -191t-32.5 -160t-61 -126t-97 -79t-138.5 -29h-86zM79 1044v136h61v349h46v-305q45 49 95.5 78t94 33.5t79.5 -7t57 -42
t21 -72.5v-4q0 -41 -11.5 -76.5t-42 -62.5t-76.5 -27h-324zM220 1180h183q53 0 69 7.5t16 22.5v4q0 40 -40.5 56.5t-105.5 -6t-122 -84.5z" />
    <glyph glyph-name="uni0679.medi" unicode="&#x679;" horiz-adv-x="679" arabic-form="medial" 
d="M407 605q0 -113 35 -131.5t246 -18.5q90 0 154 -64t64 -154t-64 -154t-154 -64q-278 0 -373 234q-102 -234 -276 -234h-48q-90 0 -154 64t-64 154t64 154t154 64h48h48.5t39.5 1t34.5 3.5t26.5 7t23.5 11.5t17 17t14.5 24t9 32t9 41v13h2q8 63 18 227h147
q-8 -130 -22 -227h1zM111 975v136h61v349h46v-306q45 49 95.5 78t94 33.5t79.5 -7t57 -42t21 -72.5v-4q0 -41 -11.5 -76.5t-42 -62t-76.5 -26.5h-324zM252 1111h183q53 0 69 7t16 22v4q0 40 -40.5 56.5t-105.5 -5.5t-122 -84z" />
    <glyph glyph-name="uni0679.fina" unicode="&#x679;" horiz-adv-x="1736" arabic-form="final" 
d="M285 870q-80 -139 -83 -294q1 -22 6 -38.5t17.5 -29t26.5 -21.5t40.5 -15t50 -9.5t65 -5t76.5 -2t92 -0.5h571q125 0 186.5 14.5t81 42.5t19.5 85v357h145v-357v-43v-45.5t5.5 -29t9 -17.5t20 -7.5t28.5 -2.5t45 2t59 1q90 0 154 -64t64 -154t-64 -154t-154 -64
q-84 0 -148 51.5t-104 143.5q-111 -195 -347 -195h-571q-269 0 -392 127.5t-127 417.5v8v11q6 191 102 359zM600 1012v136h62v349h46v-306q45 49 95.5 78t94 33.5t79.5 -7t57 -42t21 -72.5v-4q0 -41 -11.5 -76.5t-42 -62t-76.5 -26.5h-325zM742 1148h183q53 0 69 7t16 22v4
q0 40 -40.5 56.5t-105.5 -5.5t-122 -84z" />
    <glyph glyph-name="uni067E.init" unicode="&#x67e;" horiz-adv-x="470" arabic-form="initial" 
d="M-9 19q-90 0 -154 64t-64 154t64 154t154 64h86h52t41 1.5t33.5 2t23.5 6.5t18.5 8.5t11 14t8 18t2.5 26t2 32v40.5v289h146v-289q0 -107 -9 -191t-32.5 -160t-61 -126t-97 -79t-138.5 -29h-86zM-127 -267l205 205l168 -169l168 168l204 -205l-205 -204l-168 168
l-168 -167zM41 -572l205 205l204 -205l-205 -204z" />
    <glyph glyph-name="uni067E.medi" unicode="&#x67e;" horiz-adv-x="679" arabic-form="medial" 
d="M407 605q0 -113 35 -131.5t246 -18.5q90 0 154 -64t64 -154t-64 -154t-154 -64q-278 0 -373 234q-102 -234 -276 -234h-48q-90 0 -154 64t-64 154t64 154t154 64h48h48.5t39.5 1t34.5 3.5t26.5 7t23.5 11.5t17 17t14.5 24t9 32t9 41v13h2q8 63 18 227h147
q-8 -130 -22 -227h1zM-45 -267l205 205l168 -169l168 168l204 -205l-205 -204l-168 168l-168 -167zM123 -572l205 205l204 -205l-205 -204z" />
    <glyph glyph-name="uni067E.fina" unicode="&#x67e;" horiz-adv-x="1736" arabic-form="final" 
d="M285 870q-80 -139 -83 -294q1 -22 6 -38.5t17.5 -29t26.5 -21.5t40.5 -15t50 -9.5t65 -5t76.5 -2t92 -0.5h571q125 0 186.5 14.5t81 42.5t19.5 85v357h145v-357v-43v-45.5t5.5 -29t9 -17.5t20 -7.5t28.5 -2.5t45 2t59 1q90 0 154 -64t64 -154t-64 -154t-154 -64
q-84 0 -148 51.5t-104 143.5q-111 -195 -347 -195h-571q-269 0 -392 127.5t-127 417.5v8v11q6 191 102 359zM471 -267l205 205l168 -169l168 168l204 -205l-205 -204l-168 168l-168 -167zM639 -572l205 205l204 -205l-205 -204z" />
    <glyph glyph-name="uni0686.init" unicode="&#x686;" horiz-adv-x="1246" arabic-form="initial" 
d="M1194 441q-107 -88 -207 -156.5t-176 -112.5t-157 -75t-132 -46t-121 -22.5t-103 -8.5t-98 -1h-28h-181q-90 0 -154 64t-64 154t64 154t154 64h181q90 0 156.5 3.5t173 17t216 47.5t215.5 87q-132 36 -351 144q-87 44 -178 49.5t-170.5 -20t-155.5 -77.5v234
q94 50 181 70t185 6.5t202 -65.5q163 -80 275.5 -115t272.5 -50v-345zM232 -261l205 205l168 -168l168 167l203 -204l-204 -204l-168 168l-168 -167zM400 -565l205 205l204 -205l-205 -204z" />
    <glyph glyph-name="uni0686.medi" unicode="&#x686;" horiz-adv-x="1355" arabic-form="medial" 
d="M1194 466q68 -11 149 -11h22q90 0 154 -64t64 -154t-64 -154t-154 -64h-22q-76 0 -135 13t-110 43.5t-91 65t-94 92.5q-97 -62 -188.5 -105t-155 -64t-141 -32t-115.5 -12t-111 -1h-30h-181q-90 0 -154 64t-64 154t64 154t154 64h181q90 0 156.5 3.5t173 17t216 47.5
t215.5 87q-132 36 -351 144q-87 44 -178 49.5t-170.5 -20t-155.5 -77.5v234q94 50 181 70t185 6.5t202 -65.5q163 -80 275.5 -115t272.5 -50v-320zM258 -206l205 205l168 -169l168 168l204 -204l-205 -204l-168 168l-168 -168zM426 -510l205 204l204 -204l-205 -204z" />
    <glyph glyph-name="uni0686.fina" unicode="&#x686;" horiz-adv-x="1413" arabic-form="final" 
d="M1275 850v-386q59 -9 121 -9h26q90 0 154 -64t64 -154t-64 -154t-154 -64h-26q-306 0 -475 318q-171 -40 -298.5 -82.5t-208.5 -82.5t-129.5 -84.5t-67 -87t-15.5 -90.5q5 -56 35.5 -103.5t96 -90.5t169 -64t255.5 -24.5t355 27.5v-291q-222 -32 -393 -18t-294 58
t-203.5 121t-120.5 172t-45 211q-4 151 39 278.5t139 238t260 196t391 141.5q-40 21 -121.5 69t-107.5 62q-61 35 -132 44t-138 -5t-125.5 -38.5t-110.5 -58.5v233q93 49 176.5 72.5t191.5 13.5t210 -69q27 -15 97 -55.5t92.5 -53t77 -39t88 -36.5t84.5 -22t106 -17l-1 -12
h2zM528 11l132 132l110 -109l109 109l133 -133l-134 -133l-109 109l-109 -108zM637 -188l133 134l133 -134l-134 -132z" />
    <glyph glyph-name="uni0688.fina" unicode="&#x688;" horiz-adv-x="1002" arabic-form="final" 
d="M852 531q0 -42 -2 -62q51 -14 140 -14h22q90 0 154 -64t64 -154t-64 -154t-154 -64h-22q-146 0 -241 137q-106 -137 -318 -137h-387v436h387q117 0 177.5 9t78.5 23.5t19 43.5v6q0 87 -61 135t-168 57t-253 -6v290q146 15 259.5 -4t197 -74t127.5 -155.5t44 -242.5v-6z
M167 1167v136h62v349h45v-306q45 49 95.5 78t94.5 33.5t80 -7t57 -42t21 -72.5v-4q0 -41 -11.5 -76.5t-42 -62t-76.5 -26.5h-325zM309 1303h183q53 0 69 7t16 22v4q0 40 -40.5 56.5t-105.5 -5.5t-122 -84z" />
    <glyph glyph-name="uni0691.fina" unicode="&#x691;" horiz-adv-x="728" arabic-form="final" 
d="M0 -97q71 0 118 1.5t89.5 10.5t66 18t44 33.5t29 46.5t14.5 68.5t7 87.5t1 115v588h145v-267v-50t4 -36t6 -28t15.5 -17t22 -11.5t36.5 -4.5t47 -3h65h4h22q90 0 154 -64t64 -154t-64 -154t-154 -64h-22q-130 0 -206 69q-8 -109 -26.5 -193.5t-56 -160t-93 -125
t-139.5 -78t-193 -28.5v400zM208 1012v136h62v349h45v-306q45 49 95.5 78t94.5 33.5t80 -7t57 -42t21 -72.5v-4q0 -41 -12 -76.5t-42.5 -62t-76.5 -26.5h-324zM350 1148h182q53 0 69.5 7t16.5 22v4q0 40 -40.5 56.5t-105.5 -5.5t-122 -84z" />
    <glyph glyph-name="uni0698.fina" unicode="&#x698;" horiz-adv-x="728" arabic-form="final" 
d="M0 -97q71 0 118 1.5t89.5 10.5t66 18t44 33.5t29 46.5t14.5 68.5t7 87.5t1 115v588h145v-267v-50t4 -36t6 -28t15.5 -17t22 -11.5t36.5 -4.5t47 -3h65h4h22q90 0 154 -64t64 -154t-64 -154t-154 -64h-22q-130 0 -206 69q-8 -109 -26.5 -193.5t-56 -160t-93 -125
t-139.5 -78t-193 -28.5v400zM83 1145l205 204l168 -168l168 167l204 -204l-205 -204l-168 168l-168 -168zM251 1449l205 204l204 -204l-205 -205z" />
    <glyph glyph-name="uni06A1.init" unicode="&#x6a1;" horiz-adv-x="892" 
d="M836 605q0 -301 -81 -443.5t-264 -142.5h-500q-90 0 -154 64t-64 154t64 154t154 64h500h60.5t45.5 2t36 4t23.5 8t17.5 13t8.5 20t6.5 27t1 37h-260q-104 0 -175 21.5t-113 67t-60 108t-19 151.5v3v14q6 154 110.5 260t263.5 106q111 0 203.5 -73.5t144 -193
t51.5 -255.5v-170zM209 917q1 -14 3 -22.5t11.5 -16t22 -10.5t40.5 -5.5t59 -3t85 -0.5h250q-20 81 -81.5 128.5t-161.5 47.5q-111 0 -168.5 -33.5t-59.5 -84.5z" />
    <glyph glyph-name="uni06A1.medi" unicode="&#x6a1;" horiz-adv-x="892" 
d="M75 637q0 81 25 161.5t70.5 147t117.5 107.5t158 41q85 0 156.5 -40.5t117.5 -107t71.5 -147.5t26.5 -166v-32q0 -69 -12 -146h95q90 0 154 -64t64 -154t-64 -154t-154 -64h-156q-170 0 -296 37q-126 -37 -293 -37h-165q-90 0 -154 64t-64 154t64 154t154 64h96
q-12 66 -12 142v40zM220 601q0 -42 61 -74t169 -51q222 39 222 125v25q0 178 -226 178q-123 0 -174.5 -47t-51.5 -120v-36z" />
    <glyph glyph-name="uni06A1.fina" unicode="&#x6a1;" horiz-adv-x="2036" 
d="M285 870q-80 -139 -83 -294q1 -22 6 -38.5t17.5 -29t26.5 -21.5t40.5 -15t50 -9.5t65 -5t76.5 -2t92 -0.5h655q-12 65 -12 142v40q0 82 25 163t70.5 147.5t117.5 108t158 41.5t157.5 -41t116.5 -108t70.5 -148.5t26.5 -166.5v-32q0 -79 -12 -146h96q90 0 154 -64t64 -154
t-64 -154t-154 -64h-157q-163 0 -295 38q-128 -38 -292 -38h-725q-269 0 -392 127.5t-127 417.5v8v11q6 191 102 359zM1365 601q0 -83 229 -124q221 41 221 124v25q0 83 -50 131.5t-175 48.5q-225 0 -225 -169v-36z" />
    <glyph glyph-name="uni06A4.init" unicode="&#x6a4;" horiz-adv-x="892" arabic-form="initial" 
d="M836 605q0 -301 -81 -443.5t-264 -142.5h-500q-90 0 -154 64t-64 154t64 154t154 64h500h60.5t45.5 2t36 4t23.5 8t17.5 13t8.5 20t6.5 27t1 37h-260q-104 0 -175 21.5t-113 67t-60 108t-19 151.5v3v14q6 154 110.5 260t263.5 106q111 0 203.5 -73.5t144 -193
t51.5 -255.5v-170zM75 1582l205 204l169 -168l168 167l204 -204l-205 -205l-169 169l-168 -168zM209 917q1 -14 3 -22.5t11.5 -16t22 -10.5t40.5 -5.5t59 -3t85 -0.5h250q-20 81 -81.5 128.5t-161.5 47.5q-111 0 -168.5 -33.5t-59.5 -84.5zM243 1886l206 204l204 -204
l-206 -205z" />
    <glyph glyph-name="uni06A4.medi" unicode="&#x6a4;" horiz-adv-x="892" arabic-form="medial" 
d="M75 637q0 81 25 161.5t70.5 147t117.5 107.5t158 41q85 0 156.5 -40.5t117.5 -107t71.5 -147.5t26.5 -166v-32q0 -69 -12 -146h95q90 0 154 -64t64 -154t-64 -154t-154 -64h-156q-170 0 -296 37q-126 -37 -293 -37h-165q-90 0 -154 64t-64 154t64 154t154 64h96
q-12 66 -12 142v40zM78 1390l205 204l168 -168l168 167l204 -204l-205 -204l-168 168l-168 -168zM220 601q0 -42 61 -74t169 -51q222 39 222 125v25q0 178 -226 178q-123 0 -174.5 -47t-51.5 -120v-36zM246 1694l205 204l204 -204l-205 -205z" />
    <glyph glyph-name="uni06A4.fina" unicode="&#x6a4;" horiz-adv-x="2036" arabic-form="final" 
d="M285 870q-80 -139 -83 -294q1 -22 6 -38.5t17.5 -29t26.5 -21.5t40.5 -15t50 -9.5t65 -5t76.5 -2t92 -0.5h655q-12 65 -12 142v40q0 82 25 163t70.5 147.5t117.5 108t158 41.5t157.5 -41t116.5 -108t70.5 -148.5t26.5 -166.5v-32q0 -79 -12 -146h96q90 0 154 -64t64 -154
t-64 -154t-154 -64h-157q-163 0 -295 38q-128 -38 -292 -38h-725q-269 0 -392 127.5t-127 417.5v8v11q6 191 102 359zM1225 1377l205 204l168 -168l168 167l204 -204l-205 -205l-168 169l-168 -168zM1365 601q0 -83 229 -124q221 41 221 124v25q0 83 -50 131.5t-175 48.5
q-225 0 -225 -169v-36zM1393 1681l205 204l204 -204l-205 -205z" />
    <glyph glyph-name="uni06A9.init" unicode="&#x6a9;" horiz-adv-x="1179" arabic-form="initial" 
d="M1132 1581v-226l-787 -324l275 -98q363 -135 374 -398v-12v-6q-1 -78 -8 -138.5t-25 -119.5t-50.5 -100.5t-81 -74.5t-119 -49t-162.5 -16h-557q-90 0 -154 64t-64 154t64 154t154 64h557q214 0 256.5 8.5t43.5 55.5q-4 39 -277 140l-511 183v292h1v7z" />
    <glyph glyph-name="uni06A9.medi" unicode="&#x6a9;" horiz-adv-x="1210" arabic-form="medial" 
d="M1139 1614v-225l-883 -355l204 -98q125 -60 192 -113.5t124 -143.5l1 2q82 -140 150 -183t203 -43h90q90 0 154 -64t64 -154t-64 -154t-154 -64h-90q-56 0 -98.5 18.5t-102.5 82t-138 183.5q-41 -129 -126.5 -206.5t-205.5 -77.5h-468q-90 0 -154 64t-64 154t64 154
t154 64h468q182 0 211 43l-2 3q-19 32 -77 69.5t-193 102.5l-355 172v291v36z" />
    <glyph glyph-name="uni06A9.fina" unicode="&#x6a9;" horiz-adv-x="1930" arabic-form="final" 
d="M57 851h145v-242q0 -115 38.5 -134.5t267.5 -19.5h6h582q214 0 256.5 8.5t43.5 55.5q-4 39 -277 140l-511 183v292h1v7l1071 440v-226l-787 -324l275 -98q331 -123 369 -352q62 -79 130.5 -102.5t182.5 -23.5h90q90 0 154 -64t64 -154t-64 -154t-154 -64h-90
q-35 0 -57.5 3t-56.5 16t-64.5 38.5t-72.5 72.5t-89 116q-38 -121 -135 -183.5t-279 -62.5h-582q-108 0 -188.5 28.5t-131 78t-82 126t-43.5 162t-12 195.5v242z" />
    <glyph glyph-name="uni06AF.init" unicode="&#x6af;" horiz-adv-x="1179" arabic-form="initial" 
d="M1132 1581v-226l-787 -324l275 -98q363 -135 374 -398v-12v-6q-1 -78 -8 -138.5t-25 -119.5t-50.5 -100.5t-81 -74.5t-119 -49t-162.5 -16h-557q-90 0 -154 64t-64 154t64 154t154 64h557q214 0 256.5 8.5t43.5 55.5q-4 39 -277 140l-511 183v292h1v7zM2 1470l838 340
l54 -134l-837 -341z" />
    <glyph glyph-name="uni06AF.medi" unicode="&#x6af;" horiz-adv-x="1210" arabic-form="medial" 
d="M1139 1614v-225l-883 -355l204 -98q125 -60 192 -113.5t124 -143.5l1 2q82 -140 150 -183t203 -43h90q90 0 154 -64t64 -154t-64 -154t-154 -64h-90q-56 0 -98.5 18.5t-102.5 82t-138 183.5q-41 -129 -126.5 -206.5t-205.5 -77.5h-468q-90 0 -154 64t-64 154t64 154
t154 64h468q182 0 211 43l-2 3q-19 32 -77 69.5t-193 102.5l-355 172v291v36zM-1 1510l837 341l54 -135l-837 -341z" />
    <glyph glyph-name="uni06AF.fina" unicode="&#x6af;" horiz-adv-x="1930" arabic-form="final" 
d="M57 851h145v-242q0 -115 38.5 -134.5t267.5 -19.5h6h582q214 0 256.5 8.5t43.5 55.5q-4 39 -277 140l-511 183v292h1v7l1071 440v-226l-787 -324l275 -98q331 -123 369 -352q62 -79 130.5 -102.5t182.5 -23.5h90q90 0 154 -64t64 -154t-64 -154t-154 -64h-90
q-35 0 -57.5 3t-56.5 16t-64.5 38.5t-72.5 72.5t-89 116q-38 -121 -135 -183.5t-279 -62.5h-582q-108 0 -188.5 28.5t-131 78t-82 126t-43.5 162t-12 195.5v242zM596 1482l837 341l54 -135l-837 -340z" />
    <glyph glyph-name="uni06BA.fina" unicode="&#x6ba;" horiz-adv-x="1312" arabic-form="final" 
d="M356 743q-148 -171 -154 -425q5 -139 91 -201.5t289 -62.5q75 0 131.5 6t109 23.5t86 46.5t53.5 76.5t20 112.5v553h146v-329q0 -66 21 -77t145 -11h27q90 0 154 -64t64 -154t-64 -154t-154 -64h-27q-113 0 -186 73q-45 -226 -180.5 -350t-345.5 -124q-123 0 -222 52.5
t-163 145t-100 214.5t-40 266v18v20q11 297 190 504z" />
    <glyph glyph-name="uni06BE.init" unicode="&#x6be;" horiz-adv-x="1218" arabic-form="initial" 
d="M-9 19q-90 0 -154 64t-64 154t64 154t154 64h49q21 0 109 -2q-27 81 -27 167q0 152 70 258q-25 1 -79 1v291q217 0 394 -33t294 -88t198.5 -130t119 -155.5t43.5 -168.5v-4v-26v-18q2 -82 -9 -153.5t-42.5 -142t-82.5 -120t-135.5 -80.5t-195.5 -31q-95 0 -145 6.5
t-123 30.5l1 10q-167 -48 -390 -48h-49zM232 620q0 -51 51.5 -97t144.5 -62q14 2 38 6l7 3v2l3 -1q91 39 126 73t34 75q0 43 -22.5 75t-58 47.5t-78.5 22t-86 -2.5t-78.5 -26t-58 -47.5t-22.5 -67.5zM716 805q29 -79 29 -184q0 -89 -25 -166q93 1 154 7t91.5 17.5t41 24
t10.5 30.5l-1 43q-7 59 -81 121t-219 107z" />
    <glyph glyph-name="uni06BE.medi" unicode="&#x6be;" horiz-adv-x="1227" arabic-form="medial" 
d="M-9 19q-90 0 -154 64t-64 154t64 154t154 64h49q21 0 109 -2q-27 81 -27 167q0 152 70 258q-25 1 -79 1v291q217 0 394 -33t294 -88t198.5 -130t119 -155.5t43.5 -168.5v-4v-26v-18q1 -41 -2 -92h76q90 0 154 -64t64 -154t-64 -154t-154 -64h-445q-19 0 -36 3
q-19 -2 -58 -2q-95 0 -145 6.5t-123 30.5l1 10q-167 -48 -390 -48h-49zM232 620q0 -51 51.5 -97t144.5 -62q14 2 38 6l7 3v2l3 -1q91 39 126 73t34 75q0 43 -22.5 75t-58 47.5t-78.5 22t-86 -2.5t-78.5 -26t-58 -47.5t-22.5 -67.5zM716 805q29 -79 29 -184q0 -89 -25 -166
q93 1 154 7t91.5 17.5t41 24t10.5 30.5l-1 43q-7 59 -81 121t-219 107z" />
    <glyph glyph-name="uni06BE.fina" unicode="&#x6be;" horiz-adv-x="1004" arabic-form="final" 
d="M739 546q-1 72 -47.5 124t-119.5 44q-61 -7 -96.5 -31.5t-48 -66t-15.5 -100.5t0 -135l9 3q314 98 318 162zM52 270l215 67q8 708 290 739q61 6 120.5 -40.5t102.5 -122t71 -166.5t33 -174h1q3 -55 -4 -118h132q90 0 154 -64t64 -154t-64 -154t-154 -64h-45
q5 -75 -10 -148.5t-45.5 -132.5t-74.5 -104.5t-95 -69.5t-111 -23t-118 31q-52 28 -105.5 124t-89.5 227l-224 -70zM489 -24q39 -54 92 -83q57 -30 104.5 -34t72.5 16t32.5 54t-13 83.5t-65.5 101.5q-97 -92 -223 -138z" />
    <glyph glyph-name="uni06C1.init" unicode="&#x6c1;" horiz-adv-x="528" arabic-form="initial" 
d="M-9 19q-90 0 -154 64t-64 154t64 154t154 64h86h52t41 1.5t33.5 2t23.5 6.5t18.5 8.5t11 14t8 18t2.5 26t2 32v40.5v289h146v-289q0 -395 -142 -519v-72.5t2.5 -57t3.5 -45.5t8 -33t10.5 -24.5t17 -15.5t21 -9.5t29.5 -3.5t36 -1.5t45 1.5l4 -293q-82 -2 -142 16t-94 52
t-56 81t-27 102t-7.5 116t1.5 123q-16 -2 -48 -2h-86z" />
    <glyph glyph-name="uni06C1.medi" unicode="&#x6c1;" horiz-adv-x="860" arabic-form="medial" 
d="M-27 19q-90 0 -154 64t-64 154t64 154t154 64h119q6 90 21.5 175.5t44 167.5t66.5 143t93.5 98.5t120.5 37.5q89 0 163.5 -83.5t114 -199t43.5 -230.5q1 -47 -5 -109h133q90 0 154 -64t64 -154t-64 -154t-154 -64h-141q3 -52 2 -94q-3 -99 -30 -182.5t-69 -138.5
t-96 -87.5t-110.5 -37.5t-113 19t-103.5 73.5t-81.5 135t-47.5 195.5q-6 60 -9 117h-115zM235 20q1 -9 3.5 -32.5t3.5 -36.5q4 -35 42.5 -56.5t90.5 -25.5t103.5 1t87 23.5t36.5 42.5q2 57 -1.5 82t-21.5 66q-98 -68 -245 -65zM236 456l100 -1q193 -2 230 6q38 9 45 38
q3 14 2 47q-1 80 -40.5 123.5t-134.5 43.5q-107 0 -150.5 -62.5t-51.5 -194.5z" />
    <glyph glyph-name="uni06C1.fina" unicode="&#x6c1;" horiz-adv-x="1216" arabic-form="final" 
d="M165 -32l-108 292l195 217q92 103 181 156.5t163.5 58.5t143 -13.5t130 -57t114.5 -75t108 -64t98 -27.5h41q90 0 154 -64t64 -154t-64 -154t-154 -64h-41q-40 0 -95 26t-110 62t-117.5 76.5t-126.5 68.5t-127.5 38t-129.5 -15.5t-124 -89.5z" />
    <glyph glyph-name="uni06C2.fina" unicode="&#x6c2;" horiz-adv-x="1216" 
d="M165 -32l-108 292l195 217q92 103 181 156.5t163.5 58.5t143 -13.5t130 -57t114.5 -75t108 -64t98 -27.5h41q90 0 154 -64t64 -154t-64 -154t-154 -64h-41q-40 0 -95 26t-110 62t-117.5 76.5t-126.5 68.5t-127.5 38t-129.5 -15.5t-124 -89.5zM431 909v169h98
q-10 48 -0.5 95.5t38.5 84t78.5 51.5t117.5 -1v-127q-106 33 -154 -8q-33 -26 -15 -63q9 -19 29 -32h222v-169h-414z" />
    <glyph glyph-name="uni06C3.fina" unicode="&#x6c3;" horiz-adv-x="1216" 
d="M165 -32l-108 292l195 217q92 103 181 156.5t163.5 58.5t143 -13.5t130 -57t114.5 -75t108 -64t98 -27.5h41q90 0 154 -64t64 -154t-64 -154t-154 -64h-41q-40 0 -95 26t-110 62t-117.5 76.5t-126.5 68.5t-127.5 38t-129.5 -15.5t-124 -89.5zM262 1004l205 204l168 -168
l168 167l204 -204l-205 -205l-168 169l-168 -168z" />
    <glyph glyph-name="uni06CC.init" unicode="&#x6cc;" horiz-adv-x="628" arabic-form="initial" 
d="M-9 19q-90 0 -154 64t-64 154t64 154t154 64h86h52t41 1.5t33.5 2t23.5 6.5t18.5 8.5t11 14t8 18t2.5 26t2 32v40.5v289h146v-289q0 -107 -9 -191t-32.5 -160t-61 -126t-97 -79t-138.5 -29h-86zM-90 -274l187 186l153 -154l153 153l186 -186l-187 -187l-153 154
l-153 -153z" />
    <glyph glyph-name="uni06CC.medi" unicode="&#x6cc;" horiz-adv-x="679" arabic-form="medial" 
d="M407 605q0 -113 35 -131.5t246 -18.5q90 0 154 -64t64 -154t-64 -154t-154 -64q-278 0 -373 234q-102 -234 -276 -234h-48q-90 0 -154 64t-64 154t64 154t154 64h48h48.5t39.5 1t34.5 3.5t26.5 7t23.5 11.5t17 17t14.5 24t9 32t9 41v13h2q8 63 18 227h147
q-8 -130 -22 -227h1zM-43 -301l204 204l168 -168l168 168l204 -204l-205 -205l-168 168l-167 -167z" />
    <glyph glyph-name="uni06CC.fina" unicode="&#x6cc;" horiz-adv-x="1400" arabic-form="final" 
d="M742 567q244 -67 373.5 -89.5t293.5 -22.5q90 0 154 -64t64 -154t-64 -154t-154 -64q-79 0 -136 4q-6 -127 -57.5 -229.5t-131 -165.5t-174 -96t-191.5 -33q-205 0 -342.5 60.5t-218.5 190.5t-96.5 334.5t24.5 491.5h152q-19 -118 -27.5 -208t-5 -164t16.5 -125.5
t43.5 -90.5t68.5 -62.5t98 -38t127 -19.5t160 -5q185 0 281.5 42.5t111.5 138.5q-109 21 -407 102z" />
    <glyph glyph-name="uni06D2.fina" unicode="&#x6d2;" horiz-adv-x="1767" arabic-form="final" 
d="M1730 -496q-159 0 -435 -3q-202 -1 -364 -1t-289.5 8t-223 27t-164 55.5t-113 93.5t-70.5 140l1 1q-10 63 -13.5 123t2.5 124t22 118.5t48 104t78 84.5t114.5 55.5t153.5 20.5h1299q90 0 154 -64t64 -154t-64 -154t-154 -64h-1299q-209 0 -243 -15.5t-19 -105.5
q19 -41 88 -64t194 -32.5t310.5 -10.5t437.5 1q98 1 155 1t152 0.5t178 0.5v-290z" />
    <glyph glyph-name="uni06D3.fina" unicode="&#x6d3;" horiz-adv-x="1767" arabic-form="final" 
d="M1730 -496q-159 0 -435 -3q-202 -1 -364 -1t-289.5 8t-223 27t-164 55.5t-113 93.5t-70.5 140l1 1q-10 63 -13.5 123t2.5 124t22 118.5t48 104t78 84.5t114.5 55.5t153.5 20.5h1299q90 0 154 -64t64 -154t-64 -154t-154 -64h-1299q-209 0 -243 -15.5t-19 -105.5
q19 -41 88 -64t194 -32.5t310.5 -10.5t437.5 1q98 1 155 1t152 0.5t178 0.5v-290zM708 668v168h98q-10 48 -0.5 95.5t38.5 84t78.5 52t117.5 -0.5v-127q-107 33 -156 -9q-32 -27 -14 -64q9 -18 29 -31h222v-168h-413z" />
    <glyph glyph-name="uniFDFC" unicode="&#xfdfc;" horiz-adv-x="2480" arabic-form="isolated" 
d="M1263 -88l168 -168l168 167l204 -204l-205 -205l-168 169l-168 -168l-204 205zM57 325v19v21q11 291 185 498l112 -94q-64 -76 -106 -175t-46 -247q5 -148 93.5 -218t287.5 -70q75 0 131.5 6t109.5 23.5t86.5 46.5t53.5 76.5t20 112.5v1148h520v-857v-42t2 -33t2.5 -27
t8.5 -19t11 -15t18.5 -9t24 -6t34 -2t41.5 -2h53h2h2h16q133 0 154 4q34 7 41 36q4 17 4 57v402h146v-402q0 -151 -36 -268.5t-115.5 -191t-193.5 -73.5h-16q-186 0 -265.5 142t-79.5 449v421h-228v-712q0 -330 -143.5 -515.5t-403.5 -185.5q-225 0 -371 192t-155 510z
M1815 -497v400q71 0 118 1.5t89.5 10.5t66 18t44 33.5t29 46.5t14.5 68.5t7 87.5t1 115v588h146v-588q0 -102 -5.5 -183.5t-20 -164.5t-39 -146t-64 -119t-92.5 -91.5t-127.5 -56t-166.5 -20.5z" />
    <glyph glyph-name=".notdef" horiz-adv-x="1036" 
d="M62 1580h912v-1563h-912v1563zM360 425h316v747h-316v-747z" />
    <glyph glyph-name=".null" horiz-adv-x="233" 
 />
    <glyph glyph-name="nonmarkingreturn" horiz-adv-x="682" 
 />
    <glyph glyph-name="space" unicode=" " horiz-adv-x="261" 
 />
    <glyph glyph-name="exclam" unicode="!" horiz-adv-x="508" 
d="M255 138l204 -204l-205 -205l-204 205zM182 270v1120h146v-1120h-146z" />
    <glyph glyph-name="quotedbl" unicode="&#x22;" horiz-adv-x="693" 
d="M592 1099h-147v643h147v-643zM102 1099v643h147v-643h-147z" />
    <glyph glyph-name="numbersign" unicode="#" horiz-adv-x="1299" 
d="M358 0h-156l48 213h-200v291h265l64 291h-329v291h393l48 212h155l-47 -212h296l47 212h156l-48 -212h199v-291h-263l-64 -291h327v-291h-392l-48 -213h-155l47 213h-295zM470 504h296l65 291h-296z" />
    <glyph glyph-name="dollar" unicode="$" horiz-adv-x="1087" 
d="M1031 577v-2v-2v-26q-5 -244 -106.5 -371.5t-317.5 -155.5v-181h-146v173q-155 1 -362 39v434q206 -37 362 -48v261q-115 13 -195.5 49.5t-123.5 91.5t-62 113t-23 130v21v16q4 109 30 184.5t78 124t123 75t173 38.5v186h146v-175q93 5 314 5v-291q-46 0 -155 1t-159 0
v-272q98 -3 173.5 -29t122 -65t76 -94t41 -110.5t11.5 -119.5zM203 1100q3 -33 21.5 -52t75 -32t161.5 -17v263q-129 -9 -190.5 -45.5t-67.5 -116.5zM607 433q277 9 279 142q-1 58 -61.5 86t-217.5 30v-258z" />
    <glyph glyph-name="percent" unicode="%" horiz-adv-x="1473" 
d="M426 0h-162l785 1565h162zM55 1161q0 80 31.5 152t93.5 119t139 47q115 0 189 -97t74 -221q0 -126 -74.5 -223.5t-188.5 -97.5q-77 0 -138.5 47t-93.5 120t-32 154zM165 1161q0 -44 38.5 -71.5t115.5 -27.5t115.5 28t38.5 71q0 42 -38.5 69.5t-115.5 27.5t-115.5 -27.5
t-38.5 -69.5zM891 450q0 80 31.5 152t93.5 119t139 47t139 -47t93.5 -119t31.5 -152q0 -81 -32 -154t-93.5 -120t-138.5 -47t-138.5 47t-93.5 120t-32 154zM1001 450q0 -44 38.5 -71.5t115.5 -27.5t115.5 27.5t38.5 71.5q0 42 -38.5 69.5t-115.5 27.5t-115.5 -27.5
t-38.5 -69.5z" />
    <glyph glyph-name="ampersand" unicode="&#x26;" horiz-adv-x="1384" 
d="M1156 915q0 -275 -39 -455l213 -185l-95 -110l-164 143q-65 -158 -184 -223.5t-302 -65.5q-132 0 -229 31t-152.5 78.5t-89.5 120t-45 140t-12 153.5v9v16q5 125 73.5 212t213.5 166q-81 84 -116 155.5t-35 152.5q0 82 29.5 142.5t83 95t119.5 51t146 16.5
q79 0 146 -17.5t119.5 -52t82.5 -92t30 -132.5v-15v-29q-3 -162 -55 -254t-188 -153l273 -235q31 81 31 337h146zM202 546q1 -67 55.5 -79t327.5 -12q215 0 287 23l-317 273q-196 -81 -273 -125.5t-80 -79.5zM338 1253q0 -58 30.5 -110.5t113.5 -130.5q72 32 140 59
q125 50 150 69q28 21 31 62q1 13 1 47v15q0 81 -55.5 114.5t-177.5 33.5q-126 0 -179.5 -33.5t-53.5 -125.5z" />
    <glyph glyph-name="quotesingle" unicode="'" horiz-adv-x="339" 
d="M243 1099h-147v643h147v-643z" />
    <glyph glyph-name="parenleft" unicode="(" horiz-adv-x="575" 
d="M438 -88q-161 114 -271 362t-110 532q0 282 110 528.5t271 359.5l84 -239q-320 -225 -320 -649q0 -428 320 -654z" />
    <glyph glyph-name="parenright" unicode=")" horiz-adv-x="575" 
d="M54 152q320 226 320 654q0 424 -320 649l84 239q161 -113 271 -359.5t110 -528.5q0 -284 -110 -532t-271 -362z" />
    <glyph glyph-name="asterisk" unicode="*" horiz-adv-x="1026" 
d="M622 233h-217v201l-143 -142l-154 154l143 142h-201v217h200l-142 142l154 154l143 -143v202h217v-201l141 142l155 -154l-142 -142h200v-217h-201l143 -142l-155 -154l-141 141v-200z" />
    <glyph glyph-name="plus" unicode="+" horiz-adv-x="1008" 
d="M958 804v-294h-381v-308h-146v308h-381v294h381v307h146v-307h381z" />
    <glyph glyph-name="comma" unicode="," horiz-adv-x="376" 
d="M241 -241l-146 10l40 639l146 -10z" />
    <glyph glyph-name="hyphen" unicode="-" horiz-adv-x="760" 
d="M710 319v-146h-660v146h660z" />
    <glyph glyph-name="period" unicode="." horiz-adv-x="479" 
d="M239 3q-79 0 -134.5 56t-55.5 135t55.5 134.5t134.5 55.5t135 -55.5t56 -134.5q0 -80 -56 -135.5t-135 -55.5z" />
    <glyph glyph-name="slash" unicode="/" horiz-adv-x="1005" 
d="M233 -350l-138 49l678 1888l138 -49z" />
    <glyph glyph-name="zero" unicode="0" horiz-adv-x="1282" 
d="M241 708q0 -78 11 -123t46.5 -76.5t96 -42.5t164.5 -11h164q104 0 165 11t96 42.5t46 76t11 123.5v258q0 142 -80 221t-238 79h-164q-158 0 -238 -79t-80 -221v-258zM95 708v258q0 258 134.5 424t329.5 166h164q195 0 329.5 -166t134.5 -424v-258q0 -211 -52 -364.5
t-157 -239t-255 -85.5h-164q-224 0 -344 184.5t-120 504.5z" />
    <glyph glyph-name="one" unicode="1" horiz-adv-x="817" 
d="M633 -2h-146v1116h-309v436h455v-1552z" />
    <glyph glyph-name="two" unicode="2" horiz-adv-x="1275" 
d="M50 19v436h1v10l696 462q181 121 229.5 158.5t50.5 65.5q-2 57 -50.5 86t-169.5 29h-693v291h693q89 0 160 -34t114.5 -91.5t66.5 -128t25 -148.5v-6v-5q-1 -75 -21 -133.5t-65.5 -113t-104 -101t-155.5 -110.5l-349 -231h748v-436h-1176z" />
    <glyph glyph-name="three" unicode="3" horiz-adv-x="1028" 
d="M183 716v291h296q86 0 144 1.5t97.5 7.5t60 12t31.5 20t13 25.5t2 35.5q0 66 -22.5 98t-82 45.5t-181.5 13.5h-491v290h491q101 0 177.5 -23t124 -62t77 -97.5t41 -122t11.5 -142.5q0 -43 -4 -77t-17 -80t-44 -86.5t-78 -70.5q58 -30 91.5 -75t42.5 -86t9 -94v-32
q-3 -79 -16 -146.5t-44.5 -132t-78.5 -110t-121.5 -73t-170.5 -27.5h-491v436h491q125 0 188 9.5t80.5 26t17.5 48.5v1q0 38 -5 61t-24 46.5t-56 35.5t-102 20t-161 8v5h-296z" />
    <glyph glyph-name="four" unicode="4" horiz-adv-x="1169" 
d="M50 369v436h7l-3 7l742 748l2 -4v14h146v-765h176v-436h-176v-369h-146v369h-748zM352 805h446v449z" />
    <glyph glyph-name="five" unicode="5" horiz-adv-x="1114" 
d="M1059 655v-12v-7q-9 -617 -538 -617h-471v436h471q160 0 244 19t115 57.5t33 111.5q-1 28 -12.5 48.5t-39.5 39t-82 28t-133 9.5h-576v802h146v-13h738v-291h-738v-208h430q87 0 158 -25t116.5 -65.5t77 -94t45.5 -108t16 -110.5z" />
    <glyph glyph-name="six" unicode="6" horiz-adv-x="1105" 
d="M57 628q0 113 12 211t41 194.5t74.5 174t115.5 144.5t160.5 112.5t213.5 71t271 25.5v-217q-276 0 -435.5 -74.5t-232.5 -220.5q103 56 243 56h108q103 0 184 -36t131 -99t76.5 -143.5t29.5 -174.5v-11v-9q-2 -103 -18 -190t-55 -166.5t-98 -135t-151.5 -88.5t-210.5 -33
q-137 0 -242 81t-159 210t-58 282v34v2zM202 611q0 -69 75 -112.5t239 -43.5q159 0 242.5 19.5t113 57.5t31.5 110q-1 59 -23 94.5t-83 56.5t-169 21h-108q-318 0 -318 -188v-15z" />
    <glyph glyph-name="seven" unicode="7" horiz-adv-x="1205" 
d="M994 1570h154l-530 -1570h-154l376 1114h-790v436h937z" />
    <glyph glyph-name="eight" unicode="8" horiz-adv-x="1105" 
d="M1049 634v-12v-7q-3 -300 -119.5 -448t-374.5 -148q-259 0 -377 141.5t-121 414.5v31q0 222 146 339q-37 84 -40 195v23q0 179 89.5 287t246.5 108h82q86 0 151 -30.5t103 -84t57 -118.5t21 -141v-8v-6q-2 -121 -28 -197q81 -56 121 -146.5t43 -192.5zM202 592
q0 -57 29 -85.5t102 -40t222 -11.5q92 0 144.5 3t97 12t64.5 28t30.5 48.5t11.5 76.5q-1 31 -12 52.5t-39 40t-82 27.5t-134 9h-116q-162 0 -240 -38.5t-78 -107.5v-14zM309 1153q0 -60 43.5 -85t156.5 -25q86 0 133 4.5t77 20t39 40t10 68.5q-1 37 -14.5 55.5t-53 27
t-119.5 8.5h-82q-95 0 -142.5 -24t-47.5 -80v-10z" />
    <glyph glyph-name="nine" unicode="9" horiz-adv-x="1139" 
d="M1044 919q3 -57 0.5 -117t-4.5 -118.5t-13 -117t-26 -114t-44 -108.5t-65.5 -100.5t-91 -90t-121.5 -77t-156.5 -62t-195.5 -44.5l-23 214q253 41 380.5 120.5t174.5 205.5h-361q-85 0 -154 26t-113.5 69.5t-75.5 103t-44.5 122.5t-15.5 132v9v9q2 97 17.5 180t50 155.5
t86 123.5t127 80.5t170.5 29.5q226 0 354.5 -165t141.5 -466h2zM241 972q1 -36 19 -56t75 -32t163 -12h400q-1 48 -10.5 84.5t-24 62t-39.5 43t-50 28t-65 16t-75 7t-88 1.5q-174 0 -238 -31.5t-67 -110.5z" />
    <glyph glyph-name="colon" unicode=":" horiz-adv-x="510" 
d="M256 445l204 -204l-204 -205l-204 205zM50 682l205 204l204 -204l-205 -204z" />
    <glyph glyph-name="semicolon" unicode=";" horiz-adv-x="508" 
d="M255 932l204 -204l-205 -205l-204 205zM126 -231l40 639l146 -10l-40 -639z" />
    <glyph glyph-name="less" unicode="&#x3c;" horiz-adv-x="912" 
d="M805 203l-749 313v187l750 300l54 -135l-649 -259l650 -271z" />
    <glyph glyph-name="equal" unicode="=" horiz-adv-x="1008" 
d="M958 691v-146h-908v146h908zM50 188v146h908v-146h-908z" />
    <glyph glyph-name="greater" unicode="&#x3e;" horiz-adv-x="912" 
d="M107 203l-55 135l649 271l-649 259l54 135l751 -300v-187z" />
    <glyph glyph-name="question" unicode="?" horiz-adv-x="997" 
d="M795 905v6q0 84 -62 132t-192 48h-491v291h491q121 0 213.5 -67.5t139.5 -173.5t47 -230v-6q-1 -103 -28.5 -198.5t-76.5 -171.5t-126 -121.5t-169 -45.5h-181v-233h-145v669h326q250 0 254 101zM101 -151l204 204l205 -204l-204 -205z" />
    <glyph glyph-name="at" unicode="@" horiz-adv-x="1947" 
d="M1662 -276v-218h-1079q-150 0 -271 74t-188 202.5t-67 286.5v998q0 158 67 286.5t188 202.5t271 74h781q150 0 271.5 -74t189 -202.5t67.5 -286.5v-816q0 -166 -97.5 -278t-245.5 -112q-115 0 -201.5 70t-120.5 186q-112 -125 -314 -125h-77q-104 0 -179 20t-122.5 56
t-76 94.5t-40 126t-13.5 160.5v15q0 12 1 19q2 47 9 86t22.5 82t45 75.5t72 59.5t107.5 41.5t148 14.5h398q-1 46 -17 70t-60 35.5t-129 11.5h-519v218h519q166 0 258 -85t93 -250v-591q0 -172 196 -172q197 0 197 172v816q0 158 -101 251.5t-281 93.5h-781
q-180 0 -280.5 -93.5t-100.5 -251.5v-998q0 -158 100.5 -251.5t280.5 -93.5h1079zM551 469q1 -30 43 -35.5t242 -5.5h77q163 0 229 23t66 80v20h-398q-63 0 -100.5 -1t-69.5 -4t-46.5 -8t-25.5 -15t-13.5 -22t-3.5 -32z" />
    <glyph glyph-name="A" unicode="A" horiz-adv-x="1565" 
d="M1503 0h-291l-97 508h-517l-95 -508h-434l215 1153q14 76 39.5 136.5t56 102.5t72.5 72.5t82.5 48t93.5 28t98 14t103 3.5h6h9q207 -4 303 -99.5t135 -304.5zM625 654h462l-90 472q-33 172 -50 214q-23 55 -70 67q-19 4 -44 5q-48 -1 -63 -37t-53 -233l-3 -15z" />
    <glyph glyph-name="B" unicode="B" horiz-adv-x="1032" 
d="M458 1557q99 0 174 -28t117.5 -69t69 -98.5t35.5 -104.5t11 -100h1v-16q0 -9 -1 -13q-3 -128 -40 -217q139 -110 150 -338h1v-18q0 -9 -1 -14q-7 -263 -136.5 -392t-402.5 -129h-234v-20h-145v1557h401zM202 455h234q203 0 294.5 26.5t98.5 81.5q-3 52 -26.5 82t-93 48
t-195.5 18h-312v-256zM202 1002h312q43 0 67 1.5t54 9t45.5 22.5t27 42.5t12.5 67.5q-1 27 -5.5 43.5t-19.5 33t-43.5 25t-76 14t-117.5 5.5h-256v-264z" />
    <glyph glyph-name="C" unicode="C" horiz-adv-x="1006" 
d="M956 3h-156q-118 0 -208 7.5t-166.5 26t-130 47t-96.5 74.5t-69 102.5t-43 138t-23.5 175t-6.5 217.5v5q0 89 4.5 159.5t15 139.5t28.5 122.5t46 102.5t66.5 85t89.5 65.5t116 47.5t146.5 27.5t179.5 9.5h159v-291h-159q-80 0 -140.5 -2t-114 -9t-90.5 -14.5t-69 -24.5
t-52 -34t-36 -47.5t-24 -59t-13 -76t-6.5 -91t-1.5 -110.5v-5v-94.5t6.5 -74.5t10 -60.5t25 -43.5t35 -33.5t57 -20.5t74 -15t102.5 -6t126.5 -4h161.5h156v-436z" />
    <glyph glyph-name="D" unicode="D" horiz-adv-x="1118" 
d="M202 0h-145v1570h146v-13h211q171 0 298 -50.5t202.5 -144t112 -217.5t36.5 -281v-101v-31v-8q-2 -126 -24.5 -230t-71.5 -193.5t-123 -151t-184.5 -96t-250.5 -34.5h-207v-19zM202 455h207q193 0 302.5 29.5t156.5 91.5t49 169v119q0 145 -45 230.5t-155.5 128.5
t-302.5 43h-211z" />
    <glyph glyph-name="E" unicode="E" horiz-adv-x="1111" 
d="M1062 455v-436h-579q-79 0 -144 22t-110.5 62.5t-79.5 93.5t-53.5 119t-29 135t-9.5 145v961h1004v-291h-859v-325h763v-146h-763v-199q0 -36 5.5 -57.5t21 -39.5t48 -26.5t81 -13t125.5 -4.5h579z" />
    <glyph glyph-name="F" unicode="F" horiz-adv-x="940" 
d="M202 0h-145v1570h146v-16h687v-365h-687v-390h590v-217h-591v-582z" />
    <glyph glyph-name="G" unicode="G" horiz-adv-x="1236" 
d="M657 19q-65 2 -125 13.5t-121 38t-112.5 66.5t-97 102t-77 140.5t-49.5 186t-18 234.5v5q0 357 164 554t458 197q64 -1 118 -7t76 -10.5t88.5 -22t88.5 -23.5l-36 -281q-22 5 -63 16t-62 15.5t-58.5 11t-80.5 9t-100 2.5q-232 -6 -340 -115t-108 -346v-5
q0 -188 116 -266.5t358 -78.5h39q127 0 198.5 19t96.5 52t25 88v109h-427v218h427v9h145v-336q0 -119 -26.5 -222.5t-80.5 -188.5t-146 -134.5t-212 -49.5h-58z" />
    <glyph glyph-name="H" unicode="H" horiz-adv-x="1141" 
d="M202 0h-145v1570h146v-589h737v589h146l-1 -1570h-145v546h-738v-546z" />
    <glyph glyph-name="I" unicode="I" horiz-adv-x="494" 
d="M320 0h-146l1 1570h146z" />
    <glyph glyph-name="J" unicode="J" horiz-adv-x="735" 
d="M50 157q122 0 203 11.5t137.5 35.5t87 69t43 104.5t12.5 149.5v1043h146v-1043q0 -368 -148 -550.5t-481 -182.5v363z" />
    <glyph glyph-name="K" unicode="K" horiz-adv-x="1139" 
d="M202 0h-145v1570h146v-592l723 609l93 -112l-604 -508h49q164 0 284 -51.5t193 -151t107.5 -235.5t34.5 -314v-215h-146v215q0 114 -19.5 184.5t-73.5 118t-144 66t-236 18.5h-262v-602z" />
    <glyph glyph-name="L" unicode="L" horiz-adv-x="842" 
d="M792 455v-436h-223q-126 0 -217.5 28t-148 76.5t-89.5 126t-45 162.5t-12 201v957h146l-1 -957q0 -31 1 -48.5t7.5 -36.5t15 -28t29 -19t44 -14t65.5 -7.5t88 -4t117 -0.5h223z" />
    <glyph glyph-name="M" unicode="M" horiz-adv-x="1662" 
d="M57 1570h403l473 -1332l459 1332h214v-1570h-145v1251l-431 -1251h-398l-430 1205l1 -1205h-146v1570z" />
    <glyph glyph-name="N" unicode="N" horiz-adv-x="1277" 
d="M58 1570h411l599 -1270v1270h146v-1570h-405l-605 1280l2 -1280h-146z" />
    <glyph glyph-name="O" unicode="O" horiz-adv-x="1134" 
d="M933 969q0 153 -69.5 225t-224.5 72h-143q-93 0 -152.5 -19t-90 -60t-41 -91t-10.5 -127v-289q0 -55 5 -87t21 -62t48 -44.5t85.5 -23t134.5 -8.5h143q68 0 116 5t81 18t52 28t29 43.5t13 56.5t3 74v289zM57 680v289q0 87 13 166.5t45 158t80.5 135.5t125.5 92.5
t175 35.5h143q194 0 317 -162.5t123 -425.5v-289q0 -95 -13 -184.5t-45.5 -177.5t-81 -153t-126 -105.5t-174.5 -40.5h-143q-96 0 -173.5 40.5t-126 105.5t-81 153t-45.5 177.5t-13 184.5z" />
    <glyph glyph-name="P" unicode="P" horiz-adv-x="1021" 
d="M819 1040q0 131 -44.5 178.5t-165.5 47.5h-406v-258q2 -24 11.5 -38t28.5 -24.5t60.5 -15.5t96 -7t145.5 -2h6q178 0 223 15.5t45 94.5v9zM57 1035v136v386h552q152 0 250 -125t105 -357h1v-35v-9q0 -264 -100.5 -405t-319.5 -141q-229 0 -341 91v-576h-146l-1 971v64z
" />
    <glyph glyph-name="Q" unicode="Q" horiz-adv-x="1274" 
d="M933 969q0 153 -69.5 225t-224.5 72h-143q-93 0 -152.5 -19t-90 -60t-41 -91t-10.5 -127v-289q0 -55 5 -87t21 -62t48 -44.5t85.5 -23t134.5 -8.5h143q62 0 88 2l-106 147l118 85l139 -191q33 24 44 66t11 116v289zM57 680v289q0 87 13 166.5t45 158t80.5 135.5
t125.5 92.5t175 35.5h143q194 0 317 -162.5t123 -425.5v-289q0 -210 -62 -372l203 -278l-118 -85l-162 221q-114 -147 -301 -147h-143q-96 0 -173.5 40.5t-126 105.5t-81 153t-45.5 177.5t-13 184.5z" />
    <glyph glyph-name="R" unicode="R" horiz-adv-x="1180" 
d="M1125 52l-102 -104l-615 608h-204v-556h-146v556h-1v614v380h492q98 0 170.5 -26.5t118.5 -73t74.5 -118t40 -151t12.5 -183.5v-27q0 -81 -18.5 -148t-58 -124.5t-110 -93.5t-167.5 -45zM203 1114v-267h342q146 0 210 29t64 95v1q0 107 -33 124.5t-231 17.5h-6h-346z" />
    <glyph glyph-name="S" unicode="S" horiz-adv-x="1087" 
d="M1031 577v-2v-2v-26q-8 -353 -224 -468.5t-708 -27.5v434q386 -71 585.5 -46.5t201.5 136.5q-1 40 -26 64t-94 38t-190 14q-120 1 -212 24t-147.5 58.5t-91.5 88t-50.5 105t-17.5 115.5v21v16q3 80 16.5 142.5t46.5 108t65 77.5t98 52.5t117 32.5t150 17.5t169.5 6.5
t201.5 1v-291h-132q-94 1 -173.5 0.5t-143.5 -4.5t-113 -14.5t-82.5 -28.5t-52 -47.5t-21.5 -71.5q3 -39 29 -59t110 -32.5t244 -12.5q103 -1 182.5 -26t128 -64t79.5 -95t43 -112.5t12 -121.5z" />
    <glyph glyph-name="T" unicode="T" horiz-adv-x="1071" 
d="M608 0h-146l1 1189h-463v364h1072v-364h-463z" />
    <glyph glyph-name="U" unicode="U" horiz-adv-x="1286" 
d="M1085 1570h146v-879q0 -148 -30.5 -268t-93 -211.5t-164.5 -141.5t-237 -50h-125q-135 0 -236.5 50t-164 141t-93 211.5t-30.5 268.5v879h145v-879q0 -130 85 -183t294 -53h125q209 0 294 53t85 183v879z" />
    <glyph glyph-name="V" unicode="V" horiz-adv-x="1491" 
d="M534 0l-465 1570h447l395 -1333l374 1333h151l-441 -1570h-461z" />
    <glyph glyph-name="W" unicode="W" horiz-adv-x="2017" 
d="M237 0l-167 1570h437l130 -1220l353 1210h311l398 -1370l116 1380h145l-132 -1570h-377l-382 1315l-383 -1315h-449z" />
    <glyph glyph-name="X" unicode="X" horiz-adv-x="1616" 
d="M1280 1612l118 -85l-410 -574l54 -49q91 -82 149.5 -142t119.5 -140t99.5 -161t71 -189.5t52.5 -241.5l-303 -60q-14 91 -32.5 156t-43 118.5t-72.5 111t-100 109.5t-147 138l-59 53l-500 -699l-118 86l509 711l-609 549l206 303l615 -555z" />
    <glyph glyph-name="Y" unicode="Y" horiz-adv-x="1377" 
d="M809 0h-145v551q-289 48 -399 398l-199 621h375l170 -533q39 -123 66 -162t82 -40h8q74 -1 112 24.5t56 79.5l216 631h170l-249 -725q-92 -272 -263 -299v-546z" />
    <glyph glyph-name="Z" unicode="Z" horiz-adv-x="1482" 
d="M1280 1197q-1 37 -52 52.5t-179 15.5h-924v291h924q357 0 376 -330v-51q0 -67 -26.5 -120.5t-79 -93.5t-112.5 -68.5t-145 -56.5l-557 -186q-142 -48 -219 -82.5t-83 -67.5q2 -32 57.5 -38.5t303.5 -6.5h846v-435h-846q-107 0 -186.5 12t-135 38.5t-91 61t-56 88.5
t-28.5 111.5t-10 138.5v25v6v18q4 56 30 103t61.5 80t92 63.5t104 49t115.5 41.5l556 187q135 45 199.5 76t64.5 56v22z" />
    <glyph glyph-name="bracketleft" unicode="[" horiz-adv-x="605" 
d="M555 51v-436h-498v1976h498v-436h-353v-1104h353z" />
    <glyph glyph-name="backslash" unicode="\" horiz-adv-x="1005" 
d="M773 -350l-678 1888l138 49l678 -1888z" />
    <glyph glyph-name="bracketright" unicode="]" horiz-adv-x="605" 
d="M50 51h353v1104h-353v436h499v-1976h-499v436z" />
    <glyph glyph-name="asciicircum" unicode="^" horiz-adv-x="882" 
d="M827 913l-123 -77l-262 417l-263 -417l-123 77l322 512h127z" />
    <glyph glyph-name="underscore" unicode="_" horiz-adv-x="1116" 
d="M1066 -152v-146h-1016v146h1016z" />
    <glyph glyph-name="grave" unicode="`" horiz-adv-x="316" 
d="M278 997l-140 -48l-131 395l139 48z" />
    <glyph glyph-name="a" unicode="a" horiz-adv-x="1095" 
d="M712 1076h146v-593q0 -118 57 -163t159 -45v-291q-49 0 -99.5 15.5t-108 62t-93.5 118.5q-98 -163 -326 -163q-90 0 -159 29t-111 75.5t-69 114.5t-37.5 135.5t-13.5 149.5v24v32h1q12 225 118 351t271 126q161 0 265 -109v131zM202 541q1 -64 38 -76t207 -12
q184 0 220 10.5t37 69.5q-1 59 -11.5 98.5t-37.5 71t-78 46t-130 14.5q-132 0 -186.5 -49.5t-58.5 -172.5z" />
    <glyph glyph-name="b" unicode="b" horiz-adv-x="991" 
d="M202 0h-145v1570h145v-609q64 63 144 96.5t159 33.5h27q183 0 293 -134.5t110 -354.5v-27q0 -258 -105 -407t-302 -149h-86q-142 0 -240 109v-128zM202 594q0 -57 18.5 -85t69.5 -41t152 -13h86h25q45 0 66.5 0.5t55 3.5t49.5 10.5t33.5 20.5t24.5 34t7 51v27
q0 104 -59.5 151t-197.5 47h-27q-125 0 -214 -57.5t-89 -148.5z" />
    <glyph glyph-name="c" unicode="c" horiz-adv-x="902" 
d="M202 616q0 -130 165 -175.5t486 10.5v-435q-780 -133 -796 571v29v2q0 83 26.5 165t83.5 159t145.5 123.5t213 58.5t286.5 -35v-291q-118 38 -220.5 46t-172.5 -9.5t-120 -51.5t-73.5 -77t-23.5 -88v-2z" />
    <glyph glyph-name="d" unicode="d" horiz-adv-x="991" 
d="M789 0v128q-98 -109 -240 -109h-85q-197 0 -302 149t-105 407v27q0 220 110 354.5t293 134.5h26q79 0 159 -33.5t144 -96.5v609h146v-1570h-146zM202 575q0 -25 7 -44.5t15 -32t28.5 -21.5t34 -13t46 -6.5t49 -2.5h57.5h25h85q101 0 152 13t69.5 41t18.5 85
q0 91 -89 148.5t-214 57.5h-26q-138 0 -198 -47t-60 -151v-27z" />
    <glyph glyph-name="e" unicode="e" horiz-adv-x="886" 
d="M825 731v-8v-9q-2 -60 -18.5 -108t-52 -89t-99.5 -63t-152 -21l-295 7q16 -61 73.5 -95.5t139.5 -40t174 6.5t186 41l42 -314q-127 -39 -238 -49.5t-209 12t-168 79.5t-110.5 160.5t-40.5 247.5v141q0 116 31 209.5t83.5 154t122 92.5t147.5 32q195 0 287.5 -104.5
t96.5 -281.5zM204 659l302 -6q78 -2 113 3.5t47 18.5t13 44q-3 61 -64 84.5t-174 23.5q-220 0 -237 -168z" />
    <glyph glyph-name="f" unicode="f" horiz-adv-x="873" 
d="M823 1550v-436h-185q-120 0 -175 -11t-71.5 -34t-16.5 -76v-138h415v-291h-415v-560h-146v560h-179v291h179v138q0 88 12 165.5t42 151t75.5 125.5t117 83.5t162.5 31.5h185z" />
    <glyph glyph-name="g" unicode="g" horiz-adv-x="975" 
d="M224 -212q218 0 335 37t165 119.5t49 236.5q-99 -161 -324 -161q-90 0 -158.5 28.5t-111 74.5t-70 114t-38.5 136.5t-14 152.5v25v32h1q13 227 119.5 352.5t271.5 125.5q217 0 324 -189v186h146v-873q0 -362 -171 -525t-524 -163v291zM202 546q1 -66 38.5 -78.5
t208.5 -12.5q185 0 221.5 11t37.5 72q-1 60 -11.5 99.5t-38 71.5t-79 46.5t-130.5 14.5q-132 0 -187.5 -50t-59.5 -174z" />
    <glyph glyph-name="h" unicode="h" horiz-adv-x="991" 
d="M202 0h-145v1570h145v-591q63 76 143 115t160 39h27q91 0 160 -29.5t115 -82t75 -131t41 -170t12 -205.5v-515h-146v515q0 48 -1 76.5t-5.5 59t-10.5 45.5t-20.5 30.5t-31 22t-46 12t-61.5 6.5t-81 1h-27q-303 0 -303 -271v-497z" />
    <glyph glyph-name="i" unicode="i" horiz-adv-x="508" 
d="M337 0h-146v1058h146v-1058zM50 1328l205 204l204 -204l-205 -205z" />
    <glyph glyph-name="j" unicode="j" horiz-adv-x="864" 
d="M50 -212q196 0 298.5 36t144 119t41.5 242v873h146v-873q0 -169 -33.5 -293.5t-107 -214.5t-195.5 -135t-294 -45v291zM405 1328l204 204l204 -204l-204 -205z" />
    <glyph glyph-name="k" unicode="k" horiz-adv-x="1015" 
d="M202 0h-145v1570h146v-779h103l504 451l97 -108l-387 -347q432 -41 432 -617v-170h-146v170q0 80 -13 126t-53.5 77.5t-108 42.5t-183.5 11h-246v-427z" />
    <glyph glyph-name="l" unicode="l" horiz-adv-x="629" 
d="M580 455v-436h-71q-91 0 -158 19.5t-125 70.5t-93.5 137.5t-55.5 223.5t-20 325v775h146l-1 -775q0 -103 -0.5 -145t13 -92.5t23.5 -62t56.5 -26t83.5 -14.5h131h71z" />
    <glyph glyph-name="m" unicode="m" horiz-adv-x="1723" 
d="M202 0h-145v1118h145v-172q61 74 139 112t157 38h25q259 0 354 -238q64 117 162 177.5t200 60.5h25q203 0 303.5 -162.5t100.5 -455.5v-478h-146v478q0 57 -3 92.5t-13.5 66.5t-26.5 47.5t-46.5 28t-69.5 15.5t-99 4h-25q-304 0 -304 -271v-461h-146v478q0 62 -2 97
t-12 67.5t-25.5 47t-48 26t-72.5 14t-106 2.5h-25q-44 0 -79.5 -4.5t-78 -21t-71 -44.5t-48 -79.5t-19.5 -121.5v-461z" />
    <glyph glyph-name="n" unicode="n" horiz-adv-x="991" 
d="M202 0h-145v1118h145v-168q63 76 143 115t160 39h27q113 0 192.5 -44t125 -128.5t65.5 -193t20 -251.5v-487h-146v487q0 48 -1 76.5t-5.5 59t-10.5 45.5t-20.5 30.5t-31 22t-46 12t-61.5 6.5t-81 1h-27q-303 0 -303 -271v-469z" />
    <glyph glyph-name="o" unicode="o" horiz-adv-x="1028" 
d="M971 639q4 -151 -17 -261.5t-71.5 -193t-140 -124t-219.5 -41.5q-113 0 -195.5 28t-135.5 78t-84 129t-42 171t-9 214v2q0 134 35.5 233.5t100 158t147 86t183.5 27.5q215 0 329 -133.5t119 -369.5v-4zM202 605q-1 -111 43.5 -130.5t277.5 -19.5q223 0 264 20t39 132h-1
v32q-2 119 -72 167.5t-230 48.5q-182 0 -251.5 -46.5t-69.5 -167.5v-36z" />
    <glyph glyph-name="p" unicode="p" horiz-adv-x="986" 
d="M784 602q0 102 -52 141t-201 39h-328v-265q4 -42 33.5 -50t152.5 -7h76q198 0 258.5 23.5t60.5 108.5v10zM57 561v125v386h474q187 0 288.5 -116t109.5 -319h1v-35v-10q0 -568 -465 -568q-168 0 -261 73v-582h-146l-1 982v19.5v24v20.5z" />
    <glyph glyph-name="q" unicode="q" horiz-adv-x="1180" 
d="M1130 -180v-293h-348v611q-106 -118 -312 -118q-96 0 -168.5 28.5t-117 74.5t-73 114t-40 136t-14.5 152v24v31h1q12 227 122.5 353.5t289.5 126.5q201 0 312 -144v143h145v-1239h203zM202 545q2 -65 42.5 -77.5t225.5 -12.5q201 0 240 11t40 71q-1 59 -12.5 98.5
t-41 71.5t-85.5 47t-141 15q-143 0 -203.5 -50t-64.5 -174z" />
    <glyph glyph-name="r" unicode="r" horiz-adv-x="643" 
d="M202 0h-145v1070h145v-175q70 84 155.5 122t147.5 38h89v-364h-89q-39 0 -74.5 -5t-79.5 -22.5t-75 -46.5t-52.5 -82.5t-21.5 -125.5v-409z" />
    <glyph glyph-name="s" unicode="s" horiz-adv-x="847" 
d="M792 448v-1v-1v-18q-2 -73 -17 -134t-46 -116t-84 -92.5t-125.5 -59.5t-176 -20.5t-230.5 28.5v363q105 -24 194.5 -34t150.5 -7t104 15.5t63.5 32t20.5 43.5q-1 52 -53.5 78t-177.5 26v1q-81 2 -144.5 20.5t-101.5 46.5t-63 66t-35.5 74.5t-12.5 77.5h-1v15q0 7 1 11
q3 66 20.5 116t42 84.5t72.5 57.5t90 35.5t117.5 18.5t132 7.5t155.5 1.5v-218q-250 0 -285 -2q-140 -8 -178 -57q-18 -22 -21 -57q3 -44 49.5 -62t183.5 -18v-1q177 -6 265.5 -96.5t89.5 -224.5z" />
    <glyph glyph-name="t" unicode="t" horiz-adv-x="877" 
d="M827 1076v-218h-400v-167q0 -183 12 -232q15 -56 62 -72q39 -13 178 -10q92 1 134 1v-364q-79 0 -145 9t-116 26t-90.5 40.5t-67.5 53.5t-48.5 65t-32.5 74.5t-19 82.5t-9.5 88t-3.5 92t0 94v52v167h-231v218h231v494h146v-494h400z" />
    <glyph glyph-name="u" unicode="u" horiz-adv-x="1099" 
d="M683 1080h146v-4h4v-593q0 -118 57 -163t159 -45v-291q-50 0 -100.5 16t-108.5 63.5t-94 121.5q-94 -166 -288 -166h-30q-371 0 -371 594v467h145v-467v-43t2.5 -34t3 -27t9.5 -19.5t13 -15.5t21.5 -9t27.5 -6.5t39.5 -2t48 -1.5h61.5h30h96t61 7t41 12t17 28.5t10 43
v67.5v467z" />
    <glyph glyph-name="v" unicode="v" horiz-adv-x="1058" 
d="M615 12h-6h-3l-25 1q-137 6 -212.5 71.5t-112.5 217.5l-193 778h302l175 -707q12 -50 21 -58.5t49 -8.5q35 0 43 8.5t20 56.5l171 709h157l-188 -778q-33 -136 -80 -210.5t-118 -79.5z" />
    <glyph glyph-name="w" unicode="w" horiz-adv-x="1717" 
d="M1370 305l139 775h152l-191 -1066h-296l-250 748l-336 -743h-260l-263 1061h308l155 -625h44l259 576l5 -7l-2 7h238l243 -726h55z" />
    <glyph glyph-name="x" unicode="x" horiz-adv-x="1294" 
d="M973 1080h190l-345 -415q82 -69 140 -129t116 -141t97 -179.5t60 -215.5h-312q-32 131 -99.5 220t-204.5 203l-353 -423h-190l431 517l-444 373l197 245l449 -376z" />
    <glyph glyph-name="y" unicode="y" horiz-adv-x="884" 
d="M683 1083h146v-918q0 -361 -171 -524.5t-524 -163.5v291q203 0 317 31.5t167.5 102.5t62.5 199q-85 -82 -223 -82h-30q-371 0 -371 594v470h145v-470v-43t2.5 -34t3 -27t9.5 -19.5t13 -15.5t21.5 -9t27.5 -6.5t39.5 -2t48 -1.5h61.5h30h96t61 7t41 12t17 28.5t10 43v67.5
v470z" />
    <glyph glyph-name="z" unicode="z" horiz-adv-x="1069" 
d="M859 864q0 16 -24.5 22t-102.5 6h-623v218h623q259 0 272 -227v-33q0 -203 -259 -276l-363 -102q-67 -19 -119 -39.5t-58 -28.5q2 -17 35 -20.5t175 -3.5h595v-364h-595q-87 0 -149.5 16.5t-101.5 46t-62.5 77.5t-32.5 102t-11 129v15v4q0 8 1 12q3 53 28.5 97.5t67 76
t87.5 53.5t100 37l364 102q153 42 153 66v14z" />
    <glyph glyph-name="braceleft" unicode="{" horiz-adv-x="942" 
d="M892 -20v-294h-117q-114 0 -203 65t-134.5 168t-45.5 223v152l-327 309l327 309v152q0 121 46 224t134.5 167.5t202.5 64.5h117v-294h-117q-237 0 -237 -162v-323l-147 -138l147 -139v-322q0 -162 237 -162h117z" />
    <glyph glyph-name="bar" unicode="|" horiz-adv-x="536" 
d="M341 158h-146v1428h146v-1428z" />
    <glyph glyph-name="braceright" unicode="}" horiz-adv-x="942" 
d="M167 -20q237 0 237 162v322l147 139l-147 138v323q0 162 -237 162h-117v294h117q114 0 202.5 -64.5t134.5 -167.5t46 -224v-152l327 -309l-327 -309v-152q0 -120 -45.5 -223t-134.5 -168t-203 -65h-117v294h117z" />
    <glyph glyph-name="asciitilde" unicode="~" horiz-adv-x="1211" 
d="M1156 632q-85 -111 -183 -166t-207.5 -45t-214.5 92q-132 105 -209 90.5t-157 -167.5l-129 67q218 412 584 125q116 -85 208 -62t192 155z" />
    <glyph glyph-name="uni00A0" unicode="&#xa0;" horiz-adv-x="261" 
 />
    <glyph glyph-name="exclamdown" unicode="&#xa1;" horiz-adv-x="508" 
d="M255 1022l-205 204l204 205l205 -205zM182 -230v1120h146v-1120h-146z" />
    <glyph glyph-name="cent" unicode="&#xa2;" horiz-adv-x="1006" 
d="M956 3h-156q-43 0 -113 2v-174h-146v185q-100 12 -172.5 36t-127.5 67t-89.5 100t-56 143t-30 187.5t-8.5 241.5v5q0 100 5.5 177.5t19 152.5t37 131t60 105.5t87.5 84t119.5 59t155.5 36.5v177h146v-165q20 1 62 1h159v-291h-159h-62v-825h113h156v-436zM202 791
q0 -87 1.5 -126.5t12.5 -88t29.5 -65.5t59 -36.5t95 -24.5t141.5 -8v816q-60 -5 -105.5 -12.5t-81 -23t-59.5 -32t-41.5 -46.5t-27.5 -59.5t-15.5 -78t-7 -94.5t-1.5 -116v-5z" />
    <glyph glyph-name="sterling" unicode="&#xa3;" horiz-adv-x="1132" 
d="M208 0h-146v487q116 120 145 162.5t32 105.5h-160v218h161l1 600h146v-12h695v-291h-695l-1 -297h441v-218h-442q-7 -162 -53 -300h751v-436h-875v-19z" />
    <glyph glyph-name="currency" unicode="&#xa4;" horiz-adv-x="1349" 
d="M671 464q132 0 211 72t79 182t-79 182t-211 72t-210.5 -71.5t-78.5 -182.5t78.5 -182.5t210.5 -71.5zM54 1222l102 105l247 -237q118 99 268 99q153 0 272 -103l251 241l101 -105l-258 -248q70 -118 70 -256q0 -149 -80 -271l267 -256l-100 -105l-263 254
q-115 -93 -260 -93q-142 0 -256 90l-260 -251l-100 105l263 252q-82 121 -82 275q0 143 72 260z" />
    <glyph glyph-name="yen" unicode="&#xa5;" horiz-adv-x="1516" 
d="M1300 556v-146h-350v-86h350v-145h-350v-205h-146v205h-287v145h287v86h-287v146h244l-700 783l268 292l637 -712l365 705l130 -99l-503 -969h342z" />
    <glyph glyph-name="brokenbar" unicode="&#xa6;" horiz-adv-x="335" 
d="M241 725h-146v505h146v-505zM95 12v506h146v-506h-146z" />
    <glyph glyph-name="section" unicode="&#xa7;" horiz-adv-x="1146" 
d="M696 589q185 0 216 12.5t31 86.5v25q-6 38 -45 47.5t-176 12.5h-298q-166 -1 -194 -11.5t-28 -72.5q0 -67 30 -79t211 -16l253 -6v1zM57 689q0 157 45 238q-45 82 -45 236q0 61 6.5 109t21.5 91.5t42 74.5t67.5 54t97.5 34.5t132 11.5h546v-290h-546q-166 0 -194 -11
t-28 -74q0 -67 30 -79t211 -16l242 -5h38h2q78 -2 139 -18t99 -42t65.5 -60.5t38.5 -73t18.5 -80t5 -81t-1.5 -75.5h-1q-5 -127 -41 -195q52 -94 41 -280q-2 -58 -7 -104.5t-17.5 -92.5t-31.5 -81t-49 -65.5t-70 -49.5t-94.5 -30t-122.5 -11h-544v436h544q185 0 216 6.5
t31 45.5v26q-6 38 -45 47.5t-176 11.5l-282 7q-93 2 -160.5 20t-110.5 49t-68 80t-34.5 105t-9.5 131z" />
    <glyph glyph-name="dieresis" unicode="&#xa8;" horiz-adv-x="731" 
d="M164 1316l163 -163l-164 -164l-163 164zM373 1152l164 164l163 -164l-164 -164z" />
    <glyph glyph-name="copyright" unicode="&#xa9;" horiz-adv-x="1789" 
d="M591 551q0 -104 132 -140.5t389 7.5v-348q-625 -106 -638 458v23q0 67 21.5 132.5t67 127t116.5 99t170.5 47t229.5 -27.5v-233q-95 30 -177 36.5t-137.5 -7.5t-96 -41.5t-59 -62t-18.5 -70.5zM57 543q0 186 66.5 355t179 290.5t267.5 193.5t325 72t325 -72t267.5 -193.5
t179 -290.5t66.5 -355t-66.5 -355.5t-179 -291t-267.5 -193.5t-325 -72t-325 72t-267.5 193.5t-179 291t-66.5 355.5zM202 543q0 -127 50.5 -241t140 -198t220 -133t282.5 -49t282.5 49t219.5 133t139.5 198t50.5 241t-50.5 241t-139.5 197.5t-219.5 132.5t-282.5 49
t-282.5 -49t-220 -132.5t-140 -197.5t-50.5 -241z" />
    <glyph glyph-name="ordfeminine" unicode="&#xaa;" horiz-adv-x="1095" 
d="M712 1076h146v-593q0 -118 57 -163t159 -45v-291q-49 0 -99.5 15.5t-108 62t-93.5 118.5q-98 -163 -326 -163q-90 0 -159 29t-111 75.5t-69 114.5t-37.5 135.5t-13.5 149.5v24v32h1q12 225 118 351t271 126q161 0 265 -109v131zM202 541q1 -64 38 -76t207 -12
q184 0 220 10.5t37 69.5q-1 59 -11.5 98.5t-37.5 71t-78 46t-130 14.5q-132 0 -186.5 -49.5t-58.5 -172.5z" />
    <glyph glyph-name="guillemotleft" unicode="&#xab;" horiz-adv-x="1449" 
d="M1397 129l-97 -112l-648 553l648 558l97 -111l-517 -447zM61 570l648 558l96 -111l-517 -447l517 -441l-96 -112z" />
    <glyph glyph-name="logicalnot" unicode="&#xac;" horiz-adv-x="1178" 
d="M1122 153h-146v327h-926v291h1072v-618z" />
    <glyph glyph-name="uni00AD" unicode="&#xad;" horiz-adv-x="760" 
d="M710 319v-146h-660v146h660z" />
    <glyph glyph-name="registered" unicode="&#xae;" horiz-adv-x="1046" 
d="M523 541q177 0 287 97t110 237t-110 237t-287 97t-286.5 -97t-109.5 -237t109.5 -237t286.5 -97zM53 875q0 147 64 270t171.5 192.5t234.5 69.5t235 -69.5t172 -192.5t64 -270t-64 -270t-172 -193t-235 -70t-234.5 70t-171.5 193t-64 270zM365 646v487h154
q73 0 101 -44.5t30 -129.5v-9q0 -118 -111 -129l161 -159l-32 -33l-194 191h-64v-174h-45zM410 912h108q46 0 66 8.5t20 29.5v1q0 33 -11 38.5t-74 5.5h-109v-83z" />
    <glyph glyph-name="macron" unicode="&#xaf;" horiz-adv-x="742" 
d="M723 1174v-146h-723v146h723z" />
    <glyph glyph-name="degree" unicode="&#xb0;" horiz-adv-x="865" 
d="M433 1090q104 0 152.5 11t63.5 35t15 76t-15 76t-63.5 35t-152.5 11t-152.5 -11t-63.5 -35t-15 -76t15 -76t63.5 -35t152.5 -11zM57 1212q0 78 11.5 147t39.5 132t70 108t107.5 71.5t147.5 26.5q103 0 178 -40t117 -110t61.5 -153t19.5 -182t-19.5 -182t-61.5 -153
t-117 -110t-178 -40t-178 40t-117 110t-61.5 153t-19.5 182z" />
    <glyph glyph-name="plusminus" unicode="&#xb1;" horiz-adv-x="1008" 
d="M958 922v-293h-381v-308h-146v308h-381v293h381v308h146v-308h381zM50 117v146h908v-146h-908z" />
    <glyph glyph-name="uni00B2" unicode="&#xb2;" horiz-adv-x="1275" 
d="M50 19v436h1v10l696 462q181 121 229.5 158.5t50.5 65.5q-2 57 -50.5 86t-169.5 29h-693v291h693q89 0 160 -34t114.5 -91.5t66.5 -128t25 -148.5v-6v-5q-1 -75 -21 -133.5t-65.5 -113t-104 -101t-155.5 -110.5l-349 -231h748v-436h-1176z" />
    <glyph glyph-name="uni00B3" unicode="&#xb3;" horiz-adv-x="1028" 
d="M183 716v291h296q86 0 144 1.5t97.5 7.5t60 12t31.5 20t13 25.5t2 35.5q0 66 -22.5 98t-82 45.5t-181.5 13.5h-491v290h491q101 0 177.5 -23t124 -62t77 -97.5t41 -122t11.5 -142.5q0 -43 -4 -77t-17 -80t-44 -86.5t-78 -70.5q58 -30 91.5 -75t42.5 -86t9 -94v-32
q-3 -79 -16 -146.5t-44.5 -132t-78.5 -110t-121.5 -73t-170.5 -27.5h-491v436h491q125 0 188 9.5t80.5 26t17.5 48.5v1q0 38 -5 61t-24 46.5t-56 35.5t-102 20t-161 8v5h-296z" />
    <glyph glyph-name="acute" unicode="&#xb4;" horiz-adv-x="316" 
d="M7 997l131 395l140 -48l-132 -395z" />
    <glyph glyph-name="uni00B5" unicode="&#xb5;" horiz-adv-x="1338" 
d="M203 -339h-146v921v36v31v570h146v-616q16 -148 307 -148h16q163 0 236 45t73 118v601h146v-601q0 -73 72.5 -118t235.5 -45v-436q-127 0 -224.5 71.5t-156.5 193.5q-59 -122 -157 -193.5t-225 -71.5h-16q-185 0 -307 150v-508z" />
    <glyph glyph-name="paragraph" unicode="&#xb6;" horiz-adv-x="1028" 
d="M969 0h-217v1644h217v-1644zM50 939v706h468v-1h77v-1644h-146v939h-399z" />
    <glyph glyph-name="periodcentered" unicode="&#xb7;" 
d="M201 194q-80 0 -135.5 55.5t-55.5 134.5t55.5 134.5t135.5 55.5q79 0 134.5 -55.5t55.5 -134.5t-55.5 -134.5t-134.5 -55.5z" />
    <glyph glyph-name="cedilla" unicode="&#xb8;" horiz-adv-x="414" 
d="M0 -316q130 0 166 6t36 35q0 22 -1 29.5t-13 13.5t-30.5 6.5t-62.5 0.5h-39v225h73v-78q42 -4 71.5 -20.5t43.5 -34t21.5 -47t8.5 -45.5t1 -43v-7q0 -62 -13.5 -99.5t-49 -57.5t-83 -26.5t-129.5 -6.5v149z" />
    <glyph glyph-name="uni00B9" unicode="&#xb9;" horiz-adv-x="817" 
d="M633 -2h-146v1116h-309v436h455v-1552z" />
    <glyph glyph-name="ordmasculine" unicode="&#xba;" horiz-adv-x="1028" 
d="M971 639q4 -151 -17 -261.5t-71.5 -193t-140 -124t-219.5 -41.5q-113 0 -195.5 28t-135.5 78t-84 129t-42 171t-9 214v2q0 134 35.5 233.5t100 158t147 86t183.5 27.5q215 0 329 -133.5t119 -369.5v-4zM202 605q-1 -111 43.5 -130.5t277.5 -19.5q223 0 264 20t39 132h-1
v32q-2 119 -72 167.5t-230 48.5q-182 0 -251.5 -46.5t-69.5 -167.5v-36z" />
    <glyph glyph-name="guillemotright" unicode="&#xbb;" horiz-adv-x="1449" 
d="M52 129l517 441l-517 447l97 111l648 -558l-648 -553zM644 129l517 441l-517 447l97 111l648 -558l-648 -553z" />
    <glyph glyph-name="onequarter" unicode="&#xbc;" horiz-adv-x="1598" 
d="M907 221v262h5l-3 4l445 449l2 -4v10h87v-459h105v-262h-105v-221h-87v221h-449zM50 1259v261h274v-930h-88v669h-186zM197 -301l679 1888l137 -49l-678 -1888zM1088 483h268v270z" />
    <glyph glyph-name="onehalf" unicode="&#xbd;" horiz-adv-x="1880" 
d="M324 590h-88v669h-186v261h274v-930zM197 -301l679 1888l137 -49l-678 -1888zM1125 11v268l418 277q105 69 136 93.5t32 41.5q-2 34 -30.5 51t-101.5 17h-417v175h417q105 0 161 -71t58 -170v-3v-4q-1 -86 -46.5 -142.5t-160.5 -132.5l-210 -138h449v-262h-705z" />
    <glyph glyph-name="threequarters" unicode="&#xbe;" horiz-adv-x="1603" 
d="M129 970v174h178q101 0 145.5 6.5t54 17.5t9.5 38q0 57 -33 75.5t-139 18.5h-294v175h294q75 0 127.5 -20.5t80.5 -58.5t39.5 -84t11.5 -106q0 -133 -86 -189q86 -44 86 -153v-19q-2 -60 -15.5 -109t-41.5 -92t-79.5 -67.5t-122.5 -24.5h-294v261h294q75 0 112.5 6t48 16
t11.5 29q0 23 -3 36.5t-14 28t-33.5 22t-61.5 12t-97 4.5v3h-178zM309 -301l678 1888l138 -49l-679 -1888zM913 221v262h5l-3 4l445 449l2 -4v10h86v-459h106v-262h-106v-221h-86v221h-449zM1094 483h268v270z" />
    <glyph glyph-name="questiondown" unicode="&#xbf;" horiz-adv-x="997" 
d="M202 -33v-6q0 -84 62 -132t192 -48h492v-291h-492q-121 0 -213.5 67.5t-139 173.5t-46.5 230v6q1 139 46.5 259.5t138 199.5t214.5 79h181v232h146v-668h-327q-250 0 -254 -102zM488 1023l204 205l205 -205l-204 -204z" />
    <glyph glyph-name="Agrave" unicode="&#xc0;" horiz-adv-x="1565" 
d="M1503 0h-291l-97 508h-517l-95 -508h-434l215 1153q14 76 39.5 136.5t56 102.5t72.5 72.5t82.5 48t93.5 28t98 14t103 3.5h6h9q207 -4 303 -99.5t135 -304.5zM625 654h462l-90 472q-33 172 -50 214q-23 55 -70 67q-19 4 -44 5q-48 -1 -63 -37t-53 -233l-3 -15zM652 2051
l139 48l132 -395l-139 -48z" />
    <glyph glyph-name="Aacute" unicode="&#xc1;" horiz-adv-x="1565" 
d="M1503 0h-291l-97 508h-517l-95 -508h-434l215 1153q14 76 39.5 136.5t56 102.5t72.5 72.5t82.5 48t93.5 28t98 14t103 3.5h6h9q207 -4 303 -99.5t135 -304.5zM625 654h462l-90 472q-33 172 -50 214q-23 55 -70 67q-19 4 -44 5q-48 -1 -63 -37t-53 -233l-3 -15zM702 1702
l132 395l139 -47l-132 -395z" />
    <glyph glyph-name="Acircumflex" unicode="&#xc2;" horiz-adv-x="1565" 
d="M1503 0h-291l-97 508h-517l-95 -508h-434l215 1153q14 76 39.5 136.5t56 102.5t72.5 72.5t82.5 48t93.5 28t98 14t103 3.5h6h9q207 -4 303 -99.5t135 -304.5zM519 1810l311 310l313 -309l-103 -105l-210 208l-208 -207zM625 654h462l-90 472q-33 172 -50 214
q-23 55 -70 67q-19 4 -44 5q-48 -1 -63 -37t-53 -233l-3 -15z" />
    <glyph glyph-name="Atilde" unicode="&#xc3;" horiz-adv-x="1565" 
d="M1503 0h-291l-97 508h-517l-95 -508h-434l215 1153q14 76 39.5 136.5t56 102.5t72.5 72.5t82.5 48t93.5 28t98 14t103 3.5h6h9q207 -4 303 -99.5t135 -304.5zM473 1869q92 50 148 67t115 6t133 -59q66 -42 102.5 -34.5t122.5 79.5l95 -113q-114 -97 -203 -110t-195 53
q-52 33 -78.5 39.5t-58 -4.5t-111.5 -54zM625 654h462l-90 472q-33 172 -50 214q-23 55 -70 67q-19 4 -44 5q-48 -1 -63 -37t-53 -233l-3 -15z" />
    <glyph glyph-name="Adieresis" unicode="&#xc4;" horiz-adv-x="1565" 
d="M1503 0h-291l-97 508h-517l-95 -508h-434l215 1153q14 76 39.5 136.5t56 102.5t72.5 72.5t82.5 48t93.5 28t98 14t103 3.5h6h9q207 -4 303 -99.5t135 -304.5zM482 1824l164 163l163 -163l-164 -164zM625 654h462l-90 472q-33 172 -50 214q-23 55 -70 67q-19 4 -44 5
q-48 -1 -63 -37t-53 -233l-3 -15zM854 1823l164 164l163 -164l-164 -164z" />
    <glyph glyph-name="Aring" unicode="&#xc5;" horiz-adv-x="1565" 
d="M1503 0h-291l-97 508h-517l-95 -508h-434l215 1153q14 76 39.5 136.5t56 102.5t72.5 72.5t82.5 48t93.5 28t98 14t103 3.5h6h9q207 -4 303 -99.5t135 -304.5zM625 654h462l-90 472q-33 172 -50 214q-23 55 -70 67q-19 4 -44 5q-48 -1 -63 -37t-53 -233l-3 -15zM644 1906
q0 88 53 156.5t134 68.5q78 0 132.5 -67.5t54.5 -157.5q0 -92 -54.5 -159t-132.5 -67t-132.5 67.5t-54.5 158.5zM718 1906q0 -34 28.5 -55.5t84.5 -21.5t85 21.5t29 55.5q0 32 -29 54t-85 22t-84.5 -21.5t-28.5 -54.5z" />
    <glyph glyph-name="AE" unicode="&#xc6;" horiz-adv-x="2118" 
d="M1379 1565v-1h689v-291h-689v-307h590v-291h-590v-220h689v-436h-689v-19h-146v318h-569l-213 -318h-384l1051 1565h261zM859 609h374v556z" />
    <glyph glyph-name="Ccedilla" unicode="&#xc7;" horiz-adv-x="1006" 
d="M956 3h-156q-118 0 -208 7.5t-166.5 26t-130 47t-96.5 74.5t-69 102.5t-43 138t-23.5 175t-6.5 217.5v5q0 89 4.5 159.5t15 139.5t28.5 122.5t46 102.5t66.5 85t89.5 65.5t116 47.5t146.5 27.5t179.5 9.5h159v-291h-159q-80 0 -140.5 -2t-114 -9t-90.5 -14.5t-69 -24.5
t-52 -34t-36 -47.5t-24 -59t-13 -76t-6.5 -91t-1.5 -110.5v-5v-94.5t6.5 -74.5t10 -60.5t25 -43.5t35 -33.5t57 -20.5t74 -15t102.5 -6t126.5 -4h161.5h156v-436zM526 -465v149q129 0 165 6t36 35v1q0 18 -1 24.5t-5.5 13.5t-16.5 8t-31 2t-52 1h-39v225h73v-78
q42 -4 71.5 -20.5t43.5 -34t21.5 -47t8.5 -45.5t1 -43v-7q0 -62 -13.5 -99.5t-49 -57.5t-83 -26.5t-129.5 -6.5z" />
    <glyph glyph-name="Egrave" unicode="&#xc8;" horiz-adv-x="1111" 
d="M1062 455v-436h-579q-79 0 -144 22t-110.5 62.5t-79.5 93.5t-53.5 119t-29 135t-9.5 145v961h1004v-291h-859v-325h763v-146h-763v-199q0 -36 5.5 -57.5t21 -39.5t48 -26.5t81 -13t125.5 -4.5h579zM292 2051l139 48l132 -395l-139 -48z" />
    <glyph glyph-name="Eacute" unicode="&#xc9;" horiz-adv-x="1111" 
d="M1062 455v-436h-579q-79 0 -144 22t-110.5 62.5t-79.5 93.5t-53.5 119t-29 135t-9.5 145v961h1004v-291h-859v-325h763v-146h-763v-199q0 -36 5.5 -57.5t21 -39.5t48 -26.5t81 -13t125.5 -4.5h579zM342 1702l131 395l140 -47l-132 -395z" />
    <glyph glyph-name="Ecircumflex" unicode="&#xca;" horiz-adv-x="1111" 
d="M1062 455v-436h-579q-79 0 -144 22t-110.5 62.5t-79.5 93.5t-53.5 119t-29 135t-9.5 145v961h1004v-291h-859v-325h763v-146h-763v-199q0 -36 5.5 -57.5t21 -39.5t48 -26.5t81 -13t125.5 -4.5h579zM158 1810l311 310l313 -309l-103 -105l-210 208l-208 -207z" />
    <glyph glyph-name="Edieresis" unicode="&#xcb;" horiz-adv-x="1111" 
d="M1062 455v-436h-579q-79 0 -144 22t-110.5 62.5t-79.5 93.5t-53.5 119t-29 135t-9.5 145v961h1004v-291h-859v-325h763v-146h-763v-199q0 -36 5.5 -57.5t21 -39.5t48 -26.5t81 -13t125.5 -4.5h579zM121 1824l164 163l163 -163l-164 -164zM494 1823l164 164l163 -164
l-164 -164z" />
    <glyph glyph-name="Igrave" unicode="&#xcc;" horiz-adv-x="494" 
d="M320 0h-146l1 1570h146zM69 2051l139 48l132 -395l-139 -48z" />
    <glyph glyph-name="Iacute" unicode="&#xcd;" horiz-adv-x="494" 
d="M320 0h-146l1 1570h146zM119 1702l132 395l139 -47l-132 -395z" />
    <glyph glyph-name="Icircumflex" unicode="&#xce;" horiz-adv-x="494" 
d="M320 0h-146l1 1570h146zM-65 1810l312 310l313 -309l-104 -105l-209 208l-208 -207z" />
    <glyph glyph-name="Idieresis" unicode="&#xcf;" horiz-adv-x="494" 
d="M320 0h-146l1 1570h146zM-102 1824l164 163l163 -163l-164 -164zM271 1823l164 164l163 -164l-164 -164z" />
    <glyph glyph-name="Eth" unicode="&#xd0;" horiz-adv-x="1263" 
d="M348 0h-146v761h-153v146h154v663h146v-13h211q171 0 298 -50.5t202.5 -144t111.5 -217.5t36 -281v-101v-31v-8q-2 -104 -18 -193.5t-48 -169.5t-84 -142t-122.5 -107t-167 -69t-213.5 -24h-207v-19zM348 455h207q193 0 302.5 29.5t156.5 91.5t49 169v119
q0 145 -45 230.5t-155.5 128.5t-302.5 43h-211v-359h451v-146h-452v-306z" />
    <glyph glyph-name="Ntilde" unicode="&#xd1;" horiz-adv-x="1277" 
d="M58 1570h411l599 -1270v1270h146v-1570h-405l-605 1280l2 -1280h-146zM280 1869q92 50 148.5 67t115.5 6t133 -59q66 -42 102 -34.5t122 79.5l95 -113q-114 -97 -203 -110t-195 53q-41 26 -58.5 35t-47.5 6.5t-54.5 -14.5t-86.5 -46z" />
    <glyph glyph-name="Ograve" unicode="&#xd2;" horiz-adv-x="1134" 
d="M933 969q0 153 -69.5 225t-224.5 72h-143q-93 0 -152.5 -19t-90 -60t-41 -91t-10.5 -127v-289q0 -55 5 -87t21 -62t48 -44.5t85.5 -23t134.5 -8.5h143q68 0 116 5t81 18t52 28t29 43.5t13 56.5t3 74v289zM57 680v289q0 87 13 166.5t45 158t80.5 135.5t125.5 92.5
t175 35.5h143q194 0 317 -162.5t123 -425.5v-289q0 -95 -13 -184.5t-45.5 -177.5t-81 -153t-126 -105.5t-174.5 -40.5h-143q-96 0 -173.5 40.5t-126 105.5t-81 153t-45.5 177.5t-13 184.5zM386 2051l139 48l132 -395l-139 -48z" />
    <glyph glyph-name="Oacute" unicode="&#xd3;" horiz-adv-x="1134" 
d="M933 969q0 153 -69.5 225t-224.5 72h-143q-93 0 -152.5 -19t-90 -60t-41 -91t-10.5 -127v-289q0 -55 5 -87t21 -62t48 -44.5t85.5 -23t134.5 -8.5h143q68 0 116 5t81 18t52 28t29 43.5t13 56.5t3 74v289zM57 680v289q0 87 13 166.5t45 158t80.5 135.5t125.5 92.5
t175 35.5h143q194 0 317 -162.5t123 -425.5v-289q0 -95 -13 -184.5t-45.5 -177.5t-81 -153t-126 -105.5t-174.5 -40.5h-143q-96 0 -173.5 40.5t-126 105.5t-81 153t-45.5 177.5t-13 184.5zM436 1702l132 395l139 -47l-132 -395z" />
    <glyph glyph-name="Ocircumflex" unicode="&#xd4;" horiz-adv-x="1134" 
d="M933 969q0 153 -69.5 225t-224.5 72h-143q-93 0 -152.5 -19t-90 -60t-41 -91t-10.5 -127v-289q0 -55 5 -87t21 -62t48 -44.5t85.5 -23t134.5 -8.5h143q68 0 116 5t81 18t52 28t29 43.5t13 56.5t3 74v289zM57 680v289q0 87 13 166.5t45 158t80.5 135.5t125.5 92.5
t175 35.5h143q194 0 317 -162.5t123 -425.5v-289q0 -95 -13 -184.5t-45.5 -177.5t-81 -153t-126 -105.5t-174.5 -40.5h-143q-96 0 -173.5 40.5t-126 105.5t-81 153t-45.5 177.5t-13 184.5zM252 1810l312 310l313 -309l-104 -105l-209 208l-208 -207z" />
    <glyph glyph-name="Otilde" unicode="&#xd5;" horiz-adv-x="1134" 
d="M933 969q0 153 -69.5 225t-224.5 72h-143q-93 0 -152.5 -19t-90 -60t-41 -91t-10.5 -127v-289q0 -55 5 -87t21 -62t48 -44.5t85.5 -23t134.5 -8.5h143q68 0 116 5t81 18t52 28t29 43.5t13 56.5t3 74v289zM57 680v289q0 87 13 166.5t45 158t80.5 135.5t125.5 92.5
t175 35.5h143q194 0 317 -162.5t123 -425.5v-289q0 -95 -13 -184.5t-45.5 -177.5t-81 -153t-126 -105.5t-174.5 -40.5h-143q-96 0 -173.5 40.5t-126 105.5t-81 153t-45.5 177.5t-13 184.5zM206 1869q92 50 148.5 67t115.5 6t133 -59q66 -42 102 -34.5t122 79.5l95 -113
q-114 -97 -203 -110t-195 53q-41 26 -58.5 35t-47.5 6.5t-54.5 -14.5t-86.5 -46z" />
    <glyph glyph-name="Odieresis" unicode="&#xd6;" horiz-adv-x="1134" 
d="M933 969q0 153 -69.5 225t-224.5 72h-143q-93 0 -152.5 -19t-90 -60t-41 -91t-10.5 -127v-289q0 -55 5 -87t21 -62t48 -44.5t85.5 -23t134.5 -8.5h143q68 0 116 5t81 18t52 28t29 43.5t13 56.5t3 74v289zM57 680v289q0 87 13 166.5t45 158t80.5 135.5t125.5 92.5
t175 35.5h143q194 0 317 -162.5t123 -425.5v-289q0 -95 -13 -184.5t-45.5 -177.5t-81 -153t-126 -105.5t-174.5 -40.5h-143q-96 0 -173.5 40.5t-126 105.5t-81 153t-45.5 177.5t-13 184.5zM215 1824l164 163l163 -163l-164 -164zM588 1823l164 164l163 -164l-164 -164z" />
    <glyph glyph-name="multiply" unicode="&#xd7;" horiz-adv-x="853" 
d="M852 455l-207 -207l-271 271l-218 -218l-102 103l218 218l-270 269l208 207l269 -269l217 217l103 -103l-217 -217z" />
    <glyph glyph-name="Oslash" unicode="&#xd8;" horiz-adv-x="1617" 
d="M1208 969q0 55 -12 113l-633 -601q64 -26 207 -26h143q68 0 116 5t81 17.5t52.5 28t29.5 44t13 56.5t3 74v289zM55 198l292 278q-16 99 -16 204v289q0 87 13 166.5t45 158t80.5 135.5t125.5 92.5t175 35.5h143q110 0 200.5 -55.5t149.5 -156.5l200 190l100 -105
l-240 -227q30 -105 30 -234v-289q0 -95 -13 -184.5t-45.5 -177.5t-81 -153t-126 -105.5t-174.5 -40.5h-143q-142 0 -236 80.5t-144 216.5l-235 -223zM477 680q0 -44 3 -78l641 608q-71 56 -208 56h-143q-93 0 -152.5 -19t-89.5 -60.5t-40.5 -91t-10.5 -126.5v-289z" />
    <glyph glyph-name="Ugrave" unicode="&#xd9;" horiz-adv-x="1286" 
d="M1085 1570h146v-879q0 -148 -30.5 -268t-93 -211.5t-164.5 -141.5t-237 -50h-125q-135 0 -236.5 50t-164 141t-93 211.5t-30.5 268.5v879h145v-879q0 -130 85 -183t294 -53h125q209 0 294 53t85 183v879zM464 2051l140 48l132 -395l-140 -48z" />
    <glyph glyph-name="Uacute" unicode="&#xda;" horiz-adv-x="1286" 
d="M1085 1570h146v-879q0 -148 -30.5 -268t-93 -211.5t-164.5 -141.5t-237 -50h-125q-135 0 -236.5 50t-164 141t-93 211.5t-30.5 268.5v879h145v-879q0 -130 85 -183t294 -53h125q209 0 294 53t85 183v879zM514 1702l132 395l140 -47l-132 -395z" />
    <glyph glyph-name="Ucircumflex" unicode="&#xdb;" horiz-adv-x="1286" 
d="M1085 1570h146v-879q0 -148 -30.5 -268t-93 -211.5t-164.5 -141.5t-237 -50h-125q-135 0 -236.5 50t-164 141t-93 211.5t-30.5 268.5v879h145v-879q0 -130 85 -183t294 -53h125q209 0 294 53t85 183v879zM331 1810l311 310l313 -309l-103 -105l-210 208l-208 -207z" />
    <glyph glyph-name="Udieresis" unicode="&#xdc;" horiz-adv-x="1286" 
d="M1085 1570h146v-879q0 -148 -30.5 -268t-93 -211.5t-164.5 -141.5t-237 -50h-125q-135 0 -236.5 50t-164 141t-93 211.5t-30.5 268.5v879h145v-879q0 -130 85 -183t294 -53h125q209 0 294 53t85 183v879zM294 1824l164 163l163 -163l-164 -164zM667 1823l164 164
l163 -164l-164 -164z" />
    <glyph glyph-name="Yacute" unicode="&#xdd;" horiz-adv-x="1377" 
d="M809 0h-145v551q-289 48 -399 398l-199 621h375l170 -533q39 -123 66 -162t82 -40h8q74 -1 112 24.5t56 79.5l216 631h170l-249 -725q-92 -272 -263 -299v-546zM560 1702l131 395l140 -47l-132 -395z" />
    <glyph glyph-name="Thorn" unicode="&#xde;" horiz-adv-x="1019" 
d="M202 204v-550h-145v1538v378h146v-378h404q159 0 257.5 -135t98.5 -383v-9q0 -264 -100 -404.5t-320 -140.5q-227 0 -341 91v-7zM202 654q1 -28 8.5 -43.5t25.5 -28t59 -17.5t96.5 -7.5t151.5 -2.5h6q179 0 224 16t45 94l-1 41q-4 112 -50 153.5t-160 41.5h-404z" />
    <glyph glyph-name="germandbls" unicode="&#xdf;" horiz-adv-x="1108" 
d="M1052 582v-22v-5q-2 -76 -13.5 -147.5t-39.5 -143.5t-70 -125t-108.5 -86.5t-150.5 -33.5h-334v436h334q110 0 157 8t62.5 27t16.5 66q-1 82 -55.5 110.5t-196.5 30.5h-297v291h370q77 0 100 23t23 70q1 9 1 29q0 75 -56 117t-200 42h-393v-1269h-145v1560h538
q82 0 150.5 -27.5t114.5 -72.5t77.5 -104t45.5 -121t14 -125q0 -37 -2 -52q-4 -93 -41 -184q89 -100 97 -292h1z" />
    <glyph glyph-name="agrave" unicode="&#xe0;" horiz-adv-x="1095" 
d="M712 1076h146v-593q0 -118 57 -163t159 -45v-291q-49 0 -99.5 15.5t-108 62t-93.5 118.5q-98 -163 -326 -163q-90 0 -159 29t-111 75.5t-69 114.5t-37.5 135.5t-13.5 149.5v24v32h1q12 225 118 351t271 126q161 0 265 -109v131zM202 541q1 -64 38 -76t207 -12
q184 0 220 10.5t37 69.5q-1 59 -11.5 98.5t-37.5 71t-78 46t-130 14.5q-132 0 -186.5 -49.5t-58.5 -172.5zM318 1622l139 48l132 -395l-139 -48z" />
    <glyph glyph-name="aacute" unicode="&#xe1;" horiz-adv-x="1095" 
d="M712 1076h146v-593q0 -118 57 -163t159 -45v-291q-49 0 -99.5 15.5t-108 62t-93.5 118.5q-98 -163 -326 -163q-90 0 -159 29t-111 75.5t-69 114.5t-37.5 135.5t-13.5 149.5v24v32h1q12 225 118 351t271 126q161 0 265 -109v131zM202 541q1 -64 38 -76t207 -12
q184 0 220 10.5t37 69.5q-1 59 -11.5 98.5t-37.5 71t-78 46t-130 14.5q-132 0 -186.5 -49.5t-58.5 -172.5zM368 1273l132 395l139 -48l-132 -394z" />
    <glyph glyph-name="acircumflex" unicode="&#xe2;" horiz-adv-x="1095" 
d="M712 1076h146v-593q0 -118 57 -163t159 -45v-291q-49 0 -99.5 15.5t-108 62t-93.5 118.5q-98 -163 -326 -163q-90 0 -159 29t-111 75.5t-69 114.5t-37.5 135.5t-13.5 149.5v24v32h1q12 225 118 351t271 126q161 0 265 -109v131zM184 1381l312 310l313 -309l-104 -105
l-209 207l-208 -206zM202 541q1 -64 38 -76t207 -12q184 0 220 10.5t37 69.5q-1 59 -11.5 98.5t-37.5 71t-78 46t-130 14.5q-132 0 -186.5 -49.5t-58.5 -172.5z" />
    <glyph glyph-name="atilde" unicode="&#xe3;" horiz-adv-x="1095" 
d="M712 1076h146v-593q0 -118 57 -163t159 -45v-291q-49 0 -99.5 15.5t-108 62t-93.5 118.5q-98 -163 -326 -163q-90 0 -159 29t-111 75.5t-69 114.5t-37.5 135.5t-13.5 149.5v24v32h1q12 225 118 351t271 126q161 0 265 -109v131zM138 1439q92 50 148.5 67t115.5 6t133 -59
q47 -29 74 -33.5t58 12t92 67.5l95 -113q-114 -97 -203 -110t-195 53q-41 26 -58.5 35t-47.5 6.5t-54.5 -14.5t-86.5 -46zM202 541q1 -64 38 -76t207 -12q184 0 220 10.5t37 69.5q-1 59 -11.5 98.5t-37.5 71t-78 46t-130 14.5q-132 0 -186.5 -49.5t-58.5 -172.5z" />
    <glyph glyph-name="adieresis" unicode="&#xe4;" horiz-adv-x="1095" 
d="M712 1076h146v-593q0 -118 57 -163t159 -45v-291q-49 0 -99.5 15.5t-108 62t-93.5 118.5q-98 -163 -326 -163q-90 0 -159 29t-111 75.5t-69 114.5t-37.5 135.5t-13.5 149.5v24v32h1q12 225 118 351t271 126q161 0 265 -109v131zM147 1394l164 164l163 -164l-164 -164z
M202 541q1 -64 38 -76t207 -12q184 0 220 10.5t37 69.5q-1 59 -11.5 98.5t-37.5 71t-78 46t-130 14.5q-132 0 -186.5 -49.5t-58.5 -172.5zM520 1393l164 164l163 -164l-164 -163z" />
    <glyph glyph-name="aring" unicode="&#xe5;" horiz-adv-x="1095" 
d="M712 1076h146v-593q0 -118 57 -163t159 -45v-291q-49 0 -99.5 15.5t-108 62t-93.5 118.5q-98 -163 -326 -163q-90 0 -159 29t-111 75.5t-69 114.5t-37.5 135.5t-13.5 149.5v24v32h1q12 225 118 351t271 126q161 0 265 -109v131zM202 541q1 -64 38 -76t207 -12
q184 0 220 10.5t37 69.5q-1 59 -11.5 98.5t-37.5 71t-78 46t-130 14.5q-132 0 -186.5 -49.5t-58.5 -172.5zM310 1477q0 88 53 156t134 68q78 0 132.5 -67t54.5 -157q0 -92 -54.5 -159t-132.5 -67t-132.5 67.5t-54.5 158.5zM383 1477q0 -34 29 -55.5t85 -21.5t84.5 21.5
t28.5 55.5q0 32 -28.5 53.5t-84.5 21.5t-85 -21.5t-29 -53.5z" />
    <glyph glyph-name="ae" unicode="&#xe6;" horiz-adv-x="1541" 
d="M712 1076h146v-53q101 93 238 93q100 0 174.5 -29t119 -82.5t66.5 -122t24 -153.5v-8v-9q-10 -285 -322 -280l-295 6q16 -61 73.5 -95.5t139.5 -39.5t173.5 7t186.5 41l43 -315q-233 -70 -405 -45v-7q-49 0 -99.5 15.5t-108 62t-93.5 118.5q-98 -163 -326 -163
q-90 0 -159 29t-111 75.5t-69 114.5t-37.5 135.5t-13.5 149.5v24v32h1q12 225 118 351t271 126q161 0 265 -109v131zM202 541q1 -64 38 -76t207 -12q184 0 220 10.5t37 69.5q-1 59 -11.5 98.5t-37.5 71t-78 46t-130 14.5q-132 0 -186.5 -49.5t-58.5 -172.5zM859 658l303 -7
q77 -2 112.5 4t47 19t12.5 44q-3 61 -63.5 84t-174.5 23q-220 0 -237 -167z" />
    <glyph glyph-name="ccedilla" unicode="&#xe7;" horiz-adv-x="902" 
d="M202 616q0 -130 165 -175.5t486 10.5v-435q-118 -21 -232 -21v-72q42 -4 71.5 -20.5t43.5 -34t21.5 -47t8.5 -45.5t1 -43v-7q0 -62 -13.5 -99.5t-49 -57.5t-83 -26.5t-129.5 -6.5v149q129 0 165 6t36 35q0 22 -1 29.5t-13 13.5t-30.5 6.5t-62.5 0.5h-39v222
q-478 39 -490 589v29v2q0 83 26.5 165t83.5 159t145.5 123.5t213 58.5t286.5 -35v-291q-118 38 -220.5 46t-172.5 -9.5t-120 -51.5t-73.5 -77t-23.5 -88v-2z" />
    <glyph glyph-name="egrave" unicode="&#xe8;" horiz-adv-x="886" 
d="M825 731v-8v-9q-2 -60 -18.5 -108t-52 -89t-99.5 -63t-152 -21l-295 7q16 -61 73.5 -95.5t139.5 -40t174 6.5t186 41l42 -314q-127 -39 -238 -49.5t-209 12t-168 79.5t-110.5 160.5t-40.5 247.5v141q0 116 31 209.5t83.5 154t122 92.5t147.5 32q195 0 287.5 -104.5
t96.5 -281.5zM204 659l302 -6q78 -2 113 3.5t47 18.5t13 44q-3 61 -64 84.5t-174 23.5q-220 0 -237 -168zM280 1623l139 47l132 -395l-139 -47z" />
    <glyph glyph-name="eacute" unicode="&#xe9;" horiz-adv-x="886" 
d="M825 731v-8v-9q-2 -60 -18.5 -108t-52 -89t-99.5 -63t-152 -21l-295 7q16 -61 73.5 -95.5t139.5 -40t174 6.5t186 41l42 -314q-127 -39 -238 -49.5t-209 12t-168 79.5t-110.5 160.5t-40.5 247.5v141q0 116 31 209.5t83.5 154t122 92.5t147.5 32q195 0 287.5 -104.5
t96.5 -281.5zM204 659l302 -6q78 -2 113 3.5t47 18.5t13 44q-3 61 -64 84.5t-174 23.5q-220 0 -237 -168zM330 1274l132 395l139 -48l-132 -395z" />
    <glyph glyph-name="ecircumflex" unicode="&#xea;" horiz-adv-x="886" 
d="M825 731v-8v-9q-2 -60 -18.5 -108t-52 -89t-99.5 -63t-152 -21l-295 7q16 -61 73.5 -95.5t139.5 -40t174 6.5t186 41l42 -314q-127 -39 -238 -49.5t-209 12t-168 79.5t-110.5 160.5t-40.5 247.5v141q0 116 31 209.5t83.5 154t122 92.5t147.5 32q195 0 287.5 -104.5
t96.5 -281.5zM147 1382l311 310l313 -309l-103 -105l-210 207l-208 -206zM204 659l302 -6q78 -2 113 3.5t47 18.5t13 44q-3 61 -64 84.5t-174 23.5q-220 0 -237 -168z" />
    <glyph glyph-name="edieresis" unicode="&#xeb;" horiz-adv-x="886" 
d="M825 731v-8v-9q-2 -60 -18.5 -108t-52 -89t-99.5 -63t-152 -21l-295 7q16 -61 73.5 -95.5t139.5 -40t174 6.5t186 41l42 -314q-127 -39 -238 -49.5t-209 12t-168 79.5t-110.5 160.5t-40.5 247.5v141q0 116 31 209.5t83.5 154t122 92.5t147.5 32q195 0 287.5 -104.5
t96.5 -281.5zM110 1395l164 164l163 -164l-164 -164zM204 659l302 -6q78 -2 113 3.5t47 18.5t13 44q-3 61 -64 84.5t-174 23.5q-220 0 -237 -168zM483 1394l163 164l163 -164l-163 -164z" />
    <glyph glyph-name="igrave" unicode="&#xec;" horiz-adv-x="436" 
d="M291 0h-146v972h146v-972zM39 1545l139 48l132 -395l-140 -48z" />
    <glyph glyph-name="iacute" unicode="&#xed;" horiz-adv-x="436" 
d="M291 0h-146v972h146v-972zM88 1196l132 395l140 -48l-132 -394z" />
    <glyph glyph-name="icircumflex" unicode="&#xee;" horiz-adv-x="436" 
d="M291 0h-146v972h146v-972zM-95 1304l311 310l313 -309l-103 -105l-210 207l-208 -206z" />
    <glyph glyph-name="idieresis" unicode="&#xef;" horiz-adv-x="436" 
d="M291 0h-146v972h146v-972zM-132 1317l164 164l163 -164l-164 -164zM241 1316l164 164l163 -164l-164 -163z" />
    <glyph glyph-name="eth" unicode="&#xf0;" horiz-adv-x="1162" 
d="M459 954l-35 66l122 65h-404v218h507q127 0 206 -50l221 119l35 -65l-195 -105q82 -92 82 -258l-1 -390q-7 -246 -116 -390.5t-320 -144.5h-76q-100 0 -174 22t-121.5 61t-77 101t-41.5 133.5t-14 167.5v15v21q3 82 22 145.5t62 119t123.5 85.5t195.5 30h392v24
q0 75 -31 105.5t-122 35.5zM202 521q1 -48 41.5 -57t241.5 -9h76q171 0 231 26t60 110v38h-392q-121 0 -172 -8.5t-68 -29t-18 -70.5z" />
    <glyph glyph-name="ntilde" unicode="&#xf1;" horiz-adv-x="991" 
d="M202 0h-145v1118h145v-168q63 76 143 115t160 39h27q113 0 192.5 -44t125 -128.5t65.5 -193t20 -251.5v-487h-146v487q0 48 -1 76.5t-5.5 59t-10.5 45.5t-20.5 30.5t-31 22t-46 12t-61.5 6.5t-81 1h-27q-303 0 -303 -271v-469zM133 1520q92 50 148 67t115 6t133 -59
q66 -42 102.5 -34.5t122.5 79.5l95 -113q-114 -97 -203 -110t-195 53q-52 33 -78.5 39.5t-58 -4.5t-111.5 -54z" />
    <glyph glyph-name="ograve" unicode="&#xf2;" horiz-adv-x="1028" 
d="M971 639q4 -151 -17 -261.5t-71.5 -193t-140 -124t-219.5 -41.5q-113 0 -195.5 28t-135.5 78t-84 129t-42 171t-9 214v2q0 134 35.5 233.5t100 158t147 86t183.5 27.5q215 0 329 -133.5t119 -369.5v-4zM202 605q-1 -111 43.5 -130.5t277.5 -19.5q223 0 264 20t39 132h-1
v32q-2 119 -72 167.5t-230 48.5q-182 0 -251.5 -46.5t-69.5 -167.5v-36zM331 1649l139 48l132 -395l-139 -48z" />
    <glyph glyph-name="oacute" unicode="&#xf3;" horiz-adv-x="1028" 
d="M971 639q4 -151 -17 -261.5t-71.5 -193t-140 -124t-219.5 -41.5q-113 0 -195.5 28t-135.5 78t-84 129t-42 171t-9 214v2q0 134 35.5 233.5t100 158t147 86t183.5 27.5q215 0 329 -133.5t119 -369.5v-4zM202 605q-1 -111 43.5 -130.5t277.5 -19.5q223 0 264 20t39 132h-1
v32q-2 119 -72 167.5t-230 48.5q-182 0 -251.5 -46.5t-69.5 -167.5v-36zM381 1300l132 395l139 -48l-132 -394z" />
    <glyph glyph-name="ocircumflex" unicode="&#xf4;" horiz-adv-x="1028" 
d="M971 639q4 -151 -17 -261.5t-71.5 -193t-140 -124t-219.5 -41.5q-113 0 -195.5 28t-135.5 78t-84 129t-42 171t-9 214v2q0 134 35.5 233.5t100 158t147 86t183.5 27.5q215 0 329 -133.5t119 -369.5v-4zM197 1408l312 310l313 -309l-104 -105l-209 207l-208 -206zM202 605
q-1 -111 43.5 -130.5t277.5 -19.5q223 0 264 20t39 132h-1v32q-2 119 -72 167.5t-230 48.5q-182 0 -251.5 -46.5t-69.5 -167.5v-36z" />
    <glyph glyph-name="otilde" unicode="&#xf5;" horiz-adv-x="1028" 
d="M971 639q4 -151 -17 -261.5t-71.5 -193t-140 -124t-219.5 -41.5q-113 0 -195.5 28t-135.5 78t-84 129t-42 171t-9 214v2q0 134 35.5 233.5t100 158t147 86t183.5 27.5q215 0 329 -133.5t119 -369.5v-4zM152 1466q92 50 148 67t115 6t133 -59q47 -29 74.5 -33.5t58.5 12
t92 67.5l95 -113q-114 -97 -203.5 -110t-195.5 53q-41 26 -58.5 35t-47.5 6.5t-54.5 -14.5t-86.5 -46zM202 605q-1 -111 43.5 -130.5t277.5 -19.5q223 0 264 20t39 132h-1v32q-2 119 -72 167.5t-230 48.5q-182 0 -251.5 -46.5t-69.5 -167.5v-36z" />
    <glyph glyph-name="odieresis" unicode="&#xf6;" horiz-adv-x="1028" 
d="M971 639q4 -151 -17 -261.5t-71.5 -193t-140 -124t-219.5 -41.5q-113 0 -195.5 28t-135.5 78t-84 129t-42 171t-9 214v2q0 134 35.5 233.5t100 158t147 86t183.5 27.5q215 0 329 -133.5t119 -369.5v-4zM161 1421l163 164l163 -164l-163 -164zM202 605
q-1 -111 43.5 -130.5t277.5 -19.5q223 0 264 20t39 132h-1v32q-2 119 -72 167.5t-230 48.5q-182 0 -251.5 -46.5t-69.5 -167.5v-36zM533 1420l164 164l163 -164l-164 -163z" />
    <glyph glyph-name="divide" unicode="&#xf7;" horiz-adv-x="1008" 
d="M958 691v-146h-908v146h908z" />
    <glyph glyph-name="oslash" unicode="&#xf8;" horiz-adv-x="1427" 
d="M1158 639q4 -151 -17 -261.5t-72 -193t-140.5 -124t-219.5 -41.5q-276 0 -383 173l-174 -159l-98 106l215 197q-29 125 -26 303v2q0 134 35.5 233.5t100 158t147 86t183.5 27.5q200 0 316 -118l250 229l99 -107l-268 -245q49 -110 52 -262v-4zM388 605q-1 -58 5.5 -85.5
t30.5 -41.5l404 369q-45 8 -119 8q-182 0 -251 -46.5t-69 -167.5zM614 455h95q223 0 264.5 20t39.5 132h-1v32q-3 92 -43 141z" />
    <glyph glyph-name="ugrave" unicode="&#xf9;" horiz-adv-x="1099" 
d="M683 1080h146v-4h4v-593q0 -118 57 -163t159 -45v-291q-50 0 -100.5 16t-108.5 63.5t-94 121.5q-94 -166 -288 -166h-30q-371 0 -371 594v467h145v-467v-43t2.5 -34t3 -27t9.5 -19.5t13 -15.5t21.5 -9t27.5 -6.5t39.5 -2t48 -1.5h61.5h30h96t61 7t41 12t17 28.5t10 43
v67.5v467zM371 1561l139 48l132 -395l-139 -47z" />
    <glyph glyph-name="uacute" unicode="&#xfa;" horiz-adv-x="1099" 
d="M683 1080h146v-4h4v-593q0 -118 57 -163t159 -45v-291q-50 0 -100.5 16t-108.5 63.5t-94 121.5q-94 -166 -288 -166h-30q-371 0 -371 594v467h145v-467v-43t2.5 -34t3 -27t9.5 -19.5t13 -15.5t21.5 -9t27.5 -6.5t39.5 -2t48 -1.5h61.5h30h96t61 7t41 12t17 28.5t10 43
v67.5v467zM421 1212l132 395l139 -47l-132 -395z" />
    <glyph glyph-name="ucircumflex" unicode="&#xfb;" horiz-adv-x="1099" 
d="M683 1080h146v-4h4v-593q0 -118 57 -163t159 -45v-291q-50 0 -100.5 16t-108.5 63.5t-94 121.5q-94 -166 -288 -166h-30q-371 0 -371 594v467h145v-467v-43t2.5 -34t3 -27t9.5 -19.5t13 -15.5t21.5 -9t27.5 -6.5t39.5 -2t48 -1.5h61.5h30h96t61 7t41 12t17 28.5t10 43
v67.5v467zM238 1321l311 309l313 -309l-103 -104l-210 207l-208 -207z" />
    <glyph glyph-name="udieresis" unicode="&#xfc;" horiz-adv-x="1099" 
d="M683 1080h146v-4h4v-593q0 -118 57 -163t159 -45v-291q-50 0 -100.5 16t-108.5 63.5t-94 121.5q-94 -166 -288 -166h-30q-371 0 -371 594v467h145v-467v-43t2.5 -34t3 -27t9.5 -19.5t13 -15.5t21.5 -9t27.5 -6.5t39.5 -2t48 -1.5h61.5h30h96t61 7t41 12t17 28.5t10 43
v67.5v467zM201 1334l164 163l163 -163l-164 -164zM573 1333l164 164l163 -164l-164 -164z" />
    <glyph glyph-name="yacute" unicode="&#xfd;" horiz-adv-x="884" 
d="M683 1083h146v-918q0 -361 -171 -524.5t-524 -163.5v291q203 0 317 31.5t167.5 102.5t62.5 199q-85 -82 -223 -82h-30q-371 0 -371 594v470h145v-470v-43t2.5 -34t3 -27t9.5 -19.5t13 -15.5t21.5 -9t27.5 -6.5t39.5 -2t48 -1.5h61.5h30h96t61 7t41 12t17 28.5t10 43v67.5
v470zM313 1212l132 395l139 -47l-132 -395z" />
    <glyph glyph-name="thorn" unicode="&#xfe;" horiz-adv-x="1019" 
d="M202 114v-550h-145v1538v377h146v-377h404q159 0 257.5 -135t98.5 -383v-9q0 -264 -100.5 -405t-319.5 -141q-227 0 -341 91v-6zM202 564q1 -28 8.5 -43.5t25.5 -28t59 -17.5t96.5 -7.5t151.5 -2.5h6q179 0 224 16t45 94l-1 41q-4 112 -50 153.5t-160 41.5h-404z" />
    <glyph glyph-name="ydieresis" unicode="&#xff;" horiz-adv-x="884" 
d="M683 1083h146v-918q0 -361 -171 -524.5t-524 -163.5v291q203 0 317 31.5t167.5 102.5t62.5 199q-85 -82 -223 -82h-30q-371 0 -371 594v470h145v-470v-43t2.5 -34t3 -27t9.5 -19.5t13 -15.5t21.5 -9t27.5 -6.5t39.5 -2t48 -1.5h61.5h30h96t61 7t41 12t17 28.5t10 43v67.5
v470zM93 1334l163 163l163 -163l-163 -164zM465 1333l164 164l163 -164l-164 -164z" />
    <glyph glyph-name="Amacron" unicode="&#x100;" horiz-adv-x="1565" 
d="M1503 0h-291l-97 508h-517l-95 -508h-434l215 1153q14 76 39.5 136.5t56 102.5t72.5 72.5t82.5 48t93.5 28t98 14t103 3.5h6h9q207 -4 303 -99.5t135 -304.5zM470 1721v146h723v-146h-723zM625 654h462l-90 472q-33 172 -50 214q-23 55 -70 67q-19 4 -44 5
q-48 -1 -63 -37t-53 -233l-3 -15z" />
    <glyph glyph-name="amacron" unicode="&#x101;" horiz-adv-x="1095" 
d="M712 1076h146v-593q0 -118 57 -163t159 -45v-291q-49 0 -99.5 15.5t-108 62t-93.5 118.5q-98 -163 -326 -163q-90 0 -159 29t-111 75.5t-69 114.5t-37.5 135.5t-13.5 149.5v24v32h1q12 225 118 351t271 126q161 0 265 -109v131zM136 1292v146h723v-146h-723zM202 541
q1 -64 38 -76t207 -12q184 0 220 10.5t37 69.5q-1 59 -11.5 98.5t-37.5 71t-78 46t-130 14.5q-132 0 -186.5 -49.5t-58.5 -172.5z" />
    <glyph glyph-name="Abreve" unicode="&#x102;" horiz-adv-x="1565" 
d="M1503 0h-291l-97 508h-517l-95 -508h-434l215 1153q14 76 39.5 136.5t56 102.5t72.5 72.5t82.5 48t93.5 28t98 14t103 3.5h6h9q207 -4 303 -99.5t135 -304.5zM625 654h462l-90 472q-33 172 -50 214q-23 55 -70 67q-19 4 -44 5q-48 -1 -63 -37t-53 -233l-3 -15zM637 1937
v103h74v-103q0 -52 37.5 -81.5t83 -29.5t83 29.5t37.5 81.5v103h74v-103q0 -76 -29 -132t-72 -81.5t-93.5 -25.5t-93.5 25.5t-72 81.5t-29 132z" />
    <glyph glyph-name="abreve" unicode="&#x103;" horiz-adv-x="1095" 
d="M712 1076h146v-593q0 -118 57 -163t159 -45v-291q-49 0 -99.5 15.5t-108 62t-93.5 118.5q-98 -163 -326 -163q-90 0 -159 29t-111 75.5t-69 114.5t-37.5 135.5t-13.5 149.5v24v32h1q12 225 118 351t271 126q161 0 265 -109v131zM202 541q1 -64 38 -76t207 -12
q184 0 220 10.5t37 69.5q-1 59 -11.5 98.5t-37.5 71t-78 46t-130 14.5q-132 0 -186.5 -49.5t-58.5 -172.5zM303 1507v104h74v-104q0 -52 37.5 -81.5t83 -29.5t83 29.5t37.5 81.5v104h73v-104q0 -58 -16.5 -104.5t-44 -75t-62.5 -44.5t-71 -16t-71 16t-62.5 44.5t-44 75
t-16.5 104.5z" />
    <glyph glyph-name="Aogonek" unicode="&#x104;" horiz-adv-x="1565" 
d="M69 0l215 1153q14 76 39.5 136.5t56 102.5t72.5 72.5t82.5 48t93.5 28t98 14t103 3.5h6h9q207 -4 303 -99.5t135 -304.5l220 -1145h32v-139q0 -30 27 -39.5t125 -9.5v-149q-124 0 -175 49.5t-51 148.5v130h-248l-97 508h-517l-95 -508h-434zM625 654h462l-90 472
q-33 172 -50 214q-23 55 -70 67q-19 4 -44 5q-48 -1 -63 -37t-53 -233l-3 -15z" />
    <glyph glyph-name="aogonek" unicode="&#x105;" horiz-adv-x="1095" 
d="M712 1076h146v-593q0 -118 57 -163t159 -45v-291q-32 0 -64 7v-130q0 -30 27 -39.5t125 -9.5v-150q-124 0 -175 50t-51 149v139h40q-135 45 -203 180q-98 -163 -326 -163q-90 0 -159 29t-111 75.5t-69 114.5t-37.5 135.5t-13.5 149.5v24v32h1q12 225 118 351t271 126
q161 0 265 -109v131zM202 541q1 -64 38 -76t207 -12q184 0 220 10.5t37 69.5q-1 59 -11.5 98.5t-37.5 71t-78 46t-130 14.5q-132 0 -186.5 -49.5t-58.5 -172.5z" />
    <glyph glyph-name="Cacute" unicode="&#x106;" horiz-adv-x="1006" 
d="M956 3h-156q-118 0 -208 7.5t-166.5 26t-130 47t-96.5 74.5t-69 102.5t-43 138t-23.5 175t-6.5 217.5v5q0 89 4.5 159.5t15 139.5t28.5 122.5t46 102.5t66.5 85t89.5 65.5t116 47.5t146.5 27.5t179.5 9.5h159v-291h-159q-80 0 -140.5 -2t-114 -9t-90.5 -14.5t-69 -24.5
t-52 -34t-36 -47.5t-24 -59t-13 -76t-6.5 -91t-1.5 -110.5v-5v-94.5t6.5 -74.5t10 -60.5t25 -43.5t35 -33.5t57 -20.5t74 -15t102.5 -6t126.5 -4h161.5h156v-436zM590 1702l132 395l139 -47l-132 -395z" />
    <glyph glyph-name="cacute" unicode="&#x107;" horiz-adv-x="902" 
d="M202 616q0 -130 165 -175.5t486 10.5v-435q-780 -133 -796 571v29v2q0 83 26.5 165t83.5 159t145.5 123.5t213 58.5t286.5 -35v-291q-118 38 -220.5 46t-172.5 -9.5t-120 -51.5t-73.5 -77t-23.5 -88v-2zM453 1330l132 394l139 -47l-132 -395z" />
    <glyph glyph-name="Ccircumflex" unicode="&#x108;" horiz-adv-x="1006" 
d="M956 3h-156q-118 0 -208 7.5t-166.5 26t-130 47t-96.5 74.5t-69 102.5t-43 138t-23.5 175t-6.5 217.5v5q0 89 4.5 159.5t15 139.5t28.5 122.5t46 102.5t66.5 85t89.5 65.5t116 47.5t146.5 27.5t179.5 9.5h159v-291h-159q-80 0 -140.5 -2t-114 -9t-90.5 -14.5t-69 -24.5
t-52 -34t-36 -47.5t-24 -59t-13 -76t-6.5 -91t-1.5 -110.5v-5v-94.5t6.5 -74.5t10 -60.5t25 -43.5t35 -33.5t57 -20.5t74 -15t102.5 -6t126.5 -4h161.5h156v-436zM406 1810l312 310l313 -309l-104 -105l-209 208l-208 -207z" />
    <glyph glyph-name="ccircumflex" unicode="&#x109;" horiz-adv-x="902" 
d="M202 616q0 -130 165 -175.5t486 10.5v-435q-780 -133 -796 571v29v2q0 83 26.5 165t83.5 159t145.5 123.5t213 58.5t286.5 -35v-291q-118 38 -220.5 46t-172.5 -9.5t-120 -51.5t-73.5 -77t-23.5 -88v-2zM270 1438l311 309l313 -308l-103 -105l-210 207l-208 -207z" />
    <glyph glyph-name="Cdotaccent" unicode="&#x10a;" horiz-adv-x="1006" 
d="M956 3h-156q-118 0 -208 7.5t-166.5 26t-130 47t-96.5 74.5t-69 102.5t-43 138t-23.5 175t-6.5 217.5v5q0 89 4.5 159.5t15 139.5t28.5 122.5t46 102.5t66.5 85t89.5 65.5t116 47.5t146.5 27.5t179.5 9.5h159v-291h-159q-80 0 -140.5 -2t-114 -9t-90.5 -14.5t-69 -24.5
t-52 -34t-36 -47.5t-24 -59t-13 -76t-6.5 -91t-1.5 -110.5v-5v-94.5t6.5 -74.5t10 -60.5t25 -43.5t35 -33.5t57 -20.5t74 -15t102.5 -6t126.5 -4h161.5h156v-436zM556 1828l164 163l163 -163l-164 -164z" />
    <glyph glyph-name="cdotaccent" unicode="&#x10b;" horiz-adv-x="902" 
d="M202 616q0 -130 165 -175.5t486 10.5v-435q-780 -133 -796 571v29v2q0 83 26.5 165t83.5 159t145.5 123.5t213 58.5t286.5 -35v-291q-118 38 -220.5 46t-172.5 -9.5t-120 -51.5t-73.5 -77t-23.5 -88v-2zM419 1455l164 164l163 -164l-164 -164z" />
    <glyph glyph-name="Ccaron" unicode="&#x10c;" horiz-adv-x="1006" 
d="M956 3h-156q-118 0 -208 7.5t-166.5 26t-130 47t-96.5 74.5t-69 102.5t-43 138t-23.5 175t-6.5 217.5v5q0 89 4.5 159.5t15 139.5t28.5 122.5t46 102.5t66.5 85t89.5 65.5t116 47.5t146.5 27.5t179.5 9.5h159v-291h-159q-80 0 -140.5 -2t-114 -9t-90.5 -14.5t-69 -24.5
t-52 -34t-36 -47.5t-24 -59t-13 -76t-6.5 -91t-1.5 -110.5v-5v-94.5t6.5 -74.5t10 -60.5t25 -43.5t35 -33.5t57 -20.5t74 -15t102.5 -6t126.5 -4h161.5h156v-436zM407 2027l103 103l208 -207l210 208l103 -105l-313 -309z" />
    <glyph glyph-name="ccaron" unicode="&#x10d;" horiz-adv-x="902" 
d="M202 616q0 -130 165 -175.5t486 10.5v-435q-780 -133 -796 571v29v2q0 83 26.5 165t83.5 159t145.5 123.5t213 58.5t286.5 -35v-291q-118 38 -220.5 46t-172.5 -9.5t-120 -51.5t-73.5 -77t-23.5 -88v-2zM270 1654l104 103l208 -206l209 207l104 -105l-313 -309z" />
    <glyph glyph-name="Dcaron" unicode="&#x10e;" horiz-adv-x="1118" 
d="M202 0h-145v1570h146v-13h211q171 0 298 -50.5t202.5 -144t112 -217.5t36.5 -281v-101v-31v-8q-2 -126 -24.5 -230t-71.5 -193.5t-123 -151t-184.5 -96t-250.5 -34.5h-207v-19zM202 455h207q193 0 302.5 29.5t156.5 91.5t49 169v119q0 145 -45 230.5t-155.5 128.5
t-302.5 43h-211zM247 2027l104 103l208 -207l209 208l104 -105l-313 -309z" />
    <glyph glyph-name="dcaron" unicode="&#x10f;" horiz-adv-x="991" 
d="M789 0v128q-98 -109 -240 -109h-85q-197 0 -302 149t-105 407v27q0 220 110 354.5t293 134.5h26q79 0 159 -33.5t144 -96.5v609h146v-1570h-146zM202 575q0 -25 7 -44.5t15 -32t28.5 -21.5t34 -13t46 -6.5t49 -2.5h57.5h25h85q101 0 152 13t69.5 41t18.5 85
q0 91 -89 148.5t-214 57.5h-26q-138 0 -198 -47t-60 -151v-27zM289 1251l132 395l139 -48l-132 -395z" />
    <glyph glyph-name="Dcroat" unicode="&#x110;" horiz-adv-x="1263" 
d="M348 0h-146v761h-153v146h154v663h146v-13h211q171 0 298 -50.5t202.5 -144t111.5 -217.5t36 -281v-101v-31v-8q-2 -104 -18 -193.5t-48 -169.5t-84 -142t-122.5 -107t-167 -69t-213.5 -24h-207v-19zM348 455h207q193 0 302.5 29.5t156.5 91.5t49 169v119
q0 145 -45 230.5t-155.5 128.5t-302.5 43h-211v-359h451v-146h-452v-306z" />
    <glyph glyph-name="dcroat" unicode="&#x111;" horiz-adv-x="1199" 
d="M789 0v128q-98 -109 -240 -109h-85q-197 0 -302 149t-105 407v27q0 220 110 354.5t293 134.5h26q79 0 159 -33.5t144 -96.5v316h-225v146h225v147h146v-147h214v-146h-214v-1277h-146zM202 575q0 -25 7 -44.5t15 -32t28.5 -21.5t34 -13t46 -6.5t49 -2.5h57.5h25h85
q101 0 152 13t69.5 41t18.5 85q0 91 -89 148.5t-214 57.5h-26q-138 0 -198 -47t-60 -151v-27z" />
    <glyph glyph-name="Emacron" unicode="&#x112;" horiz-adv-x="1111" 
d="M1062 455v-436h-579q-79 0 -144 22t-110.5 62.5t-79.5 93.5t-53.5 119t-29 135t-9.5 145v961h1004v-291h-859v-325h763v-146h-763v-199q0 -36 5.5 -57.5t21 -39.5t48 -26.5t81 -13t125.5 -4.5h579zM110 1721v146h722v-146h-722z" />
    <glyph glyph-name="emacron" unicode="&#x113;" horiz-adv-x="886" 
d="M825 731v-8v-9q-2 -60 -18.5 -108t-52 -89t-99.5 -63t-152 -21l-295 7q16 -61 73.5 -95.5t139.5 -40t174 6.5t186 41l42 -314q-127 -39 -238 -49.5t-209 12t-168 79.5t-110.5 160.5t-40.5 247.5v141q0 116 31 209.5t83.5 154t122 92.5t147.5 32q195 0 287.5 -104.5
t96.5 -281.5zM98 1293v146h723v-146h-723zM204 659l302 -6q78 -2 113 3.5t47 18.5t13 44q-3 61 -64 84.5t-174 23.5q-220 0 -237 -168z" />
    <glyph glyph-name="Edotaccent" unicode="&#x116;" horiz-adv-x="1111" 
d="M1062 455v-436h-579q-79 0 -144 22t-110.5 62.5t-79.5 93.5t-53.5 119t-29 135t-9.5 145v961h1004v-291h-859v-325h763v-146h-763v-199q0 -36 5.5 -57.5t21 -39.5t48 -26.5t81 -13t125.5 -4.5h579zM308 1828l164 163l163 -163l-164 -164z" />
    <glyph glyph-name="edotaccent" unicode="&#x117;" horiz-adv-x="886" 
d="M825 731v-8v-9q-2 -60 -18.5 -108t-52 -89t-99.5 -63t-152 -21l-295 7q16 -61 73.5 -95.5t139.5 -40t174 6.5t186 41l42 -314q-127 -39 -238 -49.5t-209 12t-168 79.5t-110.5 160.5t-40.5 247.5v141q0 116 31 209.5t83.5 154t122 92.5t147.5 32q195 0 287.5 -104.5
t96.5 -281.5zM204 659l302 -6q78 -2 113 3.5t47 18.5t13 44q-3 61 -64 84.5t-174 23.5q-220 0 -237 -168zM297 1399l163 164l163 -164l-163 -164z" />
    <glyph glyph-name="Eogonek" unicode="&#x118;" horiz-adv-x="1111" 
d="M1062 455v-436h-579q-79 0 -144 22t-110.5 62.5t-79.5 93.5t-53.5 119t-29 135t-9.5 145v961h1004v-291h-859v-325h763v-146h-763v-199q0 -36 5.5 -57.5t21 -39.5t48 -26.5t81 -13t125.5 -4.5h579zM643 -130v139h74v-139q0 -30 27 -39.5t125 -9.5v-149q-124 0 -175 49.5
t-51 148.5z" />
    <glyph glyph-name="eogonek" unicode="&#x119;" horiz-adv-x="886" 
d="M825 731v-8v-9q-2 -60 -18.5 -108t-52 -89t-99.5 -63t-152 -21l-295 7q16 -61 73.5 -95.5t139.5 -40t174 6.5t186 41l42 -314q-127 -39 -238 -49.5t-209 12t-168 79.5t-110.5 160.5t-40.5 247.5v141q0 116 31 209.5t83.5 154t122 92.5t147.5 32q195 0 287.5 -104.5
t96.5 -281.5zM204 659l302 -6q78 -2 113 3.5t47 18.5t13 44q-3 61 -64 84.5t-174 23.5q-220 0 -237 -168zM474 -158v139h74v-139q0 -30 27 -39.5t125 -9.5v-149q-124 0 -175 49.5t-51 148.5z" />
    <glyph glyph-name="Ecaron" unicode="&#x11a;" horiz-adv-x="1111" 
d="M1062 455v-436h-579q-79 0 -144 22t-110.5 62.5t-79.5 93.5t-53.5 119t-29 135t-9.5 145v961h1004v-291h-859v-325h763v-146h-763v-199q0 -36 5.5 -57.5t21 -39.5t48 -26.5t81 -13t125.5 -4.5h579zM159 2027l103 103l208 -207l210 208l103 -105l-313 -309z" />
    <glyph glyph-name="ecaron" unicode="&#x11b;" horiz-adv-x="886" 
d="M825 731v-8v-9q-2 -60 -18.5 -108t-52 -89t-99.5 -63t-152 -21l-295 7q16 -61 73.5 -95.5t139.5 -40t174 6.5t186 41l42 -314q-127 -39 -238 -49.5t-209 12t-168 79.5t-110.5 160.5t-40.5 247.5v141q0 116 31 209.5t83.5 154t122 92.5t147.5 32q195 0 287.5 -104.5
t96.5 -281.5zM147 1598l104 103l208 -206l209 207l104 -105l-313 -308zM204 659l302 -6q78 -2 113 3.5t47 18.5t13 44q-3 61 -64 84.5t-174 23.5q-220 0 -237 -168z" />
    <glyph glyph-name="Gcircumflex" unicode="&#x11c;" horiz-adv-x="1236" 
d="M657 19q-65 2 -125 13.5t-121 38t-112.5 66.5t-97 102t-77 140.5t-49.5 186t-18 234.5v5q0 357 164 554t458 197q64 -1 118 -7t76 -10.5t88.5 -22t88.5 -23.5l-36 -281q-22 5 -63 16t-62 15.5t-58.5 11t-80.5 9t-100 2.5q-232 -6 -340 -115t-108 -346v-5
q0 -188 116 -266.5t358 -78.5h39q127 0 198.5 19t96.5 52t25 88v109h-427v218h427v9h145v-336q0 -119 -26.5 -222.5t-80.5 -188.5t-146 -134.5t-212 -49.5h-58zM339 1810l311 310l313 -309l-103 -105l-210 208l-208 -207z" />
    <glyph glyph-name="gcircumflex" unicode="&#x11d;" horiz-adv-x="975" 
d="M224 -212q218 0 335 37t165 119.5t49 236.5q-99 -161 -324 -161q-90 0 -158.5 28.5t-111 74.5t-70 114t-38.5 136.5t-14 152.5v25v32h1q13 227 119.5 352.5t271.5 125.5q217 0 324 -189v186h146v-873q0 -362 -171 -525t-524 -163v291zM149 1298l311 310l313 -309
l-103 -105l-210 208l-208 -207zM202 546q1 -66 38.5 -78.5t208.5 -12.5q185 0 221.5 11t37.5 72q-1 60 -11.5 99.5t-38 71.5t-79 46.5t-130.5 14.5q-132 0 -187.5 -50t-59.5 -174z" />
    <glyph glyph-name="Gbreve" unicode="&#x11e;" horiz-adv-x="1236" 
d="M657 19q-65 2 -125 13.5t-121 38t-112.5 66.5t-97 102t-77 140.5t-49.5 186t-18 234.5v5q0 357 164 554t458 197q64 -1 118 -7t76 -10.5t88.5 -22t88.5 -23.5l-36 -281q-22 5 -63 16t-62 15.5t-58.5 11t-80.5 9t-100 2.5q-232 -6 -340 -115t-108 -346v-5
q0 -188 116 -266.5t358 -78.5h39q127 0 198.5 19t96.5 52t25 88v109h-427v218h427v9h145v-336q0 -119 -26.5 -222.5t-80.5 -188.5t-146 -134.5t-212 -49.5h-58zM458 1937v103h74v-103q0 -52 37.5 -81.5t83 -29.5t83 29.5t37.5 81.5v103h73v-103q0 -58 -16.5 -104.5t-44 -75
t-62.5 -44.5t-71 -16t-71 16t-62.5 44.5t-44 75t-16.5 104.5z" />
    <glyph glyph-name="gbreve" unicode="&#x11f;" horiz-adv-x="975" 
d="M224 -212q218 0 335 37t165 119.5t49 236.5q-99 -161 -324 -161q-90 0 -158.5 28.5t-111 74.5t-70 114t-38.5 136.5t-14 152.5v25v32h1q13 227 119.5 352.5t271.5 125.5q217 0 324 -189v186h146v-873q0 -362 -171 -525t-524 -163v291zM202 546q1 -66 38.5 -78.5
t208.5 -12.5q185 0 221.5 11t37.5 72q-1 60 -11.5 99.5t-38 71.5t-79 46.5t-130.5 14.5q-132 0 -187.5 -50t-59.5 -174zM268 1425v103h74v-103q0 -30 13 -54t34.5 -36t47 -18t51 0t47 18t34.5 36t13 54v103h74v-103q0 -58 -16.5 -104.5t-44 -75t-62.5 -44.5t-71 -16t-71 16
t-62.5 44.5t-44 75t-16.5 104.5z" />
    <glyph glyph-name="Gdotaccent" unicode="&#x120;" horiz-adv-x="1236" 
d="M657 19q-65 2 -125 13.5t-121 38t-112.5 66.5t-97 102t-77 140.5t-49.5 186t-18 234.5v5q0 357 164 554t458 197q64 -1 118 -7t76 -10.5t88.5 -22t88.5 -23.5l-36 -281q-22 5 -63 16t-62 15.5t-58.5 11t-80.5 9t-100 2.5q-232 -6 -340 -115t-108 -346v-5
q0 -188 116 -266.5t358 -78.5h39q127 0 198.5 19t96.5 52t25 88v109h-427v218h427v9h145v-336q0 -119 -26.5 -222.5t-80.5 -188.5t-146 -134.5t-212 -49.5h-58zM489 1828l164 163l163 -163l-164 -164z" />
    <glyph glyph-name="gdotaccent" unicode="&#x121;" horiz-adv-x="975" 
d="M224 -212q218 0 335 37t165 119.5t49 236.5q-99 -161 -324 -161q-90 0 -158.5 28.5t-111 74.5t-70 114t-38.5 136.5t-14 152.5v25v32h1q13 227 119.5 352.5t271.5 125.5q217 0 324 -189v186h146v-873q0 -362 -171 -525t-524 -163v291zM202 546q1 -66 38.5 -78.5
t208.5 -12.5q185 0 221.5 11t37.5 72q-1 60 -11.5 99.5t-38 71.5t-79 46.5t-130.5 14.5q-132 0 -187.5 -50t-59.5 -174zM299 1316l164 163l163 -163l-164 -164z" />
    <glyph glyph-name="uni0122" unicode="&#x122;" horiz-adv-x="1236" 
d="M657 19q-65 2 -125 13.5t-121 38t-112.5 66.5t-97 102t-77 140.5t-49.5 186t-18 234.5v5q0 357 164 554t458 197q64 -1 118 -7t76 -10.5t88.5 -22t88.5 -23.5l-36 -281q-22 5 -63 16t-62 15.5t-58.5 11t-80.5 9t-100 2.5q-232 -6 -340 -115t-108 -346v-5
q0 -188 116 -266.5t358 -78.5h39q127 0 198.5 19t96.5 52t25 88v109h-427v218h427v9h145v-336q0 -119 -26.5 -222.5t-80.5 -188.5t-146 -134.5t-212 -49.5h-58zM540 -454l132 395l139 -47l-132 -395z" />
    <glyph glyph-name="uni0123" unicode="&#x123;" horiz-adv-x="975" 
d="M224 -212q218 0 335 37t165 119.5t49 236.5q-99 -161 -324 -161q-90 0 -158.5 28.5t-111 74.5t-70 114t-38.5 136.5t-14 152.5v25v32h1q13 227 119.5 352.5t271.5 125.5q217 0 324 -189v186h146v-873q0 -362 -171 -525t-524 -163v291zM202 546q1 -66 38.5 -78.5
t208.5 -12.5q185 0 221.5 11t37.5 72q-1 60 -11.5 99.5t-38 71.5t-79 46.5t-130.5 14.5q-132 0 -187.5 -50t-59.5 -174zM350 1390v139h74v-139q0 -30 27 -39.5t125 -9.5v-149q-125 0 -175.5 50t-50.5 148z" />
    <glyph glyph-name="Hcircumflex" unicode="&#x124;" horiz-adv-x="1141" 
d="M202 0h-145v1570h146v-589h737v589h146l-1 -1570h-145v546h-738v-546zM200 1810l311 310l313 -309l-103 -105l-210 208l-208 -207z" />
    <glyph glyph-name="hcircumflex" unicode="&#x125;" horiz-adv-x="991" 
d="M202 0h-145v1570h145v-591q63 76 143 115t160 39h27q91 0 160 -29.5t115 -82t75 -131t41 -170t12 -205.5v-515h-146v515q0 48 -1 76.5t-5.5 59t-10.5 45.5t-20.5 30.5t-31 22t-46 12t-61.5 6.5t-81 1h-27q-303 0 -303 -271v-497zM193 1810l312 310l313 -309l-104 -105
l-209 208l-208 -207z" />
    <glyph glyph-name="Hbar" unicode="&#x126;" horiz-adv-x="1522" 
d="M393 0h-146l1 1236h-198v146h198v188h146v-188h737v188h146v-188h196v-146h-196l-1 -1236h-146v546h-737v-546zM394 981h737v255h-737v-255z" />
    <glyph glyph-name="hbar" unicode="&#x127;" horiz-adv-x="1159" 
d="M370 0h-146v1274h-174v146h174v150h146v-150h346v-146h-346v-295q63 76 143 115t160 39h27q91 0 160 -29.5t115 -82t75 -131t41 -170t12 -205.5v-515h-146v515q0 48 -1 76.5t-5.5 59t-10.5 45.5t-20.5 30.5t-31 22t-46 12t-61.5 6.5t-81 1h-27q-303 0 -303 -271v-497z
" />
    <glyph glyph-name="Itilde" unicode="&#x128;" horiz-adv-x="494" 
d="M320 0h-146l1 1570h146zM-111 1869q92 50 148.5 67t115.5 6t133 -59q66 -42 102 -34.5t122 79.5l95 -113q-114 -97 -203 -110t-195 53q-41 26 -58.5 35t-47.5 6.5t-54.5 -14.5t-86.5 -46z" />
    <glyph glyph-name="itilde" unicode="&#x129;" horiz-adv-x="335" 
d="M241 0h-146v1150h146v-1150z" />
    <glyph glyph-name="Imacron" unicode="&#x12a;" horiz-adv-x="494" 
d="M320 0h-146l1 1570h146zM-113 1721v146h722v-146h-722z" />
    <glyph glyph-name="imacron" unicode="&#x12b;" horiz-adv-x="335" 
d="M241 0h-146v1150h146v-1150z" />
    <glyph glyph-name="Iogonek" unicode="&#x12e;" horiz-adv-x="494" 
d="M320 0h-25v-138q0 -21 10 -30.5t42.5 -14.5t99.5 -5v-149q-124 0 -175 50t-51 149v138h-47l1 1570h146z" />
    <glyph glyph-name="iogonek" unicode="&#x12f;" horiz-adv-x="335" 
d="M241 0h-39v-139q0 -30 27 -39.5t125 -9.5v-150q-124 0 -175 50t-51 149v139h-33v1150h146v-1150z" />
    <glyph glyph-name="Idotaccent" unicode="&#x130;" horiz-adv-x="494" 
d="M320 0h-146l1 1570h146zM85 1828l164 163l163 -163l-164 -164z" />
    <glyph glyph-name="dotlessi" unicode="&#x131;" horiz-adv-x="436" 
d="M291 0h-146v972h146v-972z" />
    <glyph glyph-name="IJ" unicode="&#x132;" horiz-adv-x="1230" 
d="M320 0h-146l1 1570h146zM545 -206v363q122 0 203 11.5t137.5 35.5t87 69t43 104.5t12.5 149.5v1043h146v-1043q0 -368 -148 -550.5t-481 -182.5z" />
    <glyph glyph-name="ij" unicode="&#x133;" horiz-adv-x="1215" 
d="M337 0h-146v1058h146v-1058zM50 1328l205 204l204 -204l-205 -205zM401 -503v291q148 0 239 18t147.5 65.5t77.5 121t21 192.5v873h145v-873q0 -169 -33.5 -293.5t-107 -214.5t-195.5 -135t-294 -45zM756 1328l205 204l204 -204l-205 -205z" />
    <glyph glyph-name="Jcircumflex" unicode="&#x134;" horiz-adv-x="735" 
d="M50 157q122 0 203 11.5t137.5 35.5t87 69t43 104.5t12.5 149.5v1043h146v-1043q0 -368 -148 -550.5t-481 -182.5v363zM294 1810l311 310l313 -309l-103 -105l-210 208l-208 -207z" />
    <glyph glyph-name="jcircumflex" unicode="&#x135;" horiz-adv-x="736" 
d="M50 -212q196 0 298.5 36t144 119t41.5 242v873h146v-873q0 -169 -33.5 -293.5t-107 -214.5t-195.5 -135t-294 -45v291zM294 1298l311 310l313 -309l-103 -105l-210 208l-208 -207z" />
    <glyph glyph-name="uni0136" unicode="&#x136;" horiz-adv-x="1139" 
d="M202 0h-145v1570h146v-592l723 609l93 -112l-604 -508h49q164 0 284 -51.5t193 -151t107.5 -235.5t34.5 -314v-215h-146v215q0 114 -19.5 184.5t-73.5 118t-144 66t-236 18.5h-262v-602zM468 -454l132 395l139 -47l-132 -395z" />
    <glyph glyph-name="uni0137" unicode="&#x137;" horiz-adv-x="1015" 
d="M202 0h-145v1570h146v-779h103l504 451l97 -108l-387 -347q432 -41 432 -617v-170h-146v170q0 80 -13 126t-53.5 77.5t-108 42.5t-183.5 11h-246v-427zM419 -454l132 395l139 -47l-132 -395z" />
    <glyph glyph-name="Lacute" unicode="&#x139;" horiz-adv-x="842" 
d="M792 455v-436h-223q-126 0 -217.5 28t-148 76.5t-89.5 126t-45 162.5t-12 201v957h146l-1 -957q0 -31 1 -48.5t7.5 -36.5t15 -28t29 -19t44 -14t65.5 -7.5t88 -4t117 -0.5h223zM133 1702l132 395l139 -47l-132 -395z" />
    <glyph glyph-name="lacute" unicode="&#x13a;" horiz-adv-x="629" 
d="M580 455v-436h-71q-91 0 -158 19.5t-125 70.5t-93.5 137.5t-55.5 223.5t-20 325v775h146l-1 -775q0 -103 -0.5 -145t13 -92.5t23.5 -62t56.5 -26t83.5 -14.5h131h71zM106 1702l132 395l139 -47l-132 -395z" />
    <glyph glyph-name="uni013B" unicode="&#x13b;" horiz-adv-x="842" 
d="M792 455v-436h-223q-126 0 -217.5 28t-148 76.5t-89.5 126t-45 162.5t-12 201v957h146l-1 -957q0 -31 1 -48.5t7.5 -36.5t15 -28t29 -19t44 -14t65.5 -7.5t88 -4t117 -0.5h223zM280 -454l132 395l139 -47l-132 -395z" />
    <glyph glyph-name="uni013C" unicode="&#x13c;" horiz-adv-x="629" 
d="M580 455v-436h-71q-91 0 -158 19.5t-125 70.5t-93.5 137.5t-55.5 223.5t-20 325v775h146l-1 -775q0 -103 -0.5 -145t13 -92.5t23.5 -62t56.5 -26t83.5 -14.5h131h71zM115 -454l132 395l139 -47l-132 -395z" />
    <glyph glyph-name="Lcaron" unicode="&#x13d;" horiz-adv-x="842" 
d="M792 455v-436h-223q-126 0 -217.5 28t-148 76.5t-89.5 126t-45 162.5t-12 201v957h146l-1 -957q0 -31 1 -48.5t7.5 -36.5t15 -28t29 -19t44 -14t65.5 -7.5t88 -4t117 -0.5h223zM419 1169l132 395l139 -48l-132 -395z" />
    <glyph glyph-name="lcaron" unicode="&#x13e;" horiz-adv-x="629" 
d="M580 455v-436h-71q-91 0 -158 19.5t-125 70.5t-93.5 137.5t-55.5 223.5t-20 325v775h146l-1 -775q0 -103 -0.5 -145t13 -92.5t23.5 -62t56.5 -26t83.5 -14.5h131h71zM320 1169l132 395l139 -48l-131 -395z" />
    <glyph glyph-name="Lslash" unicode="&#x141;" horiz-adv-x="981" 
d="M931 455v-436h-223q-106 0 -187 18.5t-137 56t-93.5 87t-58 119.5t-29 143.5t-8.5 169.5v278l-72 -40l-71 128l143 79l1 512h146v-432l249 137l70 -128l-320 -176v-358q0 -31 1 -48.5t7.5 -36.5t15 -28t29 -19t44 -14t65.5 -7.5t88 -4t117 -0.5h223z" />
    <glyph glyph-name="lslash" unicode="&#x142;" horiz-adv-x="835" 
d="M786 455v-436h-72q-91 0 -158 19.5t-125 70.5t-93.5 137.5t-55.5 223.5t-20 325v246l-167 -52l-43 139l211 66v376h146v-331l228 72l43 -140l-272 -85v-291q-1 -188 11 -239q14 -63 63 -83q44 -18 189 -18h43h72z" />
    <glyph glyph-name="Nacute" unicode="&#x143;" horiz-adv-x="1277" 
d="M58 1570h411l599 -1270v1270h146v-1570h-405l-605 1280l2 -1280h-146zM510 1702l131 395l140 -47l-132 -395z" />
    <glyph glyph-name="nacute" unicode="&#x144;" horiz-adv-x="991" 
d="M202 0h-145v1118h145v-168q63 76 143 115t160 39h27q113 0 192.5 -44t125 -128.5t65.5 -193t20 -251.5v-487h-146v487q0 48 -1 76.5t-5.5 59t-10.5 45.5t-20.5 30.5t-31 22t-46 12t-61.5 6.5t-81 1h-27q-303 0 -303 -271v-469zM362 1353l132 395l139 -47l-132 -395z" />
    <glyph glyph-name="uni0145" unicode="&#x145;" horiz-adv-x="1277" 
d="M58 1570h411l599 -1270v1270h146v-1570h-405l-605 1280l2 -1280h-146zM499 -454l132 395l139 -47l-132 -395z" />
    <glyph glyph-name="uni0146" unicode="&#x146;" horiz-adv-x="991" 
d="M202 0h-145v1118h145v-168q63 76 143 115t160 39h27q113 0 192.5 -44t125 -128.5t65.5 -193t20 -251.5v-487h-146v487q0 48 -1 76.5t-5.5 59t-10.5 45.5t-20.5 30.5t-31 22t-46 12t-61.5 6.5t-81 1h-27q-303 0 -303 -271v-469zM369 -454l132 395l140 -47l-132 -395z" />
    <glyph glyph-name="Ncaron" unicode="&#x147;" horiz-adv-x="1277" 
d="M58 1570h411l599 -1270v1270h146v-1570h-405l-605 1280l2 -1280h-146zM327 2027l103 103l208 -207l210 208l103 -105l-313 -309z" />
    <glyph glyph-name="ncaron" unicode="&#x148;" horiz-adv-x="991" 
d="M202 0h-145v1118h145v-168q63 76 143 115t160 39h27q113 0 192.5 -44t125 -128.5t65.5 -193t20 -251.5v-487h-146v487q0 48 -1 76.5t-5.5 59t-10.5 45.5t-20.5 30.5t-31 22t-46 12t-61.5 6.5t-81 1h-27q-303 0 -303 -271v-469zM179 1678l104 103l208 -206l209 207
l104 -105l-313 -309z" />
    <glyph glyph-name="Omacron" unicode="&#x14c;" horiz-adv-x="1134" 
d="M933 969q0 153 -69.5 225t-224.5 72h-143q-93 0 -152.5 -19t-90 -60t-41 -91t-10.5 -127v-289q0 -55 5 -87t21 -62t48 -44.5t85.5 -23t134.5 -8.5h143q68 0 116 5t81 18t52 28t29 43.5t13 56.5t3 74v289zM57 680v289q0 87 13 166.5t45 158t80.5 135.5t125.5 92.5
t175 35.5h143q194 0 317 -162.5t123 -425.5v-289q0 -95 -13 -184.5t-45.5 -177.5t-81 -153t-126 -105.5t-174.5 -40.5h-143q-96 0 -173.5 40.5t-126 105.5t-81 153t-45.5 177.5t-13 184.5zM204 1721v146h723v-146h-723z" />
    <glyph glyph-name="omacron" unicode="&#x14d;" horiz-adv-x="1028" 
d="M971 639q4 -151 -17 -261.5t-71.5 -193t-140 -124t-219.5 -41.5q-113 0 -195.5 28t-135.5 78t-84 129t-42 171t-9 214v2q0 134 35.5 233.5t100 158t147 86t183.5 27.5q215 0 329 -133.5t119 -369.5v-4zM149 1319v146h723v-146h-723zM202 605q-1 -111 43.5 -130.5
t277.5 -19.5q223 0 264 20t39 132h-1v32q-2 119 -72 167.5t-230 48.5q-182 0 -251.5 -46.5t-69.5 -167.5v-36z" />
    <glyph glyph-name="Ohungarumlaut" unicode="&#x150;" horiz-adv-x="1134" 
d="M933 969q0 153 -69.5 225t-224.5 72h-143q-93 0 -152.5 -19t-90 -60t-41 -91t-10.5 -127v-289q0 -55 5 -87t21 -62t48 -44.5t85.5 -23t134.5 -8.5h143q68 0 116 5t81 18t52 28t29 43.5t13 56.5t3 74v289zM57 680v289q0 87 13 166.5t45 158t80.5 135.5t125.5 92.5
t175 35.5h143q194 0 317 -162.5t123 -425.5v-289q0 -95 -13 -184.5t-45.5 -177.5t-81 -153t-126 -105.5t-174.5 -40.5h-143q-96 0 -173.5 40.5t-126 105.5t-81 153t-45.5 177.5t-13 184.5zM279 1707l131 395l140 -47l-132 -395zM582 1679l132 394l139 -47l-132 -395z" />
    <glyph glyph-name="ohungarumlaut" unicode="&#x151;" horiz-adv-x="1028" 
d="M971 639q4 -151 -17 -261.5t-71.5 -193t-140 -124t-219.5 -41.5q-113 0 -195.5 28t-135.5 78t-84 129t-42 171t-9 214v2q0 134 35.5 233.5t100 158t147 86t183.5 27.5q215 0 329 -133.5t119 -369.5v-4zM202 605q-1 -111 43.5 -130.5t277.5 -19.5q223 0 264 20t39 132h-1
v32q-2 119 -72 167.5t-230 48.5q-182 0 -251.5 -46.5t-69.5 -167.5v-36zM224 1305l132 395l139 -48l-132 -395zM527 1276l132 395l139 -47l-132 -395z" />
    <glyph glyph-name="OE" unicode="&#x152;" horiz-adv-x="1990" 
d="M933 969q0 153 -69.5 225t-224.5 72h-143q-93 0 -152.5 -19t-90 -60t-41 -91t-10.5 -127v-289q0 -55 5 -87t21 -62t48 -44.5t85.5 -23t134.5 -8.5h143q68 0 116 5t81 18t52 28t29 43.5t13 56.5t3 74v289zM57 680v289q0 87 13 166.5t45 158t80.5 135.5t125.5 92.5
t175 35.5h143q179 0 297 -137v137h1004v-291h-859v-325h763v-146h-763v-199q0 -36 5.5 -57.5t21 -39.5t48 -26.5t81 -13t125.5 -4.5h579v-436h-579q-263 0 -366 240q-116 -240 -357 -240h-143q-96 0 -173.5 40.5t-126 105.5t-81 153t-45.5 177.5t-13 184.5z" />
    <glyph glyph-name="oe" unicode="&#x153;" horiz-adv-x="1649" 
d="M202 605q-1 -111 43.5 -130.5t277.5 -19.5q178 0 230.5 8.5t65.5 50.5v28v141v13q-16 86 -86 122.5t-210 36.5q-182 0 -251.5 -46.5t-69.5 -167.5v-36zM57 639v2q0 134 35.5 233.5t100 158t147 86t183.5 27.5q244 0 360 -174q52 97 136 148t184 51q195 0 288 -104.5
t97 -281.5v-8v-9q-2 -60 -18.5 -108t-52 -89t-99.5 -63t-152 -21l-295 7q16 -61 73.5 -95.5t139 -40t173 6.5t186.5 41l43 -314q-152 -46 -280 -52t-236 37t-170 137q-102 -195 -377 -195q-113 0 -195.5 28t-135.5 78t-84 129t-42 171t-9 214zM967 714l302 -7q78 -2 113 3.5
t47 18.5t13 44q-3 61 -64 84.5t-175 23.5q-217 0 -236 -167z" />
    <glyph glyph-name="Racute" unicode="&#x154;" horiz-adv-x="1180" 
d="M1125 52l-102 -104l-615 608h-204v-556h-146v556h-1v614v380h492q98 0 170.5 -26.5t118.5 -73t74.5 -118t40 -151t12.5 -183.5v-27q0 -81 -18.5 -148t-58 -124.5t-110 -93.5t-167.5 -45zM203 1114v-267h342q146 0 210 29t64 95v1q0 107 -33 124.5t-231 17.5h-6h-346z
M478 1702l132 395l140 -47l-132 -395z" />
    <glyph glyph-name="racute" unicode="&#x155;" horiz-adv-x="643" 
d="M202 0h-145v1070h145v-175q70 84 155.5 122t147.5 38h89v-364h-89q-39 0 -74.5 -5t-79.5 -22.5t-75 -46.5t-52.5 -82.5t-21.5 -125.5v-409zM170 1196l131 395l140 -48l-132 -394z" />
    <glyph glyph-name="uni0156" unicode="&#x156;" horiz-adv-x="1180" 
d="M1125 52l-102 -104l-615 608h-204v-556h-146v556h-1v614v380h492q98 0 170.5 -26.5t118.5 -73t74.5 -118t40 -151t12.5 -183.5v-27q0 -81 -18.5 -148t-58 -124.5t-110 -93.5t-167.5 -45zM203 1114v-267h342q146 0 210 29t64 95v1q0 107 -33 124.5t-231 17.5h-6h-346z
M468 -454l132 395l139 -47l-132 -395z" />
    <glyph glyph-name="uni0157" unicode="&#x157;" horiz-adv-x="643" 
d="M202 0h-145v1070h145v-175q70 84 155.5 122t147.5 38h89v-364h-89q-39 0 -74.5 -5t-79.5 -22.5t-75 -46.5t-52.5 -82.5t-21.5 -125.5v-409zM159 -454l132 395l139 -47l-132 -395z" />
    <glyph glyph-name="Rcaron" unicode="&#x158;" horiz-adv-x="1180" 
d="M1125 52l-102 -104l-615 608h-204v-556h-146v556h-1v614v380h492q98 0 170.5 -26.5t118.5 -73t74.5 -118t40 -151t12.5 -183.5v-27q0 -81 -18.5 -148t-58 -124.5t-110 -93.5t-167.5 -45zM203 1114v-267h342q146 0 210 29t64 95v1q0 107 -33 124.5t-231 17.5h-6h-346z
M296 2027l103 103l208 -207l210 208l103 -105l-313 -309z" />
    <glyph glyph-name="rcaron" unicode="&#x159;" horiz-adv-x="643" 
d="M202 0h-145v1070h145v-175q70 84 155.5 122t147.5 38h89v-364h-89q-39 0 -74.5 -5t-79.5 -22.5t-75 -46.5t-52.5 -82.5t-21.5 -125.5v-409zM-13 1520l103 104l208 -207l210 207l103 -104l-313 -309z" />
    <glyph glyph-name="Sacute" unicode="&#x15a;" horiz-adv-x="1087" 
d="M1031 577v-2v-2v-26q-8 -353 -224 -468.5t-708 -27.5v434q386 -71 585.5 -46.5t201.5 136.5q-1 40 -26 64t-94 38t-190 14q-120 1 -212 24t-147.5 58.5t-91.5 88t-50.5 105t-17.5 115.5v21v16q3 80 16.5 142.5t46.5 108t65 77.5t98 52.5t117 32.5t150 17.5t169.5 6.5
t201.5 1v-291h-132q-94 1 -173.5 0.5t-143.5 -4.5t-113 -14.5t-82.5 -28.5t-52 -47.5t-21.5 -71.5q3 -39 29 -59t110 -32.5t244 -12.5q103 -1 182.5 -26t128 -64t79.5 -95t43 -112.5t12 -121.5zM444 1702l132 395l139 -47l-132 -395z" />
    <glyph glyph-name="sacute" unicode="&#x15b;" horiz-adv-x="847" 
d="M792 448v-1v-1v-18q-2 -73 -17 -134t-46 -116t-84 -92.5t-125.5 -59.5t-176 -20.5t-230.5 28.5v363q105 -24 194.5 -34t150.5 -7t104 15.5t63.5 32t20.5 43.5q-1 52 -53.5 78t-177.5 26v1q-81 2 -144.5 20.5t-101.5 46.5t-63 66t-35.5 74.5t-12.5 77.5h-1v15q0 7 1 11
q3 66 20.5 116t42 84.5t72.5 57.5t90 35.5t117.5 18.5t132 7.5t155.5 1.5v-218q-250 0 -285 -2q-140 -8 -178 -57q-18 -22 -21 -57q3 -44 49.5 -62t183.5 -18v-1q177 -6 265.5 -96.5t89.5 -224.5zM262 1323l132 395l139 -48l-132 -395z" />
    <glyph glyph-name="Scircumflex" unicode="&#x15c;" horiz-adv-x="1087" 
d="M1031 577v-2v-2v-26q-8 -353 -224 -468.5t-708 -27.5v434q386 -71 585.5 -46.5t201.5 136.5q-1 40 -26 64t-94 38t-190 14q-120 1 -212 24t-147.5 58.5t-91.5 88t-50.5 105t-17.5 115.5v21v16q3 80 16.5 142.5t46.5 108t65 77.5t98 52.5t117 32.5t150 17.5t169.5 6.5
t201.5 1v-291h-132q-94 1 -173.5 0.5t-143.5 -4.5t-113 -14.5t-82.5 -28.5t-52 -47.5t-21.5 -71.5q3 -39 29 -59t110 -32.5t244 -12.5q103 -1 182.5 -26t128 -64t79.5 -95t43 -112.5t12 -121.5zM261 1810l311 310l313 -309l-103 -105l-210 208l-208 -207z" />
    <glyph glyph-name="scircumflex" unicode="&#x15d;" horiz-adv-x="847" 
d="M792 448v-1v-1v-18q-2 -73 -17 -134t-46 -116t-84 -92.5t-125.5 -59.5t-176 -20.5t-230.5 28.5v363q105 -24 194.5 -34t150.5 -7t104 15.5t63.5 32t20.5 43.5q-1 52 -53.5 78t-177.5 26v1q-81 2 -144.5 20.5t-101.5 46.5t-63 66t-35.5 74.5t-12.5 77.5h-1v15q0 7 1 11
q3 66 20.5 116t42 84.5t72.5 57.5t90 35.5t117.5 18.5t132 7.5t155.5 1.5v-218q-250 0 -285 -2q-140 -8 -178 -57q-18 -22 -21 -57q3 -44 49.5 -62t183.5 -18v-1q177 -6 265.5 -96.5t89.5 -224.5zM79 1431l311 310l313 -309l-103 -105l-210 207l-208 -206z" />
    <glyph glyph-name="Scedilla" unicode="&#x15e;" horiz-adv-x="1087" 
d="M1031 577v-2v-2v-26q-8 -353 -224 -468.5t-708 -27.5v434q386 -71 585.5 -46.5t201.5 136.5q-1 40 -26 64t-94 38t-190 14q-120 1 -212 24t-147.5 58.5t-91.5 88t-50.5 105t-17.5 115.5v21v16q3 80 16.5 142.5t46.5 108t65 77.5t98 52.5t117 32.5t150 17.5t169.5 6.5
t201.5 1v-291h-132q-94 1 -173.5 0.5t-143.5 -4.5t-113 -14.5t-82.5 -28.5t-52 -47.5t-21.5 -71.5q3 -39 29 -59t110 -32.5t244 -12.5q103 -1 182.5 -26t128 -64t79.5 -95t43 -112.5t12 -121.5zM481 -465v149q129 0 165 6t36 35v1q0 18 -1 24.5t-5.5 13.5t-16.5 8t-31 2
t-52 1h-39v225h73v-78q42 -4 71.5 -20.5t43.5 -34t21.5 -47t8.5 -45.5t1 -43v-7q0 -62 -13.5 -99.5t-49 -57.5t-83 -26.5t-129.5 -6.5z" />
    <glyph glyph-name="scedilla" unicode="&#x15f;" horiz-adv-x="847" 
d="M792 448v-1v-1v-18q-2 -73 -17 -134t-46 -116t-84 -92.5t-125.5 -59.5t-176 -20.5t-230.5 28.5v363q105 -24 194.5 -34t150.5 -7t104 15.5t63.5 32t20.5 43.5q-1 52 -53.5 78t-177.5 26v1q-81 2 -144.5 20.5t-101.5 46.5t-63 66t-35.5 74.5t-12.5 77.5h-1v15q0 7 1 11
q3 66 20.5 116t42 84.5t72.5 57.5t90 35.5t117.5 18.5t132 7.5t155.5 1.5v-218q-250 0 -285 -2q-140 -8 -178 -57q-18 -22 -21 -57q3 -44 49.5 -62t183.5 -18v-1q177 -6 265.5 -96.5t89.5 -224.5zM360 -465v149q130 0 166 6t36 35q0 22 -1 29.5t-13 13.5t-30.5 6.5
t-62.5 0.5h-39v225h74v-78q42 -4 71.5 -20.5t43.5 -34t21.5 -47t8.5 -45.5t1 -43v-7q0 -50 -10 -83.5t-28.5 -55t-53.5 -32.5t-77 -15t-107 -4z" />
    <glyph glyph-name="Scaron" unicode="&#x160;" horiz-adv-x="1087" 
d="M1031 577v-2v-2v-26q-8 -353 -224 -468.5t-708 -27.5v434q386 -71 585.5 -46.5t201.5 136.5q-1 40 -26 64t-94 38t-190 14q-120 1 -212 24t-147.5 58.5t-91.5 88t-50.5 105t-17.5 115.5v21v16q3 80 16.5 142.5t46.5 108t65 77.5t98 52.5t117 32.5t150 17.5t169.5 6.5
t201.5 1v-291h-132q-94 1 -173.5 0.5t-143.5 -4.5t-113 -14.5t-82.5 -28.5t-52 -47.5t-21.5 -71.5q3 -39 29 -59t110 -32.5t244 -12.5q103 -1 182.5 -26t128 -64t79.5 -95t43 -112.5t12 -121.5zM261 2027l104 103l208 -207l209 208l104 -105l-313 -309z" />
    <glyph glyph-name="scaron" unicode="&#x161;" horiz-adv-x="847" 
d="M792 448v-1v-1v-18q-2 -73 -17 -134t-46 -116t-84 -92.5t-125.5 -59.5t-176 -20.5t-230.5 28.5v363q105 -24 194.5 -34t150.5 -7t104 15.5t63.5 32t20.5 43.5q-1 52 -53.5 78t-177.5 26v1q-81 2 -144.5 20.5t-101.5 46.5t-63 66t-35.5 74.5t-12.5 77.5h-1v15q0 7 1 11
q3 66 20.5 116t42 84.5t72.5 57.5t90 35.5t117.5 18.5t132 7.5t155.5 1.5v-218q-250 0 -285 -2q-140 -8 -178 -57q-18 -22 -21 -57q3 -44 49.5 -62t183.5 -18v-1q177 -6 265.5 -96.5t89.5 -224.5zM79 1647l104 104l208 -207l209 207l104 -104l-313 -309z" />
    <glyph glyph-name="uni0162" unicode="&#x162;" horiz-adv-x="1071" 
d="M608 0h-35v-78q42 -4 71 -20.5t43 -34t21.5 -46.5t8.5 -45t1 -43v-8q0 -62 -13.5 -99.5t-49 -57.5t-83 -26.5t-129.5 -6.5v149q130 0 166 6t36 35q0 22 -1 29.5t-13 13.5t-30.5 6.5t-62.5 0.5h-39v225h-37l1 1189h-463v364h1072v-364h-463z" />
    <glyph glyph-name="uni0163" unicode="&#x163;" horiz-adv-x="877" 
d="M827 1076v-218h-400v-167q0 -183 12 -232q15 -56 62 -72q39 -13 178 -10q92 1 134 1v-364q-79 0 -145 9t-116 26t-90.5 40.5t-67.5 53.5t-48.5 65t-32.5 74.5t-19 82.5t-9.5 88t-3.5 92t0 94v52v167h-231v218h231v494h146v-494h400zM585 -451v150h20q115 0 148 6t33 34v1
q0 18 -1 24.5t-5.5 13.5t-16.5 8t-31 2t-52 1h-39v226h73v-78q135 -14 145 -148q1 -14 1 -50q0 -62 -13.5 -99.5t-49 -57.5t-83 -26.5t-129.5 -6.5z" />
    <glyph glyph-name="Tcaron" unicode="&#x164;" horiz-adv-x="1071" 
d="M608 0h-146l1 1189h-463v364h1072v-364h-463zM224 2027l103 103l208 -207l210 208l103 -105l-313 -309z" />
    <glyph glyph-name="tcaron" unicode="&#x165;" horiz-adv-x="877" 
d="M827 1076v-218h-400v-167q0 -183 12 -232q15 -56 62 -72q39 -13 178 -10q92 1 134 1v-364q-79 0 -145 9t-116 26t-90.5 40.5t-67.5 53.5t-48.5 65t-32.5 74.5t-19 82.5t-9.5 88t-3.5 92t0 94v52v167h-231v218h231v494h146v-494h400zM656 1247l132 395l139 -48l-132 -395z
" />
    <glyph glyph-name="Utilde" unicode="&#x168;" horiz-adv-x="1286" 
d="M1085 1570h146v-879q0 -148 -30.5 -268t-93 -211.5t-164.5 -141.5t-237 -50h-125q-135 0 -236.5 50t-164 141t-93 211.5t-30.5 268.5v879h145v-879q0 -130 85 -183t294 -53h125q209 0 294 53t85 183v879zM285 1869q92 50 148.5 67t115.5 6t133 -59q66 -42 102 -34.5
t122 79.5l95 -113q-114 -97 -203 -110t-195 53q-41 26 -58.5 35t-47.5 6.5t-54.5 -14.5t-86.5 -46z" />
    <glyph glyph-name="utilde" unicode="&#x169;" horiz-adv-x="1099" 
d="M683 1080h146v-4h4v-593q0 -118 57 -163t159 -45v-291q-50 0 -100.5 16t-108.5 63.5t-94 121.5q-94 -166 -288 -166h-30q-371 0 -371 594v467h145v-467v-43t2.5 -34t3 -27t9.5 -19.5t13 -15.5t21.5 -9t27.5 -6.5t39.5 -2t48 -1.5h61.5h30h96t61 7t41 12t17 28.5t10 43
v67.5v467zM192 1379q92 50 148 67t115 6t133 -59q47 -29 74.5 -33.5t58.5 12t92 67.5l95 -114q-114 -97 -203 -110t-195 53q-52 33 -78.5 39.5t-58 -4.5t-111.5 -54z" />
    <glyph glyph-name="Umacron" unicode="&#x16a;" horiz-adv-x="1286" 
d="M1085 1570h146v-879q0 -148 -30.5 -268t-93 -211.5t-164.5 -141.5t-237 -50h-125q-135 0 -236.5 50t-164 141t-93 211.5t-30.5 268.5v879h145v-879q0 -130 85 -183t294 -53h125q209 0 294 53t85 183v879zM283 1721v146h722v-146h-722z" />
    <glyph glyph-name="umacron" unicode="&#x16b;" horiz-adv-x="1099" 
d="M683 1080h146v-4h4v-593q0 -118 57 -163t159 -45v-291q-50 0 -100.5 16t-108.5 63.5t-94 121.5q-94 -166 -288 -166h-30q-371 0 -371 594v467h145v-467v-43t2.5 -34t3 -27t9.5 -19.5t13 -15.5t21.5 -9t27.5 -6.5t39.5 -2t48 -1.5h61.5h30h96t61 7t41 12t17 28.5t10 43
v67.5v467zM189 1231v146h723v-146h-723z" />
    <glyph glyph-name="Ubreve" unicode="&#x16c;" horiz-adv-x="1286" 
d="M1085 1570h146v-879q0 -148 -30.5 -268t-93 -211.5t-164.5 -141.5t-237 -50h-125q-135 0 -236.5 50t-164 141t-93 211.5t-30.5 268.5v879h145v-879q0 -130 85 -183t294 -53h125q209 0 294 53t85 183v879zM450 1937v103h73v-103q0 -52 37.5 -81.5t83 -29.5t83 29.5
t37.5 81.5v103h74v-103q0 -58 -16.5 -104.5t-44 -75t-62.5 -44.5t-71 -16t-71 16t-62.5 44.5t-44 75t-16.5 104.5z" />
    <glyph glyph-name="ubreve" unicode="&#x16d;" horiz-adv-x="1099" 
d="M683 1080h146v-4h4v-593q0 -118 57 -163t159 -45v-291q-50 0 -100.5 16t-108.5 63.5t-94 121.5q-94 -166 -288 -166h-30q-371 0 -371 594v467h145v-467v-43t2.5 -34t3 -27t9.5 -19.5t13 -15.5t21.5 -9t27.5 -6.5t39.5 -2t48 -1.5h61.5h30h96t61 7t41 12t17 28.5t10 43
v67.5v467zM356 1447v103h74v-103q0 -52 37.5 -81.5t83 -29.5t83 29.5t37.5 81.5v103h74v-103q0 -76 -29 -132t-72 -81.5t-93.5 -25.5t-93.5 25.5t-72 81.5t-29 132z" />
    <glyph glyph-name="Uring" unicode="&#x16e;" horiz-adv-x="1286" 
d="M1085 1570h146v-879q0 -148 -30.5 -268t-93 -211.5t-164.5 -141.5t-237 -50h-125q-135 0 -236.5 50t-164 141t-93 211.5t-30.5 268.5v879h145v-879q0 -130 85 -183t294 -53h125q209 0 294 53t85 183v879zM456 1906q0 88 53.5 156.5t134.5 68.5q78 0 132.5 -67.5
t54.5 -157.5q0 -92 -54.5 -159t-132.5 -67t-133 67.5t-55 158.5zM530 1906q0 -34 29 -55.5t85 -21.5t84.5 21.5t28.5 55.5q0 33 -28.5 54.5t-84.5 21.5t-85 -22t-29 -54z" />
    <glyph glyph-name="uring" unicode="&#x16f;" horiz-adv-x="1099" 
d="M683 1080h146v-4h4v-593q0 -118 57 -163t159 -45v-291q-50 0 -100.5 16t-108.5 63.5t-94 121.5q-94 -166 -288 -166h-30q-371 0 -371 594v467h145v-467v-43t2.5 -34t3 -27t9.5 -19.5t13 -15.5t21.5 -9t27.5 -6.5t39.5 -2t48 -1.5h61.5h30h96t61 7t41 12t17 28.5t10 43
v67.5v467zM363 1416q0 88 53.5 156.5t134.5 68.5q78 0 132 -67.5t54 -157.5q0 -92 -54 -159t-132 -67t-133 67.5t-55 158.5zM437 1416q0 -34 29 -55.5t85 -21.5t84.5 21.5t28.5 55.5q0 33 -28.5 54.5t-84.5 21.5t-85 -22t-29 -54z" />
    <glyph glyph-name="Uhungarumlaut" unicode="&#x170;" horiz-adv-x="1286" 
d="M1085 1570h146v-879q0 -148 -30.5 -268t-93 -211.5t-164.5 -141.5t-237 -50h-125q-135 0 -236.5 50t-164 141t-93 211.5t-30.5 268.5v879h145v-879q0 -130 85 -183t294 -53h125q209 0 294 53t85 183v879zM357 1707l132 395l139 -47l-132 -395zM660 1679l132 394l139 -47
l-131 -395z" />
    <glyph glyph-name="uhungarumlaut" unicode="&#x171;" horiz-adv-x="1099" 
d="M683 1080h146v-4h4v-593q0 -118 57 -163t159 -45v-291q-50 0 -100.5 16t-108.5 63.5t-94 121.5q-94 -166 -288 -166h-30q-371 0 -371 594v467h145v-467v-43t2.5 -34t3 -27t9.5 -19.5t13 -15.5t21.5 -9t27.5 -6.5t39.5 -2t48 -1.5h61.5h30h96t61 7t41 12t17 28.5t10 43
v67.5v467zM264 1217l132 395l139 -47l-132 -395zM567 1189l132 395l139 -48l-132 -395z" />
    <glyph glyph-name="Uogonek" unicode="&#x172;" horiz-adv-x="1286" 
d="M1085 1570h146v-879q0 -148 -30.5 -268t-93 -211.5t-164.5 -141.5t-237 -50h-125q-135 0 -236.5 50t-164 141t-93 211.5t-30.5 268.5v879h145v-879q0 -130 85 -183t294 -53h125q209 0 294 53t85 183v879zM1065 -130v139h74v-139q0 -30 27 -39.5t125 -9.5v-149
q-124 0 -175 49.5t-51 148.5z" />
    <glyph glyph-name="uogonek" unicode="&#x173;" horiz-adv-x="1099" 
d="M683 1080h146v-4h4v-593q0 -118 57 -163t159 -45v-291h-23v-114q0 -30 27.5 -39.5t125.5 -9.5v-149q-124 0 -175 49.5t-51 148.5v129q-138 45 -207 186q-94 -166 -288 -166h-30q-371 0 -371 594v467h145v-467v-43t2.5 -34t3 -27t9.5 -19.5t13 -15.5t21.5 -9t27.5 -6.5
t39.5 -2t48 -1.5h61.5h30h96t61 7t41 12t17 28.5t10 43v67.5v467z" />
    <glyph glyph-name="Wcircumflex" unicode="&#x174;" horiz-adv-x="2017" 
d="M237 0l-167 1570h437l130 -1220l353 1210h311l398 -1370l116 1380h145l-132 -1570h-377l-382 1315l-383 -1315h-449zM791 1810l311 310l313 -309l-103 -105l-210 208l-208 -207z" />
    <glyph glyph-name="wcircumflex" unicode="&#x175;" horiz-adv-x="1717" 
d="M1370 305l139 775h152l-191 -1066h-296l-250 748l-336 -743h-260l-263 1061h308l155 -625h44l259 576l5 -7l-2 7h238l243 -726h55zM637 1321l312 309l313 -309l-104 -104l-209 207l-208 -207z" />
    <glyph glyph-name="Ycircumflex" unicode="&#x176;" horiz-adv-x="1377" 
d="M809 0h-145v551q-289 48 -399 398l-199 621h375l170 -533q39 -123 66 -162t82 -40h8q74 -1 112 24.5t56 79.5l216 631h170l-249 -725q-92 -272 -263 -299v-546zM376 1810l311 310l313 -309l-103 -105l-210 208l-208 -207z" />
    <glyph glyph-name="ycircumflex" unicode="&#x177;" horiz-adv-x="884" 
d="M683 1083h146v-918q0 -361 -171 -524.5t-524 -163.5v291q203 0 317 31.5t167.5 102.5t62.5 199q-85 -82 -223 -82h-30q-371 0 -371 594v470h145v-470v-43t2.5 -34t3 -27t9.5 -19.5t13 -15.5t21.5 -9t27.5 -6.5t39.5 -2t48 -1.5h61.5h30h96t61 7t41 12t17 28.5t10 43v67.5
v470zM129 1321l312 309l313 -309l-104 -104l-209 207l-208 -207z" />
    <glyph glyph-name="Ydieresis" unicode="&#x178;" horiz-adv-x="1377" 
d="M809 0h-145v551q-289 48 -399 398l-199 621h375l170 -533q39 -123 66 -162t82 -40h8q74 -1 112 24.5t56 79.5l216 631h170l-249 -725q-92 -272 -263 -299v-546zM339 1824l164 163l163 -163l-164 -164zM712 1823l164 164l163 -164l-164 -164z" />
    <glyph glyph-name="Zacute" unicode="&#x179;" horiz-adv-x="1482" 
d="M1280 1197q-1 37 -52 52.5t-179 15.5h-924v291h924q357 0 376 -330v-51q0 -67 -26.5 -120.5t-79 -93.5t-112.5 -68.5t-145 -56.5l-557 -186q-142 -48 -219 -82.5t-83 -67.5q2 -32 57.5 -38.5t303.5 -6.5h846v-435h-846q-107 0 -186.5 12t-135 38.5t-91 61t-56 88.5
t-28.5 111.5t-10 138.5v25v6v18q4 56 30 103t61.5 80t92 63.5t104 49t115.5 41.5l556 187q135 45 199.5 76t64.5 56v22zM534 1702l132 395l139 -47l-132 -395z" />
    <glyph glyph-name="zacute" unicode="&#x17a;" horiz-adv-x="1069" 
d="M859 864q0 16 -24.5 22t-102.5 6h-623v218h623q259 0 272 -227v-33q0 -203 -259 -276l-363 -102q-67 -19 -119 -39.5t-58 -28.5q2 -17 35 -20.5t175 -3.5h595v-364h-595q-87 0 -149.5 16.5t-101.5 46t-62.5 77.5t-32.5 102t-11 129v15v4q0 8 1 12q3 53 28.5 97.5t67 76
t87.5 53.5t100 37l364 102q153 42 153 66v14zM406 1277l131 395l140 -48l-132 -394z" />
    <glyph glyph-name="Zdotaccent" unicode="&#x17b;" horiz-adv-x="1482" 
d="M1280 1197q-1 37 -52 52.5t-179 15.5h-924v291h924q357 0 376 -330v-51q0 -67 -26.5 -120.5t-79 -93.5t-112.5 -68.5t-145 -56.5l-557 -186q-142 -48 -219 -82.5t-83 -67.5q2 -32 57.5 -38.5t303.5 -6.5h846v-435h-846q-107 0 -186.5 12t-135 38.5t-91 61t-56 88.5
t-28.5 111.5t-10 138.5v25v6v18q4 56 30 103t61.5 80t92 63.5t104 49t115.5 41.5l556 187q135 45 199.5 76t64.5 56v22zM501 1828l163 163l163 -163l-163 -164z" />
    <glyph glyph-name="zdotaccent" unicode="&#x17c;" horiz-adv-x="1069" 
d="M859 864q0 16 -24.5 22t-102.5 6h-623v218h623q259 0 272 -227v-33q0 -203 -259 -276l-363 -102q-67 -19 -119 -39.5t-58 -28.5q2 -17 35 -20.5t175 -3.5h595v-364h-595q-87 0 -149.5 16.5t-101.5 46t-62.5 77.5t-32.5 102t-11 129v15v4q0 8 1 12q3 53 28.5 97.5t67 76
t87.5 53.5t100 37l364 102q153 42 153 66v14zM372 1402l164 164l163 -164l-164 -163z" />
    <glyph glyph-name="Zcaron" unicode="&#x17d;" horiz-adv-x="1482" 
d="M1280 1197q-1 37 -52 52.5t-179 15.5h-924v291h924q357 0 376 -330v-51q0 -67 -26.5 -120.5t-79 -93.5t-112.5 -68.5t-145 -56.5l-557 -186q-142 -48 -219 -82.5t-83 -67.5q2 -32 57.5 -38.5t303.5 -6.5h846v-435h-846q-107 0 -186.5 12t-135 38.5t-91 61t-56 88.5
t-28.5 111.5t-10 138.5v25v6v18q4 56 30 103t61.5 80t92 63.5t104 49t115.5 41.5l556 187q135 45 199.5 76t64.5 56v22zM351 2027l104 103l208 -207l209 208l104 -105l-313 -309z" />
    <glyph glyph-name="zcaron" unicode="&#x17e;" horiz-adv-x="1069" 
d="M859 864q0 16 -24.5 22t-102.5 6h-623v218h623q259 0 272 -227v-33q0 -203 -259 -276l-363 -102q-67 -19 -119 -39.5t-58 -28.5q2 -17 35 -20.5t175 -3.5h595v-364h-595q-87 0 -149.5 16.5t-101.5 46t-62.5 77.5t-32.5 102t-11 129v15v4q0 8 1 12q3 53 28.5 97.5t67 76
t87.5 53.5t100 37l364 102q153 42 153 66v14zM223 1602l103 103l208 -207l210 208l103 -105l-313 -309z" />
    <glyph glyph-name="uni018F" unicode="&#x18f;" horiz-adv-x="1096" 
d="M1040 767q0 -121 -8 -217.5t-25 -172t-39.5 -131t-57 -95.5t-72.5 -65.5t-91 -40.5t-108 -20.5t-127 -5.5q-124 0 -213 36t-141 105t-76 160t-25 212v3v7q5 152 107.5 248t283.5 96h442q-10 82 -45 127t-114.5 68t-210.5 20t-333 -16v291q188 17 330 11.5t241.5 -34
t162 -97.5t91 -180t28.5 -281v-1v-20v-7zM202 537q2 -52 64 -67t246 -15q78 0 111.5 0.5t84.5 3t68.5 7.5t45.5 16t35.5 24.5t18.5 37.5t13.5 52t3.5 70h-445q-134 0 -189 -33.5t-57 -95.5z" />
    <glyph glyph-name="florin" unicode="&#x192;" horiz-adv-x="1050" 
d="M50 -243v436h158h54.5t42 2t34 2t24 6t19 9t11.5 15t8 18.5t2.5 26.5t2.5 33v42v194h-179v291h179v192q0 88 12 165.5t42 151t75.5 125.5t117 83.5t162.5 31.5h185v-436h-185q-120 0 -175 -11t-71.5 -34t-16.5 -76v-192h415v-291h-415v-194q0 -48 -0.5 -77.5t-3.5 -83
t-9 -89t-18 -84.5t-29 -81.5t-43.5 -68.5t-59.5 -57t-79.5 -35t-101.5 -14h-158z" />
    <glyph glyph-name="uni0218" unicode="&#x218;" horiz-adv-x="1087" 
d="M1031 577v-2v-2v-26q-8 -353 -224 -468.5t-708 -27.5v434q386 -71 585.5 -46.5t201.5 136.5q-1 40 -26 64t-94 38t-190 14q-120 1 -212 24t-147.5 58.5t-91.5 88t-50.5 105t-17.5 115.5v21v16q3 80 16.5 142.5t46.5 108t65 77.5t98 52.5t117 32.5t150 17.5t169.5 6.5
t201.5 1v-291h-132q-94 1 -173.5 0.5t-143.5 -4.5t-113 -14.5t-82.5 -28.5t-52 -47.5t-21.5 -71.5q3 -39 29 -59t110 -32.5t244 -12.5q103 -1 182.5 -26t128 -64t79.5 -95t43 -112.5t12 -121.5zM433 -454l132 395l140 -47l-132 -395z" />
    <glyph glyph-name="uni0219" unicode="&#x219;" horiz-adv-x="847" 
d="M792 448v-1v-1v-18q-2 -73 -17 -134t-46 -116t-84 -92.5t-125.5 -59.5t-176 -20.5t-230.5 28.5v363q105 -24 194.5 -34t150.5 -7t104 15.5t63.5 32t20.5 43.5q-1 52 -53.5 78t-177.5 26v1q-81 2 -144.5 20.5t-101.5 46.5t-63 66t-35.5 74.5t-12.5 77.5h-1v15q0 7 1 11
q3 66 20.5 116t42 84.5t72.5 57.5t90 35.5t117.5 18.5t132 7.5t155.5 1.5v-218q-250 0 -285 -2q-140 -8 -178 -57q-18 -22 -21 -57q3 -44 49.5 -62t183.5 -18v-1q177 -6 265.5 -96.5t89.5 -224.5zM313 -454l132 395l139 -47l-132 -395z" />
    <glyph glyph-name="uni021A" unicode="&#x21a;" horiz-adv-x="1071" 
d="M608 0h-146l1 1189h-463v364h1072v-364h-463zM396 -454l132 395l139 -47l-132 -395z" />
    <glyph glyph-name="uni021B" unicode="&#x21b;" horiz-adv-x="877" 
d="M827 1076v-218h-400v-167q0 -183 12 -232q15 -56 62 -72q39 -13 178 -10q92 1 134 1v-364q-79 0 -145 9t-116 26t-90.5 40.5t-67.5 53.5t-48.5 65t-32.5 74.5t-19 82.5t-9.5 88t-3.5 92t0 94v52v167h-231v218h231v494h146v-494h400zM537 -439l132 395l140 -48l-132 -395z
" />
    <glyph glyph-name="uni0237" unicode="&#x237;" horiz-adv-x="736" 
d="M50 -212q196 0 298.5 36t144 119t41.5 242v873h146v-873q0 -169 -33.5 -293.5t-107 -214.5t-195.5 -135t-294 -45v291z" />
    <glyph glyph-name="uni0259" unicode="&#x259;" horiz-adv-x="1054" 
d="M997 554q-7 -246 -116 -390.5t-320 -144.5h-76q-100 0 -174 22t-121.5 61t-77 101t-41.5 133.5t-14 167.5v15v21q3 82 22 145.5t62 119t123.5 85.5t195.5 30h392v24q0 84 -39.5 112.5t-163.5 28.5h-507v218h507q176 0 262.5 -96t86.5 -263zM202 521q1 -48 41.5 -57
t241.5 -9h76q171 0 231 26t60 110v38h-392q-121 0 -172 -8.5t-68 -29t-18 -70.5z" />
    <glyph glyph-name="circumflex" unicode="&#x2c6;" horiz-adv-x="667" 
d="M628 1158l-103 -105l-210 208l-208 -207l-103 104l311 309z" />
    <glyph glyph-name="caron" unicode="&#x2c7;" horiz-adv-x="711" 
d="M628 1312l-313 -309l-311 309l103 104l208 -207l210 207z" />
    <glyph glyph-name="breve" unicode="&#x2d8;" horiz-adv-x="520" 
d="M318 1379h74v-104q0 -76 -29 -132t-72 -81.5t-93.5 -25.5t-93.5 25.5t-72 81.5t-29 132v104h74v-104q0 -52 37.5 -81.5t83 -29.5t83 29.5t37.5 81.5v104z" />
    <glyph glyph-name="dotaccent" unicode="&#x2d9;" horiz-adv-x="351" 
d="M164 1316l163 -163l-164 -164l-163 164z" />
    <glyph glyph-name="ring" unicode="&#x2da;" horiz-adv-x="491" 
d="M191 1132q56 0 84.5 21.5t28.5 55.5q0 33 -28.5 54.5t-84.5 21.5t-85 -22t-29 -54q0 -34 29 -55.5t85 -21.5zM3 1209q0 88 53.5 156.5t134.5 68.5q78 0 132.5 -67.5t54.5 -157.5q0 -92 -54.5 -159t-132.5 -67t-133 67.5t-55 158.5z" />
    <glyph glyph-name="ogonek" unicode="&#x2db;" horiz-adv-x="262" 
d="M3 0h74v-139q0 -30 27 -39.5t125 -9.5v-150q-124 0 -175 50t-51 149v139z" />
    <glyph glyph-name="tilde" unicode="&#x2dc;" horiz-adv-x="743" 
d="M719 1144q-114 -97 -203 -110.5t-195 52.5q-41 26 -58.5 35t-47.5 6.5t-54.5 -14.5t-86.5 -46l-71 130q92 50 148.5 67t115.5 6t133 -59q47 -29 74 -33.5t58 12t92 67.5z" />
    <glyph glyph-name="hungarumlaut" unicode="&#x2dd;" horiz-adv-x="631" 
d="M7 995l131 394l140 -47l-132 -395zM310 966l132 395l139 -48l-132 -395z" />
    <glyph glyph-name="gravecomb" unicode="&#x300;" 
d="M278 997l-140 -48l-131 395l139 48z" />
    <glyph glyph-name="acutecomb" unicode="&#x301;" 
d="M7 997l131 395l140 -48l-132 -395z" />
    <glyph glyph-name="uni0302" unicode="&#x302;" 
d="M628 1158l-103 -105l-210 208l-208 -207l-103 104l311 309z" />
    <glyph glyph-name="tildecomb" unicode="&#x303;" 
d="M719 1144q-114 -97 -203 -110.5t-195 52.5q-41 26 -58.5 35t-47.5 6.5t-54.5 -14.5t-86.5 -46l-71 130q92 50 148.5 67t115.5 6t133 -59q47 -29 74 -33.5t58 12t92 67.5z" />
    <glyph glyph-name="uni0304" unicode="&#x304;" 
d="M723 1174v-146h-723v146h723z" />
    <glyph glyph-name="uni0306" unicode="&#x306;" 
d="M318 1379h74v-104q0 -76 -29 -132t-72 -81.5t-93.5 -25.5t-93.5 25.5t-72 81.5t-29 132v104h74v-104q0 -52 37.5 -81.5t83 -29.5t83 29.5t37.5 81.5v104z" />
    <glyph glyph-name="uni0307" unicode="&#x307;" 
d="M164 1316l163 -163l-164 -164l-163 164z" />
    <glyph glyph-name="uni0308" unicode="&#x308;" 
d="M164 1316l163 -163l-164 -164l-163 164zM373 1152l164 164l163 -164l-164 -164z" />
    <glyph glyph-name="uni030A" unicode="&#x30a;" 
d="M191 1132q56 0 84.5 21.5t28.5 55.5q0 33 -28.5 54.5t-84.5 21.5t-85 -22t-29 -54q0 -34 29 -55.5t85 -21.5zM3 1209q0 88 53.5 156.5t134.5 68.5q78 0 132.5 -67.5t54.5 -157.5q0 -92 -54.5 -159t-132.5 -67t-133 67.5t-55 158.5z" />
    <glyph glyph-name="uni030B" unicode="&#x30b;" 
d="M7 995l131 394l140 -47l-132 -395zM310 966l132 395l139 -48l-132 -395z" />
    <glyph glyph-name="uni030C" unicode="&#x30c;" 
d="M628 1312l-313 -309l-311 309l103 104l208 -207l210 207z" />
    <glyph glyph-name="uni0312" unicode="&#x312;" 
d="M3 1601h74v-139q0 -30 27 -39.5t125 -9.5v-149q-125 0 -175.5 50t-50.5 148v139z" />
    <glyph glyph-name="uni0326" unicode="&#x326;" 
d="M7 -463l131 395l140 -48l-132 -394z" />
    <glyph glyph-name="uni0327" unicode="&#x327;" 
d="M0 -316q130 0 166 6t36 35q0 22 -1 29.5t-13 13.5t-30.5 6.5t-62.5 0.5h-39v225h73v-78q42 -4 71.5 -20.5t43.5 -34t21.5 -47t8.5 -45.5t1 -43v-7q0 -62 -13.5 -99.5t-49 -57.5t-83 -26.5t-129.5 -6.5v149z" />
    <glyph glyph-name="uni0328" unicode="&#x328;" 
d="M3 0h74v-139q0 -30 27 -39.5t125 -9.5v-150q-124 0 -175 50t-51 149v139z" />
    <glyph glyph-name="uni0600" unicode="&#x600;" horiz-adv-x="3660" 
d="M50 -696v364h2697q34 12 63 12h99q-28 94 -14 175q23 131 105.5 205t209 89t293.5 -14v-240q-148 30 -254.5 24t-167 -34.5t-68.5 -71.5q-13 -80 65 -133h527v-360h-18v-16h-3537z" />
    <glyph glyph-name="uni0601" unicode="&#x601;" horiz-adv-x="6857" 
d="M1439 -222v-64t12 -41t22 -27.5t51 -12t76 -6t119 0.5h5127v-436h-5107q-6 -1 -19 -1q-278 0 -373 235q-103 -235 -276 -235h-48q-43 0 -86 18q-122 43 -177 187q-104 -164 -323 -164q-95 0 -168 29.5t-119 77.5t-76 116.5t-42.5 139.5t-14.5 154v11q0 11 1 17
q4 77 28.5 149t72.5 138.5t132.5 107t194.5 40.5q153 0 262 -84v147h146v-497q0 -29 -0.5 -41t2 -32t3 -26.5t8.5 -18.5t11 -14.5t19 -8.5t24.5 -6t34.5 -2t42.5 -2h54.5h18h54t43 2t37 5.5t27.5 10t23.5 16t16 24.5t13.5 34.5t8.5 45.5v13h1q8 63 18 227h147
q-9 -142 -21 -227zM87 546l205 204l168 -168l168 167l203 -204l-204 -205l-168 169l-168 -168zM163 -239q1 -42 20 -60.5t74 -26t180 -7.5h85.5t64 2.5t49 5t32 10.5t22.5 16t10.5 24t6.5 32t1 43q-1 39 -40.5 67t-97.5 41t-124 13q-84 0 -141.5 -12.5t-86.5 -36.5t-41 -50
t-14 -61zM1182 307l205 204l204 -204l-205 -205z" />
    <glyph glyph-name="uni0602" unicode="&#x602;" horiz-adv-x="3343" 
d="M57 -161q0 207 111 357q98 131 237 157q166 32 316 -104q188 -172 289 -565h2284v-436h-2748q-89 0 -159.5 14.5t-121.5 40.5t-88 67t-60 87.5t-36.5 110t-18.5 127t-5 144.5zM202 -161q0 -54 5.5 -75.5t15.5 -43.5t57 -26.5t97 -7t169 -2.5h286q-94 224 -272 281
q-125 41 -245 -10q-82 -34 -106 -87q-7 -15 -7 -29z" />
    <glyph glyph-name="uni0603" unicode="&#x603;" horiz-adv-x="4334" 
d="M50 -859v435h2581q140 0 194 37t54 109v272h146v-272q0 -43 -2 -64q95 99 196.5 176.5t197 127t190.5 80.5t179 36t160 -6t136 -45t104.5 -82.5t68 -116t23.5 -147.5v-12q0 -76 -13 -148.5t-44.5 -142t-78 -121.5t-119 -84t-161.5 -32h-168q-135 0 -213 2.5t-169.5 11.5
t-151.5 28t-122.5 52.5t-119.5 83.5q-108 -169 -273 -178h-2595zM3223 -400q191 -24 471 -24h168q116 0 177 12.5t77 30.5t16 50v12q0 76 -50.5 128t-141 67.5t-202.5 -3t-249 -89t-266 -184.5z" />
    <glyph glyph-name="uni0605" unicode="&#x605;" horiz-adv-x="1914" 
d="M56 1414q56 114 104 190t106 132.5t118 72t134 -6.5t159 -88q137 -107 455.5 -115t687.5 98l43 -278q-262 -78 -491.5 -102.5t-435.5 16t-349 151.5q-61 48 -115 57.5t-103 -19t-93 -86.5t-89 -150z" />
    <glyph glyph-name="uni0606" unicode="&#x606;" horiz-adv-x="1838" 
d="M1027 1056h-45v492h45v-112q33 -1 57.5 -2.5t39 20t14.5 73.5h46q0 -33 -4 -75q4 -7 14 -8t51 -1q37 0 43.5 10.5t6.5 73.5h45q0 -222 -95 -222q-64 0 -92 55q-32 -56 -126 -59v-245zM55 1408l123 157l761 -1189l194 417q70 152 161 234.5t225 80.5l269 -1l-1 -290
l-270 1q-106 1 -163.5 -39.5t-89.5 -108.5l-310 -666z" />
    <glyph glyph-name="uni0607" unicode="&#x607;" horiz-adv-x="1838" 
d="M1068 1477h14h72v-104h-72q-115 0 -118 -52q1 -18 9.5 -26.5t35.5 -12.5t84 -4h107v-156h-107q-53 0 -89 15.5t-55 44.5t-27 61t-9 74v4v1q2 61 34 99q-39 45 -39 109v6q0 54 30 94.5t84 40.5h95v-103h-95q-62 0 -62 -32v-6q0 -23 23 -38t67 -15h18zM55 1408l123 157
l761 -1189l194 417q70 152 161 234.5t225 80.5l269 -1l-1 -290l-270 1q-106 1 -163.5 -39.5t-89.5 -108.5l-310 -666z" />
    <glyph glyph-name="uni0608" unicode="&#x608;" horiz-adv-x="1573" 
d="M606 546q-148 -171 -154 -426q5 -139 90 -201t289 -62q210 0 314.5 18.5t143.5 58t45 120.5h-258q-89 0 -157 26.5t-110 72t-66.5 109.5t-31.5 133.5t-1 150.5h1q14 171 123.5 287.5t241.5 116.5q64 0 127.5 -31t119 -90t96.5 -156t56 -218h107q90 0 154 -64t64 -154
t-64 -154t-154 -64h-103q-7 -112 -30 -200.5t-70.5 -165t-119.5 -126.5t-180 -78t-248 -28q-164 0 -282.5 91.5t-177 242t-64.5 343.5h-1v18q0 14 1 21q8 197 89 355h-346v145h441v-3l5 7zM854 497q-1 -37 15 -52t59 -20.5t148 -5.5h254q-34 240 -254 240
q-96 0 -158.5 -45.5t-62.5 -110.5v-6h-1z" />
    <glyph glyph-name="uni0609" unicode="&#x609;" horiz-adv-x="1710" 
d="M274 0h-168l819 1603h167zM49 1269l205 204l204 -204l-205 -205zM763 405l204 204l204 -204l-204 -205zM1253 399l204 204l204 -204l-204 -205z" />
    <glyph glyph-name="uni060A" unicode="&#x60a;" horiz-adv-x="2189" 
d="M274 0h-168l819 1603h167zM49 1269l205 204l204 -204l-205 -205zM763 405l204 204l204 -204l-204 -205zM1253 399l204 204l204 -204l-204 -205zM1732 396l205 204l204 -204l-205 -204z" />
    <glyph glyph-name="uni060B" unicode="&#x60b;" horiz-adv-x="892" 
d="M836 605q0 -301 -81 -443.5t-264 -142.5h-500q-90 0 -154 64t-64 154t64 154t154 64h500h60.5t45.5 2t36 4t23.5 8t17.5 13t8.5 20t6.5 27t1 37h-260q-104 0 -175 21.5t-113 67t-60 108t-19 151.5v3v14q6 154 110.5 260t263.5 106q111 0 203.5 -73.5t144 -193
t51.5 -255.5v-170zM209 917q1 -14 3 -22.5t11.5 -16t22 -10.5t40.5 -5.5t59 -3t85 -0.5h250q-20 81 -81.5 128.5t-161.5 47.5q-111 0 -168.5 -33.5t-59.5 -84.5zM240 1608l205 204l204 -204l-205 -205zM401 -525v425h89v-425h-89z" />
    <glyph glyph-name="uni060C" unicode="&#x60c;" horiz-adv-x="404" 
d="M123 802h121l-54 -246q-6 -28 -9 -40.5t-4.5 -32t-2.5 -26.5t4 -18.5t8 -14t17 -8.5t23 -6.5t34 -2t41.5 -1.5h53.5v-293q-74 0 -127.5 14t-94.5 48.5t-59.5 91.5t-17 145t27.5 206z" />
    <glyph glyph-name="uni060D" unicode="&#x60d;" horiz-adv-x="413" 
d="M50 264q83 0 107 12q36 17 46 91q8 62 8 315h146q0 -319 -33 -507t-99 -267.5t-175 -79.5v436z" />
    <glyph glyph-name="uni060E" unicode="&#x60e;" horiz-adv-x="2874" 
d="M57 -155q5 209 120 355q100 128 241 148q167 25 313 -116q173 -167 266 -527q445 34 948 103t845 152l35 -424q-505 -122 -1209.5 -205t-1074.5 -83q-103 0 -187 35t-139.5 93.5t-92.5 136.5t-52 161t-13 171zM203 -165q-1 -36 12.5 -61.5t49 -46.5t104.5 -32t172 -11
q124 0 281 10q-93 215 -271 265q-124 35 -242 -16q-80 -35 -101 -85q-5 -12 -5 -23z" />
    <glyph glyph-name="uni060F" unicode="&#x60f;" horiz-adv-x="1336" 
d="M1280 -957l-140 -39l-144 515q-117 -9 -216 -9.5t-181.5 13t-150 32t-121 48t-94.5 61.5t-71 71.5t-50.5 78.5t-32.5 83.5t-17 84.5t-5 83q0 173 92.5 339t271.5 268q-69 78 -94.5 176t-10.5 181q39 228 226.5 313.5t510.5 25.5v-291q-180 36 -309 29.5t-202.5 -41
t-82.5 -87.5q-4 -26 3 -50t33.5 -49t69.5 -43t116.5 -29.5t169.5 -11.5v-9q40 2 62 2h322v-436h-322q-158 0 -287 -23t-207.5 -57.5t-130.5 -76.5t-71 -79t-15 -66q3 -45 33.5 -83.5t99 -71.5t169.5 -50.5t258 -15t351 29.5v-223z" />
    <glyph glyph-name="uni0615" unicode="&#x615;" 
d="M455 1299q0 -41 -12 -76.5t-42.5 -62t-76.5 -26.5h-324v136h61v349h46v-306q45 49 95.5 78t94.5 33.5t80 -7t57 -42t21 -72.5v-4zM142 1270h182q53 0 69.5 7t16.5 22v4q0 40 -40.5 56.5t-105.5 -5.5t-122 -84z" />
    <glyph glyph-name="uni061B" unicode="&#x61b;" horiz-adv-x="449" 
d="M123 886h121l-54 -246q-6 -29 -9 -41t-4.5 -31.5t-2.5 -26t4 -18.5t8 -14.5t17 -8.5t23 -6.5t34 -2t41.5 -1.5h53.5v-293q-74 0 -127.5 14t-94.5 48.5t-59.5 91.5t-17 145t27.5 206zM66 -41l164 163l163 -163l-164 -164z" />
    <glyph glyph-name="uni061C" unicode="&#x61c;" horiz-adv-x="543" 
 />
    <glyph glyph-name="uni061E" unicode="&#x61e;" horiz-adv-x="888" 
d="M445 459q-55 0 -92.5 37.5t-37.5 91.5t37.5 91.5t92.5 37.5q53 0 90.5 -38t37.5 -91q0 -54 -37.5 -91.5t-90.5 -37.5zM49 209q0 53 38 91t92 38q53 0 91 -38t38 -91q0 -54 -38 -92t-91 -38q-54 0 -92 38t-38 92zM580 209q0 53 38 91t92 38q53 0 91 -38t38 -91
q0 -54 -38 -92t-91 -38q-54 0 -92 38t-38 92z" />
    <glyph glyph-name="uni061F" unicode="&#x61f;" horiz-adv-x="997" 
d="M57 905v6q0 124 46.5 230t139 173.5t213.5 67.5h492v-291h-492q-130 0 -192 -48t-62 -132v-6q4 -101 254 -101h327v-669h-146v233h-181q-92 0 -168.5 45.5t-126 121.5t-76.5 171.5t-28 198.5zM488 -151l205 204l204 -204l-205 -205z" />
    <glyph glyph-name="uni0621" unicode="&#x621;" horiz-adv-x="993" 
d="M820 629q-231 70 -354 21q-69 -27 -71 -77q-3 -52 65 -89q34 -19 81 -29h402v-365h-893v365h226q-23 102 1.5 202.5t96.5 176t194.5 100t294.5 -25.5z" />
    <glyph glyph-name="uni0622" unicode="&#x622;" horiz-adv-x="447" 
d="M297 0h-146v1570h146v-1570zM-110 1748v139q74 31 144 35t126.5 -8t114 -23t130.5 -2.5t152 46.5v-139q-67 -30 -130.5 -40t-110 -3t-98.5 16.5t-97.5 17t-106 -1t-124.5 -37.5z" />
    <glyph glyph-name="uni0623" unicode="&#x623;" horiz-adv-x="447" 
d="M297 0h-146v1570h146v-1570zM22 1741v169h98q-10 48 -0.5 95.5t39 84t79 51.5t117.5 -1v-127q-107 33 -156 -8q-32 -27 -14 -64q9 -18 29 -31h222v-169h-414z" />
    <glyph glyph-name="uni0624" unicode="&#x624;" horiz-adv-x="891" 
d="M84 -485v328h170q176 0 272.5 39.5t134.5 136.5h-220q-112 0 -191 44t-120 120.5t-56.5 168t-8.5 199.5q16 166 123 285.5t233 119.5q41 0 80 -8t81 -27.5t78 -50.5t69 -80.5t56 -112.5t36.5 -151t13.5 -193v-128q0 -690 -581 -690h-170zM210 523q-4 -51 25.5 -59.5
t205.5 -8.5h240q-20 122 -84 165.5t-176 43.5q-89 0 -145.5 -41t-65.5 -100zM241 1141v169h98q-10 48 -0.5 95.5t38.5 84t78.5 51.5t117.5 -1v-127q-106 33 -154 -8q-33 -26 -15 -63q9 -19 29 -32h222v-169h-414z" />
    <glyph glyph-name="uni0625" unicode="&#x625;" horiz-adv-x="447" 
d="M297 0h-146v1570h146v-1570zM16 -489v169h98q-10 48 -0.5 95.5t38.5 84t78.5 51.5t117.5 -1v-127q-107 33 -156 -8q-32 -27 -14 -64q9 -18 29 -31h222v-169h-413z" />
    <glyph glyph-name="uni0626" unicode="&#x626;" horiz-adv-x="1432" 
d="M354 936q-64 -76 -106 -175t-46 -247q5 -138 92.5 -200t288.5 -62h214q111 0 193 8.5t126 20.5t70.5 30.5t33.5 33.5t7 33q-1 48 -81 69.5t-265 32.5q-155 10 -239 108.5t-86 238.5v22q0 128 90 220t245 92h446v-220h-446q-189 0 -189 -92v-13q0 -54 187 -66
q99 -6 172.5 -21t134 -44t98.5 -73t58.5 -108t20.5 -148h-1q0 -49 -6.5 -98t-24.5 -105.5t-45 -106t-72.5 -96.5t-103.5 -80.5t-141 -53.5t-182 -20h-214q-164 0 -283 91t-178 241t-65 344v18v22q11 290 185 497zM165 1249v169h99q-10 48 -0.5 95.5t38.5 84t78.5 51.5
t117.5 -1v-127q-107 33 -156 -8q-32 -27 -14 -64q9 -18 29 -31h222v-169h-414z" />
    <glyph glyph-name="uni0627" unicode="&#x627;" horiz-adv-x="447" 
d="M297 0h-146v1570h146v-1570z" />
    <glyph glyph-name="uni0628" unicode="&#x628;" horiz-adv-x="1635" 
d="M285 870q-80 -139 -83 -294q1 -22 6 -38.5t17.5 -29t26.5 -21.5t40.5 -15t50 -9.5t65 -5t76.5 -2t92 -0.5h571q125 0 186.5 14.5t81 42.5t19.5 85v357h145v-357q0 -91 -13.5 -172.5t-45 -157t-80 -129.5t-123.5 -86.5t-170 -32.5h-571q-269 0 -392 127.5t-127 417.5v8v11
q6 191 102 359zM641 -301l204 204l204 -204l-204 -205z" />
    <glyph glyph-name="uni0629" unicode="&#x629;" horiz-adv-x="892" 
d="M289 1528l168 -168l168 167l204 -204l-205 -205l-168 169l-168 -168l-204 205zM57 512v24v32h1q12 225 116 350.5t266 125.5q80 0 146 -28.5t110.5 -76t75.5 -112t46 -134.5t17 -146h1v-17v-12q-1 -52 -5 -96.5t-15.5 -97t-29 -94.5t-48 -82.5t-70.5 -68t-98.5 -44
t-129.5 -16.5q-89 0 -157 29t-109 74.5t-67.5 112.5t-36.5 132t-13 145zM202 534q2 -57 38 -68t200 -11h9q172 0 206 10t35 64q-1 58 -11 96.5t-36.5 69.5t-76.5 45t-126 14q-128 0 -181 -49t-57 -171z" />
    <glyph glyph-name="uni062A" unicode="&#x62a;" horiz-adv-x="1635" 
d="M285 870q-80 -139 -83 -294q1 -22 6 -38.5t17.5 -29t26.5 -21.5t40.5 -15t50 -9.5t65 -5t76.5 -2t92 -0.5h571q125 0 186.5 14.5t81 42.5t19.5 85v357h145v-357q0 -91 -13.5 -172.5t-45 -157t-80 -129.5t-123.5 -86.5t-170 -32.5h-571q-269 0 -392 127.5t-127 417.5v8v11
q6 191 102 359zM481 1135l205 204l168 -168l168 167l204 -204l-205 -205l-168 169l-168 -168z" />
    <glyph glyph-name="uni062B" unicode="&#x62b;" horiz-adv-x="1635" 
d="M285 870q-80 -139 -83 -294q1 -22 6 -38.5t17.5 -29t26.5 -21.5t40.5 -15t50 -9.5t65 -5t76.5 -2t92 -0.5h571q125 0 186.5 14.5t81 42.5t19.5 85v357h145v-357q0 -91 -13.5 -172.5t-45 -157t-80 -129.5t-123.5 -86.5t-170 -32.5h-571q-269 0 -392 127.5t-127 417.5v8v11
q6 191 102 359zM482 1145l204 204l169 -168l168 167l204 -204l-205 -204l-168 168l-168 -168zM650 1449l205 204l204 -204l-205 -205z" />
    <glyph glyph-name="uni062C" unicode="&#x62c;" horiz-adv-x="1324" 
d="M1275 1039v-433l-310 -71q-226 -51 -380.5 -104t-237.5 -108.5t-116 -109t-29 -115.5q5 -56 35.5 -103.5t96 -90t169 -63.5t255.5 -24.5t355 27.5v-291q-222 -32 -393 -18t-294 58t-203.5 121t-120.5 172t-45 211q-4 151 39 278.5t139 237.5t260 195.5t391 141.5
q-40 21 -121.5 69t-107.5 62q-61 35 -132 44t-138 -5t-125.5 -38.5t-110.5 -58.5v234q68 36 131.5 57.5t137.5 30t152.5 -9t156.5 -62.5q27 -15 97 -55.5t92.5 -53t77 -39t88 -36.5t84.5 -22t106 -17l-1 -11h2zM626 142l205 204l204 -204l-205 -205z" />
    <glyph glyph-name="uni062D" unicode="&#x62d;" horiz-adv-x="1324" 
d="M1275 1039v-433l-310 -71q-226 -51 -380.5 -104t-237.5 -108.5t-116 -109t-29 -115.5q5 -56 35.5 -103.5t96 -90t169 -63.5t255.5 -24.5t355 27.5v-291q-222 -32 -393 -18t-294 58t-203.5 121t-120.5 172t-45 211q-4 151 39 278.5t139 237.5t260 195.5t391 141.5
q-40 21 -121.5 69t-107.5 62q-61 35 -132 44t-138 -5t-125.5 -38.5t-110.5 -58.5v234q68 36 131.5 57.5t137.5 30t152.5 -9t156.5 -62.5q27 -15 97 -55.5t92.5 -53t77 -39t88 -36.5t84.5 -22t106 -17l-1 -11h2z" />
    <glyph glyph-name="uni062E" unicode="&#x62e;" horiz-adv-x="1324" 
d="M1275 1039v-433l-310 -71q-226 -51 -380.5 -104t-237.5 -108.5t-116 -109t-29 -115.5q5 -56 35.5 -103.5t96 -90t169 -63.5t255.5 -24.5t355 27.5v-291q-222 -32 -393 -18t-294 58t-203.5 121t-120.5 172t-45 211q-4 151 39 278.5t139 237.5t260 195.5t391 141.5
q-40 21 -121.5 69t-107.5 62q-61 35 -132 44t-138 -5t-125.5 -38.5t-110.5 -58.5v234q68 36 131.5 57.5t137.5 30t152.5 -9t156.5 -62.5q27 -15 97 -55.5t92.5 -53t77 -39t88 -36.5t84.5 -22t106 -17l-1 -11h2zM285 1659l205 204l204 -204l-205 -205z" />
    <glyph glyph-name="uni062F" unicode="&#x62f;" horiz-adv-x="902" 
d="M852 531q-1 -82 -13 -152t-41.5 -138t-75.5 -115.5t-120.5 -77t-170.5 -29.5h-387v436h387q117 0 177.5 9t78.5 23.5t19 43.5v6q0 87 -61 135t-168 57t-253 -6v290q146 15 259.5 -4t197 -74t127.5 -155.5t44 -242.5v-6z" />
    <glyph glyph-name="uni0630" unicode="&#x630;" horiz-adv-x="902" 
d="M852 531q-1 -82 -13 -152t-41.5 -138t-75.5 -115.5t-120.5 -77t-170.5 -29.5h-387v436h387q117 0 177.5 9t78.5 23.5t19 43.5v6q0 87 -61 135t-168 57t-253 -6v290q146 15 259.5 -4t197 -74t127.5 -155.5t44 -242.5v-6zM175 1353l205 204l204 -204l-205 -204z" />
    <glyph glyph-name="uni0631" unicode="&#x631;" horiz-adv-x="570" 
d="M0 -97q71 0 118 1.5t89.5 10.5t66 18t44 33.5t29 46.5t14.5 68.5t7 87.5t1 115v588h145v-588q0 -102 -5.5 -183.5t-20 -165t-38.5 -146t-63.5 -118.5t-92.5 -91.5t-127.5 -56t-166.5 -20.5v400z" />
    <glyph glyph-name="uni0632" unicode="&#x632;" horiz-adv-x="718" 
d="M0 -97q71 0 118 1.5t89.5 10.5t66 18t44 33.5t29 46.5t14.5 68.5t7 87.5t1 115v588h145v-588q0 -102 -5.5 -183.5t-20 -165t-38.5 -146t-63.5 -118.5t-92.5 -91.5t-127.5 -56t-166.5 -20.5v400zM237 1172l205 204l204 -204l-205 -205z" />
    <glyph glyph-name="uni0633" unicode="&#x633;" horiz-adv-x="2280" 
d="M356 743q-148 -171 -154 -425q5 -139 91 -201.5t289 -62.5q75 0 131.5 6t109 23.5t86 46.5t53.5 76.5t20 112.5v553h146v-371q31 -52 123 -70t175.5 12.5t90.5 102.5l20 226h147l-23 -263v-13q64 -41 179 -41h38q94 0 133.5 6t53 21t13.5 51v386h146v-386
q0 -101 -22 -192.5t-64 -163.5t-109.5 -115t-150.5 -43h-38q-75 0 -136.5 38t-142.5 123q-42 -67 -94.5 -107.5t-110.5 -51t-121 17t-121 92.5q-38 -245 -175 -379t-357 -134q-123 0 -222 52.5t-163 145t-100 214.5t-40 266v18v20q11 297 190 504z" />
    <glyph glyph-name="uni0634" unicode="&#x634;" horiz-adv-x="2280" 
d="M356 743q-148 -171 -154 -425q5 -139 91 -201.5t289 -62.5q75 0 131.5 6t109 23.5t86 46.5t53.5 76.5t20 112.5v553h146v-371q31 -52 123 -70t175.5 12.5t90.5 102.5l20 226h147l-23 -263v-13q64 -41 179 -41h38q94 0 133.5 6t53 21t13.5 51v386h146v-386
q0 -101 -22 -192.5t-64 -163.5t-109.5 -115t-150.5 -43h-38q-75 0 -136.5 38t-142.5 123q-42 -67 -94.5 -107.5t-110.5 -51t-121 17t-121 92.5q-38 -245 -175 -379t-357 -134q-123 0 -222 52.5t-163 145t-100 214.5t-40 266v18v20q11 297 190 504zM1253 1145l205 204
l169 -168l168 167l204 -204l-205 -204l-169 168l-168 -168zM1421 1449l206 204l204 -204l-206 -205z" />
    <glyph glyph-name="uni0635" unicode="&#x635;" horiz-adv-x="2383" 
d="M2327 532q0 -73 -10.5 -140.5t-37.5 -137t-68.5 -120.5t-109.5 -83t-155 -32h-203q-222 0 -363 42.5t-259 128.5q-27 -271 -166.5 -421.5t-372.5 -150.5q-123 0 -222 52.5t-163 145t-100 214.5t-40 266v18v20q11 297 190 504l109 -95q-148 -171 -154 -425
q5 -139 91 -201.5t289 -62.5q75 0 131.5 6t109 23.5t86 46.5t53.5 76.5t20 112.5v553h146v-255q106 105 217.5 181t214 116.5t202 55.5t183 2.5t155 -48t121.5 -90t78 -129t28 -161.5v-12zM1286 518q189 -63 457 -63h203q118 0 165 6.5t59 20t12 50.5v12q0 56 -26 102.5
t-74 77t-111.5 46.5t-144.5 8.5t-167 -35t-183 -85t-190 -140.5z" />
    <glyph glyph-name="uni0636" unicode="&#x636;" horiz-adv-x="2383" 
d="M2327 532q0 -73 -10.5 -140.5t-37.5 -137t-68.5 -120.5t-109.5 -83t-155 -32h-203q-222 0 -363 42.5t-259 128.5q-27 -271 -166.5 -421.5t-372.5 -150.5q-123 0 -222 52.5t-163 145t-100 214.5t-40 266v18v20q11 297 190 504l109 -95q-148 -171 -154 -425
q5 -139 91 -201.5t289 -62.5q75 0 131.5 6t109 23.5t86 46.5t53.5 76.5t20 112.5v553h146v-255q106 105 217.5 181t214 116.5t202 55.5t183 2.5t155 -48t121.5 -90t78 -129t28 -161.5v-12zM1221 1275l205 204l204 -204l-205 -204zM1286 518q189 -63 457 -63h203
q118 0 165 6.5t59 20t12 50.5v12q0 56 -26 102.5t-74 77t-111.5 46.5t-144.5 8.5t-167 -35t-183 -85t-190 -140.5z" />
    <glyph glyph-name="uni0637" unicode="&#x637;" horiz-adv-x="1562" 
d="M1506 549q0 -75 -13 -147t-44 -142.5t-77.5 -123t-119.5 -85t-164 -32.5h-1038v436h197v1115h145v-979q81 89 169 158.5t172 112t168 67.5t159.5 26.5t144 -12t123 -48t95 -81.5t62 -112t21.5 -141v-12zM505 455h583q89 0 145 6t83 19.5t35.5 28.5t8.5 40v12
q0 108 -100 163q-112 62 -285 23q-227 -51 -432 -253z" />
    <glyph glyph-name="uni0638" unicode="&#x638;" horiz-adv-x="1562" 
d="M1506 549q0 -75 -13 -147t-44 -142.5t-77.5 -123t-119.5 -85t-164 -32.5h-1038v436h197v1115h145v-979q81 89 169 158.5t172 112t168 67.5t159.5 26.5t144 -12t123 -48t95 -81.5t62 -112t21.5 -141v-12zM505 455h583q89 0 145 6t83 19.5t35.5 28.5t8.5 40v12
q0 108 -100 163q-112 62 -285 23q-227 -51 -432 -253zM543 1326l205 204l204 -204l-205 -205z" />
    <glyph glyph-name="uni0639" unicode="&#x639;" horiz-adv-x="1285" 
d="M1113 -468q-144 -19 -268.5 -21.5t-221 9t-176.5 36t-138 57t-102.5 75t-72.5 87t-46 95.5t-24.5 98t-6.5 97q0 173 92.5 339t271.5 268q-69 78 -94.5 176t-10.5 181q39 228 226.5 313.5t510.5 25.5v-291q-180 36 -309 29.5t-202.5 -41t-82.5 -87.5q-4 -26 3 -50
t33.5 -49t69.5 -43t116.5 -29.5t169.5 -11.5v-9q40 2 62 2h322v-436h-322q-158 0 -287 -23t-207.5 -57.5t-130.5 -76.5t-71 -79t-15 -66q3 -45 33.5 -83.5t99 -71.5t169.5 -50.5t258 -15t351 29.5v-327z" />
    <glyph glyph-name="uni063A" unicode="&#x63a;" horiz-adv-x="1285" 
d="M1113 -468q-144 -19 -268.5 -21.5t-221 9t-176.5 36t-138 57t-102.5 75t-72.5 87t-46 95.5t-24.5 98t-6.5 97q0 173 92.5 339t271.5 268q-69 78 -94.5 176t-10.5 181q39 228 226.5 313.5t510.5 25.5v-291q-180 36 -309 29.5t-202.5 -41t-82.5 -87.5q-4 -26 3 -50
t33.5 -49t69.5 -43t116.5 -29.5t169.5 -11.5v-9q40 2 62 2h322v-436h-322q-158 0 -287 -23t-207.5 -57.5t-130.5 -76.5t-71 -79t-15 -66q3 -45 33.5 -83.5t99 -71.5t169.5 -50.5t258 -15t351 29.5v-327zM531 1757l205 204l204 -204l-205 -205z" />
    <glyph glyph-name="uni0640" unicode="&#x640;" horiz-adv-x="440" 
d="M450 455q90 0 154 -64t64 -154t-64 -154t-154 -64h-459q-90 0 -154 64t-64 154t64 154t154 64h459z" />
    <glyph glyph-name="uni0641" unicode="&#x641;" horiz-adv-x="1901" 
d="M285 870q-80 -139 -83 -294q1 -22 6 -38.5t17.5 -29t26.5 -21.5t40.5 -15t50 -9.5t65 -5t76.5 -2t92 -0.5h818q131 0 197.5 12t87 34t21.5 65h-261q-104 0 -175 20t-112.5 62.5t-59.5 101.5t-20 144v7v21h1q7 98 54 182.5t132 138.5t188 54q112 0 204 -71t143 -190.5
t51 -260.5v-35h1v-171q0 -88 -12 -163t-43.5 -148.5t-81.5 -124.5t-130.5 -82.5t-184.5 -31.5h-818q-269 0 -392 127.5t-127 417.5v8v11q6 191 102 359zM1218 903q2 -16 8.5 -24t34 -13t64 -6t114.5 -1h251q-19 83 -80.5 129.5t-162.5 46.5q-106 0 -164.5 -38t-64.5 -94z
M1242 1602l205 204l204 -204l-205 -204z" />
    <glyph glyph-name="uni0642" unicode="&#x642;" horiz-adv-x="1277" 
d="M1226 237q0 -109 -12.5 -197t-40.5 -169t-77.5 -141t-120 -104.5t-171 -67t-228.5 -22.5q-123 0 -222 52.5t-163 145t-99.5 214.5t-39.5 266h-1v18q0 13 1 20q11 299 189 504l110 -95q-148 -171 -154 -425q5 -139 90.5 -201.5t288.5 -62.5q159 0 253 9t149.5 33.5
t75.5 59.5t25 96h-259q-89 0 -157 26.5t-109.5 71.5t-66 109t-31.5 133.5t-1 150.5q14 171 123.5 288t241.5 117q71 0 140 -37.5t128 -109t96.5 -189.5t41.5 -264v-229zM450 1347l205 204l167 -168l168 167l204 -204l-204 -205l-168 169l-168 -168zM598 613q-1 -37 15 -52.5
t59.5 -21t147.5 -5.5h254q-34 241 -254 241q-96 0 -158 -46t-62 -111v-5h-2z" />
    <glyph glyph-name="uni0643" unicode="&#x643;" horiz-adv-x="1635" 
d="M57 851h145v-242q0 -115 38.5 -134.5t267.5 -19.5h6h612q132 0 198.5 16t88 46.5t21.5 91.5v964h145v-964q0 -93 -13.5 -175.5t-47 -160t-84 -132.5t-129.5 -88.5t-179 -33.5h-612q-108 0 -188.5 28.5t-131 78t-82 126t-43.5 162t-12 195.5v242zM626 1094l330 97v-126
l-169 -50l103 -22q73 -15 103 -47t30 -98q0 -59 -35 -102.5t-104 -45.5l-230 -10v126l227 11q32 1 49 4t21.5 7t4.5 10t-10 8t-69 14l-240 52z" />
    <glyph glyph-name="uni0644" unicode="&#x644;" horiz-adv-x="1184" 
d="M356 767q-148 -171 -154 -426q5 -148 92 -217.5t288 -69.5q75 0 131.5 6t109 23.5t86 46.5t53.5 76.5t20 112.5v1254h146v-1254q0 -329 -143 -515t-403 -186q-227 0 -372 192.5t-153 508.5v19v20q11 297 190 504z" />
    <glyph glyph-name="uni0645" unicode="&#x645;" horiz-adv-x="1264" 
d="M1208 516v-2v-4q-1 -47 -5.5 -93t-17 -98t-31 -97.5t-48.5 -88t-69 -72.5t-93.5 -48t-120.5 -18q-63 0 -106 5t-93.5 21.5t-98.5 51.5t-100 92q-41 -11 -61 -16t-47.5 -15.5t-38.5 -14t-27.5 -16.5t-21 -17.5t-13 -23.5t-9 -29t-3 -38t-2.5 -45.5v-57.5v-412h-145v412
q0 72 2.5 127.5t10.5 122.5t22.5 118t40 104.5t60.5 92t86.5 70t116.5 49.5l49 13q21 59 37 93q55 119 133 186.5t156.5 79.5t157.5 -15.5t139.5 -87t99.5 -146.5t40 -183zM572 461q115 -30 251 -30q172 0 206 11.5t34 68.5q0 40 -26.5 76t-67 60.5t-92 34.5t-100.5 3
t-93.5 -39t-70.5 -87q-23 -49 -41 -98z" />
    <glyph glyph-name="uni0646" unicode="&#x646;" horiz-adv-x="1184" 
d="M356 743q-148 -171 -154 -425q5 -139 91 -201.5t289 -62.5q75 0 131.5 6t109 23.5t86 46.5t53.5 76.5t20 112.5v553h146v-553q0 -329 -143 -515t-403 -186q-123 0 -222 52.5t-163 145t-100 214.5t-40 266v18v20q11 297 190 504zM422 1159l205 204l204 -204l-205 -205z
" />
    <glyph glyph-name="uni0647" unicode="&#x647;" horiz-adv-x="892" 
d="M57 512v24v32h1q12 225 116 350.5t266 125.5q80 0 146 -28.5t110.5 -76t75.5 -112t46 -134.5t17 -146h1v-17v-12q-1 -52 -5 -96.5t-15.5 -97t-29 -94.5t-48 -82.5t-70.5 -68t-98.5 -44t-129.5 -16.5q-89 0 -157 29t-109 74.5t-67.5 112.5t-36.5 132t-13 145zM202 534
q2 -57 38 -68t200 -11h9q172 0 206 10t35 64q-1 58 -11 96.5t-36.5 69.5t-76.5 45t-126 14q-128 0 -181 -49t-57 -171z" />
    <glyph glyph-name="uni0648" unicode="&#x648;" horiz-adv-x="891" 
d="M84 -485v328h170q176 0 272.5 39.5t134.5 136.5h-220q-112 0 -191 44t-120 120.5t-56.5 168t-8.5 199.5q16 166 123 285.5t233 119.5q41 0 80 -8t81 -27.5t78 -50.5t69 -80.5t56 -112.5t36.5 -151t13.5 -193v-128q0 -690 -581 -690h-170zM210 523q-4 -51 25.5 -59.5
t205.5 -8.5h240q-20 122 -84 165.5t-176 43.5q-89 0 -145.5 -41t-65.5 -100z" />
    <glyph glyph-name="uni0649" unicode="&#x649;" horiz-adv-x="1432" 
d="M354 936q-64 -76 -106 -175t-46 -247q5 -138 92.5 -200t288.5 -62h214q111 0 193 8.5t126 20.5t70.5 30.5t33.5 33.5t7 33q-1 48 -81 69.5t-265 32.5q-155 10 -239 108.5t-86 238.5v22q0 128 90 220t245 92h446v-220h-446q-189 0 -189 -92v-13q0 -54 187 -66
q99 -6 172.5 -21t134 -44t98.5 -73t58.5 -108t20.5 -148h-1q0 -49 -6.5 -98t-24.5 -105.5t-45 -106t-72.5 -96.5t-103.5 -80.5t-141 -53.5t-182 -20h-214q-164 0 -283 91t-178 241t-65 344v18v22q11 290 185 497z" />
    <glyph glyph-name="uni064A" unicode="&#x64a;" horiz-adv-x="1432" 
d="M354 936q-64 -76 -106 -175t-46 -247q5 -138 92.5 -200t288.5 -62h214q111 0 193 8.5t126 20.5t70.5 30.5t33.5 33.5t7 33q-1 48 -81 69.5t-265 32.5q-155 10 -239 108.5t-86 238.5v22q0 128 90 220t245 92h446v-220h-446q-189 0 -189 -92v-13q0 -54 187 -66
q99 -6 172.5 -21t134 -44t98.5 -73t58.5 -108t20.5 -148h-1q0 -49 -6.5 -98t-24.5 -105.5t-45 -106t-72.5 -96.5t-103.5 -80.5t-141 -53.5t-182 -20h-214q-164 0 -283 91t-178 241t-65 344v18v22q11 290 185 497zM368 -469l205 204l168 -168l167 167l204 -204l-204 -205
l-168 169l-168 -168z" />
    <glyph glyph-name="uni064B" unicode="&#x64b;" 
d="M14 701l-13 72l527 96l13 -72zM1 632l527 95l13 -72l-527 -95z" />
    <glyph glyph-name="uni064C" unicode="&#x64c;" 
d="M2 1138q34 18 152 77q-24 36 -28 80.5t10.5 82t50.5 60.5t85 17q33 -4 59.5 -32.5t38.5 -66t4.5 -78t-37.5 -66.5q-26 -23 -76 -49.5t-121 -60.5t-107 -54zM240 1257q39 20 52 32q25 23 16 41.5t-43 23.5q-45 5 -66.5 -11.5t-10.5 -42t52 -43.5zM301 1140q34 18 152 77
q-24 36 -28 80.5t10.5 82t50.5 60.5t85 17q33 -4 59.5 -33t38.5 -66t4.5 -78t-37.5 -67q-26 -23 -76 -49.5t-121 -60.5t-107 -54zM539 1258q39 20 52 32q25 23 16 42t-43 24q-45 5 -66.5 -11.5t-10.5 -42.5t52 -44z" />
    <glyph glyph-name="uni064D" unicode="&#x64d;" 
d="M14 -88l-13 72l527 96l13 -72zM1 -157l527 96l13 -73l-527 -95z" />
    <glyph glyph-name="uni064E" unicode="&#x64e;" 
d="M14 584l-13 72l527 96l13 -72z" />
    <glyph glyph-name="uni064F" unicode="&#x64f;" 
d="M2 1247q28 15 167 84q-27 39 -31.5 88t11.5 90t55.5 66.5t93.5 19.5q36 -4 65 -36t42.5 -73t5 -86t-41.5 -73q-28 -24 -82.5 -53.5t-133.5 -67t-117 -57.5zM264 1378q45 24 57 34q27 25 16.5 46t-47.5 26q-37 4 -60 -6t-27.5 -27t11.5 -38t50 -35z" />
    <glyph glyph-name="uni0650" unicode="&#x650;" 
d="M14 -222l-13 72l527 96l13 -72z" />
    <glyph glyph-name="uni0651" unicode="&#x651;" 
d="M63 1806q0 -16 -0.5 -35.5t-1 -28.5t1 -21l2 -16t5.5 -10t9 -7t14.5 -3t20 -2h27.5q52 0 60.5 16.5t8.5 116.5h59q0 -73 -5 -131q93 -17 116.5 -8.5t23.5 52.5v95h59v-95q0 -39 -4 -68t-14.5 -54.5t-28.5 -40.5t-45.5 -23.5t-67 -6.5t-91.5 13v2q-25 -15 -71 -15
q-30 0 -53 8t-38 20.5t-25 33t-14.5 38t-6.5 44.5t-2 44t1 44t1 38h59z" />
    <glyph glyph-name="uni0652" unicode="&#x652;" 
d="M247 1421v-4v-4q-2 -58 -30 -98t-92 -40q-61 0 -91 41t-32 98v3v4q2 55 31 94t87 39q65 0 95 -39.5t32 -93.5zM48 1418q1 -16 15.5 -23t61.5 -7q49 0 62.5 6t14.5 23q-1 32 -17.5 47t-64.5 15q-41 0 -56 -15t-16 -46z" />
    <glyph glyph-name="uni0653" unicode="&#x653;" 
d="M7 1042q74 31 144 35t126 -8t113.5 -23t130.5 -2.5t152 46.5v-140q-79 -36 -152 -42.5t-130 5t-113 23.5t-126 6.5t-145 -39.5v139z" />
    <glyph glyph-name="uni0654" unicode="&#x654;" 
d="M0 1638v169h98q-10 48 -0.5 95.5t39 84t79 51.5t117.5 -1v-127q-107 33 -156 -8q-32 -27 -14 -64q9 -18 29 -31h222v-169h-414z" />
    <glyph glyph-name="uni0655" unicode="&#x655;" 
d="M0 -256v169h98q-10 48 -0.5 95.5t39 84t79 51.5t117.5 -1v-127q-107 33 -156 -8q-32 -27 -14 -64q9 -18 29 -31h222v-169h-414z" />
    <glyph glyph-name="uni0656" unicode="&#x656;" 
d="M125 -72v-425h-89v425h89z" />
    <glyph glyph-name="uni0657" unicode="&#x657;" 
d="M415 1040q-28 -14 -167 -84q27 -39 31.5 -88t-11.5 -90t-55.5 -66.5t-93.5 -19.5q-36 4 -65 36t-42.5 73t-5 86t41.5 73q29 25 83 54t133.5 67t116.5 58zM96 875q-27 -25 -16.5 -45.5t47.5 -25.5q49 -6 73 12t11.5 46t-58.5 47q-45 -24 -57 -34z" />
    <glyph glyph-name="uni0658" unicode="&#x658;" 
d="M153 1390q-42 -41 -66 -106t-26 -137q2 -88 46 -134.5t156 -46.5q220 0 220 180v291h59v-291q0 -79 -18 -139.5t-46 -95.5t-66.5 -57t-74 -29.5t-74.5 -7.5q-86 0 -146 47.5t-86.5 118t-28.5 157.5v7v7q2 84 32 163.5t78 125.5z" />
    <glyph glyph-name="uni0659" unicode="&#x659;" 
d="M0 596v147h643v-147h-643z" />
    <glyph glyph-name="uni065A" unicode="&#x65a;" 
d="M473 1637l88 -64l-237 -329h-83l-237 329l89 64l190 -263z" />
    <glyph glyph-name="uni065B" unicode="&#x65b;" 
d="M473 965l-190 263l-190 -263l-89 64l237 328h83l237 -328z" />
    <glyph glyph-name="uni065C" unicode="&#x65c;" 
d="M239 -523q-79 0 -134.5 55.5t-55.5 134.5t55.5 134.5t134.5 55.5t135 -55.5t56 -134.5t-55.5 -134.5t-135.5 -55.5z" />
    <glyph glyph-name="uni065D" unicode="&#x65d;" 
d="M466 1149q-37 20 -116.5 57.5t-133 66.5t-82.5 54q-44 37 -45 100t33 112.5t82 55.5q54 6 93.5 -19.5t55.5 -66.5t11.5 -90t-31.5 -88q17 -8 51 -25l63 -31.5t54 -27.5zM181 1412q12 -10 57 -34q34 14 50 35t11.5 38t-27.5 27t-60 6q-37 -5 -47.5 -26t16.5 -46z" />
    </font>
</defs>
</svg>
