<?xml version="1.0" standalone="no"?>
<!DOCTYPE svg PUBLIC "-//W3C//DTD SVG 1.1//EN" "http://www.w3.org/Graphics/SVG/1.1/DTD/svg11.dtd" >
<svg xmlns="http://www.w3.org/2000/svg" xmlns:xlink="http://www.w3.org/1999/xlink" version="1.1">
<metadata>
Created by FontForge 20170731 at Sat Aug  5 00:30:47 2023
 By Aleksey,,,
Atype Studio
</metadata>
<defs>
<font id="GHAITHSANS-ExtraLight" horiz-adv-x="0" >
  <font-face 
    font-family="GHAITHSANS ExtraLight"
    font-weight="200"
    font-stretch="normal"
    units-per-em="2048"
    panose-1="0 0 0 0 0 0 0 0 0 0"
    ascent="1638"
    descent="-410"
    x-height="879"
    cap-height="1369"
    bbox="-277 -1162 5430 2338.04"
    underline-thickness="102"
    underline-position="-357"
    unicode-range="U+0020-FF5D"
  />
<missing-glyph horiz-adv-x="973" 
d="M79 1468h815v-1463h-815v1463zM154 105h664v1263h-664v-1263z" />
    <glyph glyph-name="fi" unicode="fi" horiz-adv-x="1236" 
d="M856 1365v-105h-185q-170 0 -244 -68.5t-74 -218.5v-272h747v-701h-34v632h-713v-631h-34v631h-235v69h235v272q0 392 352 392h185zM995 950l79 80l79 -80l-80 -79z" />
    <glyph glyph-name="fl" unicode="fl" horiz-adv-x="1546" 
d="M856 1395v-105h-185q-170 0 -244 -67.5t-74 -218.5v-290h683l1 655h35l-1 -929q0 -109 10 -170t41.5 -99.5t81 -50t137.5 -11.5h123v-105h-123q-116 0 -180 38t-94.5 132t-30.5 266v205h-683v-644h-34v644h-235v69h235v290q0 391 352 391h185z" />
    <glyph glyph-name="uni0622.fina" unicode="&#x622;" horiz-adv-x="507" arabic-form="final" 
d="M516 109q22 0 37.5 -15t15.5 -37t-15.5 -37.5t-37.5 -15.5h-47q-160 0 -242 105t-82 337v923h34v-923q0 -187 66.5 -262t223.5 -75h47zM-147 1643v41q76 32 147 36.5t127.5 -7.5t113.5 -23t129 -3.5t150 44.5v-41q-80 -37 -154 -44.5t-131 3.5t-113.5 23t-125.5 7.5
t-143 -36.5z" />
    <glyph glyph-name="uni0623.fina" unicode="&#x623;" horiz-adv-x="507" arabic-form="final" 
d="M516 109q22 0 37.5 -15t15.5 -37t-15.5 -37.5t-37.5 -15.5h-47q-160 0 -242 105t-82 337v923h34v-923q0 -187 66.5 -262t223.5 -75h47zM-3 1516v52h107q-32 37 -36.5 88t20.5 92.5t79 61t140 -8.5v-46q-125 43 -187 -12q-42 -36 -29 -91q13 -56 71 -77q13 -5 26 -7h194
v-52h-385z" />
    <glyph glyph-name="uni0624.fina" unicode="&#x624;" horiz-adv-x="879" arabic-form="final" 
d="M88 -483v82h169q479 0 492 405h-236q-69 0 -121.5 6.5t-104 26t-85.5 52t-56 88t-24 130.5v9v8q4 98 38.5 180.5t105.5 137t166 54.5q160 0 255.5 -127.5t95.5 -349.5v-110h106q22 0 37 -15t15 -37t-15 -37.5t-37 -15.5h-106q-2 -86 -21 -157t-49 -120.5t-72 -87.5
t-86.5 -60.5t-98 -37t-100.5 -19.5t-99 -5h-169zM156 317q2 -62 27 -104t74.5 -64t110 -31t145.5 -9h236v110q0 194 -82.5 296.5t-234.5 102.5q-133 0 -203.5 -86.5t-72.5 -214.5zM240 845v53h107q-32 37 -36.5 88t20.5 92t79.5 60.5t140.5 -8.5v-45q-125 43 -187 -12
q-42 -36 -30 -91q13 -56 71 -77q13 -5 26 -7h194v-53h-385z" />
    <glyph glyph-name="uni0625.fina" unicode="&#x625;" horiz-adv-x="507" arabic-form="final" 
d="M516 109q22 0 37.5 -15t15.5 -37t-15.5 -37.5t-37.5 -15.5h-47q-160 0 -242 105t-82 337v923h34v-923q0 -187 66.5 -262t223.5 -75h47zM53 -403v52h108q-32 37 -36.5 88t20.5 92.5t79 61t140 -8.5v-46q-125 43 -187 -12q-42 -36 -30 -91q13 -56 71 -77q13 -5 26 -7h194
v-52h-385z" />
    <glyph glyph-name="uni0626.init" unicode="&#x626;" horiz-adv-x="466" arabic-form="initial" 
d="M-9 4q-22 0 -37 15.5t-15 37.5t15 37t37 15h102q143 0 198.5 51t55.5 182v377h35v-377q0 -178 -71 -258t-218 -80h-102zM42 953v52h107q-32 37 -36.5 88t20.5 92.5t79 61t140 -8.5v-46q-125 43 -187 -12q-42 -36 -29 -91q13 -56 71 -77q13 -5 26 -7h194v-52h-385z" />
    <glyph glyph-name="uni0626.medi" unicode="&#x626;" horiz-adv-x="619" arabic-form="medial" 
d="M-9 4q-22 0 -37 15.5t-15 37.5t15 37t37 15h22q93 0 149 22.5t93.5 85.5t52 168t16.5 279h35q-1 -157 -17 -278q0 -157 68 -217t218 -60q22 0 37.5 -15t15.5 -37t-15.5 -37.5t-37.5 -15.5q-129 0 -207.5 58t-102.5 196q-36 -137 -110 -195.5t-195 -58.5h-22zM148 834v52
h108q-32 37 -36.5 88t20.5 92.5t79 61t140 -8.5v-46q-125 43 -187 -12q-42 -36 -30 -91q13 -56 71 -77q13 -5 26 -7h194v-52h-385z" />
    <glyph glyph-name="uni0626.fina" unicode="&#x626;" horiz-adv-x="1458" arabic-form="final" 
d="M864 269q185 -97 308 -128.5t294 -31.5q22 0 37.5 -15t15.5 -37t-15.5 -37.5t-37.5 -15.5q-142 0 -243 21q-3 -532 -527 -532q-124 0 -221.5 25t-164 66.5t-112.5 107t-70 136.5t-34 164.5t-9 181t11 196.5h36q-10 -108 -12 -189t6 -166.5t31 -146.5t65.5 -117t106 -90
t155.5 -54t212 -20q242 0 367 104t126 342q-137 37 -341 144zM247 544v52h108q-32 37 -36.5 88t20.5 92.5t79 61t140 -8.5v-46q-125 43 -187 -12q-42 -36 -30 -91q13 -56 71 -77q13 -5 26 -7h194v-52h-385z" />
    <glyph glyph-name="uni0627.fina" unicode="&#x627;" horiz-adv-x="507" arabic-form="final" 
d="M516 109q22 0 37.5 -15t15.5 -37t-15.5 -37.5t-37.5 -15.5h-47q-160 0 -242 105t-82 337v923h34v-923q0 -187 66.5 -262t223.5 -75h47z" />
    <glyph glyph-name="uni0628.init" unicode="&#x628;" horiz-adv-x="466" arabic-form="initial" 
d="M-9 4q-22 0 -37 15.5t-15 37.5t15 37t37 15h102q143 0 198.5 51t55.5 182v377h35v-377q0 -178 -71 -258t-218 -80h-102zM154 -239l79 79l79 -79l-79 -80z" />
    <glyph glyph-name="uni0628.medi" unicode="&#x628;" horiz-adv-x="619" arabic-form="medial" 
d="M-9 4q-22 0 -37 15.5t-15 37.5t15 37t37 15h22q93 0 149 22.5t93.5 85.5t52 168t16.5 279h35q-1 -157 -17 -278q0 -157 68 -217t218 -60q22 0 37.5 -15t15.5 -37t-15.5 -37.5t-37.5 -15.5q-129 0 -207.5 58t-102.5 196q-36 -137 -110 -195.5t-195 -58.5h-22zM229 -239
l79 79l79 -79l-80 -80z" />
    <glyph glyph-name="uni0628.fina" unicode="&#x628;" horiz-adv-x="1755" arabic-form="final" 
d="M210 717q-87 -155 -90 -324q1 -61 16 -107.5t44.5 -77.5t65 -51t87 -30t101 -14t116.5 -4h645q123 0 193.5 61t74.5 162q-1 9 -1 28h1v413h34v-431v-7q7 -117 77.5 -172.5t190.5 -53.5q22 0 37 -15t15 -37t-15 -37.5t-37 -15.5q-103 -2 -179 52.5t-106 163.5
q-31 -99 -106 -157.5t-179 -58.5h-645q-67 0 -118 5t-107 18t-95.5 39.5t-73 67t-51.5 103.5t-20 146v9v11q6 178 95 332zM736 -239l79 79l79 -79l-80 -80z" />
    <glyph glyph-name="uni0629.fina" unicode="&#x629;" horiz-adv-x="1138" arabic-form="final" 
d="M836 453q0 91 -102.5 174t-253.5 83q-184 0 -271 -86t-89 -228q2 -113 97.5 -183t260.5 -70q358 0 358 267v43zM85 391v4v4q1 81 25 149.5t70.5 123t123 85t176.5 30.5q117 0 212.5 -58.5t143.5 -146.5v233h35v-427q0 -151 57.5 -215t197.5 -64h22q22 0 37 -15t15 -37
t-15 -37.5t-37 -15.5h-22q-235 0 -279 250q-75 -216 -369 -216q-171 0 -280.5 95.5t-112.5 257.5zM323 1068l79 80l79 -80l-80 -79zM541 1067l79 80l79 -80l-80 -79z" />
    <glyph glyph-name="uni062A.init" unicode="&#x62a;" horiz-adv-x="490" arabic-form="initial" 
d="M-9 4q-22 0 -37 15.5t-15 37.5t15 37t37 15h102q143 0 198.5 51t55.5 182v377h35v-377q0 -178 -71 -258t-218 -80h-102zM59 1072l79 79l77 -79l-78 -78zM274 1072l78 78l78 -78l-79 -79z" />
    <glyph glyph-name="uni062A.medi" unicode="&#x62a;" horiz-adv-x="619" arabic-form="medial" 
d="M-9 4q-22 0 -37 15.5t-15 37.5t15 37t37 15h22q93 0 149 22.5t93.5 85.5t52 168t16.5 279h35q-1 -157 -17 -278q0 -157 68 -217t218 -60q22 0 37.5 -15t15.5 -37t-15.5 -37.5t-37.5 -15.5q-129 0 -207.5 58t-102.5 196q-36 -137 -110 -195.5t-195 -58.5h-22zM168 949
l79 78l77 -78l-78 -79zM383 948l78 78l78 -78l-79 -79z" />
    <glyph glyph-name="uni062A.fina" unicode="&#x62a;" horiz-adv-x="1755" arabic-form="final" 
d="M210 717q-87 -155 -90 -324q1 -61 16 -107.5t44.5 -77.5t65 -51t87 -30t101 -14t116.5 -4h645q123 0 193.5 61t74.5 162q-1 9 -1 28h1v413h34v-431v-7q7 -117 77.5 -172.5t190.5 -53.5q22 0 37 -15t15 -37t-15 -37.5t-37 -15.5q-103 -2 -179 52.5t-106 163.5
q-31 -99 -106 -157.5t-179 -58.5h-645q-67 0 -118 5t-107 18t-95.5 39.5t-73 67t-51.5 103.5t-20 146v9v11q6 178 95 332zM636 957l79 79l79 -79l-80 -80zM854 956l79 79l79 -79l-80 -79z" />
    <glyph glyph-name="uni062B.init" unicode="&#x62b;" horiz-adv-x="492" arabic-form="initial" 
d="M-9 4q-22 0 -37 15.5t-15 37.5t15 37t37 15h102q143 0 198.5 51t55.5 182v377h35v-377q0 -178 -71 -258t-218 -80h-102zM63 1088l80 79l78 -79l-79 -80zM172 1264l79 79l79 -79l-79 -79zM281 1087l79 80l80 -80l-80 -79z" />
    <glyph glyph-name="uni062B.medi" unicode="&#x62b;" horiz-adv-x="619" arabic-form="medial" 
d="M-9 4q-22 0 -37 15.5t-15 37.5t15 37t37 15h22q93 0 149 22.5t93.5 85.5t52 168t16.5 279h35q-1 -157 -17 -278q0 -157 68 -217t218 -60q22 0 37.5 -15t15.5 -37t-15.5 -37.5t-37.5 -15.5q-129 0 -207.5 58t-102.5 196q-36 -137 -110 -195.5t-195 -58.5h-22zM173 966
l78 78l78 -78l-78 -79zM280 1140l79 78l78 -78l-79 -79zM388 965l79 78l78 -78l-79 -79z" />
    <glyph glyph-name="uni062B.fina" unicode="&#x62b;" horiz-adv-x="1755" arabic-form="final" 
d="M210 717q-87 -155 -90 -324q1 -61 16 -107.5t44.5 -77.5t65 -51t87 -30t101 -14t116.5 -4h645q123 0 193.5 61t74.5 162q-1 9 -1 28h1v413h34v-431v-7q7 -117 77.5 -172.5t190.5 -53.5q22 0 37 -15t15 -37t-15 -37.5t-37 -15.5q-103 -2 -179 52.5t-106 163.5
q-31 -99 -106 -157.5t-179 -58.5h-645q-67 0 -118 5t-107 18t-95.5 39.5t-73 67t-51.5 103.5t-20 146v9v11q6 178 95 332zM641 974l79 79l79 -79l-80 -79zM750 1150l79 80l79 -80l-80 -79zM859 973l79 80l79 -80l-80 -79z" />
    <glyph glyph-name="uni062C.init" unicode="&#x62c;" horiz-adv-x="1269" arabic-form="initial" 
d="M1185 384q-141 -98 -278.5 -170.5t-243.5 -111.5t-213 -62t-178.5 -29.5t-149.5 -6.5h-131q-22 0 -37 15.5t-15 37.5t15 37t37 15h131q509 0 998 319q-122 29 -217 72.5t-262 140.5q-78 45 -149 60.5t-132.5 2t-110.5 -38t-102 -65.5v61q58 43 108 67t112.5 35t134 -7
t152.5 -65q171 -99 273 -141.5t258 -76.5v-89zM501 -193l80 80l78 -80l-79 -79z" />
    <glyph glyph-name="uni062C.medi" unicode="&#x62c;" horiz-adv-x="1422" arabic-form="medial" 
d="M1185 384q-121 -82 -217 -137q143 -138 441 -138h22q22 0 37.5 -15t15.5 -37t-15.5 -37.5t-37.5 -15.5h-22q-166 0 -278.5 44.5t-212.5 170.5q-402 -215 -796 -215h-131q-22 0 -37 15.5t-15 37.5t15 37t37 15h131q509 0 998 319q-122 29 -217 72.5t-262 140.5
q-78 45 -149 60.5t-132.5 2t-110.5 -38t-102 -65.5v61q58 43 108 67t112.5 35t134 -7t152.5 -65q171 -99 273 -141.5t258 -76.5v-89zM588 -184l80 79l78 -79l-79 -80z" />
    <glyph glyph-name="uni062C.fina" unicode="&#x62c;" horiz-adv-x="1452" arabic-form="final" 
d="M1241 465v-103l-227 -52q130 -201 398 -201h49q22 0 37 -15t15 -37t-15 -37.5t-37 -15.5h-49q-145 0 -254 68.5t-191 227.5l-47 -11q-217 -49 -374 -115.5t-250.5 -146t-136 -168t-39.5 -191.5q5 -76 39.5 -140.5t106.5 -120.5t184 -87t270 -39.5t366 22.5v-71
q-212 -31 -375 -20t-279.5 47.5t-192 101t-112.5 140.5t-42 166q-8 259 196 443t631 281l196 44q-70 25 -141.5 70t-160 109.5t-149.5 101.5q-70 43 -134.5 59t-130.5 5.5t-126.5 -35.5t-141.5 -71v74q86 48 146 72.5t127.5 34t134 -9.5t143.5 -67q57 -35 140.5 -95
t135.5 -95t130.5 -67.5t159.5 -40.5l-1 -15h1zM794 -236l79 80l79 -80l-80 -79z" />
    <glyph glyph-name="uni062D.init" unicode="&#x62d;" horiz-adv-x="1269" arabic-form="initial" 
d="M1185 384q-141 -98 -278.5 -170.5t-243.5 -111.5t-213 -62t-178.5 -29.5t-149.5 -6.5h-131q-22 0 -37 15.5t-15 37.5t15 37t37 15h131q509 0 998 319q-122 29 -217 72.5t-262 140.5q-78 45 -149 60.5t-132.5 2t-110.5 -38t-102 -65.5v61q58 43 108 67t112.5 35t134 -7
t152.5 -65q171 -99 273 -141.5t258 -76.5v-89z" />
    <glyph glyph-name="uni062D.medi" unicode="&#x62d;" horiz-adv-x="1422" arabic-form="medial" 
d="M1185 384q-121 -82 -217 -137q143 -138 441 -138h22q22 0 37.5 -15t15.5 -37t-15.5 -37.5t-37.5 -15.5h-22q-166 0 -278.5 44.5t-212.5 170.5q-402 -215 -796 -215h-131q-22 0 -37 15.5t-15 37.5t15 37t37 15h131q509 0 998 319q-122 29 -217 72.5t-262 140.5
q-78 45 -149 60.5t-132.5 2t-110.5 -38t-102 -65.5v61q58 43 108 67t112.5 35t134 -7t152.5 -65q171 -99 273 -141.5t258 -76.5v-89z" />
    <glyph glyph-name="uni062D.fina" unicode="&#x62d;" horiz-adv-x="1452" arabic-form="final" 
d="M1241 465v-103l-227 -52q130 -201 398 -201h49q22 0 37 -15t15 -37t-15 -37.5t-37 -15.5h-49q-145 0 -254 68.5t-191 227.5l-47 -11q-217 -49 -374 -115.5t-250.5 -146t-136 -168t-39.5 -191.5q5 -76 39.5 -140.5t106.5 -120.5t184 -87t270 -39.5t366 22.5v-71
q-212 -31 -375 -20t-279.5 47.5t-192 101t-112.5 140.5t-42 166q-8 259 196 443t631 281l196 44q-70 25 -141.5 70t-160 109.5t-149.5 101.5q-70 43 -134.5 59t-130.5 5.5t-126.5 -35.5t-141.5 -71v74q86 48 146 72.5t127.5 34t134 -9.5t143.5 -67q57 -35 140.5 -95
t135.5 -95t130.5 -67.5t159.5 -40.5l-1 -15h1z" />
    <glyph glyph-name="uni062E.init" unicode="&#x62e;" horiz-adv-x="1269" arabic-form="initial" 
d="M1185 384q-141 -98 -278.5 -170.5t-243.5 -111.5t-213 -62t-178.5 -29.5t-149.5 -6.5h-131q-22 0 -37 15.5t-15 37.5t15 37t37 15h131q509 0 998 319q-122 29 -217 72.5t-262 140.5q-78 45 -149 60.5t-132.5 2t-110.5 -38t-102 -65.5v61q58 43 108 67t112.5 35t134 -7
t152.5 -65q171 -99 273 -141.5t258 -76.5v-89zM346 1122l79 80l79 -80l-80 -79z" />
    <glyph glyph-name="uni062E.medi" unicode="&#x62e;" horiz-adv-x="1422" arabic-form="medial" 
d="M1185 384q-121 -82 -217 -137q143 -138 441 -138h22q22 0 37.5 -15t15.5 -37t-15.5 -37.5t-37.5 -15.5h-22q-166 0 -278.5 44.5t-212.5 170.5q-402 -215 -796 -215h-131q-22 0 -37 15.5t-15 37.5t15 37t37 15h131q509 0 998 319q-122 29 -217 72.5t-262 140.5
q-78 45 -149 60.5t-132.5 2t-110.5 -38t-102 -65.5v61q58 43 108 67t112.5 35t134 -7t152.5 -65q171 -99 273 -141.5t258 -76.5v-89zM398 1083l80 79l78 -79l-79 -79z" />
    <glyph glyph-name="uni062E.fina" unicode="&#x62e;" horiz-adv-x="1452" arabic-form="final" 
d="M1241 465v-103l-227 -52q130 -201 398 -201h49q22 0 37 -15t15 -37t-15 -37.5t-37 -15.5h-49q-145 0 -254 68.5t-191 227.5l-47 -11q-217 -49 -374 -115.5t-250.5 -146t-136 -168t-39.5 -191.5q5 -76 39.5 -140.5t106.5 -120.5t184 -87t270 -39.5t366 22.5v-71
q-212 -31 -375 -20t-279.5 47.5t-192 101t-112.5 140.5t-42 166q-8 259 196 443t631 281l196 44q-70 25 -141.5 70t-160 109.5t-149.5 101.5q-70 43 -134.5 59t-130.5 5.5t-126.5 -35.5t-141.5 -71v74q86 48 146 72.5t127.5 34t134 -9.5t143.5 -67q57 -35 140.5 -95
t135.5 -95t130.5 -67.5t159.5 -40.5l-1 -15h1zM377 1157l79 79l79 -79l-80 -80z" />
    <glyph glyph-name="uni062F.fina" unicode="&#x62f;" horiz-adv-x="1049" arabic-form="final" 
d="M796 351q-1 -73 -19 -135q68 -107 267 -107h14q22 0 37.5 -15t15.5 -37t-15.5 -37.5t-37.5 -15.5h-14q-96 0 -169 33.5t-122 119.5q-82 -153 -322 -153h-387v105h387q173 0 251 59t80 183v6q0 355 -538 296v70q572 62 572 -366v-6z" />
    <glyph glyph-name="uni0630.fina" unicode="&#x630;" horiz-adv-x="1049" arabic-form="final" 
d="M796 351q-1 -73 -19 -135q68 -107 267 -107h14q22 0 37.5 -15t15.5 -37t-15.5 -37.5t-37.5 -15.5h-14q-96 0 -169 33.5t-122 119.5q-82 -153 -322 -153h-387v105h387q173 0 251 59t80 183v6q0 355 -538 296v70q572 62 572 -366v-6zM319 1070l80 79l79 -79l-80 -80z" />
    <glyph glyph-name="uni0631.fina" unicode="&#x631;" horiz-adv-x="741" arabic-form="final" 
d="M0 -428q74 0 132 7.5t102.5 25t77 39.5t55 58t36.5 73.5t21.5 92.5t10 108.5t2.5 127.5v588h35v-304q0 -151 57.5 -215t197.5 -64h23q22 0 37.5 -15t15.5 -37t-15.5 -37.5t-37.5 -15.5h-23q-190 0 -255 165v-65q0 -90 -4.5 -157.5t-16.5 -136.5t-33.5 -118t-57 -92.5
t-85 -70t-118.5 -42t-157 -15.5v100z" />
    <glyph glyph-name="uni0632.fina" unicode="&#x632;" horiz-adv-x="741" arabic-form="final" 
d="M0 -428q74 0 132 7.5t102.5 25t77 39.5t55 58t36.5 73.5t21.5 92.5t10 108.5t2.5 127.5v588h35v-304q0 -151 57.5 -215t197.5 -64h23q22 0 37.5 -15t15.5 -37t-15.5 -37.5t-37.5 -15.5h-23q-190 0 -255 165v-65q0 -90 -4.5 -157.5t-16.5 -136.5t-33.5 -118t-57 -92.5
t-85 -70t-118.5 -42t-157 -15.5v100zM492 1011l79 79l79 -79l-80 -80z" />
    <glyph glyph-name="uni0633.init" unicode="&#x633;" horiz-adv-x="1528" arabic-form="initial" 
d="M-9 4q-22 0 -37 15.5t-15 37.5t15 37t37 15h18q78 0 127 19.5t85.5 74.5t54 151.5t23.5 250.5h34q-10 -247 -54 -384q48 -56 121 -87.5t148.5 -31t144 26t115.5 87.5t54 149l20 240h36l-22 -249q-6 -70 -27 -127q122 -120 262 -120h19q123 0 191 61.5t68 162.5v317h34
v-317q0 -143 -81 -236t-212 -93h-19q-141 0 -293 159q-61 -103 -166 -143t-219.5 -4.5t-199.5 138.5q-40 -80 -100 -115t-144 -35h-18z" />
    <glyph glyph-name="uni0633.medi" unicode="&#x633;" horiz-adv-x="1737" arabic-form="medial" 
d="M1747 109q22 0 37 -15t15 -37t-15 -37.5t-37 -15.5h-48q-218 0 -272 212q-29 -97 -102 -154.5t-175 -57.5h-19q-141 0 -293 159q-61 -103 -166 -143t-219.5 -4.5t-199.5 138.5q-40 -80 -100 -115t-144 -35h-18q-22 0 -37 15.5t-15 37.5t15 37t37 15h18q78 0 127 19.5
t85.5 74.5t54 151.5t23.5 250.5h34q-10 -247 -54 -384q48 -56 121 -87.5t148.5 -31t144 26t115.5 87.5t54 149l20 240h36l-22 -249q-6 -70 -27 -127q122 -120 262 -120h19q123 0 191 61.5t68 162.5v47v6v264h34v-270q1 -152 64.5 -211.5t191.5 -59.5h48z" />
    <glyph glyph-name="uni0633.fina" unicode="&#x633;" horiz-adv-x="2406" arabic-form="final" 
d="M2417 109q22 0 37 -15t15 -37t-15 -37.5t-37 -15.5q-124 0 -197.5 47.5t-101.5 163.5q-30 -96 -102 -153.5t-170 -57.5h-39q-72 0 -138.5 38t-144.5 120q-53 -100 -145 -139t-187 -7t-158 126v-3q0 -126 -31 -223t-79 -155t-115 -94.5t-131 -49.5t-135 -13
q-113 0 -200.5 41.5t-141.5 114t-83 165t-32 201.5h-1v15q0 10 1 15q5 149 57.5 285t135.5 218l24 -24q-82 -80 -131.5 -213t-51.5 -281q2 -95 25.5 -171t72 -136t131.5 -93t194 -33q71 0 133 11t123 41t104 77t69.5 124t26.5 178v553h35v-452q21 -44 58 -76t81 -47
t92.5 -18t94.5 13t84 45.5t63.5 80t31.5 114.5l21 239h36l-22 -249q-4 -57 -22 -112q119 -121 255 -121h39q119 0 187 62t68 162v406h35v-349q0 -86 15 -140.5t51 -85.5t86 -43t129 -12z" />
    <glyph glyph-name="uni0634.init" unicode="&#x634;" horiz-adv-x="1528" arabic-form="initial" 
d="M-9 4q-22 0 -37 15.5t-15 37.5t15 37t37 15h18q78 0 127 19.5t85.5 74.5t54 151.5t23.5 250.5h34q-10 -247 -54 -384q48 -56 121 -87.5t148.5 -31t144 26t115.5 87.5t54 149l20 240h36l-22 -249q-6 -70 -27 -127q122 -120 262 -120h19q123 0 191 61.5t68 162.5v317h34
v-317q0 -143 -81 -236t-212 -93h-19q-141 0 -293 159q-61 -103 -166 -143t-219.5 -4.5t-199.5 138.5q-40 -80 -100 -115t-144 -35h-18zM704 974l79 79l79 -79l-80 -79zM813 1150l79 80l79 -80l-80 -79zM922 973l79 80l80 -80l-81 -79z" />
    <glyph glyph-name="uni0634.medi" unicode="&#x634;" horiz-adv-x="1737" arabic-form="medial" 
d="M1747 109q22 0 37 -15t15 -37t-15 -37.5t-37 -15.5h-48q-218 0 -272 212q-29 -97 -102 -154.5t-175 -57.5h-19q-141 0 -293 159q-61 -103 -166 -143t-219.5 -4.5t-199.5 138.5q-40 -80 -100 -115t-144 -35h-18q-22 0 -37 15.5t-15 37.5t15 37t37 15h18q78 0 127 19.5
t85.5 74.5t54 151.5t23.5 250.5h34q-10 -247 -54 -384q48 -56 121 -87.5t148.5 -31t144 26t115.5 87.5t54 149l20 240h36l-22 -249q-6 -70 -27 -127q122 -120 262 -120h19q123 0 191 61.5t68 162.5v47v6v264h34v-270q1 -152 64.5 -211.5t191.5 -59.5h48zM704 974l79 79
l79 -79l-80 -79zM813 1150l79 80l79 -80l-80 -79zM922 973l79 80l80 -80l-81 -79z" />
    <glyph glyph-name="uni0634.fina" unicode="&#x634;" horiz-adv-x="2406" arabic-form="final" 
d="M2417 109q22 0 37 -15t15 -37t-15 -37.5t-37 -15.5q-124 0 -197.5 47.5t-101.5 163.5q-30 -96 -102 -153.5t-170 -57.5h-39q-72 0 -138.5 38t-144.5 120q-53 -100 -145 -139t-187 -7t-158 126v-3q0 -126 -31 -223t-79 -155t-115 -94.5t-131 -49.5t-135 -13
q-113 0 -200.5 41.5t-141.5 114t-83 165t-32 201.5h-1v15q0 10 1 15q5 149 57.5 285t135.5 218l24 -24q-82 -80 -131.5 -213t-51.5 -281q2 -95 25.5 -171t72 -136t131.5 -93t194 -33q71 0 133 11t123 41t104 77t69.5 124t26.5 178v553h35v-452q21 -44 58 -76t81 -47
t92.5 -18t94.5 13t84 45.5t63.5 80t31.5 114.5l21 239h36l-22 -249q-4 -57 -22 -112q119 -121 255 -121h39q119 0 187 62t68 162v406h35v-349q0 -86 15 -140.5t51 -85.5t86 -43t129 -12zM1396 974l79 79l79 -79l-79 -79zM1505 1150l79 80l79 -80l-79 -79zM1614 973l79 80
l80 -80l-81 -79z" />
    <glyph glyph-name="uni0635.init" unicode="&#x635;" horiz-adv-x="1648" arabic-form="initial" 
d="M-9 4q-22 0 -37 15.5t-15 37.5t15 37t37 15h34q153 0 228 69.5t75 241.5v272h35v-272q0 -55 -6 -100q89 101 185 181.5t187.5 132.5t182.5 85.5t172.5 40.5t155 -4t132 -46t101.5 -87t66.5 -126t23.5 -164v-13q0 -146 -93 -231t-264 -85h-171q-242 0 -414 50t-282 172
q-66 -222 -314 -222h-34zM382 279q187 -170 653 -170h171q164 0 243.5 57.5t79.5 153.5v13q0 143 -68.5 238.5t-187.5 122.5t-263.5 -1.5t-311.5 -136t-316 -277.5z" />
    <glyph glyph-name="uni0635.medi" unicode="&#x635;" horiz-adv-x="1769" arabic-form="medial" 
d="M-9 4q-22 0 -37 15.5t-15 37.5t15 37t37 15h34q153 0 228 69.5t75 241.5v272h35v-272q0 -55 -6 -100q89 101 185 181.5t187.5 132.5t182.5 85.5t172.5 40.5t155 -4t132 -46t101.5 -87t66.5 -126t23.5 -164v-13q0 -128 -74 -211h289q22 0 37.5 -15t15.5 -37t-15.5 -37.5
t-37.5 -15.5h-743q-242 0 -414 50t-282 172q-66 -222 -314 -222h-34zM382 279q187 -170 653 -170h171q164 0 243.5 57.5t79.5 153.5v13q0 143 -68.5 238.5t-187.5 122.5t-263.5 -1.5t-311.5 -136t-316 -277.5z" />
    <glyph glyph-name="uni0635.fina" unicode="&#x635;" horiz-adv-x="2414" arabic-form="final" 
d="M2245 318q0 -126 -63 -209h241q22 0 37.5 -15t15.5 -37t-15.5 -37.5t-37.5 -15.5h-706q-447 0 -683 210v-75q0 -126 -31 -223t-79 -155t-115 -94.5t-131 -49.5t-135 -13q-113 0 -200.5 41.5t-141.5 114t-83 165t-32 201.5h-1v15q0 10 1 15q5 149 57.5 285t135.5 218
l24 -24q-82 -80 -131.5 -213t-51.5 -281q2 -95 25.5 -171t72 -136t131.5 -93t194 -33q71 0 133 11t123 41t104 77t69.5 124t26.5 178v553h35v-382l6 -5q89 101 185 182t187.5 134t182 87.5t172 42.5t155 -1.5t132.5 -44t102 -85.5t66 -125t23 -164v-13zM1076 275
q101 -76 265.5 -121t375.5 -45h248q117 0 181.5 58t64.5 151v13q0 143 -67.5 237t-185 119.5t-260 -3t-308 -135.5t-314.5 -274z" />
    <glyph glyph-name="uni0636.init" unicode="&#x636;" horiz-adv-x="1648" arabic-form="initial" 
d="M-9 4q-22 0 -37 15.5t-15 37.5t15 37t37 15h34q153 0 228 69.5t75 241.5v272h35v-272q0 -55 -6 -100q89 101 185 181.5t187.5 132.5t182.5 85.5t172.5 40.5t155 -4t132 -46t101.5 -87t66.5 -126t23.5 -164v-13q0 -146 -93 -231t-264 -85h-171q-242 0 -414 50t-282 172
q-66 -222 -314 -222h-34zM382 279q187 -170 653 -170h171q164 0 243.5 57.5t79.5 153.5v13q0 143 -68.5 238.5t-187.5 122.5t-263.5 -1.5t-311.5 -136t-316 -277.5zM599 1022l79 79l79 -79l-80 -80z" />
    <glyph glyph-name="uni0636.medi" unicode="&#x636;" horiz-adv-x="1769" arabic-form="medial" 
d="M-9 4q-22 0 -37 15.5t-15 37.5t15 37t37 15h34q153 0 228 69.5t75 241.5v272h35v-272q0 -55 -6 -100q89 101 185 181.5t187.5 132.5t182.5 85.5t172.5 40.5t155 -4t132 -46t101.5 -87t66.5 -126t23.5 -164v-13q0 -128 -74 -211h289q22 0 37.5 -15t15.5 -37t-15.5 -37.5
t-37.5 -15.5h-743q-242 0 -414 50t-282 172q-66 -222 -314 -222h-34zM382 279q187 -170 653 -170h171q164 0 243.5 57.5t79.5 153.5v13q0 143 -68.5 238.5t-187.5 122.5t-263.5 -1.5t-311.5 -136t-316 -277.5zM596 1022l80 79l78 -79l-79 -80z" />
    <glyph glyph-name="uni0636.fina" unicode="&#x636;" horiz-adv-x="2414" arabic-form="final" 
d="M2245 318q0 -126 -63 -209h241q22 0 37.5 -15t15.5 -37t-15.5 -37.5t-37.5 -15.5h-706q-447 0 -683 210v-75q0 -126 -31 -223t-79 -155t-115 -94.5t-131 -49.5t-135 -13q-113 0 -200.5 41.5t-141.5 114t-83 165t-32 201.5h-1v15q0 10 1 15q5 149 57.5 285t135.5 218
l24 -24q-82 -80 -131.5 -213t-51.5 -281q2 -95 25.5 -171t72 -136t131.5 -93t194 -33q71 0 133 11t123 41t104 77t69.5 124t26.5 178v553h35v-382l6 -5q89 101 185 182t187.5 134t182 87.5t172 42.5t155 -1.5t132.5 -44t102 -85.5t66 -125t23 -164v-13zM1076 275
q101 -76 265.5 -121t375.5 -45h248q117 0 181.5 58t64.5 151v13q0 143 -67.5 237t-185 119.5t-260 -3t-308 -135.5t-314.5 -274zM1285 1026l79 79l79 -79l-80 -80z" />
    <glyph glyph-name="uni0637.init" unicode="&#x637;" horiz-adv-x="1359" arabic-form="initial" 
d="M1275 332q0 -68 -21 -125.5t-64 -104t-116 -72.5t-170 -26h-913q-22 0 -37 15.5t-15 37.5t15 37t37 15h121v1260h35v-1196q155 310 399 458q198 121 390 100q169 -18 262 -139q77 -101 77 -248v-12zM159 109h745q181 0 258.5 61.5t77.5 161.5v12q0 172 -122 265
q-118 90 -295 69q-208 -25 -394 -193q-162 -146 -270 -376z" />
    <glyph glyph-name="uni0637.medi" unicode="&#x637;" horiz-adv-x="1374" arabic-form="medial" 
d="M-9 4q-22 0 -37 15.5t-15 37.5t15 37t37 15h121v1260h35v-1196q155 310 399 458q198 121 390 100q169 -18 262 -139q77 -101 77 -248v-12q0 -138 -79 -223h188q22 0 37 -15t15 -37t-15 -37.5t-37 -15.5h-1393zM159 109h745q181 0 258.5 61.5t77.5 161.5v12
q0 172 -122 265q-118 90 -295 69q-208 -25 -394 -193q-162 -146 -270 -376z" />
    <glyph glyph-name="uni0637.fina" unicode="&#x637;" horiz-adv-x="1690" arabic-form="final" 
d="M1319 4q-31 0 -46 27q-76 -27 -171 -27h-1018v105h226v1260h34v-1196q155 310 399 458q198 121 390 100q169 -18 262 -139q77 -101 77 -248v-12q0 -138 -79 -223h306q22 0 37 -15t15 -37t-15 -37.5t-37 -15.5h-380zM356 109h746q180 0 258 61.5t78 161.5v12
q0 172 -122 265q-118 90 -295 69q-209 -25 -395 -193q-162 -146 -270 -376z" />
    <glyph glyph-name="uni0638.init" unicode="&#x638;" horiz-adv-x="1359" arabic-form="initial" 
d="M1275 332q0 -68 -21 -125.5t-64 -104t-116 -72.5t-170 -26h-913q-22 0 -37 15.5t-15 37.5t15 37t37 15h121v1260h35v-1196q155 310 399 458q198 121 390 100q169 -18 262 -139q77 -101 77 -248v-12zM159 109h745q181 0 258.5 61.5t77.5 161.5v12q0 172 -122 265
q-118 90 -295 69q-208 -25 -394 -193q-162 -146 -270 -376zM560 1131l80 80l78 -80l-79 -79z" />
    <glyph glyph-name="uni0638.medi" unicode="&#x638;" horiz-adv-x="1374" arabic-form="medial" 
d="M-9 4q-22 0 -37 15.5t-15 37.5t15 37t37 15h121v1260h35v-1196q155 310 399 458q198 121 390 100q169 -18 262 -139q77 -101 77 -248v-12q0 -138 -79 -223h188q22 0 37 -15t15 -37t-15 -37.5t-37 -15.5h-1393zM159 109h745q181 0 258.5 61.5t77.5 161.5v12
q0 172 -122 265q-118 90 -295 69q-208 -25 -394 -193q-162 -146 -270 -376zM535 1131l79 80l79 -80l-79 -79z" />
    <glyph glyph-name="uni0638.fina" unicode="&#x638;" horiz-adv-x="1690" arabic-form="final" 
d="M1319 4q-31 0 -46 27q-76 -27 -171 -27h-1018v105h226v1260h34v-1196q155 310 399 458q198 121 390 100q169 -18 262 -139q77 -101 77 -248v-12q0 -138 -79 -223h306q22 0 37 -15t15 -37t-15 -37.5t-37 -15.5h-380zM356 109h746q180 0 258 61.5t78 161.5v12
q0 172 -122 265q-118 90 -295 69q-209 -25 -395 -193q-162 -146 -270 -376zM739 1131l79 80l79 -80l-79 -79z" />
    <glyph glyph-name="uni0639.init" unicode="&#x639;" horiz-adv-x="1026" arabic-form="initial" 
d="M-20 4q-22 0 -37.5 15.5t-15.5 37.5t15.5 37t37.5 15h308q-95 64 -133 162t-18 198q34 172 217.5 236.5t464.5 11.5v-71q-267 53 -444.5 -1.5t-203.5 -189.5q-23 -117 47.5 -213.5t229.5 -132.5h495v-105h-963z" />
    <glyph glyph-name="uni0639.medi" unicode="&#x639;" horiz-adv-x="1114" arabic-form="medial" 
d="M-9 4q-22 0 -37 15.5t-15 37.5t15 37t37 15h97q269 0 429 79q-257 160 -418 470h-1v1l-1 2l1 1v65l894 -3v-69h-2q-50 -153 -140 -261t-220 -201q171 -84 433 -84h60q22 0 37.5 -15t15.5 -37t-15.5 -37.5t-37.5 -15.5h-60q-144 0 -261.5 28.5t-227.5 97.5
q-176 -126 -486 -126h-97zM147 658q50 -91 112 -168t122.5 -129t105 -83t88.5 -55l1 1q143 99 234.5 198t140.5 233zM569 151q13 -3 28 -7l2 1l-23 11z" />
    <glyph glyph-name="uni0639.fina" unicode="&#x639;" horiz-adv-x="1231" arabic-form="final" 
d="M112 -362v9q-3 77 15.5 144t48.5 116t83 98t100 82.5t119 77.5q-253 177 -388 524h-1v69l1011 -3v-69h-9l7 -8q-37 -90 -87.5 -167t-111.5 -138.5t-118.5 -107.5t-128.5 -92q168 -64 433 -64h155q22 0 37.5 -15t15.5 -37t-15.5 -37.5t-37.5 -15.5h-155q-162 0 -284 24.5
t-234 82.5l-7 4q-173 -104 -212 -132q-140 -97 -180 -201q-23 -58 -21 -127q3 -73 37 -132.5t105.5 -109t183.5 -75t271.5 -30t368.5 26.5v-79q-210 -30 -372 -24t-277.5 35.5t-192 86t-114.5 126.5t-44 158h-1zM138 689q69 -159 179.5 -279.5t244.5 -194.5q69 41 113.5 70
t107 76.5t105.5 91t87.5 105t75.5 128.5z" />
    <glyph glyph-name="uni063A.init" unicode="&#x63a;" horiz-adv-x="1026" arabic-form="initial" 
d="M-20 4q-22 0 -37.5 15.5t-15.5 37.5t15.5 37t37.5 15h308q-95 64 -133 162t-18 198q34 172 217.5 236.5t464.5 11.5v-71q-267 53 -444.5 -1.5t-203.5 -189.5q-23 -117 47.5 -213.5t229.5 -132.5h495v-105h-963zM464 1071l80 79l79 -79l-80 -80z" />
    <glyph glyph-name="uni063A.medi" unicode="&#x63a;" horiz-adv-x="1114" arabic-form="medial" 
d="M-9 4q-22 0 -37 15.5t-15 37.5t15 37t37 15h97q269 0 429 79q-257 160 -418 470h-1v1l-1 2l1 1v65l894 -3v-69h-2q-50 -153 -140 -261t-220 -201q171 -84 433 -84h60q22 0 37.5 -15t15.5 -37t-15.5 -37.5t-37.5 -15.5h-60q-144 0 -261.5 28.5t-227.5 97.5
q-176 -126 -486 -126h-97zM147 658q50 -91 112 -168t122.5 -129t105 -83t88.5 -55l1 1q143 99 234.5 198t140.5 233zM474 1036l80 80l78 -80l-79 -79zM569 151q13 -3 28 -7l2 1l-23 11z" />
    <glyph glyph-name="uni063A.fina" unicode="&#x63a;" horiz-adv-x="1231" arabic-form="final" 
d="M112 -362v9q-3 77 15.5 144t48.5 116t83 98t100 82.5t119 77.5q-253 177 -388 524h-1v69l1011 -3v-69h-9l7 -8q-37 -90 -87.5 -167t-111.5 -138.5t-118.5 -107.5t-128.5 -92q168 -64 433 -64h155q22 0 37.5 -15t15.5 -37t-15.5 -37.5t-37.5 -15.5h-155q-162 0 -284 24.5
t-234 82.5l-7 4q-173 -104 -212 -132q-140 -97 -180 -201q-23 -58 -21 -127q3 -73 37 -132.5t105.5 -109t183.5 -75t271.5 -30t368.5 26.5v-79q-210 -30 -372 -24t-277.5 35.5t-192 86t-114.5 126.5t-44 158h-1zM138 689q69 -159 179.5 -279.5t244.5 -194.5q69 41 113.5 70
t107 76.5t105.5 91t87.5 105t75.5 128.5zM553 1080l79 79l79 -79l-79 -80z" />
    <glyph glyph-name="uni0641.init" unicode="&#x641;" horiz-adv-x="884" arabic-form="initial" 
d="M800 388q0 -384 -290 -384h-519q-22 0 -37 15.5t-15 37.5t15 37t37 15h519q132 0 190 56.5t64 185.5h-315q-167 0 -244.5 77t-65.5 252h1q12 129 106.5 213.5t204.5 84.5q65 0 126 -31t111.5 -91t81 -158.5t30.5 -222.5v-87zM173 646q-1 -117 62 -164.5t214 -47.5h316v41
q0 111 -26.5 197t-71.5 137.5t-100 77.5t-116 26q-109 0 -193.5 -76.5t-84.5 -190.5zM372 1285l79 79l79 -79l-79 -80z" />
    <glyph glyph-name="uni0641.medi" unicode="&#x641;" horiz-adv-x="892" arabic-form="medial" 
d="M130 456q0 61 20.5 121t58.5 111.5t100 83.5t137 32q98 0 171.5 -54t108 -132t36.5 -165v-32q0 -203 -145 -307q72 -5 128 -5h156q22 0 37.5 -15t15.5 -37t-15.5 -37.5t-37.5 -15.5h-156q-170 0 -296 34q-124 -34 -293 -34h-165q-22 0 -37 15.5t-15 37.5t15 37t37 15h165
q43 0 123 4q-146 105 -149 303v40zM165 421q0 -214 284 -282q278 67 278 282v25q0 115 -72.5 201.5t-208.5 86.5q-70 0 -125.5 -25.5t-88.5 -66.5t-50 -88.5t-17 -97.5v-35zM373 1133l79 79l79 -79l-80 -80z" />
    <glyph glyph-name="uni0641.fina" unicode="&#x641;" horiz-adv-x="1997" arabic-form="final" 
d="M210 717q-87 -155 -90 -324q1 -61 16 -107.5t44.5 -77.5t65 -51t87 -30t101 -14t116.5 -4h712q75 0 138 7q-161 110 -164 300v40q0 66 20.5 130t58.5 116.5t100 84.5t137 32q98 0 171 -54.5t107.5 -136t36.5 -175.5v-32q0 -195 -160 -304q63 -8 143 -8h156q22 0 37.5 -15
t15.5 -37t-15.5 -37.5t-37.5 -15.5h-156q-165 0 -296 41q-129 -41 -292 -41h-712q-67 0 -118 5t-107 18t-95.5 39.5t-73 67t-51.5 103.5t-20 146v9v11q6 178 95 332zM1271 421q0 -100 77 -169t207 -106q128 37 203 106t75 169v25q0 80 -28.5 147t-94 112t-158.5 45
t-158.5 -44.5t-94 -109.5t-28.5 -140v-35zM1475 1134l79 79l79 -79l-80 -80z" />
    <glyph glyph-name="uni0642.init" unicode="&#x642;" horiz-adv-x="884" arabic-form="initial" 
d="M800 388q0 -384 -290 -384h-519q-22 0 -37 15.5t-15 37.5t15 37t37 15h519q132 0 190 56.5t64 185.5h-315q-167 0 -244.5 77t-65.5 252h1q12 129 106.5 213.5t204.5 84.5q65 0 126 -31t111.5 -91t81 -158.5t30.5 -222.5v-87zM173 646q-1 -117 62 -164.5t214 -47.5h316v41
q0 111 -26.5 197t-71.5 137.5t-100 77.5t-116 26q-109 0 -193.5 -76.5t-84.5 -190.5zM278 1230l79 80l79 -80l-80 -79zM496 1230l79 79l79 -79l-80 -80z" />
    <glyph glyph-name="uni0642.medi" unicode="&#x642;" horiz-adv-x="892" arabic-form="medial" 
d="M130 456q0 61 20.5 121t58.5 111.5t100 83.5t137 32q98 0 171.5 -54t108 -132t36.5 -165v-32q0 -203 -145 -307q72 -5 128 -5h156q22 0 37.5 -15t15.5 -37t-15.5 -37.5t-37.5 -15.5h-156q-170 0 -296 34q-124 -34 -293 -34h-165q-22 0 -37 15.5t-15 37.5t15 37t37 15h165
q43 0 123 4q-146 105 -149 303v40zM165 421q0 -214 284 -282q278 67 278 282v25q0 115 -72.5 201.5t-208.5 86.5q-70 0 -125.5 -25.5t-88.5 -66.5t-50 -88.5t-17 -97.5v-35zM279 1079l79 79l79 -79l-80 -80zM496 1078l80 80l79 -80l-80 -79z" />
    <glyph glyph-name="uni0642.fina" unicode="&#x642;" horiz-adv-x="1273" arabic-form="final" 
d="M1091 109h191q22 0 37 -15t15 -37t-15 -37.5t-37 -15.5h-191v-62q0 -105 -15 -183t-53.5 -146.5t-104 -111.5t-169 -67.5t-244.5 -24.5q-113 0 -201 41.5t-142 114.5t-83 165.5t-32 201.5h-1v14q0 10 1 15q5 149 57.5 285t135.5 219l25 -24q-82 -80 -132.5 -214
t-52.5 -280q2 -94 26 -170.5t73 -136.5t132 -93t194 -33q117 0 204.5 11.5t148 37.5t100 59.5t61 84.5t30 105.5t8.5 129.5v62h-53v5h-263q-168 0 -247 81t-64 266h2q8 88 57 159.5t116 108t136 36.5q50 0 97.5 -17.5t92 -56.5t79 -95t56 -138.5t24.5 -181.5h1v-62zM463 318
q-1 -118 62.5 -166.5t215.5 -48.5h263v6h53v33q0 117 -27.5 206t-73.5 140.5t-100.5 77t-114.5 25.5q-106 0 -191.5 -77t-85.5 -190v-6h-1zM628 927l80 80l78 -80l-79 -79zM846 927l80 79l78 -79l-79 -80z" />
    <glyph glyph-name="uni0643.init" unicode="&#x643;" horiz-adv-x="1259" arabic-form="initial" 
d="M1192 1472v-61l-1088 -489l453 -231q328 -171 334 -370v-5v-5q-3 -148 -95 -227.5t-270 -79.5h-535q-22 0 -37 15.5t-15 37.5t15 37t37 15h535q328 0 331 207q0 20 -4 37.5t-22.5 49.5t-50 63.5t-93 75t-146.5 87.5l-488 249v82z" />
    <glyph glyph-name="uni0643.medi" unicode="&#x643;" horiz-adv-x="1210" arabic-form="medial" 
d="M733 259q5 43 -10 98q-16 66 -84.5 137t-185.5 130l-410 204v88l1096 473v-60l-1050 -453l380 -190q102 -51 173.5 -121.5t101.5 -147.5q86 -170 181 -239t205 -69h90q22 0 37 -15t15 -37t-15 -37.5t-37 -15.5h-90q-93 0 -180.5 60.5t-178.5 217.5q0 -9 -2 -31h-1
q-9 -115 -98.5 -181t-210.5 -66h-468q-22 0 -37 15.5t-15 37.5t15 37t37 15h468q112 0 189 42.5t86 107.5h-1z" />
    <glyph glyph-name="uni0643.fina" unicode="&#x643;" horiz-adv-x="1803" arabic-form="final" 
d="M85 671h35v-242q0 -92 13 -147.5t52.5 -97.5t111.5 -58.5t190 -16.5h705q128 0 199.5 64t71.5 170v141q-1 15 -1 45h1v864h34v-906q8 -187 84 -282.5t231 -95.5q22 0 37 -15t15 -37t-15 -37.5t-37 -15.5q-119 0 -200.5 72t-118.5 204q-18 -124 -98.5 -200t-202.5 -76
h-705q-119 0 -198.5 26.5t-124 83t-62 131t-17.5 184.5v242zM644 714v72l318 113v-45l-284 -101l212 -48q115 -25 118 -106q2 -42 -30 -71t-90 -33l-234 -17v45l232 18q50 4 75 19.5t24 36.5q-3 41 -100 63z" />
    <glyph glyph-name="uni0644.init" unicode="&#x644;" horiz-adv-x="433" arabic-form="initial" 
d="M-9 4q-22 0 -37 15.5t-15 37.5t15 37t37 15h23q141 0 198.5 64t57.5 215v981h34v-981q0 -384 -290 -384h-23z" />
    <glyph glyph-name="uni0644.medi" unicode="&#x644;" horiz-adv-x="611" arabic-form="medial" 
d="M-9 4q-22 0 -37 15.5t-15 37.5t15 37t37 15h30q157 1 218.5 71t61.5 228v961h35v-950q0 -96 20.5 -160.5t59.5 -95.5t81.5 -42.5t101.5 -11.5h21q22 0 37.5 -15t15.5 -37t-15.5 -37.5t-37.5 -15.5h-21q-225 0 -280 238q-56 -237 -298 -238h-30z" />
    <glyph glyph-name="uni0644.fina" unicode="&#x644;" horiz-adv-x="1293" arabic-form="final" 
d="M303 638q-82 -80 -131.5 -213t-51.5 -281q2 -95 25.5 -171.5t72 -137t131.5 -94t194 -33.5q71 0 133 11t123 41t104 77t69.5 124t26.5 178v1254h35v-1086q0 -40 9.5 -71.5t23 -52t35.5 -35.5t41.5 -22t48.5 -11t47.5 -5t46.5 -1h17q22 0 37 -15t15 -37t-15 -37.5
t-37 -15.5h-17q-37 0 -64.5 3.5t-66 14.5t-70 38.5t-51.5 70.5q-1 -124 -32 -219.5t-79.5 -152.5t-115.5 -93t-130.5 -49t-133.5 -13q-113 0 -200.5 42t-141.5 115t-83 166t-32 202h-1v15q0 10 1 15q5 149 57.5 286t135.5 218z" />
    <glyph glyph-name="uni0645.init" unicode="&#x645;" horiz-adv-x="1088" arabic-form="initial" 
d="M1004 333v-2v-4q0 -173 -91.5 -283.5t-265.5 -110.5q-136 0 -234.5 81t-119.5 219q-36 -107 -112 -168t-174 -61h-16q-22 0 -37 15.5t-15 37.5t15 37t37 15h16q111 0 181.5 57.5t88.5 146.5l16 79q22 138 124 223.5t230 85.5q144 0 249.5 -107t107.5 -261zM323 301
q0 -117 88 -190t236 -73q168 0 245 78t77 211v4q-2 125 -94 213t-228 88q-114 0 -202.5 -64t-113.5 -170l1 -1l-7 -32q-2 -12 -2 -38v-26z" />
    <glyph glyph-name="uni0645.medi" unicode="&#x645;" horiz-adv-x="1290" arabic-form="medial" 
d="M961 396q-24 102 -110.5 169t-203.5 67q-114 0 -202.5 -64t-113.5 -170l1 -1l-7 -32q-2 -12 -2 -38v-26q0 -117 88 -190t236 -73q168 0 245 78t77 211v4q0 13 -1 20zM-61 57q0 22 15 37t37 15h16q111 0 181.5 57.5t88.5 146.5l16 79q22 138 124 223.5t230 85.5
q137 0 240 -97.5t115 -241.5l11 -62q15 -86 87.5 -138.5t181.5 -52.5h17q22 0 37.5 -15t15.5 -37t-15.5 -37.5t-37.5 -15.5h-17q-94 0 -173 55t-114 165q-25 -132 -113.5 -211.5t-234.5 -79.5q-136 0 -234.5 81t-119.5 219q-36 -107 -112 -168t-174 -61h-16q-22 0 -37 15.5
t-15 37.5z" />
    <glyph glyph-name="uni0645.fina" unicode="&#x645;" horiz-adv-x="1418" arabic-form="final" 
d="M1178 342v-1v-3q0 -11 -2 -33q13 -98 74.5 -147t147.5 -49h28q22 0 37.5 -15t15.5 -37t-15.5 -37.5t-37.5 -15.5h-28q-77 0 -143.5 52.5t-96.5 156.5q-35 -111 -124 -179t-210 -68t-209 43t-176 146l-55 -16q-83 -19 -137.5 -52t-81 -80.5t-36 -94.5t-9.5 -111v-437h-35
v437q0 380 306 441l51 14q15 27 34 104t35 113q37 79 93 132t117 72.5t126 18t123.5 -30.5t105 -73t74 -109.5t28.5 -140.5zM470 216q67 -74 151.5 -109.5t202.5 -35.5q135 0 218.5 65.5t98.5 167.5l-1 5h1q3 17 3 32q-1 72 -35.5 133t-88 98.5t-121.5 52t-133.5 2.5
t-126 -59t-97.5 -125q-13 -29 -35 -111.5t-37 -115.5z" />
    <glyph glyph-name="uni0646.init" unicode="&#x646;" horiz-adv-x="466" arabic-form="initial" 
d="M-9 4q-22 0 -37 15.5t-15 37.5t15 37t37 15h102q143 0 198.5 51t55.5 182v377h35v-377q0 -178 -71 -258t-218 -80h-102zM136 1125l79 79l79 -79l-79 -80z" />
    <glyph glyph-name="uni0646.medi" unicode="&#x646;" horiz-adv-x="619" arabic-form="medial" 
d="M-9 4q-22 0 -37 15.5t-15 37.5t15 37t37 15h22q93 0 149 22.5t93.5 85.5t52 168t16.5 279h35q-1 -157 -17 -278q0 -157 68 -217t218 -60q22 0 37.5 -15t15.5 -37t-15.5 -37.5t-37.5 -15.5q-129 0 -207.5 58t-102.5 196q-36 -137 -110 -195.5t-195 -58.5h-22zM260 1006
l79 79l79 -79l-80 -79z" />
    <glyph glyph-name="uni0646.fina" unicode="&#x646;" horiz-adv-x="1259" arabic-form="final" 
d="M303 635q-82 -80 -131.5 -213t-51.5 -281q2 -95 25.5 -171t72 -136t131.5 -93t194 -33q71 0 133 11t123 41t104 77t69.5 124t26.5 178v553h35v-412q0 -51 22 -87t56.5 -53t65 -24t59.5 -7h31q22 0 37.5 -15t15.5 -37t-15.5 -37.5t-37.5 -15.5h-31q-20 0 -43.5 5t-53.5 17
t-58.5 37.5t-47.5 60.5q-2 -122 -33.5 -216.5t-79.5 -150.5t-114.5 -91.5t-130 -48.5t-133.5 -13q-113 0 -200.5 41.5t-141.5 114t-83 165t-32 201.5h-1v15q0 10 1 15q5 149 57.5 285t135.5 218zM583 936l80 80l78 -80l-79 -79z" />
    <glyph glyph-name="uni0647.init" unicode="&#x647;" horiz-adv-x="1191" arabic-form="initial" 
d="M-9 4q-22 0 -37 15.5t-15 37.5t15 37t37 15h49q7 0 66 -1t107 0t94 4q-145 98 -145 308q0 86 39.5 150.5t99 95.5t129 32.5t130 -26.5t101.5 -93.5t44 -157.5q6 -201 -133 -304q92 -7 197 -7q148 0 226.5 57t76.5 161v40q-11 218 -233.5 338.5t-634.5 120.5v69
q434 0 668.5 -143t234.5 -408v-16q4 -157 -89.5 -240.5t-248.5 -83.5q-231 0 -323 29q-48 -15 -113.5 -22.5t-104 -8.5t-112 0t-76.5 1h-49zM192 420q0 -127 71.5 -197.5t187.5 -88.5l10 2.5l10 2.5q113 45 160.5 110.5t44.5 169.5q-2 61 -29.5 107.5t-70.5 69.5t-94 32.5
t-102 -2.5t-93.5 -36.5t-68.5 -69t-26 -100.5z" />
    <glyph glyph-name="uni0647.medi" unicode="&#x647;" horiz-adv-x="860" arabic-form="medial" 
d="M169 164l-1 -55h9v1l158 -1q84 0 145.5 13.5t97 36t56.5 57.5t27.5 70t6.5 82q-2 123 -65 211t-165 88q-74 0 -128 -41.5t-84 -114.5t-43.5 -159t-13.5 -187v-1zM-79 57q0 22 15 37t37 15h161v55v1q0 87 10 169.5t33.5 160.5t58 136.5t86.5 94t116 35.5
q105 0 182.5 -114.5t82.5 -264.5q4 -180 -77 -273h261q22 0 37.5 -15t15.5 -37t-15.5 -37.5t-37.5 -15.5h-233q41 -129 38 -255q-4 -149 -103 -218q-85 -59 -193 -29q-115 32 -185 148q-45 76 -59 176q-15 96 -18 178h-161q-22 0 -37 15.5t-15 37.5zM170 4q3 -69 17 -163
q21 -144 134 -214q93 -57 192 -38q95 18 130 95q14 31 15 68q3 143 -79 314q-87 -62 -244 -62l-101 1v-1h-64zM617 98l1 -2v4v-1z" />
    <glyph glyph-name="uni0647.fina" unicode="&#x647;" horiz-adv-x="1138" arabic-form="final" 
d="M836 453q0 91 -102.5 174t-253.5 83q-184 0 -271 -86t-89 -228q2 -113 97.5 -183t260.5 -70q358 0 358 267v43zM85 391v4v4q1 81 25 149.5t70.5 123t123 85t176.5 30.5q117 0 212.5 -58.5t143.5 -146.5v233h35v-427q0 -151 57.5 -215t197.5 -64h22q22 0 37 -15t15 -37
t-15 -37.5t-37 -15.5h-22q-235 0 -279 250q-75 -216 -369 -216q-171 0 -280.5 95.5t-112.5 257.5z" />
    <glyph glyph-name="uni0648.fina" unicode="&#x648;" horiz-adv-x="879" arabic-form="final" 
d="M88 -483v82h169q479 0 492 405h-236q-69 0 -121.5 6.5t-104 26t-85.5 52t-56 88t-24 130.5v9v8q4 98 38.5 180.5t105.5 137t166 54.5q160 0 255.5 -127.5t95.5 -349.5v-110h106q22 0 37 -15t15 -37t-15 -37.5t-37 -15.5h-106q-2 -86 -21 -157t-49 -120.5t-72 -87.5
t-86.5 -60.5t-98 -37t-100.5 -19.5t-99 -5h-169zM156 317q2 -62 27 -104t74.5 -64t110 -31t145.5 -9h236v110q0 194 -82.5 296.5t-234.5 102.5q-133 0 -203.5 -86.5t-72.5 -214.5z" />
    <glyph glyph-name="uni0649.fina" unicode="&#x649;" horiz-adv-x="1458" arabic-form="final" 
d="M864 269q185 -97 308 -128.5t294 -31.5q22 0 37.5 -15t15.5 -37t-15.5 -37.5t-37.5 -15.5q-142 0 -243 21q-3 -532 -527 -532q-124 0 -221.5 25t-164 66.5t-112.5 107t-70 136.5t-34 164.5t-9 181t11 196.5h36q-10 -108 -12 -189t6 -166.5t31 -146.5t65.5 -117t106 -90
t155.5 -54t212 -20q242 0 367 104t126 342q-137 37 -341 144z" />
    <glyph glyph-name="uni064A.init" unicode="&#x64a;" horiz-adv-x="489" arabic-form="initial" 
d="M-9 4q-22 0 -37 15.5t-15 37.5t15 37t37 15h102q143 0 198.5 51t55.5 182v377h35v-377q0 -178 -71 -258t-218 -80h-102zM51 -235l78 78l78 -78l-78 -79zM266 -236l78 78l78 -78l-79 -79z" />
    <glyph glyph-name="uni064A.medi" unicode="&#x64a;" horiz-adv-x="619" arabic-form="medial" 
d="M-9 4q-22 0 -37 15.5t-15 37.5t15 37t37 15h22q93 0 149 22.5t93.5 85.5t52 168t16.5 279h35q-1 -157 -17 -278q0 -157 68 -217t218 -60q22 0 37.5 -15t15.5 -37t-15.5 -37.5t-37.5 -15.5q-129 0 -207.5 58t-102.5 196q-36 -137 -110 -195.5t-195 -58.5h-22zM120 -238
l79 79l79 -79l-80 -80zM338 -239l79 79l79 -79l-80 -80z" />
    <glyph glyph-name="uni064A.fina" unicode="&#x64a;" horiz-adv-x="1458" arabic-form="final" 
d="M864 269q185 -97 308 -128.5t294 -31.5q22 0 37.5 -15t15.5 -37t-15.5 -37.5t-37.5 -15.5q-142 0 -243 21q-3 -532 -527 -532q-124 0 -221.5 25t-164 66.5t-112.5 107t-70 136.5t-34 164.5t-9 181t11 196.5h36q-10 -108 -12 -189t6 -166.5t31 -146.5t65.5 -117t106 -90
t155.5 -54t212 -20q242 0 367 104t126 342q-137 37 -341 144zM503 -721l79 80l79 -80l-79 -79zM721 -722l79 80l79 -80l-79 -79z" />
    <glyph glyph-name="uni066E.init" unicode="&#x66e;" horiz-adv-x="466" 
d="M-9 4q-22 0 -37 15.5t-15 37.5t15 37t37 15h102q143 0 198.5 51t55.5 182v377h35v-377q0 -178 -71 -258t-218 -80h-102z" />
    <glyph glyph-name="uni066E.medi" unicode="&#x66e;" horiz-adv-x="619" 
d="M-9 4q-22 0 -37 15.5t-15 37.5t15 37t37 15h22q93 0 149 22.5t93.5 85.5t52 168t16.5 279h35q-1 -157 -17 -278q0 -157 68 -217t218 -60q22 0 37.5 -15t15.5 -37t-15.5 -37.5t-37.5 -15.5q-129 0 -207.5 58t-102.5 196q-36 -137 -110 -195.5t-195 -58.5h-22z" />
    <glyph glyph-name="uni066E.fina" unicode="&#x66e;" horiz-adv-x="1755" 
d="M210 717q-87 -155 -90 -324q1 -61 16 -107.5t44.5 -77.5t65 -51t87 -30t101 -14t116.5 -4h645q123 0 193.5 61t74.5 162q-1 9 -1 28h1v413h34v-431v-7q7 -117 77.5 -172.5t190.5 -53.5q22 0 37 -15t15 -37t-15 -37.5t-37 -15.5q-103 -2 -179 52.5t-106 163.5
q-31 -99 -106 -157.5t-179 -58.5h-645q-67 0 -118 5t-107 18t-95.5 39.5t-73 67t-51.5 103.5t-20 146v9v11q6 178 95 332z" />
    <glyph glyph-name="uni066F.fina" unicode="&#x66f;" horiz-adv-x="1273" 
d="M1091 109h191q22 0 37 -15t15 -37t-15 -37.5t-37 -15.5h-191v-62q0 -105 -15 -183t-53.5 -146.5t-104 -111.5t-169 -67.5t-244.5 -24.5q-113 0 -201 41.5t-142 114.5t-83 165.5t-32 201.5h-1v14q0 10 1 15q5 149 57.5 285t135.5 219l25 -24q-82 -80 -132.5 -214
t-52.5 -280q2 -94 26 -170.5t73 -136.5t132 -93t194 -33q117 0 204.5 11.5t148 37.5t100 59.5t61 84.5t30 105.5t8.5 129.5v62h-53v5h-263q-168 0 -247 81t-64 266h2q8 88 57 159.5t116 108t136 36.5q50 0 97.5 -17.5t92 -56.5t79 -95t56 -138.5t24.5 -181.5h1v-62zM463 318
q-1 -118 62.5 -166.5t215.5 -48.5h263v6h53v33q0 117 -27.5 206t-73.5 140.5t-100.5 77t-114.5 25.5q-106 0 -191.5 -77t-85.5 -190v-6h-1z" />
    <glyph glyph-name="uni0671.fina" unicode="&#x671;" horiz-adv-x="507" arabic-form="final" 
d="M516 109q22 0 37.5 -15t15.5 -37t-15.5 -37.5t-37.5 -15.5h-47q-160 0 -242 105t-82 337v923h34v-923q0 -187 66.5 -262t223.5 -75h47zM-93 1475v66h11q49 0 75 26.5t26 67.5v94h23v-94q0 -22 -5 -47q1 -2 3 -4q91 100 193.5 135.5t168 4.5t65.5 -106v-5
q0 -63 -30 -100.5t-92 -37.5h-67q-103 0 -160 13.5t-98 54.5q-35 -68 -102 -68h-11zM68 1568q63 -27 210 -27h67q58 0 78.5 17.5t20.5 54.5v5q0 52 -56.5 73t-147.5 -9.5t-172 -113.5z" />
    <glyph glyph-name="uni0679.init" unicode="&#x679;" horiz-adv-x="466" arabic-form="initial" 
d="M-9 4q-22 0 -37 15.5t-15 37.5t15 37t37 15h102q143 0 198.5 51t55.5 182v377h35v-377q0 -178 -71 -258t-218 -80h-102zM-2 941v32h70v394h11v-373q63 124 165 162q81 31 139 -9q48 -33 48 -100v-3q0 -46 -28.5 -74.5t-87.5 -28.5h-317zM82 973h233q105 0 105 71v3
q0 70 -60 95q-65 28 -144 -16q-84 -46 -134 -153z" />
    <glyph glyph-name="uni0679.medi" unicode="&#x679;" horiz-adv-x="619" arabic-form="medial" 
d="M-9 4q-22 0 -37 15.5t-15 37.5t15 37t37 15h22q93 0 149 22.5t93.5 85.5t52 168t16.5 279h35q-1 -157 -17 -278q0 -157 68 -217t218 -60q22 0 37.5 -15t15.5 -37t-15.5 -37.5t-37.5 -15.5q-129 0 -207.5 58t-102.5 196q-36 -137 -110 -195.5t-195 -58.5h-22zM104 822v32
h70v394h11v-373q63 124 165 162q81 31 139 -9q47 -34 48 -100v-3q0 -46 -28 -74.5t-87 -28.5h-318zM188 854h234q105 0 105 71v3q0 69 -60 95q-65 28 -144 -15q-84 -46 -135 -154z" />
    <glyph glyph-name="uni0679.fina" unicode="&#x679;" horiz-adv-x="1755" arabic-form="final" 
d="M210 717q-87 -155 -90 -324q1 -61 16 -107.5t44.5 -77.5t65 -51t87 -30t101 -14t116.5 -4h645q123 0 193.5 61t74.5 162q-1 9 -1 28h1v413h34v-431v-7q7 -117 77.5 -172.5t190.5 -53.5q22 0 37 -15t15 -37t-15 -37.5t-37 -15.5q-103 -2 -179 52.5t-106 163.5
q-31 -99 -106 -157.5t-179 -58.5h-645q-67 0 -118 5t-107 18t-95.5 39.5t-73 67t-51.5 103.5t-20 146v9v11q6 178 95 332zM574 827v32h71v394h10v-373q63 124 164 162q83 31 141 -9q48 -33 48 -100v-3q0 -46 -28.5 -74.5t-87.5 -28.5h-318zM659 859h233q105 0 105 71v3
q0 70 -60 95q-65 28 -144 -16q-84 -47 -134 -153z" />
    <glyph glyph-name="uni067E.init" unicode="&#x67e;" horiz-adv-x="466" arabic-form="initial" 
d="M-9 4q-22 0 -37 15.5t-15 37.5t15 37t37 15h102q143 0 198.5 51t55.5 182v377h35v-377q0 -178 -71 -258t-218 -80h-102zM26 -225l80 79l78 -79l-79 -80zM135 -402l80 79l78 -79l-79 -80zM244 -226l80 79l78 -79l-79 -80z" />
    <glyph glyph-name="uni067E.medi" unicode="&#x67e;" horiz-adv-x="619" arabic-form="medial" 
d="M-9 4q-22 0 -37 15.5t-15 37.5t15 37t37 15h22q93 0 149 22.5t93.5 85.5t52 168t16.5 279h35q-1 -157 -17 -278q0 -157 68 -217t218 -60q22 0 37.5 -15t15.5 -37t-15.5 -37.5t-37.5 -15.5q-129 0 -207.5 58t-102.5 196q-36 -137 -110 -195.5t-195 -58.5h-22zM101 -225
l79 79l79 -79l-80 -80zM210 -402l79 79l79 -79l-80 -80zM319 -226l79 79l79 -79l-80 -80z" />
    <glyph glyph-name="uni067E.fina" unicode="&#x67e;" horiz-adv-x="1755" arabic-form="final" 
d="M210 717q-87 -155 -90 -324q1 -61 16 -107.5t44.5 -77.5t65 -51t87 -30t101 -14t116.5 -4h645q123 0 193.5 61t74.5 162q-1 9 -1 28h1v413h34v-431v-7q7 -117 77.5 -172.5t190.5 -53.5q22 0 37 -15t15 -37t-15 -37.5t-37 -15.5q-103 -2 -179 52.5t-106 163.5
q-31 -99 -106 -157.5t-179 -58.5h-645q-67 0 -118 5t-107 18t-95.5 39.5t-73 67t-51.5 103.5t-20 146v9v11q6 178 95 332zM608 -225l79 79l79 -79l-80 -80zM717 -402l79 79l79 -79l-80 -80zM826 -226l79 79l79 -79l-80 -80z" />
    <glyph glyph-name="uni0686.init" unicode="&#x686;" horiz-adv-x="1269" arabic-form="initial" 
d="M1185 384q-141 -98 -278.5 -170.5t-243.5 -111.5t-213 -62t-178.5 -29.5t-149.5 -6.5h-131q-22 0 -37 15.5t-15 37.5t15 37t37 15h131q509 0 998 319q-122 29 -217 72.5t-262 140.5q-78 45 -149 60.5t-132.5 2t-110.5 -38t-102 -65.5v61q58 43 108 67t112.5 35t134 -7
t152.5 -65q171 -99 273 -141.5t258 -76.5v-89zM374 -179l79 80l79 -80l-80 -79zM483 -356l79 80l79 -80l-80 -79zM591 -179l80 79l79 -79l-80 -80z" />
    <glyph glyph-name="uni0686.medi" unicode="&#x686;" horiz-adv-x="1422" arabic-form="medial" 
d="M1185 384q-121 -82 -217 -137q143 -138 441 -138h22q22 0 37.5 -15t15.5 -37t-15.5 -37.5t-37.5 -15.5h-22q-166 0 -278.5 44.5t-212.5 170.5q-402 -215 -796 -215h-131q-22 0 -37 15.5t-15 37.5t15 37t37 15h131q509 0 998 319q-122 29 -217 72.5t-262 140.5
q-78 45 -149 60.5t-132.5 2t-110.5 -38t-102 -65.5v61q58 43 108 67t112.5 35t134 -7t152.5 -65q171 -99 273 -141.5t258 -76.5v-89zM460 -170l80 79l78 -79l-79 -80zM569 -347l80 79l78 -79l-79 -80zM678 -171l80 79l78 -79l-79 -80z" />
    <glyph glyph-name="uni0686.fina" unicode="&#x686;" horiz-adv-x="1452" arabic-form="final" 
d="M1241 465v-103l-227 -52q130 -201 398 -201h49q22 0 37 -15t15 -37t-15 -37.5t-37 -15.5h-49q-145 0 -254 68.5t-191 227.5l-47 -11q-217 -49 -374 -115.5t-250.5 -146t-136 -168t-39.5 -191.5q5 -76 39.5 -140.5t106.5 -120.5t184 -87t270 -39.5t366 22.5v-71
q-212 -31 -375 -20t-279.5 47.5t-192 101t-112.5 140.5t-42 166q-8 259 196 443t631 281l196 44q-70 25 -141.5 70t-160 109.5t-149.5 101.5q-70 43 -134.5 59t-130.5 5.5t-126.5 -35.5t-141.5 -71v74q86 48 146 72.5t127.5 34t134 -9.5t143.5 -67q57 -35 140.5 -95
t135.5 -95t130.5 -67.5t159.5 -40.5l-1 -15h1zM692 -167l76 75l74 -75l-75 -75zM795 -335l76 75l75 -75l-75 -75zM899 -168l76 75l74 -75l-75 -75z" />
    <glyph glyph-name="uni0688.fina" unicode="&#x688;" horiz-adv-x="1049" arabic-form="final" 
d="M796 351q-1 -73 -19 -135q68 -107 267 -107h14q22 0 37.5 -15t15.5 -37t-15.5 -37.5t-37.5 -15.5h-14q-96 0 -169 33.5t-122 119.5q-82 -153 -322 -153h-387v105h387q173 0 251 59t80 183v6q0 355 -538 296v70q572 62 572 -366v-6zM164 886v32h70v394h11v-373
q63 124 165 162q81 31 139 -9q47 -34 48 -100v-3q0 -46 -28 -74.5t-87 -28.5h-318zM248 918h234q105 0 105 71v3q0 69 -60 95q-65 28 -144 -15q-84 -46 -135 -154z" />
    <glyph glyph-name="uni0691.fina" unicode="&#x691;" horiz-adv-x="741" arabic-form="final" 
d="M0 -428q74 0 132 7.5t102.5 25t77 39.5t55 58t36.5 73.5t21.5 92.5t10 108.5t2.5 127.5v588h35v-304q0 -151 57.5 -215t197.5 -64h23q22 0 37.5 -15t15.5 -37t-15.5 -37.5t-37.5 -15.5h-23q-190 0 -255 165v-65q0 -90 -4.5 -157.5t-16.5 -136.5t-33.5 -118t-57 -92.5
t-85 -70t-118.5 -42t-157 -15.5v100zM336 827v32h70v394h11v-373q63 124 165 162q81 31 139 -9q47 -34 48 -100v-3q0 -46 -28 -74.5t-87 -28.5h-318zM420 859h234q105 0 105 71v3q0 69 -60 95q-65 28 -144 -15q-84 -46 -135 -154z" />
    <glyph glyph-name="uni0698.fina" unicode="&#x698;" horiz-adv-x="741" arabic-form="final" 
d="M0 -428q74 0 132 7.5t102.5 25t77 39.5t55 58t36.5 73.5t21.5 92.5t10 108.5t2.5 127.5v588h35v-304q0 -151 57.5 -215t197.5 -64h23q22 0 37.5 -15t15.5 -37t-15.5 -37.5t-37.5 -15.5h-23q-190 0 -255 165v-65q0 -90 -4.5 -157.5t-16.5 -136.5t-33.5 -118t-57 -92.5
t-85 -70t-118.5 -42t-157 -15.5v100zM402 974l80 79l78 -79l-79 -79zM511 1150l80 80l78 -80l-79 -79zM620 973l80 80l79 -80l-80 -79z" />
    <glyph glyph-name="uni06A1.init" unicode="&#x6a1;" horiz-adv-x="884" 
d="M800 388q0 -384 -290 -384h-519q-22 0 -37 15.5t-15 37.5t15 37t37 15h519q132 0 190 56.5t64 185.5h-315q-167 0 -244.5 77t-65.5 252h1q12 129 106.5 213.5t204.5 84.5q65 0 126 -31t111.5 -91t81 -158.5t30.5 -222.5v-87zM173 646q-1 -117 62 -164.5t214 -47.5h316v41
q0 111 -26.5 197t-71.5 137.5t-100 77.5t-116 26q-109 0 -193.5 -76.5t-84.5 -190.5z" />
    <glyph glyph-name="uni06A1.medi" unicode="&#x6a1;" horiz-adv-x="892" 
d="M130 456q0 61 20.5 121t58.5 111.5t100 83.5t137 32q98 0 171.5 -54t108 -132t36.5 -165v-32q0 -203 -145 -307q72 -5 128 -5h156q22 0 37.5 -15t15.5 -37t-15.5 -37.5t-37.5 -15.5h-156q-170 0 -296 34q-124 -34 -293 -34h-165q-22 0 -37 15.5t-15 37.5t15 37t37 15h165
q43 0 123 4q-146 105 -149 303v40zM165 421q0 -214 284 -282q278 67 278 282v25q0 115 -72.5 201.5t-208.5 86.5q-70 0 -125.5 -25.5t-88.5 -66.5t-50 -88.5t-17 -97.5v-35z" />
    <glyph glyph-name="uni06A1.fina" unicode="&#x6a1;" horiz-adv-x="1997" 
d="M210 717q-87 -155 -90 -324q1 -61 16 -107.5t44.5 -77.5t65 -51t87 -30t101 -14t116.5 -4h712q75 0 138 7q-161 110 -164 300v40q0 66 20.5 130t58.5 116.5t100 84.5t137 32q98 0 171 -54.5t107.5 -136t36.5 -175.5v-32q0 -195 -160 -304q63 -8 143 -8h156q22 0 37.5 -15
t15.5 -37t-15.5 -37.5t-37.5 -15.5h-156q-165 0 -296 41q-129 -41 -292 -41h-712q-67 0 -118 5t-107 18t-95.5 39.5t-73 67t-51.5 103.5t-20 146v9v11q6 178 95 332zM1271 421q0 -100 77 -169t207 -106q128 37 203 106t75 169v25q0 80 -28.5 147t-94 112t-158.5 45
t-158.5 -44.5t-94 -109.5t-28.5 -140v-35z" />
    <glyph glyph-name="uni06A4.init" unicode="&#x6a4;" horiz-adv-x="884" arabic-form="initial" 
d="M800 388q0 -384 -290 -384h-519q-22 0 -37 15.5t-15 37.5t15 37t37 15h519q132 0 190 56.5t64 185.5h-315q-167 0 -244.5 77t-65.5 252h1q12 129 106.5 213.5t204.5 84.5q65 0 126 -31t111.5 -91t81 -158.5t30.5 -222.5v-87zM173 646q-1 -117 62 -164.5t214 -47.5h316v41
q0 111 -26.5 197t-71.5 137.5t-100 77.5t-116 26q-109 0 -193.5 -76.5t-84.5 -190.5zM283 1248l79 79l79 -79l-80 -80zM392 1424l79 79l79 -79l-80 -80zM501 1247l79 79l79 -79l-80 -80z" />
    <glyph glyph-name="uni06A4.medi" unicode="&#x6a4;" horiz-adv-x="892" arabic-form="medial" 
d="M130 456q0 61 20.5 121t58.5 111.5t100 83.5t137 32q98 0 171.5 -54t108 -132t36.5 -165v-32q0 -203 -145 -307q72 -5 128 -5h156q22 0 37.5 -15t15.5 -37t-15.5 -37.5t-37.5 -15.5h-156q-170 0 -296 34q-124 -34 -293 -34h-165q-22 0 -37 15.5t-15 37.5t15 37t37 15h165
q43 0 123 4q-146 105 -149 303v40zM165 421q0 -214 284 -282q278 67 278 282v25q0 115 -72.5 201.5t-208.5 86.5q-70 0 -125.5 -25.5t-88.5 -66.5t-50 -88.5t-17 -97.5v-35zM283 1096l80 80l79 -80l-80 -79zM392 1272l80 80l79 -80l-80 -79zM501 1095l80 80l79 -80l-80 -79z
" />
    <glyph glyph-name="uni06A4.fina" unicode="&#x6a4;" horiz-adv-x="1997" arabic-form="final" 
d="M210 717q-87 -155 -90 -324q1 -61 16 -107.5t44.5 -77.5t65 -51t87 -30t101 -14t116.5 -4h712q75 0 138 7q-161 110 -164 300v40q0 66 20.5 130t58.5 116.5t100 84.5t137 32q98 0 171 -54.5t107.5 -136t36.5 -175.5v-32q0 -195 -160 -304q63 -8 143 -8h156q22 0 37.5 -15
t15.5 -37t-15.5 -37.5t-37.5 -15.5h-156q-165 0 -296 41q-129 -41 -292 -41h-712q-67 0 -118 5t-107 18t-95.5 39.5t-73 67t-51.5 103.5t-20 146v9v11q6 178 95 332zM1271 421q0 -100 77 -169t207 -106q128 37 203 106t75 169v25q0 80 -28.5 147t-94 112t-158.5 45
t-158.5 -44.5t-94 -109.5t-28.5 -140v-35zM1385 1097l80 79l78 -79l-79 -80zM1494 1273l80 79l78 -79l-79 -79zM1603 1096l80 80l79 -80l-80 -79z" />
    <glyph glyph-name="uni06A9.init" unicode="&#x6a9;" horiz-adv-x="1259" arabic-form="initial" 
d="M1192 1472v-61l-1088 -489l453 -231q328 -171 334 -370v-5v-5q-3 -148 -95 -227.5t-270 -79.5h-535q-22 0 -37 15.5t-15 37.5t15 37t37 15h535q328 0 331 207q0 20 -4 37.5t-22.5 49.5t-50 63.5t-93 75t-146.5 87.5l-488 249v82z" />
    <glyph glyph-name="uni06A9.medi" unicode="&#x6a9;" horiz-adv-x="1210" arabic-form="medial" 
d="M733 259q5 43 -10 98q-16 66 -84.5 137t-185.5 130l-410 204v88l1096 473v-60l-1050 -453l380 -190q102 -51 173.5 -121.5t101.5 -147.5q86 -170 181 -239t205 -69h90q22 0 37 -15t15 -37t-15 -37.5t-37 -15.5h-90q-93 0 -180.5 60.5t-178.5 217.5q0 -9 -2 -31h-1
q-9 -115 -98.5 -181t-210.5 -66h-468q-22 0 -37 15.5t-15 37.5t15 37t37 15h468q112 0 189 42.5t86 107.5h-1z" />
    <glyph glyph-name="uni06A9.fina" unicode="&#x6a9;" horiz-adv-x="1997" arabic-form="final" 
d="M85 671h35v-242q0 -92 13 -147.5t52.5 -97.5t111.5 -58.5t190 -16.5h700q328 0 331 207q0 20 -4 37.5t-22.5 49.5t-50 63.5t-93 75t-146.5 87.5l-488 249v82l1139 512v-61l-1088 -489l453 -231q313 -164 333 -346q29 -56 59 -97t61.5 -66.5t58.5 -41t62.5 -22t59.5 -8
t64 -1.5h90q22 0 37.5 -15t15.5 -37t-15.5 -37.5t-37.5 -15.5h-90q-33 0 -51.5 1t-49.5 5.5t-52 14t-50.5 27.5t-54 45t-53.5 67t-58 93q-18 -123 -108.5 -188t-251.5 -65h-700q-119 0 -198.5 26.5t-124 83t-62 131t-17.5 184.5v242z" />
    <glyph glyph-name="uni06AF.init" unicode="&#x6af;" horiz-adv-x="1259" arabic-form="initial" 
d="M1192 1472v-61l-1088 -489l453 -231q328 -171 334 -370v-5v-5q-3 -148 -95 -227.5t-270 -79.5h-535q-22 0 -37 15.5t-15 37.5t15 37t37 15h535q328 0 331 207q0 20 -4 37.5t-22.5 49.5t-50 63.5t-93 75t-146.5 87.5l-488 249v82zM30 1241l811 364l15 -31l-811 -364z" />
    <glyph glyph-name="uni06AF.medi" unicode="&#x6af;" horiz-adv-x="1210" arabic-form="medial" 
d="M733 259q5 43 -10 98q-16 66 -84.5 137t-185.5 130l-410 204v88l1096 473v-60l-1050 -453l380 -190q102 -51 173.5 -121.5t101.5 -147.5q86 -170 181 -239t205 -69h90q22 0 37 -15t15 -37t-15 -37.5t-37 -15.5h-90q-93 0 -180.5 60.5t-178.5 217.5q0 -9 -2 -31h-1
q-9 -115 -98.5 -181t-210.5 -66h-468q-22 0 -37 15.5t-15 37.5t15 37t37 15h468q112 0 189 42.5t86 107.5h-1zM2 1190l811 364l14 -31l-811 -364z" />
    <glyph glyph-name="uni06AF.fina" unicode="&#x6af;" horiz-adv-x="1997" arabic-form="final" 
d="M85 671h35v-242q0 -92 13 -147.5t52.5 -97.5t111.5 -58.5t190 -16.5h700q328 0 331 207q0 20 -4 37.5t-22.5 49.5t-50 63.5t-93 75t-146.5 87.5l-488 249v82l1139 512v-61l-1088 -489l453 -231q313 -164 333 -346q29 -56 59 -97t61.5 -66.5t58.5 -41t62.5 -22t59.5 -8
t64 -1.5h90q22 0 37.5 -15t15.5 -37t-15.5 -37.5t-37.5 -15.5h-90q-33 0 -51.5 1t-49.5 5.5t-52 14t-50.5 27.5t-54 45t-53.5 67t-58 93q-18 -123 -108.5 -188t-251.5 -65h-700q-119 0 -198.5 26.5t-124 83t-62 131t-17.5 184.5v242zM737 1272l811 364l15 -31l-811 -364z
" />
    <glyph glyph-name="uni06BA.fina" unicode="&#x6ba;" horiz-adv-x="1259" arabic-form="final" 
d="M303 635q-82 -80 -131.5 -213t-51.5 -281q2 -95 25.5 -171t72 -136t131.5 -93t194 -33q71 0 133 11t123 41t104 77t69.5 124t26.5 178v553h35v-412q0 -51 22 -87t56.5 -53t65 -24t59.5 -7h31q22 0 37.5 -15t15.5 -37t-15.5 -37.5t-37.5 -15.5h-31q-20 0 -43.5 5t-53.5 17
t-58.5 37.5t-47.5 60.5q-2 -122 -33.5 -216.5t-79.5 -150.5t-114.5 -91.5t-130 -48.5t-133.5 -13q-113 0 -200.5 41.5t-141.5 114t-83 165t-32 201.5h-1v15q0 10 1 15q5 149 57.5 285t135.5 218z" />
    <glyph glyph-name="uni06BE.init" unicode="&#x6be;" horiz-adv-x="1191" arabic-form="initial" 
d="M-9 4q-22 0 -37 15.5t-15 37.5t15 37t37 15h49q7 0 66 -1t107 0t94 4q-145 98 -145 308q0 86 39.5 150.5t99 95.5t129 32.5t130 -26.5t101.5 -93.5t44 -157.5q6 -201 -133 -304q92 -7 197 -7q148 0 226.5 57t76.5 161v40q-11 218 -233.5 338.5t-634.5 120.5v69
q434 0 668.5 -143t234.5 -408v-16q4 -157 -89.5 -240.5t-248.5 -83.5q-231 0 -323 29q-48 -15 -113.5 -22.5t-104 -8.5t-112 0t-76.5 1h-49zM192 420q0 -127 71.5 -197.5t187.5 -88.5l10 2.5l10 2.5q113 45 160.5 110.5t44.5 169.5q-2 61 -29.5 107.5t-70.5 69.5t-94 32.5
t-102 -2.5t-93.5 -36.5t-68.5 -69t-26 -100.5z" />
    <glyph glyph-name="uni06BE.medi" unicode="&#x6be;" horiz-adv-x="1218" arabic-form="medial" 
d="M-9 4q-22 0 -37 15.5t-15 37.5t15 37t37 15h49q7 0 66 -1t107 0t94 4q-145 98 -145 308q0 86 39.5 150.5t99 95.5t129 32.5t130 -26.5t101.5 -93.5t44 -157.5q6 -201 -133 -304q92 -7 197 -7q148 0 226.5 57t76.5 161v40q-11 218 -233.5 338.5t-634.5 120.5v69
q434 0 668.5 -143t234.5 -408v-16q3 -136 -70 -220h191q22 0 37 -15t15 -37t-15 -37.5t-37 -15.5h-462q-7 0 -9 1q-223 0 -311 29q-48 -15 -113.5 -22.5t-104 -8.5t-112 0t-76.5 1h-49zM192 420q0 -127 71.5 -197.5t187.5 -88.5l10 2.5l10 2.5q113 45 160.5 110.5
t44.5 169.5q-2 61 -29.5 107.5t-70.5 69.5t-94 32.5t-102 -2.5t-93.5 -36.5t-68.5 -69t-26 -100.5z" />
    <glyph glyph-name="uni06BE.fina" unicode="&#x6be;" horiz-adv-x="1019" arabic-form="final" 
d="M810 368q-1 76 -34 149t-86 116t-108 37q-243 -25 -243 -566q0 -48 3 -93l111 35q163 51 260.5 132t96.5 190zM84 -69l225 70q-4 68 -4 103q0 88 7 170t25.5 169.5t48 152.5t79 109.5t113.5 51.5q59 7 119.5 -46t101.5 -142.5t45 -184.5h1q8 -137 -79 -248q18 -20 33 -39
v12h230q22 0 37 -15t15 -37t-15 -37.5t-37 -15.5h-174q34 -72 40.5 -149t-12 -139.5t-53.5 -116.5t-84.5 -81.5t-106 -33t-117.5 28.5q-74 38 -125.5 143t-75.5 246l-227 -71zM355 -88q41 -248 183 -322q108 -57 202 -1q81 48 105 151q32 134 -53 268q-28 43 -67 83
q-100 -94 -262 -145z" />
    <glyph glyph-name="uni06C1.init" unicode="&#x6c1;" horiz-adv-x="503" arabic-form="initial" 
d="M-9 4q-22 0 -37 15.5t-15 37.5t15 37t37 15h102q143 0 198.5 51t55.5 182v377h35v-377q0 -143 -45 -222t-138 -104q0 -22 -1 -63q-1 -39 -1 -73t3 -61.5t11 -48.5t23 -35.5t38.5 -22t57.5 -7t81 8.5l7 -82q-77 -14 -129.5 -3.5t-77.5 41t-38 75t-11.5 97.5t1.5 110
q2 38 2 57q-37 -5 -72 -5h-102z" />
    <glyph glyph-name="uni06C1.medi" unicode="&#x6c1;" horiz-adv-x="860" arabic-form="medial" 
d="M169 164l-1 -55h9v1l158 -1q84 0 145.5 13.5t97 36t56.5 57.5t27.5 70t6.5 82q-2 123 -65 211t-165 88q-74 0 -128 -41.5t-84 -114.5t-43.5 -159t-13.5 -187v-1zM-79 57q0 22 15 37t37 15h161v55v1q0 87 10 169.5t33.5 160.5t58 136.5t86.5 94t116 35.5
q105 0 182.5 -114.5t82.5 -264.5q4 -180 -77 -273h261q22 0 37.5 -15t15.5 -37t-15.5 -37.5t-37.5 -15.5h-233q41 -129 38 -255q-4 -149 -103 -218q-85 -59 -193 -29q-115 32 -185 148q-45 76 -59 176q-15 96 -18 178h-161q-22 0 -37 15.5t-15 37.5zM170 4q3 -69 17 -163
q21 -144 134 -214q93 -57 192 -38q95 18 130 95q14 31 15 68q3 143 -79 314q-87 -62 -244 -62l-101 1v-1h-64zM617 98l1 -2v4v-1z" />
    <glyph glyph-name="uni06C1.fina" unicode="&#x6c1;" horiz-adv-x="1181" arabic-form="final" 
d="M124 -35l-27 70l196 217q71 79 139 123.5t126 55t113 1t104 -38.5t94 -64t87.5 -74.5t80.5 -71.5t78 -53t75 -21h41q22 0 37.5 -15t15.5 -37t-15.5 -37.5t-37.5 -15.5h-41q-33 0 -72.5 20.5t-78 52.5t-81.5 71.5t-88 75.5t-93.5 66t-102 42t-109 5.5t-119 -45.5
t-127.5 -110z" />
    <glyph glyph-name="uni06C2.fina" unicode="&#x6c2;" horiz-adv-x="1181" 
d="M124 -35l-27 70l196 217q71 79 139 123.5t126 55t113 1t104 -38.5t94 -64t87.5 -74.5t80.5 -71.5t78 -53t75 -21h41q22 0 37.5 -15t15.5 -37t-15.5 -37.5t-37.5 -15.5h-41q-33 0 -72.5 20.5t-78 52.5t-81.5 71.5t-88 75.5t-93.5 66t-102 42t-109 5.5t-119 -45.5
t-127.5 -110zM425 596v53h107q-32 37 -36.5 88t20.5 92t79.5 60.5t140.5 -8.5v-45q-125 43 -187 -12q-42 -36 -30 -91q13 -56 71 -77q13 -5 26 -7h194v-53h-385z" />
    <glyph glyph-name="uni06C3.fina" unicode="&#x6c3;" horiz-adv-x="1181" 
d="M124 -35l-27 70l196 217q71 79 139 123.5t126 55t113 1t104 -38.5t94 -64t87.5 -74.5t80.5 -71.5t78 -53t75 -21h41q22 0 37.5 -15t15.5 -37t-15.5 -37.5t-37.5 -15.5h-41q-33 0 -72.5 20.5t-78 52.5t-81.5 71.5t-88 75.5t-93.5 66t-102 42t-109 5.5t-119 -45.5
t-127.5 -110zM442 714l80 80l78 -80l-79 -79zM660 714l80 79l78 -79l-79 -80z" />
    <glyph glyph-name="uni06CC.init" unicode="&#x6cc;" horiz-adv-x="489" arabic-form="initial" 
d="M-9 4q-22 0 -37 15.5t-15 37.5t15 37t37 15h102q143 0 198.5 51t55.5 182v377h35v-377q0 -178 -71 -258t-218 -80h-102zM51 -235l78 78l78 -78l-78 -79zM266 -236l78 78l78 -78l-79 -79z" />
    <glyph glyph-name="uni06CC.medi" unicode="&#x6cc;" horiz-adv-x="619" arabic-form="medial" 
d="M-9 4q-22 0 -37 15.5t-15 37.5t15 37t37 15h22q93 0 149 22.5t93.5 85.5t52 168t16.5 279h35q-1 -157 -17 -278q0 -157 68 -217t218 -60q22 0 37.5 -15t15.5 -37t-15.5 -37.5t-37.5 -15.5q-129 0 -207.5 58t-102.5 196q-36 -137 -110 -195.5t-195 -58.5h-22zM120 -238
l79 79l79 -79l-80 -80zM338 -239l79 79l79 -79l-80 -80z" />
    <glyph glyph-name="uni06CC.fina" unicode="&#x6cc;" horiz-adv-x="1458" arabic-form="final" 
d="M864 269q185 -97 308 -128.5t294 -31.5q22 0 37.5 -15t15.5 -37t-15.5 -37.5t-37.5 -15.5q-142 0 -243 21q-3 -532 -527 -532q-124 0 -221.5 25t-164 66.5t-112.5 107t-70 136.5t-34 164.5t-9 181t11 196.5h36q-10 -108 -12 -189t6 -166.5t31 -146.5t65.5 -117t106 -90
t155.5 -54t212 -20q242 0 367 104t126 342q-137 37 -341 144z" />
    <glyph glyph-name="uni06D2.fina" unicode="&#x6d2;" horiz-adv-x="1738" arabic-form="final" 
d="M1701 -566q-141 0 -392 -2q-189 -2 -347 -1t-285.5 6t-226.5 19.5t-170 40.5t-116 68t-66 102l-1 3q0 4 -1 6l1 1q-9 69 -11 132.5t18.5 118.5t59 95t111 63t173.5 23h1299q22 0 37.5 -15t15.5 -37t-15.5 -37.5t-37.5 -15.5h-1299q-158 0 -234 -36t-87.5 -107t6.5 -176
q48 -130 287 -157.5t899 -24.5q245 1 382 1v-70z" />
    <glyph glyph-name="uni06D3.fina" unicode="&#x6d3;" horiz-adv-x="1738" arabic-form="final" 
d="M1701 -566q-141 0 -392 -2q-189 -2 -347 -1t-285.5 6t-226.5 19.5t-170 40.5t-116 68t-66 102l-1 3q0 4 -1 6l1 1q-9 69 -11 132.5t18.5 118.5t59 95t111 63t173.5 23h1299q22 0 37.5 -15t15.5 -37t-15.5 -37.5t-37.5 -15.5h-1299q-158 0 -234 -36t-87.5 -107t6.5 -176
q48 -130 287 -157.5t899 -24.5q245 1 382 1v-70zM700 437v52h108q-32 37 -36.5 88t20.5 92.5t79 61t140 -8.5v-46q-125 43 -187 -12q-42 -36 -30 -91q13 -56 71 -77q13 -5 26 -7h194v-52h-385z" />
    <glyph glyph-name="uniFDFC" unicode="&#xfdfc;" horiz-adv-x="2473" arabic-form="isolated" 
d="M1441 -151l79 -79l-80 -80l-78 80zM85 172v20q0 12 1 19q11 267 173 462l26 -23q-159 -190 -165 -457q5 -219 120.5 -336.5t315.5 -117.5q71 0 133 11t123.5 41t104.5 77t69.5 124t26.5 178v983h408v-691q0 -70 4 -117t15 -85t28 -59.5t47 -36t68 -19.5t94 -5h15
q127 0 191 60.5t64 202.5v402h35v-402q0 -188 -77.5 -278t-212.5 -90h-15q-164 0 -227 92t-63 335v586h-339v-878q0 -126 -31 -223t-79 -155t-115.5 -94.5t-131.5 -49.5t-135 -13q-200 0 -330 141t-140 396h-1zM1579 -231l80 79l79 -79l-80 -79zM1789 -528v100
q84 0 148.5 11t111 30t78.5 54t52 74t30.5 99t14 119.5t3.5 144.5v588h34v-588q0 -90 -4.5 -157.5t-16.5 -136.5t-33.5 -118t-57 -92.5t-85 -70t-118.5 -42t-157 -15.5z" />
    <glyph glyph-name=".notdef" horiz-adv-x="973" 
d="M79 1468h815v-1463h-815v1463zM154 105h664v1263h-664v-1263z" />
    <glyph glyph-name=".null" horiz-adv-x="33" 
 />
    <glyph glyph-name="nonmarkingreturn" horiz-adv-x="682" 
 />
    <glyph glyph-name="space" unicode=" " horiz-adv-x="228" 
 />
    <glyph glyph-name="exclam" unicode="!" horiz-adv-x="325" 
d="M163 -8l79 -80l-80 -79l-78 79zM146 218v972h34v-972h-34z" />
    <glyph glyph-name="quotedbl" unicode="&#x22;" horiz-adv-x="583" 
d="M452 1099h-54v643h54v-643zM130 1099v643h54v-643h-54z" />
    <glyph glyph-name="numbersign" unicode="#" horiz-adv-x="1366" 
d="M332 0h-38l72 324h-282v69h298l114 513h-412v70h427l72 322h38l-72 -322h414l72 322h37l-72 -322h283v-70h-298l-114 -513h412v-69h-428l-72 -324h-38l73 324h-414zM419 393h414l114 513h-414z" />
    <glyph glyph-name="dollar" unicode="$" horiz-adv-x="1067" 
d="M982 433v-1v-2l-1 -29q-8 -199 -117 -293t-313 -103v-166h-34v165q-166 -3 -411 45v103q244 -47 411 -47v580q-117 4 -200 27t-131 63t-71 89t-28 113h-2v22v18h1q5 98 36.5 164t90.5 103.5t130.5 55t173.5 23.5v364h34v-362q25 1 343 1v-69q-310 0 -343 -1v-540h9
q419 -6 422 -323zM120 999q3 -54 21.5 -94t61 -74t121 -52.5t193.5 -21.5v537q-98 -5 -165 -19.5t-120.5 -46.5t-81 -88.5t-30.5 -140.5zM551 106q194 6 295 84.5t102 241.5q-1 122 -94.5 186.5t-302.5 65.5v-578z" />
    <glyph glyph-name="percent" unicode="%" horiz-adv-x="1520" 
d="M460 0h-37l585 1340h37zM85 1094q0 103 66 174t158 71q91 0 157 -71.5t66 -173.5q0 -103 -66 -174.5t-157 -71.5q-92 0 -158 71.5t-66 174.5zM115 1094q0 -72 54.5 -122t139.5 -50q84 0 138.5 50.5t54.5 121.5t-54.5 121.5t-138.5 50.5q-85 0 -139.5 -50t-54.5 -122z
M988 316q0 103 66 174t158 71q91 0 157 -71.5t66 -173.5q0 -103 -66 -174.5t-157 -71.5q-92 0 -158 71.5t-66 174.5zM1017 316q0 -72 55 -122.5t140 -50.5t139.5 50.5t54.5 122.5q0 71 -54.5 121t-139.5 50t-140 -50t-55 -121z" />
    <glyph glyph-name="ampersand" unicode="&#x26;" horiz-adv-x="1352" 
d="M1073 734q0 -290 -65 -457l260 -224l-23 -26l-251 216q-62 -135 -170 -187t-265 -52q-224 0 -346.5 97.5t-127.5 260.5v7v8q6 107 94 183.5t268 155.5q-126 114 -176 193t-50 164q0 123 89 186t234 63q141 0 232 -65t91 -173v-15v-29h-1q-4 -65 -27 -120t-58.5 -92.5
t-72.5 -62.5t-79 -42l-93 -39l435 -374q68 145 68 424h34zM120 369q4 -115 113.5 -187.5t325.5 -72.5q147 0 242.5 36t152.5 133l-442 381l-12 10q-199 -85 -287.5 -151t-92.5 -149zM256 1073q0 -79 49 -153t178 -188q8 3 56.5 23t76.5 31q216 90 216 283v15q0 94 -79 149
t-209 55q-134 0 -211 -53.5t-77 -161.5z" />
    <glyph glyph-name="quotesingle" unicode="'" horiz-adv-x="236" 
d="M145 1099h-54v643h54v-643z" />
    <glyph glyph-name="parenleft" unicode="(" horiz-adv-x="514" 
d="M410 -2q-143 101 -234 300.5t-91 433.5q0 232 91 431t234 300l19 -69q-146 -103 -227.5 -275.5t-81.5 -386.5q0 -215 82 -389t227 -277z" />
    <glyph glyph-name="parenright" unicode=")" horiz-adv-x="514" 
d="M85 66q146 103 228 277.5t82 388.5q0 213 -82 386t-228 276l20 69q142 -101 233 -300t91 -431q0 -234 -91 -433.5t-233 -300.5z" />
    <glyph glyph-name="asterisk" unicode="*" horiz-adv-x="1092" 
d="M569 233h-45v410l-290 -290l-31 31l290 290h-409v45h408l-289 289l31 32l290 -290v410h45v-410l290 290l31 -32l-290 -289h409v-45h-409l290 -290l-31 -31l-290 289v-409z" />
    <glyph glyph-name="plus" unicode="+" horiz-adv-x="1075" 
d="M992 665v-83h-437v-413h-35v413h-436v83h436v412h35v-412h437z" />
    <glyph glyph-name="comma" unicode="," horiz-adv-x="256" 
d="M125 -237l-34 2l40 639l34 -2z" />
    <glyph glyph-name="hyphen" unicode="-" horiz-adv-x="826" 
d="M743 135v-34h-659v34h659z" />
    <glyph glyph-name="period" unicode="." horiz-adv-x="285" 
d="M143 24q-28 0 -48 19t-20 47t20 47.5t48 19.5t47.5 -19.5t19.5 -47.5t-19.5 -47t-47.5 -19z" />
    <glyph glyph-name="slash" unicode="/" horiz-adv-x="899" 
d="M130 -333l-39 15l678 1888l40 -15z" />
    <glyph glyph-name="zero" unicode="0" horiz-adv-x="1161" 
d="M125 528q0 -218 88.5 -318.5t285.5 -100.5h164q197 0 285 100.5t88 318.5v358q0 183 -103 296.5t-270 113.5h-164q-168 0 -271 -113.5t-103 -296.5v-358zM91 528v358q0 209 115.5 344.5t292.5 135.5h164q177 0 292.5 -135.5t115.5 -344.5v-358q0 -260 -103.5 -392
t-304.5 -132h-164q-201 0 -304.5 132t-103.5 392z" />
    <glyph glyph-name="one" unicode="1" horiz-adv-x="561" 
d="M382 0h-35v1260h-169v105h204v-1365z" />
    <glyph glyph-name="two" unicode="2" horiz-adv-x="1309" 
d="M84 4v109l693 525q157 119 230.5 213.5t75.5 192.5q-2 115 -73.5 184t-202.5 69h-660v69h660q141 0 223 -89t87 -227v-6v-7q-5 -114 -84.5 -219.5t-234.5 -223.5l-640 -485h1068v-105h-1142z" />
    <glyph glyph-name="three" unicode="3" horiz-adv-x="1096" 
d="M216 700v69h357q106 0 182.5 14.5t118.5 36.5t66 57.5t30 66.5t6 75q0 154 -79 216t-263 62h-550v69h550q192 0 284.5 -80t92.5 -267q0 -40 -4.5 -72t-19.5 -70t-41 -66.5t-72.5 -53.5t-109.5 -39q62 -17 108.5 -47.5t72.5 -63.5t41.5 -73.5t20 -72t4.5 -65.5v-36h-1
q-18 -356 -376 -356h-550v105h550q180 0 260 68.5t82 215.5v3q0 276 -321 306q-26 -2 -82 -2h-357z" />
    <glyph glyph-name="four" unicode="4" horiz-adv-x="1221" 
d="M84 356v104l790 906l2 -2v5h34v-909h228v-104h-228v-356h-34v356h-792zM142 460h734v843z" />
    <glyph glyph-name="five" unicode="5" horiz-adv-x="1121" 
d="M1036 475v-11v-9q-5 -233 -124 -342t-357 -109h-471v105h471q235 0 339.5 84t107.5 271q-2 126 -79.5 200t-243.5 74h-519v631h34v-3h794v-69h-794v-489h485q176 0 263.5 -94t93.5 -239z" />
    <glyph glyph-name="six" unicode="6" horiz-adv-x="1051" 
d="M85 447q0 150 22 277.5t80.5 250.5t150 209t239.5 138.5t341 52.5v-45q-717 0 -790 -709q52 94 153 143.5t212 49.5h63q184 0 294 -101t116 -261h1v-10v-9q-5 -195 -120 -312t-328 -117q-173 0 -300 114.5t-134 293.5v34v1zM120 431q0 -140 115 -231t284 -91
q208 0 309 89t104 244q-4 137 -103 220t-273 83h-63q-71 0 -136.5 -19t-119 -55t-85.5 -94.5t-32 -130.5v-15z" />
    <glyph glyph-name="seven" unicode="7" horiz-adv-x="1147" 
d="M1026 1369h36l-470 -1369h-36l432 1260h-904v105h940v-1z" />
    <glyph glyph-name="eight" unicode="8" horiz-adv-x="1051" 
d="M967 487v-13v-7q-2 -114 -23.5 -195.5t-58.5 -133t-97.5 -81.5t-130 -41.5t-166.5 -11.5q-89 0 -157.5 19.5t-125.5 64.5t-88.5 129.5t-34.5 205.5v35q0 124 64 206.5t175 118.5q-128 84 -132 275v25q0 137 80.5 210t214.5 73h82q128 0 193 -72t69 -189v-9v-6
q-3 -211 -117 -293q123 -27 185 -112.5t67 -197.5h1zM120 442q0 -96 25 -162t75.5 -103t115.5 -52.5t155 -15.5q97 0 164.5 9t122.5 32.5t87 65t49 105t18 153.5q-1 55 -19 101.5t-55 83.5t-100.5 58t-148.5 21h-116q-172 0 -272.5 -73t-100.5 -207v-16zM226 1072
q0 -126 69 -195t187 -69q168 0 240.5 64.5t73.5 223.5q-3 200 -227 200h-82q-122 0 -191.5 -53t-69.5 -160v-11z" />
    <glyph glyph-name="nine" unicode="9" horiz-adv-x="1058" 
d="M91 922v11v8q5 194 117.5 308t317.5 114q69 0 130.5 -16t119 -54.5t99 -96.5t66.5 -147.5t25 -201.5q11 -256 -58.5 -433t-211 -279t-363.5 -146l-7 44q254 50 399 177t188 350h-414q-185 0 -293 101t-115 261zM125 932q3 -132 101.5 -212t272.5 -80h427q10 95 5 223
q-2 85 -24 153t-58.5 112.5t-88 74t-109.5 42.5t-125 13q-200 0 -299 -87t-102 -239z" />
    <glyph glyph-name="colon" unicode=":" horiz-adv-x="325" 
d="M163 334l79 -79l-80 -80l-78 80zM84 535l79 79l79 -79l-80 -80z" />
    <glyph glyph-name="semicolon" unicode=";" horiz-adv-x="325" 
d="M163 776l79 -80l-80 -79l-78 79zM103 -235l40 639l35 -2l-40 -639z" />
    <glyph glyph-name="less" unicode="&#x3c;" horiz-adv-x="897" 
d="M798 188l-713 385v58l713 386l16 -31l-694 -377v-14l694 -376z" />
    <glyph glyph-name="equal" unicode="=" horiz-adv-x="1075" 
d="M992 635v-35h-908v35h908zM84 244v35h908v-35h-908z" />
    <glyph glyph-name="greater" unicode="&#x3e;" horiz-adv-x="897" 
d="M100 188l-16 31l694 376v14l-694 377l16 31l713 -386v-58z" />
    <glyph glyph-name="question" unicode="?" horiz-adv-x="1004" 
d="M885 725v6q0 128 -85.5 209.5t-224.5 81.5h-491v69h491q149 0 246.5 -102.5t97.5 -257.5v-6q-2 -160 -98.5 -266t-245.5 -106h-237v-398h-35v503h272q140 0 224 75t86 192zM255 -162l78 79l80 -79l-79 -80z" />
    <glyph glyph-name="at" unicode="@" horiz-adv-x="1893" 
d="M1636 -539v-52h-1080q-204 0 -337.5 135.5t-133.5 344.5v997q0 209 133.5 345t337.5 136h782q204 0 337.5 -136t133.5 -345v-815q0 -133 -81.5 -220.5t-204.5 -87.5q-124 0 -205.5 87.5t-81.5 220.5v92q-82 -186 -350 -186h-77q-103 0 -165 10t-112 41t-72.5 89
t-25.5 152h-1v15v19h1q4 62 23 106.5t59 77t106.5 48.5t161.5 16h452v109q0 104 -62 152.5t-199 48.5h-518v52h518q296 0 296 -253v-589q0 -113 69.5 -184t182.5 -71t182 71t69 184v815q0 188 -122 308.5t-314 120.5h-782q-192 0 -314 -120.5t-122 -308.5v-997
q0 -188 122 -308t314 -120h1080zM468 285q4 -126 73.5 -164.5t267.5 -38.5h77q350 0 350 269v131h-452q-124 0 -193.5 -22.5t-95 -63t-27.5 -111.5z" />
    <glyph glyph-name="A" unicode="A" horiz-adv-x="1288" 
d="M1203 0h-71l-111 496h-714l-115 -496h-104l236 1011q23 99 50.5 160t69.5 96.5t92.5 48t129.5 13.5h5h7q81 -2 134 -23.5t84.5 -75t43.5 -91.5t32 -125q1 -2 1 -3zM315 530h698l-107 473q-8 37 -12 53.5t-12 47t-13.5 43.5t-14.5 36.5t-17.5 33.5t-21.5 26t-27 22.5
t-32 14.5t-39.5 11t-46.5 3q-61 0 -93 -8t-61.5 -39.5t-48 -86t-42.5 -157.5z" />
    <glyph glyph-name="B" unicode="B" horiz-adv-x="1042" 
d="M459 1366q361 0 378 -312h1v-16q0 -10 -1 -15q-8 -206 -128 -283q232 -68 248 -317h1v-18v-17h-1q-4 -89 -32.5 -156.5t-73.5 -109.5t-111.5 -68.5t-139.5 -36.5t-165 -10h-315v-7h-35v1366h374zM120 111h315q116 0 200.5 14.5t150 47.5t100 91t37.5 142
q-3 64 -23.5 113.5t-65 90.5t-124.5 63t-191 22h-391v69h391q43 0 77.5 4.5t74.5 21.5t66.5 45.5t45.5 80.5t21 123q-1 40 -8 72t-29 68t-57.5 60.5t-100 40.5t-150.5 16h-339v-1185z" />
    <glyph glyph-name="C" unicode="C" horiz-adv-x="1013" 
d="M930 2h-157q-114 0 -196.5 5.5t-155.5 21t-121.5 38.5t-88 63t-62 89.5t-38 124t-21 159.5t-5.5 202v5q0 102 6 176.5t23 147t47 121.5t77.5 91.5t115 67t159 38t210.5 13.5h158v-70h-158q-100 0 -179 -7.5t-140.5 -25.5t-106 -41.5t-76 -61.5t-51 -79.5t-31 -102
t-15.5 -122t-4 -145.5v-5q0 -106 3.5 -178t17 -138.5t32.5 -106.5t56.5 -74.5t81 -51.5t115.5 -29.5t151.5 -16t195.5 -3.5h157v-105z" />
    <glyph glyph-name="D" unicode="D" horiz-adv-x="1146" 
d="M120 0h-35l1 1369h34v-3h253q168 0 291.5 -32t199 -86t120.5 -138t61.5 -175t16.5 -211v-72q-2 -126 -25 -226t-57.5 -167.5t-90 -115.5t-110 -74.5t-132 -41.5t-140 -19t-148.5 -4h-239v-4zM120 109h239q67 0 117 2t110 8.5t104.5 18.5t93 33.5t82.5 51t66.5 72.5t52 97
t31 126.5t11.5 159.5v46q0 93 -10.5 164t-36 138.5t-73 115t-119 84t-175.5 54t-240 17.5h-253v-1188z" />
    <glyph glyph-name="E" unicode="E" horiz-adv-x="1051" 
d="M968 109v-105h-511q-183 0 -277.5 111.5t-94.5 330.5v920h882v-69h-847v-540h752v-34h-752v-277q0 -175 79 -256t258 -81h511z" />
    <glyph glyph-name="F" unicode="F" horiz-adv-x="900" 
d="M120 0h-35l1 1369h34v-3h697v-95h-697v-580h588v-45h-588v-646z" />
    <glyph glyph-name="G" unicode="G" horiz-adv-x="1266" 
d="M1180 729v-5h1v-258q0 -219 -117 -340.5t-325 -121.5h-64q-98 2 -181.5 23t-160 70t-130.5 122.5t-86 188t-32 260.5v5q0 174 43.5 307t124.5 217t193.5 126.5t253.5 42.5v-1q55 -1 97.5 -3.5t82 -10t62.5 -12.5t70.5 -17.5t74.5 -19.5l-8 -67q-22 5 -74 19t-73 18
t-64.5 11.5t-90 9.5t-109.5 2q-264 -8 -406 -162t-142 -460v-5q0 -154 44 -265.5t124.5 -174t181 -91t226.5 -28.5h43q202 0 305 92t103 265v211h-525v52h558z" />
    <glyph glyph-name="H" unicode="H" horiz-adv-x="1087" 
d="M120 0h-35l1 1369h34v-669h847v669h35l-1 -1369h-34v596h-847v-596z" />
    <glyph glyph-name="I" unicode="I" horiz-adv-x="255" 
d="M144 0h-34l1 1369h35z" />
    <glyph glyph-name="J" unicode="J" horiz-adv-x="796" 
d="M84 -186q323 0 457.5 126.5t134.5 433.5v995h34v-995q0 -347 -148 -497t-478 -150v87z" />
    <glyph glyph-name="K" unicode="K" horiz-adv-x="1042" 
d="M120 0h-35l1 1369h34v-637h11l796 645l21 -26l-763 -619h277q254 0 374.5 -131.5t120.5 -413.5v-187h-35v187q0 241 -105.5 345.5t-354.5 104.5h-342v-637z" />
    <glyph glyph-name="L" unicode="L" horiz-adv-x="849" 
d="M766 109v-105h-312q-167 0 -268 107t-101 288l1 970h34v-970q0 -135 86.5 -212.5t247.5 -77.5h312z" />
    <glyph glyph-name="M" unicode="M" horiz-adv-x="1430" 
d="M85 1369h104l582 -1324l515 1324h59v-1369h-34v1318l-514 -1318h-101l-576 1311v-1311h-34z" />
    <glyph glyph-name="N" unicode="N" horiz-adv-x="1092" 
d="M85 1369h107l780 -1323v1323h35v-1369h-109l-778 1319v-1319h-34z" />
    <glyph glyph-name="O" unicode="O" horiz-adv-x="1110" 
d="M991 852q0 211 -101.5 328.5t-280.5 117.5h-108q-381 0 -381 -446v-315q0 -73 9.5 -133t35.5 -116.5t68 -94.5t110 -61t158 -23h108q90 0 158 23t110 61t68 94.5t36 116.5t10 133v315zM85 537v315q0 81 12 152.5t41.5 139.5t75.5 116.5t119.5 78t167.5 29.5h108
q188 0 302.5 -139.5t114.5 -376.5v-315q0 -83 -12 -156.5t-42 -144t-76 -121t-119.5 -81t-167.5 -30.5h-108q-94 0 -167.5 30.5t-119.5 81t-75.5 121t-41.5 144t-12 156.5z" />
    <glyph glyph-name="P" unicode="P" horiz-adv-x="921" 
d="M802 960q0 337 -267 337h-415v-397q4 -97 34 -143t101 -64t217 -18q64 0 111 6.5t90 24.5t70 48t43 79.5t16 116.5v10zM85 955v136h1v275h449q132 0 213 -93.5t88 -277.5v-35v-10q0 -93 -20 -162t-52 -110t-81 -66t-98.5 -33.5t-112.5 -8.5q-153 0 -235 32t-117 111
l1 -713h-34l-1 898q-1 18 -1 57z" />
    <glyph glyph-name="Q" unicode="Q" horiz-adv-x="1178" 
d="M991 852q0 211 -101.5 328.5t-280.5 117.5h-108q-381 0 -381 -446v-315q0 -73 9.5 -133t35.5 -116.5t68 -94.5t110 -61t158 -23h108q116 0 197 38l-180 247l28 21l183 -251q154 96 154 373v315zM85 537v315q0 81 12 152.5t41.5 139.5t75.5 116.5t119.5 78t167.5 29.5h108
q188 0 302.5 -139.5t114.5 -376.5v-315q0 -298 -144 -435l212 -289l-28 -21l-211 287q-97 -75 -246 -75h-108q-94 0 -167.5 30.5t-119.5 81t-75.5 121t-41.5 144t-12 156.5z" />
    <glyph glyph-name="R" unicode="R" horiz-adv-x="1129" 
d="M1045 13l-23 -26l-693 593h-208v-580h-34v580h-2v503h1v282h441q141 0 223.5 -100.5t85.5 -307.5v-23q0 -85 -19 -149t-51 -102.5t-80.5 -62t-99 -32t-114.5 -8.5h-89zM120 1260v-610h352q79 0 135 12t102.5 42t69.5 87.5t23 142.5v9q0 169 -66.5 243t-208.5 74h-407z
" />
    <glyph glyph-name="S" unicode="S" horiz-adv-x="1067" 
d="M982 433v-1v-2l-1 -29q-5 -120 -48 -202t-116.5 -126.5t-183.5 -59.5t-237.5 -5.5t-289.5 41.5v103q160 -31 287 -42t232.5 1t175.5 49t108.5 105.5t38.5 166.5q-1 123 -96 187.5t-306 64.5q-125 1 -214 23t-140 63t-75.5 91t-29.5 116h-2v22v18h1q11 205 149 283
q106 58 340 65q24 1 319 1v-69q-311 0 -350 -1q-221 -9 -314 -68q-104 -68 -110 -229q3 -57 23 -98t67 -75.5t134.5 -52t215.5 -17.5q419 -6 422 -323z" />
    <glyph glyph-name="T" unicode="T" horiz-adv-x="964" 
d="M499 0h-35l1 1277h-465v87h964v-87h-464z" />
    <glyph glyph-name="U" unicode="U" horiz-adv-x="1161" 
d="M1042 1369h34v-855q0 -246 -128 -376t-339 -130h-58q-208 0 -337 130t-129 376v855h35v-855q0 -198 115 -299.5t316 -101.5h58q204 0 318.5 101.5t114.5 299.5v855z" />
    <glyph glyph-name="V" unicode="V" horiz-adv-x="1314" 
d="M649 0l-561 1369h109l544 -1326l452 1326h36l-467 -1369h-113z" />
    <glyph glyph-name="W" unicode="W" horiz-adv-x="1820" 
d="M213 0l-125 1369h105l120 -1313l567 1243h81l568 -1260l172 1330h34l-176 -1369h-89l-570 1262l-575 -1262h-112z" />
    <glyph glyph-name="X" unicode="X" horiz-adv-x="1499" 
d="M1365 1380l26 -23l-541 -593l134 -118q149 -132 237.5 -288t94.5 -356l-86 -4q-6 176 -83.5 312t-219.5 261l-140 124l-644 -706l-26 22l644 707l-675 597l57 75l681 -603z" />
    <glyph glyph-name="Y" unicode="Y" horiz-adv-x="1151" 
d="M591 555h-8q-64 8 -112 32t-82.5 68t-57 88t-48.5 112l-195 520h91l186 -492q47 -128 92.5 -184t132.5 -67h1q65 -7 115 24.5t71 86.5l247 632h43l-257 -660q-28 -72 -76.5 -113.5t-108.5 -46.5v-555h-34v555z" />
    <glyph glyph-name="Z" unicode="Z" horiz-adv-x="1346" 
d="M1220 1144q0 88 -68.5 126t-196.5 38h-856v70h856q291 0 299 -222v-39q0 -45 -19.5 -86.5t-46.5 -71.5t-72 -61.5t-78.5 -50t-83.5 -43.5l-515 -261q-144 -73 -194 -108q-124 -85 -125 -178q1 -54 30.5 -84t114.5 -46.5t241 -16.5h754v-105h-754q-225 0 -318.5 50
t-101.5 174h-1v27v1v2q0 34 12 66t28 57t45.5 51t52 43t60.5 39t58.5 33t57.5 29l24 12l515 261q64 32 105.5 56t86.5 58t67.5 72t22.5 81v27z" />
    <glyph glyph-name="bracketleft" unicode="[" horiz-adv-x="612" 
d="M529 -115v-105h-444v1645h444v-104h-409v-1436h409z" />
    <glyph glyph-name="backslash" unicode="\" horiz-adv-x="899" 
d="M769 -333l-678 1888l39 15l679 -1888z" />
    <glyph glyph-name="bracketright" unicode="]" horiz-adv-x="612" 
d="M84 -115h409v1436h-409v104h444v-1645h-444v105z" />
    <glyph glyph-name="asciicircum" unicode="^" horiz-adv-x="846" 
d="M762 884l-30 -18l-295 468h-27l-296 -468l-30 18l306 485h67z" />
    <glyph glyph-name="underscore" unicode="_" horiz-adv-x="1182" 
d="M1099 -202v-35h-1015v35h1015z" />
    <glyph glyph-name="grave" unicode="`" horiz-adv-x="383" 
d="M153 796l-46 -14l-105 314l46 15z" />
    <glyph glyph-name="a" unicode="a" horiz-adv-x="1058" 
d="M780 852h34v-487q0 -89 15.5 -150.5t44.5 -93.5t63 -45t80 -13v-70q-81 0 -141.5 52.5t-83.5 174.5q-69 -231 -350 -231q-95 0 -164.5 29.5t-110 83.5t-60.5 121t-22 150v11v10q5 215 99.5 321.5t257.5 106.5q254 0 338 -235v265zM120 384q1 -69 16 -119t50 -90.5t99 -61
t157 -20.5q97 0 164 20t103.5 59.5t52.5 88.5t16 116q0 80 -17 144.5t-54.5 118.5t-104.5 83.5t-160 29.5q-156 0 -238 -88t-84 -281z" />
    <glyph glyph-name="b" unicode="b" horiz-adv-x="937" 
d="M120 0h-35v1369h35v-748q33 78 96 131t129 74.5t134 21.5h26q152 0 250 -114t98 -293l-1 -46q-3 -86 -27.5 -155t-61 -112t-84 -72t-95 -40.5t-97.5 -11.5h-37q-105 0 -195.5 59t-134.5 173v-236zM120 437q0 -160 93.5 -244t236.5 -84h37q65 0 121.5 16.5t105 52
t76.5 98.5t28 148v17q0 152 -85.5 244.5t-227.5 92.5h-26q-51 0 -100 -11t-96.5 -37t-83 -64t-57.5 -97t-22 -132z" />
    <glyph glyph-name="c" unicode="c" horiz-adv-x="917" 
d="M120 471q0 -231 175 -318t539 -35v-105q-363 -52 -550.5 51t-197.5 377h-1v30v1q0 144 81.5 246t238.5 143t388 -8v-71q-223 50 -372.5 16.5t-225 -119.5t-75.5 -207v-1z" />
    <glyph glyph-name="d" unicode="d" horiz-adv-x="937" 
d="M818 0v236q-44 -114 -134.5 -173t-195.5 -59h-37q-50 0 -97.5 11.5t-95 40.5t-84 72t-61 112t-27.5 155h-1v46q0 179 98 293t250 114h26q68 0 134 -21.5t129 -74.5t96 -131v748h35v-1369h-35zM120 424q0 -85 28 -148t76.5 -98.5t105 -52t121.5 -16.5h37q143 0 236.5 84
t93.5 244q0 73 -22 132t-57.5 97t-83 64t-96.5 37t-100 11h-26q-142 0 -227.5 -92.5t-85.5 -244.5v-17z" />
    <glyph glyph-name="e" unicode="e" horiz-adv-x="838" 
d="M716 614v-5v-6q-6 -253 -291 -252h-305q4 -92 49.5 -152t113.5 -82t151 -22.5t161.5 18.5t143.5 51l15 -80q-62 -30 -132.5 -49t-146 -25.5t-145 10.5t-124.5 55t-88 113t-33 179v135q0 95 28.5 170t76.5 120t105.5 68.5t120.5 23.5q129 0 212.5 -66.5t87.5 -203.5z
M120 410h305q138 -1 196.5 47t60.5 151q-1 105 -72.5 155.5t-193.5 50.5q-57 0 -108 -18t-94 -53.5t-68.5 -97.5t-25.5 -143v-92z" />
    <glyph glyph-name="f" unicode="f" horiz-adv-x="939" 
d="M856 1365v-105h-185q-170 0 -244 -68.5t-74 -218.5v-272h470v-69h-470v-631h-34v631h-235v69h235v272q0 392 352 392h185z" />
    <glyph glyph-name="g" unicode="g" horiz-adv-x="935" 
d="M211 -390q328 0 466.5 115.5t138.5 392.5v144q-37 -118 -130.5 -186.5t-231.5 -68.5q-181 0 -271 100t-97 299h-1v18q0 11 1 17q7 213 104.5 320t263.5 107q150 0 239 -78t123 -208v295h34v-759q0 -310 -151 -444t-488 -134v70zM120 424q3 -164 78.5 -238t255.5 -74
q174 0 261 81t88 215q0 83 -18 150t-56.5 122.5t-108.5 86.5t-166 31q-327 0 -334 -374z" />
    <glyph glyph-name="h" unicode="h" horiz-adv-x="937" 
d="M120 0h-35v1369h35v-692q25 68 67.5 113.5t95.5 66t97.5 27.5t98.5 7h26q159 0 253.5 -111.5t94.5 -319.5v-460h-35v460q0 168 -79.5 252.5t-233.5 84.5h-26q-56 0 -99 -5.5t-94.5 -26t-85.5 -56t-57 -101t-23 -154.5v-454z" />
    <glyph glyph-name="i" unicode="i" horiz-adv-x="325" 
d="M179 0h-35v877h35v-877zM84 1108l79 80l79 -80l-80 -79z" />
    <glyph glyph-name="j" unicode="j" horiz-adv-x="860" 
d="M84 -390q323 0 458.5 115t135.5 393v759h35v-759q0 -310 -148.5 -444t-480.5 -134v70zM618 1108l79 80l79 -80l-80 -79z" />
    <glyph glyph-name="k" unicode="k" horiz-adv-x="951" 
d="M120 0h-35l1 1369h34v-738h102l614 551l23 -26l-585 -525h64q93 0 161.5 -10.5t130.5 -39.5t100 -78.5t60.5 -130t22.5 -191.5v-181h-34v181q0 109 -25.5 180t-83 111.5t-135.5 56t-197 15.5h-218v-544z" />
    <glyph glyph-name="l" unicode="l" horiz-adv-x="596" 
d="M513 109v-105h-123q-116 0 -180 38t-94.5 132t-30.5 266l1 929h34v-929q0 -109 10 -170t41.5 -99.5t81 -50t137.5 -11.5h123z" />
    <glyph glyph-name="m" unicode="m" horiz-adv-x="1670" 
d="M120 0h-35v885h35v-212q20 55 53.5 95.5t68 62.5t79.5 35t80 16.5t77 3.5h26q124 0 211.5 -69.5t119.5 -202.5q16 71 49 122.5t69.5 79.5t85.5 44.5t87.5 21t85.5 4.5h26q156 0 251.5 -112t95.5 -319v-455h-34v455q0 167 -81 252t-232 85h-26q-38 0 -70 -2.5t-70 -11
t-68 -23.5t-59.5 -41t-48.5 -61.5t-31 -87.5t-12 -117v-448h-35v455q0 167 -80.5 252t-233.5 85h-26q-38 0 -69.5 -2.5t-70 -11t-68 -23.5t-59 -41t-48.5 -61.5t-31 -87.5t-12 -117v-448z" />
    <glyph glyph-name="n" unicode="n" horiz-adv-x="937" 
d="M120 0h-35v885h35v-212q25 68 67.5 113.5t95.5 66t97.5 27.5t98.5 7h26q159 0 253.5 -112t94.5 -320v-455h-35v455q0 168 -80 253t-233 85h-26q-56 0 -99 -5.5t-94.5 -26t-85.5 -56t-57 -101t-23 -154.5v-450z" />
    <glyph glyph-name="o" unicode="o" horiz-adv-x="935" 
d="M850 484q3 -128 -13.5 -215t-59.5 -148.5t-116.5 -89t-184.5 -27.5q-98 0 -167 19t-113.5 54.5t-69.5 96t-34 134t-7 176.5v2q0 418 391 418q173 0 271.5 -103t102.5 -315v-2zM120 446q0 -102 13 -162t52 -102t107.5 -57.5t183.5 -15.5q106 0 171 16.5t103.5 59t52 103.5
t13.5 162v36q-4 184 -91.5 266t-248.5 82q-180 0 -268 -80.5t-88 -267.5v-40z" />
    <glyph glyph-name="p" unicode="p" horiz-adv-x="938" 
d="M819 492q0 173 -73 251.5t-223 78.5h-403v-308q8 -157 89 -234t240 -77q83 0 145.5 12t115.5 41.5t81 86t28 139.5v10zM85 554v61h1v276h437q150 0 236.5 -90.5t93.5 -274.5h1v-34v-10q0 -94 -23 -164t-60 -111t-91.5 -66.5t-109 -34t-121.5 -8.5q-120 0 -204 57.5
t-125 168.5l1 -799h-34l-1 985q-1 14 -1 44z" />
    <glyph glyph-name="q" unicode="q" horiz-adv-x="1111" 
d="M1029 -396v-83h-216v709q-39 -105 -128 -164t-228 -59q-99 0 -172.5 31t-115 86.5t-62 123.5t-22.5 152v9v8q4 227 102.5 337t269.5 110q143 0 230 -69.5t126 -188.5v282h35v-1284h181zM120 409q1 -69 16.5 -120t52 -92.5t103.5 -63t165 -21.5q350 0 352 294
q0 82 -18 149t-57 122.5t-109.5 86.5t-167.5 31q-163 0 -249.5 -92t-87.5 -294z" />
    <glyph glyph-name="r" unicode="r" horiz-adv-x="653" 
d="M120 0h-35v878h35v-280q28 80 75 138.5t100 88t98.5 42.5t85.5 13h91v-94h-91q-40 0 -83 -10t-94 -38.5t-90 -72.5t-65.5 -121t-26.5 -175v-369z" />
    <glyph glyph-name="s" unicode="s" horiz-adv-x="749" 
d="M664 266v-1v-18q-8 -163 -161.5 -219t-409.5 3v94q251 -54 393.5 -15t143.5 155q-1 86 -68 132.5t-193 46.5v1q-140 4 -205.5 58t-71.5 152h-1v12q0 8 1 12q3 55 19 94.5t56 63.5t68 38t98 19.5t102.5 6.5t122.5 0h60v-52q-214 0 -257 -3q-153 -11 -203 -76
q-30 -39 -33 -103q3 -85 62 -127.5t201 -42.5v-1q128 -5 201.5 -64.5t74.5 -165.5z" />
    <glyph glyph-name="t" unicode="t" horiz-adv-x="877" 
d="M794 881v-53h-456v-250q0 -214 10 -278q17 -109 84 -153q79 -53 298 -57h49v-95q-101 0 -176 13t-126.5 29t-85 59t-51 72.5t-26 102.5t-9.5 115.5t-1 142.5v49v250h-220v53h220v488h34v-488h456z" />
    <glyph glyph-name="u" unicode="u" horiz-adv-x="1033" 
d="M712 879h34v-27h1v-487q0 -89 15.5 -150.5t44.5 -93.5t63 -45t80 -13v-70q-182 0 -225 228q-28 -103 -97 -160t-197 -57h-30q-79 0 -137.5 24.5t-92 63t-53.5 97.5t-26.5 115.5t-6.5 128.5v446h35v-446q0 -66 5 -110t21.5 -88t46.5 -69.5t82 -41t126 -15.5h30
q75 0 127 16t82 41t46.5 69t21 88t4.5 110v446z" />
    <glyph glyph-name="v" unicode="v" horiz-adv-x="888" 
d="M452 5q-53 5 -86.5 44.5t-57.5 119.5l-220 710h80l214 -686q20 -67 35.5 -86t51.5 -19h2q33 0 52.5 21t37.5 79l202 691h41l-210 -714q-25 -89 -55.5 -125t-67.5 -36z" />
    <glyph glyph-name="w" unicode="w" horiz-adv-x="1288" 
d="M327 109l321 698l-1 2h61l314 -728h23l123 798h36l-134 -868h-77l-320 739l-343 -746h-70l-172 875h72l152 -770h15z" />
    <glyph glyph-name="x" unicode="x" horiz-adv-x="1145" 
d="M910 879h48l-340 -370l68 -52q22 -17 71 -53.5t70.5 -54t59.5 -50.5t58 -59.5t45 -64t41 -81t27 -94.5h-74q-10 39 -23.5 72t-35 63t-38.5 51t-51.5 50t-55.5 45.5t-67.5 51.5t-71.5 54l-78 60l-410 -447h-47l428 469l-448 343l44 70l461 -352z" />
    <glyph glyph-name="y" unicode="y" horiz-adv-x="831" 
d="M712 903h34v-918q0 -309 -150.5 -443t-487.5 -134v69q327 0 465.5 115.5t138.5 392.5v196q-66 -177 -281 -177h-30q-79 0 -137.5 24.5t-92 63t-53.5 97.5t-26.5 115.5t-6.5 128.5v470h35v-470q0 -66 5 -110t21.5 -88t46.5 -69.5t82 -41t126 -15.5h30q75 0 127 16t82 41
t46.5 69t21 88t4.5 110v470z" />
    <glyph glyph-name="z" unicode="z" horiz-adv-x="1078" 
d="M896 733q0 95 -182 95h-622v53h622q212 0 217 -141v-23q0 -69 -63.5 -121.5t-153.5 -88.5l-363 -142q-45 -18 -76 -32t-68.5 -35.5t-57 -45.5t-19.5 -50q0 -41 20 -62.5t78.5 -33t169.5 -11.5h595v-87h-595q-165 0 -231.5 40t-70.5 141v13q0 33 17.5 63.5t40.5 51t61 42
t62.5 32t60.5 24.5l363 141q84 32 139.5 74.5t55.5 86.5v16z" />
    <glyph glyph-name="braceleft" unicode="{" horiz-adv-x="879" 
d="M796 -125v-84h-118q-142 0 -234 100t-92 251v212l-264 249l264 249v212q0 151 92 251t234 100h118v-84h-118q-132 0 -211.5 -75t-79.5 -192v-263l-211 -198l211 -198v-263q0 -118 79.5 -192.5t211.5 -74.5h118z" />
    <glyph glyph-name="bar" unicode="|" horiz-adv-x="549" 
d="M292 158h-34v1428h34v-1428z" />
    <glyph glyph-name="braceright" unicode="}" horiz-adv-x="879" 
d="M202 -125q132 0 211.5 74.5t79.5 192.5v263l211 198l-211 198v263q0 117 -79.5 192t-211.5 75h-118v84h118q142 0 234 -100t92 -251v-212l264 -249l-264 -249v-212q0 -151 -92 -251t-234 -100h-118v84h118z" />
    <glyph glyph-name="asciitilde" unicode="~" horiz-adv-x="1176" 
d="M1092 666q-76 -100 -160.5 -149t-179 -41t-187.5 80q-143 117 -251 97t-198 -192l-31 17q66 125 144 175t165.5 31.5t192.5 -100.5q252 -194 477 103z" />
    <glyph glyph-name="uni00A0" unicode="&#xa0;" horiz-adv-x="228" 
 />
    <glyph glyph-name="exclamdown" unicode="&#xa1;" horiz-adv-x="325" 
d="M163 1020l-79 79l78 80l80 -80zM146 -179v973h34v-973h-34z" />
    <glyph glyph-name="cent" unicode="&#xa2;" horiz-adv-x="1013" 
d="M930 2h-157q-108 0 -195 6v-223h-34v226q-98 9 -167 27.5t-121.5 55t-84.5 85.5t-51.5 128t-27 172t-7.5 226v5q0 127 10 214.5t38 168t78.5 131t133 85t199.5 47.5v316h34v-313q66 6 145 6h158v-70h-158q-72 0 -145 -5v-1179q76 -4 195 -4h157v-105zM120 705
q0 -121 5.5 -199.5t22 -148t44.5 -109t77 -70.5t114 -45t161 -20v1174q-79 -8 -140 -25t-106 -41t-76.5 -61.5t-51.5 -79.5t-31 -102t-15 -122t-4 -146v-5z" />
    <glyph glyph-name="sterling" unicode="&#xa3;" horiz-adv-x="1174" 
d="M160 0h-35v207q98 99 138.5 191t40.5 233v160h-216v53h216l1 549h34v-3h751v-69h-751l-1 -477h497v-53h-497v-160q0 -301 -178 -486v-36h931v-105h-931v-4z" />
    <glyph glyph-name="currency" unicode="&#xa4;" horiz-adv-x="1334" 
d="M663 273q146 0 246 97.5t100 238.5t-100 238.5t-246 97.5q-145 0 -245 -97.5t-100 -238.5t100 -238.5t245 -97.5zM84 41l308 296q-109 114 -109 272q0 149 97 259l-296 285l25 24l296 -284q109 104 258 104q151 0 263 -107l300 287l24 -24l-301 -289q95 -111 95 -255
q0 -156 -106 -268l312 -300l-24 -25l-313 300q-109 -96 -250 -96q-139 0 -245 93l-309 -297z" />
    <glyph glyph-name="yen" unicode="&#xa5;" horiz-adv-x="1412" 
d="M1216 414v-35h-403v-110h403v-35h-403v-260h-35v260h-346v35h346v110h-346v35h346v73l-693 870l51 66l677 -850l484 843l29 -27l-513 -894v-81h403z" />
    <glyph glyph-name="brokenbar" unicode="&#xa6;" horiz-adv-x="216" 
d="M125 725h-34v505h34v-505zM91 12v506h34v-506h-34z" />
    <glyph glyph-name="section" unicode="&#xa7;" horiz-adv-x="1093" 
d="M669 394q81 0 128.5 3.5t85.5 13.5t55 31.5t25.5 53t8.5 82.5v27h1q-3 52 -24.5 80.5t-81.5 45.5t-171 19h-298q-119 0 -177 -15t-79.5 -49.5t-21.5 -106.5q0 -74 23.5 -110.5t84.5 -52.5t187 -19l254 -4v1zM85 579q0 88 24 138t80 74q-56 26 -80 77t-24 139
q0 140 66.5 190.5t246.5 50.5h545v-70h-545q-119 0 -176.5 -14.5t-79.5 -49.5t-22 -107q0 -74 23.5 -110.5t84.5 -52.5t187 -19l241 -5h40v-1q91 -2 153.5 -18t94 -42.5t48 -63t16 -78.5t-0.5 -88h-2q-5 -73 -27.5 -114.5t-68.5 -61.5q37 -18 59 -46t29.5 -59.5t10 -69
t-0.5 -76.5h-2q-9 -141 -83.5 -194.5t-252.5 -53.5h-544v105h544q131 0 193.5 16.5t86 55.5t23.5 120l1 28q-3 52 -24.5 80.5t-81.5 45.5t-171 19l-281 4q-190 4 -260 56t-70 195z" />
    <glyph glyph-name="dieresis" unicode="&#xa8;" horiz-adv-x="655" 
d="M64 1174l62 -64l-63 -63l-63 63zM306 1109l63 64l63 -64l-63 -63z" />
    <glyph glyph-name="copyright" unicode="&#xa9;" horiz-adv-x="1735" 
d="M551 555q0 -186 140 -256t430 -27v-84q-290 -41 -440 41t-158 301v25q0 115 64.5 196.5t190.5 114.5t311 -7v-55q-178 40 -297.5 13t-180 -96t-60.5 -166zM85 543q0 164 62 312.5t167 255t250 169.5t304 63t303.5 -63t249.5 -169.5t167 -255t62 -312.5t-62 -312.5
t-167 -255.5t-249.5 -170t-303.5 -63t-304 63t-250 170t-167 255.5t-62 312.5zM120 543q0 -149 58 -284t157 -233t238.5 -156t294.5 -58q206 0 378 98t270.5 266t98.5 367q0 149 -58 284t-157.5 233t-238 156t-293.5 58t-294.5 -58t-238.5 -156t-157 -233t-58 -284z" />
    <glyph glyph-name="ordfeminine" unicode="&#xaa;" horiz-adv-x="1058" 
d="M780 852h34v-487q0 -89 15.5 -150.5t44.5 -93.5t63 -45t80 -13v-70q-81 0 -141.5 52.5t-83.5 174.5q-69 -231 -350 -231q-95 0 -164.5 29.5t-110 83.5t-60.5 121t-22 150v11v10q5 215 99.5 321.5t257.5 106.5q254 0 338 -235v265zM120 384q1 -69 16 -119t50 -90.5t99 -61
t157 -20.5q97 0 164 20t103.5 59.5t52.5 88.5t16 116q0 80 -17 144.5t-54.5 118.5t-104.5 83.5t-160 29.5q-156 0 -238 -88t-84 -281z" />
    <glyph glyph-name="guillemotleft" unicode="&#xab;" horiz-adv-x="1252" 
d="M1176 -91l-41 -33l-463 514l463 518l41 -32l-434 -486zM80 390l464 518l41 -32l-434 -486l434 -481l-41 -33z" />
    <glyph glyph-name="logicalnot" unicode="&#xac;" horiz-adv-x="1184" 
d="M1099 153h-34v438h-981v69h1015v-507z" />
    <glyph glyph-name="uni00AD" unicode="&#xad;" horiz-adv-x="826" 
d="M743 135v-34h-659v34h659z" />
    <glyph glyph-name="registered" unicode="&#xae;" horiz-adv-x="1060" 
d="M531 469q177 0 298.5 118.5t121.5 287.5t-121 287t-299 118q-179 0 -300.5 -118t-121.5 -287t121.5 -287.5t300.5 -118.5zM84 875q0 192 131 326.5t316 134.5q184 0 314.5 -134.5t130.5 -326.5t-130.5 -326.5t-314.5 -134.5q-185 0 -316 134.5t-131 326.5zM334 819v201h1
v112h176q57 0 90 -40t34 -123v-9q0 -81 -39 -111t-107 -30h-36l265 -227l-9 -10l-277 237h-83v-232h-14v232h-1zM349 846h140q65 0 98.5 24.5t33.5 89.5v4q0 68 -26.5 97t-83.5 29h-162v-244z" />
    <glyph glyph-name="macron" unicode="&#xaf;" horiz-adv-x="862" 
d="M723 987v-42h-723v42h723z" />
    <glyph glyph-name="degree" unicode="&#xb0;" horiz-adv-x="811" 
d="M406 952q152 0 219 62t67 198t-67 198t-219 62t-219 -62t-67 -198t67 -198t219 -62zM85 1212q0 347 321 347t321 -347t-321 -347t-321 347z" />
    <glyph glyph-name="plusminus" unicode="&#xb1;" horiz-adv-x="1075" 
d="M992 784v-84h-437v-412h-35v412h-436v84h436v412h35v-412h437zM84 173v34h908v-34h-908z" />
    <glyph glyph-name="uni00B2" unicode="&#xb2;" horiz-adv-x="1309" 
d="M84 4v109l693 525q157 119 230.5 213.5t75.5 192.5q-2 115 -73.5 184t-202.5 69h-660v69h660q141 0 223 -89t87 -227v-6v-7q-5 -114 -84.5 -219.5t-234.5 -223.5l-640 -485h1068v-105h-1142z" />
    <glyph glyph-name="uni00B3" unicode="&#xb3;" horiz-adv-x="1096" 
d="M216 700v69h357q106 0 182.5 14.5t118.5 36.5t66 57.5t30 66.5t6 75q0 154 -79 216t-263 62h-550v69h550q192 0 284.5 -80t92.5 -267q0 -40 -4.5 -72t-19.5 -70t-41 -66.5t-72.5 -53.5t-109.5 -39q62 -17 108.5 -47.5t72.5 -63.5t41.5 -73.5t20 -72t4.5 -65.5v-36h-1
q-18 -356 -376 -356h-550v105h550q180 0 260 68.5t82 215.5v3q0 276 -321 306q-26 -2 -82 -2h-357z" />
    <glyph glyph-name="acute" unicode="&#xb4;" horiz-adv-x="383" 
d="M2 796l105 315l46 -15l-105 -314z" />
    <glyph glyph-name="uni00B5" unicode="&#xb5;" horiz-adv-x="1345" 
d="M120 -250h-34v658q-1 10 -1 30v30h1v571h34v-625q8 -135 106.5 -220t256.5 -85h17q165 0 264 92.5t99 236.5v601h35v-601q0 -144 99.5 -236.5t264.5 -92.5v-105q-139 0 -241.5 83t-139.5 218q-37 -135 -139.5 -218t-241.5 -83h-17q-125 0 -220.5 66.5t-142.5 180.5v-501z
" />
    <glyph glyph-name="paragraph" unicode="&#xb6;" horiz-adv-x="498" 
d="M413 0h-45v1642h45v-1642zM84 939v708h144v-5h20v-1642h-34v939h-130z" />
    <glyph glyph-name="periodcentered" unicode="&#xb7;" 
d="M137 277q-28 0 -47.5 19.5t-19.5 47.5t19.5 47.5t47.5 19.5t47.5 -19.5t19.5 -47.5t-19.5 -47.5t-47.5 -19.5z" />
    <glyph glyph-name="cedilla" unicode="&#xb8;" horiz-adv-x="1204" 
d="M0 -359h5q48 0 70 0.5t54 2.5t44.5 7.5t27.5 14.5t20 23.5t5 35.5q0 19 -0.5 27t-3 21t-8 18t-15.5 12t-26 9t-39 3.5t-54 1.5v183h25v-119q31 -1 55.5 -7.5t39.5 -13.5t25.5 -22.5t15.5 -24.5t7.5 -30.5t2.5 -28v-29.5q0 -27 -4 -48.5t-14 -37t-19.5 -26.5t-30 -17.5
t-34.5 -10.5t-43.5 -5.5t-47.5 -2t-55 -0.5h-3v64z" />
    <glyph glyph-name="uni00B9" unicode="&#xb9;" horiz-adv-x="561" 
d="M382 0h-35v1260h-169v105h204v-1365z" />
    <glyph glyph-name="ordmasculine" unicode="&#xba;" horiz-adv-x="935" 
d="M850 484q3 -128 -13.5 -215t-59.5 -148.5t-116.5 -89t-184.5 -27.5q-98 0 -167 19t-113.5 54.5t-69.5 96t-34 134t-7 176.5v2q0 418 391 418q173 0 271.5 -103t102.5 -315v-2zM120 446q0 -102 13 -162t52 -102t107.5 -57.5t183.5 -15.5q106 0 171 16.5t103.5 59t52 103.5
t13.5 162v36q-4 184 -91.5 266t-248.5 82q-180 0 -268 -80.5t-88 -267.5v-40z" />
    <glyph glyph-name="guillemotright" unicode="&#xbb;" horiz-adv-x="1252" 
d="M76 -91l434 481l-434 486l41 32l464 -518l-464 -514zM668 -91l434 481l-434 486l41 32l463 -518l-463 -514z" />
    <glyph glyph-name="onequarter" unicode="&#xbc;" horiz-adv-x="1676" 
d="M961 214v62l473 544l1 -1v3h22v-546h136v-62h-136v-214h-22v214h-474zM83 1347v62h123v-818h-22v756h-101zM227 -318l678 1888l40 -15l-679 -1888zM995 276h440v505z" />
    <glyph glyph-name="onehalf" unicode="&#xbd;" horiz-adv-x="1947" 
d="M206 591h-22v756h-101v62h123v-818zM227 -318l678 1888l40 -15l-679 -1888zM1178 2v66l416 315q94 71 138.5 128.5t45.5 115.5q-2 68 -44.5 109.5t-121.5 41.5h-395v42h395q85 0 135 -53.5t52 -136.5v-3v-4q-2 -68 -50.5 -132t-142.5 -135l-384 -290h642v-64h-686z" />
    <glyph glyph-name="threequarters" unicode="&#xbe;" horiz-adv-x="1661" 
d="M163 960v42h214q79 0 130.5 12t74 35.5t30 46.5t7.5 56q0 92 -47.5 129.5t-157.5 37.5h-330v42h330q116 0 171.5 -48t55.5 -161q0 -23 -3 -42.5t-12 -42t-24.5 -39.5t-43 -32.5t-65.5 -23.5q46 -13 77.5 -37t45.5 -53t19.5 -53.5t5.5 -50.5l-1 -22q-11 -213 -226 -213
h-330v63h330q109 0 156.5 41.5t48.5 129.5v1q0 166 -191 184q-32 -2 -51 -2h-214zM473 -318l679 1888l39 -15l-678 -1888zM946 214v62l474 544v-1v3h22v-546h136v-62h-136v-214h-22v214h-474zM981 276h439v505z" />
    <glyph glyph-name="questiondown" unicode="&#xbf;" horiz-adv-x="1004" 
d="M120 -33v-6q0 -128 85 -209t224 -81h492v-70h-492q-149 0 -246.5 102.5t-97.5 257.5v6q2 160 98.5 266t245.5 106h238v398h34v-503h-272q-140 0 -223.5 -75t-85.5 -192zM591 854l79 80l80 -80l-79 -79z" />
    <glyph glyph-name="Agrave" unicode="&#xc0;" horiz-adv-x="1288" 
d="M1203 0h-71l-111 496h-714l-115 -496h-104l236 1011q23 99 50.5 160t69.5 96.5t92.5 48t129.5 13.5h5h7q81 -2 134 -23.5t84.5 -75t43.5 -91.5t32 -125q1 -2 1 -3zM315 530h698l-107 473q-8 37 -12 53.5t-12 47t-13.5 43.5t-14.5 36.5t-17.5 33.5t-21.5 26t-27 22.5
t-32 14.5t-39.5 11t-46.5 3q-61 0 -93 -8t-61.5 -39.5t-48 -86t-42.5 -157.5zM546 1845l46 15l105 -315l-46 -15z" />
    <glyph glyph-name="Aacute" unicode="&#xc1;" horiz-adv-x="1288" 
d="M1203 0h-71l-111 496h-714l-115 -496h-104l236 1011q23 99 50.5 160t69.5 96.5t92.5 48t129.5 13.5h5h7q81 -2 134 -23.5t84.5 -75t43.5 -91.5t32 -125q1 -2 1 -3zM315 530h698l-107 473q-8 37 -12 53.5t-12 47t-13.5 43.5t-14.5 36.5t-17.5 33.5t-21.5 26t-27 22.5
t-32 14.5t-39.5 11t-46.5 3q-61 0 -93 -8t-61.5 -39.5t-48 -86t-42.5 -157.5zM622 1535l105 315l46 -15l-105 -315z" />
    <glyph glyph-name="Acircumflex" unicode="&#xc2;" horiz-adv-x="1288" 
d="M1203 0h-71l-111 496h-714l-115 -496h-104l236 1011q23 99 50.5 160t69.5 96.5t92.5 48t129.5 13.5h5h7q81 -2 134 -23.5t84.5 -75t43.5 -91.5t32 -125q1 -2 1 -3zM315 530h698l-107 473q-8 37 -12 53.5t-12 47t-13.5 43.5t-14.5 36.5t-17.5 33.5t-21.5 26t-27 22.5
t-32 14.5t-39.5 11t-46.5 3q-61 0 -93 -8t-61.5 -39.5t-48 -86t-42.5 -157.5zM419 1532l231 230l233 -231l-29 -29l-204 201l-202 -201z" />
    <glyph glyph-name="Atilde" unicode="&#xc3;" horiz-adv-x="1288" 
d="M1203 0h-71l-111 496h-714l-115 -496h-104l236 1011q23 99 50.5 160t69.5 96.5t92.5 48t129.5 13.5h5h7q81 -2 134 -23.5t84.5 -75t43.5 -91.5t32 -125q1 -2 1 -3zM315 530h698l-107 473q-8 37 -12 53.5t-12 47t-13.5 43.5t-14.5 36.5t-17.5 33.5t-21.5 26t-27 22.5
t-32 14.5t-39.5 11t-46.5 3q-61 0 -93 -8t-61.5 -39.5t-48 -86t-42.5 -157.5zM321 1656q86 47 134.5 62.5t97.5 6t115 -52.5q76 -49 132 -39t150 89l31 -38q-103 -88 -176 -99t-163 46q-58 37 -96 45t-79 -5t-123 -57z" />
    <glyph glyph-name="Adieresis" unicode="&#xc4;" horiz-adv-x="1288" 
d="M1203 0h-71l-111 496h-714l-115 -496h-104l236 1011q23 99 50.5 160t69.5 96.5t92.5 48t129.5 13.5h5h7q81 -2 134 -23.5t84.5 -75t43.5 -91.5t32 -125q1 -2 1 -3zM315 530h698l-107 473q-8 37 -12 53.5t-12 47t-13.5 43.5t-14.5 36.5t-17.5 33.5t-21.5 26t-27 22.5
t-32 14.5t-39.5 11t-46.5 3q-61 0 -93 -8t-61.5 -39.5t-48 -86t-42.5 -157.5zM435 1603l64 64l62 -64l-63 -63zM741 1602l63 64l63 -64l-63 -63z" />
    <glyph glyph-name="Aring" unicode="&#xc5;" horiz-adv-x="1288" 
d="M1203 0h-71l-111 496h-714l-115 -496h-104l236 1011q23 99 50.5 160t69.5 96.5t92.5 48t129.5 13.5h5h7q81 -2 134 -23.5t84.5 -75t43.5 -91.5t32 -125q1 -2 1 -3zM315 530h698l-107 473q-8 37 -12 53.5t-12 47t-13.5 43.5t-14.5 36.5t-17.5 33.5t-21.5 26t-27 22.5
t-32 14.5t-39.5 11t-46.5 3q-61 0 -93 -8t-61.5 -39.5t-48 -86t-42.5 -157.5zM512 1861q0 66 41.5 112t97.5 46t97.5 -46t41.5 -112t-41.5 -112.5t-97.5 -46.5t-97.5 46t-41.5 113zM537 1861q0 -40 31.5 -67.5t82.5 -27.5t82.5 27.5t31.5 67.5q0 39 -31.5 66.5t-82.5 27.5
t-82.5 -27.5t-31.5 -66.5z" />
    <glyph glyph-name="AE" unicode="&#xc6;" horiz-adv-x="1925" 
d="M1122 1402v4h720v-70h-702v-632h590v-70h-590v-527h702v-105h-702v-2h-35v404h-654l-272 -404h-91l941 1402h93zM497 473h608v876h-19z" />
    <glyph glyph-name="Ccedilla" unicode="&#xc7;" horiz-adv-x="1013" 
d="M930 2h-157q-114 0 -196.5 5.5t-155.5 21t-121.5 38.5t-88 63t-62 89.5t-38 124t-21 159.5t-5.5 202v5q0 102 6 176.5t23 147t47 121.5t77.5 91.5t115 67t159 38t210.5 13.5h158v-70h-158q-100 0 -179 -7.5t-140.5 -25.5t-106 -41.5t-76 -61.5t-51 -79.5t-31 -102
t-15.5 -122t-4 -145.5v-5q0 -106 3.5 -178t17 -138.5t32.5 -106.5t56.5 -74.5t81 -51.5t115.5 -29.5t151.5 -16t195.5 -3.5h157v-105zM431 -423v64h5q48 0 70 0.5t54 2.5t44.5 7.5t27.5 14.5t20 23.5t5 35.5q0 19 -0.5 27t-3 21t-8 18t-15.5 12t-26 9t-39 3.5t-54 1.5v183
h25v-119q31 -1 55.5 -7.5t39.5 -13.5t25.5 -22.5t15.5 -24.5t7.5 -30.5t2.5 -28v-29.5q0 -27 -4 -48.5t-14 -37t-19.5 -26.5t-30 -17.5t-34.5 -10.5t-43.5 -5.5t-47.5 -2t-55 -0.5h-3z" />
    <glyph glyph-name="Egrave" unicode="&#xc8;" horiz-adv-x="1051" 
d="M968 109v-105h-511q-183 0 -277.5 111.5t-94.5 330.5v920h882v-69h-847v-540h752v-34h-752v-277q0 -175 79 -256t258 -81h511zM360 1845l46 15l105 -315l-46 -15z" />
    <glyph glyph-name="Eacute" unicode="&#xc9;" horiz-adv-x="1051" 
d="M968 109v-105h-511q-183 0 -277.5 111.5t-94.5 330.5v920h882v-69h-847v-540h752v-34h-752v-277q0 -175 79 -256t258 -81h511zM436 1535l105 315l46 -15l-105 -315z" />
    <glyph glyph-name="Ecircumflex" unicode="&#xca;" horiz-adv-x="1051" 
d="M968 109v-105h-511q-183 0 -277.5 111.5t-94.5 330.5v920h882v-69h-847v-540h752v-34h-752v-277q0 -175 79 -256t258 -81h511zM233 1532l231 230l233 -231l-29 -29l-204 201l-202 -201z" />
    <glyph glyph-name="Edieresis" unicode="&#xcb;" horiz-adv-x="1051" 
d="M968 109v-105h-511q-183 0 -277.5 111.5t-94.5 330.5v920h882v-69h-847v-540h752v-34h-752v-277q0 -175 79 -256t258 -81h511zM249 1603l64 64l62 -64l-63 -63zM555 1602l63 64l63 -64l-63 -63z" />
    <glyph glyph-name="Igrave" unicode="&#xcc;" horiz-adv-x="255" 
d="M144 0h-34l1 1369h35zM23 1845l46 15l105 -315l-46 -15z" />
    <glyph glyph-name="Iacute" unicode="&#xcd;" horiz-adv-x="255" 
d="M144 0h-34l1 1369h35zM98 1535l105 315l46 -15l-105 -315z" />
    <glyph glyph-name="Icircumflex" unicode="&#xce;" horiz-adv-x="255" 
d="M144 0h-34l1 1369h35zM-105 1532l232 230l233 -231l-30 -29l-203 201l-202 -201z" />
    <glyph glyph-name="Idieresis" unicode="&#xcf;" horiz-adv-x="255" 
d="M144 0h-34l1 1369h35zM-88 1603l63 64l63 -64l-63 -63zM217 1602l64 64l62 -64l-63 -63z" />
    <glyph glyph-name="Eth" unicode="&#xd0;" horiz-adv-x="1404" 
d="M385 0h-34v657h-276v34h276v678h35v-3h252q168 0 291.5 -32t199 -86t120.5 -138t61.5 -175t16.5 -211v-72q-2 -126 -25 -226t-57.5 -167.5t-90 -115.5t-110 -74.5t-132 -41.5t-140 -19t-148.5 -4h-239v-4zM385 109h239q67 0 117 2t110 8.5t104.5 18.5t93 33.5t83 51
t66.5 72.5t52 97t31.5 126.5t11.5 159.5v46q0 93 -10.5 164t-36.5 138.5t-73.5 115t-118.5 84t-175.5 54t-240.5 17.5h-252v-606h441v-34h-442v-548z" />
    <glyph glyph-name="Ntilde" unicode="&#xd1;" horiz-adv-x="1092" 
d="M85 1369h107l780 -1323v1323h35v-1369h-109l-778 1319v-1319h-34zM217 1656q86 47 134.5 62.5t97.5 6t115 -52.5q76 -49 132 -39t150 89l31 -38q-103 -88 -176 -99t-163 46q-58 37 -96 45t-79 -5t-123 -57z" />
    <glyph glyph-name="Ograve" unicode="&#xd2;" horiz-adv-x="1110" 
d="M991 852q0 211 -101.5 328.5t-280.5 117.5h-108q-381 0 -381 -446v-315q0 -73 9.5 -133t35.5 -116.5t68 -94.5t110 -61t158 -23h108q90 0 158 23t110 61t68 94.5t36 116.5t10 133v315zM85 537v315q0 81 12 152.5t41.5 139.5t75.5 116.5t119.5 78t167.5 29.5h108
q188 0 302.5 -139.5t114.5 -376.5v-315q0 -83 -12 -156.5t-42 -144t-76 -121t-119.5 -81t-167.5 -30.5h-108q-94 0 -167.5 30.5t-119.5 81t-75.5 121t-41.5 144t-12 156.5zM432 1845l46 15l104 -315l-45 -15z" />
    <glyph glyph-name="Oacute" unicode="&#xd3;" horiz-adv-x="1110" 
d="M991 852q0 211 -101.5 328.5t-280.5 117.5h-108q-381 0 -381 -446v-315q0 -73 9.5 -133t35.5 -116.5t68 -94.5t110 -61t158 -23h108q90 0 158 23t110 61t68 94.5t36 116.5t10 133v315zM85 537v315q0 81 12 152.5t41.5 139.5t75.5 116.5t119.5 78t167.5 29.5h108
q188 0 302.5 -139.5t114.5 -376.5v-315q0 -83 -12 -156.5t-42 -144t-76 -121t-119.5 -81t-167.5 -30.5h-108q-94 0 -167.5 30.5t-119.5 81t-75.5 121t-41.5 144t-12 156.5zM507 1535l105 315l46 -15l-105 -315z" />
    <glyph glyph-name="Ocircumflex" unicode="&#xd4;" horiz-adv-x="1110" 
d="M991 852q0 211 -101.5 328.5t-280.5 117.5h-108q-381 0 -381 -446v-315q0 -73 9.5 -133t35.5 -116.5t68 -94.5t110 -61t158 -23h108q90 0 158 23t110 61t68 94.5t36 116.5t10 133v315zM85 537v315q0 81 12 152.5t41.5 139.5t75.5 116.5t119.5 78t167.5 29.5h108
q188 0 302.5 -139.5t114.5 -376.5v-315q0 -83 -12 -156.5t-42 -144t-76 -121t-119.5 -81t-167.5 -30.5h-108q-94 0 -167.5 30.5t-119.5 81t-75.5 121t-41.5 144t-12 156.5zM304 1532l232 230l232 -231l-29 -29l-203 201l-203 -201z" />
    <glyph glyph-name="Otilde" unicode="&#xd5;" horiz-adv-x="1110" 
d="M991 852q0 211 -101.5 328.5t-280.5 117.5h-108q-381 0 -381 -446v-315q0 -73 9.5 -133t35.5 -116.5t68 -94.5t110 -61t158 -23h108q90 0 158 23t110 61t68 94.5t36 116.5t10 133v315zM85 537v315q0 81 12 152.5t41.5 139.5t75.5 116.5t119.5 78t167.5 29.5h108
q188 0 302.5 -139.5t114.5 -376.5v-315q0 -83 -12 -156.5t-42 -144t-76 -121t-119.5 -81t-167.5 -30.5h-108q-94 0 -167.5 30.5t-119.5 81t-75.5 121t-41.5 144t-12 156.5zM206 1656q86 47 135 62.5t98 6t115 -52.5q76 -49 132 -39t150 89l31 -38q-103 -88 -176 -99t-163 46
q-58 37 -96.5 45t-79.5 -5t-123 -57z" />
    <glyph glyph-name="Odieresis" unicode="&#xd6;" horiz-adv-x="1110" 
d="M991 852q0 211 -101.5 328.5t-280.5 117.5h-108q-381 0 -381 -446v-315q0 -73 9.5 -133t35.5 -116.5t68 -94.5t110 -61t158 -23h108q90 0 158 23t110 61t68 94.5t36 116.5t10 133v315zM85 537v315q0 81 12 152.5t41.5 139.5t75.5 116.5t119.5 78t167.5 29.5h108
q188 0 302.5 -139.5t114.5 -376.5v-315q0 -83 -12 -156.5t-42 -144t-76 -121t-119.5 -81t-167.5 -30.5h-108q-94 0 -167.5 30.5t-119.5 81t-75.5 121t-41.5 144t-12 156.5zM320 1603l64 64l62 -64l-63 -63zM626 1602l64 64l62 -64l-63 -63z" />
    <glyph glyph-name="multiply" unicode="&#xd7;" horiz-adv-x="836" 
d="M769 334l-60 -59l-308 309l-292 -292l-25 25l292 292l-309 309l59 58l309 -308l292 291l24 -24l-291 -292z" />
    <glyph glyph-name="Oslash" unicode="&#xd8;" horiz-adv-x="1489" 
d="M1157 852q0 102 -24 181l-786 -777q91 -147 320 -147h108q90 0 158 23t110 61t68 94.5t36 116.5t10 133v315zM84 44l213 210q-46 120 -46 283v315q0 81 12 152.5t41.5 139.5t75.5 116.5t119.5 78t167.5 29.5h108q131 0 229 -70.5t146 -198.5l231 228l25 -24l-244 -241
q29 -93 29 -210v-315q0 -83 -12 -156.5t-41.5 -144t-75.5 -121t-119.5 -81t-167.5 -30.5h-108q-252 0 -356 216l-202 -200zM285 537q0 -155 45 -249l791 781q-43 111 -132 170t-214 59h-108q-382 0 -382 -446v-315z" />
    <glyph glyph-name="Ugrave" unicode="&#xd9;" horiz-adv-x="1161" 
d="M1042 1369h34v-855q0 -246 -128 -376t-339 -130h-58q-208 0 -337 130t-129 376v855h35v-855q0 -198 115 -299.5t316 -101.5h58q204 0 318.5 101.5t114.5 299.5v855zM477 1845l46 15l105 -315l-46 -15z" />
    <glyph glyph-name="Uacute" unicode="&#xda;" horiz-adv-x="1161" 
d="M1042 1369h34v-855q0 -246 -128 -376t-339 -130h-58q-208 0 -337 130t-129 376v855h35v-855q0 -198 115 -299.5t316 -101.5h58q204 0 318.5 101.5t114.5 299.5v855zM552 1535l105 315l46 -15l-105 -315z" />
    <glyph glyph-name="Ucircumflex" unicode="&#xdb;" horiz-adv-x="1161" 
d="M1042 1369h34v-855q0 -246 -128 -376t-339 -130h-58q-208 0 -337 130t-129 376v855h35v-855q0 -198 115 -299.5t316 -101.5h58q204 0 318.5 101.5t114.5 299.5v855zM349 1532l232 230l232 -231l-29 -29l-203 201l-203 -201z" />
    <glyph glyph-name="Udieresis" unicode="&#xdc;" horiz-adv-x="1161" 
d="M1042 1369h34v-855q0 -246 -128 -376t-339 -130h-58q-208 0 -337 130t-129 376v855h35v-855q0 -198 115 -299.5t316 -101.5h58q204 0 318.5 101.5t114.5 299.5v855zM365 1603l64 64l63 -64l-64 -63zM671 1602l64 64l62 -64l-63 -63z" />
    <glyph glyph-name="Yacute" unicode="&#xdd;" horiz-adv-x="1151" 
d="M591 555h-8q-64 8 -112 32t-82.5 68t-57 88t-48.5 112l-195 520h91l186 -492q47 -128 92.5 -184t132.5 -67h1q65 -7 115 24.5t71 86.5l247 632h43l-257 -660q-28 -72 -76.5 -113.5t-108.5 -46.5v-555h-34v555zM560 1535l104 315l46 -15l-105 -315z" />
    <glyph glyph-name="Thorn" unicode="&#xde;" horiz-adv-x="920" 
d="M85 142v364v29v135l1 699h34v-424l414 -1q138 1 220 -101.5t82 -304.5v-9q0 -93 -20 -162t-52.5 -110t-81.5 -66t-98.5 -33.5t-112.5 -8.5q-153 0 -234.5 32t-116.5 112v-576h-34v425h-1zM120 486q3 -76 17 -118.5t55 -69.5t104.5 -35.5t174.5 -8.5q64 0 111 6.5t90 24.5
t70 48t43 79.5t16 116.5l-1 21h1q-4 325 -267 325h-414v-389z" />
    <glyph glyph-name="germandbls" unicode="&#xdf;" horiz-adv-x="1115" 
d="M1030 405q4 -78 -16.5 -148t-65 -127.5t-123.5 -91.5t-183 -34h-400v105h400q98 0 170 23t111.5 64t57 90.5t14.5 108.5q-9 134 -108.5 228t-263.5 95h-293v70h370q51 0 88 21t56 56t28 71.5t9 77.5v29q0 60 -12.5 104t-44 83.5t-96 60.5t-160.5 21h-448v-1312h-35v1382
h483q347 0 347 -339q0 -54 -1 -67h-1q-6 -69 -33.5 -132t-77.5 -96q99 -47 159.5 -139t68.5 -204z" />
    <glyph glyph-name="agrave" unicode="&#xe0;" horiz-adv-x="1058" 
d="M780 852h34v-487q0 -89 15.5 -150.5t44.5 -93.5t63 -45t80 -13v-70q-81 0 -141.5 52.5t-83.5 174.5q-69 -231 -350 -231q-95 0 -164.5 29.5t-110 83.5t-60.5 121t-22 150v11v10q5 215 99.5 321.5t257.5 106.5q254 0 338 -235v265zM120 384q1 -69 16 -119t50 -90.5t99 -61
t157 -20.5q97 0 164 20t103.5 59.5t52.5 88.5t16 116q0 80 -17 144.5t-54.5 118.5t-104.5 83.5t-160 29.5q-156 0 -238 -88t-84 -281zM380 1442l46 15l105 -315l-46 -15z" />
    <glyph glyph-name="aacute" unicode="&#xe1;" horiz-adv-x="1058" 
d="M780 852h34v-487q0 -89 15.5 -150.5t44.5 -93.5t63 -45t80 -13v-70q-81 0 -141.5 52.5t-83.5 174.5q-69 -231 -350 -231q-95 0 -164.5 29.5t-110 83.5t-60.5 121t-22 150v11v10q5 215 99.5 321.5t257.5 106.5q254 0 338 -235v265zM120 384q1 -69 16 -119t50 -90.5t99 -61
t157 -20.5q97 0 164 20t103.5 59.5t52.5 88.5t16 116q0 80 -17 144.5t-54.5 118.5t-104.5 83.5t-160 29.5q-156 0 -238 -88t-84 -281zM455 1132l105 315l46 -15l-105 -315z" />
    <glyph glyph-name="acircumflex" unicode="&#xe2;" horiz-adv-x="1058" 
d="M780 852h34v-487q0 -89 15.5 -150.5t44.5 -93.5t63 -45t80 -13v-70q-81 0 -141.5 52.5t-83.5 174.5q-69 -231 -350 -231q-95 0 -164.5 29.5t-110 83.5t-60.5 121t-22 150v11v10q5 215 99.5 321.5t257.5 106.5q254 0 338 -235v265zM120 384q1 -69 16 -119t50 -90.5t99 -61
t157 -20.5q97 0 164 20t103.5 59.5t52.5 88.5t16 116q0 80 -17 144.5t-54.5 118.5t-104.5 83.5t-160 29.5q-156 0 -238 -88t-84 -281zM252 1129l232 230l233 -231l-30 -29l-203 201l-202 -201z" />
    <glyph glyph-name="atilde" unicode="&#xe3;" horiz-adv-x="1058" 
d="M780 852h34v-487q0 -89 15.5 -150.5t44.5 -93.5t63 -45t80 -13v-70q-81 0 -141.5 52.5t-83.5 174.5q-69 -231 -350 -231q-95 0 -164.5 29.5t-110 83.5t-60.5 121t-22 150v11v10q5 215 99.5 321.5t257.5 106.5q254 0 338 -235v265zM120 384q1 -69 16 -119t50 -90.5t99 -61
t157 -20.5q97 0 164 20t103.5 59.5t52.5 88.5t16 116q0 80 -17 144.5t-54.5 118.5t-104.5 83.5t-160 29.5q-156 0 -238 -88t-84 -281zM155 1253q86 47 134.5 62.5t97.5 6t115 -52.5q76 -49 132 -39t150 89l31 -38q-103 -88 -176 -99t-163 46q-58 37 -96 45t-79 -5t-123 -57z
" />
    <glyph glyph-name="adieresis" unicode="&#xe4;" horiz-adv-x="1058" 
d="M780 852h34v-487q0 -89 15.5 -150.5t44.5 -93.5t63 -45t80 -13v-70q-81 0 -141.5 52.5t-83.5 174.5q-69 -231 -350 -231q-95 0 -164.5 29.5t-110 83.5t-60.5 121t-22 150v11v10q5 215 99.5 321.5t257.5 106.5q254 0 338 -235v265zM120 384q1 -69 16 -119t50 -90.5t99 -61
t157 -20.5q97 0 164 20t103.5 59.5t52.5 88.5t16 116q0 80 -17 144.5t-54.5 118.5t-104.5 83.5t-160 29.5q-156 0 -238 -88t-84 -281zM269 1200l64 64l62 -64l-63 -63zM574 1199l64 64l62 -64l-63 -63z" />
    <glyph glyph-name="aring" unicode="&#xe5;" horiz-adv-x="1058" 
d="M780 852h34v-487q0 -89 15.5 -150.5t44.5 -93.5t63 -45t80 -13v-70q-81 0 -141.5 52.5t-83.5 174.5q-69 -231 -350 -231q-95 0 -164.5 29.5t-110 83.5t-60.5 121t-22 150v11v10q5 215 99.5 321.5t257.5 106.5q254 0 338 -235v265zM120 384q1 -69 16 -119t50 -90.5t99 -61
t157 -20.5q97 0 164 20t103.5 59.5t52.5 88.5t16 116q0 80 -17 144.5t-54.5 118.5t-104.5 83.5t-160 29.5q-156 0 -238 -88t-84 -281zM346 1458q0 66 41.5 112t97.5 46t97 -46t41 -112t-41 -112.5t-97 -46.5t-97.5 46t-41.5 113zM370 1458q0 -39 32 -67t83 -28t82.5 27.5
t31.5 67.5q0 39 -31.5 66.5t-82.5 27.5t-83 -27.5t-32 -66.5z" />
    <glyph glyph-name="ae" unicode="&#xe6;" horiz-adv-x="1528" 
d="M780 852h34v-174q42 92 121.5 139.5t170.5 47.5q129 0 212.5 -66t87.5 -203v-6v-6q-6 -253 -291 -252l-300 1q1 -32 7 -79q25 -84 97 -129t162 -49t181.5 14.5t166.5 54.5l14 -80q-98 -47 -206.5 -65.5t-219.5 2.5v-9q-173 0 -221 207l-5 17q-70 -228 -349 -228
q-95 0 -164.5 29.5t-110 83.5t-60.5 121t-22 150v11v10q5 215 99.5 321.5t257.5 106.5q254 0 338 -235v265zM120 384q1 -69 16 -119t50 -90.5t99 -61t157 -20.5q87 0 149.5 16t100.5 47.5t58 72t26 95.5q-1 7 -1 24v95q-14 142 -93 226t-240 84q-156 0 -238 -88t-84 -281z
M814 392l301 -1q138 -1 196 47t60 151q-1 105 -72 155.5t-193 50.5q-107 0 -190 -61t-102 -183v-159z" />
    <glyph glyph-name="ccedilla" unicode="&#xe7;" horiz-adv-x="917" 
d="M120 471q0 -231 175 -318t539 -35v-105q-134 -18 -226 -18v-111q31 -1 55.5 -7.5t39.5 -13.5t25.5 -22.5t15.5 -24.5t7.5 -30.5t2.5 -28v-29.5q0 -24 -4 -43.5t-9 -34t-17 -25.5t-21.5 -18.5t-29.5 -12.5t-32.5 -7.5t-39.5 -4t-43 -1.5h-49h-6v63h5q48 0 70 0.5t54 2.5
t44.5 7.5t27.5 14.5t20 23.5t5 35.5q0 26 -1 37t-8 25t-22.5 19t-43 9t-71.5 3v175q-240 5 -364.5 114t-132.5 331h-1v30v1q0 144 81.5 246t238.5 143t388 -8v-71q-223 50 -372.5 16.5t-225 -119.5t-75.5 -207v-1z" />
    <glyph glyph-name="egrave" unicode="&#xe8;" horiz-adv-x="838" 
d="M716 614v-5v-6q-6 -253 -291 -252h-305q4 -92 49.5 -152t113.5 -82t151 -22.5t161.5 18.5t143.5 51l15 -80q-62 -30 -132.5 -49t-146 -25.5t-145 10.5t-124.5 55t-88 113t-33 179v135q0 95 28.5 170t76.5 120t105.5 68.5t120.5 23.5q129 0 212.5 -66.5t87.5 -203.5z
M120 410h305q138 -1 196.5 47t60.5 151q-1 105 -72.5 155.5t-193.5 50.5q-57 0 -108 -18t-94 -53.5t-68.5 -97.5t-25.5 -143v-92zM314 1399l46 15l104 -315l-45 -14z" />
    <glyph glyph-name="eacute" unicode="&#xe9;" horiz-adv-x="838" 
d="M716 614v-5v-6q-6 -253 -291 -252h-305q4 -92 49.5 -152t113.5 -82t151 -22.5t161.5 18.5t143.5 51l15 -80q-62 -30 -132.5 -49t-146 -25.5t-145 10.5t-124.5 55t-88 113t-33 179v135q0 95 28.5 170t76.5 120t105.5 68.5t120.5 23.5q129 0 212.5 -66.5t87.5 -203.5z
M120 410h305q138 -1 196.5 47t60.5 151q-1 105 -72.5 155.5t-193.5 50.5q-57 0 -108 -18t-94 -53.5t-68.5 -97.5t-25.5 -143v-92zM389 1090l105 314l46 -15l-105 -314z" />
    <glyph glyph-name="ecircumflex" unicode="&#xea;" horiz-adv-x="838" 
d="M716 614v-5v-6q-6 -253 -291 -252h-305q4 -92 49.5 -152t113.5 -82t151 -22.5t161.5 18.5t143.5 51l15 -80q-62 -30 -132.5 -49t-146 -25.5t-145 10.5t-124.5 55t-88 113t-33 179v135q0 95 28.5 170t76.5 120t105.5 68.5t120.5 23.5q129 0 212.5 -66.5t87.5 -203.5z
M120 410h305q138 -1 196.5 47t60.5 151q-1 105 -72.5 155.5t-193.5 50.5q-57 0 -108 -18t-94 -53.5t-68.5 -97.5t-25.5 -143v-92zM186 1086l232 230l232 -231l-29 -29l-203 201l-203 -200z" />
    <glyph glyph-name="edieresis" unicode="&#xeb;" horiz-adv-x="838" 
d="M716 614v-5v-6q-6 -253 -291 -252h-305q4 -92 49.5 -152t113.5 -82t151 -22.5t161.5 18.5t143.5 51l15 -80q-62 -30 -132.5 -49t-146 -25.5t-145 10.5t-124.5 55t-88 113t-33 179v135q0 95 28.5 170t76.5 120t105.5 68.5t120.5 23.5q129 0 212.5 -66.5t87.5 -203.5z
M120 410h305q138 -1 196.5 47t60.5 151q-1 105 -72.5 155.5t-193.5 50.5q-57 0 -108 -18t-94 -53.5t-68.5 -97.5t-25.5 -143v-92zM202 1158l64 63l62 -63l-63 -64zM508 1157l64 64l62 -64l-63 -63z" />
    <glyph glyph-name="igrave" unicode="&#xec;" horiz-adv-x="382" 
d="M209 0h-35v899h35v-899zM87 1388l46 14l105 -314l-46 -15z" />
    <glyph glyph-name="iacute" unicode="&#xed;" horiz-adv-x="382" 
d="M209 0h-35v899h35v-899zM162 1078l105 315l46 -15l-105 -315z" />
    <glyph glyph-name="icircumflex" unicode="&#xee;" horiz-adv-x="382" 
d="M209 0h-35v899h35v-899zM-41 1075l232 230l233 -231l-30 -30l-203 202l-202 -201z" />
    <glyph glyph-name="idieresis" unicode="&#xef;" horiz-adv-x="382" 
d="M209 0h-35v899h35v-899zM-25 1146l64 64l63 -64l-63 -63zM281 1145l64 64l62 -64l-63 -63z" />
    <glyph glyph-name="eth" unicode="&#xf0;" horiz-adv-x="1070" 
d="M545 753l-13 20l257 171q-58 58 -194 58h-440v52h440q158 0 228 -88l150 100l13 -20l-150 -99q38 -62 38 -157v-403q0 -95 -30.5 -170.5t-81.5 -121.5t-115.5 -70.5t-135.5 -24.5h-72q-181 0 -265 77.5t-89 248.5v9q0 8 1 12q11 250 329 250h425v193q0 86 -36 135z
M120 335q2 -126 71 -178t248 -52h72q146 0 237.5 74.5t91.5 207.5v141h-425q-86 0 -145.5 -14t-91 -41.5t-44.5 -60.5t-14 -77z" />
    <glyph glyph-name="ntilde" unicode="&#xf1;" horiz-adv-x="937" 
d="M120 0h-35v885h35v-212q25 68 67.5 113.5t95.5 66t97.5 27.5t98.5 7h26q159 0 253.5 -112t94.5 -320v-455h-35v455q0 168 -80 253t-233 85h-26q-56 0 -99 -5.5t-94.5 -26t-85.5 -56t-57 -101t-23 -154.5v-450zM150 1187q86 47 134.5 62.5t97.5 6t115 -52.5
q76 -49 132 -39t150 89l31 -38q-103 -88 -176 -99t-163 46q-44 28 -72 39.5t-63 8t-67.5 -17.5t-95.5 -48z" />
    <glyph glyph-name="ograve" unicode="&#xf2;" horiz-adv-x="935" 
d="M850 484q3 -128 -13.5 -215t-59.5 -148.5t-116.5 -89t-184.5 -27.5q-98 0 -167 19t-113.5 54.5t-69.5 96t-34 134t-7 176.5v2q0 418 391 418q173 0 271.5 -103t102.5 -315v-2zM120 446q0 -102 13 -162t52 -102t107.5 -57.5t183.5 -15.5q106 0 171 16.5t103.5 59t52 103.5
t13.5 162v36q-4 184 -91.5 266t-248.5 82q-180 0 -268 -80.5t-88 -267.5v-40zM378 1368l46 15l104 -315l-45 -15z" />
    <glyph glyph-name="oacute" unicode="&#xf3;" horiz-adv-x="935" 
d="M850 484q3 -128 -13.5 -215t-59.5 -148.5t-116.5 -89t-184.5 -27.5q-98 0 -167 19t-113.5 54.5t-69.5 96t-34 134t-7 176.5v2q0 418 391 418q173 0 271.5 -103t102.5 -315v-2zM120 446q0 -102 13 -162t52 -102t107.5 -57.5t183.5 -15.5q106 0 171 16.5t103.5 59t52 103.5
t13.5 162v36q-4 184 -91.5 266t-248.5 82q-180 0 -268 -80.5t-88 -267.5v-40zM453 1058l105 315l46 -15l-105 -314z" />
    <glyph glyph-name="ocircumflex" unicode="&#xf4;" horiz-adv-x="935" 
d="M850 484q3 -128 -13.5 -215t-59.5 -148.5t-116.5 -89t-184.5 -27.5q-98 0 -167 19t-113.5 54.5t-69.5 96t-34 134t-7 176.5v2q0 418 391 418q173 0 271.5 -103t102.5 -315v-2zM120 446q0 -102 13 -162t52 -102t107.5 -57.5t183.5 -15.5q106 0 171 16.5t103.5 59t52 103.5
t13.5 162v36q-4 184 -91.5 266t-248.5 82q-180 0 -268 -80.5t-88 -267.5v-40zM250 1055l232 230l232 -231l-29 -29l-203 201l-203 -200z" />
    <glyph glyph-name="otilde" unicode="&#xf5;" horiz-adv-x="935" 
d="M850 484q3 -128 -13.5 -215t-59.5 -148.5t-116.5 -89t-184.5 -27.5q-98 0 -167 19t-113.5 54.5t-69.5 96t-34 134t-7 176.5v2q0 418 391 418q173 0 271.5 -103t102.5 -315v-2zM120 446q0 -102 13 -162t52 -102t107.5 -57.5t183.5 -15.5q106 0 171 16.5t103.5 59t52 103.5
t13.5 162v36q-4 184 -91.5 266t-248.5 82q-180 0 -268 -80.5t-88 -267.5v-40zM152 1180q86 47 135 62t98 5.5t115 -52.5q76 -49 132 -39t150 89l31 -37q-103 -88 -176.5 -99.5t-163.5 45.5q-58 37 -96 45t-79 -5t-123 -57z" />
    <glyph glyph-name="odieresis" unicode="&#xf6;" horiz-adv-x="935" 
d="M850 484q3 -128 -13.5 -215t-59.5 -148.5t-116.5 -89t-184.5 -27.5q-98 0 -167 19t-113.5 54.5t-69.5 96t-34 134t-7 176.5v2q0 418 391 418q173 0 271.5 -103t102.5 -315v-2zM120 446q0 -102 13 -162t52 -102t107.5 -57.5t183.5 -15.5q106 0 171 16.5t103.5 59t52 103.5
t13.5 162v36q-4 184 -91.5 266t-248.5 82q-180 0 -268 -80.5t-88 -267.5v-40zM266 1126l64 64l62 -64l-63 -63zM572 1126l64 63l62 -63l-63 -63z" />
    <glyph glyph-name="divide" unicode="&#xf7;" horiz-adv-x="1075" 
d="M992 635v-35h-908v35h908z" />
    <glyph glyph-name="oslash" unicode="&#xf8;" horiz-adv-x="1147" 
d="M900 484q3 -128 -13.5 -215t-59.5 -148.5t-116.5 -89t-184.5 -27.5q-236 0 -320 117l-97 -98l-25 25l102 104q-56 104 -51 332v2q0 418 391 418q186 0 283 -116l231 236l24 -25l-234 -240q67 -103 70 -273v-2zM170 446q0 -96 12 -156.5t43 -97.5l549 561q-84 81 -248 81
q-180 0 -268 -80.5t-88 -267.5v-40zM250 167q73 -58 276 -58q106 0 171 16.5t103.5 59t52 103.5t13.5 162v36q-3 156 -69 241z" />
    <glyph glyph-name="ugrave" unicode="&#xf9;" horiz-adv-x="1033" 
d="M712 879h34v-27h1v-487q0 -89 15.5 -150.5t44.5 -93.5t63 -45t80 -13v-70q-182 0 -225 228q-28 -103 -97 -160t-197 -57h-30q-79 0 -137.5 24.5t-92 63t-53.5 97.5t-26.5 115.5t-6.5 128.5v446h35v-446q0 -66 5 -110t21.5 -88t46.5 -69.5t82 -41t126 -15.5h30
q75 0 127 16t82 41t46.5 69t21 88t4.5 110v446zM413 1355l46 15l105 -315l-46 -15z" />
    <glyph glyph-name="uacute" unicode="&#xfa;" horiz-adv-x="1033" 
d="M712 879h34v-27h1v-487q0 -89 15.5 -150.5t44.5 -93.5t63 -45t80 -13v-70q-182 0 -225 228q-28 -103 -97 -160t-197 -57h-30q-79 0 -137.5 24.5t-92 63t-53.5 97.5t-26.5 115.5t-6.5 128.5v446h35v-446q0 -66 5 -110t21.5 -88t46.5 -69.5t82 -41t126 -15.5h30
q75 0 127 16t82 41t46.5 69t21 88t4.5 110v446zM488 1045l105 315l46 -15l-105 -314z" />
    <glyph glyph-name="ucircumflex" unicode="&#xfb;" horiz-adv-x="1033" 
d="M712 879h34v-27h1v-487q0 -89 15.5 -150.5t44.5 -93.5t63 -45t80 -13v-70q-182 0 -225 228q-28 -103 -97 -160t-197 -57h-30q-79 0 -137.5 24.5t-92 63t-53.5 97.5t-26.5 115.5t-6.5 128.5v446h35v-446q0 -66 5 -110t21.5 -88t46.5 -69.5t82 -41t126 -15.5h30
q75 0 127 16t82 41t46.5 69t21 88t4.5 110v446zM285 1042l232 230l233 -231l-30 -29l-203 201l-202 -200z" />
    <glyph glyph-name="udieresis" unicode="&#xfc;" horiz-adv-x="1033" 
d="M712 879h34v-27h1v-487q0 -89 15.5 -150.5t44.5 -93.5t63 -45t80 -13v-70q-182 0 -225 228q-28 -103 -97 -160t-197 -57h-30q-79 0 -137.5 24.5t-92 63t-53.5 97.5t-26.5 115.5t-6.5 128.5v446h35v-446q0 -66 5 -110t21.5 -88t46.5 -69.5t82 -41t126 -15.5h30
q75 0 127 16t82 41t46.5 69t21 88t4.5 110v446zM301 1113l64 64l63 -64l-63 -63zM607 1112l64 64l62 -64l-63 -63z" />
    <glyph glyph-name="yacute" unicode="&#xfd;" horiz-adv-x="831" 
d="M712 903h34v-918q0 -309 -150.5 -443t-487.5 -134v69q327 0 465.5 115.5t138.5 392.5v196q-66 -177 -281 -177h-30q-79 0 -137.5 24.5t-92 63t-53.5 97.5t-26.5 115.5t-6.5 128.5v470h35v-470q0 -66 5 -110t21.5 -88t46.5 -69.5t82 -41t126 -15.5h30q75 0 127 16t82 41
t46.5 69t21 88t4.5 110v470zM387 1045l105 315l45 -15l-104 -314z" />
    <glyph glyph-name="thorn" unicode="&#xfe;" horiz-adv-x="920" 
d="M85 77v365v28v135l1 699h34v-423l414 -2q138 1 220 -101.5t82 -304.5v-9q0 -93 -20 -162t-52.5 -110t-81.5 -66t-98.5 -33.5t-112.5 -8.5q-153 0 -234.5 32.5t-116.5 112.5v-577h-34v425h-1zM120 421q3 -76 17 -118.5t55 -69.5t104.5 -35.5t174.5 -8.5q64 0 111 6.5
t90 24.5t70 48t43 79.5t16 116.5l-1 21h1q-4 325 -267 325h-414v-389z" />
    <glyph glyph-name="ydieresis" unicode="&#xff;" horiz-adv-x="831" 
d="M712 903h34v-918q0 -309 -150.5 -443t-487.5 -134v69q327 0 465.5 115.5t138.5 392.5v196q-66 -177 -281 -177h-30q-79 0 -137.5 24.5t-92 63t-53.5 97.5t-26.5 115.5t-6.5 128.5v470h35v-470q0 -66 5 -110t21.5 -88t46.5 -69.5t82 -41t126 -15.5h30q75 0 127 16t82 41
t46.5 69t21 88t4.5 110v470zM200 1113l64 64l62 -64l-63 -63zM505 1112l64 64l63 -64l-63 -63z" />
    <glyph glyph-name="Amacron" unicode="&#x100;" horiz-adv-x="1288" 
d="M1203 0h-71l-111 496h-714l-115 -496h-104l236 1011q23 99 50.5 160t69.5 96.5t92.5 48t129.5 13.5h5h7q81 -2 134 -23.5t84.5 -75t43.5 -91.5t32 -125q1 -2 1 -3zM290 1593v43h723v-43h-723zM315 530h698l-107 473q-8 37 -12 53.5t-12 47t-13.5 43.5t-14.5 36.5
t-17.5 33.5t-21.5 26t-27 22.5t-32 14.5t-39.5 11t-46.5 3q-61 0 -93 -8t-61.5 -39.5t-48 -86t-42.5 -157.5z" />
    <glyph glyph-name="amacron" unicode="&#x101;" horiz-adv-x="1058" 
d="M780 852h34v-487q0 -89 15.5 -150.5t44.5 -93.5t63 -45t80 -13v-70q-81 0 -141.5 52.5t-83.5 174.5q-69 -231 -350 -231q-95 0 -164.5 29.5t-110 83.5t-60.5 121t-22 150v11v10q5 215 99.5 321.5t257.5 106.5q254 0 338 -235v265zM120 384q1 -69 16 -119t50 -90.5t99 -61
t157 -20.5q97 0 164 20t103.5 59.5t52.5 88.5t16 116q0 80 -17 144.5t-54.5 118.5t-104.5 83.5t-160 29.5q-156 0 -238 -88t-84 -281zM124 1190v43h722v-43h-722z" />
    <glyph glyph-name="Abreve" unicode="&#x102;" horiz-adv-x="1288" 
d="M1203 0h-71l-111 496h-714l-115 -496h-104l236 1011q23 99 50.5 160t69.5 96.5t92.5 48t129.5 13.5h5h7q81 -2 134 -23.5t84.5 -75t43.5 -91.5t32 -125q1 -2 1 -3zM315 530h698l-107 473q-8 37 -12 53.5t-12 47t-13.5 43.5t-14.5 36.5t-17.5 33.5t-21.5 26t-27 22.5
t-32 14.5t-39.5 11t-46.5 3q-61 0 -93 -8t-61.5 -39.5t-48 -86t-42.5 -157.5zM481 1704v103h24v-103q0 -45 21.5 -78.5t53.5 -48t70 -14.5t70 14.5t53.5 48t21.5 78.5v103h25v-103q0 -63 -25 -109t-63 -67t-81.5 -21t-81.5 21t-63 67t-25 109z" />
    <glyph glyph-name="abreve" unicode="&#x103;" horiz-adv-x="1058" 
d="M780 852h34v-487q0 -89 15.5 -150.5t44.5 -93.5t63 -45t80 -13v-70q-81 0 -141.5 52.5t-83.5 174.5q-69 -231 -350 -231q-95 0 -164.5 29.5t-110 83.5t-60.5 121t-22 150v11v10q5 215 99.5 321.5t257.5 106.5q254 0 338 -235v265zM120 384q1 -69 16 -119t50 -90.5t99 -61
t157 -20.5q97 0 164 20t103.5 59.5t52.5 88.5t16 116q0 80 -17 144.5t-54.5 118.5t-104.5 83.5t-160 29.5q-156 0 -238 -88t-84 -281zM315 1301v103h24v-103q0 -39 16 -69.5t41.5 -46t56.5 -23t62 0t56.5 23t41.5 46t16 69.5v103h25v-103q0 -63 -25 -109t-63 -67t-81.5 -21
t-81.5 21t-63 67t-25 109z" />
    <glyph glyph-name="Aogonek" unicode="&#x104;" horiz-adv-x="1288" 
d="M1203 0h-18v-130q0 -51 38 -71.5t139 -20.5v-64q-108 0 -155 35t-47 121v130h-28l-111 496h-714l-115 -496h-104l236 1011q23 99 50.5 160t69.5 96.5t92.5 48t129.5 13.5h5h7q81 -2 134 -23.5t84.5 -75t43.5 -91.5t32 -125q1 -2 1 -3zM315 530h698l-107 473
q-8 37 -12 53.5t-12 47t-13.5 43.5t-14.5 36.5t-17.5 33.5t-21.5 26t-27 22.5t-32 14.5t-39.5 11t-46.5 3q-61 0 -93 -8t-61.5 -39.5t-48 -86t-42.5 -157.5z" />
    <glyph glyph-name="aogonek" unicode="&#x105;" horiz-adv-x="1058" 
d="M780 852h34v-487q0 -89 15.5 -150.5t44.5 -93.5t63 -45t80 -13v-70q-81 0 -141.5 52.5t-83.5 174.5q-69 -231 -350 -231q-95 0 -164.5 29.5t-110 83.5t-60.5 121t-22 150v11v10q5 215 99.5 321.5t257.5 106.5q254 0 338 -235v265zM120 384q1 -69 16 -119t50 -90.5t99 -61
t157 -20.5q97 0 164 20t103.5 59.5t52.5 88.5t16 116q0 80 -17 144.5t-54.5 118.5t-104.5 83.5t-160 29.5q-156 0 -238 -88t-84 -281zM865 -139v139h25v-139q0 -51 38 -71.5t139 -20.5v-64q-108 0 -155 35t-47 121z" />
    <glyph glyph-name="Cacute" unicode="&#x106;" horiz-adv-x="1013" 
d="M930 2h-157q-114 0 -196.5 5.5t-155.5 21t-121.5 38.5t-88 63t-62 89.5t-38 124t-21 159.5t-5.5 202v5q0 102 6 176.5t23 147t47 121.5t77.5 91.5t115 67t159 38t210.5 13.5h158v-70h-158q-100 0 -179 -7.5t-140.5 -25.5t-106 -41.5t-76 -61.5t-51 -79.5t-31 -102
t-15.5 -122t-4 -145.5v-5q0 -106 3.5 -178t17 -138.5t32.5 -106.5t56.5 -74.5t81 -51.5t115.5 -29.5t151.5 -16t195.5 -3.5h157v-105zM689 1535l105 315l46 -15l-105 -315z" />
    <glyph glyph-name="cacute" unicode="&#x107;" horiz-adv-x="917" 
d="M120 471q0 -231 175 -318t539 -35v-105q-363 -52 -550.5 51t-197.5 377h-1v30v1q0 144 81.5 246t238.5 143t388 -8v-71q-223 50 -372.5 16.5t-225 -119.5t-75.5 -207v-1zM488 1098l105 314l46 -14l-105 -315z" />
    <glyph glyph-name="Ccircumflex" unicode="&#x108;" horiz-adv-x="1013" 
d="M930 2h-157q-114 0 -196.5 5.5t-155.5 21t-121.5 38.5t-88 63t-62 89.5t-38 124t-21 159.5t-5.5 202v5q0 102 6 176.5t23 147t47 121.5t77.5 91.5t115 67t159 38t210.5 13.5h158v-70h-158q-100 0 -179 -7.5t-140.5 -25.5t-106 -41.5t-76 -61.5t-51 -79.5t-31 -102
t-15.5 -122t-4 -145.5v-5q0 -106 3.5 -178t17 -138.5t32.5 -106.5t56.5 -74.5t81 -51.5t115.5 -29.5t151.5 -16t195.5 -3.5h157v-105zM486 1532l232 230l232 -231l-29 -29l-203 201l-203 -201z" />
    <glyph glyph-name="ccircumflex" unicode="&#x109;" horiz-adv-x="917" 
d="M120 471q0 -231 175 -318t539 -35v-105q-363 -52 -550.5 51t-197.5 377h-1v30v1q0 144 81.5 246t238.5 143t388 -8v-71q-223 50 -372.5 16.5t-225 -119.5t-75.5 -207v-1zM285 1094l232 231l233 -231l-30 -30l-203 202l-202 -201z" />
    <glyph glyph-name="Cdotaccent" unicode="&#x10a;" horiz-adv-x="1013" 
d="M930 2h-157q-114 0 -196.5 5.5t-155.5 21t-121.5 38.5t-88 63t-62 89.5t-38 124t-21 159.5t-5.5 202v5q0 102 6 176.5t23 147t47 121.5t77.5 91.5t115 67t159 38t210.5 13.5h158v-70h-158q-100 0 -179 -7.5t-140.5 -25.5t-106 -41.5t-76 -61.5t-51 -79.5t-31 -102
t-15.5 -122t-4 -145.5v-5q0 -106 3.5 -178t17 -138.5t32.5 -106.5t56.5 -74.5t81 -51.5t115.5 -29.5t151.5 -16t195.5 -3.5h157v-105zM655 1636l64 64l63 -64l-64 -63z" />
    <glyph glyph-name="cdotaccent" unicode="&#x10b;" horiz-adv-x="917" 
d="M120 471q0 -231 175 -318t539 -35v-105q-363 -52 -550.5 51t-197.5 377h-1v30v1q0 144 81.5 246t238.5 143t388 -8v-71q-223 50 -372.5 16.5t-225 -119.5t-75.5 -207v-1zM455 1198l64 64l62 -64l-63 -63z" />
    <glyph glyph-name="Ccaron" unicode="&#x10c;" horiz-adv-x="1013" 
d="M930 2h-157q-114 0 -196.5 5.5t-155.5 21t-121.5 38.5t-88 63t-62 89.5t-38 124t-21 159.5t-5.5 202v5q0 102 6 176.5t23 147t47 121.5t77.5 91.5t115 67t159 38t210.5 13.5h158v-70h-158q-100 0 -179 -7.5t-140.5 -25.5t-106 -41.5t-76 -61.5t-51 -79.5t-31 -102
t-15.5 -122t-4 -145.5v-5q0 -106 3.5 -178t17 -138.5t32.5 -106.5t56.5 -74.5t81 -51.5t115.5 -29.5t151.5 -16t195.5 -3.5h157v-105zM486 1766l29 30l203 -201l203 202l29 -30l-232 -231z" />
    <glyph glyph-name="ccaron" unicode="&#x10d;" horiz-adv-x="917" 
d="M120 471q0 -231 175 -318t539 -35v-105q-363 -52 -550.5 51t-197.5 377h-1v30v1q0 144 81.5 246t238.5 143t388 -8v-71q-223 50 -372.5 16.5t-225 -119.5t-75.5 -207v-1zM285 1329l30 29l202 -200l203 201l30 -29l-233 -231z" />
    <glyph glyph-name="Dcaron" unicode="&#x10e;" horiz-adv-x="1146" 
d="M120 0h-35l1 1369h34v-3h253q168 0 291.5 -32t199 -86t120.5 -138t61.5 -175t16.5 -211v-72q-2 -126 -25 -226t-57.5 -167.5t-90 -115.5t-110 -74.5t-132 -41.5t-140 -19t-148.5 -4h-239v-4zM120 109h239q67 0 117 2t110 8.5t104.5 18.5t93 33.5t82.5 51t66.5 72.5t52 97
t31 126.5t11.5 159.5v46q0 93 -10.5 164t-36 138.5t-73 115t-119 84t-175.5 54t-240 17.5h-253v-1188zM338 1766l29 30l202 -201l204 202l29 -30l-233 -231z" />
    <glyph glyph-name="dcaron" unicode="&#x10f;" horiz-adv-x="937" 
d="M818 0v236q-44 -114 -134.5 -173t-195.5 -59h-37q-50 0 -97.5 11.5t-95 40.5t-84 72t-61 112t-27.5 155h-1v46q0 179 98 293t250 114h26q68 0 134 -21.5t129 -74.5t96 -131v370l-36 12l36 110v256h35v-152l33 100l46 -14l-79 -239v-1064h-35zM120 424q0 -85 28 -148
t76.5 -98.5t105 -52t121.5 -16.5h37q143 0 236.5 84t93.5 244q0 73 -22 132t-57.5 97t-83 64t-96.5 37t-100 11h-26q-142 0 -227.5 -92.5t-85.5 -244.5v-17z" />
    <glyph glyph-name="Dcroat" unicode="&#x110;" horiz-adv-x="1404" 
d="M385 0h-34v657h-276v34h276v678h35v-3h252q168 0 291.5 -32t199 -86t120.5 -138t61.5 -175t16.5 -211v-72q-2 -126 -25 -226t-57.5 -167.5t-90 -115.5t-110 -74.5t-132 -41.5t-140 -19t-148.5 -4h-239v-4zM385 109h239q67 0 117 2t110 8.5t104.5 18.5t93 33.5t83 51
t66.5 72.5t52 97t31.5 126.5t11.5 159.5v46q0 93 -10.5 164t-36.5 138.5t-73.5 115t-118.5 84t-175.5 54t-240.5 17.5h-252v-606h441v-34h-442v-548z" />
    <glyph glyph-name="dcroat" unicode="&#x111;" horiz-adv-x="1232" 
d="M818 0v236q-44 -114 -134.5 -173t-195.5 -59h-37q-50 0 -97.5 11.5t-95 40.5t-84 72t-61 112t-27.5 155h-1v46q0 179 98 293t250 114h26q68 0 134 -21.5t129 -74.5t96 -131v532h-254v34h254v182h35v-182h296v-34h-296v-1153h-35zM120 424q0 -85 28 -148t76.5 -98.5
t105 -52t121.5 -16.5h37q143 0 236.5 84t93.5 244q0 73 -22 132t-57.5 97t-83 64t-96.5 37t-100 11h-26q-142 0 -227.5 -92.5t-85.5 -244.5v-17z" />
    <glyph glyph-name="Emacron" unicode="&#x112;" horiz-adv-x="1051" 
d="M968 109v-105h-511q-183 0 -277.5 111.5t-94.5 330.5v920h882v-69h-847v-540h752v-34h-752v-277q0 -175 79 -256t258 -81h511zM104 1593v43h723v-43h-723z" />
    <glyph glyph-name="emacron" unicode="&#x113;" horiz-adv-x="838" 
d="M716 614v-5v-6q-6 -253 -291 -252h-305q4 -92 49.5 -152t113.5 -82t151 -22.5t161.5 18.5t143.5 51l15 -80q-62 -30 -132.5 -49t-146 -25.5t-145 10.5t-124.5 55t-88 113t-33 179v135q0 95 28.5 170t76.5 120t105.5 68.5t120.5 23.5q129 0 212.5 -66.5t87.5 -203.5z
M57 1148v42h723v-42h-723zM120 410h305q138 -1 196.5 47t60.5 151q-1 105 -72.5 155.5t-193.5 50.5q-57 0 -108 -18t-94 -53.5t-68.5 -97.5t-25.5 -143v-92z" />
    <glyph glyph-name="Edotaccent" unicode="&#x116;" horiz-adv-x="1051" 
d="M968 109v-105h-511q-183 0 -277.5 111.5t-94.5 330.5v920h882v-69h-847v-540h752v-34h-752v-277q0 -175 79 -256t258 -81h511zM402 1636l64 64l62 -64l-63 -63z" />
    <glyph glyph-name="edotaccent" unicode="&#x117;" horiz-adv-x="838" 
d="M716 614v-5v-6q-6 -253 -291 -252h-305q4 -92 49.5 -152t113.5 -82t151 -22.5t161.5 18.5t143.5 51l15 -80q-62 -30 -132.5 -49t-146 -25.5t-145 10.5t-124.5 55t-88 113t-33 179v135q0 95 28.5 170t76.5 120t105.5 68.5t120.5 23.5q129 0 212.5 -66.5t87.5 -203.5z
M120 410h305q138 -1 196.5 47t60.5 151q-1 105 -72.5 155.5t-193.5 50.5q-57 0 -108 -18t-94 -53.5t-68.5 -97.5t-25.5 -143v-92zM356 1190l63 64l63 -64l-63 -63z" />
    <glyph glyph-name="Eogonek" unicode="&#x118;" horiz-adv-x="1051" 
d="M968 109v-105h-274v-134q0 -51 38.5 -71.5t139.5 -20.5v-64q-108 0 -155.5 35t-47.5 121v134h-212q-183 0 -277.5 111.5t-94.5 330.5v920h882v-69h-847v-540h752v-34h-752v-277q0 -175 79 -256t258 -81h511z" />
    <glyph glyph-name="eogonek" unicode="&#x119;" horiz-adv-x="838" 
d="M716 614v-5v-6q-6 -253 -291 -252h-305q4 -92 49.5 -152t113.5 -82t151 -22.5t161.5 18.5t143.5 51l15 -80q-62 -30 -132.5 -49t-146 -25.5t-145 10.5t-124.5 55t-88 113t-33 179v135q0 95 28.5 170t76.5 120t105.5 68.5t120.5 23.5q129 0 212.5 -66.5t87.5 -203.5z
M120 410h305q138 -1 196.5 47t60.5 151q-1 105 -72.5 155.5t-193.5 50.5q-57 0 -108 -18t-94 -53.5t-68.5 -97.5t-25.5 -143v-92zM446 -142v140h25v-140q0 -50 38 -70.5t140 -20.5v-64q-108 0 -155.5 34.5t-47.5 120.5z" />
    <glyph glyph-name="Ecaron" unicode="&#x11a;" horiz-adv-x="1051" 
d="M968 109v-105h-511q-183 0 -277.5 111.5t-94.5 330.5v920h882v-69h-847v-540h752v-34h-752v-277q0 -175 79 -256t258 -81h511zM233 1766l29 30l202 -201l204 202l29 -30l-233 -231z" />
    <glyph glyph-name="ecaron" unicode="&#x11b;" horiz-adv-x="838" 
d="M716 614v-5v-6q-6 -253 -291 -252h-305q4 -92 49.5 -152t113.5 -82t151 -22.5t161.5 18.5t143.5 51l15 -80q-62 -30 -132.5 -49t-146 -25.5t-145 10.5t-124.5 55t-88 113t-33 179v135q0 95 28.5 170t76.5 120t105.5 68.5t120.5 23.5q129 0 212.5 -66.5t87.5 -203.5z
M120 410h305q138 -1 196.5 47t60.5 151q-1 105 -72.5 155.5t-193.5 50.5q-57 0 -108 -18t-94 -53.5t-68.5 -97.5t-25.5 -143v-92zM186 1321l29 29l203 -201l203 202l29 -30l-232 -231z" />
    <glyph glyph-name="Gcircumflex" unicode="&#x11c;" horiz-adv-x="1266" 
d="M1180 729v-5h1v-258q0 -219 -117 -340.5t-325 -121.5h-64q-98 2 -181.5 23t-160 70t-130.5 122.5t-86 188t-32 260.5v5q0 174 43.5 307t124.5 217t193.5 126.5t253.5 42.5v-1q55 -1 97.5 -3.5t82 -10t62.5 -12.5t70.5 -17.5t74.5 -19.5l-8 -67q-22 5 -74 19t-73 18
t-64.5 11.5t-90 9.5t-109.5 2q-264 -8 -406 -162t-142 -460v-5q0 -154 44 -265.5t124.5 -174t181 -91t226.5 -28.5h43q202 0 305 92t103 265v211h-525v52h558zM477 1532l232 230l232 -231l-29 -29l-203 201l-203 -201z" />
    <glyph glyph-name="gcircumflex" unicode="&#x11d;" horiz-adv-x="935" 
d="M211 -390q328 0 466.5 115.5t138.5 392.5v144q-37 -118 -130.5 -186.5t-231.5 -68.5q-181 0 -271 100t-97 299h-1v18q0 11 1 17q7 213 104.5 320t263.5 107q150 0 239 -78t123 -208v295h34v-759q0 -310 -151 -444t-488 -134v70zM120 424q3 -164 78.5 -238t255.5 -74
q174 0 261 81t88 215q0 83 -18 150t-56.5 122.5t-108.5 86.5t-166 31q-327 0 -334 -374zM319 1037l232 230l232 -231l-29 -29l-203 201l-203 -200z" />
    <glyph glyph-name="Gbreve" unicode="&#x11e;" horiz-adv-x="1266" 
d="M1180 729v-5h1v-258q0 -219 -117 -340.5t-325 -121.5h-64q-98 2 -181.5 23t-160 70t-130.5 122.5t-86 188t-32 260.5v5q0 174 43.5 307t124.5 217t193.5 126.5t253.5 42.5v-1q55 -1 97.5 -3.5t82 -10t62.5 -12.5t70.5 -17.5t74.5 -19.5l-8 -67q-22 5 -74 19t-73 18
t-64.5 11.5t-90 9.5t-109.5 2q-264 -8 -406 -162t-142 -460v-5q0 -154 44 -265.5t124.5 -174t181 -91t226.5 -28.5h43q202 0 305 92t103 265v211h-525v52h558zM539 1704v103h25v-103q0 -45 21.5 -78.5t53.5 -48t70 -14.5t70 14.5t53.5 48t21.5 78.5v103h24v-103
q0 -63 -25 -109t-63 -67t-81.5 -21t-81.5 21t-63 67t-25 109z" />
    <glyph glyph-name="gbreve" unicode="&#x11f;" horiz-adv-x="935" 
d="M211 -390q328 0 466.5 115.5t138.5 392.5v144q-37 -118 -130.5 -186.5t-231.5 -68.5q-181 0 -271 100t-97 299h-1v18q0 11 1 17q7 213 104.5 320t263.5 107q150 0 239 -78t123 -208v295h34v-759q0 -310 -151 -444t-488 -134v70zM120 424q3 -164 78.5 -238t255.5 -74
q174 0 261 81t88 215q0 83 -18 150t-56.5 122.5t-108.5 86.5t-166 31q-327 0 -334 -374zM381 1209v103h25v-103q0 -39 16 -69.5t41.5 -46t56.5 -23t62 0t56.5 23t41.5 46t16 69.5v103h24v-103q0 -63 -25 -109t-63 -67t-81.5 -21t-81.5 21t-63 67t-25 109z" />
    <glyph glyph-name="Gdotaccent" unicode="&#x120;" horiz-adv-x="1266" 
d="M1180 729v-5h1v-258q0 -219 -117 -340.5t-325 -121.5h-64q-98 2 -181.5 23t-160 70t-130.5 122.5t-86 188t-32 260.5v5q0 174 43.5 307t124.5 217t193.5 126.5t253.5 42.5v-1q55 -1 97.5 -3.5t82 -10t62.5 -12.5t70.5 -17.5t74.5 -19.5l-8 -67q-22 5 -74 19t-73 18
t-64.5 11.5t-90 9.5t-109.5 2q-264 -8 -406 -162t-142 -460v-5q0 -154 44 -265.5t124.5 -174t181 -91t226.5 -28.5h43q202 0 305 92t103 265v211h-525v52h558zM646 1636l64 64l63 -64l-64 -63z" />
    <glyph glyph-name="gdotaccent" unicode="&#x121;" horiz-adv-x="935" 
d="M211 -390q328 0 466.5 115.5t138.5 392.5v144q-37 -118 -130.5 -186.5t-231.5 -68.5q-181 0 -271 100t-97 299h-1v18q0 11 1 17q7 213 104.5 320t263.5 107q150 0 239 -78t123 -208v295h34v-759q0 -310 -151 -444t-488 -134v70zM120 424q3 -164 78.5 -238t255.5 -74
q174 0 261 81t88 215q0 83 -18 150t-56.5 122.5t-108.5 86.5t-166 31q-327 0 -334 -374zM488 1141l64 64l62 -64l-63 -63z" />
    <glyph glyph-name="uni0122" unicode="&#x122;" horiz-adv-x="1266" 
d="M1180 729v-5h1v-258q0 -219 -117 -340.5t-325 -121.5h-64q-98 2 -181.5 23t-160 70t-130.5 122.5t-86 188t-32 260.5v5q0 174 43.5 307t124.5 217t193.5 126.5t253.5 42.5v-1q55 -1 97.5 -3.5t82 -10t62.5 -12.5t70.5 -17.5t74.5 -19.5l-8 -67q-22 5 -74 19t-73 18
t-64.5 11.5t-90 9.5t-109.5 2q-264 -8 -406 -162t-142 -460v-5q0 -154 44 -265.5t124.5 -174t181 -91t226.5 -28.5h43q202 0 305 92t103 265v211h-525v52h558zM610 -426l105 315l46 -15l-105 -315z" />
    <glyph glyph-name="uni0123" unicode="&#x123;" horiz-adv-x="935" 
d="M211 -390q328 0 466.5 115.5t138.5 392.5v144q-37 -118 -130.5 -186.5t-231.5 -68.5q-181 0 -271 100t-97 299h-1v18q0 11 1 17q7 213 104.5 320t263.5 107q150 0 239 -78t123 -208v295h34v-759q0 -310 -151 -444t-488 -134v70zM120 424q3 -164 78.5 -238t255.5 -74
q174 0 261 81t88 215q0 83 -18 150t-56.5 122.5t-108.5 86.5t-166 31q-327 0 -334 -374zM451 1224v138h24v-138q0 -51 38 -71.5t140 -20.5v-64q-108 0 -155 35t-47 121z" />
    <glyph glyph-name="Hcircumflex" unicode="&#x124;" horiz-adv-x="1087" 
d="M120 0h-35l1 1369h34v-669h847v669h35l-1 -1369h-34v596h-847v-596zM303 1532l232 230l233 -231l-30 -29l-203 201l-202 -201z" />
    <glyph glyph-name="hcircumflex" unicode="&#x125;" horiz-adv-x="937" 
d="M120 0h-35v1369h35v-692q25 68 67.5 113.5t95.5 66t97.5 27.5t98.5 7h26q159 0 253.5 -111.5t94.5 -319.5v-460h-35v460q0 168 -79.5 252.5t-233.5 84.5h-26q-56 0 -99 -5.5t-94.5 -26t-85.5 -56t-57 -101t-23 -154.5v-454zM306 1532l232 230l233 -231l-30 -29l-203 201
l-202 -201z" />
    <glyph glyph-name="Hbar" unicode="&#x126;" horiz-adv-x="1460" 
d="M310 0h-35l1 1092h-192v34h192v243h34v-243h848v243h34v-243h185v-34h-185l-1 -1092h-34v596h-847v-596zM310 700h848v392h-848v-392z" />
    <glyph glyph-name="hbar" unicode="&#x127;" horiz-adv-x="1100" 
d="M283 0h-35v1129h-164v34h164v206h35v-206h467v-34h-467v-452q25 68 67.5 113.5t95.5 66t97.5 27.5t98.5 7h26q159 0 253.5 -111.5t94.5 -319.5v-460h-35v460q0 168 -79.5 252.5t-233.5 84.5h-26q-56 0 -99 -5.5t-94.5 -26t-85.5 -56t-57 -101t-23 -154.5v-454z" />
    <glyph glyph-name="Itilde" unicode="&#x128;" horiz-adv-x="255" 
d="M144 0h-34l1 1369h35zM-202 1656q86 47 134.5 62.5t97.5 6t115 -52.5q76 -49 132 -39t150 89l31 -38q-103 -88 -176 -99t-163 46q-58 37 -96 45t-79 -5t-123 -57z" />
    <glyph glyph-name="itilde" unicode="&#x129;" horiz-adv-x="216" 
d="M125 0h-34v1083h34v-1083z" />
    <glyph glyph-name="Imacron" unicode="&#x12a;" horiz-adv-x="255" 
d="M144 0h-34l1 1369h35zM-233 1593v43h722v-43h-722z" />
    <glyph glyph-name="imacron" unicode="&#x12b;" horiz-adv-x="216" 
d="M125 0h-34v1083h34v-1083z" />
    <glyph glyph-name="Iogonek" unicode="&#x12e;" horiz-adv-x="255" 
d="M144 0h-34l1 1369h35zM191 -131v139h24v-139q0 -51 38.5 -71.5t139.5 -20.5v-64q-108 0 -155 35t-47 121z" />
    <glyph glyph-name="iogonek" unicode="&#x12f;" horiz-adv-x="216" 
d="M125 0h-3v-139q0 -51 38.5 -71.5t139.5 -20.5v-64q-108 0 -155.5 35t-47.5 121v139h-6v1083h34v-1083z" />
    <glyph glyph-name="Idotaccent" unicode="&#x130;" horiz-adv-x="255" 
d="M144 0h-34l1 1369h35zM65 1636l64 64l62 -64l-63 -63z" />
    <glyph glyph-name="dotlessi" unicode="&#x131;" horiz-adv-x="382" 
d="M209 0h-35v899h35v-899z" />
    <glyph glyph-name="IJ" unicode="&#x132;" horiz-adv-x="1051" 
d="M144 0h-34l1 1369h35zM340 -273v87q323 0 457 126t134 434v995h35v-995q0 -347 -148 -497t-478 -150z" />
    <glyph glyph-name="ij" unicode="&#x133;" horiz-adv-x="910" 
d="M179 0h-35v877h35v-877zM84 1108l79 80l79 -80l-80 -79zM134 -460v70q323 0 458.5 115t135.5 393v759h35v-759q0 -310 -148.5 -444t-480.5 -134zM668 1108l79 80l79 -80l-80 -79z" />
    <glyph glyph-name="Jcircumflex" unicode="&#x134;" horiz-adv-x="796" 
d="M84 -186q323 0 457.5 126.5t134.5 433.5v995h34v-995q0 -347 -148 -497t-478 -150v87zM461 1532l232 230l233 -231l-30 -29l-203 201l-202 -201z" />
    <glyph glyph-name="jcircumflex" unicode="&#x135;" horiz-adv-x="797" 
d="M84 -390q323 0 458.5 115t135.5 393v759h35v-759q0 -310 -148.5 -444t-480.5 -134v70zM463 1040l232 230l232 -231l-29 -30l-203 202l-203 -201z" />
    <glyph glyph-name="uni0136" unicode="&#x136;" horiz-adv-x="1042" 
d="M120 0h-35l1 1369h34v-637h11l796 645l21 -26l-763 -619h277q254 0 374.5 -131.5t120.5 -413.5v-187h-35v187q0 241 -105.5 345.5t-354.5 104.5h-342v-637zM419 -426l105 315l46 -15l-105 -315z" />
    <glyph glyph-name="uni0137" unicode="&#x137;" horiz-adv-x="951" 
d="M120 0h-35l1 1369h34v-738h102l614 551l23 -26l-585 -525h64q93 0 161.5 -10.5t130.5 -39.5t100 -78.5t60.5 -130t22.5 -191.5v-181h-34v181q0 109 -25.5 180t-83 111.5t-135.5 56t-197 15.5h-218v-544zM422 -426l105 315l46 -15l-105 -315z" />
    <glyph glyph-name="Lacute" unicode="&#x139;" horiz-adv-x="849" 
d="M766 109v-105h-312q-167 0 -268 107t-101 288l1 970h34v-970q0 -135 86.5 -212.5t247.5 -77.5h312zM365 1535l105 315l46 -15l-105 -315z" />
    <glyph glyph-name="lacute" unicode="&#x13a;" horiz-adv-x="596" 
d="M513 109v-105h-123q-116 0 -180 38t-94.5 132t-30.5 266l1 929h34v-929q0 -109 10 -170t41.5 -99.5t81 -50t137.5 -11.5h123zM257 1535l105 315l46 -15l-105 -315z" />
    <glyph glyph-name="uni013B" unicode="&#x13b;" horiz-adv-x="849" 
d="M766 109v-105h-312q-167 0 -268 107t-101 288l1 970h34v-970q0 -135 86.5 -212.5t247.5 -77.5h312zM315 -426l104 315l46 -15l-105 -315z" />
    <glyph glyph-name="uni013C" unicode="&#x13c;" horiz-adv-x="596" 
d="M513 109v-105h-123q-116 0 -180 38t-94.5 132t-30.5 266l1 929h34v-929q0 -109 10 -170t41.5 -99.5t81 -50t137.5 -11.5h123zM188 -426l104 315l46 -15l-105 -315z" />
    <glyph glyph-name="Lcaron" unicode="&#x13d;" horiz-adv-x="849" 
d="M766 109v-105h-312q-167 0 -268 107t-101 288l1 970h34v-970q0 -135 86.5 -212.5t247.5 -77.5h312zM493 962l105 314l46 -14l-105 -315z" />
    <glyph glyph-name="lcaron" unicode="&#x13e;" horiz-adv-x="596" 
d="M513 109v-105h-123q-116 0 -180 38t-94.5 132t-30.5 266l1 929h34v-929q0 -109 10 -170t41.5 -99.5t81 -50t137.5 -11.5h123zM434 962l105 314l46 -14l-105 -315z" />
    <glyph glyph-name="Lslash" unicode="&#x141;" horiz-adv-x="992" 
d="M909 109v-105h-312q-167 0 -267.5 107t-100.5 288v571l-128 -71l-17 32l145 79v359h35v-340l359 197l16 -31l-375 -206l-1 -590q0 -135 86.5 -212.5t247.5 -77.5h312z" />
    <glyph glyph-name="lslash" unicode="&#x142;" horiz-adv-x="816" 
d="M734 109v-105h-123q-116 0 -180 38t-94.5 132t-30.5 266l1 487l-213 -66l-10 33l223 69v406h35v-395l327 103l10 -33l-337 -105l-1 -499q0 -109 10 -170t41.5 -99.5t81 -50t137.5 -11.5h123z" />
    <glyph glyph-name="Nacute" unicode="&#x143;" horiz-adv-x="1092" 
d="M85 1369h107l780 -1323v1323h35v-1369h-109l-778 1319v-1319h-34zM518 1535l105 315l45 -15l-104 -315z" />
    <glyph glyph-name="nacute" unicode="&#x144;" horiz-adv-x="937" 
d="M120 0h-35v885h35v-212q25 68 67.5 113.5t95.5 66t97.5 27.5t98.5 7h26q159 0 253.5 -112t94.5 -320v-455h-35v455q0 168 -80 253t-233 85h-26q-56 0 -99 -5.5t-94.5 -26t-85.5 -56t-57 -101t-23 -154.5v-450zM451 1066l104 314l46 -14l-105 -315z" />
    <glyph glyph-name="uni0145" unicode="&#x145;" horiz-adv-x="1092" 
d="M85 1369h107l780 -1323v1323h35v-1369h-109l-778 1319v-1319h-34zM445 -426l105 315l46 -15l-105 -315z" />
    <glyph glyph-name="uni0146" unicode="&#x146;" horiz-adv-x="937" 
d="M120 0h-35v885h35v-212q25 68 67.5 113.5t95.5 66t97.5 27.5t98.5 7h26q159 0 253.5 -112t94.5 -320v-455h-35v455q0 168 -80 253t-233 85h-26q-56 0 -99 -5.5t-94.5 -26t-85.5 -56t-57 -101t-23 -154.5v-450zM380 -426l105 315l46 -15l-105 -315z" />
    <glyph glyph-name="Ncaron" unicode="&#x147;" horiz-adv-x="1092" 
d="M85 1369h107l780 -1323v1323h35v-1369h-109l-778 1319v-1319h-34zM315 1766l29 30l202 -201l204 202l29 -30l-233 -231z" />
    <glyph glyph-name="ncaron" unicode="&#x148;" horiz-adv-x="937" 
d="M120 0h-35v885h35v-212q25 68 67.5 113.5t95.5 66t97.5 27.5t98.5 7h26q159 0 253.5 -112t94.5 -320v-455h-35v455q0 168 -80 253t-233 85h-26q-56 0 -99 -5.5t-94.5 -26t-85.5 -56t-57 -101t-23 -154.5v-450zM247 1297l30 29l202 -200l203 201l30 -29l-233 -231z" />
    <glyph glyph-name="Omacron" unicode="&#x14c;" horiz-adv-x="1110" 
d="M991 852q0 211 -101.5 328.5t-280.5 117.5h-108q-381 0 -381 -446v-315q0 -73 9.5 -133t35.5 -116.5t68 -94.5t110 -61t158 -23h108q90 0 158 23t110 61t68 94.5t36 116.5t10 133v315zM85 537v315q0 81 12 152.5t41.5 139.5t75.5 116.5t119.5 78t167.5 29.5h108
q188 0 302.5 -139.5t114.5 -376.5v-315q0 -83 -12 -156.5t-42 -144t-76 -121t-119.5 -81t-167.5 -30.5h-108q-94 0 -167.5 30.5t-119.5 81t-75.5 121t-41.5 144t-12 156.5zM175 1593v43h723v-43h-723z" />
    <glyph glyph-name="omacron" unicode="&#x14d;" horiz-adv-x="935" 
d="M850 484q3 -128 -13.5 -215t-59.5 -148.5t-116.5 -89t-184.5 -27.5q-98 0 -167 19t-113.5 54.5t-69.5 96t-34 134t-7 176.5v2q0 418 391 418q173 0 271.5 -103t102.5 -315v-2zM120 446q0 -102 13 -162t52 -102t107.5 -57.5t183.5 -15.5q106 0 171 16.5t103.5 59t52 103.5
t13.5 162v36q-4 184 -91.5 266t-248.5 82q-180 0 -268 -80.5t-88 -267.5v-40zM121 1117v42h723v-42h-723z" />
    <glyph glyph-name="Ohungarumlaut" unicode="&#x150;" horiz-adv-x="1110" 
d="M991 852q0 211 -101.5 328.5t-280.5 117.5h-108q-381 0 -381 -446v-315q0 -73 9.5 -133t35.5 -116.5t68 -94.5t110 -61t158 -23h108q90 0 158 23t110 61t68 94.5t36 116.5t10 133v315zM85 537v315q0 81 12 152.5t41.5 139.5t75.5 116.5t119.5 78t167.5 29.5h108
q188 0 302.5 -139.5t114.5 -376.5v-315q0 -83 -12 -156.5t-42 -144t-76 -121t-119.5 -81t-167.5 -30.5h-108q-94 0 -167.5 30.5t-119.5 81t-75.5 121t-41.5 144t-12 156.5zM343 1570l105 315l46 -15l-105 -314zM580 1566l105 315l46 -15l-105 -314z" />
    <glyph glyph-name="ohungarumlaut" unicode="&#x151;" horiz-adv-x="935" 
d="M850 484q3 -128 -13.5 -215t-59.5 -148.5t-116.5 -89t-184.5 -27.5q-98 0 -167 19t-113.5 54.5t-69.5 96t-34 134t-7 176.5v2q0 418 391 418q173 0 271.5 -103t102.5 -315v-2zM120 446q0 -102 13 -162t52 -102t107.5 -57.5t183.5 -15.5q106 0 171 16.5t103.5 59t52 103.5
t13.5 162v36q-4 184 -91.5 266t-248.5 82q-180 0 -268 -80.5t-88 -267.5v-40zM289 1094l105 314l46 -15l-105 -314zM526 1090l105 314l46 -15l-105 -314z" />
    <glyph glyph-name="OE" unicode="&#x152;" horiz-adv-x="1957" 
d="M991 852q0 211 -101.5 328.5t-280.5 117.5h-108q-381 0 -381 -446v-315q0 -73 9.5 -133t35.5 -116.5t68 -94.5t110 -61t158 -23h108q90 0 158 23t110 61t68 94.5t36 116.5t10 133v315zM85 537v315q0 81 12 152.5t41.5 139.5t75.5 116.5t119.5 78t167.5 29.5h108
q136 0 236 -75t146 -212v285h883v-69h-848v-540h752v-34h-752v-277q0 -175 79 -256t258 -81h511v-105h-511q-312 0 -363 315q-37 -144 -132 -229.5t-259 -85.5h-108q-94 0 -167.5 30.5t-119.5 81t-75.5 121t-41.5 144t-12 156.5z" />
    <glyph glyph-name="oe" unicode="&#x153;" horiz-adv-x="1571" 
d="M120 446q0 -102 13 -162t52 -102t107.5 -57.5t183.5 -15.5q106 0 171 16.5t103.5 59t52 103.5t13.5 162v36q-4 184 -91.5 266t-248.5 82q-180 0 -268 -80.5t-88 -267.5v-40zM85 484v2q0 418 391 418q283 0 354 -258q29 131 118.5 199t200.5 68q129 0 212 -66t87 -203v-6
v-6q-3 -125 -73 -189t-217 -63l-306 1q4 -92 49.5 -152t113.5 -82.5t151 -23t161.5 18.5t143.5 51l15 -80q-65 -32 -140 -52t-156 -22.5t-150.5 16t-125 71t-79.5 135.5q-27 -134 -111.5 -195.5t-247.5 -61.5q-98 0 -167 19t-113.5 54.5t-69.5 96t-34 134t-7 176.5zM852 440
l306 -1q138 -1 196 47t60 151q-1 105 -72 156t-193 51q-57 0 -108 -18t-94.5 -53.5t-69 -97.5t-25.5 -143v-92z" />
    <glyph glyph-name="Racute" unicode="&#x154;" horiz-adv-x="1129" 
d="M1045 13l-23 -26l-693 593h-208v-580h-34v580h-2v503h1v282h441q141 0 223.5 -100.5t85.5 -307.5v-23q0 -85 -19 -149t-51 -102.5t-80.5 -62t-99 -32t-114.5 -8.5h-89zM120 1260v-610h352q79 0 135 12t102.5 42t69.5 87.5t23 142.5v9q0 169 -66.5 243t-208.5 74h-407z
M538 1535l105 315l46 -15l-105 -315z" />
    <glyph glyph-name="racute" unicode="&#x155;" horiz-adv-x="653" 
d="M120 0h-35v878h35v-280q28 80 75 138.5t100 88t98.5 42.5t85.5 13h91v-94h-91q-40 0 -83 -10t-94 -38.5t-90 -72.5t-65.5 -121t-26.5 -175v-369zM324 1078l105 315l46 -15l-105 -315z" />
    <glyph glyph-name="uni0156" unicode="&#x156;" horiz-adv-x="1129" 
d="M1045 13l-23 -26l-693 593h-208v-580h-34v580h-2v503h1v282h441q141 0 223.5 -100.5t85.5 -307.5v-23q0 -85 -19 -149t-51 -102.5t-80.5 -62t-99 -32t-114.5 -8.5h-89zM120 1260v-610h352q79 0 135 12t102.5 42t69.5 87.5t23 142.5v9q0 169 -66.5 243t-208.5 74h-407z
M465 -426l105 315l46 -15l-105 -315z" />
    <glyph glyph-name="uni0157" unicode="&#x157;" horiz-adv-x="653" 
d="M120 0h-35v878h35v-280q28 80 75 138.5t100 88t98.5 42.5t85.5 13h91v-94h-91q-40 0 -83 -10t-94 -38.5t-90 -72.5t-65.5 -121t-26.5 -175v-369zM251 -426l105 315l46 -15l-105 -315z" />
    <glyph glyph-name="Rcaron" unicode="&#x158;" horiz-adv-x="1129" 
d="M1045 13l-23 -26l-693 593h-208v-580h-34v580h-2v503h1v282h441q141 0 223.5 -100.5t85.5 -307.5v-23q0 -85 -19 -149t-51 -102.5t-80.5 -62t-99 -32t-114.5 -8.5h-89zM120 1260v-610h352q79 0 135 12t102.5 42t69.5 87.5t23 142.5v9q0 169 -66.5 243t-208.5 74h-407z
M335 1766l30 30l202 -201l203 202l30 -30l-233 -231z" />
    <glyph glyph-name="rcaron" unicode="&#x159;" horiz-adv-x="653" 
d="M120 0h-35v878h35v-280q28 80 75 138.5t100 88t98.5 42.5t85.5 13h91v-94h-91q-40 0 -83 -10t-94 -38.5t-90 -72.5t-65.5 -121t-26.5 -175v-369zM121 1309l30 30l202 -201l203 201l30 -29l-233 -231z" />
    <glyph glyph-name="Sacute" unicode="&#x15a;" horiz-adv-x="1067" 
d="M982 433v-1v-2l-1 -29q-5 -120 -48 -202t-116.5 -126.5t-183.5 -59.5t-237.5 -5.5t-289.5 41.5v103q160 -31 287 -42t232.5 1t175.5 49t108.5 105.5t38.5 166.5q-1 123 -96 187.5t-306 64.5q-125 1 -214 23t-140 63t-75.5 91t-29.5 116h-2v22v18h1q11 205 149 283
q106 58 340 65q24 1 319 1v-69q-311 0 -350 -1q-221 -9 -314 -68q-104 -68 -110 -229q3 -57 23 -98t67 -75.5t134.5 -52t215.5 -17.5q419 -6 422 -323zM550 1535l105 315l45 -15l-104 -315z" />
    <glyph glyph-name="sacute" unicode="&#x15b;" horiz-adv-x="749" 
d="M664 266v-1v-18q-8 -163 -161.5 -219t-409.5 3v94q251 -54 393.5 -15t143.5 155q-1 86 -68 132.5t-193 46.5v1q-140 4 -205.5 58t-71.5 152h-1v12q0 8 1 12q3 55 19 94.5t56 63.5t68 38t98 19.5t102.5 6.5t122.5 0h60v-52q-214 0 -257 -3q-153 -11 -203 -76
q-30 -39 -33 -103q3 -85 62 -127.5t201 -42.5v-1q128 -5 201.5 -64.5t74.5 -165.5zM341 1062l105 314l46 -14l-105 -315z" />
    <glyph glyph-name="Scircumflex" unicode="&#x15c;" horiz-adv-x="1067" 
d="M982 433v-1v-2l-1 -29q-5 -120 -48 -202t-116.5 -126.5t-183.5 -59.5t-237.5 -5.5t-289.5 41.5v103q160 -31 287 -42t232.5 1t175.5 49t108.5 105.5t38.5 166.5q-1 123 -96 187.5t-306 64.5q-125 1 -214 23t-140 63t-75.5 91t-29.5 116h-2v22v18h1q11 205 149 283
q106 58 340 65q24 1 319 1v-69q-311 0 -350 -1q-221 -9 -314 -68q-104 -68 -110 -229q3 -57 23 -98t67 -75.5t134.5 -52t215.5 -17.5q419 -6 422 -323zM347 1532l231 230l233 -231l-29 -29l-204 201l-202 -201z" />
    <glyph glyph-name="scircumflex" unicode="&#x15d;" horiz-adv-x="749" 
d="M664 266v-1v-18q-8 -163 -161.5 -219t-409.5 3v94q251 -54 393.5 -15t143.5 155q-1 86 -68 132.5t-193 46.5v1q-140 4 -205.5 58t-71.5 152h-1v12q0 8 1 12q3 55 19 94.5t56 63.5t68 38t98 19.5t102.5 6.5t122.5 0h60v-52q-214 0 -257 -3q-153 -11 -203 -76
q-30 -39 -33 -103q3 -85 62 -127.5t201 -42.5v-1q128 -5 201.5 -64.5t74.5 -165.5zM138 1058l231 231l233 -231l-29 -30l-204 202l-202 -201z" />
    <glyph glyph-name="Scedilla" unicode="&#x15e;" horiz-adv-x="1067" 
d="M982 433v-1v-2l-1 -29q-5 -120 -48 -202t-116.5 -126.5t-183.5 -59.5t-237.5 -5.5t-289.5 41.5v103q160 -31 287 -42t232.5 1t175.5 49t108.5 105.5t38.5 166.5q-1 123 -96 187.5t-306 64.5q-125 1 -214 23t-140 63t-75.5 91t-29.5 116h-2v22v18h1q11 205 149 283
q106 58 340 65q24 1 319 1v-69q-311 0 -350 -1q-221 -9 -314 -68q-104 -68 -110 -229q3 -57 23 -98t67 -75.5t134.5 -52t215.5 -17.5q419 -6 422 -323zM487 -423v64h5q48 0 70 0.5t54 2.5t44.5 7.5t27.5 14.5t20 23.5t5 35.5q0 19 -0.5 27t-3 21t-8 18t-15.5 12t-26 9
t-39 3.5t-54 1.5v183h24v-119q31 -1 55.5 -7.5t39.5 -13.5t25.5 -22.5t15.5 -24.5t7.5 -30.5t2.5 -28v-29.5q0 -22 -2.5 -40t-9 -32t-12.5 -25t-19 -19t-22.5 -13.5t-29 -9t-31.5 -5.5t-37 -3t-39.5 -1h-44.5h-3z" />
    <glyph glyph-name="scedilla" unicode="&#x15f;" horiz-adv-x="749" 
d="M664 266v-1v-18q-8 -163 -161.5 -219t-409.5 3v94q251 -54 393.5 -15t143.5 155q-1 86 -68 132.5t-193 46.5v1q-140 4 -205.5 58t-71.5 152h-1v12q0 8 1 12q3 55 19 94.5t56 63.5t68 38t98 19.5t102.5 6.5t122.5 0h60v-52q-214 0 -257 -3q-153 -11 -203 -76
q-30 -39 -33 -103q3 -85 62 -127.5t201 -42.5v-1q128 -5 201.5 -64.5t74.5 -165.5zM287 -423v64h5q48 0 70 0.5t54 2.5t44.5 7.5t27.5 14.5t20 23.5t5 35.5q0 19 -0.5 27t-3 21t-8 18t-15.5 12t-26 9t-39 3.5t-54 1.5v183h25v-119q31 -1 55.5 -7.5t39.5 -13.5t25.5 -23
t15 -24t7 -30.5t2.5 -28v-29.5q0 -22 -2.5 -40t-9 -32t-12.5 -25t-19 -19t-22.5 -13.5t-29 -9t-31.5 -5.5t-37 -3t-39.5 -1h-44.5h-3z" />
    <glyph glyph-name="Scaron" unicode="&#x160;" horiz-adv-x="1067" 
d="M982 433v-1v-2l-1 -29q-5 -120 -48 -202t-116.5 -126.5t-183.5 -59.5t-237.5 -5.5t-289.5 41.5v103q160 -31 287 -42t232.5 1t175.5 49t108.5 105.5t38.5 166.5q-1 123 -96 187.5t-306 64.5q-125 1 -214 23t-140 63t-75.5 91t-29.5 116h-2v22v18h1q11 205 149 283
q106 58 340 65q24 1 319 1v-69q-311 0 -350 -1q-221 -9 -314 -68q-104 -68 -110 -229q3 -57 23 -98t67 -75.5t134.5 -52t215.5 -17.5q419 -6 422 -323zM347 1766l29 30l202 -201l204 202l29 -30l-233 -231z" />
    <glyph glyph-name="scaron" unicode="&#x161;" horiz-adv-x="749" 
d="M664 266v-1v-18q-8 -163 -161.5 -219t-409.5 3v94q251 -54 393.5 -15t143.5 155q-1 86 -68 132.5t-193 46.5v1q-140 4 -205.5 58t-71.5 152h-1v12q0 8 1 12q3 55 19 94.5t56 63.5t68 38t98 19.5t102.5 6.5t122.5 0h60v-52q-214 0 -257 -3q-153 -11 -203 -76
q-30 -39 -33 -103q3 -85 62 -127.5t201 -42.5v-1q128 -5 201.5 -64.5t74.5 -165.5zM138 1293l29 29l202 -201l204 202l29 -29l-233 -231z" />
    <glyph glyph-name="uni0162" unicode="&#x162;" horiz-adv-x="964" 
d="M499 0h-4v-119q31 -1 55.5 -7.5t39.5 -13.5t25.5 -22.5t15.5 -24.5t7.5 -30.5t2.5 -28v-29.5q0 -27 -4 -48.5t-14 -37t-19.5 -26.5t-30 -17.5t-34.5 -10.5t-43.5 -5.5t-47.5 -2t-55 -0.5h-3v64h5q48 0 70 0.5t54 2.5t44.5 7.5t27.5 14.5t20 23.5t5 35.5q0 19 -0.5 27
t-3 21t-8 18t-15.5 12t-26 9t-39 3.5t-54 1.5v183h-6l1 1277h-465v87h964v-87h-464z" />
    <glyph glyph-name="uni0163" unicode="&#x163;" horiz-adv-x="877" 
d="M794 881v-53h-456v-250q0 -214 10 -278q17 -109 84 -153q79 -53 298 -57h49v-95q-51 0 -94 3v-114q31 -1 55.5 -7.5t39.5 -13.5t25.5 -23t15.5 -25t7.5 -30.5t2.5 -28v-29.5q0 -24 -4 -43.5t-9 -34t-17 -25.5t-21.5 -18.5t-29.5 -12.5t-32.5 -7.5t-39.5 -4t-43 -1.5h-49
h-6v64h10q47 0 68.5 0.5t52.5 2.5t43.5 7t27.5 14.5t19.5 23.5t4.5 35q0 26 -1 37t-8 25t-22.5 19t-43 9t-71.5 3v180q-76 6 -132.5 23.5t-94.5 36.5t-63.5 62t-38.5 72t-19.5 97.5t-7 107.5t-0.5 131v48v250h-220v53h220v488h34v-488h456z" />
    <glyph glyph-name="Tcaron" unicode="&#x164;" horiz-adv-x="964" 
d="M499 0h-35l1 1277h-465v87h964v-87h-464zM250 1766l29 30l203 -201l203 202l29 -30l-232 -231z" />
    <glyph glyph-name="tcaron" unicode="&#x165;" horiz-adv-x="877" 
d="M794 881v-53h-456v-250q0 -214 10 -278q17 -109 84 -153q79 -53 298 -57h49v-95q-101 0 -176 13t-126.5 29t-85 59t-51 72.5t-26 102.5t-9.5 115.5t-1 142.5v49v250h-220v53h220v488h34v-488h456zM728 973l105 315l46 -15l-105 -315z" />
    <glyph glyph-name="Utilde" unicode="&#x168;" horiz-adv-x="1161" 
d="M1042 1369h34v-855q0 -246 -128 -376t-339 -130h-58q-208 0 -337 130t-129 376v855h35v-855q0 -198 115 -299.5t316 -101.5h58q204 0 318.5 101.5t114.5 299.5v855zM251 1656q86 47 135 62.5t98 6t115 -52.5q76 -49 132 -39t150 89l31 -38q-103 -88 -176 -99t-163 46
q-58 37 -96.5 45t-79.5 -5t-123 -57z" />
    <glyph glyph-name="utilde" unicode="&#x169;" horiz-adv-x="1033" 
d="M712 879h34v-27h1v-487q0 -89 15.5 -150.5t44.5 -93.5t63 -45t80 -13v-70q-182 0 -225 228q-28 -103 -97 -160t-197 -57h-30q-79 0 -137.5 24.5t-92 63t-53.5 97.5t-26.5 115.5t-6.5 128.5v446h35v-446q0 -66 5 -110t21.5 -88t46.5 -69.5t82 -41t126 -15.5h30
q75 0 127 16t82 41t46.5 69t21 88t4.5 110v446zM188 1167q86 47 135 62t97.5 5.5t114.5 -52.5q76 -49 132 -39t150 89l31 -38q-103 -88 -176 -99t-163 46q-58 37 -96 45t-79 -5t-123 -57z" />
    <glyph glyph-name="Umacron" unicode="&#x16a;" horiz-adv-x="1161" 
d="M1042 1369h34v-855q0 -246 -128 -376t-339 -130h-58q-208 0 -337 130t-129 376v855h35v-855q0 -198 115 -299.5t316 -101.5h58q204 0 318.5 101.5t114.5 299.5v855zM220 1593v43h723v-43h-723z" />
    <glyph glyph-name="umacron" unicode="&#x16b;" horiz-adv-x="1033" 
d="M712 879h34v-27h1v-487q0 -89 15.5 -150.5t44.5 -93.5t63 -45t80 -13v-70q-182 0 -225 228q-28 -103 -97 -160t-197 -57h-30q-79 0 -137.5 24.5t-92 63t-53.5 97.5t-26.5 115.5t-6.5 128.5v446h35v-446q0 -66 5 -110t21.5 -88t46.5 -69.5t82 -41t126 -15.5h30
q75 0 127 16t82 41t46.5 69t21 88t4.5 110v446zM156 1103v43h723v-43h-723z" />
    <glyph glyph-name="Ubreve" unicode="&#x16c;" horiz-adv-x="1161" 
d="M1042 1369h34v-855q0 -246 -128 -376t-339 -130h-58q-208 0 -337 130t-129 376v855h35v-855q0 -198 115 -299.5t316 -101.5h58q204 0 318.5 101.5t114.5 299.5v855zM411 1704v103h25v-103q0 -39 16 -69.5t41.5 -46t56.5 -23t62 0t56.5 23t41.5 46t16 69.5v103h24v-103
q0 -63 -25 -109t-63 -67t-81.5 -21t-81.5 21t-63 67t-25 109z" />
    <glyph glyph-name="ubreve" unicode="&#x16d;" horiz-adv-x="1033" 
d="M712 879h34v-27h1v-487q0 -89 15.5 -150.5t44.5 -93.5t63 -45t80 -13v-70q-182 0 -225 228q-28 -103 -97 -160t-197 -57h-30q-79 0 -137.5 24.5t-92 63t-53.5 97.5t-26.5 115.5t-6.5 128.5v446h35v-446q0 -66 5 -110t21.5 -88t46.5 -69.5t82 -41t126 -15.5h30
q75 0 127 16t82 41t46.5 69t21 88t4.5 110v446zM347 1214v103h25v-103q0 -39 16 -69.5t41.5 -46t56.5 -23t62 0t56.5 23t41.5 46t16 69.5v103h24v-103q0 -63 -25 -109t-63 -67t-81.5 -21t-81.5 21t-63 67t-25 109z" />
    <glyph glyph-name="Uring" unicode="&#x16e;" horiz-adv-x="1161" 
d="M1042 1369h34v-855q0 -246 -128 -376t-339 -130h-58q-208 0 -337 130t-129 376v855h35v-855q0 -198 115 -299.5t316 -101.5h58q204 0 318.5 101.5t114.5 299.5v855zM442 1861q0 66 41.5 112t98.5 46q56 0 97 -46t41 -112t-41 -112.5t-97 -46.5t-98 46.5t-42 112.5z
M467 1861q0 -39 32 -67t83 -28t82.5 27.5t31.5 67.5q0 39 -31.5 66.5t-82.5 27.5t-83 -27.5t-32 -66.5z" />
    <glyph glyph-name="uring" unicode="&#x16f;" horiz-adv-x="1033" 
d="M712 879h34v-27h1v-487q0 -89 15.5 -150.5t44.5 -93.5t63 -45t80 -13v-70q-182 0 -225 228q-28 -103 -97 -160t-197 -57h-30q-79 0 -137.5 24.5t-92 63t-53.5 97.5t-26.5 115.5t-6.5 128.5v446h35v-446q0 -66 5 -110t21.5 -88t46.5 -69.5t82 -41t126 -15.5h30
q75 0 127 16t82 41t46.5 69t21 88t4.5 110v446zM378 1371q0 66 41.5 112t98.5 46q56 0 97 -46t41 -112t-41 -112.5t-97 -46.5t-98 46.5t-42 112.5zM403 1371q0 -39 32 -67t83 -28t82.5 27.5t31.5 67.5q0 39 -31.5 67t-82.5 28t-83 -28t-32 -67z" />
    <glyph glyph-name="Uhungarumlaut" unicode="&#x170;" horiz-adv-x="1161" 
d="M1042 1369h34v-855q0 -246 -128 -376t-339 -130h-58q-208 0 -337 130t-129 376v855h35v-855q0 -198 115 -299.5t316 -101.5h58q204 0 318.5 101.5t114.5 299.5v855zM388 1570l105 315l46 -15l-105 -314zM625 1566l105 315l46 -15l-105 -314z" />
    <glyph glyph-name="uhungarumlaut" unicode="&#x171;" horiz-adv-x="1033" 
d="M712 879h34v-27h1v-487q0 -89 15.5 -150.5t44.5 -93.5t63 -45t80 -13v-70q-182 0 -225 228q-28 -103 -97 -160t-197 -57h-30q-79 0 -137.5 24.5t-92 63t-53.5 97.5t-26.5 115.5t-6.5 128.5v446h35v-446q0 -66 5 -110t21.5 -88t46.5 -69.5t82 -41t126 -15.5h30
q75 0 127 16t82 41t46.5 69t21 88t4.5 110v446zM324 1081l105 314l46 -15l-105 -314zM561 1076l105 315l46 -15l-105 -314z" />
    <glyph glyph-name="Uogonek" unicode="&#x172;" horiz-adv-x="1161" 
d="M1042 1369h34v-855q0 -236 -118.5 -365.5t-316.5 -139.5h18v-139q0 -51 38.5 -71.5t139.5 -20.5v-64q-108 0 -155 35t-47 121v139q-8 -1 -26 -1h-58q-208 0 -337 130t-129 376v855h35v-855q0 -198 115 -299.5t316 -101.5h58q204 0 318.5 101.5t114.5 299.5v855z" />
    <glyph glyph-name="uogonek" unicode="&#x173;" horiz-adv-x="1033" 
d="M712 879h34v-27h1v-487q0 -89 15.5 -150.5t44.5 -93.5t63 -45t80 -13v-70h-7v-123q0 -51 38.5 -71.5t139.5 -20.5v-64q-108 0 -155.5 35t-47.5 121v124q-70 9 -121.5 63t-71.5 164q-28 -103 -97 -160t-197 -57h-30q-79 0 -137.5 24.5t-92 63t-53.5 97.5t-26.5 115.5
t-6.5 128.5v446h35v-446q0 -66 5 -110t21.5 -88t46.5 -69.5t82 -41t126 -15.5h30q75 0 127 16t82 41t46.5 69t21 88t4.5 110v446z" />
    <glyph glyph-name="Wcircumflex" unicode="&#x174;" horiz-adv-x="1820" 
d="M213 0l-125 1369h105l120 -1313l567 1243h81l568 -1260l172 1330h34l-176 -1369h-89l-570 1262l-575 -1262h-112zM651 1532l232 230l233 -231l-30 -29l-203 201l-202 -201z" />
    <glyph glyph-name="wcircumflex" unicode="&#x175;" horiz-adv-x="1288" 
d="M327 109l321 698l-1 2h61l314 -728h23l123 798h36l-134 -868h-77l-320 739l-343 -746h-70l-172 875h72l152 -770h15zM425 1042l232 230l233 -231l-30 -29l-203 201l-202 -200z" />
    <glyph glyph-name="Ycircumflex" unicode="&#x176;" horiz-adv-x="1151" 
d="M591 555h-8q-64 8 -112 32t-82.5 68t-57 88t-48.5 112l-195 520h91l186 -492q47 -128 92.5 -184t132.5 -67h1q65 -7 115 24.5t71 86.5l247 632h43l-257 -660q-28 -72 -76.5 -113.5t-108.5 -46.5v-555h-34v555zM356 1532l232 230l233 -231l-30 -29l-203 201l-202 -201z
" />
    <glyph glyph-name="ycircumflex" unicode="&#x177;" horiz-adv-x="831" 
d="M712 903h34v-918q0 -309 -150.5 -443t-487.5 -134v69q327 0 465.5 115.5t138.5 392.5v196q-66 -177 -281 -177h-30q-79 0 -137.5 24.5t-92 63t-53.5 97.5t-26.5 115.5t-6.5 128.5v470h35v-470q0 -66 5 -110t21.5 -88t46.5 -69.5t82 -41t126 -15.5h30q75 0 127 16t82 41
t46.5 69t21 88t4.5 110v470zM184 1042l231 230l233 -231l-30 -29l-203 201l-202 -200z" />
    <glyph glyph-name="Ydieresis" unicode="&#x178;" horiz-adv-x="1151" 
d="M591 555h-8q-64 8 -112 32t-82.5 68t-57 88t-48.5 112l-195 520h91l186 -492q47 -128 92.5 -184t132.5 -67h1q65 -7 115 24.5t71 86.5l247 632h43l-257 -660q-28 -72 -76.5 -113.5t-108.5 -46.5v-555h-34v555zM373 1603l64 64l62 -64l-63 -63zM678 1602l64 64l62 -64
l-63 -63z" />
    <glyph glyph-name="Zacute" unicode="&#x179;" horiz-adv-x="1346" 
d="M1220 1144q0 88 -68.5 126t-196.5 38h-856v70h856q291 0 299 -222v-39q0 -45 -19.5 -86.5t-46.5 -71.5t-72 -61.5t-78.5 -50t-83.5 -43.5l-515 -261q-144 -73 -194 -108q-124 -85 -125 -178q1 -54 30.5 -84t114.5 -46.5t241 -16.5h754v-105h-754q-225 0 -318.5 50
t-101.5 174h-1v27v1v2q0 34 12 66t28 57t45.5 51t52 43t60.5 39t58.5 33t57.5 29l24 12l515 261q64 32 105.5 56t86.5 58t67.5 72t22.5 81v27zM638 1535l105 315l46 -15l-105 -315z" />
    <glyph glyph-name="zacute" unicode="&#x17a;" horiz-adv-x="1078" 
d="M896 733q0 95 -182 95h-622v53h622q212 0 217 -141v-23q0 -69 -63.5 -121.5t-153.5 -88.5l-363 -142q-45 -18 -76 -32t-68.5 -35.5t-57 -45.5t-19.5 -50q0 -41 20 -62.5t78.5 -33t169.5 -11.5h595v-87h-595q-165 0 -231.5 40t-70.5 141v13q0 33 17.5 63.5t40.5 51t61 42
t62.5 32t60.5 24.5l363 141q84 32 139.5 74.5t55.5 86.5v16zM510 1055l104 315l46 -15l-105 -315z" />
    <glyph glyph-name="Zdotaccent" unicode="&#x17b;" horiz-adv-x="1346" 
d="M1220 1144q0 88 -68.5 126t-196.5 38h-856v70h856q291 0 299 -222v-39q0 -45 -19.5 -86.5t-46.5 -71.5t-72 -61.5t-78.5 -50t-83.5 -43.5l-515 -261q-144 -73 -194 -108q-124 -85 -125 -178q1 -54 30.5 -84t114.5 -46.5t241 -16.5h754v-105h-754q-225 0 -318.5 50
t-101.5 174h-1v27v1v2q0 34 12 66t28 57t45.5 51t52 43t60.5 39t58.5 33t57.5 29l24 12l515 261q64 32 105.5 56t86.5 58t67.5 72t22.5 81v27zM605 1636l63 64l63 -64l-63 -63z" />
    <glyph glyph-name="zdotaccent" unicode="&#x17c;" horiz-adv-x="1078" 
d="M896 733q0 95 -182 95h-622v53h622q212 0 217 -141v-23q0 -69 -63.5 -121.5t-153.5 -88.5l-363 -142q-45 -18 -76 -32t-68.5 -35.5t-57 -45.5t-19.5 -50q0 -41 20 -62.5t78.5 -33t169.5 -11.5h595v-87h-595q-165 0 -231.5 40t-70.5 141v13q0 33 17.5 63.5t40.5 51t61 42
t62.5 32t60.5 24.5l363 141q84 32 139.5 74.5t55.5 86.5v16zM476 1156l64 64l62 -64l-63 -63z" />
    <glyph glyph-name="Zcaron" unicode="&#x17d;" horiz-adv-x="1346" 
d="M1220 1144q0 88 -68.5 126t-196.5 38h-856v70h856q291 0 299 -222v-39q0 -45 -19.5 -86.5t-46.5 -71.5t-72 -61.5t-78.5 -50t-83.5 -43.5l-515 -261q-144 -73 -194 -108q-124 -85 -125 -178q1 -54 30.5 -84t114.5 -46.5t241 -16.5h754v-105h-754q-225 0 -318.5 50
t-101.5 174h-1v27v1v2q0 34 12 66t28 57t45.5 51t52 43t60.5 39t58.5 33t57.5 29l24 12l515 261q64 32 105.5 56t86.5 58t67.5 72t22.5 81v27zM435 1766l29 30l203 -201l203 202l29 -30l-232 -231z" />
    <glyph glyph-name="zcaron" unicode="&#x17e;" horiz-adv-x="1078" 
d="M896 733q0 95 -182 95h-622v53h622q212 0 217 -141v-23q0 -69 -63.5 -121.5t-153.5 -88.5l-363 -142q-45 -18 -76 -32t-68.5 -35.5t-57 -45.5t-19.5 -50q0 -41 20 -62.5t78.5 -33t169.5 -11.5h595v-87h-595q-165 0 -231.5 40t-70.5 141v13q0 33 17.5 63.5t40.5 51t61 42
t62.5 32t60.5 24.5l363 141q84 32 139.5 74.5t55.5 86.5v16zM306 1286l30 30l202 -201l203 201l30 -29l-233 -231z" />
    <glyph glyph-name="uni018F" unicode="&#x18f;" horiz-adv-x="1006" 
d="M85 328v1q0 57 20 109.5t58.5 94.5t101.5 67t141 25h480q-1 102 -13 165t-50.5 121.5t-112.5 87t-197.5 41t-304.5 2.5v70q189 10 320 -8t207.5 -54.5t118 -107t54 -143.5t12.5 -185q4 -100 0.5 -181.5t-11 -145t-29 -111.5t-53.5 -81t-85 -54t-123.5 -30.5t-168.5 -9.5
q-180 0 -271.5 90t-93.5 237zM120 331q2 -102 79.5 -163.5t250.5 -61.5q82 0 138 2.5t105 13t78.5 23t53.5 41t35 57.5t18 82t8 105t0 136h-480q-141 0 -213.5 -68t-72.5 -167z" />
    <glyph glyph-name="florin" unicode="&#x192;" horiz-adv-x="1117" 
d="M84 -258v105h157q41 0 74 4.5t58.5 11t44.5 20.5t32 26.5t21.5 36.5t13.5 42.5t7.5 52t3 58t0.5 67.5v306h-235v69h235v303q0 391 353 391h185v-105h-185q-170 0 -244.5 -68t-74.5 -218v-303h470v-69h-470v-306q0 -45 -0.5 -72.5t-3.5 -68t-8.5 -66.5t-15.5 -59
t-24.5 -53.5t-36.5 -42.5t-50 -34t-66 -20t-84 -8h-157z" />
    <glyph glyph-name="uni0218" unicode="&#x218;" horiz-adv-x="1067" 
d="M982 433v-1v-2l-1 -29q-5 -120 -48 -202t-116.5 -126.5t-183.5 -59.5t-237.5 -5.5t-289.5 41.5v103q160 -31 287 -42t232.5 1t175.5 49t108.5 105.5t38.5 166.5q-1 123 -96 187.5t-306 64.5q-125 1 -214 23t-140 63t-75.5 91t-29.5 116h-2v22v18h1q11 205 149 283
q106 58 340 65q24 1 319 1v-69q-311 0 -350 -1q-221 -9 -314 -68q-104 -68 -110 -229q3 -57 23 -98t67 -75.5t134.5 -52t215.5 -17.5q419 -6 422 -323zM477 -426l105 315l46 -15l-105 -315z" />
    <glyph glyph-name="uni0219" unicode="&#x219;" horiz-adv-x="749" 
d="M664 266v-1v-18q-8 -163 -161.5 -219t-409.5 3v94q251 -54 393.5 -15t143.5 155q-1 86 -68 132.5t-193 46.5v1q-140 4 -205.5 58t-71.5 152h-1v12q0 8 1 12q3 55 19 94.5t56 63.5t68 38t98 19.5t102.5 6.5t122.5 0h60v-52q-214 0 -257 -3q-153 -11 -203 -76
q-30 -39 -33 -103q3 -85 62 -127.5t201 -42.5v-1q128 -5 201.5 -64.5t74.5 -165.5zM277 -426l105 315l46 -15l-105 -315z" />
    <glyph glyph-name="uni021A" unicode="&#x21a;" horiz-adv-x="964" 
d="M499 0h-35l1 1277h-465v87h964v-87h-464zM380 -426l105 315l46 -15l-105 -315z" />
    <glyph glyph-name="uni021B" unicode="&#x21b;" horiz-adv-x="877" 
d="M794 881v-53h-456v-250q0 -214 10 -278q17 -109 84 -153q79 -53 298 -57h49v-95q-101 0 -176 13t-126.5 29t-85 59t-51 72.5t-26 102.5t-9.5 115.5t-1 142.5v49v250h-220v53h220v488h34v-488h456zM570 -424l105 315l46 -15l-105 -314z" />
    <glyph glyph-name="uni0237" unicode="&#x237;" horiz-adv-x="797" 
d="M84 -390q323 0 458.5 115t135.5 393v759h35v-759q0 -310 -148.5 -444t-480.5 -134v70z" />
    <glyph glyph-name="uni0259" unicode="&#x259;" horiz-adv-x="959" 
d="M874 387q0 -95 -30.5 -170.5t-81.5 -121.5t-115.5 -70.5t-135.5 -24.5h-72q-181 0 -265 77.5t-89 248.5v9q0 8 1 12q11 250 329 250h425v193q0 110 -58.5 161t-186.5 51h-440v52h440q279 0 279 -264v-403zM120 335q2 -126 71 -178t248 -52h72q146 0 237.5 74.5
t91.5 207.5v141h-425q-86 0 -145.5 -14t-91 -41.5t-44.5 -60.5t-14 -77z" />
    <glyph glyph-name="circumflex" unicode="&#x2c6;" horiz-adv-x="897" 
d="M466 1138l-29 -30l-204 202l-202 -201l-29 30l231 230z" />
    <glyph glyph-name="caron" unicode="&#x2c7;" horiz-adv-x="1246" 
d="M466 1332l-233 -231l-231 230l29 30l202 -201l204 202z" />
    <glyph glyph-name="breve" unicode="&#x2d8;" horiz-adv-x="1218" 
d="M315 1379h25v-104q0 -48 -14.5 -86.5t-38.5 -62t-54.5 -36.5t-62 -13t-62 13t-54.5 36.5t-38.5 62t-14.5 86.5v104h24v-104q0 -45 21.5 -78.5t53.5 -48t70 -14.5t70 14.5t53.5 48t21.5 78.5v104z" />
    <glyph glyph-name="dotaccent" unicode="&#x2d9;" horiz-adv-x="296" 
d="M64 1174l62 -64l-63 -63l-63 63z" />
    <glyph glyph-name="ring" unicode="&#x2da;" horiz-adv-x="518" 
d="M140 1090q51 0 82.5 27.5t31.5 67.5q0 39 -31.5 66.5t-82.5 27.5t-83 -27.5t-32 -66.5t32 -67t83 -28zM1 1185q0 66 41.5 112t97.5 46t97.5 -46t41.5 -112t-41.5 -112.5t-97.5 -46.5t-97.5 46t-41.5 113z" />
    <glyph glyph-name="ogonek" unicode="&#x2db;" horiz-adv-x="425" 
d="M1 0h24v-139q0 -51 38.5 -71.5t139.5 -20.5v-64q-108 0 -155 35t-47 121v139z" />
    <glyph glyph-name="tilde" unicode="&#x2dc;" horiz-adv-x="801" 
d="M662 1181q-103 -88 -176 -99t-163 46q-58 37 -96 45t-79 -5t-123 -57l-23 42q86 47 134.5 62.5t97.5 6t115 -52.5q76 -49 132 -39t150 89z" />
    <glyph glyph-name="hungarumlaut" unicode="&#x2dd;" horiz-adv-x="1235" 
d="M2 782l105 314l46 -15l-105 -314zM239 777l105 315l46 -15l-105 -314z" />
    <glyph glyph-name="gravecomb" unicode="&#x300;" 
d="M153 796l-46 -14l-105 314l46 15z" />
    <glyph glyph-name="acutecomb" unicode="&#x301;" 
d="M2 796l105 315l46 -15l-105 -314z" />
    <glyph glyph-name="uni0302" unicode="&#x302;" 
d="M466 1138l-29 -30l-204 202l-202 -201l-29 30l231 230z" />
    <glyph glyph-name="tildecomb" unicode="&#x303;" 
d="M662 1181q-103 -88 -176 -99t-163 46q-58 37 -96 45t-79 -5t-123 -57l-23 42q86 47 134.5 62.5t97.5 6t115 -52.5q76 -49 132 -39t150 89z" />
    <glyph glyph-name="uni0304" unicode="&#x304;" 
d="M723 987v-42h-723v42h723z" />
    <glyph glyph-name="uni0306" unicode="&#x306;" 
d="M315 1379h25v-104q0 -48 -14.5 -86.5t-38.5 -62t-54.5 -36.5t-62 -13t-62 13t-54.5 36.5t-38.5 62t-14.5 86.5v104h24v-104q0 -45 21.5 -78.5t53.5 -48t70 -14.5t70 14.5t53.5 48t21.5 78.5v104z" />
    <glyph glyph-name="uni0307" unicode="&#x307;" 
d="M64 1174l62 -64l-63 -63l-63 63z" />
    <glyph glyph-name="uni0308" unicode="&#x308;" 
d="M64 1174l62 -64l-63 -63l-63 63zM306 1109l63 64l63 -64l-63 -63z" />
    <glyph glyph-name="uni030A" unicode="&#x30a;" 
d="M140 1090q51 0 82.5 27.5t31.5 67.5q0 39 -31.5 66.5t-82.5 27.5t-83 -27.5t-32 -66.5t32 -67t83 -28zM1 1185q0 66 41.5 112t97.5 46t97.5 -46t41.5 -112t-41.5 -112.5t-97.5 -46.5t-97.5 46t-41.5 113z" />
    <glyph glyph-name="uni030B" unicode="&#x30b;" 
d="M2 782l105 314l46 -15l-105 -314zM239 777l105 315l46 -15l-105 -314z" />
    <glyph glyph-name="uni030C" unicode="&#x30c;" 
d="M466 1332l-233 -231l-231 230l29 30l202 -201l204 202z" />
    <glyph glyph-name="uni0312" unicode="&#x312;" 
d="M1 1601h24v-139q0 -51 38 -71t140 -20v-64q-108 0 -155 34.5t-47 120.5v139z" />
    <glyph glyph-name="uni0326" unicode="&#x326;" 
d="M2 -488l105 314l46 -14l-105 -315z" />
    <glyph glyph-name="uni0327" unicode="&#x327;" 
d="M0 -359h5q48 0 70 0.5t54 2.5t44.5 7.5t27.5 14.5t20 23.5t5 35.5q0 19 -0.5 27t-3 21t-8 18t-15.5 12t-26 9t-39 3.5t-54 1.5v183h25v-119q31 -1 55.5 -7.5t39.5 -13.5t25.5 -22.5t15.5 -24.5t7.5 -30.5t2.5 -28v-29.5q0 -27 -4 -48.5t-14 -37t-19.5 -26.5t-30 -17.5
t-34.5 -10.5t-43.5 -5.5t-47.5 -2t-55 -0.5h-3v64z" />
    <glyph glyph-name="uni0328" unicode="&#x328;" 
d="M1 0h24v-139q0 -51 38.5 -71.5t139.5 -20.5v-64q-108 0 -155 35t-47 121v139z" />
    <glyph glyph-name="uni0600" unicode="&#x600;" horiz-adv-x="3864" 
d="M84 -694v94h2726q13 10 31 10h301q-93 63 -130.5 158.5t-17.5 193.5q33 168 212.5 231t452.5 10v-68q-261 51 -433 -1.5t-198 -184.5q-15 -74 8.5 -141t91 -121t172.5 -77h480v-101h-160v-3h-3536z" />
    <glyph glyph-name="uni0601" unicode="&#x601;" horiz-adv-x="5508" 
d="M1121 -823q-236 0 -280 250q-75 -217 -368 -217q-171 0 -281 95.5t-113 257.5v4v5q1 81 25 149.5t70.5 123t123 85t176.5 30.5q117 0 213 -58.5t144 -147.5v234h34v-427q0 -151 57.5 -215t198.5 -64h31q93 0 149 22.5t93.5 85.5t52 168t16.5 279h34q-2 -166 -16 -279
q0 -153 64.5 -213.5t206.5 -62.5h3678v-104h-3654q-2 -1 -9 -1q-129 0 -207.5 58t-102.5 196q-36 -137 -110 -195.5t-195 -58.5h-31zM114 -432q2 -113 97.5 -183t261.5 -70q358 0 358 267v44q0 42 -26 87t-71 83t-114 62.5t-146 24.5q-184 0 -271 -86.5t-89 -228.5zM317 241
l79 79l79 -79l-79 -80zM535 240l79 79l79 -79l-79 -79zM1398 179l80 79l78 -79l-79 -80z" />
    <glyph glyph-name="uni0602" unicode="&#x602;" horiz-adv-x="3350" 
d="M85 -175q0 153 99 268q93 109 224 125q163 20 301 -119q178 -180 258 -581h2300v-105h-2747q-125 0 -208.5 23.5t-133.5 75.5t-71.5 127t-21.5 186zM120 -175q0 -89 16 -143.5t60.5 -93.5t122 -54.5t201.5 -15.5h409q-85 406 -288 549q-134 95 -283 52
q-116 -33 -185 -132q-53 -76 -53 -162z" />
    <glyph glyph-name="uni0603" unicode="&#x603;" horiz-adv-x="4287" 
d="M84 -875v105h2538q2 1 9 1h34q153 0 228.5 69.5t75.5 241.5v272h34v-272q0 -55 -6 -100q89 101 185 181.5t187.5 132.5t182.5 85.5t172.5 40.5t155 -4t132 -46t101.5 -87t66.5 -126t23.5 -164v-13q0 -146 -93 -231t-264 -85h-171q-242 0 -414 50t-282 172
q-65 -217 -301 -222v-1h-2594zM3022 -600q186 -169 653 -169h171q164 0 243.5 57.5t79.5 153.5v13q0 143 -68.5 238.5t-187.5 122t-263.5 -1.5t-311.5 -136t-316 -278z" />
    <glyph glyph-name="uni0605" unicode="&#x605;" horiz-adv-x="1909" 
d="M85 1366q60 122 117.5 198.5t123 115.5t139.5 25.5t158 -78.5q158 -124 486 -135.5t707 100.5l10 -67q-378 -115 -713.5 -103t-511.5 149q-74 58 -140.5 69t-126 -23.5t-112.5 -104t-106 -178.5z" />
    <glyph glyph-name="uni0606" unicode="&#x606;" horiz-adv-x="1834" 
d="M1081 939h-13v470h13v-171q27 1 50.5 0t43 6.5t34 22t22.5 46.5t8 80h11q0 -51 -6 -87q9 -35 26.5 -48.5t65.5 -13.5q44 0 59 32t15 117h11q0 -96 -19 -140.5t-66 -44.5q-46 0 -67 17t-33 55q-9 -28 -22.5 -45t-36 -23.5t-38 -8t-47.5 -1.5h-11v-263zM84 1288l30 37
l813 -1271l239 512q124 269 387 247l198 -14l-3 -69l-198 15q-247 19 -353 -208l-266 -571z" />
    <glyph glyph-name="uni0607" unicode="&#x607;" horiz-adv-x="1834" 
d="M1349 1312v-24h-72q-63 0 -99 -26t-38 -73q3 -107 148 -107h106v-37h-106q-154 0 -161 140v4v3q3 77 75 106q-35 14 -55.5 44.5t-20.5 73.5v7q0 46 27.5 77t77.5 31h107v-25h-107q-45 0 -69 -23t-24 -60v-7q0 -49 34.5 -76.5t90.5 -27.5h86zM84 1288l30 37l813 -1271
l239 512q124 269 387 247l198 -14l-3 -69l-198 15q-247 19 -353 -208l-266 -571z" />
    <glyph glyph-name="uni0608" unicode="&#x608;" horiz-adv-x="1504" 
d="M1322 109h191q22 0 37 -15t15 -37t-15 -37.5t-37 -15.5h-191v-62q0 -105 -15 -183t-53.5 -146.5t-104 -111.5t-169 -67.5t-244.5 -24.5q-113 0 -201 41.5t-142 114.5t-83 165.5t-32 201.5h-1v14q0 10 1 15q4 134 47 258.5t113 209.5h-354v35h385l2 1l25 -24
q-82 -80 -132.5 -214t-52.5 -280q2 -94 26 -170.5t73 -136.5t132 -93t194 -33q117 0 204.5 11.5t148 37.5t100 59.5t61 84.5t30 105.5t8.5 129.5v62h-53v5h-263q-168 0 -247 81t-64 266h2q8 88 57 159.5t116 108t136 36.5q50 0 97.5 -17.5t92 -56.5t79 -95t56 -138.5
t24.5 -181.5h1v-62zM694 318q-1 -118 62.5 -166.5t215.5 -48.5h263v6h53v33q0 117 -27.5 206t-73.5 140.5t-100.5 77t-114.5 25.5q-106 0 -191 -77t-85 -190v-6h-2z" />
    <glyph glyph-name="uni0609" unicode="&#x609;" horiz-adv-x="1386" 
d="M166 0h-62l818 1603h63zM75 1216l80 79l78 -79l-79 -80zM846 411l80 80l78 -80l-79 -79zM1153 410l79 79l79 -79l-80 -80z" />
    <glyph glyph-name="uni060A" unicode="&#x60a;" horiz-adv-x="1670" 
d="M166 0h-62l818 1603h63zM75 1216l80 79l78 -79l-79 -80zM846 411l80 80l78 -80l-79 -79zM1153 410l79 79l79 -79l-80 -80zM1437 409l79 79l79 -79l-79 -80z" />
    <glyph glyph-name="uni060B" unicode="&#x60b;" horiz-adv-x="884" 
d="M800 388q0 -384 -290 -384h-519q-22 0 -37 15.5t-15 37.5t15 37t37 15h519q132 0 190 56.5t64 185.5h-315q-167 0 -244.5 77t-65.5 252h1q12 129 106.5 213.5t204.5 84.5q65 0 126 -31t111.5 -91t81 -158.5t30.5 -222.5v-87zM173 646q-1 -117 62 -164.5t214 -47.5h316v41
q0 111 -26.5 197t-71.5 137.5t-100 77.5t-116 26q-109 0 -193.5 -76.5t-84.5 -190.5zM372 1285l79 79l79 -79l-79 -80zM382 -451v326h26v-326h-26z" />
    <glyph glyph-name="uni060C" unicode="&#x60c;" horiz-adv-x="425" 
d="M154 621h33l-49 -224q-11 -50 -17 -84.5t-6.5 -65t3.5 -49t16.5 -34t28 -23.5t44 -13t59 -6.5t76.5 -1.5v-83q-60 0 -101 6t-75 21.5t-51.5 42t-25.5 69t-2.5 101t22.5 138.5z" />
    <glyph glyph-name="uni060D" unicode="&#x60d;" horiz-adv-x="420" 
d="M84 -82q50 0 80.5 6.5t57 30t40 60t23.5 106t13 157.5t3 224h34q0 -283 -24.5 -431t-76.5 -203t-150 -55v105z" />
    <glyph glyph-name="uni060E" unicode="&#x60e;" horiz-adv-x="2043" 
d="M94 -152q21 140 130 233t243 87q164 -7 279 -160q122 -163 160 -457q259 35 535 99.5t508 146.5l11 -98q-359 -126 -771.5 -206t-710.5 -80q-449 0 -384 435zM129 -167q-26 -168 49.5 -241.5t299.5 -73.5q171 0 393 28q-47 348 -231 473q-125 85 -274 47
q-117 -31 -187 -121q-41 -53 -50 -112z" />
    <glyph glyph-name="uni060F" unicode="&#x60f;" horiz-adv-x="1311" 
d="M1226 -1152l-34 -10l-134 491l35 10zM85 -75q0 62 12.5 122.5t46.5 127t87 120.5t140 99t199 67q-127 52 -185.5 150t-41.5 199q31 173 216 237.5t467 11.5v-70q-183 34 -321.5 22t-224.5 -67.5t-102 -144.5q-9 -54 12.5 -107.5t71.5 -100t144.5 -76t218.5 -29.5v-3h383
v-105h-401q-119 0 -218 -15.5t-169.5 -42t-125 -64t-87.5 -78.5t-54 -88.5t-28.5 -91.5t-5.5 -89q4 -87 60 -156.5t173 -119.5t298.5 -60.5t435.5 21.5v-78q-264 -33 -454 -17.5t-312 77t-179 149.5t-56 200z" />
    <glyph glyph-name="uni0615" unicode="&#x615;" 
d="M433 1232q0 -46 -28 -74t-87 -28h-318v32h70v394h11v-374q63 124 165 162q81 31 139 -9q48 -33 48 -100v-3zM84 1162h234q105 0 105 70v3q0 69 -60 95q-65 29 -144 -14q-84 -46 -135 -154z" />
    <glyph glyph-name="uni061B" unicode="&#x61b;" horiz-adv-x="431" 
d="M154 670h33l-49 -224q-15 -67 -20.5 -108.5t-1 -74.5t16.5 -49.5t43 -27.5t67.5 -13.5t98.5 -2.5v-84q-60 0 -101 6t-75 21.5t-51.5 42t-25.5 69t-2.5 101t22.5 138.5zM183 6l64 64l62 -64l-63 -63z" />
    <glyph glyph-name="uni061C" unicode="&#x61c;" horiz-adv-x="596" 
 />
    <glyph glyph-name="uni061E" unicode="&#x61e;" horiz-adv-x="773" 
d="M387 500q-22 0 -38 16t-16 38t16 37.5t38 15.5t38 -15.5t16 -37.5t-16 -38t-38 -16zM75 176q0 22 16.5 38t38.5 16t38 -16t16 -38t-16 -37.5t-38 -15.5q-23 0 -39 15.5t-16 37.5zM590 176q0 22 16 38t38 16t38 -16t16 -38t-16 -37.5t-38 -15.5t-38 15.5t-16 37.5z" />
    <glyph glyph-name="uni061F" unicode="&#x61f;" horiz-adv-x="1004" 
d="M85 725v6q0 155 97.5 257.5t246.5 102.5h492v-69h-492q-139 0 -224 -81.5t-85 -209.5v-6q2 -117 85.5 -192t223.5 -75h272v-503h-34v398h-238q-149 0 -245.5 106t-98.5 266zM591 -162l80 79l79 -79l-80 -80z" />
    <glyph glyph-name="uni0621" unicode="&#x621;" horiz-adv-x="1049" 
d="M807 590q-243 82 -392 1q-95 -51 -116 -148q-21 -94 40 -169q61 -76 177 -91h450v-95h-882v95h274q-63 54 -85 137t2.5 160t91 138.5t180.5 73t271 -36.5z" />
    <glyph glyph-name="uni0622" unicode="&#x622;" horiz-adv-x="461" 
d="M247 0h-34v1369h34v-1369zM-104 1667v41q76 32 147 36.5t127.5 -7.5t113.5 -23t129 -3.5t150 44.5v-41q-80 -37 -154 -44.5t-131 3.5t-113.5 23t-125.5 7.5t-143 -36.5z" />
    <glyph glyph-name="uni0623" unicode="&#x623;" horiz-adv-x="461" 
d="M247 0h-34v1369h34v-1369zM39 1539v53h108q-32 37 -36.5 88t20.5 92t79 60.5t140 -8.5v-46q-126 43 -188 -12q-42 -37 -29 -91.5t72 -75.5q12 -5 25 -7h194v-53h-385z" />
    <glyph glyph-name="uni0624" unicode="&#x624;" horiz-adv-x="868" 
d="M88 -483v82h169q479 0 492 405h-236q-69 0 -121.5 6.5t-104 26t-85.5 52t-56 88t-24 130.5v9v8q4 98 38.5 180.5t105.5 137t166 54.5q160 0 255.5 -127.5t95.5 -349.5v-193q0 -90 -17.5 -164.5t-47 -126t-71.5 -91.5t-87.5 -63.5t-99.5 -38t-102 -20t-101 -5.5h-169z
M156 317q2 -62 27 -104t74.5 -64t110 -31t145.5 -9h236v110q0 194 -82.5 296.5t-234.5 102.5q-133 0 -203.5 -86.5t-72.5 -214.5zM244 854v52h107q-32 37 -36.5 88t20.5 92.5t79.5 61t140.5 -8.5v-46q-125 43 -187 -12q-42 -36 -30 -91q13 -56 71 -77q13 -5 26 -7h194v-52
h-385z" />
    <glyph glyph-name="uni0625" unicode="&#x625;" horiz-adv-x="461" 
d="M247 0h-34v1369h34v-1369zM32 -403v52h107q-32 37 -36.5 88t20.5 92.5t79 61t140 -8.5v-46q-125 43 -187 -12q-42 -36 -29 -91q13 -56 71 -77q13 -5 26 -7h194v-52h-385z" />
    <glyph glyph-name="uni0626" unicode="&#x626;" horiz-adv-x="1400" 
d="M285 791q-158 -188 -165 -458q5 -214 119 -320.5t317 -106.5h214q112 0 199.5 19t140 49t86.5 70t47 77.5t13 76.5q-1 48 -20.5 83.5t-52 58t-85.5 37t-108 21.5t-132 12q-120 8 -194 70.5t-78 164.5v23q0 99 76.5 165.5t201.5 66.5h446v-59h-446q-113 0 -178.5 -50
t-65.5 -123v-13q0 -74 62 -121.5t177 -54.5q80 -5 136.5 -12.5t116 -26.5t96 -48.5t59.5 -79t23 -116.5h-1q0 -55 -15 -107t-53 -105.5t-95 -93t-149 -64.5t-207 -25h-214q-203 0 -331.5 129.5t-138.5 380.5h-1v20v20h1q11 264 173 462zM198 999v52h108q-32 37 -36.5 88
t20.5 92.5t79 61t140 -8.5v-46q-125 43 -187 -12q-42 -36 -30 -91q13 -56 71 -77q13 -5 26 -7h194v-52h-385z" />
    <glyph glyph-name="uni0627" unicode="&#x627;" horiz-adv-x="461" 
d="M247 0h-34v1369h34v-1369z" />
    <glyph glyph-name="uni0628" unicode="&#x628;" horiz-adv-x="1582" 
d="M210 717q-87 -155 -90 -324q1 -61 16 -107.5t44.5 -77.5t65 -51t87 -30t101 -14t116.5 -4h645q126 0 197 64t71 169v431h34v-431q0 -148 -83.5 -243t-218.5 -95h-645q-67 0 -118 5t-107 18t-95.5 39.5t-73 67t-51.5 103.5t-20 146v9v11q6 178 95 332zM736 -239l79 79
l79 -79l-80 -80z" />
    <glyph glyph-name="uni0629" unicode="&#x629;" horiz-adv-x="797" 
d="M301 1085l79 -79l-79 -79l-79 79zM85 309v13v11q5 203 85 312t223 109q81 0 143.5 -33.5t99.5 -91.5t56 -128t21 -150v-8v-5q-1 -54 -7.5 -97.5t-27 -89.5t-54.5 -76.5t-93 -50.5t-138 -20q-297 0 -307 305h-1zM120 323q1 -50 11 -84.5t37.5 -66t83.5 -47.5t141 -16
q63 0 110 7.5t77.5 23.5t50.5 34.5t30 47.5t13.5 56t3.5 65q-1 72 -16.5 131.5t-47.5 107.5t-88.5 75t-132.5 27q-269 0 -273 -361zM440 1005l79 80l79 -80l-79 -79z" />
    <glyph glyph-name="uni062A" unicode="&#x62a;" horiz-adv-x="1582" 
d="M210 717q-87 -155 -90 -324q1 -61 16 -107.5t44.5 -77.5t65 -51t87 -30t101 -14t116.5 -4h645q126 0 197 64t71 169v431h34v-431q0 -148 -83.5 -243t-218.5 -95h-645q-67 0 -118 5t-107 18t-95.5 39.5t-73 67t-51.5 103.5t-20 146v9v11q6 178 95 332zM638 957l80 79
l78 -79l-79 -80zM856 956l80 79l78 -79l-79 -79z" />
    <glyph glyph-name="uni062B" unicode="&#x62b;" horiz-adv-x="1582" 
d="M210 717q-87 -155 -90 -324q1 -61 16 -107.5t44.5 -77.5t65 -51t87 -30t101 -14t116.5 -4h645q126 0 197 64t71 169v431h34v-431q0 -148 -83.5 -243t-218.5 -95h-645q-67 0 -118 5t-107 18t-95.5 39.5t-73 67t-51.5 103.5t-20 146v9v11q6 178 95 332zM643 974l80 79
l78 -79l-79 -79zM752 1150l79 80l79 -80l-79 -79zM861 973l79 80l80 -80l-80 -79z" />
    <glyph glyph-name="uni062C" unicode="&#x62c;" horiz-adv-x="1324" 
d="M1241 715v-103l-321 -73q-217 -49 -374 -115.5t-250.5 -146t-136 -168t-39.5 -191.5q5 -76 39.5 -140.5t106.5 -120.5t184 -87t270 -39.5t366 22.5v-71q-212 -31 -375 -20t-279.5 47.5t-192 100.5t-112.5 140t-42 166q-8 259 196.5 443.5t630.5 281.5l196 44
q-70 25 -141.5 70t-160 109.5t-149.5 101.5q-70 43 -134.5 59t-130.5 5.5t-126.5 -35.5t-141.5 -71v74q86 48 146 72.5t127.5 34t134 -9.5t143.5 -67q57 -35 140.5 -95t135.5 -95t130.5 -67.5t159.5 -40.5l-1 -15h1zM724 -91l80 80l78 -80l-79 -79z" />
    <glyph glyph-name="uni062D" unicode="&#x62d;" horiz-adv-x="1324" 
d="M1241 715v-103l-321 -73q-217 -49 -374 -115.5t-250.5 -146t-136 -168t-39.5 -191.5q5 -76 39.5 -140.5t106.5 -120.5t184 -87t270 -39.5t366 22.5v-71q-212 -31 -375 -20t-279.5 47.5t-192 100.5t-112.5 140t-42 166q-8 259 196.5 443.5t630.5 281.5l196 44
q-70 25 -141.5 70t-160 109.5t-149.5 101.5q-70 43 -134.5 59t-130.5 5.5t-126.5 -35.5t-141.5 -71v74q86 48 146 72.5t127.5 34t134 -9.5t143.5 -67q57 -35 140.5 -95t135.5 -95t130.5 -67.5t159.5 -40.5l-1 -15h1z" />
    <glyph glyph-name="uni062E" unicode="&#x62e;" horiz-adv-x="1324" 
d="M1241 715v-103l-321 -73q-217 -49 -374 -115.5t-250.5 -146t-136 -168t-39.5 -191.5q5 -76 39.5 -140.5t106.5 -120.5t184 -87t270 -39.5t366 22.5v-71q-212 -31 -375 -20t-279.5 47.5t-192 100.5t-112.5 140t-42 166q-8 259 196.5 443.5t630.5 281.5l196 44
q-70 25 -141.5 70t-160 109.5t-149.5 101.5q-70 43 -134.5 59t-130.5 5.5t-126.5 -35.5t-141.5 -71v74q86 48 146 72.5t127.5 34t134 -9.5t143.5 -67q57 -35 140.5 -95t135.5 -95t130.5 -67.5t159.5 -40.5l-1 -15h1zM353 1393l80 80l78 -80l-79 -79z" />
    <glyph glyph-name="uni062F" unicode="&#x62f;" horiz-adv-x="842" 
d="M796 351q-4 -347 -365 -347h-387v105h387q173 0 251 59t80 183v6q0 355 -538 296v70q572 62 572 -366v-6z" />
    <glyph glyph-name="uni0630" unicode="&#x630;" horiz-adv-x="842" 
d="M796 351q-4 -347 -365 -347h-387v105h387q173 0 251 59t80 183v6q0 355 -538 296v70q572 62 572 -366v-6zM315 1074l80 79l78 -79l-79 -79z" />
    <glyph glyph-name="uni0631" unicode="&#x631;" horiz-adv-x="557" 
d="M0 -428q74 0 132 7.5t102.5 25t77 39.5t55 58t36.5 73.5t21.5 92.5t10 108.5t2.5 127.5v588h35v-588q0 -90 -4.5 -157.5t-16.5 -136.5t-33.5 -118t-57 -92.5t-85 -70t-118.5 -42t-157 -15.5v100z" />
    <glyph glyph-name="uni0632" unicode="&#x632;" horiz-adv-x="578" 
d="M0 -428q74 0 132 7.5t102.5 25t77 39.5t55 58t36.5 73.5t21.5 92.5t10 108.5t2.5 127.5v588h35v-588q0 -90 -4.5 -157.5t-16.5 -136.5t-33.5 -118t-57 -92.5t-85 -70t-118.5 -42t-157 -15.5v100zM375 1011l80 79l78 -79l-79 -80z" />
    <glyph glyph-name="uni0633" unicode="&#x633;" horiz-adv-x="2220" 
d="M303 635q-82 -80 -131.5 -213t-51.5 -281q2 -95 25.5 -171t72 -136t131.5 -93t194 -33q71 0 133 11t123 41t104 77t69.5 124t26.5 178v553h35v-452q21 -44 58 -76t81 -47t92.5 -18t94.5 13t84 45.5t63.5 80t31.5 114.5l21 239h36l-22 -249q-4 -57 -22 -112
q119 -121 255 -121h39q119 0 187 62t68 162v406h35v-406q0 -143 -81.5 -236t-208.5 -93h-39q-72 0 -138.5 38t-144.5 120q-53 -100 -145 -139t-187 -7t-158 126v-3q0 -126 -31 -223t-79 -155t-115 -94.5t-131 -49.5t-135 -13q-113 0 -200.5 41.5t-141.5 114t-83 165
t-32 201.5h-1v15q0 10 1 15q5 149 57.5 285t135.5 218z" />
    <glyph glyph-name="uni0634" unicode="&#x634;" horiz-adv-x="2220" 
d="M303 635q-82 -80 -131.5 -213t-51.5 -281q2 -95 25.5 -171t72 -136t131.5 -93t194 -33q71 0 133 11t123 41t104 77t69.5 124t26.5 178v553h35v-452q21 -44 58 -76t81 -47t92.5 -18t94.5 13t84 45.5t63.5 80t31.5 114.5l21 239h36l-22 -249q-4 -57 -22 -112
q119 -121 255 -121h39q119 0 187 62t68 162v406h35v-406q0 -143 -81.5 -236t-208.5 -93h-39q-72 0 -138.5 38t-144.5 120q-53 -100 -145 -139t-187 -7t-158 126v-3q0 -126 -31 -223t-79 -155t-115 -94.5t-131 -49.5t-135 -13q-113 0 -200.5 41.5t-141.5 114t-83 165
t-32 201.5h-1v15q0 10 1 15q5 149 57.5 285t135.5 218zM1411 974l79 79l79 -79l-80 -79zM1520 1150l79 80l79 -80l-80 -79zM1629 973l79 80l79 -80l-80 -79z" />
    <glyph glyph-name="uni0635" unicode="&#x635;" horiz-adv-x="2330" 
d="M2245 318q0 -137 -77.5 -225.5t-202.5 -88.5h-248q-447 0 -683 210v-75q0 -126 -31 -223t-79 -155t-115 -94.5t-131 -49.5t-135 -13q-113 0 -200.5 41.5t-141.5 114t-83 165t-32 201.5h-1v15q0 10 1 15q5 149 57.5 285t135.5 218l24 -24q-82 -80 -131.5 -213t-51.5 -281
q2 -95 25.5 -171t72 -136t131.5 -93t194 -33q71 0 133 11t123 41t104 77t69.5 124t26.5 178v553h35v-382l6 -5q89 101 185 182t187.5 134t182 87.5t172 42.5t155 -1.5t132.5 -44t102 -85.5t66 -125t23 -164v-13zM1076 275q101 -76 265.5 -121t375.5 -45h248q117 0 181.5 58
t64.5 151v13q0 143 -67.5 237t-185 119.5t-260 -3t-308 -135.5t-314.5 -274z" />
    <glyph glyph-name="uni0636" unicode="&#x636;" horiz-adv-x="2330" 
d="M2245 318q0 -137 -77.5 -225.5t-202.5 -88.5h-248q-447 0 -683 210v-75q0 -126 -31 -223t-79 -155t-115 -94.5t-131 -49.5t-135 -13q-113 0 -200.5 41.5t-141.5 114t-83 165t-32 201.5h-1v15q0 10 1 15q5 149 57.5 285t135.5 218l24 -24q-82 -80 -131.5 -213t-51.5 -281
q2 -95 25.5 -171t72 -136t131.5 -93t194 -33q71 0 133 11t123 41t104 77t69.5 124t26.5 178v553h35v-382l6 -5q89 101 185 182t187.5 134t182 87.5t172 42.5t155 -1.5t132.5 -44t102 -85.5t66 -125t23 -164v-13zM1076 275q101 -76 265.5 -121t375.5 -45h248q117 0 181.5 58
t64.5 151v13q0 143 -67.5 237t-185 119.5t-260 -3t-308 -135.5t-314.5 -274zM1262 1026l80 79l78 -79l-79 -80z" />
    <glyph glyph-name="uni0637" unicode="&#x637;" horiz-adv-x="1557" 
d="M1472 332q0 -68 -21 -125.5t-64 -104t-115.5 -72.5t-169.5 -26h-1018v105h226v1260h34v-1196q155 310 399 458q198 121 390 100q169 -18 262 -139q77 -101 77 -248v-12zM356 109h746q180 0 258 61.5t78 161.5v12q0 172 -122 265q-118 90 -295 69q-209 -25 -395 -193
q-162 -146 -270 -376z" />
    <glyph glyph-name="uni0638" unicode="&#x638;" horiz-adv-x="1557" 
d="M1472 332q0 -68 -21 -125.5t-64 -104t-115.5 -72.5t-169.5 -26h-1018v105h226v1260h34v-1196q155 310 399 458q198 121 390 100q169 -18 262 -139q77 -101 77 -248v-12zM356 109h746q180 0 258 61.5t78 161.5v12q0 172 -122 265q-118 90 -295 69q-209 -25 -395 -193
q-162 -146 -270 -376zM728 1131l80 80l78 -80l-79 -79z" />
    <glyph glyph-name="uni0639" unicode="&#x639;" horiz-adv-x="1291" 
d="M1086 -484q-264 -33 -454 -17.5t-312 77t-179 149.5t-56 200q0 62 12.5 122.5t46.5 127t87 120.5t140 99t199 67q-127 52 -185.5 150t-41.5 199q31 173 216 237.5t467 11.5v-70q-183 34 -321.5 22t-224.5 -67.5t-102 -144.5q-9 -54 12.5 -107.5t71.5 -100t144.5 -76
t218.5 -29.5v-3h383v-105h-401q-119 0 -218 -15.5t-169.5 -42t-125 -64t-87.5 -78.5t-54 -88.5t-28.5 -91.5t-5.5 -89q4 -87 60 -156.5t173 -119.5t298.5 -60.5t435.5 21.5v-78z" />
    <glyph glyph-name="uni063A" unicode="&#x63a;" horiz-adv-x="1291" 
d="M1086 -484q-264 -33 -454 -17.5t-312 77t-179 149.5t-56 200q0 62 12.5 122.5t46.5 127t87 120.5t140 99t199 67q-127 52 -185.5 150t-41.5 199q31 173 216 237.5t467 11.5v-70q-183 34 -321.5 22t-224.5 -67.5t-102 -144.5q-9 -54 12.5 -107.5t71.5 -100t144.5 -76
t218.5 -29.5v-3h383v-105h-401q-119 0 -218 -15.5t-169.5 -42t-125 -64t-87.5 -78.5t-54 -88.5t-28.5 -91.5t-5.5 -89q4 -87 60 -156.5t173 -119.5t298.5 -60.5t435.5 21.5v-78zM666 1419l79 79l79 -79l-79 -80z" />
    <glyph glyph-name="uni0640" unicode="&#x640;" horiz-adv-x="440" 
d="M450 109q22 0 37 -15t15 -37t-15 -37.5t-37 -15.5h-459q-22 0 -37 15.5t-15 37.5t15 37t37 15h459z" />
    <glyph glyph-name="uni0641" unicode="&#x641;" horiz-adv-x="1926" 
d="M210 717q-87 -155 -90 -324q1 -61 16 -107.5t44.5 -77.5t65 -51t87 -30t101 -14t116.5 -4h855q204 0 297 54t104 188h-314q-158 0 -236 68t-76 224q0 10 2 30v6q13 130 107 214.5t204 84.5q66 0 126.5 -31t111 -90.5t81 -158.5t30.5 -223v-84q0 -109 -28 -184.5
t-85 -119.5t-135.5 -63.5t-188.5 -19.5h-855q-67 0 -118 5t-107 18t-95.5 39.5t-73 67t-51.5 103.5t-20 146v9v11q6 178 95 332zM1217 670q-8 -133 53.5 -184.5t221.5 -51.5h315v41q0 111 -26.5 197.5t-71.5 137.5t-99.5 77t-116.5 26q-102 0 -183.5 -69t-92.5 -174z
M1413 1284l80 79l78 -79l-79 -80z" />
    <glyph glyph-name="uni0642" unicode="&#x642;" horiz-adv-x="1137" 
d="M1091 57q0 -105 -15 -183t-53.5 -146.5t-104 -111.5t-169 -67.5t-244.5 -24.5q-113 0 -201 41.5t-142 114.5t-83 165.5t-32 201.5h-1v14q0 9 1 14q5 149 57.5 285.5t135.5 219.5l25 -25q-82 -80 -132.5 -214t-52.5 -280q2 -94 26 -170t73 -136t132 -93t194 -33
q117 0 204.5 11.5t148 37.5t100 59.5t61 84.5t30 105.5t8.5 129.5v67h-316q-168 0 -246.5 80.5t-64.5 265.5h2q8 88 57 159.5t116 108.5t136 37q50 0 97.5 -17.5t92 -56.5t79 -95t56 -138.5t24.5 -181.5h1v-229zM463 433q-1 -118 62.5 -166.5t215.5 -48.5h316v38
q0 117 -27.5 206t-73.5 140.5t-100.5 77t-114.5 25.5q-106 0 -191.5 -77t-85.5 -190v-5h-1zM567 1051l79 79l79 -79l-79 -79zM785 1050l79 80l79 -80l-80 -79z" />
    <glyph glyph-name="uni0643" unicode="&#x643;" horiz-adv-x="1582" 
d="M85 671h35v-242q0 -92 13 -147.5t52.5 -97.5t111.5 -58.5t190 -16.5h705q128 0 199.5 64t71.5 170v1050h34v-1050q0 -149 -84 -244t-221 -95h-705q-119 0 -198.5 26.5t-124 83t-62 131t-17.5 184.5v242zM644 714v72l318 113v-45l-284 -101l212 -48q115 -25 118 -106
q2 -42 -30 -71t-90 -33l-234 -17v45l232 18q50 4 75 19.5t24 36.5q-3 41 -100 63z" />
    <glyph glyph-name="uni0644" unicode="&#x644;" horiz-adv-x="1119" 
d="M303 638q-82 -80 -131.5 -213t-51.5 -281q2 -95 25.5 -171.5t72 -137t131.5 -94t194 -33.5q71 0 133 11t123 41t104 77t69.5 124t26.5 178v1254h35v-1254q0 -126 -31 -223t-79 -155t-115 -94.5t-131 -49.5t-135 -13q-113 0 -200.5 42t-141.5 115t-83 166t-32 202h-1v15
q0 10 1 15q5 149 57.5 286t135.5 218z" />
    <glyph glyph-name="uni0645" unicode="&#x645;" horiz-adv-x="1263" 
d="M1178 342v-1v-3q-2 -158 -100.5 -265t-253.5 -107q-121 0 -209 43t-176 146l-55 -16q-83 -19 -137.5 -52t-81 -80.5t-36 -94.5t-9.5 -111v-437h-35v437q0 380 306 441l51 14q15 27 34 104t35 113q37 79 93 132t117 72.5t126 18t123.5 -30.5t105 -73t74 -109.5
t28.5 -140.5zM470 216q67 -74 151.5 -109.5t202.5 -35.5q148 0 233 77.5t87 192.5q-1 72 -35.5 133t-88 98.5t-121.5 52t-133.5 2.5t-126 -59t-97.5 -125q-13 -29 -35 -111.5t-37 -115.5z" />
    <glyph glyph-name="uni0646" unicode="&#x646;" horiz-adv-x="1119" 
d="M303 635q-82 -80 -131.5 -213t-51.5 -281q2 -95 25.5 -171t72 -136t131.5 -93t194 -33q71 0 133 11t123 41t104 77t69.5 124t26.5 178v553h35v-553q0 -126 -31 -223t-79 -155t-115 -94.5t-131 -49.5t-135 -13q-113 0 -200.5 41.5t-141.5 114t-83 165t-32 201.5h-1v15
q0 10 1 15q5 149 57.5 285t135.5 218zM566 922l80 79l78 -79l-79 -80z" />
    <glyph glyph-name="uni0647" unicode="&#x647;" horiz-adv-x="797" 
d="M85 309v13v11q5 203 85 312t223 109q81 0 143.5 -33.5t99.5 -91.5t56 -128t21 -150v-8v-5q-1 -54 -7.5 -97.5t-27 -89.5t-54.5 -76.5t-93 -50.5t-138 -20q-297 0 -307 305h-1zM120 323q1 -50 11 -84.5t37.5 -66t83.5 -47.5t141 -16q63 0 110 7.5t77.5 23.5t50.5 34.5
t30 47.5t13.5 56t3.5 65q-1 72 -16.5 131.5t-47.5 107.5t-88.5 75t-132.5 27q-269 0 -273 -361z" />
    <glyph glyph-name="uni0648" unicode="&#x648;" horiz-adv-x="868" 
d="M88 -483v82h169q479 0 492 405h-236q-69 0 -121.5 6.5t-104 26t-85.5 52t-56 88t-24 130.5v9v8q4 98 38.5 180.5t105.5 137t166 54.5q160 0 255.5 -127.5t95.5 -349.5v-193q0 -90 -17.5 -164.5t-47 -126t-71.5 -91.5t-87.5 -63.5t-99.5 -38t-102 -20t-101 -5.5h-169z
M156 317q2 -62 27 -104t74.5 -64t110 -31t145.5 -9h236v110q0 194 -82.5 296.5t-234.5 102.5q-133 0 -203.5 -86.5t-72.5 -214.5z" />
    <glyph glyph-name="uni0649" unicode="&#x649;" horiz-adv-x="1400" 
d="M285 791q-158 -188 -165 -458q5 -214 119 -320.5t317 -106.5h214q112 0 199.5 19t140 49t86.5 70t47 77.5t13 76.5q-1 48 -20.5 83.5t-52 58t-85.5 37t-108 21.5t-132 12q-120 8 -194 70.5t-78 164.5v23q0 99 76.5 165.5t201.5 66.5h446v-59h-446q-113 0 -178.5 -50
t-65.5 -123v-13q0 -74 62 -121.5t177 -54.5q80 -5 136.5 -12.5t116 -26.5t96 -48.5t59.5 -79t23 -116.5h-1q0 -55 -15 -107t-53 -105.5t-95 -93t-149 -64.5t-207 -25h-214q-203 0 -331.5 129.5t-138.5 380.5h-1v20v20h1q11 264 173 462z" />
    <glyph glyph-name="uni064A" unicode="&#x64a;" horiz-adv-x="1400" 
d="M285 791q-158 -188 -165 -458q5 -214 119 -320.5t317 -106.5h214q112 0 199.5 19t140 49t86.5 70t47 77.5t13 76.5q-1 48 -20.5 83.5t-52 58t-85.5 37t-108 21.5t-132 12q-120 8 -194 70.5t-78 164.5v23q0 99 76.5 165.5t201.5 66.5h446v-59h-446q-113 0 -178.5 -50
t-65.5 -123v-13q0 -74 62 -121.5t177 -54.5q80 -5 136.5 -12.5t116 -26.5t96 -48.5t59.5 -79t23 -116.5h-1q0 -55 -15 -107t-53 -105.5t-95 -93t-149 -64.5t-207 -25h-214q-203 0 -331.5 129.5t-138.5 380.5h-1v20v20h1q11 264 173 462zM573 -414l80 80l79 -80l-80 -79z
M791 -415l80 80l78 -80l-79 -79z" />
    <glyph glyph-name="uni064B" unicode="&#x64b;" 
d="M5 624l-5 25l389 82l5 -25zM0 541l389 82l5 -24l-389 -82z" />
    <glyph glyph-name="uni064C" unicode="&#x64c;" 
d="M0 648q110 44 193 88q-51 32 -61.5 87.5t23.5 95.5t95 33q35 -4 58 -36t22 -74t-28 -74q-54 -65 -293 -160zM238 761q34 20 45 34q31 37 19.5 72.5t-55.5 40.5q-55 7 -81 -22t-7 -68t79 -57zM241 636q106 43 192 88q-51 32 -61 87.5t24 95.5t95 33q35 -4 58 -36t22 -74.5
t-28 -74.5q-52 -63 -293 -159zM478 749q36 21 46 34q31 37 19 72.5t-56 40.5q-55 7 -81 -22t-7 -68t79 -57z" />
    <glyph glyph-name="uni064D" unicode="&#x64d;" 
d="M5 -165l-5 25l389 82l5 -25zM0 -247l389 82l5 -25l-389 -82z" />
    <glyph glyph-name="uni064E" unicode="&#x64e;" 
d="M5 608l-5 24l389 82l5 -24z" />
    <glyph glyph-name="uni064F" unicode="&#x64f;" 
d="M0 656q108 43 196 89q-52 32 -62.5 88t24 97t95.5 34q36 -5 59 -37t22 -75t-28 -75q-51 -62 -296 -162zM241 771q35 21 47 34q31 38 19 74t-57 41q-56 7 -82.5 -22.5t-6.5 -69t80 -57.5z" />
    <glyph glyph-name="uni0650" unicode="&#x650;" 
d="M5 -198l-5 24l389 82l5 -24z" />
    <glyph glyph-name="uni0651" unicode="&#x651;" 
d="M16 928q0 -7 -0.5 -26t0 -25.5t2 -22t4.5 -21.5t8.5 -15.5t14.5 -13.5t22 -7.5t30 -3.5q20 0 30 0.5t19.5 7t13 13t6 26.5t3 38.5t0.5 58.5h15q0 -87 -8 -126q76 -30 114 -12t38 91v54h14v-54q0 -110 -46 -135.5t-136 14.5q-17 -25 -63 -25q-20 0 -36 5.5t-26 13.5
t-17 23t-10.5 26t-5 30.5t-1.5 30t0.5 30t0.5 25.5h14z" />
    <glyph glyph-name="uni0652" unicode="&#x652;" 
d="M221 1421v-4v-4q-4 -111 -110 -111q-53 0 -80 30.5t-29 81.5v3v4q2 49 27 82t77 33q59 0 86 -33t29 -82zM22 1418q2 -57 89 -57q51 0 70 14t20 42q-2 80 -95 80q-82 0 -84 -79z" />
    <glyph glyph-name="uni0653" unicode="&#x653;" 
d="M1 1411q76 32 147 36.5t127.5 -7.5t113.5 -23.5t129 -4t150 44.5v-41q-80 -37 -154 -44.5t-131 4t-113.5 23.5t-125.5 7.5t-143 -36.5v41z" />
    <glyph glyph-name="uni0654" unicode="&#x654;" 
d="M0 1525v52h107q-32 37 -36.5 88t20.5 92.5t79 61t140 -8.5v-46q-125 43 -187 -12q-42 -36 -29 -91q13 -56 71 -77q13 -5 26 -7h194v-52h-385z" />
    <glyph glyph-name="uni0655" unicode="&#x655;" 
d="M0 -369v52h107q-32 37 -36.5 88t20.5 92.5t79 61t140 -8.5v-46q-125 43 -187 -12q-42 -36 -29 -91q13 -56 71 -77q13 -5 26 -7h194v-52h-385z" />
    <glyph glyph-name="uni0656" unicode="&#x656;" 
d="M42 -146v-326h-26v326h26z" />
    <glyph glyph-name="uni0657" unicode="&#x657;" 
d="M335 863q-100 -40 -196 -90q52 -32 62.5 -88t-24 -96.5t-95.5 -33.5q-36 5 -59 37t-22 74.5t28 74.5q53 64 296 163zM48 714q-31 -38 -19.5 -74t56.5 -41q56 -7 82.5 22.5t6.5 69t-80 57.5q-33 -20 -46 -34z" />
    <glyph glyph-name="uni0658" unicode="&#x658;" 
d="M111 1350q-39 -38 -62 -101t-25 -130q4 -196 194 -196q211 0 211 195v260h23v-260q0 -75 -21.5 -129t-58 -80.5t-74 -38t-80.5 -11.5q-72 0 -122 37t-71.5 92.5t-23.5 124.5v6v7q2 71 27 136.5t66 105.5z" />
    <glyph glyph-name="uni0659" unicode="&#x659;" 
d="M0 645v49h643v-49h-643z" />
    <glyph glyph-name="uni065A" unicode="&#x65a;" 
d="M469 1614l25 -18l-226 -311h-43l-224 311l24 18l215 -300h13z" />
    <glyph glyph-name="uni065B" unicode="&#x65b;" 
d="M469 988l-216 300h-13l-215 -300l-24 18l224 311h43l226 -311z" />
    <glyph glyph-name="uni065C" unicode="&#x65c;" 
d="M143 -452q-28 0 -48 19t-20 47t20 47.5t48 19.5t47.5 -19.5t19.5 -47.5t-19.5 -47t-47.5 -19z" />
    <glyph glyph-name="uni065D" unicode="&#x65d;" 
d="M351 615q-243 99 -295 162q-27 32 -28 75t21.5 75t58.5 37q61 7 95.5 -34t24 -97t-62.5 -88q88 -46 196 -89zM74 805q13 -14 46 -34q60 18 80 57.5t-6.5 69t-82.5 22.5q-45 -5 -56.5 -41t19.5 -74z" />
    <glyph glyph-name="uni065E" unicode="&#x65e;" 
d="M111 967h-24l327 641h25zM75 1453l32 31l31 -31l-32 -32zM383 1131l32 32l31 -32l-31 -32z" />
    <glyph glyph-name="uni0660" unicode="&#x660;" horiz-adv-x="526" 
d="M358 473l-93 -96l-97 93l96 95z" />
    <glyph glyph-name="uni0661" unicode="&#x661;" horiz-adv-x="716" 
d="M376 1h-34v1361h34v-1361z" />
    <glyph glyph-name="uni0662" unicode="&#x662;" horiz-adv-x="918" 
d="M125 0h-34v1365h738v-105h-704v-1260z" />
    <glyph glyph-name="uni0663" unicode="&#x663;" horiz-adv-x="1209" 
d="M125 1h-34v1368h34v-499q156 -1 193 2q131 13 191 94q77 104 77 355h34q0 -147 -20 -250q15 -53 29.5 -83.5t43.5 -56t76 -35.5t121 -10q128 0 171.5 93t43.5 342h34q0 -277 -56.5 -408t-192.5 -131q-69 0 -118 13.5t-81.5 42.5t-52.5 65t-37 90q-19 -58 -47 -100.5
t-62 -66t-74.5 -38t-84 -18t-91.5 -5.5t-97 0v-764z" />
    <glyph glyph-name="uni0664" unicode="&#x664;" horiz-adv-x="934" 
d="M535 754v-1h183v-70h-202q-176 0 -278 -72t-107 -203q5 -150 105.5 -224.5t310.5 -74.5h298v-105h-298q-213 0 -327.5 98t-122.5 294v12v7q5 108 59 183.5t149 115.5q-99 40 -156.5 124t-57.5 204v20q0 129 78 216t218 87h299v-70h-299q-128 0 -195 -64.5t-67 -168.5v-20
q0 -137 97 -212.5t255 -75.5h58z" />
    <glyph glyph-name="uni0665" unicode="&#x665;" horiz-adv-x="964" 
d="M873 555v-3q0 -73 -13.5 -138.5t-43.5 -124.5t-74.5 -102t-111 -68.5t-148.5 -25.5q-97 0 -172.5 35t-120.5 95.5t-69 135.5t-28 162h-1v22v9q0 75 31.5 165.5t83 169.5t125.5 132t151 53q101 0 194 -88t144.5 -207t52.5 -222zM125 545q1 -74 19.5 -134t59 -109.5
t111 -76.5t167.5 -27q98 0 169 27.5t111 77.5t58.5 111.5t18.5 137.5v3q-1 88 -46.5 190.5t-130.5 179.5t-180 77q-72 0 -140.5 -46.5t-114.5 -115t-74 -146.5t-28 -142v-7z" />
    <glyph glyph-name="uni0666" unicode="&#x666;" horiz-adv-x="918" 
d="M793 0v1260h-704v105h738v-1365h-34z" />
    <glyph glyph-name="uni0667" unicode="&#x667;" horiz-adv-x="1123" 
d="M524 0l-437 1369h87l419 -1313l410 1313h36l-427 -1369h-88z" />
    <glyph glyph-name="uni0668" unicode="&#x668;" horiz-adv-x="1123" 
d="M612 1369l427 -1369h-36l-410 1313l-419 -1313h-87l437 1369h88z" />
    <glyph glyph-name="uni0669" unicode="&#x669;" horiz-adv-x="937" 
d="M92 1007q8 164 117 261t267 97h1q167 0 268 -117t101 -300v-948h-34v657h-264q-225 0 -341 80t-116 232zM125 969q0 -242 423 -242h264v221q0 141 -88.5 226.5t-246.5 85.5h-1q-152 0 -251.5 -75.5t-99.5 -203.5v-12z" />
    <glyph glyph-name="uni066A" unicode="&#x66a;" horiz-adv-x="1080" 
d="M166 0h-62l818 1603h63zM75 1216l80 79l78 -79l-79 -80zM846 411l80 80l78 -80l-79 -79z" />
    <glyph glyph-name="uni066B" unicode="&#x66b;" horiz-adv-x="367" 
d="M187 15q-39 0 -67 28t-28 67t28 67t67 28q40 0 67.5 -28t27.5 -67q0 -5 -2 -17q1 -164 -1 -190q-8 -97 -62 -147q-35 -33 -100 -60l-13 33q36 15 61 31t41 35t24.5 42t12.5 52t4 65v81q-25 -20 -60 -20z" />
    <glyph glyph-name="uni066C" unicode="&#x66c;" horiz-adv-x="383" 
d="M84 -342q46 19 76.5 37.5t51.5 40t30.5 47.5t15.5 60.5t5 78t0 100.5q-1 63 -1 99h35q0 -35 1 -82t1.5 -75t0 -65t-3.5 -60t-9 -52t-15.5 -48t-25 -41.5t-36.5 -38.5t-49 -33t-64 -32z" />
    <glyph glyph-name="uni066D" unicode="&#x66d;" horiz-adv-x="1066" 
d="M560 23h-53v386l-273 -273l-37 38l272 272h-385v53h385l-272 273l37 37l273 -272v385h53v-385l272 272l38 -37l-273 -273h386v-53h-386l273 -272l-38 -38l-272 273v-386z" />
    </font>
</defs>
</svg>
