<?xml version="1.0" standalone="no"?>
<!DOCTYPE svg PUBLIC "-//W3C//DTD SVG 1.1//EN" "http://www.w3.org/Graphics/SVG/1.1/DTD/svg11.dtd" >
<svg xmlns="http://www.w3.org/2000/svg" xmlns:xlink="http://www.w3.org/1999/xlink" version="1.1">
<metadata>
Created by FontForge 20170731 at Sun Aug 20 12:35:16 2023
 By Aleksey,,,
Copyright (c) 2020 by TPTQ Arabic. All rights reserved.
</metadata>
<defs>
<font id="PingAR+LT-Regular" horiz-adv-x="1531" >
  <font-face 
    font-family="Ping AR + LT"
    font-weight="400"
    font-stretch="normal"
    units-per-em="2048"
    panose-1="0 0 5 0 0 0 0 0 0 0"
    ascent="1638"
    descent="-410"
    x-height="1069"
    cap-height="1440"
    bbox="-526 -1116 3123 1942"
    underline-thickness="102"
    underline-position="-307"
    unicode-range="U+000D-1F5FA"
  />
<missing-glyph horiz-adv-x="1368" 
d="M254 1845h868v-2736h-868v2736zM911 1571v90h-452v-90h178v-101h-180v-90h454v90h-180v101h180zM731 1118v191h-274v-285h454v94h-180zM547 1217h90v-99h-90v99zM911 860v90h-454v-90h180v-100h-180v-90h274v190h180zM911 512v274h-90v-180h-364v-94h454zM911 143v310
h-274v-154h94v63h90v-129h-274v220h-90v-310h454zM911 -330v310h-454v-310h454zM547 -111h274v-129h-274v129zM911 -483v90h-454v-90h192l-192 -129v-90h454v90h-278l190 129h88z" />
    <glyph glyph-name="uniFDF2" unicode="&#x627;&#xfedf;&#xfee0;&#xfeea;" horiz-adv-x="2787" arabic-form="isolated" 
d="M2025 375v1065h136v-1041q0 -203 -108.5 -301t-287.5 -98q-129 0 -217.5 50t-111.5 145q-27 -91 -112 -143t-202 -52q-335 0 -379 289q-81 -162 -315 -162q-165 0 -266 92.5t-101 245.5q0 397 676 514v147h135v-720q0 -75 18 -123.5t55 -72.5t78.5 -32t104.5 -8
q47 0 81 4.5t68.5 18.5t56 39.5t35 69t13.5 104.5v1034h136v-1034q0 -75 18 -123.5t55 -72.5t78 -32t103 -8t104 7.5t78 28.5t53.5 63t17.5 106zM2488 0v1440h135v-1440h-135zM446 299q120 0 195 40.5t96 96.5v395q-148 -27 -256.5 -66.5t-169 -86.5t-88.5 -95t-28 -100
q0 -91 66.5 -137.5t184.5 -46.5z" />
    <glyph glyph-name="uniFEF5" unicode="&#xfedf;&#xfe82;" horiz-adv-x="1185" arabic-form="isolated" 
d="M444 1286q-53 0 -132 19.5t-113 19.5q-71 0 -136 -27v107q71 49 156 49q45 0 127.5 -19.5t132.5 -19.5q61 0 125 19v-111q-60 -37 -160 -37zM885 618q184 -166 184 -313q0 -152 -109.5 -228.5t-308.5 -76.5h-516v158l541 448q-325 256 -656 492l80 123q483 -363 686 -521
q67 65 88 119.5t21 147.5v471h135v-391q0 -160 -28.5 -254t-116.5 -175zM336 170h315q135 0 210 28t75 99q0 59 -39.5 111.5t-120.5 119.5z" />
    <glyph glyph-name="uniFEF6" unicode="&#xfee0;&#xfe82;" horiz-adv-x="1347" arabic-form="final" 
d="M1348 170l34 -6l-6 -158l-35 -6q-133 0 -222 51.5t-113 159.5q-49 -106 -158 -158.5t-256 -52.5h-561v170h504l-269 965l133 47l277 -1010q139 8 210.5 62t71.5 182v1024h136v-1034q0 -75 18 -123.5t55 -72.5t78 -32t103 -8zM479 1270q-53 0 -132.5 19.5t-113.5 19.5
q-70 0 -135 -27v107q71 49 156 49q45 0 127.5 -19.5t132.5 -19.5q64 0 125 18v-110q-60 -37 -160 -37z" />
    <glyph glyph-name="uniFEF7" unicode="&#xfedf;&#xfe84;" horiz-adv-x="1185" arabic-form="isolated" 
d="M375 1395h141v-107h-366v101h63q-33 29 -33 88q0 69 47.5 120.5t128.5 51.5q49 0 89.5 -24t56.5 -56l-51 -78q-47 41 -93 41q-36 0 -64 -20t-28 -50q0 -29 29 -48t80 -19zM885 618q184 -166 184 -313q0 -152 -109.5 -228.5t-308.5 -76.5h-516v158l541 448
q-325 256 -656 492l80 123q483 -363 686 -521q67 65 88 119.5t21 147.5v471h135v-391q0 -160 -28.5 -254t-116.5 -175zM336 170h315q135 0 210 28t75 99q0 59 -39.5 111.5t-120.5 119.5z" />
    <glyph glyph-name="uniFEF8" unicode="&#xfee0;&#xfe84;" horiz-adv-x="1347" arabic-form="final" 
d="M410 1378h141v-106h-367v100h64q-33 29 -33 88q0 69 47.5 120.5t128.5 51.5q49 0 89.5 -24t56.5 -56l-52 -77q-47 41 -92 41q-36 0 -64 -20t-28 -50q0 -29 29 -48.5t80 -19.5zM1348 170l34 -6l-6 -158l-35 -6q-133 0 -222 51.5t-113 159.5q-49 -106 -158 -158.5
t-256 -52.5h-561v170h504l-269 965l133 47l277 -1010q139 8 210.5 62t71.5 182v1024h136v-1034q0 -75 18 -123.5t55 -72.5t78 -32t103 -8z" />
    <glyph glyph-name="uniFEF9" unicode="&#xfedf;&#xfe88;" horiz-adv-x="1185" arabic-form="isolated" 
d="M885 618q184 -166 184 -313q0 -152 -109.5 -228.5t-308.5 -76.5h-516v158l541 448q-325 256 -656 492l80 123q483 -363 686 -521q67 65 88 119.5t21 147.5v471h135v-391q0 -160 -28.5 -254t-116.5 -175zM336 170h315q135 0 210 28t75 99q0 59 -39.5 111.5t-120.5 119.5z
M276 -352q0 -29 29 -48.5t80 -19.5h141v-106h-366v100h63q-33 29 -33 88q0 69 48 120.5t129 51.5q49 0 89 -24t56 -56l-51 -78q-47 41 -92 41q-37 0 -65 -19.5t-28 -49.5z" />
    <glyph glyph-name="uniFEFA" unicode="&#xfee0;&#xfe88;" horiz-adv-x="1347" arabic-form="final" 
d="M1348 170l34 -6l-6 -158l-35 -6q-133 0 -222 51.5t-113 159.5q-49 -106 -158 -158.5t-256 -52.5h-561v170h504l-269 965l133 47l277 -1010q139 8 210.5 62t71.5 182v1024h136v-1034q0 -75 18 -123.5t55 -72.5t78 -32t103 -8zM375 -352q0 -29 28.5 -48.5t79.5 -19.5h142
v-106h-367v100h64q-33 29 -33 88q0 69 47.5 120.5t128.5 51.5q49 0 89 -24t56 -56l-51 -78q-47 41 -92 41q-37 0 -64.5 -19.5t-27.5 -49.5z" />
    <glyph glyph-name="uniFEFB" unicode="&#xfedf;&#xfe8e;" horiz-adv-x="1185" arabic-form="isolated" 
d="M885 618q184 -166 184 -313q0 -152 -109.5 -228.5t-308.5 -76.5h-516v158l541 448q-325 256 -656 492l80 123q483 -363 686 -521q67 65 88 119.5t21 147.5v471h135v-391q0 -160 -28.5 -254t-116.5 -175zM336 170h315q135 0 210 28t75 99q0 59 -39.5 111.5t-120.5 119.5z
" />
    <glyph glyph-name="uniFEFC" unicode="&#xfee0;&#xfe8e;" horiz-adv-x="1347" arabic-form="final" 
d="M1348 170l34 -6l-6 -158l-35 -6q-133 0 -222 51.5t-113 159.5q-49 -106 -158 -158.5t-256 -52.5h-561v170h504l-269 965l133 47l277 -1010q139 8 210.5 62t71.5 182v1024h136v-1034q0 -75 18 -123.5t55 -72.5t78 -32t103 -8z" />
    <glyph glyph-name="uniFC6A.liga" unicode="&#xfe92;&#xfeae;" horiz-adv-x="1411" 
d="M1411 170l35 -6l-6 -158l-35 -6q-163 0 -253.5 60.5t-111.5 203.5h-465q7 -72 7 -112q0 -114 -39 -219t-109.5 -186.5t-180 -130t-241.5 -48.5q-90 0 -155 18l16 160q63 -8 139 -8q110 0 197.5 37t137.5 96t76 125.5t26 132.5q0 104 -21 227t-70 353l134 32
q34 -139 63 -307h473v348h129v-376q0 -76 15.5 -124t51 -72t77.5 -32t110 -8zM1081 -158q41 0 70 -30t29 -70t-29 -70t-70 -30q-42 0 -71 30t-29 70t29 70t71 30z" />
    <glyph glyph-name="uniFC6B.liga" unicode="&#xfe92;&#xfeb0;" horiz-adv-x="1411" 
d="M414 924q-42 0 -71.5 30t-29.5 70t29.5 70t71.5 30q41 0 69.5 -30t28.5 -70t-28.5 -70t-69.5 -30zM1411 170l35 -6l-6 -158l-35 -6q-163 0 -253.5 60.5t-111.5 203.5h-465q7 -72 7 -112q0 -114 -39 -219t-109.5 -186.5t-180 -130t-241.5 -48.5q-90 0 -155 18l16 160
q63 -8 139 -8q110 0 197.5 37t137.5 96t76 125.5t26 132.5q0 104 -21 227t-70 353l134 32q34 -139 63 -307h473v348h129v-376q0 -76 15.5 -124t51 -72t77.5 -32t110 -8zM1081 -158q41 0 70 -30t29 -70t-29 -70t-70 -30q-42 0 -71 30t-29 70t29 70t71 30z" />
    <glyph glyph-name="uniFE92FB8B.liga" unicode="&#xfe92;&#xfb8b;" horiz-adv-x="1411" 
d="M416 1151q-38 0 -64 26.5t-26 63.5q0 38 25 64t65 26t64 -26t24 -64q0 -37 -25.5 -63.5t-62.5 -26.5zM297 926q-40 0 -65 26t-25 64t25 64t65 26t64 -26t24 -64t-24 -64t-64 -26zM444 1016q0 38 25.5 64t65.5 26t64 -26t24 -64t-24 -64t-64 -26t-65.5 26t-25.5 64z
M1411 170l35 -6l-6 -158l-35 -6q-163 0 -253.5 60.5t-111.5 203.5h-465q7 -72 7 -112q0 -114 -39 -219t-109.5 -186.5t-180 -130t-241.5 -48.5q-90 0 -155 18l16 160q63 -8 139 -8q110 0 197.5 37t137.5 96t76 125.5t26 132.5q0 104 -21 227t-70 353l134 32q34 -139 63 -307
h473v348h129v-376q0 -76 15.5 -124t51 -72t77.5 -32t110 -8zM1081 -158q41 0 70 -30t29 -70t-29 -70t-70 -30q-42 0 -71 30t-29 70t29 70t71 30z" />
    <glyph glyph-name="uniFC6D.liga" unicode="&#xfe92;&#xfee6;" horiz-adv-x="2105" 
d="M657 823q-42 0 -71 30t-29 71q0 40 29 70t71 30q41 0 70 -30t29 -70t-29 -70.5t-70 -30.5zM2105 170l35 -6l-6 -158l-35 -6q-179 0 -271 74.5t-99 253.5h-431q2 -23 2 -68q0 -266 -173 -421.5t-463 -155.5q-284 0 -443.5 145.5t-159.5 390.5q0 228 105 455l119 -43
q-37 -81 -63.5 -188t-26.5 -193q0 -197 126 -297t355 -100q227 0 358 98.5t131 277.5q0 180 -94 529l135 39q53 -178 72 -299h444v321h129v-413q0 -76 15.5 -124t51 -72t77.5 -32t110 -8zM1632 -158q41 0 70 -30t29 -70t-29 -70t-70 -30q-42 0 -71 30t-29 70t29 70t71 30z
" />
    <glyph glyph-name="uniFC6E.liga" unicode="&#xfe92;&#xfef0;" horiz-adv-x="1867" 
d="M735 -492q-318 0 -496 160t-178 430q0 249 111 498l119 -43q-43 -101 -69.5 -220t-26.5 -206q0 -223 145.5 -336t411.5 -113q117 0 220 18t172.5 46.5t120 62.5t74 66.5t23.5 58.5q0 48 -40 70.5t-142 44.5l-179 39q-69 15 -120 46t-79 71.5t-41 82.5t-13 89
q0 184 132 305t330 121q73 0 131.5 -24t103.5 -71t76.5 -97.5t65.5 -123.5l53 -114q23 -49 38 -76.5t35 -54.5t40.5 -40t48.5 -20.5t66 -7.5l35 -6l-7 -158l-34 -6q-68 0 -115.5 15t-89 56.5t-74.5 98t-78 154.5l-41 90q-48 106 -113.5 161.5t-164.5 55.5
q-116 0 -210.5 -73.5t-94.5 -166.5q0 -117 174 -155l147 -31q76 -16 125 -33.5t90 -45.5t59.5 -71t18.5 -104q0 -62 -30.5 -124t-94 -119.5t-152 -102t-214 -71t-269.5 -26.5zM1438 -752q-42 0 -71.5 30.5t-29.5 70.5t29.5 70t71.5 30q41 0 69.5 -30t28.5 -70t-28.5 -70.5
t-69.5 -30.5z" />
    <glyph glyph-name="uniFC09.liga" unicode="&#xfe91;&#xfef0;" 
d="M1419 4q0 -71 -27.5 -140.5t-86 -134t-142 -113.5t-205 -78.5t-264.5 -29.5q-298 0 -465.5 155.5t-167.5 416.5q0 239 111 498l119 -43q-44 -99 -69 -217t-25 -209q0 -214 134.5 -322.5t383.5 -108.5q117 0 215 20.5t162 52.5t109 73t65 81t20 77q0 70 -50 106.5
t-167 36.5h-227v164h250q33 40 44 86t11 133q0 164 -92 416l133 47q92 -234 92 -447q0 -159 -57 -262q91 -21 143.5 -88t52.5 -170zM1231 -516q41 0 69.5 -30t28.5 -70t-28.5 -70.5t-69.5 -30.5q-42 0 -71.5 30.5t-29.5 70.5t29.5 70t71.5 30z" />
    <glyph glyph-name="uniFC6F.liga" unicode="&#xfe92;&#xfef2;" horiz-adv-x="1867" 
d="M735 -492q-318 0 -496 160t-178 430q0 249 111 498l119 -43q-43 -101 -69.5 -220t-26.5 -206q0 -223 145.5 -336t411.5 -113q117 0 220 18t172.5 46.5t120 62.5t74 66.5t23.5 58.5q0 48 -40 70.5t-142 44.5l-179 39q-69 15 -120 46t-79 71.5t-41 82.5t-13 89
q0 184 132 305t330 121q73 0 131.5 -24t103.5 -71t76.5 -97.5t65.5 -123.5l53 -114q23 -49 38 -76.5t35 -54.5t40.5 -40t48.5 -20.5t66 -7.5l35 -6l-7 -158l-34 -6q-68 0 -115.5 15t-89 56.5t-74.5 98t-78 154.5l-41 90q-48 106 -113.5 161.5t-164.5 55.5
q-116 0 -210.5 -73.5t-94.5 -166.5q0 -117 174 -155l147 -31q76 -16 125 -33.5t90 -45.5t59.5 -71t18.5 -104q0 -62 -30.5 -124t-94 -119.5t-152 -102t-214 -71t-269.5 -26.5zM1438 -752q-42 0 -71.5 30.5t-29.5 70.5t29.5 70t71.5 30q41 0 69.5 -30t28.5 -70t-28.5 -70.5
t-69.5 -30.5zM647 -838q-38 0 -66 28.5t-28 66.5t28 66t66 28q39 0 65.5 -27.5t26.5 -66.5t-26 -67t-66 -28zM905 -838q-40 0 -67 28t-27 67t26.5 66.5t67.5 27.5q37 0 64.5 -28t27.5 -66t-27.5 -66.5t-64.5 -28.5z" />
    <glyph glyph-name="uniFC0A.liga" unicode="&#xfe91;&#xfef2;" 
d="M1419 4q0 -71 -27.5 -140.5t-86 -134t-142 -113.5t-205 -78.5t-264.5 -29.5q-298 0 -465.5 155.5t-167.5 416.5q0 239 111 498l119 -43q-44 -99 -69 -217t-25 -209q0 -214 134.5 -322.5t383.5 -108.5q117 0 215 20.5t162 52.5t109 73t65 81t20 77q0 70 -50 106.5
t-167 36.5h-227v164h250q33 40 44 86t11 133q0 164 -92 416l133 47q92 -234 92 -447q0 -159 -57 -262q91 -21 143.5 -88t52.5 -170zM1231 -516q41 0 69.5 -30t28.5 -70t-28.5 -70.5t-69.5 -30.5q-42 0 -71.5 30.5t-29.5 70.5t29.5 70t71.5 30zM606 -649q39 0 65.5 -27.5
t26.5 -66.5t-26 -67t-66 -28q-38 0 -66 28.5t-28 66.5t28 66t66 28zM864 -649q37 0 64.5 -28t27.5 -66t-27.5 -66.5t-64.5 -28.5q-40 0 -67 28t-27 67t26.5 66.5t67.5 27.5z" />
    <glyph glyph-name="uniFE92FE8A.liga" unicode="&#xfe92;&#xfe8a;" horiz-adv-x="1867" 
d="M279 823h141v-106h-367v100h64q-33 29 -33 88q0 69 47.5 120.5t128.5 51.5q49 0 89.5 -24t56.5 -56l-52 -77q-47 41 -92 41q-36 0 -64 -20t-28 -50q0 -29 29 -48.5t80 -19.5zM1868 170l35 -6l-7 -158l-34 -6q-68 0 -115.5 15t-89 56.5t-74.5 98t-78 154.5l-41 90
q-48 106 -113.5 161.5t-164.5 55.5q-116 0 -210.5 -73.5t-94.5 -166.5q0 -117 174 -155l147 -31q76 -16 125 -33.5t90 -45.5t59.5 -71t18.5 -104q0 -62 -30.5 -124t-94 -119.5t-152 -102t-214 -71t-269.5 -26.5q-318 0 -496 160t-178 430q0 249 111 498l119 -43
q-43 -101 -69.5 -220t-26.5 -206q0 -223 145.5 -336t411.5 -113q117 0 220 18t172.5 46.5t120 62.5t74 66.5t23.5 58.5q0 48 -40 70.5t-142 44.5l-179 39q-69 15 -120 46t-79 71.5t-41 82.5t-13 89q0 184 132 305t330 121q73 0 131.5 -24t103.5 -71t76.5 -97.5t65.5 -123.5
l53 -114q23 -49 38 -76.5t35 -54.5t40.5 -40t48.5 -20.5t66 -7.5zM1438 -551q41 0 69.5 -30t28.5 -70t-28.5 -70.5t-69.5 -30.5q-42 0 -71.5 30.5t-29.5 70.5t29.5 70t71.5 30z" />
    <glyph glyph-name="uniFE91FE8A.liga" unicode="&#xfe91;&#xfe8a;" 
d="M272 784h142v-106h-367v100h64q-33 29 -33 88q0 69 47.5 120.5t128.5 51.5q49 0 89 -24t56 -56l-51 -77q-47 41 -92 41q-36 0 -64 -20t-28 -50q0 -29 28.5 -48.5t79.5 -19.5zM1419 4q0 -71 -27.5 -140.5t-86 -134t-142 -113.5t-205 -78.5t-264.5 -29.5
q-298 0 -465.5 155.5t-167.5 416.5q0 239 111 498l119 -43q-44 -99 -69 -217t-25 -209q0 -214 134.5 -322.5t383.5 -108.5q117 0 215 20.5t162 52.5t109 73t65 81t20 77q0 70 -50 106.5t-167 36.5h-227v164h250q33 40 44 86t11 133q0 164 -92 416l133 47q92 -234 92 -447
q0 -159 -57 -262q91 -21 143.5 -88t52.5 -170zM1231 -516q41 0 69.5 -30t28.5 -70t-28.5 -70.5t-69.5 -30.5q-42 0 -71.5 30.5t-29.5 70.5t29.5 70t71.5 30z" />
    <glyph glyph-name="uniFB58FB59.rlig" unicode="&#xfb58;&#xfb59;" horiz-adv-x="1150" 
d="M1028 401q0 -194 -110.5 -297.5t-288.5 -103.5q-124 0 -209.5 50t-112.5 149q-26 -93 -110.5 -146t-202.5 -53l-35 6l6 158l35 6q47 0 81 4.5t68.5 18.5t56 39.5t35 69t13.5 104.5v290h135v-270q0 -76 16 -126.5t50 -78.5t78.5 -39.5t109.5 -11.5q126 0 189 51t63 158
q0 154 -55 409l131 31q57 -267 57 -418zM291 -248q0 -38 -24 -64t-64 -26t-65 26t-25 64t25 64t65 26t64 -26t24 -64zM440 -158q40 0 64 -26t24 -64t-24 -64t-64 -26t-65 26t-25 64t25 64t65 26zM821 -248q0 -38 -24 -64t-64 -26t-65 26t-25 64t25 64t65 26t64 -26t24 -64z
M971 -158q40 0 64 -26t24 -64t-24 -64t-64 -26t-65 26t-25 64t25 64t65 26zM322 -383q37 0 62.5 -26.5t25.5 -63.5q0 -38 -24 -64t-64 -26t-65.5 26t-25.5 64q0 37 26.5 63.5t64.5 26.5zM852 -383q37 0 62.5 -26.5t25.5 -63.5q0 -38 -24 -64t-64 -26t-65 26t-25 64
q0 37 26 63.5t64 26.5z" />
    <glyph glyph-name="uniFB59FEAE.liga" unicode="&#xfb59;&#xfeae;" horiz-adv-x="1411" 
d="M1411 170l35 -6l-6 -158l-35 -6q-163 0 -253.5 60.5t-111.5 203.5h-465q7 -72 7 -112q0 -114 -39 -219t-109.5 -186.5t-180 -130t-241.5 -48.5q-90 0 -155 18l16 160q63 -8 139 -8q110 0 197.5 37t137.5 96t76 125.5t26 132.5q0 104 -21 227t-70 353l134 32
q34 -139 63 -307h473v348h129v-376q0 -76 15.5 -124t51 -72t77.5 -32t110 -8zM1051 -248q0 -38 -24 -64t-64 -26t-65.5 26t-25.5 64t25.5 64t65.5 26t64 -26t24 -64zM1200 -158q40 0 64 -26t24 -64t-24 -64t-64 -26t-65 26t-25 64t25 64t65 26zM1081 -383q37 0 62.5 -26.5
t25.5 -63.5q0 -38 -24 -64t-64 -26t-65 26t-25 64q0 37 26 63.5t64 26.5z" />
    <glyph glyph-name="uniFB59FEB0.liga" unicode="&#xfb59;&#xfeb0;" horiz-adv-x="1411" 
d="M414 924q-42 0 -71.5 30t-29.5 70t29.5 70t71.5 30q41 0 69.5 -30t28.5 -70t-28.5 -70t-69.5 -30zM1411 170l35 -6l-6 -158l-35 -6q-163 0 -253.5 60.5t-111.5 203.5h-465q7 -72 7 -112q0 -114 -39 -219t-109.5 -186.5t-180 -130t-241.5 -48.5q-90 0 -155 18l16 160
q63 -8 139 -8q110 0 197.5 37t137.5 96t76 125.5t26 132.5q0 104 -21 227t-70 353l134 32q34 -139 63 -307h473v348h129v-376q0 -76 15.5 -124t51 -72t77.5 -32t110 -8zM1051 -248q0 -38 -24 -64t-64 -26t-65.5 26t-25.5 64t25.5 64t65.5 26t64 -26t24 -64zM1200 -158
q40 0 64 -26t24 -64t-24 -64t-64 -26t-65 26t-25 64t25 64t65 26zM1081 -383q37 0 62.5 -26.5t25.5 -63.5q0 -38 -24 -64t-64 -26t-65 26t-25 64q0 37 26 63.5t64 26.5z" />
    <glyph glyph-name="uniFB59FB8B.liga" unicode="&#xfb59;&#xfb8b;" horiz-adv-x="1411" 
d="M416 1151q-38 0 -64 26.5t-26 63.5q0 38 25 64t65 26t64 -26t24 -64q0 -37 -25.5 -63.5t-62.5 -26.5zM297 926q-40 0 -65 26t-25 64t25 64t65 26t64 -26t24 -64t-24 -64t-64 -26zM444 1016q0 38 25.5 64t65.5 26t64 -26t24 -64t-24 -64t-64 -26t-65.5 26t-25.5 64z
M1411 170l35 -6l-6 -158l-35 -6q-163 0 -253.5 60.5t-111.5 203.5h-465q7 -72 7 -112q0 -114 -39 -219t-109.5 -186.5t-180 -130t-241.5 -48.5q-90 0 -155 18l16 160q63 -8 139 -8q110 0 197.5 37t137.5 96t76 125.5t26 132.5q0 104 -21 227t-70 353l134 32q34 -139 63 -307
h473v348h129v-376q0 -76 15.5 -124t51 -72t77.5 -32t110 -8zM1051 -248q0 -38 -24 -64t-64 -26t-65.5 26t-25.5 64t25.5 64t65.5 26t64 -26t24 -64zM1200 -158q40 0 64 -26t24 -64t-24 -64t-64 -26t-65 26t-25 64t25 64t65 26zM1081 -383q37 0 62.5 -26.5t25.5 -63.5
q0 -38 -24 -64t-64 -26t-65 26t-25 64q0 37 26 63.5t64 26.5z" />
    <glyph glyph-name="uniFB59FEE6.liga" unicode="&#xfb59;&#xfee6;" horiz-adv-x="2105" 
d="M657 823q-42 0 -71 30t-29 71q0 40 29 70t71 30q41 0 70 -30t29 -70t-29 -70.5t-70 -30.5zM2105 170l35 -6l-6 -158l-35 -6q-179 0 -271 74.5t-99 253.5h-431q2 -23 2 -68q0 -266 -173 -421.5t-463 -155.5q-284 0 -443.5 145.5t-159.5 390.5q0 228 105 455l119 -43
q-37 -81 -63.5 -188t-26.5 -193q0 -197 126 -297t355 -100q227 0 358 98.5t131 277.5q0 180 -94 529l135 39q53 -178 72 -299h444v321h129v-413q0 -76 15.5 -124t51 -72t77.5 -32t110 -8zM1602 -248q0 -38 -24.5 -64t-64.5 -26t-65 26t-25 64t25 64t65 26t64.5 -26t24.5 -64
zM1751 -158q40 0 64 -26t24 -64t-24 -64t-64 -26t-65 26t-25 64t25 64t65 26zM1632 -383q37 0 62.5 -26.5t25.5 -63.5q0 -38 -24 -64t-64 -26t-65 26t-25 64q0 37 26 63.5t64 26.5z" />
    <glyph glyph-name="uniFB59FEF0.liga" unicode="&#xfb59;&#xfef0;" horiz-adv-x="1867" 
d="M735 -492q-318 0 -496 160t-178 430q0 249 111 498l119 -43q-43 -101 -69.5 -220t-26.5 -206q0 -223 145.5 -336t411.5 -113q117 0 220 18t172.5 46.5t120 62.5t74 66.5t23.5 58.5q0 48 -40 70.5t-142 44.5l-179 39q-69 15 -120 46t-79 71.5t-41 82.5t-13 89
q0 184 132 305t330 121q73 0 131.5 -24t103.5 -71t76.5 -97.5t65.5 -123.5l53 -114q23 -49 38 -76.5t35 -54.5t40.5 -40t48.5 -20.5t66 -7.5l35 -6l-7 -158l-34 -6q-68 0 -115.5 15t-89 56.5t-74.5 98t-78 154.5l-41 90q-48 106 -113.5 161.5t-164.5 55.5
q-116 0 -210.5 -73.5t-94.5 -166.5q0 -117 174 -155l147 -31q76 -16 125 -33.5t90 -45.5t59.5 -71t18.5 -104q0 -62 -30.5 -124t-94 -119.5t-152 -102t-214 -71t-269.5 -26.5zM1319 -731q-40 0 -65 26t-25 64t25 64t65 26t64 -26t24 -64t-24 -64t-64 -26zM1556 -731
q-40 0 -65 26t-25 64t25 64t65 26t64.5 -26t24.5 -64t-24.5 -64t-64.5 -26zM1438 -956q-40 0 -65 26t-25 64q0 37 26 63.5t64 26.5q37 0 62.5 -26.5t25.5 -63.5q0 -38 -24 -64t-64 -26z" />
    <glyph glyph-name="uniFB58FEF0.liga" unicode="&#xfb58;&#xfef0;" 
d="M1419 4q0 -71 -27.5 -140.5t-86 -134t-142 -113.5t-205 -78.5t-264.5 -29.5q-298 0 -465.5 155.5t-167.5 416.5q0 239 111 498l119 -43q-44 -99 -69 -217t-25 -209q0 -214 134.5 -322.5t383.5 -108.5q117 0 215 20.5t162 52.5t109 73t65 81t20 77q0 70 -50 106.5
t-167 36.5h-227v164h250q33 40 44 86t11 133q0 164 -92 416l133 47q92 -234 92 -447q0 -159 -57 -262q91 -21 143.5 -88t52.5 -170zM1200 -606q0 -38 -24 -64t-64 -26t-65 26t-25 64t25 64t65 26t64 -26t24 -64zM1350 -516q40 0 64 -26t24 -64t-24 -64t-64 -26t-65 26
t-25 64t25 64t65 26zM1231 -741q37 0 62.5 -26.5t25.5 -63.5q0 -38 -24 -64.5t-64 -26.5t-65 26.5t-25 64.5q0 37 26 63.5t64 26.5z" />
    <glyph glyph-name="uniFB59FEF2.liga" unicode="&#xfb59;&#xfef2;" horiz-adv-x="1867" 
d="M735 -492q-318 0 -496 160t-178 430q0 249 111 498l119 -43q-43 -101 -69.5 -220t-26.5 -206q0 -223 145.5 -336t411.5 -113q117 0 220 18t172.5 46.5t120 62.5t74 66.5t23.5 58.5q0 48 -40 70.5t-142 44.5l-179 39q-69 15 -120 46t-79 71.5t-41 82.5t-13 89
q0 184 132 305t330 121q73 0 131.5 -24t103.5 -71t76.5 -97.5t65.5 -123.5l53 -114q23 -49 38 -76.5t35 -54.5t40.5 -40t48.5 -20.5t66 -7.5l35 -6l-7 -158l-34 -6q-68 0 -115.5 15t-89 56.5t-74.5 98t-78 154.5l-41 90q-48 106 -113.5 161.5t-164.5 55.5
q-116 0 -210.5 -73.5t-94.5 -166.5q0 -117 174 -155l147 -31q76 -16 125 -33.5t90 -45.5t59.5 -71t18.5 -104q0 -62 -30.5 -124t-94 -119.5t-152 -102t-214 -71t-269.5 -26.5zM1319 -731q-40 0 -65 26t-25 64t25 64t65 26t64 -26t24 -64t-24 -64t-64 -26zM1556 -731
q-40 0 -65 26t-25 64t25 64t65 26t64.5 -26t24.5 -64t-24.5 -64t-64.5 -26zM647 -838q-38 0 -66 28.5t-28 66.5t28 66t66 28q39 0 65.5 -27.5t26.5 -66.5t-26 -67t-66 -28zM905 -838q-40 0 -67 28t-27 67t26.5 66.5t67.5 27.5q37 0 64.5 -28t27.5 -66t-27.5 -66.5
t-64.5 -28.5zM1438 -956q-40 0 -65 26t-25 64q0 37 26 63.5t64 26.5q37 0 62.5 -26.5t25.5 -63.5q0 -38 -24 -64t-64 -26z" />
    <glyph glyph-name="uniFB58FEF4.rlig" unicode="&#xfb58;&#xfef4;" horiz-adv-x="1150" 
d="M1028 401q0 -194 -110.5 -297.5t-288.5 -103.5q-124 0 -209.5 50t-112.5 149q-26 -93 -110.5 -146t-202.5 -53l-35 6l6 158l35 6q47 0 81 4.5t68.5 18.5t56 39.5t35 69t13.5 104.5v290h135v-270q0 -76 16 -126.5t50 -78.5t78.5 -39.5t109.5 -11.5q126 0 189 51t63 158
q0 154 -55 409l131 31q57 -267 57 -418zM193 -158q39 0 65.5 -27.5t26.5 -66.5t-26 -66.5t-66 -27.5q-38 0 -66.5 28t-28.5 66t28.5 66t66.5 28zM451 -158q37 0 64.5 -28t27.5 -66t-27.5 -66t-64.5 -28q-41 0 -68 27.5t-27 66.5t27 66.5t68 27.5zM821 -248q0 -38 -24 -64
t-64 -26t-65 26t-25 64t25 64t65 26t64 -26t24 -64zM971 -158q40 0 64 -26t24 -64t-24 -64t-64 -26t-65 26t-25 64t25 64t65 26zM852 -383q37 0 62.5 -26.5t25.5 -63.5q0 -38 -24 -64t-64 -26t-65 26t-25 64q0 37 26 63.5t64 26.5z" />
    <glyph glyph-name="uniFB58FEF2.liga" unicode="&#xfb58;&#xfef2;" 
d="M1419 4q0 -71 -27.5 -140.5t-86 -134t-142 -113.5t-205 -78.5t-264.5 -29.5q-298 0 -465.5 155.5t-167.5 416.5q0 239 111 498l119 -43q-44 -99 -69 -217t-25 -209q0 -214 134.5 -322.5t383.5 -108.5q117 0 215 20.5t162 52.5t109 73t65 81t20 77q0 70 -50 106.5
t-167 36.5h-227v164h250q33 40 44 86t11 133q0 164 -92 416l133 47q92 -234 92 -447q0 -159 -57 -262q91 -21 143.5 -88t52.5 -170zM1200 -606q0 -38 -24 -64t-64 -26t-65 26t-25 64t25 64t65 26t64 -26t24 -64zM1350 -516q40 0 64 -26t24 -64t-24 -64t-64 -26t-65 26
t-25 64t25 64t65 26zM606 -649q39 0 65.5 -27.5t26.5 -66.5t-26 -67t-66 -28q-38 0 -66 28.5t-28 66.5t28 66t66 28zM864 -649q37 0 64.5 -28t27.5 -66t-27.5 -66.5t-64.5 -28.5q-40 0 -67 28t-27 67t26.5 66.5t67.5 27.5zM1231 -741q37 0 62.5 -26.5t25.5 -63.5
q0 -38 -24 -64.5t-64 -26.5t-65 26.5t-25 64.5q0 37 26 63.5t64 26.5z" />
    <glyph glyph-name="uniFB59FE8A.liga" unicode="&#xfb59;&#xfe8a;" horiz-adv-x="1867" 
d="M279 823h141v-106h-367v100h64q-33 29 -33 88q0 69 47.5 120.5t128.5 51.5q49 0 89.5 -24t56.5 -56l-52 -77q-47 41 -92 41q-36 0 -64 -20t-28 -50q0 -29 29 -48.5t80 -19.5zM1868 170l35 -6l-7 -158l-34 -6q-68 0 -115.5 15t-89 56.5t-74.5 98t-78 154.5l-41 90
q-48 106 -113.5 161.5t-164.5 55.5q-116 0 -210.5 -73.5t-94.5 -166.5q0 -117 174 -155l147 -31q76 -16 125 -33.5t90 -45.5t59.5 -71t18.5 -104q0 -62 -30.5 -124t-94 -119.5t-152 -102t-214 -71t-269.5 -26.5q-318 0 -496 160t-178 430q0 249 111 498l119 -43
q-43 -101 -69.5 -220t-26.5 -206q0 -223 145.5 -336t411.5 -113q117 0 220 18t172.5 46.5t120 62.5t74 66.5t23.5 58.5q0 48 -40 70.5t-142 44.5l-179 39q-69 15 -120 46t-79 71.5t-41 82.5t-13 89q0 184 132 305t330 121q73 0 131.5 -24t103.5 -71t76.5 -97.5t65.5 -123.5
l53 -114q23 -49 38 -76.5t35 -54.5t40.5 -40t48.5 -20.5t66 -7.5zM1407 -641q0 -38 -24 -64t-64 -26t-65 26t-25 64t25 64t65 26t64 -26t24 -64zM1556 -551q40 0 64.5 -26t24.5 -64t-24.5 -64t-64.5 -26t-65 26t-25 64t25 64t65 26zM1438 -776q37 0 62.5 -26.5t25.5 -63.5
q0 -38 -24 -64t-64 -26t-65 26t-25 64q0 37 26 63.5t64 26.5z" />
    <glyph glyph-name="uniFB58FE8A.liga" unicode="&#xfb58;&#xfe8a;" 
d="M272 784h142v-106h-367v100h64q-33 29 -33 88q0 69 47.5 120.5t128.5 51.5q49 0 89 -24t56 -56l-51 -77q-47 41 -92 41q-36 0 -64 -20t-28 -50q0 -29 28.5 -48.5t79.5 -19.5zM1419 4q0 -71 -27.5 -140.5t-86 -134t-142 -113.5t-205 -78.5t-264.5 -29.5
q-298 0 -465.5 155.5t-167.5 416.5q0 239 111 498l119 -43q-44 -99 -69 -217t-25 -209q0 -214 134.5 -322.5t383.5 -108.5q117 0 215 20.5t162 52.5t109 73t65 81t20 77q0 70 -50 106.5t-167 36.5h-227v164h250q33 40 44 86t11 133q0 164 -92 416l133 47q92 -234 92 -447
q0 -159 -57 -262q91 -21 143.5 -88t52.5 -170zM1200 -606q0 -38 -24 -64t-64 -26t-65 26t-25 64t25 64t65 26t64 -26t24 -64zM1350 -516q40 0 64 -26t24 -64t-24 -64t-64 -26t-65 26t-25 64t25 64t65 26zM1231 -741q37 0 62.5 -26.5t25.5 -63.5q0 -38 -24 -64.5t-64 -26.5
t-65 26.5t-25 64.5q0 37 26 63.5t64 26.5z" />
    <glyph glyph-name="uniFC70.liga" unicode="&#xfe98;&#xfeae;" horiz-adv-x="1411" 
d="M961 973q-38 0 -66.5 28t-28.5 66t28.5 66t66.5 28q39 0 65.5 -27.5t26.5 -66.5t-26 -66.5t-66 -27.5zM1219 973q-41 0 -68 27.5t-27 66.5t27 66.5t68 27.5q37 0 64.5 -28t27.5 -66t-27.5 -66t-64.5 -28zM1411 170l35 -6l-6 -158l-35 -6q-163 0 -253.5 60.5t-111.5 203.5
h-465q7 -72 7 -112q0 -114 -39 -219t-109.5 -186.5t-180 -130t-241.5 -48.5q-90 0 -155 18l16 160q63 -8 139 -8q110 0 197.5 37t137.5 96t76 125.5t26 132.5q0 104 -21 227t-70 353l134 32q34 -139 63 -307h473v348h129v-376q0 -76 15.5 -124t51 -72t77.5 -32t110 -8z" />
    <glyph glyph-name="uniFC71.liga" unicode="&#xfe98;&#xfeb0;" horiz-adv-x="1411" 
d="M961 973q-38 0 -66.5 28t-28.5 66t28.5 66t66.5 28q39 0 65.5 -27.5t26.5 -66.5t-26 -66.5t-66 -27.5zM1219 973q-41 0 -68 27.5t-27 66.5t27 66.5t68 27.5q37 0 64.5 -28t27.5 -66t-27.5 -66t-64.5 -28zM414 924q-42 0 -71.5 30t-29.5 70t29.5 70t71.5 30q41 0 69.5 -30
t28.5 -70t-28.5 -70t-69.5 -30zM1411 170l35 -6l-6 -158l-35 -6q-163 0 -253.5 60.5t-111.5 203.5h-465q7 -72 7 -112q0 -114 -39 -219t-109.5 -186.5t-180 -130t-241.5 -48.5q-90 0 -155 18l16 160q63 -8 139 -8q110 0 197.5 37t137.5 96t76 125.5t26 132.5q0 104 -21 227
t-70 353l134 32q34 -139 63 -307h473v348h129v-376q0 -76 15.5 -124t51 -72t77.5 -32t110 -8z" />
    <glyph glyph-name="uniFE98FB8B.liga" unicode="&#xfe98;&#xfb8b;" horiz-adv-x="1411" 
d="M416 1151q-38 0 -64 26.5t-26 63.5q0 38 25 64t65 26t64 -26t24 -64q0 -37 -25.5 -63.5t-62.5 -26.5zM961 973q-38 0 -66.5 28t-28.5 66t28.5 66t66.5 28q39 0 65.5 -27.5t26.5 -66.5t-26 -66.5t-66 -27.5zM1219 973q-41 0 -68 27.5t-27 66.5t27 66.5t68 27.5
q37 0 64.5 -28t27.5 -66t-27.5 -66t-64.5 -28zM297 926q-40 0 -65 26t-25 64t25 64t65 26t64 -26t24 -64t-24 -64t-64 -26zM444 1016q0 38 25.5 64t65.5 26t64 -26t24 -64t-24 -64t-64 -26t-65.5 26t-25.5 64zM1411 170l35 -6l-6 -158l-35 -6q-163 0 -253.5 60.5
t-111.5 203.5h-465q7 -72 7 -112q0 -114 -39 -219t-109.5 -186.5t-180 -130t-241.5 -48.5q-90 0 -155 18l16 160q63 -8 139 -8q110 0 197.5 37t137.5 96t76 125.5t26 132.5q0 104 -21 227t-70 353l134 32q34 -139 63 -307h473v348h129v-376q0 -76 15.5 -124t51 -72t77.5 -32
t110 -8z" />
    <glyph glyph-name="uniFC73.liga" unicode="&#xfe98;&#xfee6;" horiz-adv-x="2105" 
d="M1657 1010q-38 0 -66 28t-28 66t28 66t66 28q39 0 65.5 -27.5t26.5 -66.5t-26 -66.5t-66 -27.5zM1915 1010q-41 0 -67.5 27.5t-26.5 66.5t26.5 66.5t67.5 27.5q37 0 64.5 -28t27.5 -66t-27.5 -66t-64.5 -28zM657 823q-42 0 -71 30t-29 71q0 40 29 70t71 30q41 0 70 -30
t29 -70t-29 -70.5t-70 -30.5zM2105 170l35 -6l-6 -158l-35 -6q-179 0 -271 74.5t-99 253.5h-431q2 -23 2 -68q0 -266 -173 -421.5t-463 -155.5q-284 0 -443.5 145.5t-159.5 390.5q0 228 105 455l119 -43q-37 -81 -63.5 -188t-26.5 -193q0 -197 126 -297t355 -100
q227 0 358 98.5t131 277.5q0 180 -94 529l135 39q53 -178 72 -299h444v321h129v-413q0 -76 15.5 -124t51 -72t77.5 -32t110 -8z" />
    <glyph glyph-name="uniFC74.liga" unicode="&#xfe98;&#xfef0;" horiz-adv-x="1867" 
d="M987 1083q0 38 28 66.5t66 28.5q39 0 66 -28t27 -67t-26.5 -66.5t-66.5 -27.5q-38 0 -66 28t-28 66zM1245 1083q0 39 27 67t67 28q37 0 65 -28.5t28 -66.5t-28 -66t-65 -28q-41 0 -67.5 27.5t-26.5 66.5zM735 -492q-318 0 -496 160t-178 430q0 249 111 498l119 -43
q-43 -101 -69.5 -220t-26.5 -206q0 -223 145.5 -336t411.5 -113q117 0 220 18t172.5 46.5t120 62.5t74 66.5t23.5 58.5q0 48 -40 70.5t-142 44.5l-179 39q-69 15 -120 46t-79 71.5t-41 82.5t-13 89q0 184 132 305t330 121q73 0 131.5 -24t103.5 -71t76.5 -97.5t65.5 -123.5
l53 -114q23 -49 38 -76.5t35 -54.5t40.5 -40t48.5 -20.5t66 -7.5l35 -6l-7 -158l-34 -6q-68 0 -115.5 15t-89 56.5t-74.5 98t-78 154.5l-41 90q-48 106 -113.5 161.5t-164.5 55.5q-116 0 -210.5 -73.5t-94.5 -166.5q0 -117 174 -155l147 -31q76 -16 125 -33.5t90 -45.5
t59.5 -71t18.5 -104q0 -62 -30.5 -124t-94 -119.5t-152 -102t-214 -71t-269.5 -26.5z" />
    <glyph glyph-name="uniFC0F.liga" unicode="&#xfe97;&#xfef0;" 
d="M985 1128q-38 0 -66 28.5t-28 66.5t28 66t66 28q39 0 65.5 -27.5t26.5 -66.5t-26 -67t-66 -28zM1243 1128q-40 0 -67 28t-27 67t26.5 66.5t67.5 27.5q37 0 64.5 -28t27.5 -66t-27.5 -66.5t-64.5 -28.5zM1223 262q91 -21 143.5 -88t52.5 -170q0 -71 -27.5 -140.5t-86 -134
t-142 -113.5t-205 -78.5t-264.5 -29.5q-298 0 -465.5 155.5t-167.5 416.5q0 239 111 498l119 -43q-44 -99 -69 -217t-25 -209q0 -214 134.5 -322.5t383.5 -108.5q117 0 215 20.5t162 52.5t109 73t65 81t20 77q0 70 -50 106.5t-167 36.5h-227v164h250q33 40 44 86t11 133
q0 164 -92 416l133 47q92 -234 92 -447q0 -159 -57 -262z" />
    <glyph glyph-name="uniFC75.liga" unicode="&#xfe98;&#xfef2;" horiz-adv-x="1867" 
d="M987 1083q0 38 28 66.5t66 28.5q39 0 66 -28t27 -67t-26.5 -66.5t-66.5 -27.5q-38 0 -66 28t-28 66zM1245 1083q0 39 27 67t67 28q37 0 65 -28.5t28 -66.5t-28 -66t-65 -28q-41 0 -67.5 27.5t-26.5 66.5zM735 -492q-318 0 -496 160t-178 430q0 249 111 498l119 -43
q-43 -101 -69.5 -220t-26.5 -206q0 -223 145.5 -336t411.5 -113q117 0 220 18t172.5 46.5t120 62.5t74 66.5t23.5 58.5q0 48 -40 70.5t-142 44.5l-179 39q-69 15 -120 46t-79 71.5t-41 82.5t-13 89q0 184 132 305t330 121q73 0 131.5 -24t103.5 -71t76.5 -97.5t65.5 -123.5
l53 -114q23 -49 38 -76.5t35 -54.5t40.5 -40t48.5 -20.5t66 -7.5l35 -6l-7 -158l-34 -6q-68 0 -115.5 15t-89 56.5t-74.5 98t-78 154.5l-41 90q-48 106 -113.5 161.5t-164.5 55.5q-116 0 -210.5 -73.5t-94.5 -166.5q0 -117 174 -155l147 -31q76 -16 125 -33.5t90 -45.5
t59.5 -71t18.5 -104q0 -62 -30.5 -124t-94 -119.5t-152 -102t-214 -71t-269.5 -26.5zM647 -838q-38 0 -66 28.5t-28 66.5t28 66t66 28q39 0 65.5 -27.5t26.5 -66.5t-26 -67t-66 -28zM905 -838q-40 0 -67 28t-27 67t26.5 66.5t67.5 27.5q37 0 64.5 -28t27.5 -66t-27.5 -66.5
t-64.5 -28.5z" />
    <glyph glyph-name="uniFC10.liga" unicode="&#xfe97;&#xfef2;" 
d="M985 1128q-38 0 -66 28.5t-28 66.5t28 66t66 28q39 0 65.5 -27.5t26.5 -66.5t-26 -67t-66 -28zM1243 1128q-40 0 -67 28t-27 67t26.5 66.5t67.5 27.5q37 0 64.5 -28t27.5 -66t-27.5 -66.5t-64.5 -28.5zM1223 262q91 -21 143.5 -88t52.5 -170q0 -71 -27.5 -140.5t-86 -134
t-142 -113.5t-205 -78.5t-264.5 -29.5q-298 0 -465.5 155.5t-167.5 416.5q0 239 111 498l119 -43q-44 -99 -69 -217t-25 -209q0 -214 134.5 -322.5t383.5 -108.5q117 0 215 20.5t162 52.5t109 73t65 81t20 77q0 70 -50 106.5t-167 36.5h-227v164h250q33 40 44 86t11 133
q0 164 -92 416l133 47q92 -234 92 -447q0 -159 -57 -262zM606 -649q39 0 65.5 -27.5t26.5 -66.5t-26 -67t-66 -28q-38 0 -66 28.5t-28 66.5t28 66t66 28zM864 -649q37 0 64.5 -28t27.5 -66t-27.5 -66.5t-64.5 -28.5q-40 0 -67 28t-27 67t26.5 66.5t67.5 27.5z" />
    <glyph glyph-name="uniFE98FE8A.liga" unicode="&#xfe98;&#xfe8a;" horiz-adv-x="1867" 
d="M1081 989q-38 0 -66 28t-28 66t28 66.5t66 28.5q39 0 66 -28t27 -67t-26.5 -66.5t-66.5 -27.5zM1339 989q-41 0 -67.5 27.5t-26.5 66.5t27 67t67 28q37 0 65 -28.5t28 -66.5t-28 -66t-65 -28zM279 823h141v-106h-367v100h64q-33 29 -33 88q0 69 47.5 120.5t128.5 51.5
q49 0 89.5 -24t56.5 -56l-52 -77q-47 41 -92 41q-36 0 -64 -20t-28 -50q0 -29 29 -48.5t80 -19.5zM1868 170l35 -6l-7 -158l-34 -6q-68 0 -115.5 15t-89 56.5t-74.5 98t-78 154.5l-41 90q-48 106 -113.5 161.5t-164.5 55.5q-116 0 -210.5 -73.5t-94.5 -166.5
q0 -117 174 -155l147 -31q76 -16 125 -33.5t90 -45.5t59.5 -71t18.5 -104q0 -62 -30.5 -124t-94 -119.5t-152 -102t-214 -71t-269.5 -26.5q-318 0 -496 160t-178 430q0 249 111 498l119 -43q-43 -101 -69.5 -220t-26.5 -206q0 -223 145.5 -336t411.5 -113q117 0 220 18
t172.5 46.5t120 62.5t74 66.5t23.5 58.5q0 48 -40 70.5t-142 44.5l-179 39q-69 15 -120 46t-79 71.5t-41 82.5t-13 89q0 184 132 305t330 121q73 0 131.5 -24t103.5 -71t76.5 -97.5t65.5 -123.5l53 -114q23 -49 38 -76.5t35 -54.5t40.5 -40t48.5 -20.5t66 -7.5z" />
    <glyph glyph-name="uniFE97FE8A.liga" unicode="&#xfe97;&#xfe8a;" 
d="M985 1128q-38 0 -66 28.5t-28 66.5t28 66t66 28q39 0 65.5 -27.5t26.5 -66.5t-26 -67t-66 -28zM1243 1128q-40 0 -67 28t-27 67t26.5 66.5t67.5 27.5q37 0 64.5 -28t27.5 -66t-27.5 -66.5t-64.5 -28.5zM272 784h142v-106h-367v100h64q-33 29 -33 88q0 69 47.5 120.5
t128.5 51.5q49 0 89 -24t56 -56l-51 -77q-47 41 -92 41q-36 0 -64 -20t-28 -50q0 -29 28.5 -48.5t79.5 -19.5zM1223 262q91 -21 143.5 -88t52.5 -170q0 -71 -27.5 -140.5t-86 -134t-142 -113.5t-205 -78.5t-264.5 -29.5q-298 0 -465.5 155.5t-167.5 416.5q0 239 111 498
l119 -43q-44 -99 -69 -217t-25 -209q0 -214 134.5 -322.5t383.5 -108.5q117 0 215 20.5t162 52.5t109 73t65 81t20 77q0 70 -50 106.5t-167 36.5h-227v164h250q33 40 44 86t11 133q0 164 -92 416l133 47q92 -234 92 -447q0 -159 -57 -262z" />
    <glyph glyph-name="uniFC76.liga" unicode="&#xfe9c;&#xfeae;" horiz-adv-x="1411" 
d="M1092 1206q-38 0 -64.5 26.5t-26.5 63.5q0 38 25.5 64t65.5 26t64 -26t24 -64q0 -37 -25.5 -63.5t-62.5 -26.5zM973 981q-40 0 -65 26t-25 64t25 64t65 26t64 -26t24 -64t-24 -64t-64 -26zM1120 1071q0 38 25 64t65 26t64 -26t24 -64t-24 -64t-64 -26t-65 26t-25 64z
M1411 170l35 -6l-6 -158l-35 -6q-163 0 -253.5 60.5t-111.5 203.5h-465q7 -72 7 -112q0 -114 -39 -219t-109.5 -186.5t-180 -130t-241.5 -48.5q-90 0 -155 18l16 160q63 -8 139 -8q110 0 197.5 37t137.5 96t76 125.5t26 132.5q0 104 -21 227t-70 353l134 32q34 -139 63 -307
h473v348h129v-376q0 -76 15.5 -124t51 -72t77.5 -32t110 -8z" />
    <glyph glyph-name="uniFC77.liga" unicode="&#xfe9c;&#xfeb0;" horiz-adv-x="1411" 
d="M1092 1206q-38 0 -64.5 26.5t-26.5 63.5q0 38 25.5 64t65.5 26t64 -26t24 -64q0 -37 -25.5 -63.5t-62.5 -26.5zM973 981q-40 0 -65 26t-25 64t25 64t65 26t64 -26t24 -64t-24 -64t-64 -26zM1120 1071q0 38 25 64t65 26t64 -26t24 -64t-24 -64t-64 -26t-65 26t-25 64z
M414 924q-42 0 -71.5 30t-29.5 70t29.5 70t71.5 30q41 0 69.5 -30t28.5 -70t-28.5 -70t-69.5 -30zM1411 170l35 -6l-6 -158l-35 -6q-163 0 -253.5 60.5t-111.5 203.5h-465q7 -72 7 -112q0 -114 -39 -219t-109.5 -186.5t-180 -130t-241.5 -48.5q-90 0 -155 18l16 160
q63 -8 139 -8q110 0 197.5 37t137.5 96t76 125.5t26 132.5q0 104 -21 227t-70 353l134 32q34 -139 63 -307h473v348h129v-376q0 -76 15.5 -124t51 -72t77.5 -32t110 -8z" />
    <glyph glyph-name="uniFE9CFB8B.liga" unicode="&#xfe9c;&#xfb8b;" horiz-adv-x="1411" 
d="M1092 1206q-38 0 -64.5 26.5t-26.5 63.5q0 38 25.5 64t65.5 26t64 -26t24 -64q0 -37 -25.5 -63.5t-62.5 -26.5zM416 1151q-38 0 -64 26.5t-26 63.5q0 38 25 64t65 26t64 -26t24 -64q0 -37 -25.5 -63.5t-62.5 -26.5zM973 981q-40 0 -65 26t-25 64t25 64t65 26t64 -26
t24 -64t-24 -64t-64 -26zM1120 1071q0 38 25 64t65 26t64 -26t24 -64t-24 -64t-64 -26t-65 26t-25 64zM297 926q-40 0 -65 26t-25 64t25 64t65 26t64 -26t24 -64t-24 -64t-64 -26zM444 1016q0 38 25.5 64t65.5 26t64 -26t24 -64t-24 -64t-64 -26t-65.5 26t-25.5 64z
M1411 170l35 -6l-6 -158l-35 -6q-163 0 -253.5 60.5t-111.5 203.5h-465q7 -72 7 -112q0 -114 -39 -219t-109.5 -186.5t-180 -130t-241.5 -48.5q-90 0 -155 18l16 160q63 -8 139 -8q110 0 197.5 37t137.5 96t76 125.5t26 132.5q0 104 -21 227t-70 353l134 32q34 -139 63 -307
h473v348h129v-376q0 -76 15.5 -124t51 -72t77.5 -32t110 -8z" />
    <glyph glyph-name="uniFC79.liga" unicode="&#xfe9c;&#xfee6;" horiz-adv-x="2105" 
d="M1788 1243q-38 0 -64 26.5t-26 63.5q0 38 25 64t65 26t64 -26t24 -64q0 -37 -25.5 -63.5t-62.5 -26.5zM1669 1018q-40 0 -65 26t-25 64t25 64t65 26t64 -26t24 -64t-24 -64t-64 -26zM1817 1108q0 38 25 64t65 26t64 -26t24 -64t-24 -64t-64 -26t-65 26t-25 64zM657 823
q-42 0 -71 30t-29 71q0 40 29 70t71 30q41 0 70 -30t29 -70t-29 -70.5t-70 -30.5zM2105 170l35 -6l-6 -158l-35 -6q-179 0 -271 74.5t-99 253.5h-431q2 -23 2 -68q0 -266 -173 -421.5t-463 -155.5q-284 0 -443.5 145.5t-159.5 390.5q0 228 105 455l119 -43
q-37 -81 -63.5 -188t-26.5 -193q0 -197 126 -297t355 -100q227 0 358 98.5t131 277.5q0 180 -94 529l135 39q53 -178 72 -299h444v321h129v-413q0 -76 15.5 -124t51 -72t77.5 -32t110 -8z" />
    <glyph glyph-name="uniFC7A.liga" unicode="&#xfe9c;&#xfef0;" horiz-adv-x="1867" 
d="M1212 1223q-38 0 -64 26.5t-26 63.5q0 38 25 64t65 26t64 -26t24 -64q0 -37 -25.5 -63.5t-62.5 -26.5zM1094 997q-40 0 -65 26t-25 64t25 64.5t65 26.5t64 -26.5t24 -64.5t-24 -64t-64 -26zM1331 997q-40 0 -65 26t-25 64t25 64.5t65 26.5t64 -26.5t24 -64.5t-24 -64
t-64 -26zM735 -492q-318 0 -496 160t-178 430q0 249 111 498l119 -43q-43 -101 -69.5 -220t-26.5 -206q0 -223 145.5 -336t411.5 -113q117 0 220 18t172.5 46.5t120 62.5t74 66.5t23.5 58.5q0 48 -40 70.5t-142 44.5l-179 39q-69 15 -120 46t-79 71.5t-41 82.5t-13 89
q0 184 132 305t330 121q73 0 131.5 -24t103.5 -71t76.5 -97.5t65.5 -123.5l53 -114q23 -49 38 -76.5t35 -54.5t40.5 -40t48.5 -20.5t66 -7.5l35 -6l-7 -158l-34 -6q-68 0 -115.5 15t-89 56.5t-74.5 98t-78 154.5l-41 90q-48 106 -113.5 161.5t-164.5 55.5
q-116 0 -210.5 -73.5t-94.5 -166.5q0 -117 174 -155l147 -31q76 -16 125 -33.5t90 -45.5t59.5 -71t18.5 -104q0 -62 -30.5 -124t-94 -119.5t-152 -102t-214 -71t-269.5 -26.5z" />
    <glyph glyph-name="uniFC13.liga" unicode="&#xfe9b;&#xfef0;" 
d="M1116 1362q-38 0 -64 26.5t-26 63.5q0 38 25 64t65 26t64 -26t24 -64q0 -37 -25.5 -63.5t-62.5 -26.5zM997 1137q-40 0 -65 26t-25 64t25 64t65 26t64 -26t24 -64t-24 -64t-64 -26zM1145 1227q0 38 25 64t65 26t64 -26t24 -64t-24 -64t-64 -26t-65 26t-25 64zM1223 262
q91 -21 143.5 -88t52.5 -170q0 -71 -27.5 -140.5t-86 -134t-142 -113.5t-205 -78.5t-264.5 -29.5q-298 0 -465.5 155.5t-167.5 416.5q0 239 111 498l119 -43q-44 -99 -69 -217t-25 -209q0 -214 134.5 -322.5t383.5 -108.5q117 0 215 20.5t162 52.5t109 73t65 81t20 77
q0 70 -50 106.5t-167 36.5h-227v164h250q33 40 44 86t11 133q0 164 -92 416l133 47q92 -234 92 -447q0 -159 -57 -262z" />
    <glyph glyph-name="uniFC7B.liga" unicode="&#xfe9c;&#xfef2;" horiz-adv-x="1867" 
d="M1212 1223q-38 0 -64 26.5t-26 63.5q0 38 25 64t65 26t64 -26t24 -64q0 -37 -25.5 -63.5t-62.5 -26.5zM1094 997q-40 0 -65 26t-25 64t25 64.5t65 26.5t64 -26.5t24 -64.5t-24 -64t-64 -26zM1331 997q-40 0 -65 26t-25 64t25 64.5t65 26.5t64 -26.5t24 -64.5t-24 -64
t-64 -26zM735 -492q-318 0 -496 160t-178 430q0 249 111 498l119 -43q-43 -101 -69.5 -220t-26.5 -206q0 -223 145.5 -336t411.5 -113q117 0 220 18t172.5 46.5t120 62.5t74 66.5t23.5 58.5q0 48 -40 70.5t-142 44.5l-179 39q-69 15 -120 46t-79 71.5t-41 82.5t-13 89
q0 184 132 305t330 121q73 0 131.5 -24t103.5 -71t76.5 -97.5t65.5 -123.5l53 -114q23 -49 38 -76.5t35 -54.5t40.5 -40t48.5 -20.5t66 -7.5l35 -6l-7 -158l-34 -6q-68 0 -115.5 15t-89 56.5t-74.5 98t-78 154.5l-41 90q-48 106 -113.5 161.5t-164.5 55.5
q-116 0 -210.5 -73.5t-94.5 -166.5q0 -117 174 -155l147 -31q76 -16 125 -33.5t90 -45.5t59.5 -71t18.5 -104q0 -62 -30.5 -124t-94 -119.5t-152 -102t-214 -71t-269.5 -26.5zM647 -838q-38 0 -66 28.5t-28 66.5t28 66t66 28q39 0 65.5 -27.5t26.5 -66.5t-26 -67t-66 -28z
M905 -838q-40 0 -67 28t-27 67t26.5 66.5t67.5 27.5q37 0 64.5 -28t27.5 -66t-27.5 -66.5t-64.5 -28.5z" />
    <glyph glyph-name="uniFC14.liga" unicode="&#xfe9b;&#xfef2;" 
d="M1116 1362q-38 0 -64 26.5t-26 63.5q0 38 25 64t65 26t64 -26t24 -64q0 -37 -25.5 -63.5t-62.5 -26.5zM997 1137q-40 0 -65 26t-25 64t25 64t65 26t64 -26t24 -64t-24 -64t-64 -26zM1145 1227q0 38 25 64t65 26t64 -26t24 -64t-24 -64t-64 -26t-65 26t-25 64zM1223 262
q91 -21 143.5 -88t52.5 -170q0 -71 -27.5 -140.5t-86 -134t-142 -113.5t-205 -78.5t-264.5 -29.5q-298 0 -465.5 155.5t-167.5 416.5q0 239 111 498l119 -43q-44 -99 -69 -217t-25 -209q0 -214 134.5 -322.5t383.5 -108.5q117 0 215 20.5t162 52.5t109 73t65 81t20 77
q0 70 -50 106.5t-167 36.5h-227v164h250q33 40 44 86t11 133q0 164 -92 416l133 47q92 -234 92 -447q0 -159 -57 -262zM606 -649q39 0 65.5 -27.5t26.5 -66.5t-26 -67t-66 -28q-38 0 -66 28.5t-28 66.5t28 66t66 28zM864 -649q37 0 64.5 -28t27.5 -66t-27.5 -66.5
t-64.5 -28.5q-40 0 -67 28t-27 67t26.5 66.5t67.5 27.5z" />
    <glyph glyph-name="uniFE9CFE8A.liga" unicode="&#xfe9c;&#xfe8a;" horiz-adv-x="1867" 
d="M1212 1223q-38 0 -64 26.5t-26 63.5q0 38 25 64t65 26t64 -26t24 -64q0 -37 -25.5 -63.5t-62.5 -26.5zM1094 997q-40 0 -65 26t-25 64t25 64.5t65 26.5t64 -26.5t24 -64.5t-24 -64t-64 -26zM1241 1087q0 38 25 64.5t65 26.5t64 -26.5t24 -64.5t-24 -64t-64 -26t-65 26
t-25 64zM279 823h141v-106h-367v100h64q-33 29 -33 88q0 69 47.5 120.5t128.5 51.5q49 0 89.5 -24t56.5 -56l-52 -77q-47 41 -92 41q-36 0 -64 -20t-28 -50q0 -29 29 -48.5t80 -19.5zM1868 170l35 -6l-7 -158l-34 -6q-68 0 -115.5 15t-89 56.5t-74.5 98t-78 154.5l-41 90
q-48 106 -113.5 161.5t-164.5 55.5q-116 0 -210.5 -73.5t-94.5 -166.5q0 -117 174 -155l147 -31q76 -16 125 -33.5t90 -45.5t59.5 -71t18.5 -104q0 -62 -30.5 -124t-94 -119.5t-152 -102t-214 -71t-269.5 -26.5q-318 0 -496 160t-178 430q0 249 111 498l119 -43
q-43 -101 -69.5 -220t-26.5 -206q0 -223 145.5 -336t411.5 -113q117 0 220 18t172.5 46.5t120 62.5t74 66.5t23.5 58.5q0 48 -40 70.5t-142 44.5l-179 39q-69 15 -120 46t-79 71.5t-41 82.5t-13 89q0 184 132 305t330 121q73 0 131.5 -24t103.5 -71t76.5 -97.5t65.5 -123.5
l53 -114q23 -49 38 -76.5t35 -54.5t40.5 -40t48.5 -20.5t66 -7.5z" />
    <glyph glyph-name="uniFE9BFE8A.liga" unicode="&#xfe9b;&#xfe8a;" 
d="M1116 1362q-38 0 -64 26.5t-26 63.5q0 38 25 64t65 26t64 -26t24 -64q0 -37 -25.5 -63.5t-62.5 -26.5zM997 1137q-40 0 -65 26t-25 64t25 64t65 26t64 -26t24 -64t-24 -64t-64 -26zM1145 1227q0 38 25 64t65 26t64 -26t24 -64t-24 -64t-64 -26t-65 26t-25 64zM272 784
h142v-106h-367v100h64q-33 29 -33 88q0 69 47.5 120.5t128.5 51.5q49 0 89 -24t56 -56l-51 -77q-47 41 -92 41q-36 0 -64 -20t-28 -50q0 -29 28.5 -48.5t79.5 -19.5zM1223 262q91 -21 143.5 -88t52.5 -170q0 -71 -27.5 -140.5t-86 -134t-142 -113.5t-205 -78.5t-264.5 -29.5
q-298 0 -465.5 155.5t-167.5 416.5q0 239 111 498l119 -43q-44 -99 -69 -217t-25 -209q0 -214 134.5 -322.5t383.5 -108.5q117 0 215 20.5t162 52.5t109 73t65 81t20 77q0 70 -50 106.5t-167 36.5h-227v164h250q33 40 44 86t11 133q0 164 -92 416l133 47q92 -234 92 -447
q0 -159 -57 -262z" />
    <glyph glyph-name="uniFD2A.liga" unicode="&#xfeb4;&#xfeae;" horiz-adv-x="2572" 
d="M2572 170l35 -6l-6 -158l-35 -6q-295 0 -352 174q-31 -86 -107 -130t-176 -44q-115 0 -189 44t-100 128q-31 -85 -109 -128.5t-187 -43.5q-132 0 -218 54.5t-110 166.5h-440q4 -50 4 -69q0 -114 -39 -219t-109.5 -186.5t-180 -130t-241.5 -48.5q-90 0 -155 18l16 160
q63 -8 139 -8q110 0 197.5 37t137.5 96t76 125.5t26 132.5q0 78 -20 171.5t-67 260.5l134 33q32 -103 55 -203h446v193h133v-219q0 -58 17 -97.5t50.5 -60t73.5 -29t95 -8.5q104 0 163.5 43t59.5 156v215h135v-215q0 -114 56.5 -156.5t163.5 -42.5q101 0 159 43t58 156v215
h135v-215q0 -113 59.5 -156t216.5 -43z" />
    <glyph glyph-name="uniFD0E.liga" unicode="&#xfeb3;&#xfeae;" horiz-adv-x="2392" 
d="M2077 678l133 43q69 -223 69 -367q0 -166 -93.5 -260t-254.5 -94q-114 0 -189.5 48t-101.5 138q-31 -92 -109.5 -139t-184.5 -47q-280 0 -328 221h-440q4 -50 4 -69q0 -114 -39 -219t-109.5 -186.5t-180 -130t-241.5 -48.5q-90 0 -155 18l16 160q63 -8 139 -8
q110 0 197.5 37t137.5 96t76 125.5t26 132.5q0 78 -20 171.5t-67 260.5l134 33q32 -103 55 -203h446v193h133v-219q0 -58 17 -97.5t50.5 -60t73.5 -29t95 -8.5q49 0 86.5 9t70 32t49.5 66.5t17 107.5v199h135v-199q0 -123 57 -169t163 -46q97 0 148.5 46.5t51.5 123.5
q0 85 -67 338z" />
    <glyph glyph-name="uniFD17.liga" unicode="&#xfeb4;&#xfef0;" horiz-adv-x="3088" 
d="M3088 170l35 -6l-6 -158l-35 -6q-295 0 -352 174q-31 -86 -107 -130t-176 -44q-115 0 -189.5 44t-100.5 128q-31 -85 -107 -128.5t-176 -43.5q-91 0 -152.5 31.5t-109 98t-105.5 194.5l-41 90q-48 106 -113.5 161.5t-164.5 55.5q-117 0 -211 -75t-94 -171
q0 -111 174 -149l147 -31q76 -16 125 -33.5t90 -45.5t59.5 -71t18.5 -104q0 -62 -30.5 -124t-94.5 -119.5t-152.5 -102t-214 -71t-270.5 -26.5q-318 0 -496 160t-178 430q0 249 111 498l119 -43q-43 -101 -69.5 -220t-26.5 -206q0 -223 145.5 -336t411.5 -113q145 0 267 27
t194 67.5t111.5 82t39.5 75.5q0 48 -40 70.5t-142 44.5l-178 39q-87 19 -144 67t-78.5 102t-21.5 114q0 187 129 309.5t323 122.5q73 0 131.5 -24t103.5 -71t76.5 -97.5t65.5 -123.5l53 -114q29 -60 48.5 -92.5t47 -59.5t62 -37t84.5 -10q49 0 85.5 8.5t69 29t49.5 61.5
t17 100v215h136v-215q0 -114 56 -156.5t163 -42.5q101 0 159 43t58 156v215h135v-215q0 -113 59.5 -156t216.5 -43z" />
    <glyph glyph-name="uniFCFB.liga" unicode="&#xfeb3;&#xfef0;" horiz-adv-x="2912" 
d="M2597 678l133 43q70 -226 70 -367q0 -166 -94 -260t-255 -94q-114 0 -188 47.5t-100 138.5q-33 -92 -110 -139t-179 -47q-91 0 -152.5 31.5t-109 98t-105.5 194.5l-41 90q-48 106 -113.5 161.5t-164.5 55.5q-117 0 -211 -75t-94 -171q0 -111 174 -149l147 -31
q76 -16 125 -33.5t90 -45.5t59.5 -71t18.5 -104q0 -62 -30.5 -124t-94.5 -119.5t-152.5 -102t-214 -71t-270.5 -26.5q-318 0 -496 160t-178 430q0 249 111 498l119 -43q-43 -101 -69.5 -220t-26.5 -206q0 -223 145.5 -336t411.5 -113q145 0 267 27t194 67.5t111.5 82
t39.5 75.5q0 48 -40 70.5t-142 44.5l-178 39q-87 19 -144 67t-78.5 102t-21.5 114q0 187 129 309.5t323 122.5q73 0 131.5 -24t103.5 -71t76.5 -97.5t65.5 -123.5l53 -114q29 -60 48.5 -92.5t47 -59.5t62 -37t84.5 -10t87.5 8.5t70.5 29t50 60t17 97.5v219h136v-219
q0 -112 56.5 -153.5t162.5 -41.5q97 0 148.5 46.5t51.5 123.5q0 85 -67 338z" />
    <glyph glyph-name="uniFD18.liga" unicode="&#xfeb4;&#xfef2;" horiz-adv-x="3088" 
d="M3088 170l35 -6l-6 -158l-35 -6q-295 0 -352 174q-31 -86 -107 -130t-176 -44q-115 0 -189.5 44t-100.5 128q-31 -85 -107 -128.5t-176 -43.5q-91 0 -152.5 31.5t-109 98t-105.5 194.5l-41 90q-48 106 -113.5 161.5t-164.5 55.5q-117 0 -211 -75t-94 -171
q0 -111 174 -149l147 -31q76 -16 125 -33.5t90 -45.5t59.5 -71t18.5 -104q0 -62 -30.5 -124t-94.5 -119.5t-152.5 -102t-214 -71t-270.5 -26.5q-318 0 -496 160t-178 430q0 249 111 498l119 -43q-43 -101 -69.5 -220t-26.5 -206q0 -223 145.5 -336t411.5 -113q145 0 267 27
t194 67.5t111.5 82t39.5 75.5q0 48 -40 70.5t-142 44.5l-178 39q-87 19 -144 67t-78.5 102t-21.5 114q0 187 129 309.5t323 122.5q73 0 131.5 -24t103.5 -71t76.5 -97.5t65.5 -123.5l53 -114q29 -60 48.5 -92.5t47 -59.5t62 -37t84.5 -10q49 0 85.5 8.5t69 29t49.5 61.5
t17 100v215h136v-215q0 -114 56 -156.5t163 -42.5q101 0 159 43t58 156v215h135v-215q0 -113 59.5 -156t216.5 -43zM647 -649q39 0 65.5 -27.5t26.5 -66.5t-26 -67t-66 -28q-38 0 -66 28.5t-28 66.5t28 66t66 28zM905 -649q37 0 64.5 -28t27.5 -66t-27.5 -66.5t-64.5 -28.5
q-40 0 -67 28t-27 67t26.5 66.5t67.5 27.5z" />
    <glyph glyph-name="uniFCFC.liga" unicode="&#xfeb3;&#xfef2;" horiz-adv-x="2912" 
d="M2597 678l133 43q70 -226 70 -367q0 -166 -94 -260t-255 -94q-114 0 -188 47.5t-100 138.5q-33 -92 -110 -139t-179 -47q-91 0 -152.5 31.5t-109 98t-105.5 194.5l-41 90q-48 106 -113.5 161.5t-164.5 55.5q-117 0 -211 -75t-94 -171q0 -111 174 -149l147 -31
q76 -16 125 -33.5t90 -45.5t59.5 -71t18.5 -104q0 -62 -30.5 -124t-94.5 -119.5t-152.5 -102t-214 -71t-270.5 -26.5q-318 0 -496 160t-178 430q0 249 111 498l119 -43q-43 -101 -69.5 -220t-26.5 -206q0 -223 145.5 -336t411.5 -113q145 0 267 27t194 67.5t111.5 82
t39.5 75.5q0 48 -40 70.5t-142 44.5l-178 39q-87 19 -144 67t-78.5 102t-21.5 114q0 187 129 309.5t323 122.5q73 0 131.5 -24t103.5 -71t76.5 -97.5t65.5 -123.5l53 -114q29 -60 48.5 -92.5t47 -59.5t62 -37t84.5 -10t87.5 8.5t70.5 29t50 60t17 97.5v219h136v-219
q0 -112 56.5 -153.5t162.5 -41.5q97 0 148.5 46.5t51.5 123.5q0 85 -67 338zM647 -649q39 0 65.5 -27.5t26.5 -66.5t-26 -67t-66 -28q-38 0 -66 28.5t-28 66.5t28 66t66 28zM905 -649q37 0 64.5 -28t27.5 -66t-27.5 -66.5t-64.5 -28.5q-40 0 -67 28t-27 67t26.5 66.5
t67.5 27.5z" />
    <glyph glyph-name="uniFEB4FEB0.liga" unicode="&#xfeb4;&#xfeb0;" horiz-adv-x="2572" 
d="M412 776q-42 0 -71.5 30.5t-29.5 70.5t29.5 70t71.5 30q41 0 69.5 -30t28.5 -70t-28.5 -70.5t-69.5 -30.5zM2572 170l35 -6l-6 -158l-35 -6q-295 0 -352 174q-31 -86 -107 -130t-176 -44q-115 0 -189 44t-100 128q-31 -85 -109 -128.5t-187 -43.5q-132 0 -218 54.5
t-110 166.5h-440q4 -50 4 -69q0 -114 -39 -219t-109.5 -186.5t-180 -130t-241.5 -48.5q-90 0 -155 18l16 160q63 -8 139 -8q110 0 197.5 37t137.5 96t76 125.5t26 132.5q0 78 -20 171.5t-67 260.5l134 33q32 -103 55 -203h446v193h133v-219q0 -58 17 -97.5t50.5 -60
t73.5 -29t95 -8.5q104 0 163.5 43t59.5 156v215h135v-215q0 -114 56.5 -156.5t163.5 -42.5q101 0 159 43t58 156v215h135v-215q0 -113 59.5 -156t216.5 -43z" />
    <glyph glyph-name="uniFEB3FEB0.liga" unicode="&#xfeb3;&#xfeb0;" horiz-adv-x="2392" 
d="M412 776q-42 0 -71.5 30.5t-29.5 70.5t29.5 70t71.5 30q41 0 69.5 -30t28.5 -70t-28.5 -70.5t-69.5 -30.5zM2077 678l133 43q69 -223 69 -367q0 -166 -93.5 -260t-254.5 -94q-114 0 -189.5 48t-101.5 138q-31 -92 -109.5 -139t-184.5 -47q-280 0 -328 221h-440
q4 -50 4 -69q0 -114 -39 -219t-109.5 -186.5t-180 -130t-241.5 -48.5q-90 0 -155 18l16 160q63 -8 139 -8q110 0 197.5 37t137.5 96t76 125.5t26 132.5q0 78 -20 171.5t-67 260.5l134 33q32 -103 55 -203h446v193h133v-219q0 -58 17 -97.5t50.5 -60t73.5 -29t95 -8.5
q49 0 86.5 9t70 32t49.5 66.5t17 107.5v199h135v-199q0 -123 57 -169t163 -46q97 0 148.5 46.5t51.5 123.5q0 85 -67 338z" />
    <glyph glyph-name="uniFEB4FB8B.liga" unicode="&#xfeb4;&#xfb8b;" horiz-adv-x="2572" 
d="M414 1004q-38 0 -64 26.5t-26 63.5q0 38 25 64t65 26t64 -26t24 -64q0 -37 -25.5 -63.5t-62.5 -26.5zM295 778q-40 0 -65 26t-25 64t25 64t65 26t64 -26t24 -64t-24 -64t-64 -26zM442 868q0 38 25 64t65 26t64.5 -26t24.5 -64t-24.5 -64t-64.5 -26t-65 26t-25 64z
M2572 170l35 -6l-6 -158l-35 -6q-295 0 -352 174q-31 -86 -107 -130t-176 -44q-115 0 -189 44t-100 128q-31 -85 -109 -128.5t-187 -43.5q-132 0 -218 54.5t-110 166.5h-440q4 -50 4 -69q0 -114 -39 -219t-109.5 -186.5t-180 -130t-241.5 -48.5q-90 0 -155 18l16 160
q63 -8 139 -8q110 0 197.5 37t137.5 96t76 125.5t26 132.5q0 78 -20 171.5t-67 260.5l134 33q32 -103 55 -203h446v193h133v-219q0 -58 17 -97.5t50.5 -60t73.5 -29t95 -8.5q104 0 163.5 43t59.5 156v215h135v-215q0 -114 56.5 -156.5t163.5 -42.5q101 0 159 43t58 156v215
h135v-215q0 -113 59.5 -156t216.5 -43z" />
    <glyph glyph-name="uniFEB3FB8B.liga" unicode="&#xfeb3;&#xfb8b;" horiz-adv-x="2392" 
d="M414 1004q-38 0 -64 26.5t-26 63.5q0 38 25 64t65 26t64 -26t24 -64q0 -37 -25.5 -63.5t-62.5 -26.5zM295 778q-40 0 -65 26t-25 64t25 64t65 26t64 -26t24 -64t-24 -64t-64 -26zM442 868q0 38 25 64t65 26t64.5 -26t24.5 -64t-24.5 -64t-64.5 -26t-65 26t-25 64z
M2077 678l133 43q69 -223 69 -367q0 -166 -93.5 -260t-254.5 -94q-114 0 -189.5 48t-101.5 138q-31 -92 -109.5 -139t-184.5 -47q-280 0 -328 221h-440q4 -50 4 -69q0 -114 -39 -219t-109.5 -186.5t-180 -130t-241.5 -48.5q-90 0 -155 18l16 160q63 -8 139 -8
q110 0 197.5 37t137.5 96t76 125.5t26 132.5q0 78 -20 171.5t-67 260.5l134 33q32 -103 55 -203h446v193h133v-219q0 -58 17 -97.5t50.5 -60t73.5 -29t95 -8.5q49 0 86.5 9t70 32t49.5 66.5t17 107.5v199h135v-199q0 -123 57 -169t163 -46q97 0 148.5 46.5t51.5 123.5
q0 85 -67 338z" />
    <glyph glyph-name="uniFEB4FE8A.liga" unicode="&#xfeb4;&#xfe8a;" horiz-adv-x="3088" 
d="M270 801h142v-107h-367v101h64q-33 29 -33 88q0 69 47.5 120.5t128.5 51.5q49 0 89 -24t56 -56l-51 -78q-47 41 -92 41q-36 0 -64 -20t-28 -50q0 -29 28.5 -48t79.5 -19zM3088 170l35 -6l-6 -158l-35 -6q-295 0 -352 174q-31 -86 -107 -130t-176 -44q-115 0 -189.5 44
t-100.5 128q-31 -85 -107 -128.5t-176 -43.5q-91 0 -152.5 31.5t-109 98t-105.5 194.5l-41 90q-48 106 -113.5 161.5t-164.5 55.5q-117 0 -211 -75t-94 -171q0 -111 174 -149l147 -31q76 -16 125 -33.5t90 -45.5t59.5 -71t18.5 -104q0 -62 -30.5 -124t-94.5 -119.5
t-152.5 -102t-214 -71t-270.5 -26.5q-318 0 -496 160t-178 430q0 249 111 498l119 -43q-43 -101 -69.5 -220t-26.5 -206q0 -223 145.5 -336t411.5 -113q145 0 267 27t194 67.5t111.5 82t39.5 75.5q0 48 -40 70.5t-142 44.5l-178 39q-87 19 -144 67t-78.5 102t-21.5 114
q0 187 129 309.5t323 122.5q73 0 131.5 -24t103.5 -71t76.5 -97.5t65.5 -123.5l53 -114q29 -60 48.5 -92.5t47 -59.5t62 -37t84.5 -10q49 0 85.5 8.5t69 29t49.5 61.5t17 100v215h136v-215q0 -114 56 -156.5t163 -42.5q101 0 159 43t58 156v215h135v-215q0 -113 59.5 -156
t216.5 -43z" />
    <glyph glyph-name="uniFEB3FE8A.liga" unicode="&#xfeb3;&#xfe8a;" horiz-adv-x="2912" 
d="M270 801h142v-107h-367v101h64q-33 29 -33 88q0 69 47.5 120.5t128.5 51.5q49 0 89 -24t56 -56l-51 -78q-47 41 -92 41q-36 0 -64 -20t-28 -50q0 -29 28.5 -48t79.5 -19zM2597 678l133 43q70 -226 70 -367q0 -166 -94 -260t-255 -94q-114 0 -188 47.5t-100 138.5
q-33 -92 -110 -139t-179 -47q-91 0 -152.5 31.5t-109 98t-105.5 194.5l-41 90q-48 106 -113.5 161.5t-164.5 55.5q-117 0 -211 -75t-94 -171q0 -111 174 -149l147 -31q76 -16 125 -33.5t90 -45.5t59.5 -71t18.5 -104q0 -62 -30.5 -124t-94.5 -119.5t-152.5 -102t-214 -71
t-270.5 -26.5q-318 0 -496 160t-178 430q0 249 111 498l119 -43q-43 -101 -69.5 -220t-26.5 -206q0 -223 145.5 -336t411.5 -113q145 0 267 27t194 67.5t111.5 82t39.5 75.5q0 48 -40 70.5t-142 44.5l-178 39q-87 19 -144 67t-78.5 102t-21.5 114q0 187 129 309.5t323 122.5
q73 0 131.5 -24t103.5 -71t76.5 -97.5t65.5 -123.5l53 -114q29 -60 48.5 -92.5t47 -59.5t62 -37t84.5 -10t87.5 8.5t70.5 29t50 60t17 97.5v219h136v-219q0 -112 56.5 -153.5t162.5 -41.5q97 0 148.5 46.5t51.5 123.5q0 85 -67 338z" />
    <glyph glyph-name="uniFD29.liga" unicode="&#xfeb8;&#xfeae;" horiz-adv-x="2572" 
d="M1657 1008q-38 0 -64 26.5t-26 63.5q0 38 25 64t65 26t64 -26t24 -64q0 -37 -25.5 -63.5t-62.5 -26.5zM1538 782q-40 0 -65 26t-25 64t25 64.5t65 26.5t64 -26.5t24 -64.5t-24 -64t-64 -26zM1686 872q0 38 25 64.5t65 26.5t64 -26.5t24 -64.5t-24 -64t-64 -26t-65 26
t-25 64zM2572 170l35 -6l-6 -158l-35 -6q-295 0 -352 174q-31 -86 -107 -130t-176 -44q-115 0 -189 44t-100 128q-31 -85 -109 -128.5t-187 -43.5q-132 0 -218 54.5t-110 166.5h-440q4 -50 4 -69q0 -114 -39 -219t-109.5 -186.5t-180 -130t-241.5 -48.5q-90 0 -155 18
l16 160q63 -8 139 -8q110 0 197.5 37t137.5 96t76 125.5t26 132.5q0 78 -20 171.5t-67 260.5l134 33q32 -103 55 -203h446v193h133v-219q0 -58 17 -97.5t50.5 -60t73.5 -29t95 -8.5q104 0 163.5 43t59.5 156v215h135v-215q0 -114 56.5 -156.5t163.5 -42.5q101 0 159 43
t58 156v215h135v-215q0 -113 59.5 -156t216.5 -43z" />
    <glyph glyph-name="uniFD0D.liga" unicode="&#xfeb7;&#xfeae;" horiz-adv-x="2392" 
d="M1659 1008q-38 0 -64 26.5t-26 63.5q0 38 25 64t65 26t64 -26t24 -64q0 -37 -25.5 -63.5t-62.5 -26.5zM1540 782q-40 0 -65 26t-25 64t25 64.5t65 26.5t64 -26.5t24 -64.5t-24 -64t-64 -26zM1688 872q0 38 25 64.5t65 26.5t64 -26.5t24 -64.5t-24 -64t-64 -26t-65 26
t-25 64zM2077 678l133 43q69 -223 69 -367q0 -166 -93.5 -260t-254.5 -94q-114 0 -189.5 48t-101.5 138q-31 -92 -109.5 -139t-184.5 -47q-280 0 -328 221h-440q4 -50 4 -69q0 -114 -39 -219t-109.5 -186.5t-180 -130t-241.5 -48.5q-90 0 -155 18l16 160q63 -8 139 -8
q110 0 197.5 37t137.5 96t76 125.5t26 132.5q0 78 -20 171.5t-67 260.5l134 33q32 -103 55 -203h446v193h133v-219q0 -58 17 -97.5t50.5 -60t73.5 -29t95 -8.5q49 0 86.5 9t70 32t49.5 66.5t17 107.5v199h135v-199q0 -123 57 -169t163 -46q97 0 148.5 46.5t51.5 123.5
q0 85 -67 338z" />
    <glyph glyph-name="uniFEB8FEB0.liga" unicode="&#xfeb8;&#xfeb0;" horiz-adv-x="2572" 
d="M1657 1008q-38 0 -64 26.5t-26 63.5q0 38 25 64t65 26t64 -26t24 -64q0 -37 -25.5 -63.5t-62.5 -26.5zM412 776q-42 0 -71.5 30.5t-29.5 70.5t29.5 70t71.5 30q41 0 69.5 -30t28.5 -70t-28.5 -70.5t-69.5 -30.5zM1538 782q-40 0 -65 26t-25 64t25 64.5t65 26.5t64 -26.5
t24 -64.5t-24 -64t-64 -26zM1686 872q0 38 25 64.5t65 26.5t64 -26.5t24 -64.5t-24 -64t-64 -26t-65 26t-25 64zM2572 170l35 -6l-6 -158l-35 -6q-295 0 -352 174q-31 -86 -107 -130t-176 -44q-115 0 -189 44t-100 128q-31 -85 -109 -128.5t-187 -43.5q-132 0 -218 54.5
t-110 166.5h-440q4 -50 4 -69q0 -114 -39 -219t-109.5 -186.5t-180 -130t-241.5 -48.5q-90 0 -155 18l16 160q63 -8 139 -8q110 0 197.5 37t137.5 96t76 125.5t26 132.5q0 78 -20 171.5t-67 260.5l134 33q32 -103 55 -203h446v193h133v-219q0 -58 17 -97.5t50.5 -60
t73.5 -29t95 -8.5q104 0 163.5 43t59.5 156v215h135v-215q0 -114 56.5 -156.5t163.5 -42.5q101 0 159 43t58 156v215h135v-215q0 -113 59.5 -156t216.5 -43z" />
    <glyph glyph-name="uniFEB7FEB0.liga" unicode="&#xfeb7;&#xfeb0;" horiz-adv-x="2392" 
d="M1659 1008q-38 0 -64 26.5t-26 63.5q0 38 25 64t65 26t64 -26t24 -64q0 -37 -25.5 -63.5t-62.5 -26.5zM412 776q-42 0 -71.5 30.5t-29.5 70.5t29.5 70t71.5 30q41 0 69.5 -30t28.5 -70t-28.5 -70.5t-69.5 -30.5zM1540 782q-40 0 -65 26t-25 64t25 64.5t65 26.5t64 -26.5
t24 -64.5t-24 -64t-64 -26zM1688 872q0 38 25 64.5t65 26.5t64 -26.5t24 -64.5t-24 -64t-64 -26t-65 26t-25 64zM2077 678l133 43q69 -223 69 -367q0 -166 -93.5 -260t-254.5 -94q-114 0 -189.5 48t-101.5 138q-31 -92 -109.5 -139t-184.5 -47q-280 0 -328 221h-440
q4 -50 4 -69q0 -114 -39 -219t-109.5 -186.5t-180 -130t-241.5 -48.5q-90 0 -155 18l16 160q63 -8 139 -8q110 0 197.5 37t137.5 96t76 125.5t26 132.5q0 78 -20 171.5t-67 260.5l134 33q32 -103 55 -203h446v193h133v-219q0 -58 17 -97.5t50.5 -60t73.5 -29t95 -8.5
q49 0 86.5 9t70 32t49.5 66.5t17 107.5v199h135v-199q0 -123 57 -169t163 -46q97 0 148.5 46.5t51.5 123.5q0 85 -67 338z" />
    <glyph glyph-name="uniFEB8FB8B.liga" unicode="&#xfeb8;&#xfb8b;" horiz-adv-x="2572" 
d="M1657 1008q-38 0 -64 26.5t-26 63.5q0 38 25 64t65 26t64 -26t24 -64q0 -37 -25.5 -63.5t-62.5 -26.5zM414 1004q-38 0 -64 26.5t-26 63.5q0 38 25 64t65 26t64 -26t24 -64q0 -37 -25.5 -63.5t-62.5 -26.5zM1538 782q-40 0 -65 26t-25 64t25 64.5t65 26.5t64 -26.5
t24 -64.5t-24 -64t-64 -26zM1686 872q0 38 25 64.5t65 26.5t64 -26.5t24 -64.5t-24 -64t-64 -26t-65 26t-25 64zM295 778q-40 0 -65 26t-25 64t25 64t65 26t64 -26t24 -64t-24 -64t-64 -26zM442 868q0 38 25 64t65 26t64.5 -26t24.5 -64t-24.5 -64t-64.5 -26t-65 26t-25 64z
M2572 170l35 -6l-6 -158l-35 -6q-295 0 -352 174q-31 -86 -107 -130t-176 -44q-115 0 -189 44t-100 128q-31 -85 -109 -128.5t-187 -43.5q-132 0 -218 54.5t-110 166.5h-440q4 -50 4 -69q0 -114 -39 -219t-109.5 -186.5t-180 -130t-241.5 -48.5q-90 0 -155 18l16 160
q63 -8 139 -8q110 0 197.5 37t137.5 96t76 125.5t26 132.5q0 78 -20 171.5t-67 260.5l134 33q32 -103 55 -203h446v193h133v-219q0 -58 17 -97.5t50.5 -60t73.5 -29t95 -8.5q104 0 163.5 43t59.5 156v215h135v-215q0 -114 56.5 -156.5t163.5 -42.5q101 0 159 43t58 156v215
h135v-215q0 -113 59.5 -156t216.5 -43z" />
    <glyph glyph-name="uniFEB7FB8B.liga" unicode="&#xfeb7;&#xfb8b;" horiz-adv-x="2392" 
d="M1659 1008q-38 0 -64 26.5t-26 63.5q0 38 25 64t65 26t64 -26t24 -64q0 -37 -25.5 -63.5t-62.5 -26.5zM414 1004q-38 0 -64 26.5t-26 63.5q0 38 25 64t65 26t64 -26t24 -64q0 -37 -25.5 -63.5t-62.5 -26.5zM1540 782q-40 0 -65 26t-25 64t25 64.5t65 26.5t64 -26.5
t24 -64.5t-24 -64t-64 -26zM1688 872q0 38 25 64.5t65 26.5t64 -26.5t24 -64.5t-24 -64t-64 -26t-65 26t-25 64zM295 778q-40 0 -65 26t-25 64t25 64t65 26t64 -26t24 -64t-24 -64t-64 -26zM442 868q0 38 25 64t65 26t64.5 -26t24.5 -64t-24.5 -64t-64.5 -26t-65 26t-25 64z
M2077 678l133 43q69 -223 69 -367q0 -166 -93.5 -260t-254.5 -94q-114 0 -189.5 48t-101.5 138q-31 -92 -109.5 -139t-184.5 -47q-280 0 -328 221h-440q4 -50 4 -69q0 -114 -39 -219t-109.5 -186.5t-180 -130t-241.5 -48.5q-90 0 -155 18l16 160q63 -8 139 -8
q110 0 197.5 37t137.5 96t76 125.5t26 132.5q0 78 -20 171.5t-67 260.5l134 33q32 -103 55 -203h446v193h133v-219q0 -58 17 -97.5t50.5 -60t73.5 -29t95 -8.5q49 0 86.5 9t70 32t49.5 66.5t17 107.5v199h135v-199q0 -123 57 -169t163 -46q97 0 148.5 46.5t51.5 123.5
q0 85 -67 338z" />
    <glyph glyph-name="uniFD19.liga" unicode="&#xfeb8;&#xfef0;" horiz-adv-x="3088" 
d="M2175 1008q-38 0 -64 26.5t-26 63.5q0 38 25 64t65 26t64 -26t24 -64q0 -37 -25.5 -63.5t-62.5 -26.5zM2056 782q-40 0 -65 26t-25 64t25 64.5t65 26.5t64 -26.5t24 -64.5t-24 -64t-64 -26zM2204 872q0 38 25 64.5t65 26.5t64 -26.5t24 -64.5t-24 -64t-64 -26t-65 26
t-25 64zM3088 170l35 -6l-6 -158l-35 -6q-295 0 -352 174q-31 -86 -107 -130t-176 -44q-115 0 -189.5 44t-100.5 128q-31 -85 -107 -128.5t-176 -43.5q-91 0 -152.5 31.5t-109 98t-105.5 194.5l-41 90q-48 106 -113.5 161.5t-164.5 55.5q-117 0 -211 -75t-94 -171
q0 -111 174 -149l147 -31q76 -16 125 -33.5t90 -45.5t59.5 -71t18.5 -104q0 -62 -30.5 -124t-94.5 -119.5t-152.5 -102t-214 -71t-270.5 -26.5q-318 0 -496 160t-178 430q0 249 111 498l119 -43q-43 -101 -69.5 -220t-26.5 -206q0 -223 145.5 -336t411.5 -113q145 0 267 27
t194 67.5t111.5 82t39.5 75.5q0 48 -40 70.5t-142 44.5l-178 39q-87 19 -144 67t-78.5 102t-21.5 114q0 187 129 309.5t323 122.5q73 0 131.5 -24t103.5 -71t76.5 -97.5t65.5 -123.5l53 -114q29 -60 48.5 -92.5t47 -59.5t62 -37t84.5 -10q49 0 85.5 8.5t69 29t49.5 61.5
t17 100v215h136v-215q0 -114 56 -156.5t163 -42.5q101 0 159 43t58 156v215h135v-215q0 -113 59.5 -156t216.5 -43z" />
    <glyph glyph-name="uniFCFD.liga" unicode="&#xfeb7;&#xfef0;" horiz-adv-x="2912" 
d="M2179 1008q-38 0 -64 26.5t-26 63.5q0 38 25 64t65 26t64 -26t24 -64q0 -37 -25.5 -63.5t-62.5 -26.5zM2060 782q-40 0 -65 26t-25 64t25 64.5t65 26.5t64 -26.5t24 -64.5t-24 -64t-64 -26zM2208 872q0 38 25 64.5t65 26.5t64 -26.5t24 -64.5t-24 -64t-64 -26t-65 26
t-25 64zM2597 678l133 43q70 -226 70 -367q0 -166 -94 -260t-255 -94q-114 0 -188 47.5t-100 138.5q-33 -92 -110 -139t-179 -47q-91 0 -152.5 31.5t-109 98t-105.5 194.5l-41 90q-48 106 -113.5 161.5t-164.5 55.5q-117 0 -211 -75t-94 -171q0 -111 174 -149l147 -31
q76 -16 125 -33.5t90 -45.5t59.5 -71t18.5 -104q0 -62 -30.5 -124t-94.5 -119.5t-152.5 -102t-214 -71t-270.5 -26.5q-318 0 -496 160t-178 430q0 249 111 498l119 -43q-43 -101 -69.5 -220t-26.5 -206q0 -223 145.5 -336t411.5 -113q145 0 267 27t194 67.5t111.5 82
t39.5 75.5q0 48 -40 70.5t-142 44.5l-178 39q-87 19 -144 67t-78.5 102t-21.5 114q0 187 129 309.5t323 122.5q73 0 131.5 -24t103.5 -71t76.5 -97.5t65.5 -123.5l53 -114q29 -60 48.5 -92.5t47 -59.5t62 -37t84.5 -10t87.5 8.5t70.5 29t50 60t17 97.5v219h136v-219
q0 -112 56.5 -153.5t162.5 -41.5q97 0 148.5 46.5t51.5 123.5q0 85 -67 338z" />
    <glyph glyph-name="uniFD1A.liga" unicode="&#xfeb8;&#xfef2;" horiz-adv-x="3088" 
d="M2175 1008q-38 0 -64 26.5t-26 63.5q0 38 25 64t65 26t64 -26t24 -64q0 -37 -25.5 -63.5t-62.5 -26.5zM2056 782q-40 0 -65 26t-25 64t25 64.5t65 26.5t64 -26.5t24 -64.5t-24 -64t-64 -26zM2204 872q0 38 25 64.5t65 26.5t64 -26.5t24 -64.5t-24 -64t-64 -26t-65 26
t-25 64zM3088 170l35 -6l-6 -158l-35 -6q-295 0 -352 174q-31 -86 -107 -130t-176 -44q-115 0 -189.5 44t-100.5 128q-31 -85 -107 -128.5t-176 -43.5q-91 0 -152.5 31.5t-109 98t-105.5 194.5l-41 90q-48 106 -113.5 161.5t-164.5 55.5q-117 0 -211 -75t-94 -171
q0 -111 174 -149l147 -31q76 -16 125 -33.5t90 -45.5t59.5 -71t18.5 -104q0 -62 -30.5 -124t-94.5 -119.5t-152.5 -102t-214 -71t-270.5 -26.5q-318 0 -496 160t-178 430q0 249 111 498l119 -43q-43 -101 -69.5 -220t-26.5 -206q0 -223 145.5 -336t411.5 -113q145 0 267 27
t194 67.5t111.5 82t39.5 75.5q0 48 -40 70.5t-142 44.5l-178 39q-87 19 -144 67t-78.5 102t-21.5 114q0 187 129 309.5t323 122.5q73 0 131.5 -24t103.5 -71t76.5 -97.5t65.5 -123.5l53 -114q29 -60 48.5 -92.5t47 -59.5t62 -37t84.5 -10q49 0 85.5 8.5t69 29t49.5 61.5
t17 100v215h136v-215q0 -114 56 -156.5t163 -42.5q101 0 159 43t58 156v215h135v-215q0 -113 59.5 -156t216.5 -43zM647 -649q39 0 65.5 -27.5t26.5 -66.5t-26 -67t-66 -28q-38 0 -66 28.5t-28 66.5t28 66t66 28zM905 -649q37 0 64.5 -28t27.5 -66t-27.5 -66.5t-64.5 -28.5
q-40 0 -67 28t-27 67t26.5 66.5t67.5 27.5z" />
    <glyph glyph-name="uniFCFE.liga" unicode="&#xfeb7;&#xfef2;" horiz-adv-x="2912" 
d="M2179 1008q-38 0 -64 26.5t-26 63.5q0 38 25 64t65 26t64 -26t24 -64q0 -37 -25.5 -63.5t-62.5 -26.5zM2060 782q-40 0 -65 26t-25 64t25 64.5t65 26.5t64 -26.5t24 -64.5t-24 -64t-64 -26zM2208 872q0 38 25 64.5t65 26.5t64 -26.5t24 -64.5t-24 -64t-64 -26t-65 26
t-25 64zM2597 678l133 43q70 -226 70 -367q0 -166 -94 -260t-255 -94q-114 0 -188 47.5t-100 138.5q-33 -92 -110 -139t-179 -47q-91 0 -152.5 31.5t-109 98t-105.5 194.5l-41 90q-48 106 -113.5 161.5t-164.5 55.5q-117 0 -211 -75t-94 -171q0 -111 174 -149l147 -31
q76 -16 125 -33.5t90 -45.5t59.5 -71t18.5 -104q0 -62 -30.5 -124t-94.5 -119.5t-152.5 -102t-214 -71t-270.5 -26.5q-318 0 -496 160t-178 430q0 249 111 498l119 -43q-43 -101 -69.5 -220t-26.5 -206q0 -223 145.5 -336t411.5 -113q145 0 267 27t194 67.5t111.5 82
t39.5 75.5q0 48 -40 70.5t-142 44.5l-178 39q-87 19 -144 67t-78.5 102t-21.5 114q0 187 129 309.5t323 122.5q73 0 131.5 -24t103.5 -71t76.5 -97.5t65.5 -123.5l53 -114q29 -60 48.5 -92.5t47 -59.5t62 -37t84.5 -10t87.5 8.5t70.5 29t50 60t17 97.5v219h136v-219
q0 -112 56.5 -153.5t162.5 -41.5q97 0 148.5 46.5t51.5 123.5q0 85 -67 338zM647 -649q39 0 65.5 -27.5t26.5 -66.5t-26 -67t-66 -28q-38 0 -66 28.5t-28 66.5t28 66t66 28zM905 -649q37 0 64.5 -28t27.5 -66t-27.5 -66.5t-64.5 -28.5q-40 0 -67 28t-27 67t26.5 66.5
t67.5 27.5z" />
    <glyph glyph-name="uniFEB8FE8A.liga" unicode="&#xfeb8;&#xfe8a;" horiz-adv-x="3088" 
d="M2175 1008q-38 0 -64 26.5t-26 63.5q0 38 25 64t65 26t64 -26t24 -64q0 -37 -25.5 -63.5t-62.5 -26.5zM270 801h142v-107h-367v101h64q-33 29 -33 88q0 69 47.5 120.5t128.5 51.5q49 0 89 -24t56 -56l-51 -78q-47 41 -92 41q-36 0 -64 -20t-28 -50q0 -29 28.5 -48
t79.5 -19zM2056 782q-40 0 -65 26t-25 64t25 64.5t65 26.5t64 -26.5t24 -64.5t-24 -64t-64 -26zM2204 872q0 38 25 64.5t65 26.5t64 -26.5t24 -64.5t-24 -64t-64 -26t-65 26t-25 64zM3088 170l35 -6l-6 -158l-35 -6q-295 0 -352 174q-31 -86 -107 -130t-176 -44
q-115 0 -189.5 44t-100.5 128q-31 -85 -107 -128.5t-176 -43.5q-91 0 -152.5 31.5t-109 98t-105.5 194.5l-41 90q-48 106 -113.5 161.5t-164.5 55.5q-117 0 -211 -75t-94 -171q0 -111 174 -149l147 -31q76 -16 125 -33.5t90 -45.5t59.5 -71t18.5 -104q0 -62 -30.5 -124
t-94.5 -119.5t-152.5 -102t-214 -71t-270.5 -26.5q-318 0 -496 160t-178 430q0 249 111 498l119 -43q-43 -101 -69.5 -220t-26.5 -206q0 -223 145.5 -336t411.5 -113q145 0 267 27t194 67.5t111.5 82t39.5 75.5q0 48 -40 70.5t-142 44.5l-178 39q-87 19 -144 67t-78.5 102
t-21.5 114q0 187 129 309.5t323 122.5q73 0 131.5 -24t103.5 -71t76.5 -97.5t65.5 -123.5l53 -114q29 -60 48.5 -92.5t47 -59.5t62 -37t84.5 -10q49 0 85.5 8.5t69 29t49.5 61.5t17 100v215h136v-215q0 -114 56 -156.5t163 -42.5q101 0 159 43t58 156v215h135v-215
q0 -113 59.5 -156t216.5 -43z" />
    <glyph glyph-name="uniFEB7FE8A.liga" unicode="&#xfeb7;&#xfe8a;" horiz-adv-x="2912" 
d="M2179 1008q-38 0 -64 26.5t-26 63.5q0 38 25 64t65 26t64 -26t24 -64q0 -37 -25.5 -63.5t-62.5 -26.5zM270 801h142v-107h-367v101h64q-33 29 -33 88q0 69 47.5 120.5t128.5 51.5q49 0 89 -24t56 -56l-51 -78q-47 41 -92 41q-36 0 -64 -20t-28 -50q0 -29 28.5 -48
t79.5 -19zM2060 782q-40 0 -65 26t-25 64t25 64.5t65 26.5t64 -26.5t24 -64.5t-24 -64t-64 -26zM2208 872q0 38 25 64.5t65 26.5t64 -26.5t24 -64.5t-24 -64t-64 -26t-65 26t-25 64zM2597 678l133 43q70 -226 70 -367q0 -166 -94 -260t-255 -94q-114 0 -188 47.5t-100 138.5
q-33 -92 -110 -139t-179 -47q-91 0 -152.5 31.5t-109 98t-105.5 194.5l-41 90q-48 106 -113.5 161.5t-164.5 55.5q-117 0 -211 -75t-94 -171q0 -111 174 -149l147 -31q76 -16 125 -33.5t90 -45.5t59.5 -71t18.5 -104q0 -62 -30.5 -124t-94.5 -119.5t-152.5 -102t-214 -71
t-270.5 -26.5q-318 0 -496 160t-178 430q0 249 111 498l119 -43q-43 -101 -69.5 -220t-26.5 -206q0 -223 145.5 -336t411.5 -113q145 0 267 27t194 67.5t111.5 82t39.5 75.5q0 48 -40 70.5t-142 44.5l-178 39q-87 19 -144 67t-78.5 102t-21.5 114q0 187 129 309.5t323 122.5
q73 0 131.5 -24t103.5 -71t76.5 -97.5t65.5 -123.5l53 -114q29 -60 48.5 -92.5t47 -59.5t62 -37t84.5 -10t87.5 8.5t70.5 29t50 60t17 97.5v219h136v-219q0 -112 56.5 -153.5t162.5 -41.5q97 0 148.5 46.5t51.5 123.5q0 85 -67 338z" />
    <glyph glyph-name="uniFD2B.liga" unicode="&#xfebc;&#xfeae;" horiz-adv-x="2664" 
d="M2664 170l35 -6l-6 -158l-35 -6q-215 0 -276 113q-154 -113 -447 -113h-585q-145 0 -237.5 69.5t-102.5 206.5h-437q9 -68 9 -124q0 -114 -39 -219t-109.5 -186.5t-180 -130t-241.5 -48.5q-90 0 -155 18l16 160q63 -8 139 -8q110 0 197.5 37t137.5 96t76 125.5t26 132.5
q0 92 -21 202.5t-70 315.5l134 33q33 -120 55 -234h448v230h135v-293q0 -104 43.5 -152.5t124.5 -58.5q373 705 807 705q95 0 177 -38.5t136 -102t84.5 -143.5t30.5 -163q0 -130 -57 -219q54 -41 188 -41zM1434 170h524q203 0 322.5 61t119.5 185q0 72 -36.5 137.5
t-110.5 109.5t-170 44t-190 -42t-175.5 -118t-151 -169.5t-132.5 -207.5z" />
    <glyph glyph-name="uniFD0F.liga" unicode="&#xfebb;&#xfeae;" horiz-adv-x="2646" 
d="M2105 877q95 0 177 -38.5t136 -102t84.5 -143.5t30.5 -163q0 -203 -149.5 -316.5t-448.5 -113.5h-585q-145 0 -237.5 69.5t-102.5 206.5h-437q9 -68 9 -124q0 -114 -39 -219t-109.5 -186.5t-180 -130t-241.5 -48.5q-90 0 -155 18l16 160q63 -8 139 -8q110 0 197.5 37
t137.5 96t76 125.5t26 132.5q0 92 -21 202.5t-70 315.5l134 33q33 -120 55 -234h448v230h135v-293q0 -104 43.5 -152.5t124.5 -58.5q373 705 807 705zM1434 170h524q203 0 322.5 61t119.5 185q0 72 -36.5 137.5t-110.5 109.5t-170 44t-190 -42t-175.5 -118t-151 -169.5
t-132.5 -207.5z" />
    <glyph glyph-name="uniFEBCFEB0.liga" unicode="&#xfebc;&#xfeb0;" horiz-adv-x="2664" 
d="M422 860q-42 0 -71 30t-29 71q0 40 29 70t71 30q41 0 69.5 -30t28.5 -70t-28.5 -70.5t-69.5 -30.5zM2664 170l35 -6l-6 -158l-35 -6q-215 0 -276 113q-154 -113 -447 -113h-585q-145 0 -237.5 69.5t-102.5 206.5h-437q9 -68 9 -124q0 -114 -39 -219t-109.5 -186.5
t-180 -130t-241.5 -48.5q-90 0 -155 18l16 160q63 -8 139 -8q110 0 197.5 37t137.5 96t76 125.5t26 132.5q0 92 -21 202.5t-70 315.5l134 33q33 -120 55 -234h448v230h135v-293q0 -104 43.5 -152.5t124.5 -58.5q373 705 807 705q95 0 177 -38.5t136 -102t84.5 -143.5
t30.5 -163q0 -130 -57 -219q54 -41 188 -41zM1434 170h524q203 0 322.5 61t119.5 185q0 72 -36.5 137.5t-110.5 109.5t-170 44t-190 -42t-175.5 -118t-151 -169.5t-132.5 -207.5z" />
    <glyph glyph-name="uniFEBBFEB0.liga" unicode="&#xfebb;&#xfeb0;" horiz-adv-x="2646" 
d="M422 860q-42 0 -71 30t-29 71q0 40 29 70t71 30q41 0 69.5 -30t28.5 -70t-28.5 -70.5t-69.5 -30.5zM2105 877q95 0 177 -38.5t136 -102t84.5 -143.5t30.5 -163q0 -203 -149.5 -316.5t-448.5 -113.5h-585q-145 0 -237.5 69.5t-102.5 206.5h-437q9 -68 9 -124
q0 -114 -39 -219t-109.5 -186.5t-180 -130t-241.5 -48.5q-90 0 -155 18l16 160q63 -8 139 -8q110 0 197.5 37t137.5 96t76 125.5t26 132.5q0 92 -21 202.5t-70 315.5l134 33q33 -120 55 -234h448v230h135v-293q0 -104 43.5 -152.5t124.5 -58.5q373 705 807 705zM1434 170
h524q203 0 322.5 61t119.5 185q0 72 -36.5 137.5t-110.5 109.5t-170 44t-190 -42t-175.5 -118t-151 -169.5t-132.5 -207.5z" />
    <glyph glyph-name="uniFEBCFB8B.liga" unicode="&#xfebc;&#xfb8b;" horiz-adv-x="2664" 
d="M424 1087q-38 0 -64 27t-26 64q0 38 25 64t65 26t64 -26t24 -64q0 -37 -26 -64t-62 -27zM305 862q-40 0 -65 26t-25 64t25 64t65 26t64 -26t24 -64t-24 -64t-64 -26zM453 952q0 38 25 64t65 26t64 -26t24 -64t-24 -64t-64 -26t-65 26t-25 64zM2664 170l35 -6l-6 -158
l-35 -6q-215 0 -276 113q-154 -113 -447 -113h-585q-145 0 -237.5 69.5t-102.5 206.5h-437q9 -68 9 -124q0 -114 -39 -219t-109.5 -186.5t-180 -130t-241.5 -48.5q-90 0 -155 18l16 160q63 -8 139 -8q110 0 197.5 37t137.5 96t76 125.5t26 132.5q0 92 -21 202.5t-70 315.5
l134 33q33 -120 55 -234h448v230h135v-293q0 -104 43.5 -152.5t124.5 -58.5q373 705 807 705q95 0 177 -38.5t136 -102t84.5 -143.5t30.5 -163q0 -130 -57 -219q54 -41 188 -41zM1434 170h524q203 0 322.5 61t119.5 185q0 72 -36.5 137.5t-110.5 109.5t-170 44t-190 -42
t-175.5 -118t-151 -169.5t-132.5 -207.5z" />
    <glyph glyph-name="uniFEBBFB8B.liga" unicode="&#xfebb;&#xfb8b;" horiz-adv-x="2646" 
d="M424 1087q-38 0 -64 27t-26 64q0 38 25 64t65 26t64 -26t24 -64q0 -37 -26 -64t-62 -27zM305 862q-40 0 -65 26t-25 64t25 64t65 26t64 -26t24 -64t-24 -64t-64 -26zM453 952q0 38 25 64t65 26t64 -26t24 -64t-24 -64t-64 -26t-65 26t-25 64zM2105 877q95 0 177 -38.5
t136 -102t84.5 -143.5t30.5 -163q0 -203 -149.5 -316.5t-448.5 -113.5h-585q-145 0 -237.5 69.5t-102.5 206.5h-437q9 -68 9 -124q0 -114 -39 -219t-109.5 -186.5t-180 -130t-241.5 -48.5q-90 0 -155 18l16 160q63 -8 139 -8q110 0 197.5 37t137.5 96t76 125.5t26 132.5
q0 92 -21 202.5t-70 315.5l134 33q33 -120 55 -234h448v230h135v-293q0 -104 43.5 -152.5t124.5 -58.5q373 705 807 705zM1434 170h524q203 0 322.5 61t119.5 185q0 72 -36.5 137.5t-110.5 109.5t-170 44t-190 -42t-175.5 -118t-151 -169.5t-132.5 -207.5z" />
    <glyph glyph-name="uniFD21.liga" unicode="&#xfebc;&#xfef0;" horiz-adv-x="3010" 
d="M3011 170l34 -6l-6 -158l-35 -6q-207 0 -270 102q-151 -102 -432 -102h-455q-56 0 -96.5 11.5t-70.5 31t-60.5 63.5t-53.5 89t-61 129l-18 41q-64 141 -131 203.5t-168 62.5q-117 0 -211 -75t-94 -171q0 -111 174 -149l147 -31q76 -16 125 -33.5t90 -45.5t59.5 -71
t18.5 -104q0 -62 -30.5 -124t-94.5 -119.5t-152.5 -102t-214 -71t-270.5 -26.5q-318 0 -496 160t-178 430q0 249 111 498l119 -43q-43 -101 -69.5 -220t-26.5 -206q0 -223 145.5 -336t411.5 -113q145 0 267 27t194 67.5t111.5 82t39.5 75.5q0 48 -40 70.5t-142 44.5l-178 39
q-87 19 -144 67t-78.5 102t-21.5 114q0 187 129 309.5t323 122.5q73 0 131.5 -23.5t105 -73t81.5 -107.5t74 -146l20 -46q52 -116 80 -159q356 633 768 633q95 0 177 -38.5t136 -102t84.5 -143.5t30.5 -163q0 -133 -64 -227q54 -33 175 -33zM1878 170h446q203 0 323 61
t120 185q0 72 -36.5 137.5t-111 109.5t-170.5 44t-189.5 -41.5t-175 -117.5t-150.5 -168t-132 -206q40 -4 76 -4z" />
    <glyph glyph-name="uniFD05.liga" unicode="&#xfebb;&#xfef0;" horiz-adv-x="3012" 
d="M2472 877q95 0 177 -38.5t136 -102t84.5 -143.5t30.5 -163q0 -203 -149.5 -316.5t-448.5 -113.5h-455q-56 0 -96.5 11.5t-70.5 31t-60.5 63.5t-53.5 89t-61 129l-18 41q-64 141 -131 203.5t-168 62.5q-117 0 -211 -75t-94 -171q0 -111 174 -149l147 -31q76 -16 125 -33.5
t90 -45.5t59.5 -71t18.5 -104q0 -62 -30.5 -124t-94.5 -119.5t-152.5 -102t-214 -71t-270.5 -26.5q-318 0 -496 160t-178 430q0 249 111 498l119 -43q-43 -101 -69.5 -220t-26.5 -206q0 -223 145.5 -336t411.5 -113q145 0 267 27t194 67.5t111.5 82t39.5 75.5q0 48 -40 70.5
t-142 44.5l-178 39q-87 19 -144 67t-78.5 102t-21.5 114q0 187 129 309.5t323 122.5q73 0 131.5 -23.5t105 -73t81.5 -107.5t74 -146l20 -46q52 -116 80 -159q356 633 768 633zM1878 170h446q203 0 323 61t120 185q0 72 -36.5 137.5t-111 109.5t-170.5 44t-189.5 -41.5
t-175 -117.5t-150.5 -168t-132 -206q40 -4 76 -4z" />
    <glyph glyph-name="uniFD22.liga" unicode="&#xfebc;&#xfef2;" horiz-adv-x="3010" 
d="M3011 170l34 -6l-6 -158l-35 -6q-207 0 -270 102q-151 -102 -432 -102h-455q-56 0 -96.5 11.5t-70.5 31t-60.5 63.5t-53.5 89t-61 129l-18 41q-64 141 -131 203.5t-168 62.5q-117 0 -211 -75t-94 -171q0 -111 174 -149l147 -31q76 -16 125 -33.5t90 -45.5t59.5 -71
t18.5 -104q0 -62 -30.5 -124t-94.5 -119.5t-152.5 -102t-214 -71t-270.5 -26.5q-318 0 -496 160t-178 430q0 249 111 498l119 -43q-43 -101 -69.5 -220t-26.5 -206q0 -223 145.5 -336t411.5 -113q145 0 267 27t194 67.5t111.5 82t39.5 75.5q0 48 -40 70.5t-142 44.5l-178 39
q-87 19 -144 67t-78.5 102t-21.5 114q0 187 129 309.5t323 122.5q73 0 131.5 -23.5t105 -73t81.5 -107.5t74 -146l20 -46q52 -116 80 -159q356 633 768 633q95 0 177 -38.5t136 -102t84.5 -143.5t30.5 -163q0 -133 -64 -227q54 -33 175 -33zM1878 170h446q203 0 323 61
t120 185q0 72 -36.5 137.5t-111 109.5t-170.5 44t-189.5 -41.5t-175 -117.5t-150.5 -168t-132 -206q40 -4 76 -4zM647 -649q39 0 65.5 -27.5t26.5 -66.5t-26 -67t-66 -28q-38 0 -66 28.5t-28 66.5t28 66t66 28zM905 -649q37 0 64.5 -28t27.5 -66t-27.5 -66.5t-64.5 -28.5
q-40 0 -67 28t-27 67t26.5 66.5t67.5 27.5z" />
    <glyph glyph-name="uniFD06.liga" unicode="&#xfebb;&#xfef2;" horiz-adv-x="3012" 
d="M2472 877q95 0 177 -38.5t136 -102t84.5 -143.5t30.5 -163q0 -203 -149.5 -316.5t-448.5 -113.5h-455q-56 0 -96.5 11.5t-70.5 31t-60.5 63.5t-53.5 89t-61 129l-18 41q-64 141 -131 203.5t-168 62.5q-117 0 -211 -75t-94 -171q0 -111 174 -149l147 -31q76 -16 125 -33.5
t90 -45.5t59.5 -71t18.5 -104q0 -62 -30.5 -124t-94.5 -119.5t-152.5 -102t-214 -71t-270.5 -26.5q-318 0 -496 160t-178 430q0 249 111 498l119 -43q-43 -101 -69.5 -220t-26.5 -206q0 -223 145.5 -336t411.5 -113q145 0 267 27t194 67.5t111.5 82t39.5 75.5q0 48 -40 70.5
t-142 44.5l-178 39q-87 19 -144 67t-78.5 102t-21.5 114q0 187 129 309.5t323 122.5q73 0 131.5 -23.5t105 -73t81.5 -107.5t74 -146l20 -46q52 -116 80 -159q356 633 768 633zM1878 170h446q203 0 323 61t120 185q0 72 -36.5 137.5t-111 109.5t-170.5 44t-189.5 -41.5
t-175 -117.5t-150.5 -168t-132 -206q40 -4 76 -4zM647 -649q39 0 65.5 -27.5t26.5 -66.5t-26 -67t-66 -28q-38 0 -66 28.5t-28 66.5t28 66t66 28zM905 -649q37 0 64.5 -28t27.5 -66t-27.5 -66.5t-64.5 -28.5q-40 0 -67 28t-27 67t26.5 66.5t67.5 27.5z" />
    <glyph glyph-name="uniFEBCFE8A.liga" unicode="&#xfebc;&#xfe8a;" horiz-adv-x="3010" 
d="M270 801h142v-107h-367v101h64q-33 29 -33 88q0 69 47.5 120.5t128.5 51.5q49 0 89 -24t56 -56l-51 -78q-47 41 -92 41q-36 0 -64 -20t-28 -50q0 -29 28.5 -48t79.5 -19zM3011 170l34 -6l-6 -158l-35 -6q-207 0 -270 102q-151 -102 -432 -102h-455q-56 0 -96.5 11.5
t-70.5 31t-60.5 63.5t-53.5 89t-61 129l-18 41q-64 141 -131 203.5t-168 62.5q-117 0 -211 -75t-94 -171q0 -111 174 -149l147 -31q76 -16 125 -33.5t90 -45.5t59.5 -71t18.5 -104q0 -62 -30.5 -124t-94.5 -119.5t-152.5 -102t-214 -71t-270.5 -26.5q-318 0 -496 160
t-178 430q0 249 111 498l119 -43q-43 -101 -69.5 -220t-26.5 -206q0 -223 145.5 -336t411.5 -113q145 0 267 27t194 67.5t111.5 82t39.5 75.5q0 48 -40 70.5t-142 44.5l-178 39q-87 19 -144 67t-78.5 102t-21.5 114q0 187 129 309.5t323 122.5q73 0 131.5 -23.5t105 -73
t81.5 -107.5t74 -146l20 -46q52 -116 80 -159q356 633 768 633q95 0 177 -38.5t136 -102t84.5 -143.5t30.5 -163q0 -133 -64 -227q54 -33 175 -33zM1878 170h446q203 0 323 61t120 185q0 72 -36.5 137.5t-111 109.5t-170.5 44t-189.5 -41.5t-175 -117.5t-150.5 -168
t-132 -206q40 -4 76 -4z" />
    <glyph glyph-name="uniFEBBFE8A.liga" unicode="&#xfebb;&#xfe8a;" horiz-adv-x="3012" 
d="M270 801h142v-107h-367v101h64q-33 29 -33 88q0 69 47.5 120.5t128.5 51.5q49 0 89 -24t56 -56l-51 -78q-47 41 -92 41q-36 0 -64 -20t-28 -50q0 -29 28.5 -48t79.5 -19zM2472 877q95 0 177 -38.5t136 -102t84.5 -143.5t30.5 -163q0 -203 -149.5 -316.5t-448.5 -113.5
h-455q-56 0 -96.5 11.5t-70.5 31t-60.5 63.5t-53.5 89t-61 129l-18 41q-64 141 -131 203.5t-168 62.5q-117 0 -211 -75t-94 -171q0 -111 174 -149l147 -31q76 -16 125 -33.5t90 -45.5t59.5 -71t18.5 -104q0 -62 -30.5 -124t-94.5 -119.5t-152.5 -102t-214 -71t-270.5 -26.5
q-318 0 -496 160t-178 430q0 249 111 498l119 -43q-43 -101 -69.5 -220t-26.5 -206q0 -223 145.5 -336t411.5 -113q145 0 267 27t194 67.5t111.5 82t39.5 75.5q0 48 -40 70.5t-142 44.5l-178 39q-87 19 -144 67t-78.5 102t-21.5 114q0 187 129 309.5t323 122.5
q73 0 131.5 -23.5t105 -73t81.5 -107.5t74 -146l20 -46q52 -116 80 -159q356 633 768 633zM1878 170h446q203 0 323 61t120 185q0 72 -36.5 137.5t-111 109.5t-170.5 44t-189.5 -41.5t-175 -117.5t-150.5 -168t-132 -206q40 -4 76 -4z" />
    <glyph glyph-name="uniFD2C.liga" unicode="&#xfec0;&#xfeae;" horiz-adv-x="2664" 
d="M2105 1073q-42 0 -71 30t-29 71q0 40 29 70t71 30q41 0 70 -30t29 -70t-29 -70.5t-70 -30.5zM2664 170l35 -6l-6 -158l-35 -6q-215 0 -276 113q-154 -113 -447 -113h-585q-145 0 -237.5 69.5t-102.5 206.5h-437q9 -68 9 -124q0 -114 -39 -219t-109.5 -186.5t-180 -130
t-241.5 -48.5q-90 0 -155 18l16 160q63 -8 139 -8q110 0 197.5 37t137.5 96t76 125.5t26 132.5q0 92 -21 202.5t-70 315.5l134 33q33 -120 55 -234h448v230h135v-293q0 -104 43.5 -152.5t124.5 -58.5q373 705 807 705q95 0 177 -38.5t136 -102t84.5 -143.5t30.5 -163
q0 -130 -57 -219q54 -41 188 -41zM1434 170h524q203 0 322.5 61t119.5 185q0 72 -36.5 137.5t-110.5 109.5t-170 44t-190 -42t-175.5 -118t-151 -169.5t-132.5 -207.5z" />
    <glyph glyph-name="uniFD10.liga" unicode="&#xfebf;&#xfeae;" horiz-adv-x="2646" 
d="M2105 1073q-42 0 -71 30t-29 71q0 40 29 70t71 30q41 0 70 -30t29 -70t-29 -70.5t-70 -30.5zM2105 877q95 0 177 -38.5t136 -102t84.5 -143.5t30.5 -163q0 -203 -149.5 -316.5t-448.5 -113.5h-585q-145 0 -237.5 69.5t-102.5 206.5h-437q9 -68 9 -124q0 -114 -39 -219
t-109.5 -186.5t-180 -130t-241.5 -48.5q-90 0 -155 18l16 160q63 -8 139 -8q110 0 197.5 37t137.5 96t76 125.5t26 132.5q0 92 -21 202.5t-70 315.5l134 33q33 -120 55 -234h448v230h135v-293q0 -104 43.5 -152.5t124.5 -58.5q373 705 807 705zM1434 170h524q203 0 322.5 61
t119.5 185q0 72 -36.5 137.5t-110.5 109.5t-170 44t-190 -42t-175.5 -118t-151 -169.5t-132.5 -207.5z" />
    <glyph glyph-name="uniFEC0FEB0.liga" unicode="&#xfec0;&#xfeb0;" horiz-adv-x="2664" 
d="M2105 1073q-42 0 -71 30t-29 71q0 40 29 70t71 30q41 0 70 -30t29 -70t-29 -70.5t-70 -30.5zM422 860q-42 0 -71 30t-29 71q0 40 29 70t71 30q41 0 69.5 -30t28.5 -70t-28.5 -70.5t-69.5 -30.5zM2664 170l35 -6l-6 -158l-35 -6q-215 0 -276 113q-154 -113 -447 -113h-585
q-145 0 -237.5 69.5t-102.5 206.5h-437q9 -68 9 -124q0 -114 -39 -219t-109.5 -186.5t-180 -130t-241.5 -48.5q-90 0 -155 18l16 160q63 -8 139 -8q110 0 197.5 37t137.5 96t76 125.5t26 132.5q0 92 -21 202.5t-70 315.5l134 33q33 -120 55 -234h448v230h135v-293
q0 -104 43.5 -152.5t124.5 -58.5q373 705 807 705q95 0 177 -38.5t136 -102t84.5 -143.5t30.5 -163q0 -130 -57 -219q54 -41 188 -41zM1434 170h524q203 0 322.5 61t119.5 185q0 72 -36.5 137.5t-110.5 109.5t-170 44t-190 -42t-175.5 -118t-151 -169.5t-132.5 -207.5z" />
    <glyph glyph-name="uniFEBFFEB0.liga" unicode="&#xfebf;&#xfeb0;" horiz-adv-x="2646" 
d="M2105 1073q-42 0 -71 30t-29 71q0 40 29 70t71 30q41 0 70 -30t29 -70t-29 -70.5t-70 -30.5zM422 860q-42 0 -71 30t-29 71q0 40 29 70t71 30q41 0 69.5 -30t28.5 -70t-28.5 -70.5t-69.5 -30.5zM2105 877q95 0 177 -38.5t136 -102t84.5 -143.5t30.5 -163
q0 -203 -149.5 -316.5t-448.5 -113.5h-585q-145 0 -237.5 69.5t-102.5 206.5h-437q9 -68 9 -124q0 -114 -39 -219t-109.5 -186.5t-180 -130t-241.5 -48.5q-90 0 -155 18l16 160q63 -8 139 -8q110 0 197.5 37t137.5 96t76 125.5t26 132.5q0 92 -21 202.5t-70 315.5l134 33
q33 -120 55 -234h448v230h135v-293q0 -104 43.5 -152.5t124.5 -58.5q373 705 807 705zM1434 170h524q203 0 322.5 61t119.5 185q0 72 -36.5 137.5t-110.5 109.5t-170 44t-190 -42t-175.5 -118t-151 -169.5t-132.5 -207.5z" />
    <glyph glyph-name="uniFEC0FB8B.liga" unicode="&#xfec0;&#xfb8b;" horiz-adv-x="2664" 
d="M2105 1073q-42 0 -71 30t-29 71q0 40 29 70t71 30q41 0 70 -30t29 -70t-29 -70.5t-70 -30.5zM424 1087q-38 0 -64 27t-26 64q0 38 25 64t65 26t64 -26t24 -64q0 -37 -26 -64t-62 -27zM305 862q-40 0 -65 26t-25 64t25 64t65 26t64 -26t24 -64t-24 -64t-64 -26zM453 952
q0 38 25 64t65 26t64 -26t24 -64t-24 -64t-64 -26t-65 26t-25 64zM2664 170l35 -6l-6 -158l-35 -6q-215 0 -276 113q-154 -113 -447 -113h-585q-145 0 -237.5 69.5t-102.5 206.5h-437q9 -68 9 -124q0 -114 -39 -219t-109.5 -186.5t-180 -130t-241.5 -48.5q-90 0 -155 18
l16 160q63 -8 139 -8q110 0 197.5 37t137.5 96t76 125.5t26 132.5q0 92 -21 202.5t-70 315.5l134 33q33 -120 55 -234h448v230h135v-293q0 -104 43.5 -152.5t124.5 -58.5q373 705 807 705q95 0 177 -38.5t136 -102t84.5 -143.5t30.5 -163q0 -130 -57 -219q54 -41 188 -41z
M1434 170h524q203 0 322.5 61t119.5 185q0 72 -36.5 137.5t-110.5 109.5t-170 44t-190 -42t-175.5 -118t-151 -169.5t-132.5 -207.5z" />
    <glyph glyph-name="uniFEBFFB8B.liga" unicode="&#xfebf;&#xfb8b;" horiz-adv-x="2646" 
d="M2105 1073q-42 0 -71 30t-29 71q0 40 29 70t71 30q41 0 70 -30t29 -70t-29 -70.5t-70 -30.5zM424 1087q-38 0 -64 27t-26 64q0 38 25 64t65 26t64 -26t24 -64q0 -37 -26 -64t-62 -27zM305 862q-40 0 -65 26t-25 64t25 64t65 26t64 -26t24 -64t-24 -64t-64 -26zM453 952
q0 38 25 64t65 26t64 -26t24 -64t-24 -64t-64 -26t-65 26t-25 64zM2105 877q95 0 177 -38.5t136 -102t84.5 -143.5t30.5 -163q0 -203 -149.5 -316.5t-448.5 -113.5h-585q-145 0 -237.5 69.5t-102.5 206.5h-437q9 -68 9 -124q0 -114 -39 -219t-109.5 -186.5t-180 -130
t-241.5 -48.5q-90 0 -155 18l16 160q63 -8 139 -8q110 0 197.5 37t137.5 96t76 125.5t26 132.5q0 92 -21 202.5t-70 315.5l134 33q33 -120 55 -234h448v230h135v-293q0 -104 43.5 -152.5t124.5 -58.5q373 705 807 705zM1434 170h524q203 0 322.5 61t119.5 185
q0 72 -36.5 137.5t-110.5 109.5t-170 44t-190 -42t-175.5 -118t-151 -169.5t-132.5 -207.5z" />
    <glyph glyph-name="uniFD23.liga" unicode="&#xfec0;&#xfef0;" horiz-adv-x="3010" 
d="M2472 1073q-42 0 -71 30t-29 71q0 40 29 70t71 30q41 0 69.5 -30t28.5 -70t-28.5 -70.5t-69.5 -30.5zM3011 170l34 -6l-6 -158l-35 -6q-207 0 -270 102q-151 -102 -432 -102h-455q-56 0 -96.5 11.5t-70.5 31t-60.5 63.5t-53.5 89t-61 129l-18 41q-64 141 -131 203.5
t-168 62.5q-117 0 -211 -75t-94 -171q0 -111 174 -149l147 -31q76 -16 125 -33.5t90 -45.5t59.5 -71t18.5 -104q0 -62 -30.5 -124t-94.5 -119.5t-152.5 -102t-214 -71t-270.5 -26.5q-318 0 -496 160t-178 430q0 249 111 498l119 -43q-43 -101 -69.5 -220t-26.5 -206
q0 -223 145.5 -336t411.5 -113q145 0 267 27t194 67.5t111.5 82t39.5 75.5q0 48 -40 70.5t-142 44.5l-178 39q-87 19 -144 67t-78.5 102t-21.5 114q0 187 129 309.5t323 122.5q73 0 131.5 -23.5t105 -73t81.5 -107.5t74 -146l20 -46q52 -116 80 -159q356 633 768 633
q95 0 177 -38.5t136 -102t84.5 -143.5t30.5 -163q0 -133 -64 -227q54 -33 175 -33zM1878 170h446q203 0 323 61t120 185q0 72 -36.5 137.5t-111 109.5t-170.5 44t-189.5 -41.5t-175 -117.5t-150.5 -168t-132 -206q40 -4 76 -4z" />
    <glyph glyph-name="uniFD07.liga" unicode="&#xfebf;&#xfef0;" horiz-adv-x="3012" 
d="M2472 1073q-42 0 -71 30t-29 71q0 40 29 70t71 30q41 0 69.5 -30t28.5 -70t-28.5 -70.5t-69.5 -30.5zM2472 877q95 0 177 -38.5t136 -102t84.5 -143.5t30.5 -163q0 -203 -149.5 -316.5t-448.5 -113.5h-455q-56 0 -96.5 11.5t-70.5 31t-60.5 63.5t-53.5 89t-61 129l-18 41
q-64 141 -131 203.5t-168 62.5q-117 0 -211 -75t-94 -171q0 -111 174 -149l147 -31q76 -16 125 -33.5t90 -45.5t59.5 -71t18.5 -104q0 -62 -30.5 -124t-94.5 -119.5t-152.5 -102t-214 -71t-270.5 -26.5q-318 0 -496 160t-178 430q0 249 111 498l119 -43q-43 -101 -69.5 -220
t-26.5 -206q0 -223 145.5 -336t411.5 -113q145 0 267 27t194 67.5t111.5 82t39.5 75.5q0 48 -40 70.5t-142 44.5l-178 39q-87 19 -144 67t-78.5 102t-21.5 114q0 187 129 309.5t323 122.5q73 0 131.5 -23.5t105 -73t81.5 -107.5t74 -146l20 -46q52 -116 80 -159
q356 633 768 633zM1878 170h446q203 0 323 61t120 185q0 72 -36.5 137.5t-111 109.5t-170.5 44t-189.5 -41.5t-175 -117.5t-150.5 -168t-132 -206q40 -4 76 -4z" />
    <glyph glyph-name="uniFD24.liga" unicode="&#xfec0;&#xfef2;" horiz-adv-x="3010" 
d="M2472 1073q-42 0 -71 30t-29 71q0 40 29 70t71 30q41 0 69.5 -30t28.5 -70t-28.5 -70.5t-69.5 -30.5zM3011 170l34 -6l-6 -158l-35 -6q-207 0 -270 102q-151 -102 -432 -102h-455q-56 0 -96.5 11.5t-70.5 31t-60.5 63.5t-53.5 89t-61 129l-18 41q-64 141 -131 203.5
t-168 62.5q-117 0 -211 -75t-94 -171q0 -111 174 -149l147 -31q76 -16 125 -33.5t90 -45.5t59.5 -71t18.5 -104q0 -62 -30.5 -124t-94.5 -119.5t-152.5 -102t-214 -71t-270.5 -26.5q-318 0 -496 160t-178 430q0 249 111 498l119 -43q-43 -101 -69.5 -220t-26.5 -206
q0 -223 145.5 -336t411.5 -113q145 0 267 27t194 67.5t111.5 82t39.5 75.5q0 48 -40 70.5t-142 44.5l-178 39q-87 19 -144 67t-78.5 102t-21.5 114q0 187 129 309.5t323 122.5q73 0 131.5 -23.5t105 -73t81.5 -107.5t74 -146l20 -46q52 -116 80 -159q356 633 768 633
q95 0 177 -38.5t136 -102t84.5 -143.5t30.5 -163q0 -133 -64 -227q54 -33 175 -33zM1878 170h446q203 0 323 61t120 185q0 72 -36.5 137.5t-111 109.5t-170.5 44t-189.5 -41.5t-175 -117.5t-150.5 -168t-132 -206q40 -4 76 -4zM647 -649q39 0 65.5 -27.5t26.5 -66.5t-26 -67
t-66 -28q-38 0 -66 28.5t-28 66.5t28 66t66 28zM905 -649q37 0 64.5 -28t27.5 -66t-27.5 -66.5t-64.5 -28.5q-40 0 -67 28t-27 67t26.5 66.5t67.5 27.5z" />
    <glyph glyph-name="uniFD08.liga" unicode="&#xfebf;&#xfef2;" horiz-adv-x="3012" 
d="M2472 1073q-42 0 -71 30t-29 71q0 40 29 70t71 30q41 0 69.5 -30t28.5 -70t-28.5 -70.5t-69.5 -30.5zM2472 877q95 0 177 -38.5t136 -102t84.5 -143.5t30.5 -163q0 -203 -149.5 -316.5t-448.5 -113.5h-455q-56 0 -96.5 11.5t-70.5 31t-60.5 63.5t-53.5 89t-61 129l-18 41
q-64 141 -131 203.5t-168 62.5q-117 0 -211 -75t-94 -171q0 -111 174 -149l147 -31q76 -16 125 -33.5t90 -45.5t59.5 -71t18.5 -104q0 -62 -30.5 -124t-94.5 -119.5t-152.5 -102t-214 -71t-270.5 -26.5q-318 0 -496 160t-178 430q0 249 111 498l119 -43q-43 -101 -69.5 -220
t-26.5 -206q0 -223 145.5 -336t411.5 -113q145 0 267 27t194 67.5t111.5 82t39.5 75.5q0 48 -40 70.5t-142 44.5l-178 39q-87 19 -144 67t-78.5 102t-21.5 114q0 187 129 309.5t323 122.5q73 0 131.5 -23.5t105 -73t81.5 -107.5t74 -146l20 -46q52 -116 80 -159
q356 633 768 633zM1878 170h446q203 0 323 61t120 185q0 72 -36.5 137.5t-111 109.5t-170.5 44t-189.5 -41.5t-175 -117.5t-150.5 -168t-132 -206q40 -4 76 -4zM647 -649q39 0 65.5 -27.5t26.5 -66.5t-26 -67t-66 -28q-38 0 -66 28.5t-28 66.5t28 66t66 28zM905 -649
q37 0 64.5 -28t27.5 -66t-27.5 -66.5t-64.5 -28.5q-40 0 -67 28t-27 67t26.5 66.5t67.5 27.5z" />
    <glyph glyph-name="uniFEC0FE8A.liga" unicode="&#xfec0;&#xfe8a;" horiz-adv-x="3010" 
d="M2472 1073q-42 0 -71 30t-29 71q0 40 29 70t71 30q41 0 69.5 -30t28.5 -70t-28.5 -70.5t-69.5 -30.5zM270 801h142v-107h-367v101h64q-33 29 -33 88q0 69 47.5 120.5t128.5 51.5q49 0 89 -24t56 -56l-51 -78q-47 41 -92 41q-36 0 -64 -20t-28 -50q0 -29 28.5 -48
t79.5 -19zM3011 170l34 -6l-6 -158l-35 -6q-207 0 -270 102q-151 -102 -432 -102h-455q-56 0 -96.5 11.5t-70.5 31t-60.5 63.5t-53.5 89t-61 129l-18 41q-64 141 -131 203.5t-168 62.5q-117 0 -211 -75t-94 -171q0 -111 174 -149l147 -31q76 -16 125 -33.5t90 -45.5
t59.5 -71t18.5 -104q0 -62 -30.5 -124t-94.5 -119.5t-152.5 -102t-214 -71t-270.5 -26.5q-318 0 -496 160t-178 430q0 249 111 498l119 -43q-43 -101 -69.5 -220t-26.5 -206q0 -223 145.5 -336t411.5 -113q145 0 267 27t194 67.5t111.5 82t39.5 75.5q0 48 -40 70.5
t-142 44.5l-178 39q-87 19 -144 67t-78.5 102t-21.5 114q0 187 129 309.5t323 122.5q73 0 131.5 -23.5t105 -73t81.5 -107.5t74 -146l20 -46q52 -116 80 -159q356 633 768 633q95 0 177 -38.5t136 -102t84.5 -143.5t30.5 -163q0 -133 -64 -227q54 -33 175 -33zM1878 170h446
q203 0 323 61t120 185q0 72 -36.5 137.5t-111 109.5t-170.5 44t-189.5 -41.5t-175 -117.5t-150.5 -168t-132 -206q40 -4 76 -4z" />
    <glyph glyph-name="uniFEBFFE8A.liga" unicode="&#xfebf;&#xfe8a;" horiz-adv-x="3012" 
d="M2472 1073q-42 0 -71 30t-29 71q0 40 29 70t71 30q41 0 69.5 -30t28.5 -70t-28.5 -70.5t-69.5 -30.5zM270 801h142v-107h-367v101h64q-33 29 -33 88q0 69 47.5 120.5t128.5 51.5q49 0 89 -24t56 -56l-51 -78q-47 41 -92 41q-36 0 -64 -20t-28 -50q0 -29 28.5 -48
t79.5 -19zM2472 877q95 0 177 -38.5t136 -102t84.5 -143.5t30.5 -163q0 -203 -149.5 -316.5t-448.5 -113.5h-455q-56 0 -96.5 11.5t-70.5 31t-60.5 63.5t-53.5 89t-61 129l-18 41q-64 141 -131 203.5t-168 62.5q-117 0 -211 -75t-94 -171q0 -111 174 -149l147 -31
q76 -16 125 -33.5t90 -45.5t59.5 -71t18.5 -104q0 -62 -30.5 -124t-94.5 -119.5t-152.5 -102t-214 -71t-270.5 -26.5q-318 0 -496 160t-178 430q0 249 111 498l119 -43q-43 -101 -69.5 -220t-26.5 -206q0 -223 145.5 -336t411.5 -113q145 0 267 27t194 67.5t111.5 82
t39.5 75.5q0 48 -40 70.5t-142 44.5l-178 39q-87 19 -144 67t-78.5 102t-21.5 114q0 187 129 309.5t323 122.5q73 0 131.5 -23.5t105 -73t81.5 -107.5t74 -146l20 -46q52 -116 80 -159q356 633 768 633zM1878 170h446q203 0 323 61t120 185q0 72 -36.5 137.5t-111 109.5
t-170.5 44t-189.5 -41.5t-175 -117.5t-150.5 -168t-132 -206q40 -4 76 -4z" />
    <glyph glyph-name="uniFC31.liga" unicode="&#xfed3;&#xfef0;" 
d="M1001 1372q-42 0 -71 30t-29 71q0 40 29 70t71 30q41 0 70 -30t29 -70t-29 -70.5t-70 -30.5zM1249 238q76 -21 123 -84.5t47 -161.5q0 -87 -45 -171t-131 -155t-229 -114.5t-320 -43.5q-298 0 -465.5 155.5t-167.5 416.5q0 239 111 498l119 -43q-45 -100 -70.5 -214.5
t-25.5 -203.5q0 -214 136 -326.5t384 -112.5q117 0 215 19.5t162 50t109 69.5t65 77.5t20 74.5q0 65 -53 99t-176 34h-215v164h272q58 61 93.5 142.5t35.5 166.5v3q-80 -156 -301 -156q-162 0 -250 91t-88 235q0 185 108.5 306.5t288.5 121.5q118 0 205 -68t130.5 -183.5
t43.5 -262.5q0 -258 -131 -424zM963 592q101 0 171.5 33.5t108.5 85.5q-1 38 -15 84t-42.5 95.5t-82.5 82.5t-124 33q-114 0 -178 -69t-64 -157q0 -89 61 -138.5t165 -49.5z" />
    <glyph glyph-name="uniFC32.liga" unicode="&#xfed3;&#xfef2;" 
d="M1001 1372q-42 0 -71 30t-29 71q0 40 29 70t71 30q41 0 70 -30t29 -70t-29 -70.5t-70 -30.5zM1249 238q76 -21 123 -84.5t47 -161.5q0 -87 -45 -171t-131 -155t-229 -114.5t-320 -43.5q-298 0 -465.5 155.5t-167.5 416.5q0 239 111 498l119 -43q-45 -100 -70.5 -214.5
t-25.5 -203.5q0 -214 136 -326.5t384 -112.5q117 0 215 19.5t162 50t109 69.5t65 77.5t20 74.5q0 65 -53 99t-176 34h-215v164h272q58 61 93.5 142.5t35.5 166.5v3q-80 -156 -301 -156q-162 0 -250 91t-88 235q0 185 108.5 306.5t288.5 121.5q118 0 205 -68t130.5 -183.5
t43.5 -262.5q0 -258 -131 -424zM963 592q101 0 171.5 33.5t108.5 85.5q-1 38 -15 84t-42.5 95.5t-82.5 82.5t-124 33q-114 0 -178 -69t-64 -157q0 -89 61 -138.5t165 -49.5zM606 -649q39 0 65.5 -27.5t26.5 -66.5t-26 -67t-66 -28q-38 0 -66 28.5t-28 66.5t28 66t66 28z
M864 -649q37 0 64.5 -28t27.5 -66t-27.5 -66.5t-64.5 -28.5q-40 0 -67 28t-27 67t26.5 66.5t67.5 27.5z" />
    <glyph glyph-name="uniFED3FE8A.liga" unicode="&#xfed3;&#xfe8a;" 
d="M1001 1372q-42 0 -71 30t-29 71q0 40 29 70t71 30q41 0 70 -30t29 -70t-29 -70.5t-70 -30.5zM1249 238q76 -21 123 -84.5t47 -161.5q0 -87 -45 -171t-131 -155t-229 -114.5t-320 -43.5q-298 0 -465.5 155.5t-167.5 416.5q0 239 111 498l119 -43q-45 -100 -70.5 -214.5
t-25.5 -203.5q0 -214 136 -326.5t384 -112.5q117 0 215 19.5t162 50t109 69.5t65 77.5t20 74.5q0 65 -53 99t-176 34h-215v164h272q58 61 93.5 142.5t35.5 166.5v3q-80 -156 -301 -156q-162 0 -250 91t-88 235q0 185 108.5 306.5t288.5 121.5q118 0 205 -68t130.5 -183.5
t43.5 -262.5q0 -258 -131 -424zM272 782h142v-106h-367v100h64q-33 29 -33 88q0 69 47.5 120.5t128.5 51.5q49 0 89 -24t56 -56l-51 -77q-47 41 -92 41q-36 0 -64 -20t-28 -50q0 -29 28.5 -48.5t79.5 -19.5zM963 592q101 0 171.5 33.5t108.5 85.5q-1 38 -15 84t-42.5 95.5
t-82.5 82.5t-124 33q-114 0 -178 -69t-64 -157q0 -89 61 -138.5t165 -49.5z" />
    <glyph glyph-name="uniFB6CFEF0.liga" unicode="&#xfb6c;&#xfef0;" 
d="M1004 1599q-38 0 -64.5 27t-26.5 64q0 38 25.5 64t65.5 26t64 -26t24 -64q0 -37 -26 -64t-62 -27zM885 1374q-40 0 -65 26t-25 64t25 64t65 26t64 -26t24 -64t-24 -64t-64 -26zM1032 1464q0 38 25 64t65 26t64 -26t24 -64t-24 -64t-64 -26t-65 26t-25 64zM1249 238
q76 -21 123 -84.5t47 -161.5q0 -87 -45 -171t-131 -155t-229 -114.5t-320 -43.5q-298 0 -465.5 155.5t-167.5 416.5q0 239 111 498l119 -43q-45 -100 -70.5 -214.5t-25.5 -203.5q0 -214 136 -326.5t384 -112.5q117 0 215 19.5t162 50t109 69.5t65 77.5t20 74.5q0 65 -53 99
t-176 34h-215v164h272q58 61 93.5 142.5t35.5 166.5v3q-80 -156 -301 -156q-162 0 -250 91t-88 235q0 185 108.5 306.5t288.5 121.5q118 0 205 -68t130.5 -183.5t43.5 -262.5q0 -258 -131 -424zM963 592q101 0 171.5 33.5t108.5 85.5q-1 38 -15 84t-42.5 95.5t-82.5 82.5
t-124 33q-114 0 -178 -69t-64 -157q0 -89 61 -138.5t165 -49.5z" />
    <glyph glyph-name="uniFB6CFEF2.liga" unicode="&#xfb6c;&#xfef2;" 
d="M1004 1599q-38 0 -64.5 27t-26.5 64q0 38 25.5 64t65.5 26t64 -26t24 -64q0 -37 -26 -64t-62 -27zM885 1374q-40 0 -65 26t-25 64t25 64t65 26t64 -26t24 -64t-24 -64t-64 -26zM1032 1464q0 38 25 64t65 26t64 -26t24 -64t-24 -64t-64 -26t-65 26t-25 64zM1249 238
q76 -21 123 -84.5t47 -161.5q0 -87 -45 -171t-131 -155t-229 -114.5t-320 -43.5q-298 0 -465.5 155.5t-167.5 416.5q0 239 111 498l119 -43q-45 -100 -70.5 -214.5t-25.5 -203.5q0 -214 136 -326.5t384 -112.5q117 0 215 19.5t162 50t109 69.5t65 77.5t20 74.5q0 65 -53 99
t-176 34h-215v164h272q58 61 93.5 142.5t35.5 166.5v3q-80 -156 -301 -156q-162 0 -250 91t-88 235q0 185 108.5 306.5t288.5 121.5q118 0 205 -68t130.5 -183.5t43.5 -262.5q0 -258 -131 -424zM963 592q101 0 171.5 33.5t108.5 85.5q-1 38 -15 84t-42.5 95.5t-82.5 82.5
t-124 33q-114 0 -178 -69t-64 -157q0 -89 61 -138.5t165 -49.5zM606 -649q39 0 65.5 -27.5t26.5 -66.5t-26 -67t-66 -28q-38 0 -66 28.5t-28 66.5t28 66t66 28zM864 -649q37 0 64.5 -28t27.5 -66t-27.5 -66.5t-64.5 -28.5q-40 0 -67 28t-27 67t26.5 66.5t67.5 27.5z" />
    <glyph glyph-name="uniFB6CFE8A.liga" unicode="&#xfb6c;&#xfe8a;" 
d="M1004 1599q-38 0 -64.5 27t-26.5 64q0 38 25.5 64t65.5 26t64 -26t24 -64q0 -37 -26 -64t-62 -27zM885 1374q-40 0 -65 26t-25 64t25 64t65 26t64 -26t24 -64t-24 -64t-64 -26zM1032 1464q0 38 25 64t65 26t64 -26t24 -64t-24 -64t-64 -26t-65 26t-25 64zM1249 238
q76 -21 123 -84.5t47 -161.5q0 -87 -45 -171t-131 -155t-229 -114.5t-320 -43.5q-298 0 -465.5 155.5t-167.5 416.5q0 239 111 498l119 -43q-45 -100 -70.5 -214.5t-25.5 -203.5q0 -214 136 -326.5t384 -112.5q117 0 215 19.5t162 50t109 69.5t65 77.5t20 74.5q0 65 -53 99
t-176 34h-215v164h272q58 61 93.5 142.5t35.5 166.5v3q-80 -156 -301 -156q-162 0 -250 91t-88 235q0 185 108.5 306.5t288.5 121.5q118 0 205 -68t130.5 -183.5t43.5 -262.5q0 -258 -131 -424zM272 782h142v-106h-367v100h64q-33 29 -33 88q0 69 47.5 120.5t128.5 51.5
q49 0 89 -24t56 -56l-51 -77q-47 41 -92 41q-36 0 -64 -20t-28 -50q0 -29 28.5 -48.5t79.5 -19.5zM963 592q101 0 171.5 33.5t108.5 85.5q-1 38 -15 84t-42.5 95.5t-82.5 82.5t-124 33q-114 0 -178 -69t-64 -157q0 -89 61 -138.5t165 -49.5z" />
    <glyph glyph-name="uniFC35.liga" unicode="&#xfed7;&#xfef0;" 
d="M872 1366q-38 0 -66 28t-28 66t28 66t66 28q39 0 66 -27.5t27 -66.5t-26.5 -66.5t-66.5 -27.5zM1130 1366q-41 0 -67.5 27.5t-26.5 66.5t26.5 66.5t67.5 27.5q37 0 65 -28t28 -66t-28 -66t-65 -28zM1249 238q76 -21 123 -84.5t47 -161.5q0 -87 -45 -171t-131 -155
t-229 -114.5t-320 -43.5q-298 0 -465.5 155.5t-167.5 416.5q0 239 111 498l119 -43q-45 -100 -70.5 -214.5t-25.5 -203.5q0 -214 136 -326.5t384 -112.5q117 0 215 19.5t162 50t109 69.5t65 77.5t20 74.5q0 65 -53 99t-176 34h-215v164h272q58 61 93.5 142.5t35.5 166.5v3
q-80 -156 -301 -156q-162 0 -250 91t-88 235q0 185 108.5 306.5t288.5 121.5q118 0 205 -68t130.5 -183.5t43.5 -262.5q0 -258 -131 -424zM963 592q101 0 171.5 33.5t108.5 85.5q-1 38 -15 84t-42.5 95.5t-82.5 82.5t-124 33q-114 0 -178 -69t-64 -157q0 -89 61 -138.5
t165 -49.5z" />
    <glyph glyph-name="uniFC36.liga" unicode="&#xfed7;&#xfef2;" 
d="M872 1366q-38 0 -66 28t-28 66t28 66t66 28q39 0 66 -27.5t27 -66.5t-26.5 -66.5t-66.5 -27.5zM1130 1366q-41 0 -67.5 27.5t-26.5 66.5t26.5 66.5t67.5 27.5q37 0 65 -28t28 -66t-28 -66t-65 -28zM1249 238q76 -21 123 -84.5t47 -161.5q0 -87 -45 -171t-131 -155
t-229 -114.5t-320 -43.5q-298 0 -465.5 155.5t-167.5 416.5q0 239 111 498l119 -43q-45 -100 -70.5 -214.5t-25.5 -203.5q0 -214 136 -326.5t384 -112.5q117 0 215 19.5t162 50t109 69.5t65 77.5t20 74.5q0 65 -53 99t-176 34h-215v164h272q58 61 93.5 142.5t35.5 166.5v3
q-80 -156 -301 -156q-162 0 -250 91t-88 235q0 185 108.5 306.5t288.5 121.5q118 0 205 -68t130.5 -183.5t43.5 -262.5q0 -258 -131 -424zM963 592q101 0 171.5 33.5t108.5 85.5q-1 38 -15 84t-42.5 95.5t-82.5 82.5t-124 33q-114 0 -178 -69t-64 -157q0 -89 61 -138.5
t165 -49.5zM606 -649q39 0 65.5 -27.5t26.5 -66.5t-26 -67t-66 -28q-38 0 -66 28.5t-28 66.5t28 66t66 28zM864 -649q37 0 64.5 -28t27.5 -66t-27.5 -66.5t-64.5 -28.5q-40 0 -67 28t-27 67t26.5 66.5t67.5 27.5z" />
    <glyph glyph-name="uniFED7FE8A.liga" unicode="&#xfed7;&#xfe8a;" 
d="M872 1366q-38 0 -66 28t-28 66t28 66t66 28q39 0 66 -27.5t27 -66.5t-26.5 -66.5t-66.5 -27.5zM1130 1366q-41 0 -67.5 27.5t-26.5 66.5t26.5 66.5t67.5 27.5q37 0 65 -28t28 -66t-28 -66t-65 -28zM1249 238q76 -21 123 -84.5t47 -161.5q0 -87 -45 -171t-131 -155
t-229 -114.5t-320 -43.5q-298 0 -465.5 155.5t-167.5 416.5q0 239 111 498l119 -43q-45 -100 -70.5 -214.5t-25.5 -203.5q0 -214 136 -326.5t384 -112.5q117 0 215 19.5t162 50t109 69.5t65 77.5t20 74.5q0 65 -53 99t-176 34h-215v164h272q58 61 93.5 142.5t35.5 166.5v3
q-80 -156 -301 -156q-162 0 -250 91t-88 235q0 185 108.5 306.5t288.5 121.5q118 0 205 -68t130.5 -183.5t43.5 -262.5q0 -258 -131 -424zM272 782h142v-106h-367v100h64q-33 29 -33 88q0 69 47.5 120.5t128.5 51.5q49 0 89 -24t56 -56l-51 -77q-47 41 -92 41q-36 0 -64 -20
t-28 -50q0 -29 28.5 -48.5t79.5 -19.5zM963 592q101 0 171.5 33.5t108.5 85.5q-1 38 -15 84t-42.5 95.5t-82.5 82.5t-124 33q-114 0 -178 -69t-64 -157q0 -89 61 -138.5t165 -49.5z" />
    <glyph glyph-name="uniFC83.liga" unicode="&#xfedc;&#xfef0;" horiz-adv-x="2158" 
d="M2159 170l34 -6l-6 -158l-35 -6h-16q-70 0 -127 13t-102 34t-97.5 66t-95 89t-112.5 124q-42 -152 -220 -205q37 -49 37 -129q0 -87 -45 -171t-131 -155t-229 -114.5t-320 -43.5q-298 0 -465.5 155.5t-167.5 416.5q0 239 111 498l119 -43q-44 -99 -69 -217t-25 -209
q0 -214 134.5 -322.5t383.5 -108.5q117 0 215 19.5t162 50t109 69.5t65 77.5t20 74.5q0 57 -52.5 86t-176.5 29h-195v164h262q195 0 277 38t106 130l-344 403v154l842 479l61 -141l-761 -424l417 -475q36 -41 51.5 -58t45.5 -48t46.5 -43.5t44.5 -32.5t51 -27.5t54.5 -17
t66.5 -12.5t77 -3z" />
    <glyph glyph-name="uniFC3D.liga" unicode="&#xfedb;&#xfef0;" horiz-adv-x="1671" 
d="M1438 381q0 -128 -90 -209q71 -63 71 -180q0 -87 -45 -171t-131 -155t-229 -114.5t-320 -43.5q-298 0 -465.5 155.5t-167.5 416.5q0 239 111 498l119 -43q-44 -99 -69 -217t-25 -209q0 -214 134.5 -322.5t383.5 -108.5q117 0 215 19.5t162 50t109 69.5t65 77.5t20 74.5
q0 55 -39.5 84t-132.5 29h-272v164h409q64 48 64 106q0 37 -20 73t-50.5 67t-91.5 73t-117 76.5t-153 92.5q-48 29 -74 44v180l776 474l62 -138l-695 -413q15 -9 45 -28q51 -32 77 -48t71.5 -46t69.5 -48.5t60.5 -48t56 -51t43 -51.5t35 -56.5t20 -58.5t8.5 -64z" />
    <glyph glyph-name="uniFC84.liga" unicode="&#xfedc;&#xfef2;" horiz-adv-x="2158" 
d="M2159 170l34 -6l-6 -158l-35 -6h-16q-70 0 -127 13t-102 34t-97.5 66t-95 89t-112.5 124q-42 -152 -220 -205q37 -49 37 -129q0 -87 -45 -171t-131 -155t-229 -114.5t-320 -43.5q-298 0 -465.5 155.5t-167.5 416.5q0 239 111 498l119 -43q-44 -99 -69 -217t-25 -209
q0 -214 134.5 -322.5t383.5 -108.5q117 0 215 19.5t162 50t109 69.5t65 77.5t20 74.5q0 57 -52.5 86t-176.5 29h-195v164h262q195 0 277 38t106 130l-344 403v154l842 479l61 -141l-761 -424l417 -475q36 -41 51.5 -58t45.5 -48t46.5 -43.5t44.5 -32.5t51 -27.5t54.5 -17
t66.5 -12.5t77 -3zM606 -649q39 0 65.5 -27.5t26.5 -66.5t-26 -67t-66 -28q-38 0 -66 28.5t-28 66.5t28 66t66 28zM864 -649q37 0 64.5 -28t27.5 -66t-27.5 -66.5t-64.5 -28.5q-40 0 -67 28t-27 67t26.5 66.5t67.5 27.5z" />
    <glyph glyph-name="uniFC3E.liga" unicode="&#xfedb;&#xfef2;" horiz-adv-x="1671" 
d="M1438 381q0 -128 -90 -209q71 -63 71 -180q0 -87 -45 -171t-131 -155t-229 -114.5t-320 -43.5q-298 0 -465.5 155.5t-167.5 416.5q0 239 111 498l119 -43q-44 -99 -69 -217t-25 -209q0 -214 134.5 -322.5t383.5 -108.5q117 0 215 19.5t162 50t109 69.5t65 77.5t20 74.5
q0 55 -39.5 84t-132.5 29h-272v164h409q64 48 64 106q0 37 -20 73t-50.5 67t-91.5 73t-117 76.5t-153 92.5q-48 29 -74 44v180l776 474l62 -138l-695 -413q15 -9 45 -28q51 -32 77 -48t71.5 -46t69.5 -48.5t60.5 -48t56 -51t43 -51.5t35 -56.5t20 -58.5t8.5 -64zM606 -649
q39 0 65.5 -27.5t26.5 -66.5t-26 -67t-66 -28q-38 0 -66 28.5t-28 66.5t28 66t66 28zM864 -649q37 0 64.5 -28t27.5 -66t-27.5 -66.5t-64.5 -28.5q-40 0 -67 28t-27 67t26.5 66.5t67.5 27.5z" />
    <glyph glyph-name="uniFEDCFE8A.liga" unicode="&#xfedc;&#xfe8a;" horiz-adv-x="2158" 
d="M2159 170l34 -6l-6 -158l-35 -6h-16q-70 0 -127 13t-102 34t-97.5 66t-95 89t-112.5 124q-42 -152 -220 -205q37 -49 37 -129q0 -87 -45 -171t-131 -155t-229 -114.5t-320 -43.5q-298 0 -465.5 155.5t-167.5 416.5q0 239 111 498l119 -43q-44 -99 -69 -217t-25 -209
q0 -214 134.5 -322.5t383.5 -108.5q117 0 215 19.5t162 50t109 69.5t65 77.5t20 74.5q0 57 -52.5 86t-176.5 29h-195v164h262q195 0 277 38t106 130l-344 403v154l842 479l61 -141l-761 -424l417 -475q36 -41 51.5 -58t45.5 -48t46.5 -43.5t44.5 -32.5t51 -27.5t54.5 -17
t66.5 -12.5t77 -3zM274 782h142v-106h-367v100h64q-33 29 -33 88q0 69 47.5 120.5t128.5 51.5q49 0 89 -24t56 -56l-51 -77q-47 41 -92 41q-36 0 -64 -20t-28 -50q0 -29 28.5 -48.5t79.5 -19.5z" />
    <glyph glyph-name="uniFEDBFE8A.liga" unicode="&#xfedb;&#xfe8a;" horiz-adv-x="1671" 
d="M1438 381q0 -128 -90 -209q71 -63 71 -180q0 -87 -45 -171t-131 -155t-229 -114.5t-320 -43.5q-298 0 -465.5 155.5t-167.5 416.5q0 239 111 498l119 -43q-44 -99 -69 -217t-25 -209q0 -214 134.5 -322.5t383.5 -108.5q117 0 215 19.5t162 50t109 69.5t65 77.5t20 74.5
q0 55 -39.5 84t-132.5 29h-272v164h409q64 48 64 106q0 37 -20 73t-50.5 67t-91.5 73t-117 76.5t-153 92.5q-48 29 -74 44v180l776 474l62 -138l-695 -413q15 -9 45 -28q51 -32 77 -48t71.5 -46t69.5 -48.5t60.5 -48t56 -51t43 -51.5t35 -56.5t20 -58.5t8.5 -64zM274 782
h142v-106h-367v100h64q-33 29 -33 88q0 69 47.5 120.5t128.5 51.5q49 0 89 -24t56 -56l-51 -77q-47 41 -92 41q-36 0 -64 -20t-28 -50q0 -29 28.5 -48.5t79.5 -19.5z" />
    <glyph glyph-name="uniFB91FEF2.liga" unicode="&#xfb91;&#xfef2;" horiz-adv-x="2158" 
d="M2159 170l34 -6l-6 -158l-35 -6h-16q-70 0 -127 13t-102 34t-97.5 66t-95 89t-112.5 124q-42 -152 -220 -205q37 -49 37 -129q0 -87 -45 -171t-131 -155t-229 -114.5t-320 -43.5q-298 0 -465.5 155.5t-167.5 416.5q0 239 111 498l119 -43q-44 -99 -69 -217t-25 -209
q0 -214 134.5 -322.5t383.5 -108.5q117 0 215 19.5t162 50t109 69.5t65 77.5t20 74.5q0 57 -52.5 86t-176.5 29h-195v164h262q195 0 277 38t106 130l-344 403v154l842 479l61 -141l-761 -424l417 -475q36 -41 51.5 -58t45.5 -48t46.5 -43.5t44.5 -32.5t51 -27.5t54.5 -17
t66.5 -12.5t77 -3z" />
    <glyph glyph-name="uniFB90FEF2.liga" unicode="&#xfb90;&#xfef2;" horiz-adv-x="1671" 
d="M1438 381q0 -128 -90 -209q71 -63 71 -180q0 -87 -45 -171t-131 -155t-229 -114.5t-320 -43.5q-298 0 -465.5 155.5t-167.5 416.5q0 239 111 498l119 -43q-44 -99 -69 -217t-25 -209q0 -214 134.5 -322.5t383.5 -108.5q117 0 215 19.5t162 50t109 69.5t65 77.5t20 74.5
q0 55 -39.5 84t-132.5 29h-272v164h409q64 48 64 106q0 37 -20 73t-50.5 67t-91.5 73t-117 76.5t-153 92.5q-48 29 -74 44v180l776 474l62 -138l-695 -413q15 -9 45 -28q51 -32 77 -48t71.5 -46t69.5 -48.5t60.5 -48t56 -51t43 -51.5t35 -56.5t20 -58.5t8.5 -64z" />
    <glyph glyph-name="uniFB91FE8A.liga" unicode="&#xfb91;&#xfe8a;" horiz-adv-x="2158" 
d="M2159 170l34 -6l-6 -158l-35 -6h-16q-70 0 -127 13t-102 34t-97.5 66t-95 89t-112.5 124q-42 -152 -220 -205q37 -49 37 -129q0 -87 -45 -171t-131 -155t-229 -114.5t-320 -43.5q-298 0 -465.5 155.5t-167.5 416.5q0 239 111 498l119 -43q-44 -99 -69 -217t-25 -209
q0 -214 134.5 -322.5t383.5 -108.5q117 0 215 19.5t162 50t109 69.5t65 77.5t20 74.5q0 57 -52.5 86t-176.5 29h-195v164h262q195 0 277 38t106 130l-344 403v154l842 479l61 -141l-761 -424l417 -475q36 -41 51.5 -58t45.5 -48t46.5 -43.5t44.5 -32.5t51 -27.5t54.5 -17
t66.5 -12.5t77 -3zM274 782h142v-106h-367v100h64q-33 29 -33 88q0 69 47.5 120.5t128.5 51.5q49 0 89 -24t56 -56l-51 -77q-47 41 -92 41q-36 0 -64 -20t-28 -50q0 -29 28.5 -48.5t79.5 -19.5z" />
    <glyph glyph-name="uniFB90FE8A.liga" unicode="&#xfb90;&#xfe8a;" horiz-adv-x="1671" 
d="M1438 381q0 -128 -90 -209q71 -63 71 -180q0 -87 -45 -171t-131 -155t-229 -114.5t-320 -43.5q-298 0 -465.5 155.5t-167.5 416.5q0 239 111 498l119 -43q-44 -99 -69 -217t-25 -209q0 -214 134.5 -322.5t383.5 -108.5q117 0 215 19.5t162 50t109 69.5t65 77.5t20 74.5
q0 55 -39.5 84t-132.5 29h-272v164h409q64 48 64 106q0 37 -20 73t-50.5 67t-91.5 73t-117 76.5t-153 92.5q-48 29 -74 44v180l776 474l62 -138l-695 -413q15 -9 45 -28q51 -32 77 -48t71.5 -46t69.5 -48.5t60.5 -48t56 -51t43 -51.5t35 -56.5t20 -58.5t8.5 -64zM274 782
h142v-106h-367v100h64q-33 29 -33 88q0 69 47.5 120.5t128.5 51.5q49 0 89 -24t56 -56l-51 -77q-47 41 -92 41q-36 0 -64 -20t-28 -50q0 -29 28.5 -48.5t79.5 -19.5z" />
    <glyph glyph-name="uniFB95FEF2.liga" unicode="&#xfb95;&#xfef2;" horiz-adv-x="2158" 
d="M1903 1681l39 -90l-791 -450l-39 90zM2159 170l34 -6l-6 -158l-35 -6h-16q-70 0 -127 13t-102 34t-97.5 66t-95 89t-112.5 124q-42 -152 -220 -205q37 -49 37 -129q0 -87 -45 -171t-131 -155t-229 -114.5t-320 -43.5q-298 0 -465.5 155.5t-167.5 416.5q0 239 111 498
l119 -43q-44 -99 -69 -217t-25 -209q0 -214 134.5 -322.5t383.5 -108.5q117 0 215 19.5t162 50t109 69.5t65 77.5t20 74.5q0 57 -52.5 86t-176.5 29h-195v164h262q195 0 277 38t106 130l-344 403v154l842 479l61 -141l-761 -424l417 -475q36 -41 51.5 -58t45.5 -48
t46.5 -43.5t44.5 -32.5t51 -27.5t54.5 -17t66.5 -12.5t77 -3z" />
    <glyph glyph-name="uniFB94FEF2.liga" unicode="&#xfb94;&#xfef2;" horiz-adv-x="1671" 
d="M1485 1665l41 -88l-731 -449l-41 89zM1438 381q0 -128 -90 -209q71 -63 71 -180q0 -87 -45 -171t-131 -155t-229 -114.5t-320 -43.5q-298 0 -465.5 155.5t-167.5 416.5q0 239 111 498l119 -43q-44 -99 -69 -217t-25 -209q0 -214 134.5 -322.5t383.5 -108.5
q117 0 215 19.5t162 50t109 69.5t65 77.5t20 74.5q0 55 -39.5 84t-132.5 29h-272v164h409q64 48 64 106q0 37 -20 73t-50.5 67t-91.5 73t-117 76.5t-153 92.5q-48 29 -74 44v180l776 474l62 -138l-695 -413q15 -9 45 -28q51 -32 77 -48t71.5 -46t69.5 -48.5t60.5 -48t56 -51
t43 -51.5t35 -56.5t20 -58.5t8.5 -64z" />
    <glyph glyph-name="uniFB95FE8A.liga" unicode="&#xfb95;&#xfe8a;" horiz-adv-x="2158" 
d="M1903 1681l39 -90l-791 -450l-39 90zM2159 170l34 -6l-6 -158l-35 -6h-16q-70 0 -127 13t-102 34t-97.5 66t-95 89t-112.5 124q-42 -152 -220 -205q37 -49 37 -129q0 -87 -45 -171t-131 -155t-229 -114.5t-320 -43.5q-298 0 -465.5 155.5t-167.5 416.5q0 239 111 498
l119 -43q-44 -99 -69 -217t-25 -209q0 -214 134.5 -322.5t383.5 -108.5q117 0 215 19.5t162 50t109 69.5t65 77.5t20 74.5q0 57 -52.5 86t-176.5 29h-195v164h262q195 0 277 38t106 130l-344 403v154l842 479l61 -141l-761 -424l417 -475q36 -41 51.5 -58t45.5 -48
t46.5 -43.5t44.5 -32.5t51 -27.5t54.5 -17t66.5 -12.5t77 -3zM274 782h142v-106h-367v100h64q-33 29 -33 88q0 69 47.5 120.5t128.5 51.5q49 0 89 -24t56 -56l-51 -77q-47 41 -92 41q-36 0 -64 -20t-28 -50q0 -29 28.5 -48.5t79.5 -19.5z" />
    <glyph glyph-name="uniFB94FE8A.liga" unicode="&#xfb94;&#xfe8a;" horiz-adv-x="1671" 
d="M1485 1665l41 -88l-731 -449l-41 89zM1438 381q0 -128 -90 -209q71 -63 71 -180q0 -87 -45 -171t-131 -155t-229 -114.5t-320 -43.5q-298 0 -465.5 155.5t-167.5 416.5q0 239 111 498l119 -43q-44 -99 -69 -217t-25 -209q0 -214 134.5 -322.5t383.5 -108.5
q117 0 215 19.5t162 50t109 69.5t65 77.5t20 74.5q0 55 -39.5 84t-132.5 29h-272v164h409q64 48 64 106q0 37 -20 73t-50.5 67t-91.5 73t-117 76.5t-153 92.5q-48 29 -74 44v180l776 474l62 -138l-695 -413q15 -9 45 -28q51 -32 77 -48t71.5 -46t69.5 -48.5t60.5 -48t56 -51
t43 -51.5t35 -56.5t20 -58.5t8.5 -64zM274 782h142v-106h-367v100h64q-33 29 -33 88q0 69 47.5 120.5t128.5 51.5q49 0 89 -24t56 -56l-51 -77q-47 41 -92 41q-36 0 -64 -20t-28 -50q0 -29 28.5 -48.5t79.5 -19.5z" />
    <glyph glyph-name="uniFEDFFB51" unicode="&#xfedf;&#xfb51;" horiz-adv-x="1185" 
d="M578 1444q0 -75 -50 -116.5t-153 -41.5h-269v105h62q41 103 109 165t141 62q75 0 117.5 -50.5t42.5 -123.5zM414 1501q-88 0 -158 -110h127q102 0 102 51q0 26 -19.5 42.5t-51.5 16.5zM885 618q184 -166 184 -313q0 -152 -109.5 -228.5t-308.5 -76.5h-516v158l541 448
q-325 256 -656 492l80 123q483 -363 686 -521q67 65 88 119.5t21 147.5v471h135v-391q0 -160 -28.5 -254t-116.5 -175zM336 170h315q135 0 210 28t75 99q0 59 -39.5 111.5t-120.5 119.5z" />
    <glyph glyph-name="uniFEE0FB51" unicode="&#xfee0;&#xfb51;" horiz-adv-x="1347" 
d="M612 1427q0 -75 -49.5 -116t-152.5 -41h-269v104h62q42 103 109.5 165.5t140.5 62.5q75 0 117 -51t42 -124zM449 1485q-87 0 -158 -111h127q102 0 102 51q0 26 -19.5 43t-51.5 17zM1348 170l34 -6l-6 -158l-35 -6q-133 0 -222 51.5t-113 159.5q-49 -106 -158 -158.5
t-256 -52.5h-561v170h504l-269 965l133 47l277 -1010q139 8 210.5 62t71.5 182v1024h136v-1034q0 -75 18 -123.5t55 -72.5t78 -32t103 -8z" />
    <glyph glyph-name="uniFC86.liga" unicode="&#xfee0;&#xfef0;" horiz-adv-x="1908" 
d="M1909 170l35 -6l-7 -158l-34 -6q-140 0 -231.5 65.5t-119.5 202.5q-55 -97 -174 -143q41 -49 41 -133q0 -87 -45 -171t-131 -155t-229 -114.5t-320 -43.5q-298 0 -465.5 155.5t-167.5 416.5q0 239 111 498l119 -43q-44 -99 -69 -216t-25 -208q0 -214 135 -323.5
t383 -109.5q117 0 215 19.5t162 50t109 69.5t65 77.5t20 74.5q0 57 -47.5 86t-161.5 29h-235v164h280q77 0 133 5t108.5 20.5t85 42t52 71t19.5 105.5v946h135v-1024q0 -61 12.5 -105.5t33.5 -71t54.5 -42t69 -20.5t84.5 -5z" />
    <glyph glyph-name="uniFC43.liga" unicode="&#xfedf;&#xfef0;" horiz-adv-x="1542" 
d="M1247 1438v-1182q80 -27 126 -92t46 -160q0 -71 -27.5 -140.5t-86 -134t-142 -113.5t-205 -78.5t-264.5 -29.5q-298 0 -465.5 155.5t-167.5 416.5q0 239 111 498l119 -43q-44 -99 -69 -217t-25 -209q0 -214 134.5 -322.5t383.5 -108.5q117 0 215 20.5t162 52.5t109 73
t65 81t20 77q0 70 -50 106.5t-167 36.5h-227v164h270v1149h135z" />
    <glyph glyph-name="uniFC87.liga" unicode="&#xfee0;&#xfef2;" horiz-adv-x="1908" 
d="M1909 170l35 -6l-7 -158l-34 -6q-140 0 -231.5 65.5t-119.5 202.5q-55 -97 -174 -143q41 -49 41 -133q0 -87 -45 -171t-131 -155t-229 -114.5t-320 -43.5q-298 0 -465.5 155.5t-167.5 416.5q0 239 111 498l119 -43q-44 -99 -69 -216t-25 -208q0 -214 135 -323.5
t383 -109.5q117 0 215 19.5t162 50t109 69.5t65 77.5t20 74.5q0 57 -47.5 86t-161.5 29h-235v164h280q77 0 133 5t108.5 20.5t85 42t52 71t19.5 105.5v946h135v-1024q0 -61 12.5 -105.5t33.5 -71t54.5 -42t69 -20.5t84.5 -5zM606 -649q39 0 65.5 -27.5t26.5 -66.5t-26 -67
t-66 -28q-38 0 -66 28.5t-28 66.5t28 66t66 28zM864 -649q37 0 64.5 -28t27.5 -66t-27.5 -66.5t-64.5 -28.5q-40 0 -67 28t-27 67t26.5 66.5t67.5 27.5z" />
    <glyph glyph-name="uniFC44.liga" unicode="&#xfedf;&#xfef2;" horiz-adv-x="1542" 
d="M1247 1438v-1182q80 -27 126 -92t46 -160q0 -71 -27.5 -140.5t-86 -134t-142 -113.5t-205 -78.5t-264.5 -29.5q-298 0 -465.5 155.5t-167.5 416.5q0 239 111 498l119 -43q-44 -99 -69 -217t-25 -209q0 -214 134.5 -322.5t383.5 -108.5q117 0 215 20.5t162 52.5t109 73
t65 81t20 77q0 70 -50 106.5t-167 36.5h-227v164h270v1149h135zM606 -649q39 0 65.5 -27.5t26.5 -66.5t-26 -67t-66 -28q-38 0 -66 28.5t-28 66.5t28 66t66 28zM864 -649q37 0 64.5 -28t27.5 -66t-27.5 -66.5t-64.5 -28.5q-40 0 -67 28t-27 67t26.5 66.5t67.5 27.5z" />
    <glyph glyph-name="uniFEE0FE8A.liga" unicode="&#xfee0;&#xfe8a;" horiz-adv-x="1908" 
d="M1909 170l35 -6l-7 -158l-34 -6q-140 0 -231.5 65.5t-119.5 202.5q-55 -97 -174 -143q41 -49 41 -133q0 -87 -45 -171t-131 -155t-229 -114.5t-320 -43.5q-298 0 -465.5 155.5t-167.5 416.5q0 239 111 498l119 -43q-44 -99 -69 -216t-25 -208q0 -214 135 -323.5
t383 -109.5q117 0 215 19.5t162 50t109 69.5t65 77.5t20 74.5q0 57 -47.5 86t-161.5 29h-235v164h280q77 0 133 5t108.5 20.5t85 42t52 71t19.5 105.5v946h135v-1024q0 -61 12.5 -105.5t33.5 -71t54.5 -42t69 -20.5t84.5 -5zM274 780h142v-106h-367v100h64q-33 29 -33 88
q0 69 47.5 120.5t128.5 51.5q49 0 89 -24t56 -56l-51 -77q-47 41 -92 41q-36 0 -64 -20t-28 -50q0 -29 28.5 -48.5t79.5 -19.5z" />
    <glyph glyph-name="uniFEDFFE8A.liga" unicode="&#xfedf;&#xfe8a;" horiz-adv-x="1542" 
d="M1247 1438v-1182q80 -27 126 -92t46 -160q0 -71 -27.5 -140.5t-86 -134t-142 -113.5t-205 -78.5t-264.5 -29.5q-298 0 -465.5 155.5t-167.5 416.5q0 239 111 498l119 -43q-44 -99 -69 -217t-25 -209q0 -214 134.5 -322.5t383.5 -108.5q117 0 215 20.5t162 52.5t109 73
t65 81t20 77q0 70 -50 106.5t-167 36.5h-227v164h270v1149h135zM276 780h142v-106h-367v100h64q-33 29 -33 88q0 69 47.5 120.5t128.5 51.5q49 0 89 -24t56 -56l-51 -77q-47 41 -92 41q-36 0 -64 -20t-28 -50q0 -29 28.5 -48.5t79.5 -19.5z" />
    <glyph glyph-name="uniFC8A.liga" unicode="&#xfee8;&#xfeae;" horiz-adv-x="1411" 
d="M1090 979q-42 0 -71.5 30t-29.5 70t29.5 70.5t71.5 30.5q41 0 69.5 -30.5t28.5 -70.5t-28.5 -70t-69.5 -30zM1411 170l35 -6l-6 -158l-35 -6q-163 0 -253.5 60.5t-111.5 203.5h-465q7 -72 7 -112q0 -114 -39 -219t-109.5 -186.5t-180 -130t-241.5 -48.5q-90 0 -155 18
l16 160q63 -8 139 -8q110 0 197.5 37t137.5 96t76 125.5t26 132.5q0 104 -21 227t-70 353l134 32q34 -139 63 -307h473v348h129v-376q0 -76 15.5 -124t51 -72t77.5 -32t110 -8z" />
    <glyph glyph-name="uniFC8B.liga" unicode="&#xfee8;&#xfeb0;" horiz-adv-x="1411" 
d="M1090 979q-42 0 -71.5 30t-29.5 70t29.5 70.5t71.5 30.5q41 0 69.5 -30.5t28.5 -70.5t-28.5 -70t-69.5 -30zM414 924q-42 0 -71.5 30t-29.5 70t29.5 70t71.5 30q41 0 69.5 -30t28.5 -70t-28.5 -70t-69.5 -30zM1411 170l35 -6l-6 -158l-35 -6q-163 0 -253.5 60.5
t-111.5 203.5h-465q7 -72 7 -112q0 -114 -39 -219t-109.5 -186.5t-180 -130t-241.5 -48.5q-90 0 -155 18l16 160q63 -8 139 -8q110 0 197.5 37t137.5 96t76 125.5t26 132.5q0 104 -21 227t-70 353l134 32q34 -139 63 -307h473v348h129v-376q0 -76 15.5 -124t51 -72t77.5 -32
t110 -8z" />
    <glyph glyph-name="uniFEE8FB8B.liga" unicode="&#xfee8;&#xfb8b;" horiz-adv-x="1411" 
d="M416 1151q-38 0 -64 26.5t-26 63.5q0 38 25 64t65 26t64 -26t24 -64q0 -37 -25.5 -63.5t-62.5 -26.5zM1090 979q-42 0 -71.5 30t-29.5 70t29.5 70.5t71.5 30.5q41 0 69.5 -30.5t28.5 -70.5t-28.5 -70t-69.5 -30zM297 926q-40 0 -65 26t-25 64t25 64t65 26t64 -26t24 -64
t-24 -64t-64 -26zM444 1016q0 38 25.5 64t65.5 26t64 -26t24 -64t-24 -64t-64 -26t-65.5 26t-25.5 64zM1411 170l35 -6l-6 -158l-35 -6q-163 0 -253.5 60.5t-111.5 203.5h-465q7 -72 7 -112q0 -114 -39 -219t-109.5 -186.5t-180 -130t-241.5 -48.5q-90 0 -155 18l16 160
q63 -8 139 -8q110 0 197.5 37t137.5 96t76 125.5t26 132.5q0 104 -21 227t-70 353l134 32q34 -139 63 -307h473v348h129v-376q0 -76 15.5 -124t51 -72t77.5 -32t110 -8z" />
    <glyph glyph-name="uniFC8D.liga" unicode="&#xfee8;&#xfee6;" horiz-adv-x="2105" 
d="M1786 1016q-42 0 -71 30t-29 70q0 41 29 71t71 30q41 0 69.5 -30.5t28.5 -70.5t-28.5 -70t-69.5 -30zM657 823q-42 0 -71 30t-29 71q0 40 29 70t71 30q41 0 70 -30t29 -70t-29 -70.5t-70 -30.5zM2105 170l35 -6l-6 -158l-35 -6q-179 0 -271 74.5t-99 253.5h-431
q2 -23 2 -68q0 -266 -173 -421.5t-463 -155.5q-284 0 -443.5 145.5t-159.5 390.5q0 228 105 455l119 -43q-37 -81 -63.5 -188t-26.5 -193q0 -197 126 -297t355 -100q227 0 358 98.5t131 277.5q0 180 -94 529l135 39q53 -178 72 -299h444v321h129v-413q0 -76 15.5 -124
t51 -72t77.5 -32t110 -8z" />
    <glyph glyph-name="uniFC8E.liga" unicode="&#xfee8;&#xfef0;" horiz-adv-x="1867" 
d="M1210 995q-42 0 -71 30t-29 71q0 40 29 70t71 30q41 0 70 -30t29 -70t-29 -70.5t-70 -30.5zM735 -492q-318 0 -496 160t-178 430q0 249 111 498l119 -43q-43 -101 -69.5 -220t-26.5 -206q0 -223 145.5 -336t411.5 -113q117 0 220 18t172.5 46.5t120 62.5t74 66.5
t23.5 58.5q0 48 -40 70.5t-142 44.5l-179 39q-69 15 -120 46t-79 71.5t-41 82.5t-13 89q0 184 132 305t330 121q73 0 131.5 -24t103.5 -71t76.5 -97.5t65.5 -123.5l53 -114q23 -49 38 -76.5t35 -54.5t40.5 -40t48.5 -20.5t66 -7.5l35 -6l-7 -158l-34 -6q-68 0 -115.5 15
t-89 56.5t-74.5 98t-78 154.5l-41 90q-48 106 -113.5 161.5t-164.5 55.5q-116 0 -210.5 -73.5t-94.5 -166.5q0 -117 174 -155l147 -31q76 -16 125 -33.5t90 -45.5t59.5 -71t18.5 -104q0 -62 -30.5 -124t-94 -119.5t-152 -102t-214 -71t-269.5 -26.5z" />
    <glyph glyph-name="uniFC4F.liga" unicode="&#xfee7;&#xfef0;" 
d="M1114 1135q-42 0 -71 30t-29 70t29 70t71 30q41 0 69.5 -30t28.5 -70t-28.5 -70t-69.5 -30zM1223 262q91 -21 143.5 -88t52.5 -170q0 -71 -27.5 -140.5t-86 -134t-142 -113.5t-205 -78.5t-264.5 -29.5q-298 0 -465.5 155.5t-167.5 416.5q0 239 111 498l119 -43
q-44 -99 -69 -217t-25 -209q0 -214 134.5 -322.5t383.5 -108.5q117 0 215 20.5t162 52.5t109 73t65 81t20 77q0 70 -50 106.5t-167 36.5h-227v164h250q33 40 44 86t11 133q0 164 -92 416l133 47q92 -234 92 -447q0 -159 -57 -262z" />
    <glyph glyph-name="uniFC8F.liga" unicode="&#xfee8;&#xfef2;" horiz-adv-x="1867" 
d="M1210 995q-42 0 -71 30t-29 71q0 40 29 70t71 30q41 0 70 -30t29 -70t-29 -70.5t-70 -30.5zM735 -492q-318 0 -496 160t-178 430q0 249 111 498l119 -43q-43 -101 -69.5 -220t-26.5 -206q0 -223 145.5 -336t411.5 -113q117 0 220 18t172.5 46.5t120 62.5t74 66.5
t23.5 58.5q0 48 -40 70.5t-142 44.5l-179 39q-69 15 -120 46t-79 71.5t-41 82.5t-13 89q0 184 132 305t330 121q73 0 131.5 -24t103.5 -71t76.5 -97.5t65.5 -123.5l53 -114q23 -49 38 -76.5t35 -54.5t40.5 -40t48.5 -20.5t66 -7.5l35 -6l-7 -158l-34 -6q-68 0 -115.5 15
t-89 56.5t-74.5 98t-78 154.5l-41 90q-48 106 -113.5 161.5t-164.5 55.5q-116 0 -210.5 -73.5t-94.5 -166.5q0 -117 174 -155l147 -31q76 -16 125 -33.5t90 -45.5t59.5 -71t18.5 -104q0 -62 -30.5 -124t-94 -119.5t-152 -102t-214 -71t-269.5 -26.5zM647 -838
q-38 0 -66 28.5t-28 66.5t28 66t66 28q39 0 65.5 -27.5t26.5 -66.5t-26 -67t-66 -28zM905 -838q-40 0 -67 28t-27 67t26.5 66.5t67.5 27.5q37 0 64.5 -28t27.5 -66t-27.5 -66.5t-64.5 -28.5z" />
    <glyph glyph-name="uniFC50.liga" unicode="&#xfee7;&#xfef2;" 
d="M1114 1135q-42 0 -71 30t-29 70t29 70t71 30q41 0 69.5 -30t28.5 -70t-28.5 -70t-69.5 -30zM1223 262q91 -21 143.5 -88t52.5 -170q0 -71 -27.5 -140.5t-86 -134t-142 -113.5t-205 -78.5t-264.5 -29.5q-298 0 -465.5 155.5t-167.5 416.5q0 239 111 498l119 -43
q-44 -99 -69 -217t-25 -209q0 -214 134.5 -322.5t383.5 -108.5q117 0 215 20.5t162 52.5t109 73t65 81t20 77q0 70 -50 106.5t-167 36.5h-227v164h250q33 40 44 86t11 133q0 164 -92 416l133 47q92 -234 92 -447q0 -159 -57 -262zM606 -649q39 0 65.5 -27.5t26.5 -66.5
t-26 -67t-66 -28q-38 0 -66 28.5t-28 66.5t28 66t66 28zM864 -649q37 0 64.5 -28t27.5 -66t-27.5 -66.5t-64.5 -28.5q-40 0 -67 28t-27 67t26.5 66.5t67.5 27.5z" />
    <glyph glyph-name="uniFEE8FE8A.liga" unicode="&#xfee8;&#xfe8a;" horiz-adv-x="1867" 
d="M1210 995q-42 0 -71 30t-29 71q0 40 29 70t71 30q41 0 70 -30t29 -70t-29 -70.5t-70 -30.5zM279 823h141v-106h-367v100h64q-33 29 -33 88q0 69 47.5 120.5t128.5 51.5q49 0 89.5 -24t56.5 -56l-52 -77q-47 41 -92 41q-36 0 -64 -20t-28 -50q0 -29 29 -48.5t80 -19.5z
M1868 170l35 -6l-7 -158l-34 -6q-68 0 -115.5 15t-89 56.5t-74.5 98t-78 154.5l-41 90q-48 106 -113.5 161.5t-164.5 55.5q-116 0 -210.5 -73.5t-94.5 -166.5q0 -117 174 -155l147 -31q76 -16 125 -33.5t90 -45.5t59.5 -71t18.5 -104q0 -62 -30.5 -124t-94 -119.5t-152 -102
t-214 -71t-269.5 -26.5q-318 0 -496 160t-178 430q0 249 111 498l119 -43q-43 -101 -69.5 -220t-26.5 -206q0 -223 145.5 -336t411.5 -113q117 0 220 18t172.5 46.5t120 62.5t74 66.5t23.5 58.5q0 48 -40 70.5t-142 44.5l-179 39q-69 15 -120 46t-79 71.5t-41 82.5t-13 89
q0 184 132 305t330 121q73 0 131.5 -24t103.5 -71t76.5 -97.5t65.5 -123.5l53 -114q23 -49 38 -76.5t35 -54.5t40.5 -40t48.5 -20.5t66 -7.5z" />
    <glyph glyph-name="uniFEE7FE8A.liga" unicode="&#xfee7;&#xfe8a;" 
d="M1114 1135q-42 0 -71 30t-29 70t29 70t71 30q41 0 69.5 -30t28.5 -70t-28.5 -70t-69.5 -30zM272 784h142v-106h-367v100h64q-33 29 -33 88q0 69 47.5 120.5t128.5 51.5q49 0 89 -24t56 -56l-51 -77q-47 41 -92 41q-36 0 -64 -20t-28 -50q0 -29 28.5 -48.5t79.5 -19.5z
M1223 262q91 -21 143.5 -88t52.5 -170q0 -71 -27.5 -140.5t-86 -134t-142 -113.5t-205 -78.5t-264.5 -29.5q-298 0 -465.5 155.5t-167.5 416.5q0 239 111 498l119 -43q-44 -99 -69 -217t-25 -209q0 -214 134.5 -322.5t383.5 -108.5q117 0 215 20.5t162 52.5t109 73t65 81
t20 77q0 70 -50 106.5t-167 36.5h-227v164h250q33 40 44 86t11 133q0 164 -92 416l133 47q92 -234 92 -447q0 -159 -57 -262z" />
    <glyph glyph-name="uniFC91.liga" unicode="&#xfef4;&#xfeae;" horiz-adv-x="1411" 
d="M1411 170l35 -6l-6 -158l-35 -6q-163 0 -253.5 60.5t-111.5 203.5h-465q7 -72 7 -112q0 -114 -39 -219t-109.5 -186.5t-180 -130t-241.5 -48.5q-90 0 -155 18l16 160q63 -8 139 -8q110 0 197.5 37t137.5 96t76 125.5t26 132.5q0 104 -21 227t-70 353l134 32
q34 -139 63 -307h473v348h129v-376q0 -76 15.5 -124t51 -72t77.5 -32t110 -8zM952 -158q39 0 65.5 -27.5t26.5 -66.5t-26 -66.5t-66 -27.5q-38 0 -66 28t-28 66t28 66t66 28zM1210 -158q37 0 65 -28t28 -66t-28 -66t-65 -28q-41 0 -67.5 27.5t-26.5 66.5t26.5 66.5
t67.5 27.5z" />
    <glyph glyph-name="uniFC92.liga" unicode="&#xfef4;&#xfeb0;" horiz-adv-x="1411" 
d="M414 924q-42 0 -71.5 30t-29.5 70t29.5 70t71.5 30q41 0 69.5 -30t28.5 -70t-28.5 -70t-69.5 -30zM1411 170l35 -6l-6 -158l-35 -6q-163 0 -253.5 60.5t-111.5 203.5h-465q7 -72 7 -112q0 -114 -39 -219t-109.5 -186.5t-180 -130t-241.5 -48.5q-90 0 -155 18l16 160
q63 -8 139 -8q110 0 197.5 37t137.5 96t76 125.5t26 132.5q0 104 -21 227t-70 353l134 32q34 -139 63 -307h473v348h129v-376q0 -76 15.5 -124t51 -72t77.5 -32t110 -8zM952 -158q39 0 65.5 -27.5t26.5 -66.5t-26 -66.5t-66 -27.5q-38 0 -66 28t-28 66t28 66t66 28z
M1210 -158q37 0 65 -28t28 -66t-28 -66t-65 -28q-41 0 -67.5 27.5t-26.5 66.5t26.5 66.5t67.5 27.5z" />
    <glyph glyph-name="uniFC94.liga" unicode="&#xfef4;&#xfee6;" horiz-adv-x="2105" 
d="M657 823q-42 0 -71 30t-29 71q0 40 29 70t71 30q41 0 70 -30t29 -70t-29 -70.5t-70 -30.5zM2105 170l35 -6l-6 -158l-35 -6q-179 0 -271 74.5t-99 253.5h-431q2 -23 2 -68q0 -266 -173 -421.5t-463 -155.5q-284 0 -443.5 145.5t-159.5 390.5q0 228 105 455l119 -43
q-37 -81 -63.5 -188t-26.5 -193q0 -197 126 -297t355 -100q227 0 358 98.5t131 277.5q0 180 -94 529l135 39q53 -178 72 -299h444v321h129v-413q0 -76 15.5 -124t51 -72t77.5 -32t110 -8zM1503 -158q39 0 65.5 -27.5t26.5 -66.5t-26 -66.5t-66 -27.5q-38 0 -66 28t-28 66
t28 66t66 28zM1761 -158q37 0 64.5 -28t27.5 -66t-27.5 -66t-64.5 -28q-41 0 -67.5 27.5t-26.5 66.5t26.5 66.5t67.5 27.5z" />
    <glyph glyph-name="uniFC95.liga" unicode="&#xfef4;&#xfef0;" horiz-adv-x="1867" 
d="M735 -492q-318 0 -496 160t-178 430q0 249 111 498l119 -43q-43 -101 -69.5 -220t-26.5 -206q0 -223 145.5 -336t411.5 -113q117 0 220 18t172.5 46.5t120 62.5t74 66.5t23.5 58.5q0 48 -40 70.5t-142 44.5l-179 39q-69 15 -120 46t-79 71.5t-41 82.5t-13 89
q0 184 132 305t330 121q73 0 131.5 -24t103.5 -71t76.5 -97.5t65.5 -123.5l53 -114q23 -49 38 -76.5t35 -54.5t40.5 -40t48.5 -20.5t66 -7.5l35 -6l-7 -158l-34 -6q-68 0 -115.5 15t-89 56.5t-74.5 98t-78 154.5l-41 90q-48 106 -113.5 161.5t-164.5 55.5
q-116 0 -210.5 -73.5t-94.5 -166.5q0 -117 174 -155l147 -31q76 -16 125 -33.5t90 -45.5t59.5 -71t18.5 -104q0 -62 -30.5 -124t-94 -119.5t-152 -102t-214 -71t-269.5 -26.5zM1309 -739q-38 0 -66.5 28t-28.5 66t28.5 66t66.5 28q39 0 65.5 -27.5t26.5 -66.5t-26 -66.5
t-66 -27.5zM1567 -739q-41 0 -67.5 27.5t-26.5 66.5t26.5 66.5t67.5 27.5q37 0 64.5 -28t27.5 -66t-27.5 -66t-64.5 -28z" />
    <glyph glyph-name="uniFC59.liga" unicode="&#xfef3;&#xfef0;" 
d="M1419 4q0 -71 -27.5 -140.5t-86 -134t-142 -113.5t-205 -78.5t-264.5 -29.5q-298 0 -465.5 155.5t-167.5 416.5q0 239 111 498l119 -43q-44 -99 -69 -217t-25 -209q0 -214 134.5 -322.5t383.5 -108.5q117 0 215 20.5t162 52.5t109 73t65 81t20 77q0 70 -50 106.5
t-167 36.5h-227v164h250q33 40 44 86t11 133q0 164 -92 416l133 47q92 -234 92 -447q0 -159 -57 -262q91 -21 143.5 -88t52.5 -170zM1102 -516q39 0 65.5 -27.5t26.5 -66.5t-26 -67t-66 -28q-38 0 -66 28.5t-28 66.5t28 66t66 28zM1360 -516q37 0 64.5 -28t27.5 -66
t-27.5 -66.5t-64.5 -28.5q-40 0 -67 28t-27 67t26.5 66.5t67.5 27.5z" />
    <glyph glyph-name="uniFC96.liga" unicode="&#xfef4;&#xfef2;" horiz-adv-x="1867" 
d="M735 -492q-318 0 -496 160t-178 430q0 249 111 498l119 -43q-43 -101 -69.5 -220t-26.5 -206q0 -223 145.5 -336t411.5 -113q117 0 220 18t172.5 46.5t120 62.5t74 66.5t23.5 58.5q0 48 -40 70.5t-142 44.5l-179 39q-69 15 -120 46t-79 71.5t-41 82.5t-13 89
q0 184 132 305t330 121q73 0 131.5 -24t103.5 -71t76.5 -97.5t65.5 -123.5l53 -114q23 -49 38 -76.5t35 -54.5t40.5 -40t48.5 -20.5t66 -7.5l35 -6l-7 -158l-34 -6q-68 0 -115.5 15t-89 56.5t-74.5 98t-78 154.5l-41 90q-48 106 -113.5 161.5t-164.5 55.5
q-116 0 -210.5 -73.5t-94.5 -166.5q0 -117 174 -155l147 -31q76 -16 125 -33.5t90 -45.5t59.5 -71t18.5 -104q0 -62 -30.5 -124t-94 -119.5t-152 -102t-214 -71t-269.5 -26.5zM1309 -739q-38 0 -66.5 28t-28.5 66t28.5 66t66.5 28q39 0 65.5 -27.5t26.5 -66.5t-26 -66.5
t-66 -27.5zM1567 -739q-41 0 -67.5 27.5t-26.5 66.5t26.5 66.5t67.5 27.5q37 0 64.5 -28t27.5 -66t-27.5 -66t-64.5 -28zM647 -838q-38 0 -66 28.5t-28 66.5t28 66t66 28q39 0 65.5 -27.5t26.5 -66.5t-26 -67t-66 -28zM905 -838q-40 0 -67 28t-27 67t26.5 66.5t67.5 27.5
q37 0 64.5 -28t27.5 -66t-27.5 -66.5t-64.5 -28.5z" />
    <glyph glyph-name="uniFC5A.init.rlig" unicode="&#xfbfe;&#xfef4;" horiz-adv-x="1150" 
d="M307 199q-26 -93 -110.5 -146t-202.5 -53l-35 6l6 158l35 6q47 0 81 4.5t68.5 18.5t56 39.5t35 69t13.5 104.5v290h135v-270q0 -76 16 -126.5t50 -78.5t78.5 -39.5t109.5 -11.5q126 0 189 51t63 158q0 154 -55 409l131 31q57 -267 57 -418q0 -194 -110.5 -297.5
t-288.5 -103.5q-124 0 -209.5 50t-112.5 149zM193 -158q39 0 65.5 -27.5t26.5 -66.5t-26 -66.5t-66 -27.5q-38 0 -66.5 28t-28.5 66t28.5 66t66.5 28zM451 -158q37 0 64.5 -28t27.5 -66t-27.5 -66t-64.5 -28q-41 0 -68 27.5t-27 66.5t27 66.5t68 27.5zM723 -158
q39 0 65.5 -27.5t26.5 -66.5t-26 -66.5t-66 -27.5q-38 0 -66 28t-28 66t28 66t66 28zM981 -158q37 0 64.5 -28t27.5 -66t-27.5 -66t-64.5 -28q-41 0 -67.5 27.5t-26.5 66.5t26.5 66.5t67.5 27.5z" />
    <glyph glyph-name="uniFC5A.liga" unicode="&#xfef3;&#xfef2;" 
d="M1419 4q0 -71 -27.5 -140.5t-86 -134t-142 -113.5t-205 -78.5t-264.5 -29.5q-298 0 -465.5 155.5t-167.5 416.5q0 239 111 498l119 -43q-44 -99 -69 -217t-25 -209q0 -214 134.5 -322.5t383.5 -108.5q117 0 215 20.5t162 52.5t109 73t65 81t20 77q0 70 -50 106.5
t-167 36.5h-227v164h250q33 40 44 86t11 133q0 164 -92 416l133 47q92 -234 92 -447q0 -159 -57 -262q91 -21 143.5 -88t52.5 -170zM1102 -516q39 0 65.5 -27.5t26.5 -66.5t-26 -67t-66 -28q-38 0 -66 28.5t-28 66.5t28 66t66 28zM1360 -516q37 0 64.5 -28t27.5 -66
t-27.5 -66.5t-64.5 -28.5q-40 0 -67 28t-27 67t26.5 66.5t67.5 27.5zM606 -649q39 0 65.5 -27.5t26.5 -66.5t-26 -67t-66 -28q-38 0 -66 28.5t-28 66.5t28 66t66 28zM864 -649q37 0 64.5 -28t27.5 -66t-27.5 -66.5t-64.5 -28.5q-40 0 -67 28t-27 67t26.5 66.5t67.5 27.5z
" />
    <glyph glyph-name="uniFEF3FB59.rlig" unicode="&#xfef3;&#xfb59;" horiz-adv-x="1150" 
d="M307 199q-26 -93 -110.5 -146t-202.5 -53l-35 6l6 158l35 6q47 0 81 4.5t68.5 18.5t56 39.5t35 69t13.5 104.5v290h135v-270q0 -76 16 -126.5t50 -78.5t78.5 -39.5t109.5 -11.5q126 0 189 51t63 158q0 154 -55 409l131 31q57 -267 57 -418q0 -194 -110.5 -297.5
t-288.5 -103.5q-124 0 -209.5 50t-112.5 149zM291 -248q0 -38 -24 -64t-64 -26t-65 26t-25 64t25 64t65 26t64 -26t24 -64zM440 -158q40 0 64 -26t24 -64t-24 -64t-64 -26t-65 26t-25 64t25 64t65 26zM723 -158q39 0 65.5 -27.5t26.5 -66.5t-26 -66.5t-66 -27.5
q-38 0 -66 28t-28 66t28 66t66 28zM981 -158q37 0 64.5 -28t27.5 -66t-27.5 -66t-64.5 -28q-41 0 -67.5 27.5t-26.5 66.5t26.5 66.5t67.5 27.5zM322 -383q37 0 62.5 -26.5t25.5 -63.5q0 -38 -24 -64t-64 -26t-65.5 26t-25.5 64q0 37 26.5 63.5t64.5 26.5z" />
    <glyph glyph-name="uniFEF4FB8B.liga" unicode="&#xfef4;&#xfb8b;" horiz-adv-x="1411" 
d="M416 1151q-38 0 -64 26.5t-26 63.5q0 38 25 64t65 26t64 -26t24 -64q0 -37 -25.5 -63.5t-62.5 -26.5zM297 926q-40 0 -65 26t-25 64t25 64t65 26t64 -26t24 -64t-24 -64t-64 -26zM444 1016q0 38 25.5 64t65.5 26t64 -26t24 -64t-24 -64t-64 -26t-65.5 26t-25.5 64z
M1411 170l35 -6l-6 -158l-35 -6q-163 0 -253.5 60.5t-111.5 203.5h-465q7 -72 7 -112q0 -114 -39 -219t-109.5 -186.5t-180 -130t-241.5 -48.5q-90 0 -155 18l16 160q63 -8 139 -8q110 0 197.5 37t137.5 96t76 125.5t26 132.5q0 104 -21 227t-70 353l134 32q34 -139 63 -307
h473v348h129v-376q0 -76 15.5 -124t51 -72t77.5 -32t110 -8zM952 -158q39 0 65.5 -27.5t26.5 -66.5t-26 -66.5t-66 -27.5q-38 0 -66 28t-28 66t28 66t66 28zM1210 -158q37 0 65 -28t28 -66t-28 -66t-65 -28q-41 0 -67.5 27.5t-26.5 66.5t26.5 66.5t67.5 27.5z" />
    <glyph glyph-name="uniFEF4FE8A.liga" unicode="&#xfef4;&#xfe8a;" horiz-adv-x="1867" 
d="M279 823h141v-106h-367v100h64q-33 29 -33 88q0 69 47.5 120.5t128.5 51.5q49 0 89.5 -24t56.5 -56l-52 -77q-47 41 -92 41q-36 0 -64 -20t-28 -50q0 -29 29 -48.5t80 -19.5zM1868 170l35 -6l-7 -158l-34 -6q-68 0 -115.5 15t-89 56.5t-74.5 98t-78 154.5l-41 90
q-48 106 -113.5 161.5t-164.5 55.5q-116 0 -210.5 -73.5t-94.5 -166.5q0 -117 174 -155l147 -31q76 -16 125 -33.5t90 -45.5t59.5 -71t18.5 -104q0 -62 -30.5 -124t-94 -119.5t-152 -102t-214 -71t-269.5 -26.5q-318 0 -496 160t-178 430q0 249 111 498l119 -43
q-43 -101 -69.5 -220t-26.5 -206q0 -223 145.5 -336t411.5 -113q117 0 220 18t172.5 46.5t120 62.5t74 66.5t23.5 58.5q0 48 -40 70.5t-142 44.5l-179 39q-69 15 -120 46t-79 71.5t-41 82.5t-13 89q0 184 132 305t330 121q73 0 131.5 -24t103.5 -71t76.5 -97.5t65.5 -123.5
l53 -114q23 -49 38 -76.5t35 -54.5t40.5 -40t48.5 -20.5t66 -7.5zM1309 -551q39 0 65.5 -27.5t26.5 -66.5t-26 -66.5t-66 -27.5q-38 0 -66.5 28t-28.5 66t28.5 66t66.5 28zM1567 -551q37 0 64.5 -28t27.5 -66t-27.5 -66t-64.5 -28q-41 0 -67.5 27.5t-26.5 66.5t26.5 66.5
t67.5 27.5z" />
    <glyph glyph-name="uniFEF3FE8A.liga" unicode="&#xfef3;&#xfe8a;" 
d="M272 784h142v-106h-367v100h64q-33 29 -33 88q0 69 47.5 120.5t128.5 51.5q49 0 89 -24t56 -56l-51 -77q-47 41 -92 41q-36 0 -64 -20t-28 -50q0 -29 28.5 -48.5t79.5 -19.5zM1419 4q0 -71 -27.5 -140.5t-86 -134t-142 -113.5t-205 -78.5t-264.5 -29.5
q-298 0 -465.5 155.5t-167.5 416.5q0 239 111 498l119 -43q-44 -99 -69 -217t-25 -209q0 -214 134.5 -322.5t383.5 -108.5q117 0 215 20.5t162 52.5t109 73t65 81t20 77q0 70 -50 106.5t-167 36.5h-227v164h250q33 40 44 86t11 133q0 164 -92 416l133 47q92 -234 92 -447
q0 -159 -57 -262q91 -21 143.5 -88t52.5 -170zM1102 -516q39 0 65.5 -27.5t26.5 -66.5t-26 -67t-66 -28q-38 0 -66 28.5t-28 66.5t28 66t66 28zM1360 -516q37 0 64.5 -28t27.5 -66t-27.5 -66.5t-64.5 -28.5q-40 0 -67 28t-27 67t26.5 66.5t67.5 27.5z" />
    <glyph glyph-name="uniFC64.liga" unicode="&#xfe8c;&#xfeae;" horiz-adv-x="1411" 
d="M1130 1010h142v-107h-367v101h64q-33 29 -33 88q0 69 47.5 120.5t128.5 51.5q49 0 89 -24t56 -56l-51 -78q-47 41 -92 41q-36 0 -64 -20t-28 -50q0 -29 28.5 -48t79.5 -19zM1411 170l35 -6l-6 -158l-35 -6q-163 0 -253.5 60.5t-111.5 203.5h-465q7 -72 7 -112
q0 -114 -39 -219t-109.5 -186.5t-180 -130t-241.5 -48.5q-90 0 -155 18l16 160q63 -8 139 -8q110 0 197.5 37t137.5 96t76 125.5t26 132.5q0 104 -21 227t-70 353l134 32q34 -139 63 -307h473v348h129v-376q0 -76 15.5 -124t51 -72t77.5 -32t110 -8z" />
    <glyph glyph-name="uniFC65.liga" unicode="&#xfe8c;&#xfeb0;" horiz-adv-x="1411" 
d="M1130 1010h142v-107h-367v101h64q-33 29 -33 88q0 69 47.5 120.5t128.5 51.5q49 0 89 -24t56 -56l-51 -78q-47 41 -92 41q-36 0 -64 -20t-28 -50q0 -29 28.5 -48t79.5 -19zM414 924q-42 0 -71.5 30t-29.5 70t29.5 70t71.5 30q41 0 69.5 -30t28.5 -70t-28.5 -70t-69.5 -30
zM1411 170l35 -6l-6 -158l-35 -6q-163 0 -253.5 60.5t-111.5 203.5h-465q7 -72 7 -112q0 -114 -39 -219t-109.5 -186.5t-180 -130t-241.5 -48.5q-90 0 -155 18l16 160q63 -8 139 -8q110 0 197.5 37t137.5 96t76 125.5t26 132.5q0 104 -21 227t-70 353l134 32
q34 -139 63 -307h473v348h129v-376q0 -76 15.5 -124t51 -72t77.5 -32t110 -8z" />
    <glyph glyph-name="uniFE8CFB8B.liga" unicode="&#xfe8c;&#xfb8b;" horiz-adv-x="1411" 
d="M416 1151q-38 0 -64 26.5t-26 63.5q0 38 25 64t65 26t64 -26t24 -64q0 -37 -25.5 -63.5t-62.5 -26.5zM1130 1010h142v-107h-367v101h64q-33 29 -33 88q0 69 47.5 120.5t128.5 51.5q49 0 89 -24t56 -56l-51 -78q-47 41 -92 41q-36 0 -64 -20t-28 -50q0 -29 28.5 -48
t79.5 -19zM297 926q-40 0 -65 26t-25 64t25 64t65 26t64 -26t24 -64t-24 -64t-64 -26zM444 1016q0 38 25.5 64t65.5 26t64 -26t24 -64t-24 -64t-64 -26t-65.5 26t-25.5 64zM1411 170l35 -6l-6 -158l-35 -6q-163 0 -253.5 60.5t-111.5 203.5h-465q7 -72 7 -112
q0 -114 -39 -219t-109.5 -186.5t-180 -130t-241.5 -48.5q-90 0 -155 18l16 160q63 -8 139 -8q110 0 197.5 37t137.5 96t76 125.5t26 132.5q0 104 -21 227t-70 353l134 32q34 -139 63 -307h473v348h129v-376q0 -76 15.5 -124t51 -72t77.5 -32t110 -8z" />
    <glyph glyph-name="uniFC67.liga" unicode="&#xfe8c;&#xfee6;" horiz-adv-x="2105" 
d="M1827 1047h141v-107h-366v100h63q-33 29 -33 88q0 69 47.5 120.5t128.5 51.5q50 0 90 -23.5t56 -55.5l-51 -78q-47 41 -93 41q-36 0 -64 -20t-28 -50q0 -29 29 -48t80 -19zM657 823q-42 0 -71 30t-29 71q0 40 29 70t71 30q41 0 70 -30t29 -70t-29 -70.5t-70 -30.5z
M2105 170l35 -6l-6 -158l-35 -6q-179 0 -271 74.5t-99 253.5h-431q2 -23 2 -68q0 -266 -173 -421.5t-463 -155.5q-284 0 -443.5 145.5t-159.5 390.5q0 228 105 455l119 -43q-37 -81 -63.5 -188t-26.5 -193q0 -197 126 -297t355 -100q227 0 358 98.5t131 277.5q0 180 -94 529
l135 39q53 -178 72 -299h444v321h129v-413q0 -76 15.5 -124t51 -72t77.5 -32t110 -8z" />
    <glyph glyph-name="uniFC68.liga" unicode="&#xfe8c;&#xfef0;" horiz-adv-x="1867" 
d="M1251 1026h142v-106h-367v100h64q-33 29 -33 88q0 69 47.5 120.5t128.5 51.5q49 0 89 -24t56 -56l-51 -78q-47 41 -92 41q-37 0 -64.5 -19.5t-27.5 -49.5q0 -29 28.5 -48.5t79.5 -19.5zM1868 170l35 -6l-7 -158l-34 -6q-68 0 -115.5 15t-89 56.5t-74.5 98t-78 154.5
l-41 90q-48 106 -113.5 161.5t-164.5 55.5q-116 0 -210.5 -73.5t-94.5 -166.5q0 -117 174 -155l147 -31q76 -16 125 -33.5t90 -45.5t59.5 -71t18.5 -104q0 -62 -30.5 -124t-94 -119.5t-152 -102t-214 -71t-269.5 -26.5q-318 0 -496 160t-178 430q0 249 111 498l119 -43
q-43 -101 -69.5 -220t-26.5 -206q0 -223 145.5 -336t411.5 -113q117 0 220 18t172.5 46.5t120 62.5t74 66.5t23.5 58.5q0 48 -40 70.5t-142 44.5l-179 39q-69 15 -120 46t-79 71.5t-41 82.5t-13 89q0 184 132 305t330 121q73 0 131.5 -24t103.5 -71t76.5 -97.5t65.5 -123.5
l53 -114q23 -49 38 -76.5t35 -54.5t40.5 -40t48.5 -20.5t66 -7.5z" />
    <glyph glyph-name="uniFC03.liga" unicode="&#xfe8b;&#xfef0;" 
d="M1155 1165h141v-106h-366v100h63q-32 28 -32 88q0 69 47.5 120.5t128.5 51.5q49 0 89 -24t56 -56l-51 -77q-47 41 -92 41q-36 0 -64 -20t-28 -50q0 -29 28.5 -48.5t79.5 -19.5zM1223 262q91 -21 143.5 -88t52.5 -170q0 -71 -27.5 -140.5t-86 -134t-142 -113.5t-205 -78.5
t-264.5 -29.5q-298 0 -465.5 155.5t-167.5 416.5q0 239 111 498l119 -43q-44 -99 -69 -217t-25 -209q0 -214 134.5 -322.5t383.5 -108.5q117 0 215 20.5t162 52.5t109 73t65 81t20 77q0 70 -50 106.5t-167 36.5h-227v164h250q33 40 44 86t11 133q0 164 -92 416l133 47
q92 -234 92 -447q0 -159 -57 -262z" />
    <glyph glyph-name="uniFC69.liga" unicode="&#xfe8c;&#xfef2;" horiz-adv-x="1867" 
d="M279 823h141v-106h-367v100h64q-33 29 -33 88q0 69 47.5 120.5t128.5 51.5q49 0 89.5 -24t56.5 -56l-52 -77q-47 41 -92 41q-36 0 -64 -20t-28 -50q0 -29 29 -48.5t80 -19.5zM1868 170l35 -6l-7 -158l-34 -6q-68 0 -115.5 15t-89 56.5t-74.5 98t-78 154.5l-41 90
q-48 106 -113.5 161.5t-164.5 55.5q-116 0 -210.5 -73.5t-94.5 -166.5q0 -117 174 -155l147 -31q76 -16 125 -33.5t90 -45.5t59.5 -71t18.5 -104q0 -62 -30.5 -124t-94 -119.5t-152 -102t-214 -71t-269.5 -26.5q-318 0 -496 160t-178 430q0 249 111 498l119 -43
q-43 -101 -69.5 -220t-26.5 -206q0 -223 145.5 -336t411.5 -113q117 0 220 18t172.5 46.5t120 62.5t74 66.5t23.5 58.5q0 48 -40 70.5t-142 44.5l-179 39q-69 15 -120 46t-79 71.5t-41 82.5t-13 89q0 184 132 305t330 121q73 0 131.5 -24t103.5 -71t76.5 -97.5t65.5 -123.5
l53 -114q23 -49 38 -76.5t35 -54.5t40.5 -40t48.5 -20.5t66 -7.5zM1309 -551q39 0 65.5 -27.5t26.5 -66.5t-26 -66.5t-66 -27.5q-38 0 -66.5 28t-28.5 66t28.5 66t66.5 28zM1567 -551q37 0 64.5 -28t27.5 -66t-27.5 -66t-64.5 -28q-41 0 -67.5 27.5t-26.5 66.5t26.5 66.5
t67.5 27.5z" />
    <glyph glyph-name="uniFC04.liga" unicode="&#xfe8b;&#xfef2;" 
d="M1155 1165h141v-106h-366v100h63q-32 28 -32 88q0 69 47.5 120.5t128.5 51.5q49 0 89 -24t56 -56l-51 -77q-47 41 -92 41q-36 0 -64 -20t-28 -50q0 -29 28.5 -48.5t79.5 -19.5zM1223 262q91 -21 143.5 -88t52.5 -170q0 -71 -27.5 -140.5t-86 -134t-142 -113.5t-205 -78.5
t-264.5 -29.5q-298 0 -465.5 155.5t-167.5 416.5q0 239 111 498l119 -43q-44 -99 -69 -217t-25 -209q0 -214 134.5 -322.5t383.5 -108.5q117 0 215 20.5t162 52.5t109 73t65 81t20 77q0 70 -50 106.5t-167 36.5h-227v164h250q33 40 44 86t11 133q0 164 -92 416l133 47
q92 -234 92 -447q0 -159 -57 -262zM606 -649q39 0 65.5 -27.5t26.5 -66.5t-26 -67t-66 -28q-38 0 -66 28.5t-28 66.5t28 66t66 28zM864 -649q37 0 64.5 -28t27.5 -66t-27.5 -66.5t-64.5 -28.5q-40 0 -67 28t-27 67t26.5 66.5t67.5 27.5z" />
    <glyph glyph-name="uniFE8CFE8A.liga" unicode="&#xfe8c;&#xfe8a;" horiz-adv-x="1867" 
d="M1251 1026h142v-106h-367v100h64q-33 29 -33 88q0 69 47.5 120.5t128.5 51.5q49 0 89 -24t56 -56l-51 -78q-47 41 -92 41q-37 0 -64.5 -19.5t-27.5 -49.5q0 -29 28.5 -48.5t79.5 -19.5zM279 823h141v-106h-367v100h64q-33 29 -33 88q0 69 47.5 120.5t128.5 51.5
q49 0 89.5 -24t56.5 -56l-52 -77q-47 41 -92 41q-36 0 -64 -20t-28 -50q0 -29 29 -48.5t80 -19.5zM1868 170l35 -6l-7 -158l-34 -6q-68 0 -115.5 15t-89 56.5t-74.5 98t-78 154.5l-41 90q-48 106 -113.5 161.5t-164.5 55.5q-116 0 -210.5 -73.5t-94.5 -166.5
q0 -117 174 -155l147 -31q76 -16 125 -33.5t90 -45.5t59.5 -71t18.5 -104q0 -62 -30.5 -124t-94 -119.5t-152 -102t-214 -71t-269.5 -26.5q-318 0 -496 160t-178 430q0 249 111 498l119 -43q-43 -101 -69.5 -220t-26.5 -206q0 -223 145.5 -336t411.5 -113q117 0 220 18
t172.5 46.5t120 62.5t74 66.5t23.5 58.5q0 48 -40 70.5t-142 44.5l-179 39q-69 15 -120 46t-79 71.5t-41 82.5t-13 89q0 184 132 305t330 121q73 0 131.5 -24t103.5 -71t76.5 -97.5t65.5 -123.5l53 -114q23 -49 38 -76.5t35 -54.5t40.5 -40t48.5 -20.5t66 -7.5z" />
    <glyph glyph-name="uniFE8BFE8A.liga" unicode="&#xfe8b;&#xfe8a;" 
d="M1155 1165h141v-106h-366v100h63q-32 28 -32 88q0 69 47.5 120.5t128.5 51.5q49 0 89 -24t56 -56l-51 -77q-47 41 -92 41q-36 0 -64 -20t-28 -50q0 -29 28.5 -48.5t79.5 -19.5zM272 784h142v-106h-367v100h64q-33 29 -33 88q0 69 47.5 120.5t128.5 51.5q49 0 89 -24
t56 -56l-51 -77q-47 41 -92 41q-36 0 -64 -20t-28 -50q0 -29 28.5 -48.5t79.5 -19.5zM1223 262q91 -21 143.5 -88t52.5 -170q0 -71 -27.5 -140.5t-86 -134t-142 -113.5t-205 -78.5t-264.5 -29.5q-298 0 -465.5 155.5t-167.5 416.5q0 239 111 498l119 -43q-44 -99 -69 -217
t-25 -209q0 -214 134.5 -322.5t383.5 -108.5q117 0 215 20.5t162 52.5t109 73t65 81t20 77q0 70 -50 106.5t-167 36.5h-227v164h250q33 40 44 86t11 133q0 164 -92 416l133 47q92 -234 92 -447q0 -159 -57 -262z" />
    <glyph glyph-name="uniFBFEFBFF.rlig" unicode="&#xfbfe;&#xfbff;" horiz-adv-x="1150" 
d="M307 199q-26 -93 -110.5 -146t-202.5 -53l-35 6l6 158l35 6q47 0 81 4.5t68.5 18.5t56 39.5t35 69t13.5 104.5v290h135v-270q0 -76 16 -126.5t50 -78.5t78.5 -39.5t109.5 -11.5q126 0 189 51t63 158q0 154 -55 409l131 31q57 -267 57 -418q0 -194 -110.5 -297.5
t-288.5 -103.5q-124 0 -209.5 50t-112.5 149zM193 -158q39 0 65.5 -27.5t26.5 -66.5t-26 -66.5t-66 -27.5q-38 0 -66.5 28t-28.5 66t28.5 66t66.5 28zM451 -158q37 0 64.5 -28t27.5 -66t-27.5 -66t-64.5 -28q-41 0 -68 27.5t-27 66.5t27 66.5t68 27.5zM723 -158
q39 0 65.5 -27.5t26.5 -66.5t-26 -66.5t-66 -27.5q-38 0 -66 28t-28 66t28 66t66 28zM981 -158q37 0 64.5 -28t27.5 -66t-27.5 -66t-64.5 -28q-41 0 -67.5 27.5t-26.5 66.5t26.5 66.5t67.5 27.5z" />
    <glyph glyph-name="uni066E.init" unicode="&#x66e;" horiz-adv-x="507" 
d="M-6 0l-35 6l6 158l35 6q126 0 189 51t63 158q0 154 -55 409l131 31q57 -267 57 -418q0 -194 -108.5 -297.5t-282.5 -103.5z" />
    <glyph glyph-name="uni066E.medi" unicode="&#x66e;" horiz-adv-x="643" 
d="M643 170l35 -6l-6 -158l-35 -6q-128 0 -216.5 50t-113.5 149q-24 -93 -109.5 -146t-203.5 -53l-35 6l6 158l35 6q47 0 81 4.5t68.5 18.5t56 39.5t35 69t13.5 104.5v290h135v-290q0 -76 15.5 -124t51 -72t77.5 -32t110 -8z" />
    <glyph glyph-name="uni066E.fina" unicode="&#x66e;" horiz-adv-x="1906" 
d="M1907 170l35 -6l-7 -158l-34 -6q-135 0 -225 55t-109 166q-43 -112 -162.5 -166.5t-327.5 -54.5h-407q-321 0 -465 111t-144 352q0 173 84 379l119 -43q-69 -179 -69 -310q0 -165 119 -242t356 -77h407q441 0 441 229v297h135v-290q0 -76 15.5 -124t51 -72t77.5 -32
t110 -8z" />
    <glyph glyph-name="uni066F.fina" unicode="&#x66f;" horiz-adv-x="1589" 
d="M1452 170h137l35 -18l-6 -132l-35 -20h-156q-111 -479 -696 -479q-327 0 -498.5 155.5t-171.5 423.5q0 228 105 455l119 -43q-37 -81 -63.5 -188t-26.5 -193q0 -440 557 -440q249 0 384 76.5t171 232.5h-279q-187 0 -285 90.5t-98 239.5q0 192 116 325t298 133
q123 0 213.5 -70t136 -191.5t45.5 -278.5q0 -53 -2 -78zM778 340q0 -83 68.5 -126.5t197.5 -43.5h277v45q0 49 -7.5 100.5t-27 107.5t-49 99.5t-78.5 72t-110 28.5q-65 0 -118 -25.5t-85.5 -67t-50 -91t-17.5 -99.5z" />
    <glyph glyph-name="uni06A1.init" unicode="&#x6a1;" horiz-adv-x="989" 
d="M477 1147q93 0 170 -43t126.5 -115.5t76.5 -167t27 -198.5q0 -153 -22.5 -262.5t-63 -179t-108 -110t-147 -56t-190.5 -15.5h-352l-35 6l6 158l35 6h340q72 0 124.5 6.5t106.5 27.5t88.5 57.5t57.5 101t26 153.5q-98 -158 -315 -158q-179 0 -272 96.5t-93 256.5
q0 189 115 312.5t299 123.5zM442 528q112 0 187 43t110 113q-7 49 -27 97.5t-52.5 94.5t-84 74.5t-114.5 28.5q-123 0 -193.5 -76.5t-70.5 -173.5q0 -95 66.5 -148t178.5 -53z" />
    <glyph glyph-name="uni06A1.medi" unicode="&#x6a1;" horiz-adv-x="1036" 
d="M1036 170l35 -6l-6 -158l-35 -6q-297 0 -528 94q-208 -94 -508 -94l-35 6l6 158l35 6q155 0 317 27q-188 145 -188 340q0 114 48.5 214t141 163t209.5 63q165 0 271 -124.5t106 -295.5q0 -215 -215 -356q155 -31 346 -31zM260 557q0 -98 64.5 -176t187.5 -129
q125 50 193.5 123t68.5 162q0 110 -71.5 190t-186.5 80q-112 0 -184 -74.5t-72 -175.5z" />
    <glyph glyph-name="uni06A1.fina" unicode="&#x6a1;" horiz-adv-x="1955" 
d="M1956 170l35 -6l-6 -158l-35 -6q-285 0 -514 92q-83 -41 -217.5 -66.5t-300.5 -25.5h-248q-321 0 -465 111t-144 352q0 173 84 379l119 -43q-69 -179 -69 -312q0 -163 119 -240t356 -77h305q142 0 270 25q-196 143 -196 342q0 114 48.5 213.5t141 163t209.5 63.5
q165 0 271 -124.5t106 -295.5q0 -103 -52.5 -195.5t-150.5 -162.5q155 -29 334 -29zM1180 557q0 -99 66 -177.5t194 -129.5q120 50 187 124.5t67 162.5q0 110 -71.5 190t-186.5 80q-112 0 -184 -74.5t-72 -175.5z" />
    <glyph glyph-name="uniFB51" unicode="&#x671;" horiz-adv-x="532" arabic-form="final" 
d="M455 1571q0 -75 -50 -116.5t-153 -41.5h-268v105h61q41 103 109 165t141 62q75 0 117.5 -50.5t42.5 -123.5zM291 1628q-88 0 -158 -110h127q102 0 102 51q0 26 -19.5 42.5t-51.5 16.5zM532 170l35 -6l-6 -158l-35 -6q-172 0 -277.5 81t-105.5 247v966h136v-909
q0 -67 18 -111t54.5 -66t78 -30t102.5 -8z" />
    <glyph glyph-name="uniFB57" unicode="&#x67e;" horiz-adv-x="1906" arabic-form="final" 
d="M1907 170l35 -6l-7 -158l-34 -6q-135 0 -225 55t-109 166q-43 -112 -162.5 -166.5t-327.5 -54.5h-407q-321 0 -465 111t-144 352q0 173 84 379l119 -43q-69 -179 -69 -310q0 -165 119 -242t356 -77h407q441 0 441 229v297h135v-290q0 -76 15.5 -124t51 -72t77.5 -32
t110 -8zM850 -248q0 -38 -24 -64t-64 -26t-65 26t-25 64t25 64t65 26t64 -26t24 -64zM999 -158q40 0 64 -26t24 -64t-24 -64t-64 -26t-65 26t-25 64t25 64t65 26zM881 -383q37 0 62.5 -26.5t25.5 -63.5q0 -38 -24 -64t-64 -26t-65 26t-25 64q0 37 26 63.5t64 26.5z" />
    <glyph glyph-name="uniFB58" unicode="&#x67e;" horiz-adv-x="507" arabic-form="initial" 
d="M-6 0l-35 6l6 158l35 6q126 0 189 51t63 158q0 154 -55 409l131 31q57 -267 57 -418q0 -194 -108.5 -297.5t-282.5 -103.5zM90 -338q-40 0 -65 26t-25 64t25 64t65 26t64 -26t24 -64t-24 -64t-64 -26zM328 -338q-40 0 -65 26t-25 64t25 64t65 26t64 -26t24 -64t-24 -64
t-64 -26zM209 -563q-40 0 -65 26t-25 64q0 37 26 63.5t64 26.5q37 0 62.5 -26.5t25.5 -63.5q0 -38 -24 -64t-64 -26z" />
    <glyph glyph-name="uniFB59" unicode="&#x67e;" horiz-adv-x="643" arabic-form="medial" 
d="M643 170l35 -6l-6 -158l-35 -6q-128 0 -216.5 50t-113.5 149q-24 -93 -109.5 -146t-203.5 -53l-35 6l6 158l35 6q47 0 81 4.5t68.5 18.5t56 39.5t35 69t13.5 104.5v290h135v-290q0 -76 15.5 -124t51 -72t77.5 -32t110 -8zM291 -248q0 -38 -24 -64t-64 -26t-65 26t-25 64
t25 64t65 26t64 -26t24 -64zM440 -158q40 0 64 -26t24 -64t-24 -64t-64 -26t-65 26t-25 64t25 64t65 26zM322 -383q37 0 62.5 -26.5t25.5 -63.5q0 -38 -24 -64t-64 -26t-65.5 26t-25.5 64q0 37 26.5 63.5t64.5 26.5z" />
    <glyph glyph-name="uniFB6B" unicode="&#x6a4;" horiz-adv-x="1955" arabic-form="final" 
d="M1450 1401q-38 0 -64 26.5t-26 63.5q0 38 25 64t65 26t64 -26t24 -64q0 -37 -25.5 -63.5t-62.5 -26.5zM1331 1176q-40 0 -65 26t-25 64t25 64t65 26t64 -26t24 -64t-24 -64t-64 -26zM1479 1266q0 38 25 64t65 26t64 -26t24 -64t-24 -64t-64 -26t-65 26t-25 64zM1956 170
l35 -6l-6 -158l-35 -6q-285 0 -514 92q-83 -41 -217.5 -66.5t-300.5 -25.5h-248q-321 0 -465 111t-144 352q0 173 84 379l119 -43q-69 -179 -69 -312q0 -163 119 -240t356 -77h305q142 0 270 25q-196 143 -196 342q0 114 48.5 213.5t141 163t209.5 63.5q165 0 271 -124.5
t106 -295.5q0 -103 -52.5 -195.5t-150.5 -162.5q155 -29 334 -29zM1180 557q0 -99 66 -177.5t194 -129.5q120 50 187 124.5t67 162.5q0 110 -71.5 190t-186.5 80q-112 0 -184 -74.5t-72 -175.5z" />
    <glyph glyph-name="uniFB6C" unicode="&#x6a4;" horiz-adv-x="989" arabic-form="initial" 
d="M479 1571q-38 0 -64 26.5t-26 63.5q0 38 25 64t65 26t64 -26t24 -64q0 -37 -25.5 -63.5t-62.5 -26.5zM360 1346q-40 0 -65 26t-25 64t25 64t65 26t64.5 -26t24.5 -64t-24.5 -64t-64.5 -26zM508 1436q0 38 25 64t65 26t64 -26t24 -64t-24 -64t-64 -26t-65 26t-25 64z
M477 1147q93 0 170 -43t126.5 -115.5t76.5 -167t27 -198.5q0 -153 -22.5 -262.5t-63 -179t-108 -110t-147 -56t-190.5 -15.5h-352l-35 6l6 158l35 6h340q72 0 124.5 6.5t106.5 27.5t88.5 57.5t57.5 101t26 153.5q-98 -158 -315 -158q-179 0 -272 96.5t-93 256.5
q0 189 115 312.5t299 123.5zM442 528q112 0 187 43t110 113q-7 49 -27 97.5t-52.5 94.5t-84 74.5t-114.5 28.5q-123 0 -193.5 -76.5t-70.5 -173.5q0 -95 66.5 -148t178.5 -53z" />
    <glyph glyph-name="uniFB6D" unicode="&#x6a4;" horiz-adv-x="1036" arabic-form="medial" 
d="M530 1401q-38 0 -64 26.5t-26 63.5q0 38 25 64t65 26t64 -26t24 -64q0 -37 -25.5 -63.5t-62.5 -26.5zM412 1176q-40 0 -65 26t-25 64t25 64t65 26t64 -26t24 -64t-24 -64t-64 -26zM559 1266q0 38 25 64t65 26t64 -26t24 -64t-24 -64t-64 -26t-65 26t-25 64zM1036 170
l35 -6l-6 -158l-35 -6q-297 0 -528 94q-208 -94 -508 -94l-35 6l6 158l35 6q155 0 317 27q-188 145 -188 340q0 114 48.5 214t141 163t209.5 63q165 0 271 -124.5t106 -295.5q0 -215 -215 -356q155 -31 346 -31zM260 557q0 -98 64.5 -176t187.5 -129q125 50 193.5 123
t68.5 162q0 110 -71.5 190t-186.5 80q-112 0 -184 -74.5t-72 -175.5z" />
    <glyph glyph-name="uniFB7B" unicode="&#x686;" horiz-adv-x="1394" arabic-form="final" 
d="M1395 170l35 -6l-7 -158l-34 -6q-100 0 -172.5 28t-117 75.5t-70.5 124t-35 159.5t-9 197q-399 -113 -605 -294t-206 -409q0 -58 16 -112.5t55.5 -107.5t98.5 -92t153 -63t212 -24q171 0 317.5 34.5t218.5 67.5l21 -147q-29 -16 -72.5 -33.5t-116 -40t-173.5 -37
t-208 -14.5q-308 0 -481.5 148.5t-173.5 410.5q0 142 61.5 271t167.5 227t242.5 169t290.5 107h-748v156h1182v-156l-139 -31q0 -242 63.5 -343t233.5 -101zM676 84q0 -38 -24 -64t-64 -26t-65 26t-25 64t25 64t65 26t64 -26t24 -64zM913 84q0 -38 -24 -64t-64 -26t-65 26
t-25 64t25 64t65 26t64 -26t24 -64zM707 -231q-40 0 -65.5 26t-25.5 64q0 37 26.5 63.5t64.5 26.5q37 0 62.5 -26.5t25.5 -63.5q0 -38 -24 -64t-64 -26z" />
    <glyph glyph-name="uniFB7C" unicode="&#x686;" horiz-adv-x="1486" arabic-form="initial" 
d="M1202 569h223l-10 -182h-360q-326 -223 -563 -305t-498 -82l-35 6l6 158l35 6q83 0 146.5 4.5t155.5 22t182.5 49.5t212.5 90.5t259 140.5q-19 10 -66 36t-77 42q-72 38 -97 50.5t-83.5 37.5t-106.5 34t-100 9q-158 0 -287 -90l-65 111q40 55 139.5 102t222.5 47
q49 0 96.5 -8t79 -16.5t77 -30.5t63 -32t66 -40t59.5 -37q142 -83 192 -103t133 -20zM860 -94q0 -38 -24 -64t-64 -26t-65 26t-25 64t25 64t65 26t64 -26t24 -64zM1010 -4q40 0 64 -26t24 -64t-24 -64t-64 -26t-65 26t-25 64t25 64t65 26zM891 -229q37 0 62.5 -26.5
t25.5 -63.5q0 -38 -24 -64.5t-64 -26.5t-65 26.5t-25 64.5q0 37 26 63.5t64 26.5z" />
    <glyph glyph-name="uniFB7D" unicode="&#x686;" horiz-adv-x="1523" arabic-form="medial" 
d="M1524 170l35 -6l-7 -158l-34 -6q-110 0 -185 26t-118 79t-62.5 120t-24.5 162h-73q-326 -223 -563 -305t-498 -82l-35 6l6 158l35 6q83 0 146.5 4.5t155.5 22t182.5 49.5t212.5 90.5t259 140.5q-19 10 -66 36t-77 42q-72 38 -97 50.5t-83.5 37.5t-106.5 34t-100 9
q-158 0 -287 -90l-65 111q40 55 139.5 102t222.5 47q49 0 96.5 -8t79 -16.5t77 -30.5t63 -32t66 -40t59.5 -37q142 -83 192 -103t133 -20h223l-10 -182h-172q12 -117 75 -167t206 -50zM860 -94q0 -38 -24 -64t-64 -26t-65 26t-25 64t25 64t65 26t64 -26t24 -64zM1010 -4
q40 0 64 -26t24 -64t-24 -64t-64 -26t-65 26t-25 64t25 64t65 26zM891 -229q37 0 62.5 -26.5t25.5 -63.5q0 -38 -24 -64.5t-64 -26.5t-65 26.5t-25 64.5q0 37 26 63.5t64 26.5z" />
    <glyph glyph-name="uniFB8B" unicode="&#x698;" horiz-adv-x="774" arabic-form="final" 
d="M426 1079q-38 0 -64 26.5t-26 63.5q0 38 25 64.5t65 26.5t64 -26.5t24 -64.5q0 -37 -25.5 -63.5t-62.5 -26.5zM307 854q-40 0 -65 26t-25 64t25 64t65 26t64 -26t24 -64t-24 -64t-64 -26zM455 944q0 38 25 64t65 26t64 -26t24 -64t-24 -64t-64 -26t-65 26t-25 64z
M580 170h194l35 -6l-6 -158l-35 -6h-197q-39 -196 -186.5 -324.5t-372.5 -128.5q-86 0 -155 19l16 160q71 -9 139 -9q110 0 197.5 35.5t138 92.5t76 121.5t25.5 129.5q0 44 -3 89t-12.5 108.5t-15 98.5t-21.5 126t-22 125l133 33q67 -351 72 -506z" />
    <glyph glyph-name="uniFB8F" unicode="&#x6a9;" horiz-adv-x="1964" arabic-form="final" 
d="M1964 170l35 -6l-6 -158l-35 -6h-16q-102 0 -178 26.5t-138.5 76.5t-150.5 147q-55 -250 -435 -250h-370q-321 0 -465 111t-144 352q0 173 84 379l119 -43q-69 -179 -69 -310q0 -165 119 -242t356 -77h387q163 0 232.5 38.5t88.5 131.5l-409 479v154l841 479l62 -141
l-762 -424l426 -486q47 -54 69.5 -78t58.5 -57t60.5 -46t62.5 -27.5t79.5 -18.5t97.5 -4z" />
    <glyph glyph-name="uniFB90" unicode="&#x6a9;" horiz-adv-x="892" arabic-form="initial" 
d="M868 1294l-692 -411q213 -125 277 -169q178 -123 226 -244q21 -53 21 -110q0 -179 -126.5 -269.5t-370.5 -90.5h-209l-35 6l6 158l35 6h221q161 0 259 40t98 122q0 94 -111 184q-78 63 -308 191q-14 8 -44 24q-55 31 -84 47v180l776 474z" />
    <glyph glyph-name="uniFB91" unicode="&#x6a9;" horiz-adv-x="1091" arabic-form="medial" 
d="M1092 170l34 -6l-6 -158l-35 -6h-16q-102 0 -178 26.5t-138.5 76.5t-150.5 147q-55 -250 -434 -250h-174l-35 6l6 158l35 6h184q164 0 233.5 38.5t88.5 131.5l-410 479v154l842 479l61 -141l-761 -424l395 -451q53 -61 80 -90t66 -66t66 -52.5t66.5 -31.5t82 -21t98.5 -5
z" />
    <glyph glyph-name="uniFB93" unicode="&#x6af;" horiz-adv-x="1964" arabic-form="final" 
d="M1708 1681l39 -90l-791 -450l-38 90zM1964 170l35 -6l-6 -158l-35 -6h-16q-102 0 -178 26.5t-138.5 76.5t-150.5 147q-55 -250 -435 -250h-370q-321 0 -465 111t-144 352q0 173 84 379l119 -43q-69 -179 -69 -310q0 -165 119 -242t356 -77h387q163 0 232.5 38.5
t88.5 131.5l-409 479v154l841 479l62 -141l-762 -424l426 -486q47 -54 69.5 -78t58.5 -57t60.5 -46t62.5 -27.5t79.5 -18.5t97.5 -4z" />
    <glyph glyph-name="uniFB94" unicode="&#x6af;" horiz-adv-x="892" arabic-form="initial" 
d="M707 1665l41 -88l-732 -449l-41 89zM868 1294l-692 -411q213 -125 277 -169q178 -123 226 -244q21 -53 21 -110q0 -179 -126.5 -269.5t-370.5 -90.5h-209l-35 6l6 158l35 6h221q161 0 259 40t98 122q0 94 -111 184q-78 63 -308 191q-14 8 -44 24q-55 31 -84 47v180
l776 474z" />
    <glyph glyph-name="uniFB95" unicode="&#x6af;" horiz-adv-x="1091" arabic-form="medial" 
d="M836 1681l38 -90l-790 -450l-39 90zM1092 170l34 -6l-6 -158l-35 -6h-16q-102 0 -178 26.5t-138.5 76.5t-150.5 147q-55 -250 -434 -250h-174l-35 6l6 158l35 6h184q164 0 233.5 38.5t88.5 131.5l-410 479v154l842 479l61 -141l-761 -424l395 -451q53 -61 80 -90t66 -66
t66 -52.5t66.5 -31.5t82 -21t98.5 -5z" />
    <glyph glyph-name="uniFB9F" unicode="&#x6ba;" horiz-adv-x="1507" arabic-form="final" 
d="M1298 170h209l35 -6l-6 -158l-35 -6h-211q-37 -215 -203.5 -338t-422.5 -123q-283 0 -443 146t-160 391q0 227 105 454l119 -43q-37 -81 -63.5 -188t-26.5 -193q0 -197 126 -297t355 -100q227 0 358 99t131 278t-94 528l135 39q85 -299 92 -483z" />
    <glyph glyph-name="uniFBFD" unicode="&#x6cc;" horiz-adv-x="1470" arabic-form="final" 
d="M948 170h522l35 -6l-6 -158l-35 -6h-47q-1 -76 -28.5 -147t-85 -134t-140 -110t-201.5 -74t-260 -27q-303 0 -472 160t-169 430q0 239 111 498l119 -43q-44 -99 -70 -217.5t-26 -208.5q0 -223 138 -336t390 -113q140 0 250.5 30t174.5 78.5t98 103t36 110.5h-334v170z
" />
    <glyph glyph-name="uniFBFE" unicode="&#x6cc;" horiz-adv-x="507" arabic-form="initial" 
d="M-6 0l-35 6l6 158l35 6q126 0 189 51t63 158q0 154 -55 409l131 31q57 -267 57 -418q0 -194 -108.5 -297.5t-282.5 -103.5zM80 -346q-38 0 -66 28t-28 66t28 66t66 28q39 0 65.5 -27.5t26.5 -66.5t-26 -66.5t-66 -27.5zM338 -346q-41 0 -67.5 27.5t-26.5 66.5t26.5 66.5
t67.5 27.5q37 0 64.5 -28t27.5 -66t-27.5 -66t-64.5 -28z" />
    <glyph glyph-name="uniFBFF" unicode="&#x6cc;" horiz-adv-x="643" arabic-form="medial" 
d="M643 170l35 -6l-6 -158l-35 -6q-128 0 -216.5 50t-113.5 149q-24 -93 -109.5 -146t-203.5 -53l-35 6l6 158l35 6q47 0 81 4.5t68.5 18.5t56 39.5t35 69t13.5 104.5v290h135v-290q0 -76 15.5 -124t51 -72t77.5 -32t110 -8zM193 -158q39 0 65.5 -27.5t26.5 -66.5t-26 -66.5
t-66 -27.5q-38 0 -66.5 28t-28.5 66t28.5 66t66.5 28zM451 -158q37 0 64.5 -28t27.5 -66t-27.5 -66t-64.5 -28q-41 0 -68 27.5t-27 66.5t27 66.5t68 27.5z" />
    <glyph glyph-name="uniFE82" unicode="&#x622;" horiz-adv-x="532" arabic-form="final" 
d="M481 1561v-111q-60 -37 -159 -37q-53 0 -132.5 19.5t-113.5 19.5q-70 0 -135 -27v107q71 49 155 49q45 0 127.5 -19.5t132.5 -19.5q61 0 125 19zM143 328v966h136v-909q0 -67 18 -111t54.5 -66t78 -30t102.5 -8l35 -6l-6 -158l-35 -6q-172 0 -277.5 81t-105.5 247z" />
    <glyph glyph-name="uniFE84" unicode="&#x623;" horiz-adv-x="532" arabic-form="final" 
d="M252 1522h141v-107h-366v101h63q-33 29 -33 88q0 69 47.5 120.5t128.5 51.5q49 0 89.5 -24t56.5 -56l-51 -78q-47 41 -92 41q-37 0 -65 -20t-28 -50q0 -29 29 -48t80 -19zM532 170l35 -6l-6 -158l-35 -6q-172 0 -277.5 81t-105.5 247v966h136v-909q0 -67 18 -111
t54.5 -66t78 -30t102.5 -8z" />
    <glyph glyph-name="uniFE86" unicode="&#x624;" horiz-adv-x="1093" arabic-form="final" 
d="M604 1016h141v-107h-366v101h63q-32 28 -32 88q0 69 47.5 120.5t128.5 51.5q49 0 89 -24t56 -56l-51 -78q-47 41 -92 41q-36 0 -64 -20t-28 -50q0 -29 28.5 -48t79.5 -19zM956 170h138l34 -18l-6 -132l-35 -20h-159q-27 -99 -77 -178.5t-126 -142.5t-187.5 -97.5
t-250.5 -34.5q-159 0 -277 35l17 160q107 -25 268 -25q196 0 321 79.5t177 203.5h-261q-187 0 -284.5 90.5t-97.5 239.5q0 192 115.5 325t297.5 133q123 0 213.5 -70t136 -191.5t45.5 -278.5q0 -51 -2 -78zM283 340q0 -83 68.5 -126.5t197.5 -43.5h276v55q0 46 -7.5 95.5
t-27 104.5t-49 98t-78.5 71.5t-110 28.5q-65 0 -118 -25.5t-85 -67t-49.5 -91t-17.5 -99.5z" />
    <glyph glyph-name="uniFE88" unicode="&#x625;" horiz-adv-x="534" arabic-form="final" 
d="M526 170h9l34 -6l-6 -158l-35 -6h-6q-170 0 -274.5 82t-104.5 246v1112h136v-1055q0 -66 17.5 -109.5t52.5 -66t76.5 -31t100.5 -8.5zM203 -352q0 -29 28.5 -48.5t79.5 -19.5h142v-106h-367v100h64q-33 29 -33 88q0 69 47.5 120.5t128.5 51.5q49 0 89 -24t56 -56l-51 -78
q-47 41 -92 41q-37 0 -64.5 -19.5t-27.5 -49.5z" />
    <glyph glyph-name="uniFE8A" unicode="&#x626;" horiz-adv-x="1470" arabic-form="final" 
d="M297 803h141v-107h-366v101h63q-33 29 -33 88q0 69 48 120.5t129 51.5q49 0 89 -24t56 -56l-51 -78q-47 41 -92 41q-37 0 -65 -20t-28 -50q0 -29 29 -48t80 -19zM948 170h522l35 -6l-6 -158l-35 -6h-47q-1 -76 -28.5 -147t-85 -134t-140 -110t-201.5 -74t-260 -27
q-303 0 -472 160t-169 430q0 239 111 498l119 -43q-44 -99 -70 -217.5t-26 -208.5q0 -223 138 -336t390 -113q140 0 250.5 30t174.5 78.5t98 103t36 110.5h-334v170z" />
    <glyph glyph-name="uniFE8B" unicode="&#x626;" horiz-adv-x="507" arabic-form="initial" 
d="M295 1034h141v-106h-366v100h63q-33 29 -33 88q0 69 47.5 120.5t128.5 51.5q49 0 89.5 -24t56.5 -56l-51 -78q-47 41 -92 41q-37 0 -65 -19.5t-28 -49.5q0 -29 29 -48.5t80 -19.5zM197 788l131 31q57 -267 57 -418q0 -194 -108.5 -297.5t-282.5 -103.5l-35 6l6 158l35 6
q126 0 189 51t63 158q0 154 -55 409z" />
    <glyph glyph-name="uniFE8C" unicode="&#x626;" horiz-adv-x="643" arabic-form="medial" 
d="M362 924h142v-107h-367v101h64q-33 29 -33 88q0 69 47.5 120.5t128.5 51.5q49 0 89 -24t56 -56l-51 -78q-47 41 -92 41q-36 0 -64 -20t-28 -50q0 -29 28.5 -48t79.5 -19zM643 170l35 -6l-6 -158l-35 -6q-128 0 -216.5 50t-113.5 149q-24 -93 -109.5 -146t-203.5 -53
l-35 6l6 158l35 6q47 0 81 4.5t68.5 18.5t56 39.5t35 69t13.5 104.5v290h135v-290q0 -76 15.5 -124t51 -72t77.5 -32t110 -8z" />
    <glyph glyph-name="uniFE8E" unicode="&#x627;" horiz-adv-x="534" arabic-form="final" 
d="M143 328v1112h136v-1055q0 -66 17.5 -109.5t52.5 -66t76.5 -31t100.5 -8.5h9l34 -6l-6 -158l-35 -6h-6q-170 0 -274.5 82t-104.5 246z" />
    <glyph glyph-name="uniFE90" unicode="&#x628;" horiz-adv-x="1906" arabic-form="final" 
d="M1907 170l35 -6l-7 -158l-34 -6q-135 0 -225 55t-109 166q-43 -112 -162.5 -166.5t-327.5 -54.5h-407q-321 0 -465 111t-144 352q0 173 84 379l119 -43q-69 -179 -69 -310q0 -165 119 -242t356 -77h407q441 0 441 229v297h135v-290q0 -76 15.5 -124t51 -72t77.5 -32
t110 -8zM881 -158q41 0 69.5 -30t28.5 -70t-28.5 -70t-69.5 -30q-42 0 -71.5 30t-29.5 70t29.5 70t71.5 30z" />
    <glyph glyph-name="uniFE91" unicode="&#x628;" horiz-adv-x="507" arabic-form="initial" 
d="M-6 0l-35 6l6 158l35 6q126 0 189 51t63 158q0 154 -55 409l131 31q57 -267 57 -418q0 -194 -108.5 -297.5t-282.5 -103.5zM209 -358q-42 0 -71 30t-29 70t29 70t71 30q41 0 69.5 -30t28.5 -70t-28.5 -70t-69.5 -30z" />
    <glyph glyph-name="uniFE92" unicode="&#x628;" horiz-adv-x="643" arabic-form="medial" 
d="M643 170l35 -6l-6 -158l-35 -6q-128 0 -216.5 50t-113.5 149q-24 -93 -109.5 -146t-203.5 -53l-35 6l6 158l35 6q47 0 81 4.5t68.5 18.5t56 39.5t35 69t13.5 104.5v290h135v-290q0 -76 15.5 -124t51 -72t77.5 -32t110 -8zM322 -158q41 0 69.5 -30t28.5 -70t-28.5 -70
t-69.5 -30q-42 0 -71.5 30t-29.5 70t29.5 70t71.5 30z" />
    <glyph glyph-name="uniFE94" unicode="&#x629;" horiz-adv-x="1128" arabic-form="final" 
d="M342 1260q-38 0 -66 28t-28 66t28 66t66 28q39 0 65.5 -27.5t26.5 -66.5t-26 -66.5t-66 -27.5zM600 1260q-41 0 -67.5 27.5t-26.5 66.5t26.5 66.5t67.5 27.5q37 0 64.5 -28t27.5 -66t-27.5 -66t-64.5 -28zM1128 170l35 -6l-6 -156l-35 -8q-335 0 -379 289
q-81 -162 -315 -162q-165 0 -266 92.5t-101 245.5q0 397 676 514v147h135v-720q0 -75 18 -123.5t55 -72.5t78.5 -32t104.5 -8zM446 299q120 0 195 40.5t96 96.5v395q-148 -27 -256.5 -66.5t-169 -86.5t-88.5 -95t-28 -100q0 -91 66.5 -137.5t184.5 -46.5z" />
    <glyph glyph-name="uniFE96" unicode="&#x62a;" horiz-adv-x="1906" arabic-form="final" 
d="M760 852q-38 0 -66 28t-28 66t28 66t66 28q39 0 65.5 -27.5t26.5 -66.5t-26 -66.5t-66 -27.5zM1018 852q-41 0 -67.5 27.5t-26.5 66.5t26.5 66.5t67.5 27.5q37 0 64.5 -28t27.5 -66t-27.5 -66t-64.5 -28zM1907 170l35 -6l-7 -158l-34 -6q-135 0 -225 55t-109 166
q-43 -112 -162.5 -166.5t-327.5 -54.5h-407q-321 0 -465 111t-144 352q0 173 84 379l119 -43q-69 -179 -69 -310q0 -165 119 -242t356 -77h407q441 0 441 229v297h135v-290q0 -76 15.5 -124t51 -72t77.5 -32t110 -8z" />
    <glyph glyph-name="uniFE97" unicode="&#x62a;" horiz-adv-x="507" arabic-form="initial" 
d="M31 1092q0 38 28 66t66 28q39 0 65.5 -27.5t26.5 -66.5t-26 -67t-66 -28q-38 0 -66 28.5t-28 66.5zM289 1092q0 39 26.5 66.5t67.5 27.5q37 0 64.5 -28t27.5 -66t-27.5 -66.5t-64.5 -28.5q-40 0 -67 28t-27 67zM-6 0l-35 6l6 158l35 6q126 0 189 51t63 158q0 154 -55 409
l131 31q57 -267 57 -418q0 -194 -108.5 -297.5t-282.5 -103.5z" />
    <glyph glyph-name="uniFE98" unicode="&#x62a;" horiz-adv-x="643" arabic-form="medial" 
d="M193 887q-38 0 -66.5 28t-28.5 66t28.5 66t66.5 28q39 0 65.5 -27.5t26.5 -66.5t-26 -66.5t-66 -27.5zM451 887q-41 0 -68 27.5t-27 66.5t27 66.5t68 27.5q37 0 64.5 -28t27.5 -66t-27.5 -66t-64.5 -28zM643 170l35 -6l-6 -158l-35 -6q-128 0 -216.5 50t-113.5 149
q-24 -93 -109.5 -146t-203.5 -53l-35 6l6 158l35 6q47 0 81 4.5t68.5 18.5t56 39.5t35 69t13.5 104.5v290h135v-290q0 -76 15.5 -124t51 -72t77.5 -32t110 -8z" />
    <glyph glyph-name="uniFE9A" unicode="&#x62b;" horiz-adv-x="1906" arabic-form="final" 
d="M891 1085q-38 0 -64 27t-26 64q0 38 25 64t65 26t64 -26t24 -64q0 -37 -26 -64t-62 -27zM772 860q-40 0 -65 26t-25 64t25 64t65 26t64 -26t24 -64t-24 -64t-64 -26zM920 950q0 38 25 64t65 26t64 -26t24 -64t-24 -64t-64 -26t-65 26t-25 64zM1907 170l35 -6l-7 -158
l-34 -6q-135 0 -225 55t-109 166q-43 -112 -162.5 -166.5t-327.5 -54.5h-407q-321 0 -465 111t-144 352q0 173 84 379l119 -43q-69 -179 -69 -310q0 -165 119 -242t356 -77h407q441 0 441 229v297h135v-290q0 -76 15.5 -124t51 -72t77.5 -32t110 -8z" />
    <glyph glyph-name="uniFE9B" unicode="&#x62b;" horiz-adv-x="507" arabic-form="initial" 
d="M256 1231q-38 0 -64 26.5t-26 63.5q0 38 25 64t65 26t64 -26t24 -64q0 -37 -25.5 -63.5t-62.5 -26.5zM137 1006q-40 0 -65 26t-25 64t25 64t65 26t64 -26t24 -64t-24 -64t-64 -26zM375 1006q-40 0 -65 26t-25 64t25 64t65 26t64 -26t24 -64t-24 -64t-64 -26zM-6 0l-35 6
l6 158l35 6q126 0 189 51t63 158q0 154 -55 409l131 31q57 -267 57 -418q0 -194 -108.5 -297.5t-282.5 -103.5z" />
    <glyph glyph-name="uniFE9C" unicode="&#x62b;" horiz-adv-x="643" arabic-form="medial" 
d="M324 1120q-38 0 -64.5 26.5t-26.5 63.5q0 38 25.5 64t65.5 26t64 -26t24 -64q0 -37 -25.5 -63.5t-62.5 -26.5zM205 895q-40 0 -65 26t-25 64t25 64t65 26t64 -26t24 -64t-24 -64t-64 -26zM352 985q0 38 25 64t65 26t64 -26t24 -64t-24 -64t-64 -26t-65 26t-25 64z
M643 170l35 -6l-6 -158l-35 -6q-128 0 -216.5 50t-113.5 149q-24 -93 -109.5 -146t-203.5 -53l-35 6l6 158l35 6q47 0 81 4.5t68.5 18.5t56 39.5t35 69t13.5 104.5v290h135v-290q0 -76 15.5 -124t51 -72t77.5 -32t110 -8z" />
    <glyph glyph-name="uniFE9E" unicode="&#x62c;" horiz-adv-x="1394" arabic-form="final" 
d="M1395 170l35 -6l-7 -158l-34 -6q-100 0 -172.5 28t-117 75.5t-70.5 124t-35 159.5t-9 197q-399 -113 -605 -294t-206 -409q0 -58 16 -112.5t55.5 -107.5t98.5 -92t153 -63t212 -24q171 0 317.5 34.5t218.5 67.5l21 -147q-29 -16 -72.5 -33.5t-116 -40t-173.5 -37
t-208 -14.5q-308 0 -481.5 148.5t-173.5 410.5q0 142 61.5 271t167.5 227t242.5 169t290.5 107h-748v156h1182v-156l-139 -31q0 -242 63.5 -343t233.5 -101zM590 10q0 41 29 71t71 30q41 0 69.5 -30.5t28.5 -70.5t-28.5 -70t-69.5 -30q-42 0 -71 30t-29 70z" />
    <glyph glyph-name="uniFE9F" unicode="&#x62c;" horiz-adv-x="1486" arabic-form="initial" 
d="M1202 569h223l-10 -182h-360q-326 -223 -563 -305t-498 -82l-35 6l6 158l35 6q83 0 146.5 4.5t155.5 22t182.5 49.5t212.5 90.5t259 140.5q-19 10 -66 36t-77 42q-72 38 -97 50.5t-83.5 37.5t-106.5 34t-100 9q-158 0 -287 -90l-65 111q40 55 139.5 102t222.5 47
q49 0 96.5 -8t79 -16.5t77 -30.5t63 -32t66 -40t59.5 -37q142 -83 192 -103t133 -20zM891 -4q41 0 69.5 -30t28.5 -70t-28.5 -70.5t-69.5 -30.5q-42 0 -71 30t-29 71q0 40 29 70t71 30z" />
    <glyph glyph-name="uniFEA0" unicode="&#x62c;" horiz-adv-x="1523" arabic-form="medial" 
d="M1524 170l35 -6l-7 -158l-34 -6q-110 0 -185 26t-118 79t-62.5 120t-24.5 162h-73q-326 -223 -563 -305t-498 -82l-35 6l6 158l35 6q83 0 146.5 4.5t155.5 22t182.5 49.5t212.5 90.5t259 140.5q-19 10 -66 36t-77 42q-72 38 -97 50.5t-83.5 37.5t-106.5 34t-100 9
q-158 0 -287 -90l-65 111q40 55 139.5 102t222.5 47q49 0 96.5 -8t79 -16.5t77 -30.5t63 -32t66 -40t59.5 -37q142 -83 192 -103t133 -20h223l-10 -182h-172q12 -117 75 -167t206 -50zM891 -4q41 0 69.5 -30t28.5 -70t-28.5 -70.5t-69.5 -30.5q-42 0 -71 30t-29 71
q0 40 29 70t71 30z" />
    <glyph glyph-name="uniFEA2" unicode="&#x62d;" horiz-adv-x="1394" arabic-form="final" 
d="M1395 170l35 -6l-7 -158l-34 -6q-100 0 -172.5 28t-117 75.5t-70.5 124t-35 159.5t-9 197q-399 -113 -605 -294t-206 -409q0 -58 16 -112.5t55.5 -107.5t98.5 -92t153 -63t212 -24q171 0 317.5 34.5t218.5 67.5l21 -147q-29 -16 -72.5 -33.5t-116 -40t-173.5 -37
t-208 -14.5q-308 0 -481.5 148.5t-173.5 410.5q0 142 61.5 271t167.5 227t242.5 169t290.5 107h-748v156h1182v-156l-139 -31q0 -242 63.5 -343t233.5 -101z" />
    <glyph glyph-name="uniFEA3" unicode="&#x62d;" horiz-adv-x="1486" arabic-form="initial" 
d="M1202 569h223l-10 -182h-360q-326 -223 -563 -305t-498 -82l-35 6l6 158l35 6q83 0 146.5 4.5t155.5 22t182.5 49.5t212.5 90.5t259 140.5q-19 10 -66 36t-77 42q-72 38 -97 50.5t-83.5 37.5t-106.5 34t-100 9q-158 0 -287 -90l-65 111q40 55 139.5 102t222.5 47
q49 0 96.5 -8t79 -16.5t77 -30.5t63 -32t66 -40t59.5 -37q142 -83 192 -103t133 -20z" />
    <glyph glyph-name="uniFEA4" unicode="&#x62d;" horiz-adv-x="1523" arabic-form="medial" 
d="M1524 170l35 -6l-7 -158l-34 -6q-110 0 -185 26t-118 79t-62.5 120t-24.5 162h-73q-326 -223 -563 -305t-498 -82l-35 6l6 158l35 6q83 0 146.5 4.5t155.5 22t182.5 49.5t212.5 90.5t259 140.5q-19 10 -66 36t-77 42q-72 38 -97 50.5t-83.5 37.5t-106.5 34t-100 9
q-158 0 -287 -90l-65 111q40 55 139.5 102t222.5 47q49 0 96.5 -8t79 -16.5t77 -30.5t63 -32t66 -40t59.5 -37q142 -83 192 -103t133 -20h223l-10 -182h-172q12 -117 75 -167t206 -50z" />
    <glyph glyph-name="uniFEA6" unicode="&#x62e;" horiz-adv-x="1394" arabic-form="final" 
d="M678 997q-42 0 -71 30t-29 71q0 40 29 70t71 30q41 0 69.5 -30t28.5 -70t-28.5 -70.5t-69.5 -30.5zM1395 170l35 -6l-7 -158l-34 -6q-100 0 -172.5 28t-117 75.5t-70.5 124t-35 159.5t-9 197q-399 -113 -605 -294t-206 -409q0 -58 16 -112.5t55.5 -107.5t98.5 -92
t153 -63t212 -24q171 0 317.5 34.5t218.5 67.5l21 -147q-29 -16 -72.5 -33.5t-116 -40t-173.5 -37t-208 -14.5q-308 0 -481.5 148.5t-173.5 410.5q0 142 61.5 271t167.5 227t242.5 169t290.5 107h-748v156h1182v-156l-139 -31q0 -242 63.5 -343t233.5 -101z" />
    <glyph glyph-name="uniFEA7" unicode="&#x62e;" horiz-adv-x="1486" arabic-form="initial" 
d="M514 1053q-42 0 -71 30t-29 70t29 70t71 30q41 0 69.5 -30t28.5 -70t-28.5 -70t-69.5 -30zM1202 569h223l-10 -182h-360q-326 -223 -563 -305t-498 -82l-35 6l6 158l35 6q83 0 146.5 4.5t155.5 22t182.5 49.5t212.5 90.5t259 140.5q-19 10 -66 36t-77 42q-72 38 -97 50.5
t-83.5 37.5t-106.5 34t-100 9q-158 0 -287 -90l-65 111q40 55 139.5 102t222.5 47q49 0 96.5 -8t79 -16.5t77 -30.5t63 -32t66 -40t59.5 -37q142 -83 192 -103t133 -20z" />
    <glyph glyph-name="uniFEA8" unicode="&#x62e;" horiz-adv-x="1523" arabic-form="medial" 
d="M514 1053q-42 0 -71 30t-29 70t29 70t71 30q41 0 69.5 -30t28.5 -70t-28.5 -70t-69.5 -30zM1524 170l35 -6l-7 -158l-34 -6q-110 0 -185 26t-118 79t-62.5 120t-24.5 162h-73q-326 -223 -563 -305t-498 -82l-35 6l6 158l35 6q83 0 146.5 4.5t155.5 22t182.5 49.5
t212.5 90.5t259 140.5q-19 10 -66 36t-77 42q-72 38 -97 50.5t-83.5 37.5t-106.5 34t-100 9q-158 0 -287 -90l-65 111q40 55 139.5 102t222.5 47q49 0 96.5 -8t79 -16.5t77 -30.5t63 -32t66 -40t59.5 -37q142 -83 192 -103t133 -20h223l-10 -182h-172q12 -117 75 -167
t206 -50z" />
    <glyph glyph-name="uniFEAA" unicode="&#x62f;" horiz-adv-x="1286" arabic-form="final" 
d="M1286 170l35 -6l-6 -158l-35 -6q-73 0 -129 15.5t-97.5 48t-71.5 73t-60 99.5q-41 -124 -149.5 -189t-276.5 -65q-81 0 -146.5 13t-110 36t-77.5 55.5t-50.5 71t-28.5 82.5t-10.5 91t1.5 95l125 6q-4 -87 16 -144.5t65 -86t98.5 -39t131.5 -10.5q149 0 240 59t94 164
l-297 626l135 62l317 -664q26 -55 44.5 -87t43 -63t51 -46t63 -24t85.5 -9z" />
    <glyph glyph-name="uniFEAC" unicode="&#x630;" horiz-adv-x="1286" arabic-form="final" 
d="M606 1247q-42 0 -71 30t-29 71q0 40 29 70t71 30q41 0 70 -30t29 -70t-29 -70.5t-70 -30.5zM1286 170l35 -6l-6 -158l-35 -6q-73 0 -129 15.5t-97.5 48t-71.5 73t-60 99.5q-41 -124 -149.5 -189t-276.5 -65q-81 0 -146.5 13t-110 36t-77.5 55.5t-50.5 71t-28.5 82.5
t-10.5 91t1.5 95l125 6q-4 -87 16 -144.5t65 -86t98.5 -39t131.5 -10.5q149 0 240 59t94 164l-297 626l135 62l317 -664q26 -55 44.5 -87t43 -63t51 -46t63 -24t85.5 -9z" />
    <glyph glyph-name="uniFEAE" unicode="&#x631;" horiz-adv-x="774" arabic-form="final" 
d="M580 170h194l35 -6l-6 -158l-35 -6h-197q-39 -196 -186.5 -324.5t-372.5 -128.5q-86 0 -155 19l16 160q71 -9 139 -9q110 0 197.5 35.5t138 92.5t76 121.5t25.5 129.5q0 44 -3 89t-12.5 108.5t-15 98.5t-21.5 126t-22 125l133 33q67 -351 72 -506z" />
    <glyph glyph-name="uniFEB0" unicode="&#x632;" horiz-adv-x="774" arabic-form="final" 
d="M424 852q-42 0 -71 30t-29 70q0 41 29 71t71 30q41 0 69.5 -30.5t28.5 -70.5t-28.5 -70t-69.5 -30zM580 170h194l35 -6l-6 -158l-35 -6h-197q-39 -196 -186.5 -324.5t-372.5 -128.5q-86 0 -155 19l16 160q71 -9 139 -9q110 0 197.5 35.5t138 92.5t76 121.5t25.5 129.5
q0 44 -3 89t-12.5 108.5t-15 98.5t-21.5 126t-22 125l133 33q67 -351 72 -506z" />
    <glyph glyph-name="uniFEB2" unicode="&#x633;" horiz-adv-x="2680" arabic-form="final" 
d="M2681 170l35 -6l-6 -158l-35 -6q-140 0 -231 45t-122 131q-30 -86 -105.5 -131t-176.5 -45q-115 0 -190 44t-101 128q-31 -85 -108 -128.5t-179 -43.5h-172q-37 -215 -203.5 -338t-422.5 -123q-283 0 -443 146t-160 391q0 227 105 454l119 -43q-37 -81 -63.5 -188
t-26.5 -193q0 -197 126 -297t355 -100q227 0 358 99t131 278q0 165 -90 479l135 39q81 -265 88 -434h177q49 0 86.5 8.5t70 29t49.5 60t17 97.5v219h135v-219q0 -112 56.5 -153.5t162.5 -41.5q48 0 84 8.5t67.5 29t48.5 60t17 97.5v219h135v-219q0 -107 67 -151t210 -44z
" />
    <glyph glyph-name="uniFEB3" unicode="&#x633;" horiz-adv-x="1671" arabic-form="initial" 
d="M1356 678l133 43q70 -226 70 -367q0 -166 -94 -260t-255 -94q-114 0 -188 47.5t-100 138.5q-33 -92 -110 -139t-179 -47q-112 0 -193 46.5t-114 139.5q-23 -96 -102.5 -141t-229.5 -45l-35 6l6 158l35 6q149 0 211.5 41t62.5 160v213h136v-219q0 -58 17 -97.5t50 -60
t73 -29t95 -8.5q49 0 86.5 8.5t70 29t49.5 60t17 97.5v219h136v-219q0 -112 56.5 -153.5t162.5 -41.5q97 0 148.5 46.5t51.5 123.5q0 85 -67 338z" />
    <glyph glyph-name="uniFEB4" unicode="&#x633;" horiz-adv-x="1851" arabic-form="medial" 
d="M1851 170l35 -6l-6 -158l-35 -6q-295 0 -352 174q-31 -86 -107 -130t-176 -44q-115 0 -189.5 44t-100.5 128q-31 -85 -108 -128.5t-179 -43.5q-114 0 -195 44t-112 132q-55 -176 -332 -176l-35 6l6 158l35 6q137 0 205.5 42t68.5 157v215h136v-215q0 -60 17 -100t50 -61
t73 -29.5t95 -8.5q104 0 163.5 43t59.5 156v215h136v-215q0 -114 56 -156.5t163 -42.5q101 0 159 43t58 156v215h135v-215q0 -112 61 -155.5t215 -43.5z" />
    <glyph glyph-name="uniFEB6" unicode="&#x634;" horiz-adv-x="2680" arabic-form="final" 
d="M1765 1008q-38 0 -64 26.5t-26 63.5q0 38 25 64t65 26t64 -26t24 -64q0 -37 -25.5 -63.5t-62.5 -26.5zM1647 782q-40 0 -65.5 26t-25.5 64t25.5 64.5t65.5 26.5t64 -26.5t24 -64.5t-24 -64t-64 -26zM1794 872q0 38 25 64.5t65 26.5t64 -26.5t24 -64.5t-24 -64t-64 -26
t-65 26t-25 64zM2681 170l35 -6l-6 -158l-35 -6q-140 0 -231 45t-122 131q-30 -86 -105.5 -131t-176.5 -45q-115 0 -190 44t-101 128q-31 -85 -108 -128.5t-179 -43.5h-172q-37 -215 -203.5 -338t-422.5 -123q-283 0 -443 146t-160 391q0 227 105 454l119 -43
q-37 -81 -63.5 -188t-26.5 -193q0 -197 126 -297t355 -100q227 0 358 99t131 278q0 165 -90 479l135 39q81 -265 88 -434h177q49 0 86.5 8.5t70 29t49.5 60t17 97.5v219h135v-219q0 -112 56.5 -153.5t162.5 -41.5q48 0 84 8.5t67.5 29t48.5 60t17 97.5v219h135v-219
q0 -107 67 -151t210 -44z" />
    <glyph glyph-name="uniFEB7" unicode="&#x634;" horiz-adv-x="1671" arabic-form="initial" 
d="M938 1008q-38 0 -64 26.5t-26 63.5q0 38 25 64t65 26t64 -26t24 -64q0 -37 -25.5 -63.5t-62.5 -26.5zM819 782q-40 0 -65 26t-25 64t25 64.5t65 26.5t64 -26.5t24 -64.5t-24 -64t-64 -26zM967 872q0 38 25 64.5t65 26.5t64 -26.5t24 -64.5t-24 -64t-64 -26t-65 26t-25 64
zM1356 678l133 43q70 -226 70 -367q0 -166 -94 -260t-255 -94q-114 0 -188 47.5t-100 138.5q-33 -92 -110 -139t-179 -47q-112 0 -193 46.5t-114 139.5q-23 -96 -102.5 -141t-229.5 -45l-35 6l6 158l35 6q149 0 211.5 41t62.5 160v213h136v-219q0 -58 17 -97.5t50 -60
t73 -29t95 -8.5q49 0 86.5 8.5t70 29t49.5 60t17 97.5v219h136v-219q0 -112 56.5 -153.5t162.5 -41.5q97 0 148.5 46.5t51.5 123.5q0 85 -67 338z" />
    <glyph glyph-name="uniFEB8" unicode="&#x634;" horiz-adv-x="1851" arabic-form="medial" 
d="M938 1008q-38 0 -64 26.5t-26 63.5q0 38 25 64t65 26t64 -26t24 -64q0 -37 -25.5 -63.5t-62.5 -26.5zM819 782q-40 0 -65 26t-25 64t25 64.5t65 26.5t64 -26.5t24 -64.5t-24 -64t-64 -26zM967 872q0 38 25 64.5t65 26.5t64 -26.5t24 -64.5t-24 -64t-64 -26t-65 26t-25 64
zM1851 170l35 -6l-6 -158l-35 -6q-295 0 -352 174q-31 -86 -107 -130t-176 -44q-115 0 -189.5 44t-100.5 128q-31 -85 -108 -128.5t-179 -43.5q-114 0 -195 44t-112 132q-55 -176 -332 -176l-35 6l6 158l35 6q137 0 205.5 42t68.5 157v215h136v-215q0 -60 17 -100t50 -61
t73 -29.5t95 -8.5q104 0 163.5 43t59.5 156v215h136v-215q0 -114 56 -156.5t163 -42.5q101 0 159 43t58 156v215h135v-215q0 -112 61 -155.5t215 -43.5z" />
    <glyph glyph-name="uniFEBA" unicode="&#x635;" horiz-adv-x="2682" arabic-form="final" 
d="M2683 170l35 -6l-6 -158l-35 -6q-216 0 -277 113q-154 -113 -446 -113h-662q-37 -215 -204.5 -338t-423.5 -123q-283 0 -443 146t-160 391q0 227 105 454l119 -43q-37 -81 -63.5 -188t-26.5 -193q0 -197 126 -297t355 -100q227 0 358 99t131 278q0 172 -90 500l137 39
q81 -276 88 -455h17q178 339 382.5 523t424.5 184q95 0 177 -38.5t136 -102t84.5 -143.5t30.5 -163q0 -128 -58 -219q54 -41 189 -41zM1452 170h524q203 0 323 61t120 185q0 72 -36.5 137.5t-111 109.5t-170.5 44q-94 0 -187 -42.5t-175 -118t-153.5 -169.5t-133.5 -207z
" />
    <glyph glyph-name="uniFEBB" unicode="&#x635;" horiz-adv-x="1904" arabic-form="initial" 
d="M1364 877q95 0 177 -38.5t136 -102t84.5 -143.5t30.5 -163q0 -203 -149.5 -316.5t-448.5 -113.5h-582q-114 0 -195 47t-112 141q-52 -188 -311 -188l-35 6l6 158l35 6q127 0 190.5 46.5t63.5 174.5v213h135v-219q0 -103 44 -152t126 -59q371 703 805 703zM692 170h525
q203 0 322.5 61t119.5 185q0 72 -36.5 137.5t-111 109.5t-170.5 44t-190 -42t-175.5 -118t-151 -169.5t-132.5 -207.5z" />
    <glyph glyph-name="uniFEBC" unicode="&#x635;" horiz-adv-x="1923" arabic-form="medial" 
d="M1923 170l35 -6l-6 -158l-35 -6q-216 0 -277 113q-154 -113 -446 -113h-582q-114 0 -195 47t-112 141q-52 -188 -311 -188l-35 6l6 158l35 6q127 0 190.5 46.5t63.5 174.5v213h135v-219q0 -103 44 -152t126 -59q371 703 805 703q95 0 177 -38.5t136 -102t84.5 -143.5
t30.5 -163q0 -130 -57 -219q54 -41 188 -41zM692 170h525q203 0 322.5 61t119.5 185q0 72 -36.5 137.5t-111 109.5t-170.5 44t-190 -42t-175.5 -118t-151 -169.5t-132.5 -207.5z" />
    <glyph glyph-name="uniFEBE" unicode="&#x636;" horiz-adv-x="2682" arabic-form="final" 
d="M2083 1073q-42 0 -71.5 30.5t-29.5 70.5t29.5 70t71.5 30q41 0 69.5 -30t28.5 -70t-28.5 -70.5t-69.5 -30.5zM2683 170l35 -6l-6 -158l-35 -6q-216 0 -277 113q-154 -113 -446 -113h-662q-37 -215 -204.5 -338t-423.5 -123q-283 0 -443 146t-160 391q0 227 105 454
l119 -43q-37 -81 -63.5 -188t-26.5 -193q0 -197 126 -297t355 -100q227 0 358 99t131 278q0 172 -90 500l137 39q81 -276 88 -455h17q178 339 382.5 523t424.5 184q95 0 177 -38.5t136 -102t84.5 -143.5t30.5 -163q0 -128 -58 -219q54 -41 189 -41zM1452 170h524
q203 0 323 61t120 185q0 72 -36.5 137.5t-111 109.5t-170.5 44q-94 0 -187 -42.5t-175 -118t-153.5 -169.5t-133.5 -207z" />
    <glyph glyph-name="uniFEBF" unicode="&#x636;" horiz-adv-x="1904" arabic-form="initial" 
d="M1323 1073q-42 0 -71 30t-29 71q0 40 29 70t71 30q41 0 69.5 -30t28.5 -70t-28.5 -70.5t-69.5 -30.5zM1364 877q95 0 177 -38.5t136 -102t84.5 -143.5t30.5 -163q0 -203 -149.5 -316.5t-448.5 -113.5h-582q-114 0 -195 47t-112 141q-52 -188 -311 -188l-35 6l6 158l35 6
q127 0 190.5 46.5t63.5 174.5v213h135v-219q0 -103 44 -152t126 -59q371 703 805 703zM692 170h525q203 0 322.5 61t119.5 185q0 72 -36.5 137.5t-111 109.5t-170.5 44t-190 -42t-175.5 -118t-151 -169.5t-132.5 -207.5z" />
    <glyph glyph-name="uniFEC0" unicode="&#x636;" horiz-adv-x="1923" arabic-form="medial" 
d="M1323 1073q-42 0 -71 30t-29 71q0 40 29 70t71 30q41 0 69.5 -30t28.5 -70t-28.5 -70.5t-69.5 -30.5zM1923 170l35 -6l-6 -158l-35 -6q-216 0 -277 113q-154 -113 -446 -113h-582q-114 0 -195 47t-112 141q-52 -188 -311 -188l-35 6l6 158l35 6q127 0 190.5 46.5
t63.5 174.5v213h135v-219q0 -103 44 -152t126 -59q371 703 805 703q95 0 177 -38.5t136 -102t84.5 -143.5t30.5 -163q0 -130 -57 -219q54 -41 188 -41zM692 170h525q203 0 322.5 61t119.5 185q0 72 -36.5 137.5t-111 109.5t-170.5 44t-190 -42t-175.5 -118t-151 -169.5
t-132.5 -207.5z" />
    <glyph glyph-name="uniFEC2" unicode="&#x637;" horiz-adv-x="1562" arabic-form="final" 
d="M1563 170l34 -6l-6 -158l-35 -6q-215 0 -276 113q-154 -113 -446 -113h-814v170h177q60 116 120 209v1061h136v-666q0 -121 -47 -268q283 371 598 371q95 0 177 -38.5t136 -102t84.5 -143.5t30.5 -163q0 -128 -58 -219q54 -41 189 -41zM332 170h524q203 0 322.5 61
t119.5 185q0 72 -36.5 137.5t-110.5 109.5t-170 44t-190 -42t-175.5 -118t-151 -169.5t-132.5 -207.5z" />
    <glyph glyph-name="uniFEC3" unicode="&#x637;" horiz-adv-x="1419" arabic-form="initial" 
d="M879 877q95 0 177 -38.5t136 -102t84.5 -143.5t30.5 -163q0 -203 -149.5 -316.5t-448.5 -113.5h-715l-35 8l6 156l35 6h72q56 109 121 209v1061h135v-666q0 -121 -47 -268q283 371 598 371zM207 170h524q203 0 323 61t120 185q0 72 -36.5 137.5t-111 109.5t-170.5 44
t-190 -42t-175.5 -118t-151 -169.5t-132.5 -207.5z" />
    <glyph glyph-name="uniFEC4" unicode="&#x637;" horiz-adv-x="1437" arabic-form="medial" 
d="M1438 170l35 -6l-7 -158l-34 -6q-216 0 -277 113q-154 -113 -446 -113h-715l-35 8l6 156l35 6h72q56 109 121 209v1061h135v-666q0 -121 -47 -268q283 371 598 371q95 0 177 -38.5t136 -102t84.5 -143.5t30.5 -163q0 -128 -58 -219q54 -41 189 -41zM207 170h524
q203 0 323 61t120 185q0 72 -36.5 137.5t-111 109.5t-170.5 44t-190 -42t-175.5 -118t-151 -169.5t-132.5 -207.5z" />
    <glyph glyph-name="uniFEC6" unicode="&#x638;" horiz-adv-x="1562" arabic-form="final" 
d="M1563 170l34 -6l-6 -158l-35 -6q-215 0 -276 113q-154 -113 -446 -113h-814v170h177q60 116 120 209v1061h136v-666q0 -121 -47 -268q283 371 598 371q95 0 177 -38.5t136 -102t84.5 -143.5t30.5 -163q0 -128 -58 -219q54 -41 189 -41zM942 1073q-42 0 -71 30t-29 71
q0 40 29 70t71 30q41 0 69.5 -30t28.5 -70t-28.5 -70.5t-69.5 -30.5zM332 170h524q203 0 322.5 61t119.5 185q0 72 -36.5 137.5t-110.5 109.5t-170 44t-190 -42t-175.5 -118t-151 -169.5t-132.5 -207.5z" />
    <glyph glyph-name="uniFEC7" unicode="&#x638;" horiz-adv-x="1419" arabic-form="initial" 
d="M879 877q95 0 177 -38.5t136 -102t84.5 -143.5t30.5 -163q0 -203 -149.5 -316.5t-448.5 -113.5h-715l-35 8l6 156l35 6h72q56 109 121 209v1061h135v-666q0 -121 -47 -268q283 371 598 371zM817 1073q-42 0 -71 30t-29 71q0 40 29 70t71 30q41 0 69.5 -30t28.5 -70
t-28.5 -70.5t-69.5 -30.5zM207 170h524q203 0 323 61t120 185q0 72 -36.5 137.5t-111 109.5t-170.5 44t-190 -42t-175.5 -118t-151 -169.5t-132.5 -207.5z" />
    <glyph glyph-name="uniFEC8" unicode="&#x638;" horiz-adv-x="1437" arabic-form="medial" 
d="M1438 170l35 -6l-7 -158l-34 -6q-216 0 -277 113q-154 -113 -446 -113h-715l-35 8l6 156l35 6h72q56 109 121 209v1061h135v-666q0 -121 -47 -268q283 371 598 371q95 0 177 -38.5t136 -102t84.5 -143.5t30.5 -163q0 -128 -58 -219q54 -41 189 -41zM817 1073
q-42 0 -71 30t-29 71q0 40 29 70t71 30q41 0 69.5 -30t28.5 -70t-28.5 -70.5t-69.5 -30.5zM207 170h524q203 0 323 61t120 185q0 72 -36.5 137.5t-111 109.5t-170.5 44t-190 -42t-175.5 -118t-151 -169.5t-132.5 -207.5z" />
    <glyph glyph-name="uniFECA" unicode="&#x639;" horiz-adv-x="1136" arabic-form="final" 
d="M545 123q-206 -100 -288.5 -175t-82.5 -175q0 -48 23.5 -91.5t70.5 -80.5t129.5 -58.5t190.5 -21.5q168 0 311 35t217 69l33 -147q-34 -17 -75.5 -33.5t-115.5 -39.5t-174.5 -37.5t-208.5 -14.5q-241 0 -387.5 105.5t-146.5 287.5q0 72 21.5 134t55 107.5t89 90t108 75.5
t127.5 70q-194 220 -297 344l15 185q18 16 53.5 38t95.5 51.5t144.5 49.5t171.5 20q183 0 289 -79.5t106 -208.5q0 -123 -82.5 -219t-255.5 -205q50 -20 131 -24.5t281 -4.5h43l34 -6l-6 -158l-35 -6h-30q-269 0 -371.5 21t-183.5 102zM887 592q0 64 -77.5 106.5
t-199.5 42.5q-97 0 -188.5 -27.5t-155.5 -66.5q2 -2 133.5 -155.5t178.5 -206.5q156 89 232.5 164t76.5 143z" />
    <glyph glyph-name="uniFECB" unicode="&#x639;" horiz-adv-x="1097" arabic-form="initial" 
d="M616 170h408v-170h-1030l-35 14l4 136l37 20h270q-135 101 -135 295q0 86 31 167t86 145.5t139.5 103.5t183.5 39q70 0 132.5 -21.5t107.5 -56.5t75 -68t50 -67l-90 -105q-143 148 -297 148q-124 0 -204.5 -81.5t-80.5 -197.5q0 -72 30.5 -131t81 -95.5t111 -55.5
t125.5 -19z" />
    <glyph glyph-name="uniFECC" unicode="&#x639;" horiz-adv-x="1087" arabic-form="medial" 
d="M1044 170h43l35 -6l-6 -158l-35 -6h-30q-243 0 -338 16t-168 76q-107 -56 -217 -74t-334 -18l-35 6l6 158l35 6q273 0 408 23q-74 72 -158.5 169.5t-132.5 163.5v185q18 16 53.5 38t96 51.5t145 49.5t172.5 20q183 0 289 -79.5t106 -208.5q0 -48 -16 -94t-40 -82t-67 -78
t-81.5 -73t-98.5 -75q72 -10 368 -10zM225 606q65 -80 166.5 -193t161.5 -167q75 52 120 86t89 74.5t64 75.5t20 69q0 64 -77.5 106.5t-199.5 42.5q-98 0 -189 -28t-155 -66z" />
    <glyph glyph-name="uniFECE" unicode="&#x63a;" horiz-adv-x="1136" arabic-form="final" 
d="M614 1108q-42 0 -71 30t-29 70q0 41 29 71t71 30q41 0 70 -30.5t29 -70.5t-29 -70t-70 -30zM545 123q-206 -100 -288.5 -175t-82.5 -175q0 -48 23.5 -91.5t70.5 -80.5t129.5 -58.5t190.5 -21.5q168 0 311 35t217 69l33 -147q-34 -17 -75.5 -33.5t-115.5 -39.5
t-174.5 -37.5t-208.5 -14.5q-241 0 -387.5 105.5t-146.5 287.5q0 72 21.5 134t55 107.5t89 90t108 75.5t127.5 70q-194 220 -297 344l15 185q18 16 53.5 38t95.5 51.5t144.5 49.5t171.5 20q183 0 289 -79.5t106 -208.5q0 -123 -82.5 -219t-255.5 -205q50 -20 131 -24.5
t281 -4.5h43l34 -6l-6 -158l-35 -6h-30q-269 0 -371.5 21t-183.5 102zM887 592q0 64 -77.5 106.5t-199.5 42.5q-97 0 -188.5 -27.5t-155.5 -66.5q2 -2 133.5 -155.5t178.5 -206.5q156 89 232.5 164t76.5 143z" />
    <glyph glyph-name="uniFECF" unicode="&#x63a;" horiz-adv-x="1097" arabic-form="initial" 
d="M575 1116q-42 0 -71 30t-29 71q0 40 29 70t71 30q41 0 70 -30t29 -70t-29 -70.5t-70 -30.5zM616 170h408v-170h-1030l-35 14l4 136l37 20h270q-135 101 -135 295q0 86 31 167t86 145.5t139.5 103.5t183.5 39q70 0 132.5 -21.5t107.5 -56.5t75 -68t50 -67l-90 -105
q-143 148 -297 148q-124 0 -204.5 -81.5t-80.5 -197.5q0 -72 30.5 -131t81 -95.5t111 -55.5t125.5 -19z" />
    <glyph glyph-name="uniFED0" unicode="&#x63a;" horiz-adv-x="1087" arabic-form="medial" 
d="M573 1067q-42 0 -71 30t-29 70q0 41 29 71t71 30q41 0 70 -30.5t29 -70.5t-29 -70t-70 -30zM1044 170h43l35 -6l-6 -158l-35 -6h-30q-243 0 -338 16t-168 76q-107 -56 -217 -74t-334 -18l-35 6l6 158l35 6q273 0 408 23q-74 72 -158.5 169.5t-132.5 163.5v185
q18 16 53.5 38t96 51.5t145 49.5t172.5 20q183 0 289 -79.5t106 -208.5q0 -48 -16 -94t-40 -82t-67 -78t-81.5 -73t-98.5 -75q72 -10 368 -10zM225 606q65 -80 166.5 -193t161.5 -167q75 52 120 86t89 74.5t64 75.5t20 69q0 64 -77.5 106.5t-199.5 42.5q-98 0 -189 -28
t-155 -66z" />
    <glyph glyph-name="uniFED2" unicode="&#x641;" horiz-adv-x="1955" arabic-form="final" 
d="M1448 1174q-42 0 -71 30t-29 70t29 70t71 30q41 0 69.5 -30t28.5 -70t-28.5 -70t-69.5 -30zM1956 170l35 -6l-6 -158l-35 -6q-285 0 -514 92q-83 -41 -217.5 -66.5t-300.5 -25.5h-248q-321 0 -465 111t-144 352q0 173 84 379l119 -43q-69 -179 -69 -312q0 -163 119 -240
t356 -77h305q142 0 270 25q-196 143 -196 342q0 114 48.5 213.5t141 163t209.5 63.5q165 0 271 -124.5t106 -295.5q0 -103 -52.5 -195.5t-150.5 -162.5q155 -29 334 -29zM1180 557q0 -99 66 -177.5t194 -129.5q120 50 187 124.5t67 162.5q0 110 -71.5 190t-186.5 80
q-112 0 -184 -74.5t-72 -175.5z" />
    <glyph glyph-name="uniFED3" unicode="&#x641;" horiz-adv-x="989" arabic-form="initial" 
d="M477 1343q-42 0 -71 30t-29 71q0 40 29 70t71 30q41 0 69.5 -30t28.5 -70t-28.5 -70.5t-69.5 -30.5zM477 1147q93 0 170 -43t126.5 -115.5t76.5 -167t27 -198.5q0 -153 -22.5 -262.5t-63 -179t-108 -110t-147 -56t-190.5 -15.5h-352l-35 6l6 158l35 6h340q72 0 124.5 6.5
t106.5 27.5t88.5 57.5t57.5 101t26 153.5q-98 -158 -315 -158q-179 0 -272 96.5t-93 256.5q0 189 115 312.5t299 123.5zM442 528q112 0 187 43t110 113q-7 49 -27 97.5t-52.5 94.5t-84 74.5t-114.5 28.5q-123 0 -193.5 -76.5t-70.5 -173.5q0 -95 66.5 -148t178.5 -53z" />
    <glyph glyph-name="uniFED4" unicode="&#x641;" horiz-adv-x="1036" arabic-form="medial" 
d="M528 1174q-42 0 -71 30t-29 70t29 70t71 30q41 0 70 -30t29 -70t-29 -70t-70 -30zM1036 170l35 -6l-6 -158l-35 -6q-297 0 -528 94q-208 -94 -508 -94l-35 6l6 158l35 6q155 0 317 27q-188 145 -188 340q0 114 48.5 214t141 163t209.5 63q165 0 271 -124.5t106 -295.5
q0 -215 -215 -356q155 -31 346 -31zM260 557q0 -98 64.5 -176t187.5 -129q125 50 193.5 123t68.5 162q0 110 -71.5 190t-186.5 80q-112 0 -184 -74.5t-72 -175.5z" />
    <glyph glyph-name="uniFED6" unicode="&#x642;" horiz-adv-x="1589" arabic-form="final" 
d="M930 979q-38 0 -66 28t-28 66t28 66t66 28q39 0 65.5 -27.5t26.5 -66.5t-26 -66.5t-66 -27.5zM1188 979q-41 0 -67.5 27.5t-26.5 66.5t26.5 66.5t67.5 27.5q37 0 64.5 -28t27.5 -66t-27.5 -66t-64.5 -28zM1452 170h137l35 -18l-6 -132l-35 -20h-156q-111 -479 -696 -479
q-327 0 -498.5 155.5t-171.5 423.5q0 228 105 455l119 -43q-37 -81 -63.5 -188t-26.5 -193q0 -440 557 -440q249 0 384 76.5t171 232.5h-279q-187 0 -285 90.5t-98 239.5q0 192 116 325t298 133q123 0 213.5 -70t136 -191.5t45.5 -278.5q0 -53 -2 -78zM778 340
q0 -83 68.5 -126.5t197.5 -43.5h277v45q0 49 -7.5 100.5t-27 107.5t-49 99.5t-78.5 72t-110 28.5q-65 0 -118 -25.5t-85.5 -67t-50 -91t-17.5 -99.5z" />
    <glyph glyph-name="uniFED7" unicode="&#x642;" horiz-adv-x="989" arabic-form="initial" 
d="M348 1337q-38 0 -66 28.5t-28 66.5t28 66t66 28q39 0 65.5 -27.5t26.5 -66.5t-26 -67t-66 -28zM606 1337q-40 0 -67 28t-27 67t26.5 66.5t67.5 27.5q37 0 64.5 -28t27.5 -66t-27.5 -66.5t-64.5 -28.5zM477 1147q93 0 170 -43t126.5 -115.5t76.5 -167t27 -198.5
q0 -153 -22.5 -262.5t-63 -179t-108 -110t-147 -56t-190.5 -15.5h-352l-35 6l6 158l35 6h340q72 0 124.5 6.5t106.5 27.5t88.5 57.5t57.5 101t26 153.5q-98 -158 -315 -158q-179 0 -272 96.5t-93 256.5q0 189 115 312.5t299 123.5zM442 528q112 0 187 43t110 113
q-7 49 -27 97.5t-52.5 94.5t-84 74.5t-114.5 28.5q-123 0 -193.5 -76.5t-70.5 -173.5q0 -95 66.5 -148t178.5 -53z" />
    <glyph glyph-name="uniFED8" unicode="&#x642;" horiz-adv-x="1036" arabic-form="medial" 
d="M399 1167q-38 0 -66 28.5t-28 66.5t28 66t66 28q39 0 66 -27.5t27 -66.5t-26.5 -67t-66.5 -28zM657 1167q-40 0 -67 28t-27 67t26.5 66.5t67.5 27.5q37 0 65 -28t28 -66t-28 -66.5t-65 -28.5zM1036 170l35 -6l-6 -158l-35 -6q-297 0 -528 94q-208 -94 -508 -94l-35 6
l6 158l35 6q155 0 317 27q-188 145 -188 340q0 114 48.5 214t141 163t209.5 63q165 0 271 -124.5t106 -295.5q0 -215 -215 -356q155 -31 346 -31zM260 557q0 -98 64.5 -176t187.5 -129q125 50 193.5 123t68.5 162q0 110 -71.5 190t-186.5 80q-112 0 -184 -74.5t-72 -175.5z
" />
    <glyph glyph-name="uniFEDA" unicode="&#x643;" horiz-adv-x="1759" arabic-form="final" 
d="M1759 170l35 -6l-6 -158l-35 -6q-132 0 -221.5 51.5t-110.5 149.5q-47 -105 -161.5 -153t-311.5 -48h-297q-311 0 -450.5 106t-139.5 336q0 174 86 377l119 -43q-71 -174 -71 -307q0 -154 114 -226.5t342 -72.5h293q82 0 141.5 4.5t116 17t91.5 35t56 59.5t21 89v1065
h135v-1034q0 -75 18 -123.5t55 -72.5t78 -32t103 -8zM1047 719q0 -97 -73.5 -151t-199.5 -54h-207v143h205q69 0 115.5 15t46.5 43q0 40 -67.5 69t-219.5 52v182l342 188l45 -127l-278 -135q151 -37 221 -88t70 -137z" />
    <glyph glyph-name="uniFEDB" unicode="&#x643;" horiz-adv-x="892" arabic-form="initial" 
d="M868 1294l-692 -411q213 -125 277 -169q178 -123 226 -244q21 -53 21 -110q0 -179 -126.5 -269.5t-370.5 -90.5h-209l-35 6l6 158l35 6h221q161 0 259 40t98 122q0 94 -111 184q-78 63 -308 191q-14 8 -44 24q-55 31 -84 47v180l776 474z" />
    <glyph glyph-name="uniFEDC" unicode="&#x643;" horiz-adv-x="1091" arabic-form="medial" 
d="M1092 170l34 -6l-6 -158l-35 -6h-16q-102 0 -178 26.5t-138.5 76.5t-150.5 147q-55 -250 -434 -250h-174l-35 6l6 158l35 6h184q164 0 233.5 38.5t88.5 131.5l-410 479v154l842 479l61 -141l-761 -424l395 -451q53 -61 80 -90t66 -66t66 -52.5t66.5 -31.5t82 -21t98.5 -5
z" />
    <glyph glyph-name="uniFEDE" unicode="&#x644;" horiz-adv-x="1492" arabic-form="final" 
d="M1493 170l35 -6l-6 -158l-35 -6q-182 0 -266 102q-10 -274 -166 -420.5t-424 -146.5q-266 0 -418 147.5t-152 385.5q0 233 99 456l119 -43q-35 -81 -59.5 -189t-24.5 -196q0 -191 118.5 -291t331.5 -100q215 0 337 107.5t122 316.5v1311h135v-1014q0 -146 61 -201
t193 -55z" />
    <glyph glyph-name="uniFEDF" unicode="&#x644;" horiz-adv-x="552" arabic-form="initial" 
d="M254 1440h135v-1041q0 -203 -108 -301t-287 -98l-35 6l6 158l35 6q49 0 84.5 4.5t69 17t54.5 35t33.5 59.5t12.5 89v1065z" />
    <glyph glyph-name="uniFEE0" unicode="&#x644;" horiz-adv-x="643" arabic-form="medial" 
d="M643 170l35 -6l-6 -158l-35 -6q-129 0 -218 50t-112 145q-27 -91 -111.5 -143t-201.5 -52l-35 6l6 158l35 6q47 0 81 4.5t68.5 18.5t56 39.5t35 69t13.5 104.5v1034h135v-1034q0 -75 18 -123.5t55 -72.5t78 -32t103 -8z" />
    <glyph glyph-name="uniFEE2" unicode="&#x645;" horiz-adv-x="1488" arabic-form="final" 
d="M1489 170l35 -6l-6 -158l-35 -6q-110 0 -193.5 46t-122.5 130q-44 -77 -139 -130.5t-223 -53.5q-149 0 -246.5 61.5t-128.5 171.5q-156 -32 -205 -65.5t-49 -106.5v-700h-135v684q0 153 80 231t299 131q24 171 141.5 284.5t284.5 113.5q291 0 393 -412q30 -123 86 -169
t164 -46zM821 160q122 0 196 42.5t101 104.5q-34 152 -106.5 237t-186.5 85q-120 0 -198 -79.5t-78 -199.5q0 -86 72 -138t200 -52z" />
    <glyph glyph-name="uniFEE3" unicode="&#x645;" horiz-adv-x="1191" arabic-form="initial" 
d="M715 797q104 0 188 -57t130 -150.5t46 -202.5q0 -181 -115.5 -288t-308.5 -107q-132 0 -225.5 55.5t-124.5 128.5q-34 -83 -117 -129.5t-194 -46.5l-35 6l6 158l35 6q44 0 78.5 6t71 22.5t64 51.5t42.5 88q54 226 171 342.5t288 116.5zM680 160q127 0 196.5 53t69.5 143
q0 118 -71.5 195.5t-180.5 77.5q-124 0 -204.5 -88t-112.5 -242q30 -59 105.5 -99t197.5 -40z" />
    <glyph glyph-name="uniFEE4" unicode="&#x645;" horiz-adv-x="1310" arabic-form="medial" 
d="M1311 170l35 -6l-7 -158l-34 -6q-110 0 -193.5 46t-122.5 130q-44 -77 -139 -130.5t-223 -53.5q-117 0 -203.5 39t-134.5 110q-39 -66 -119.5 -103.5t-175.5 -37.5l-35 6l6 158l35 6q181 0 244 92q-6 30 -6 66q0 195 122 332t308 137q291 0 393 -412q30 -123 86 -169
t164 -46zM643 160q122 0 196 42.5t101 104.5q-34 152 -106.5 237t-186.5 85q-120 0 -198 -79.5t-78 -199.5q0 -86 72 -138t200 -52z" />
    <glyph glyph-name="uniFEE6" unicode="&#x646;" horiz-adv-x="1507" arabic-form="final" 
d="M674 743q-42 0 -71.5 30.5t-29.5 70.5t29.5 70t71.5 30q41 0 69.5 -30t28.5 -70t-28.5 -70.5t-69.5 -30.5zM1298 170h209l35 -6l-6 -158l-35 -6h-211q-37 -215 -203.5 -338t-422.5 -123q-283 0 -443 146t-160 391q0 227 105 454l119 -43q-37 -81 -63.5 -188t-26.5 -193
q0 -197 126 -297t355 -100q227 0 358 99t131 278t-94 528l135 39q85 -299 92 -483z" />
    <glyph glyph-name="uniFEE7" unicode="&#x646;" horiz-adv-x="507" arabic-form="initial" 
d="M254 1004q-42 0 -71 30t-29 70t29 70t71 30q41 0 69.5 -30t28.5 -70t-28.5 -70t-69.5 -30zM-6 0l-35 6l6 158l35 6q126 0 189 51t63 158q0 154 -55 409l131 31q57 -267 57 -418q0 -194 -108.5 -297.5t-282.5 -103.5z" />
    <glyph glyph-name="uniFEE8" unicode="&#x646;" horiz-adv-x="643" arabic-form="medial" 
d="M322 893q-42 0 -71.5 30t-29.5 70t29.5 70.5t71.5 30.5q41 0 69.5 -30.5t28.5 -70.5t-28.5 -70t-69.5 -30zM643 170l35 -6l-6 -158l-35 -6q-128 0 -216.5 50t-113.5 149q-24 -93 -109.5 -146t-203.5 -53l-35 6l6 158l35 6q47 0 81 4.5t68.5 18.5t56 39.5t35 69
t13.5 104.5v290h135v-290q0 -76 15.5 -124t51 -72t77.5 -32t110 -8z" />
    <glyph glyph-name="uniFEE9" unicode="&#x647;" horiz-adv-x="1445" arabic-form="isolated" 
d="M397 858l33 137q913 -188 913 -630q0 -170 -105 -268.5t-294 -98.5q-171 0 -362 82q-180 -80 -365 -80q-116 0 -217 31l27 164q176 -49 372 -5q-172 142 -172 312q0 100 45 197.5t125 158.5zM598 780q-108 0 -175 -80.5t-67 -183.5q0 -78 66.5 -145.5t175.5 -116.5
q110 47 174 111.5t64 136.5q0 71 -25.5 133t-81.5 103.5t-131 41.5zM958 170q122 0 187 47.5t65 124.5q0 200 -272 338q27 -86 27 -158q0 -176 -195 -327q103 -25 188 -25z" />
    <glyph glyph-name="uniFEEA" unicode="&#x647;" horiz-adv-x="1128" arabic-form="final" 
d="M1128 170l35 -6l-6 -156l-35 -8q-335 0 -379 289q-81 -162 -315 -162q-165 0 -266 92.5t-101 245.5q0 397 676 514v147h135v-720q0 -75 18 -123.5t55 -72.5t78.5 -32t104.5 -8zM446 299q120 0 195 40.5t96 96.5v395q-148 -27 -256.5 -66.5t-169 -86.5t-88.5 -95t-28 -100
q0 -91 66.5 -137.5t184.5 -46.5z" />
    <glyph glyph-name="uniFEEB" unicode="&#x647;" horiz-adv-x="1343" arabic-form="initial" 
d="M274 858l33 137q204 -42 365.5 -97.5t290 -131.5t198.5 -177.5t70 -223.5q0 -170 -105.5 -268.5t-294.5 -98.5q-188 0 -382 90q-216 -88 -455 -88l-35 6l6 158l35 6q152 0 279 23q-175 138 -175 309q0 100 45 197.5t125 158.5zM475 784q-108 0 -175 -81.5t-67 -186.5
q0 -78 67.5 -146.5t178.5 -117.5q110 46 172 111.5t62 138.5q0 113 -63 197.5t-175 84.5zM846 170q122 0 187 47.5t65 124.5q0 203 -285 342q29 -82 29 -162q0 -177 -199 -325q102 -27 203 -27z" />
    <glyph glyph-name="uniFEEC" unicode="&#x647;" horiz-adv-x="1118" arabic-form="medial" 
d="M768 170h350l35 -6l-6 -158l-35 -6h-135q55 -55 55 -135q0 -137 -106 -230.5t-291 -93.5q-114 0 -208 38.5t-156 104t-100 146t-52 170.5h-125l-35 6l6 158l35 6h113q8 97 32.5 192.5t68 184t100.5 155.5t134 107.5t164 40.5q99 0 171.5 -50.5t107.5 -131.5t35 -181
q0 -199 -158 -317zM596 680q-63 0 -118.5 -33t-94 -85.5t-68 -121t-45.5 -136.5t-22 -134h110q196 0 315.5 75.5t119.5 217.5q0 96 -50 156.5t-147 60.5zM651 -289q116 0 182 36t66 97q0 76 -94.5 126t-257.5 50h-295q9 -45 26.5 -86.5t49.5 -83t75 -71.5t107 -49t141 -19z
" />
    <glyph glyph-name="uniFEEE" unicode="&#x648;" horiz-adv-x="1093" arabic-form="final" 
d="M956 170h138l34 -18l-6 -132l-35 -20h-159q-27 -99 -77 -178.5t-126 -142.5t-187.5 -97.5t-250.5 -34.5q-159 0 -277 35l17 160q107 -25 268 -25q196 0 321 79.5t177 203.5h-261q-187 0 -284.5 90.5t-97.5 239.5q0 192 115.5 325t297.5 133q123 0 213.5 -70t136 -191.5
t45.5 -278.5q0 -51 -2 -78zM283 340q0 -83 68.5 -126.5t197.5 -43.5h276v55q0 46 -7.5 95.5t-27 104.5t-49 98t-78.5 71.5t-110 28.5q-65 0 -118 -25.5t-85 -67t-49.5 -91t-17.5 -99.5z" />
    <glyph glyph-name="uniFEF0" unicode="&#x649;" horiz-adv-x="1470" arabic-form="final" 
d="M948 170h522l35 -6l-6 -158l-35 -6h-47q-1 -76 -28.5 -147t-85 -134t-140 -110t-201.5 -74t-260 -27q-303 0 -472 160t-169 430q0 239 111 498l119 -43q-44 -99 -70 -217.5t-26 -208.5q0 -223 138 -336t390 -113q140 0 250.5 30t174.5 78.5t98 103t36 110.5h-334v170z
" />
    <glyph glyph-name="uniFEF2" unicode="&#x64a;" horiz-adv-x="1470" arabic-form="final" 
d="M948 170h522l35 -6l-6 -158l-35 -6h-47q-1 -76 -28.5 -147t-85 -134t-140 -110t-201.5 -74t-260 -27q-303 0 -472 160t-169 430q0 239 111 498l119 -43q-44 -99 -70 -217.5t-26 -208.5q0 -223 138 -336t390 -113q140 0 250.5 30t174.5 78.5t98 103t36 110.5h-334v170z
M614 -649q39 0 66 -27.5t27 -66.5t-26.5 -67t-66.5 -28q-38 0 -66 28.5t-28 66.5t28 66t66 28zM872 -649q37 0 65 -28t28 -66t-28 -66.5t-65 -28.5q-40 0 -67 28t-27 67t26.5 66.5t67.5 27.5z" />
    <glyph glyph-name="uniFEF3" unicode="&#x64a;" horiz-adv-x="507" arabic-form="initial" 
d="M-6 0l-35 6l6 158l35 6q126 0 189 51t63 158q0 154 -55 409l131 31q57 -267 57 -418q0 -194 -108.5 -297.5t-282.5 -103.5zM80 -346q-38 0 -66 28t-28 66t28 66t66 28q39 0 65.5 -27.5t26.5 -66.5t-26 -66.5t-66 -27.5zM338 -346q-41 0 -67.5 27.5t-26.5 66.5t26.5 66.5
t67.5 27.5q37 0 64.5 -28t27.5 -66t-27.5 -66t-64.5 -28z" />
    <glyph glyph-name="uniFEF4" unicode="&#x64a;" horiz-adv-x="643" arabic-form="medial" 
d="M643 170l35 -6l-6 -158l-35 -6q-128 0 -216.5 50t-113.5 149q-24 -93 -109.5 -146t-203.5 -53l-35 6l6 158l35 6q47 0 81 4.5t68.5 18.5t56 39.5t35 69t13.5 104.5v290h135v-290q0 -76 15.5 -124t51 -72t77.5 -32t110 -8zM193 -158q39 0 65.5 -27.5t26.5 -66.5t-26 -66.5
t-66 -27.5q-38 0 -66.5 28t-28.5 66t28.5 66t66.5 28zM451 -158q37 0 64.5 -28t27.5 -66t-27.5 -66t-64.5 -28q-41 0 -68 27.5t-27 66.5t27 66.5t68 27.5z" />
    <glyph glyph-name=".notdef" horiz-adv-x="1368" 
d="M254 1845h868v-2736h-868v2736zM911 1571v90h-452v-90h178v-101h-180v-90h454v90h-180v101h180zM731 1118v191h-274v-285h454v94h-180zM547 1217h90v-99h-90v99zM911 860v90h-454v-90h180v-100h-180v-90h274v190h180zM911 512v274h-90v-180h-364v-94h454zM911 143v310
h-274v-154h94v63h90v-129h-274v220h-90v-310h454zM911 -330v310h-454v-310h454zM547 -111h274v-129h-274v129zM911 -483v90h-454v-90h192l-192 -129v-90h454v90h-278l190 129h88z" />
    <glyph glyph-name=".null" horiz-adv-x="1228" 
 />
    <glyph glyph-name="nonmarkingreturn" horiz-adv-x="682" 
 />
    <glyph glyph-name="CR" unicode="&#xd;" horiz-adv-x="487" 
 />
    <glyph glyph-name="space" unicode=" " horiz-adv-x="518" 
 />
    <glyph glyph-name="exclam" unicode="!" horiz-adv-x="548" 
d="M332 487h-115l-39 953h193zM133 102q0 52 35 87.5t86 35.5q52 0 87.5 -35.5t35.5 -87.5q0 -51 -35.5 -86.5t-87.5 -35.5q-51 0 -86 35.5t-35 86.5z" />
    <glyph glyph-name="quotedbl" unicode="&#x22;" horiz-adv-x="774" 
d="M268 909h-114l-19 531h154zM618 909h-114l-19 531h154z" />
    <glyph glyph-name="numbersign" unicode="#" horiz-adv-x="1335" 
d="M1247 1053v-135h-190l-74 -390h213v-133h-238l-75 -395h-140l76 395h-438l-76 -395h-139l76 395h-150v133h176l74 390h-197v135h224l73 387h136l-74 -387h442l74 387h135l-74 -387h166zM406 528h440l74 390h-441z" />
    <glyph glyph-name="dollar" unicode="$" horiz-adv-x="1038" 
d="M965 420q0 -147 -102 -244.5t-267 -126.5v-231h-156v221q-96 5 -197.5 31t-162.5 65l51 152q171 -97 346 -97q157 0 239.5 60t82.5 158q0 54 -24 92.5t-64.5 61.5t-93 39.5t-110.5 30t-115.5 29.5t-110 43t-93 64.5t-64.5 99.5t-24 144q0 144 92.5 238.5t247.5 121.5v236
h156v-228q97 -5 187 -32t141 -70l-68 -133q-156 88 -305 88q-141 0 -215 -57.5t-74 -149.5q0 -76 39 -126.5t101 -76t136.5 -44.5t149.5 -41.5t137 -56t101 -99.5t39 -162z" />
    <glyph glyph-name="percent" unicode="%" horiz-adv-x="1816" 
d="M66 1083q0 91 31.5 164t85 118.5t121 69t142.5 23.5q73 0 138.5 -22t118 -65t83.5 -113.5t31 -159.5q0 -93 -32.5 -167t-87 -120t-122 -70t-141.5 -24q-69 0 -133.5 22.5t-117.5 66t-85 115.5t-32 162zM467 0h-186l1054 1440h187zM219 1092q0 -115 61.5 -177.5
t161.5 -62.5q99 0 160.5 61.5t61.5 171.5q0 108 -64 173t-160 65q-92 0 -156.5 -60t-64.5 -171zM997 348q0 91 31.5 164t85.5 118.5t121.5 69t142.5 23.5q74 0 140 -22.5t118.5 -65.5t83.5 -113.5t31 -159.5q0 -93 -33 -167.5t-87.5 -120t-122.5 -70t-142 -24.5
q-69 0 -133.5 23t-118 66.5t-85.5 116t-32 162.5zM1153 356q0 -115 60.5 -177t160.5 -62q99 0 160 61.5t61 171.5q0 108 -63 173t-160 65q-91 0 -155 -60.5t-64 -171.5z" />
    <glyph glyph-name="ampersand" unicode="&#x26;" horiz-adv-x="1421" 
d="M1118 281l289 -281h-229l-168 164q-210 -184 -473 -184q-201 0 -321 107t-120 271q0 72 23.5 133t69 110t94 85t114.5 74q-88 86 -138 167t-50 175q0 144 108 251t271 107q160 0 268.5 -97.5t108.5 -236.5q0 -65 -25.5 -121.5t-75 -105t-98.5 -83.5t-121 -77l363 -352
q123 171 120 395h166q-3 -274 -176 -501zM373 1110q0 -62 40.5 -122.5t127.5 -147.5q63 35 102.5 60.5t80 61t60 75t19.5 85.5q0 85 -59.5 139t-153.5 54q-56 0 -99.5 -19t-68 -49.5t-37 -65.5t-12.5 -71zM551 135q188 0 348 135l-395 385q-116 -71 -178 -136.5t-62 -149.5
q0 -95 77 -164.5t210 -69.5z" />
    <glyph glyph-name="quotesingle" unicode="'" horiz-adv-x="423" 
d="M268 909h-114l-19 531h154z" />
    <glyph glyph-name="parenleft" unicode="(" horiz-adv-x="618" 
d="M422 1440h176q-157 -188 -244.5 -439.5t-87.5 -476.5t85 -478t237 -439h-180q-149 184 -226.5 419.5t-77.5 489.5q0 255 81 495.5t237 428.5z" />
    <glyph glyph-name="parenright" unicode=")" horiz-adv-x="618" 
d="M197 1440h-177q157 -188 244.5 -439.5t87.5 -476.5t-84.5 -478t-236.5 -439h180q149 183 226 419t77 490q0 255 -80.5 495.5t-236.5 428.5z" />
    <glyph glyph-name="asterisk" unicode="*" horiz-adv-x="987" 
d="M596 1061l278 -141l-67 -117l-258 160l12 -304h-139l16 310l-258 -170l-67 116l264 144l-264 139l67 121l258 -168l-16 309h135l-8 -301l254 162l69 -121z" />
    <glyph glyph-name="plus" unicode="+" horiz-adv-x="1255" 
d="M705 784h481v-153h-481v-481h-154v481h-481v153h481v482h154v-482z" />
    <glyph glyph-name="comma" unicode="," horiz-adv-x="452" 
d="M223 -231h-131l70 487h157z" />
    <glyph glyph-name="hyphen" unicode="-" horiz-adv-x="874" 
d="M733 651v-121h-592v121h592z" />
    <glyph glyph-name="period" unicode="." horiz-adv-x="450" 
d="M96 102q0 52 35 87.5t86 35.5q53 0 88 -35.5t35 -87.5q0 -51 -35.5 -86.5t-87.5 -35.5q-51 0 -86 35.5t-35 86.5z" />
    <glyph glyph-name="slash" unicode="/" horiz-adv-x="765" 
d="M221 -238h-147l471 1678h147z" />
    <glyph glyph-name="zero" unicode="0" horiz-adv-x="1204" 
d="M604 -20q-113 0 -197.5 35.5t-138.5 97t-86.5 157t-45.5 204t-13 249.5q0 109 10 201.5t31.5 177t59 148.5t90 112t126 73t164.5 25q111 0 195 -35.5t137 -98t86 -157.5t46 -202t13 -244q0 -743 -477 -743zM604 129q171 0 242 147t69 443q-1 118 -9.5 206t-30 163.5
t-57 123t-90 73.5t-128.5 26t-128.5 -26.5t-89 -74t-55.5 -122.5t-29.5 -162t-8.5 -203q0 -123 7.5 -211t28 -164.5t55.5 -122t90.5 -71t133.5 -25.5z" />
    <glyph glyph-name="one" unicode="1" horiz-adv-x="761" 
d="M563 1440v-1440h-160v1245l-305 -194l-65 127l399 262h131z" />
    <glyph glyph-name="two" unicode="2" horiz-adv-x="1067" 
d="M301 147h662v-147h-861v143q97 94 156 152t133 133t117 123.5t92 107.5t75.5 102.5t51 92t34 92t9.5 86.5q0 121 -78.5 199t-212.5 78q-169 0 -332 -150l-59 125q52 49 99.5 83t131 63.5t177.5 29.5q88 0 162 -23.5t125 -64t86.5 -94.5t52 -115t16.5 -127
q0 -67 -19.5 -134t-63.5 -140t-92.5 -137.5t-130.5 -151t-151.5 -154.5t-179.5 -172z" />
    <glyph glyph-name="three" unicode="3" horiz-adv-x="1052" 
d="M666 754q129 -37 201.5 -126.5t72.5 -209.5q0 -83 -32 -160.5t-91 -140t-151.5 -100t-204.5 -37.5q-110 0 -211 35t-174 102l71 133q133 -119 310 -119q144 0 230.5 79.5t86.5 197.5q0 116 -82.5 188t-234.5 72h-158v147h154q128 0 201 71.5t73 176.5t-73.5 175.5
t-207.5 70.5q-164 0 -260 -99l-69 117q64 61 156.5 97t199.5 36q197 0 309.5 -104.5t112.5 -265.5q0 -105 -58.5 -194.5t-170.5 -141.5z" />
    <glyph glyph-name="four" unicode="4" horiz-adv-x="1193" 
d="M905 489h205v-147h-205v-362h-160v362h-692v119l719 979h133v-951zM745 1182l-509 -693h509v693z" />
    <glyph glyph-name="five" unicode="5" horiz-adv-x="1060" 
d="M471 885q225 0 358.5 -120.5t133.5 -313.5q0 -136 -69.5 -245t-183 -167.5t-245.5 -58.5q-109 0 -215 36t-180 84l43 146q200 -117 356 -117q140 0 234 84t94 227q0 62 -19 115t-59.5 98t-113.5 71t-171 26q-65 0 -116.5 -13t-124.5 -43l-19 15l105 731h632v-144h-505
l-66 -424q67 13 131 13z" />
    <glyph glyph-name="six" unicode="6" horiz-adv-x="1138" 
d="M592 903q203 0 337 -130.5t134 -328.5q0 -201 -139.5 -332.5t-350.5 -131.5q-208 0 -338.5 127.5t-130.5 332.5q0 114 48.5 231t164.5 275l363 494h186l-399 -555q59 18 125 18zM580 129q137 0 226 87t89 228q0 137 -86.5 222.5t-230.5 85.5q-163 0 -263 -115
q-43 -97 -43 -186q0 -147 85.5 -234.5t222.5 -87.5z" />
    <glyph glyph-name="seven" unicode="7" horiz-adv-x="1021" 
d="M965 1440v-113l-617 -1327h-170l613 1294h-734v146h908z" />
    <glyph glyph-name="eight" unicode="8" horiz-adv-x="1134" 
d="M764 776q115 -41 186.5 -130.5t71.5 -233.5q0 -103 -40 -187t-106 -136.5t-147.5 -80.5t-169.5 -28q-84 0 -162 26.5t-143 77t-104 134t-39 188.5q0 143 70 235.5t184 134.5q-193 90 -193 307q0 91 34.5 164.5t92 118.5t128.5 68.5t148 23.5q74 0 143 -22t126 -65
t91 -113.5t34 -159.5q0 -118 -55.5 -198.5t-149.5 -123.5zM569 1317q-96 0 -167.5 -58.5t-71.5 -168.5q0 -111 74.5 -175.5t166.5 -64.5q91 0 164.5 63.5t73.5 169.5q0 108 -70.5 171t-169.5 63zM569 129q114 0 199.5 72.5t85.5 208.5q0 68 -25.5 123.5t-67.5 89t-92.5 51.5
t-103.5 18q-51 0 -99 -15.5t-91 -47t-69.5 -88.5t-26.5 -131q0 -93 43.5 -158.5t107.5 -94t139 -28.5z" />
    <glyph glyph-name="nine" unicode="9" horiz-adv-x="1138" 
d="M565 1458q208 0 338.5 -127t130.5 -332q0 -115 -49.5 -233t-163.5 -272l-362 -494h-187l400 553q-52 -16 -123 -16q-204 0 -338.5 130t-134.5 328q0 201 138.5 332t350.5 131zM244 999q0 -136 88.5 -223.5t230.5 -87.5q164 0 264 121q41 90 41 180q0 147 -85 232.5
t-222 85.5q-139 0 -228 -86t-89 -222z" />
    <glyph glyph-name="colon" unicode=":" horiz-adv-x="450" 
d="M96 846q0 51 35 87t86 36q52 0 87.5 -36t35.5 -87t-35.5 -87t-87.5 -36q-51 0 -86 36t-35 87zM96 102q0 52 35 87.5t86 35.5q53 0 88 -35.5t35 -87.5q0 -51 -35.5 -86.5t-87.5 -35.5q-51 0 -86 35.5t-35 86.5z" />
    <glyph glyph-name="semicolon" unicode=";" horiz-adv-x="450" 
d="M129 969q0 51 35.5 87t87.5 36q51 0 86 -36t35 -87t-35 -87t-86 -36q-52 0 -87.5 36t-35.5 87zM219 -2h-131l70 487h157z" />
    <glyph glyph-name="less" unicode="&#x3c;" horiz-adv-x="1021" 
d="M66 772l808 457v-182l-645 -336l645 -344v-189l-808 465v129z" />
    <glyph glyph-name="equal" unicode="=" horiz-adv-x="1216" 
d="M1069 1055v-154h-922v154h922zM1069 514v-154h-922v154h922z" />
    <glyph glyph-name="greater" unicode="&#x3e;" horiz-adv-x="1021" 
d="M793 711l-646 336v182l809 -457v-129l-809 -465v189z" />
    <glyph glyph-name="question" unicode="?" horiz-adv-x="985" 
d="M485 465l-139 35q10 70 38 128t63.5 97.5t76.5 73.5t80 63.5t70.5 60t51 70.5t19.5 88q0 103 -88 167.5t-206 64.5q-163 0 -330 -150l-60 119q39 37 73.5 63.5t85.5 55t115 44t136 15.5q107 0 194 -34.5t139 -90.5t79.5 -122t27.5 -134q0 -61 -21 -112t-56 -88t-77 -71
t-86.5 -68t-82.5 -71.5t-66 -89.5t-37 -114zM279 106q0 52 34.5 87.5t85.5 35.5q53 0 88 -35.5t35 -87.5q0 -51 -35.5 -86.5t-87.5 -35.5q-51 0 -85.5 35.5t-34.5 86.5z" />
    <glyph glyph-name="at" unicode="@" horiz-adv-x="1728" 
d="M1087 895h152l-74 -551q-7 -50 10 -81.5t60 -31.5q60 0 116 61.5t90 162t34 207.5q0 105 -35.5 199t-103.5 168t-177 117.5t-246 43.5q-128 0 -236 -38.5t-186 -107t-133 -162.5t-81.5 -205.5t-26.5 -234.5q0 -285 145.5 -432t419.5 -147q168 0 365 57l32 -127
q-207 -69 -407 -69q-212 0 -370 81t-246.5 242t-88.5 385q0 144 35.5 277t106 244.5t169 194t230.5 129t283 46.5q166 0 302 -55.5t221 -148t131 -207t46 -238.5q0 -71 -14.5 -146.5t-47.5 -153t-80 -138.5t-119.5 -99.5t-158.5 -38.5q-98 0 -141.5 44t-50.5 122
q-109 -139 -264 -139q-124 0 -201.5 86.5t-77.5 249.5q0 204 113 328t278 124q144 0 211 -139zM788 266q78 0 146.5 71.5t101.5 192.5l2 13q-24 123 -74.5 177t-111.5 54q-96 0 -160.5 -69t-64.5 -218q0 -115 47 -168t114 -53z" />
    <glyph glyph-name="A" unicode="A" horiz-adv-x="1271" 
d="M1253 0h-178l-155 430h-576l-151 -430h-179l543 1440h160zM629 1237l-234 -659h471z" />
    </font>
</defs>
</svg>
