<?xml version="1.0" standalone="no"?>
<!DOCTYPE svg PUBLIC "-//W3C//DTD SVG 1.1//EN" "http://www.w3.org/Graphics/SVG/1.1/DTD/svg11.dtd" >
<svg xmlns="http://www.w3.org/2000/svg" xmlns:xlink="http://www.w3.org/1999/xlink" version="1.1">
<metadata>
Created by FontForge 20170731 at Thu Jul 20 15:17:22 2023
 By Aleksey,,,
Copyright (c) 2017 Commercial Type, Inc. All rights reserved.
</metadata>
<defs>
<font id="GraphikArabic-Black" horiz-adv-x="1228" >
  <font-face 
    font-family="Graphik Arabic Black"
    font-weight="900"
    font-stretch="normal"
    units-per-em="2048"
    panose-1="0 0 0 0 0 0 0 0 0 0"
    ascent="1638"
    descent="-410"
    x-height="1071"
    cap-height="1464"
    bbox="-502 -1051 3326 2333"
    underline-thickness="135"
    underline-position="-390"
    unicode-range="U+0020-FEFC"
  />
<missing-glyph horiz-adv-x="0" 
 />
    <glyph glyph-name="uniFC03" unicode="&#xfe8b;&#xfef0;" horiz-adv-x="1781" arabic-form="isolated" 
d="M1733 1272v-189l-490 -69v186l68 8q-41 53 -41 125q2 95 67 159t162 64q88 0 141.5 -55.5t59.5 -154.5l-117 -15q-27 39 -86 39q-84 0 -84 -53q0 -37 46.5 -58.5t111.5 -11.5zM1589 -90q0 -121 -102 -219t-284 -154.5t-408 -56.5q-752 0 -752 624q0 162 33 314h327
q-24 -132 -24 -230q0 -305 465 -305q215 0 339 28t124 79q0 34 -48.5 55t-150.5 21h-229v389h346q77 0 112 30.5t35 102.5q0 131 -37 346h336q35 -216 35 -410q0 -159 -66.5 -261t-189.5 -134q73 -43 106 -95t33 -124z" />
    <glyph glyph-name="uniFC04" unicode="&#xfe8b;&#xfef2;" horiz-adv-x="1781" arabic-form="isolated" 
d="M1733 1272v-189l-490 -69v186l68 8q-41 53 -41 125q2 95 67 159t162 64q88 0 141.5 -55.5t59.5 -154.5l-117 -15q-27 39 -86 39q-84 0 -84 -53q0 -37 46.5 -58.5t111.5 -11.5zM1589 -90q0 -121 -102 -219t-284 -154.5t-408 -56.5q-752 0 -752 624q0 162 33 314h327
q-24 -132 -24 -230q0 -305 465 -305q215 0 339 28t124 79q0 34 -48.5 55t-150.5 21h-229v389h346q77 0 112 30.5t35 102.5q0 131 -37 346h336q35 -216 35 -410q0 -159 -66.5 -261t-189.5 -134q73 -43 106 -95t33 -124zM1143 -795q0 -68 -46.5 -113.5t-115.5 -45.5
t-115.5 45.5t-46.5 113.5q0 69 46.5 116.5t115.5 47.5t115.5 -47.5t46.5 -116.5zM772 -795q0 -68 -45.5 -113.5t-114.5 -45.5t-116 46t-47 113q0 69 47 116.5t116 47.5t114.5 -47.5t45.5 -116.5z" />
    <glyph glyph-name="uniFC09" unicode="&#xfe91;&#xfef0;" horiz-adv-x="1781" arabic-form="isolated" 
d="M1589 -90q0 -121 -102 -219t-284 -154.5t-408 -56.5q-752 0 -752 624q0 162 33 314h327q-24 -132 -24 -230q0 -305 465 -305q215 0 339 28t124 79q0 34 -48.5 55t-150.5 21h-229v389h346q77 0 112 30.5t35 102.5q0 131 -37 346h336q35 -216 35 -410q0 -159 -66.5 -261
t-189.5 -134q73 -43 106 -95t33 -124zM1630 -678q0 -68 -46 -114t-114 -46q-69 0 -116 46t-47 114q0 69 47 116.5t116 47.5q67 0 113.5 -47.5t46.5 -116.5z" />
    <glyph glyph-name="uniFC0A" unicode="&#xfe91;&#xfef2;" horiz-adv-x="1781" arabic-form="isolated" 
d="M1589 -90q0 -121 -102 -219t-284 -154.5t-408 -56.5q-752 0 -752 624q0 162 33 314h327q-24 -132 -24 -230q0 -305 465 -305q215 0 339 28t124 79q0 34 -48.5 55t-150.5 21h-229v389h346q77 0 112 30.5t35 102.5q0 131 -37 346h336q35 -216 35 -410q0 -159 -66.5 -261
t-189.5 -134q73 -43 106 -95t33 -124zM1630 -678q0 -68 -46 -114t-114 -46q-69 0 -116 46t-47 114q0 69 47 116.5t116 47.5q67 0 113.5 -47.5t46.5 -116.5zM1143 -795q0 -68 -46.5 -113.5t-115.5 -45.5t-115.5 45.5t-46.5 113.5q0 69 46.5 116.5t115.5 47.5t115.5 -47.5
t46.5 -116.5zM772 -795q0 -68 -45.5 -113.5t-114.5 -45.5t-116 46t-47 113q0 69 47 116.5t116 47.5t114.5 -47.5t45.5 -116.5z" />
    <glyph glyph-name="uniFC0F" unicode="&#xfe97;&#xfef0;" horiz-adv-x="1781" arabic-form="isolated" 
d="M1837 1204q0 -68 -46.5 -114t-113.5 -46q-69 0 -116.5 46.5t-47.5 113.5q0 69 47.5 116.5t116.5 47.5q67 0 113.5 -47.5t46.5 -116.5zM1468 1204q0 -68 -46 -114t-115 -46t-115.5 46t-46.5 114q0 69 46.5 116.5t115.5 47.5t115 -47.5t46 -116.5zM1589 -90
q0 -121 -102 -219t-284 -154.5t-408 -56.5q-752 0 -752 624q0 162 33 314h327q-24 -132 -24 -230q0 -305 465 -305q215 0 339 28t124 79q0 34 -48.5 55t-150.5 21h-229v389h346q77 0 112 30.5t35 102.5q0 131 -37 346h336q35 -216 35 -410q0 -159 -66.5 -261t-189.5 -134
q73 -43 106 -95t33 -124z" />
    <glyph glyph-name="uniFC10" unicode="&#xfe97;&#xfef2;" horiz-adv-x="1781" arabic-form="isolated" 
d="M1837 1204q0 -68 -46.5 -114t-113.5 -46q-69 0 -116.5 46.5t-47.5 113.5q0 69 47.5 116.5t116.5 47.5q67 0 113.5 -47.5t46.5 -116.5zM1468 1204q0 -68 -46 -114t-115 -46t-115.5 46t-46.5 114q0 69 46.5 116.5t115.5 47.5t115 -47.5t46 -116.5zM1589 -90
q0 -121 -102 -219t-284 -154.5t-408 -56.5q-752 0 -752 624q0 162 33 314h327q-24 -132 -24 -230q0 -305 465 -305q215 0 339 28t124 79q0 34 -48.5 55t-150.5 21h-229v389h346q77 0 112 30.5t35 102.5q0 131 -37 346h336q35 -216 35 -410q0 -159 -66.5 -261t-189.5 -134
q73 -43 106 -95t33 -124zM1143 -795q0 -68 -46.5 -113.5t-115.5 -45.5t-115.5 45.5t-46.5 113.5q0 69 46.5 116.5t115.5 47.5t115.5 -47.5t46.5 -116.5zM772 -795q0 -68 -45.5 -113.5t-114.5 -45.5t-116 46t-47 113q0 69 47 116.5t116 47.5t114.5 -47.5t45.5 -116.5z" />
    <glyph glyph-name="uniFC13" unicode="&#xfe9b;&#xfef0;" horiz-adv-x="1781" arabic-form="isolated" 
d="M1624 1456q0 -57 -38 -95t-95 -38t-96 38t-39 95t39 96t96 39t95 -39t38 -96zM1468 1178q0 -57 -38 -95.5t-95 -38.5t-96 38.5t-39 95.5t39 96t96 39t95 -39t38 -96zM1782 1178q0 -57 -38 -95.5t-95 -38.5t-96.5 38.5t-39.5 95.5t39.5 96t96.5 39t95 -39t38 -96z
M1589 -90q0 -121 -102 -219t-284 -154.5t-408 -56.5q-752 0 -752 624q0 162 33 314h327q-24 -132 -24 -230q0 -305 465 -305q215 0 339 28t124 79q0 34 -48.5 55t-150.5 21h-229v389h346q77 0 112 30.5t35 102.5q0 131 -37 346h336q35 -216 35 -410q0 -159 -66.5 -261
t-189.5 -134q73 -43 106 -95t33 -124z" />
    <glyph glyph-name="uniFC14" unicode="&#xfe9b;&#xfef2;" horiz-adv-x="1781" arabic-form="isolated" 
d="M1624 1456q0 -57 -38 -95t-95 -38t-96 38t-39 95t39 96t96 39t95 -39t38 -96zM1468 1178q0 -57 -38 -95.5t-95 -38.5t-96 38.5t-39 95.5t39 96t96 39t95 -39t38 -96zM1782 1178q0 -57 -38 -95.5t-95 -38.5t-96.5 38.5t-39.5 95.5t39.5 96t96.5 39t95 -39t38 -96z
M1589 -90q0 -121 -102 -219t-284 -154.5t-408 -56.5q-752 0 -752 624q0 162 33 314h327q-24 -132 -24 -230q0 -305 465 -305q215 0 339 28t124 79q0 34 -48.5 55t-150.5 21h-229v389h346q77 0 112 30.5t35 102.5q0 131 -37 346h336q35 -216 35 -410q0 -159 -66.5 -261
t-189.5 -134q73 -43 106 -95t33 -124zM1143 -795q0 -68 -46.5 -113.5t-115.5 -45.5t-115.5 45.5t-46.5 113.5q0 69 46.5 116.5t115.5 47.5t115.5 -47.5t46.5 -116.5zM772 -795q0 -68 -45.5 -113.5t-114.5 -45.5t-116 46t-47 113q0 69 47 116.5t116 47.5t114.5 -47.5
t45.5 -116.5z" />
    <glyph glyph-name="uniFC31" unicode="&#xfed3;&#xfef0;" horiz-adv-x="1736" arabic-form="isolated" 
d="M1327 1630q0 -68 -46.5 -114t-115.5 -46t-116.5 46.5t-47.5 113.5q0 69 47.5 116.5t116.5 47.5t115.5 -47.5t46.5 -116.5zM1546 -94q0 -119 -96 -216.5t-268 -153.5t-385 -56q-380 0 -567 162.5t-185 490.5q0 137 37 285h326q-21 -168 -21 -213q0 -322 459 -322
q193 0 305.5 27t112.5 76q0 63 -199 63h-229v365l346 -2q143 0 200.5 34.5t67.5 131.5q-115 -48 -334 -48q-189 0 -297 91.5t-108 246.5q0 128 64 242t171 182t228 68q212 0 357.5 -201.5t145.5 -513.5q0 -235 -66 -358t-222 -164q157 -58 157 -217zM950 877q0 -86 183 -86
q171 0 280 20q-43 80 -124 125t-171 45q-80 0 -124 -31t-44 -73z" />
    <glyph glyph-name="uniFC32" unicode="&#xfed3;&#xfef2;" horiz-adv-x="1736" arabic-form="isolated" 
d="M1327 1630q0 -68 -46.5 -114t-115.5 -46t-116.5 46.5t-47.5 113.5q0 69 47.5 116.5t116.5 47.5t115.5 -47.5t46.5 -116.5zM1546 -94q0 -119 -96 -216.5t-268 -153.5t-385 -56q-380 0 -567 162.5t-185 490.5q0 137 37 285h326q-21 -168 -21 -213q0 -322 459 -322
q193 0 305.5 27t112.5 76q0 63 -199 63h-229v365l346 -2q143 0 200.5 34.5t67.5 131.5q-115 -48 -334 -48q-189 0 -297 91.5t-108 246.5q0 128 64 242t171 182t228 68q212 0 357.5 -201.5t145.5 -513.5q0 -235 -66 -358t-222 -164q157 -58 157 -217zM950 877q0 -86 183 -86
q171 0 280 20q-43 80 -124 125t-171 45q-80 0 -124 -31t-44 -73zM1135 -778q0 -69 -46.5 -114.5t-115.5 -45.5t-115.5 45.5t-46.5 114.5t46.5 116.5t115.5 47.5t115.5 -47.5t46.5 -116.5zM764 -778q0 -69 -45.5 -114.5t-114.5 -45.5t-116.5 45.5t-47.5 114.5t47.5 116.5
t116.5 47.5t114.5 -47.5t45.5 -116.5z" />
    <glyph glyph-name="uniFC35" unicode="&#xfed7;&#xfef0;" horiz-adv-x="1736" arabic-form="isolated" 
d="M1520 1630q0 -68 -45.5 -114t-114.5 -46t-116.5 46.5t-47.5 113.5q0 69 47.5 116.5t116.5 47.5t114.5 -47.5t45.5 -116.5zM1151 1630q0 -68 -46.5 -114t-113.5 -46q-69 0 -116.5 46.5t-47.5 113.5q0 69 47.5 116.5t116.5 47.5q67 0 113.5 -47.5t46.5 -116.5zM1546 -94
q0 -119 -96 -216.5t-268 -153.5t-385 -56q-380 0 -567 162.5t-185 490.5q0 137 37 285h326q-21 -168 -21 -213q0 -322 459 -322q193 0 305.5 27t112.5 76q0 63 -199 63h-229v365l346 -2q143 0 200.5 34.5t67.5 131.5q-115 -48 -334 -48q-189 0 -297 91.5t-108 246.5
q0 128 64 242t171 182t228 68q212 0 357.5 -201.5t145.5 -513.5q0 -235 -66 -358t-222 -164q157 -58 157 -217zM950 877q0 -86 183 -86q171 0 280 20q-43 80 -124 125t-171 45q-80 0 -124 -31t-44 -73z" />
    <glyph glyph-name="uniFC36" unicode="&#xfed7;&#xfef2;" horiz-adv-x="1736" arabic-form="isolated" 
d="M1520 1630q0 -68 -45.5 -114t-114.5 -46t-116.5 46.5t-47.5 113.5q0 69 47.5 116.5t116.5 47.5t114.5 -47.5t45.5 -116.5zM1151 1630q0 -68 -46.5 -114t-113.5 -46q-69 0 -116.5 46.5t-47.5 113.5q0 69 47.5 116.5t116.5 47.5q67 0 113.5 -47.5t46.5 -116.5zM1546 -94
q0 -119 -96 -216.5t-268 -153.5t-385 -56q-380 0 -567 162.5t-185 490.5q0 137 37 285h326q-21 -168 -21 -213q0 -322 459 -322q193 0 305.5 27t112.5 76q0 63 -199 63h-229v365l346 -2q143 0 200.5 34.5t67.5 131.5q-115 -48 -334 -48q-189 0 -297 91.5t-108 246.5
q0 128 64 242t171 182t228 68q212 0 357.5 -201.5t145.5 -513.5q0 -235 -66 -358t-222 -164q157 -58 157 -217zM950 877q0 -86 183 -86q171 0 280 20q-43 80 -124 125t-171 45q-80 0 -124 -31t-44 -73zM1135 -778q0 -69 -46.5 -114.5t-115.5 -45.5t-115.5 45.5t-46.5 114.5
t46.5 116.5t115.5 47.5t115.5 -47.5t46.5 -116.5zM764 -778q0 -69 -45.5 -114.5t-114.5 -45.5t-116.5 45.5t-47.5 114.5t47.5 116.5t116.5 47.5t114.5 -47.5t45.5 -116.5z" />
    <glyph glyph-name="uniFC3D" unicode="&#xfedb;&#xfef0;" horiz-adv-x="1658" arabic-form="isolated" 
d="M1585 -68q0 -128 -102 -231.5t-283 -162t-405 -58.5q-380 0 -565 162.5t-187 490.5q0 137 37 285h326q-21 -168 -21 -213q0 -322 459 -322q212 0 335.5 29t123.5 80q0 34 -48.5 54t-144.5 20h-236v372h320q96 0 96 58q0 31 -33 57t-122 57l-420 125v330l962 504l-2 -361
l-530 -272l78 -27q354 -104 354 -407q0 -223 -168 -328q176 -71 176 -242z" />
    <glyph glyph-name="uniFC3E" unicode="&#xfedb;&#xfef2;" horiz-adv-x="1658" arabic-form="isolated" 
d="M1585 -68q0 -128 -102 -231.5t-283 -162t-405 -58.5q-380 0 -565 162.5t-187 490.5q0 137 37 285h326q-21 -168 -21 -213q0 -322 459 -322q212 0 335.5 29t123.5 80q0 34 -48.5 54t-144.5 20h-236v372h320q96 0 96 58q0 31 -33 57t-122 57l-420 125v330l962 504l-2 -361
l-530 -272l78 -27q354 -104 354 -407q0 -223 -168 -328q176 -71 176 -242zM1143 -778q0 -69 -45.5 -114.5t-114.5 -45.5t-116.5 45.5t-47.5 114.5t47.5 116.5t116.5 47.5t114.5 -47.5t45.5 -116.5zM774 -778q0 -69 -46 -114.5t-114 -45.5q-69 0 -116 45.5t-47 114.5
t47 116.5t116 47.5q67 0 113.5 -47.5t46.5 -116.5z" />
    <glyph glyph-name="uniFC3F" unicode="&#xfedf;&#xfe9e;" horiz-adv-x="1421" arabic-form="isolated" 
d="M1354 -145v-420q-109 -49 -256 -78t-297 -29q-365 0 -572 160q-206 156 -206 422q0 178 101 318.5t296 232.5q-222 -10 -342 -10v403h397q93 0 124.5 36t31.5 144v502h360v-467q0 -136 -39 -215h420l-2 -401h-55q-462 0 -709 -119q-248 -117 -248 -303q0 -131 126.5 -205
t349.5 -74q271 0 520 103zM981 78q0 -69 -46 -115.5t-114 -46.5q-69 0 -116.5 46.5t-47.5 115.5t47.5 116.5t116.5 47.5q67 0 113.5 -47.5t46.5 -116.5z" />
    <glyph glyph-name="uniFC40" unicode="&#xfedf;&#xfea2;" horiz-adv-x="1421" arabic-form="isolated" 
d="M1354 -145v-420q-109 -49 -256 -78t-297 -29q-365 0 -572 160q-206 156 -206 422q0 178 101 318.5t296 232.5q-222 -10 -342 -10v403h397q93 0 124.5 36t31.5 144v502h360v-467q0 -136 -39 -215h420l-2 -401h-55q-462 0 -709 -119q-248 -117 -248 -303q0 -131 126.5 -205
t349.5 -74q271 0 520 103z" />
    <glyph glyph-name="uniFC41" unicode="&#xfedf;&#xfea6;" horiz-adv-x="1421" arabic-form="isolated" 
d="M1354 -145v-420q-109 -49 -256 -78t-297 -29q-365 0 -572 160q-206 156 -206 422q0 178 101 318.5t296 232.5q-222 -10 -342 -10v403h397q93 0 124.5 36t31.5 144v502h360v-467q0 -136 -39 -215h420l-2 -401h-55q-462 0 -709 -119q-248 -117 -248 -303q0 -131 126.5 -205
t349.5 -74q271 0 520 103zM426 1194q0 -69 -46.5 -115.5t-115.5 -46.5t-116.5 46.5t-47.5 115.5t47.5 115.5t116.5 46.5t115.5 -46.5t46.5 -115.5z" />
    <glyph glyph-name="uniFC42" unicode="&#xfedf;&#xfee2;" horiz-adv-x="1384" arabic-form="isolated" 
d="M465 -90v-582h-361v606q0 272 117 406.5t340 134.5q85 0 154 -16q-42 49 -59 113.5t-17 168.5v793h360v-793q0 -84 11.5 -148t28 -104.5t48.5 -74.5t59.5 -52.5t74.5 -44.5l153 -84l-186 -337l-115 61q-103 60 -227 95.5t-219 35.5q-91 0 -126.5 -42t-35.5 -136z" />
    <glyph glyph-name="uniFC43" unicode="&#xfedf;&#xfef0;" horiz-adv-x="1695" arabic-form="isolated" 
d="M1587 -68q0 -131 -102 -234.5t-282.5 -160.5t-405.5 -57q-380 0 -567 162.5t-185 490.5q0 137 37 285h326q-21 -168 -21 -213q0 -322 459 -322q213 0 336 28t123 79q0 33 -50 54.5t-149 21.5h-229v389h167q100 0 139.5 34t39.5 121v926h360v-926q0 -179 -37 -283
t-121 -155q162 -64 162 -240z" />
    <glyph glyph-name="uniFC44" unicode="&#xfedf;&#xfef2;" horiz-adv-x="1695" arabic-form="isolated" 
d="M1587 -68q0 -131 -102 -234.5t-282.5 -160.5t-405.5 -57q-380 0 -567 162.5t-185 490.5q0 137 37 285h326q-21 -168 -21 -213q0 -322 459 -322q213 0 336 28t123 79q0 33 -50 54.5t-149 21.5h-229v389h167q100 0 139.5 34t39.5 121v926h360v-926q0 -179 -37 -283
t-121 -155q162 -64 162 -240zM1176 -795q0 -68 -45.5 -113.5t-114.5 -45.5t-116.5 46t-47.5 113q0 69 47.5 116.5t116.5 47.5t114.5 -47.5t45.5 -116.5zM807 -795q0 -67 -46 -113t-114 -46q-69 0 -116.5 46t-47.5 113q0 69 47.5 116.5t116.5 47.5q67 0 113.5 -47.5
t46.5 -116.5z" />
    <glyph glyph-name="uniFC4F" unicode="&#xfee7;&#xfef0;" horiz-adv-x="1781" arabic-form="isolated" 
d="M1642 1204q0 -68 -45 -114t-114 -46t-116.5 46.5t-47.5 113.5q0 69 47.5 116.5t116.5 47.5t114 -47t45 -117zM1589 -90q0 -121 -102 -219t-284 -154.5t-408 -56.5q-752 0 -752 624q0 162 33 314h327q-24 -132 -24 -230q0 -305 465 -305q215 0 339 28t124 79
q0 34 -48.5 55t-150.5 21h-229v389h346q77 0 112 30.5t35 102.5q0 131 -37 346h336q35 -216 35 -410q0 -159 -66.5 -261t-189.5 -134q73 -43 106 -95t33 -124z" />
    <glyph glyph-name="uniFC50" unicode="&#xfee7;&#xfef2;" horiz-adv-x="1781" arabic-form="isolated" 
d="M1642 1204q0 -68 -45 -114t-114 -46t-116.5 46.5t-47.5 113.5q0 69 47.5 116.5t116.5 47.5t114 -47t45 -117zM1589 -90q0 -121 -102 -219t-284 -154.5t-408 -56.5q-752 0 -752 624q0 162 33 314h327q-24 -132 -24 -230q0 -305 465 -305q215 0 339 28t124 79
q0 34 -48.5 55t-150.5 21h-229v389h346q77 0 112 30.5t35 102.5q0 131 -37 346h336q35 -216 35 -410q0 -159 -66.5 -261t-189.5 -134q73 -43 106 -95t33 -124zM1143 -795q0 -68 -46.5 -113.5t-115.5 -45.5t-115.5 45.5t-46.5 113.5q0 69 46.5 116.5t115.5 47.5t115.5 -47.5
t46.5 -116.5zM772 -795q0 -68 -45.5 -113.5t-114.5 -45.5t-116 46t-47 113q0 69 47 116.5t116 47.5t114.5 -47.5t45.5 -116.5z" />
    <glyph glyph-name="uniFC53" unicode="&#xfeeb;&#xfef0;" horiz-adv-x="2637" arabic-form="isolated" 
d="M1587 -119q0 -110 -99.5 -201.5t-283.5 -145.5t-416 -54q-375 0 -560 163t-183 490q0 137 37 285h326q-21 -168 -21 -213q0 -322 434 -322q234 0 359 22.5t125 61.5q0 68 -181 68h-59v352l274 2h50q-41 90 -41 195q0 115 55.5 208.5t150.5 143.5v260l379 -100
q252 -66 396 -147t207 -190.5t63 -271.5q0 -240 -142 -377t-393 -137q-238 0 -438 133q-69 -19 -166 -36q127 -64 127 -189zM1602 584q0 -106 129 -160q94 23 133 61.5t39 92.5q0 61 -45 101t-111 40t-105.5 -38.5t-39.5 -96.5zM2134 584q0 -121 -78 -222q27 -2 92 -2
q102 0 149.5 26t47.5 85q0 56 -50.5 96.5t-162.5 77.5q2 -18 2 -61z" />
    <glyph glyph-name="uniFC54" unicode="&#xfeeb;&#xfef2;" horiz-adv-x="2637" arabic-form="isolated" 
d="M1587 -119q0 -110 -99.5 -201.5t-283.5 -145.5t-416 -54q-375 0 -560 163t-183 490q0 137 37 285h326q-21 -168 -21 -213q0 -322 434 -322q234 0 359 22.5t125 61.5q0 68 -181 68h-59v352l274 2h50q-41 90 -41 195q0 115 55.5 208.5t150.5 143.5v260l379 -100
q252 -66 396 -147t207 -190.5t63 -271.5q0 -240 -142 -377t-393 -137q-238 0 -438 133q-69 -19 -166 -36q127 -64 127 -189zM1602 584q0 -106 129 -160q94 23 133 61.5t39 92.5q0 61 -45 101t-111 40t-105.5 -38.5t-39.5 -96.5zM2134 584q0 -121 -78 -222q27 -2 92 -2
q102 0 149.5 26t47.5 85q0 56 -50.5 96.5t-162.5 77.5q2 -18 2 -61zM1145 -795q0 -68 -46.5 -113.5t-115.5 -45.5t-115.5 45.5t-46.5 113.5q0 69 46.5 116.5t115.5 47.5t115.5 -47.5t46.5 -116.5zM774 -795q0 -68 -45.5 -113.5t-114.5 -45.5t-116 46t-47 113q0 69 47 116.5
t116 47.5t114.5 -47.5t45.5 -116.5z" />
    <glyph glyph-name="uniFC59" unicode="&#xfef3;&#xfef0;" horiz-adv-x="1781" arabic-form="isolated" 
d="M1589 -90q0 -121 -102 -219t-284 -154.5t-408 -56.5q-752 0 -752 624q0 162 33 314h327q-24 -132 -24 -230q0 -305 465 -305q215 0 339 28t124 79q0 34 -48.5 55t-150.5 21h-229v389h346q77 0 112 30.5t35 102.5q0 131 -37 346h336q35 -216 35 -410q0 -159 -66.5 -261
t-189.5 -134q73 -43 106 -95t33 -124zM1823 -678q0 -68 -46.5 -114t-113.5 -46q-69 0 -116.5 46.5t-47.5 113.5q0 69 47.5 116.5t116.5 47.5q67 0 113.5 -47.5t46.5 -116.5zM1454 -678q0 -68 -46.5 -114t-115.5 -46t-116.5 46.5t-47.5 113.5q0 69 47.5 116.5t116.5 47.5
t115.5 -47.5t46.5 -116.5z" />
    <glyph glyph-name="uniFC5A" unicode="&#xfef3;&#xfef2;" horiz-adv-x="1781" arabic-form="isolated" 
d="M1589 -90q0 -121 -102 -219t-284 -154.5t-408 -56.5q-752 0 -752 624q0 162 33 314h327q-24 -132 -24 -230q0 -305 465 -305q215 0 339 28t124 79q0 34 -48.5 55t-150.5 21h-229v389h346q77 0 112 30.5t35 102.5q0 131 -37 346h336q35 -216 35 -410q0 -159 -66.5 -261
t-189.5 -134q73 -43 106 -95t33 -124zM1823 -678q0 -68 -46.5 -114t-113.5 -46q-69 0 -116.5 46.5t-47.5 113.5q0 69 47.5 116.5t116.5 47.5q67 0 113.5 -47.5t46.5 -116.5zM1454 -678q0 -68 -46.5 -114t-115.5 -46t-116.5 46.5t-47.5 113.5q0 69 47.5 116.5t116.5 47.5
t115.5 -47.5t46.5 -116.5zM1143 -795q0 -68 -46.5 -113.5t-115.5 -45.5t-115.5 45.5t-46.5 113.5q0 69 46.5 116.5t115.5 47.5t115.5 -47.5t46.5 -116.5zM772 -795q0 -68 -45.5 -113.5t-114.5 -45.5t-116 46t-47 113q0 69 47 116.5t116 47.5t114.5 -47.5t45.5 -116.5z" />
    <glyph glyph-name="uniFC64" unicode="&#xfe8c;&#xfeae;" horiz-adv-x="1345" arabic-form="final" 
d="M1165 1202v-186l-489 -70v187l65 8q-39 51 -39 123q2 95 67.5 160t162.5 65q88 0 141.5 -56.5t59.5 -154.5l-117 -16q-24 38 -86 38q-84 0 -84 -53q0 -36 46.5 -56.5t111.5 -10.5zM612 231q0 -377 -135 -557t-422 -180q-76 0 -186 10v394q107 -15 176 -15q130 0 186 77.5
t56 256.5q0 60 -21 266l-37 308l908 71l34 -317q7 -91 45 -124.5t130 -33.5v-313l-72 -74q-202 0 -295 100q-92 99 -133 353l-242 -21q1 -23 4.5 -92.5t3.5 -108.5z" />
    <glyph glyph-name="uniFC65" unicode="&#xfe8c;&#xfeb0;" horiz-adv-x="1345" arabic-form="final" 
d="M1165 1202v-186l-489 -70v187l65 8q-39 51 -39 123q2 95 67.5 160t162.5 65q88 0 141.5 -56.5t59.5 -154.5l-117 -16q-24 38 -86 38q-84 0 -84 -53q0 -36 46.5 -56.5t111.5 -10.5zM479 1120q0 -69 -46 -114t-114 -45q-69 0 -116 45t-47 114t47 116.5t116 47.5
q67 0 113.5 -47.5t46.5 -116.5zM612 231q0 -377 -135 -557t-422 -180q-76 0 -186 10v394q107 -15 176 -15q130 0 186 77.5t56 256.5q0 60 -21 266l-37 308l908 71l34 -317q7 -91 45 -124.5t130 -33.5v-313l-72 -74q-202 0 -295 100q-92 99 -133 353l-242 -21
q1 -23 4.5 -92.5t3.5 -108.5z" />
    <glyph glyph-name="uniFC67" unicode="&#xfe8c;&#xfee6;" horiz-adv-x="2121" arabic-form="final" 
d="M2034 1200v-188l-488 -70v186l66 9q-41 53 -41 125q2 95 67 159t162 64q88 0 141.5 -56t59.5 -155l-117 -14q-26 38 -86 38q-84 0 -84 -53q0 -37 46.5 -58t111.5 -11zM868 891q0 -68 -46 -114t-113 -46q-69 0 -116.5 46.5t-47.5 113.5q0 69 47.5 116.5t116.5 47.5
q67 0 113 -47.5t46 -116.5zM1389 293q0 -327 -181 -508q-178 -184 -493 -184q-658 0 -670 628q-3 154 31 334h327q-27 -136 -24 -223q0 -166 89 -251t261 -85q191 0 282 68.5t91 210.5q0 44 -19 200l-36 308l868 71l35 -317q8 -91 44.5 -124.5t129.5 -33.5v-313l-74 -74
q-200 0 -293 100q-92 99 -133 353l-244 -21q9 -77 9 -139z" />
    <glyph glyph-name="uniFC68" unicode="&#xfe8c;&#xfef0;" horiz-adv-x="2101" arabic-form="final" 
d="M1501 1370v-186l-489 -70v186l65 9q-39 51 -39 125q0 94 66 158.5t164 64.5q88 0 141 -55.5t59 -155.5l-116 -14q-26 38 -86 38q-84 0 -84 -53q0 -38 45.5 -58.5t111.5 -10.5zM1597 53q0 -133 -62 -242t-170 -181t-254.5 -111t-315.5 -39q-379 0 -565.5 162.5
t-186.5 490.5q0 124 29 285h327q-22 -126 -22 -213q0 -165 117.5 -243.5t363.5 -78.5q191 0 316.5 29t125.5 74q0 31 -46.5 50t-163.5 36l-203 26q-170 25 -250 107t-80 229q0 113 61.5 223.5t159.5 192.5t226.5 133t255.5 51q197 0 325 -90q127 -89 244 -307l69 -125
q38 -74 79.5 -99.5t123.5 -25.5v-313l-73 -74q-150 0 -236 51q-87 52 -176 228l-57 110q-72 141 -164 199q-86 57 -250 57q-120 0 -211 -31q-90 -27 -90 -79q0 -32 29.5 -48.5t105.5 -23.5l209 -31q224 -29 316.5 -117t92.5 -262z" />
    <glyph glyph-name="uniFC69" unicode="&#xfe8c;&#xfef2;" horiz-adv-x="2101" arabic-form="final" 
d="M1501 1370v-186l-489 -70v186l65 9q-39 51 -39 125q0 94 66 158.5t164 64.5q88 0 141 -55.5t59 -155.5l-116 -14q-26 38 -86 38q-84 0 -84 -53q0 -38 45.5 -58.5t111.5 -10.5zM1597 53q0 -133 -62 -242t-170 -181t-254.5 -111t-315.5 -39q-379 0 -565.5 162.5
t-186.5 490.5q0 124 29 285h327q-22 -126 -22 -213q0 -165 117.5 -243.5t363.5 -78.5q191 0 316.5 29t125.5 74q0 31 -46.5 50t-163.5 36l-203 26q-170 25 -250 107t-80 229q0 113 61.5 223.5t159.5 192.5t226.5 133t255.5 51q197 0 325 -90q127 -89 244 -307l69 -125
q38 -74 79.5 -99.5t123.5 -25.5v-313l-73 -74q-150 0 -236 51q-87 52 -176 228l-57 110q-72 141 -164 199q-86 57 -250 57q-120 0 -211 -31q-90 -27 -90 -79q0 -32 29.5 -48.5t105.5 -23.5l209 -31q224 -29 316.5 -117t92.5 -262zM1141 -795q0 -68 -45.5 -113.5
t-114.5 -45.5t-116.5 46t-47.5 113q0 69 47.5 116.5t116.5 47.5t114.5 -47.5t45.5 -116.5zM772 -795q0 -67 -46 -113t-114 -46q-69 0 -116 46t-47 113q0 69 47 116.5t116 47.5q67 0 113.5 -47.5t46.5 -116.5z" />
    <glyph glyph-name="uniFC6A" unicode="&#xfe92;&#xfeae;" horiz-adv-x="1345" arabic-form="final" 
d="M612 231q0 -377 -135 -557t-422 -180q-76 0 -186 10v394q107 -15 176 -15q130 0 186 77.5t56 256.5q0 60 -21 266l-37 308l908 71l34 -317q7 -91 45 -124.5t130 -33.5v-313l-72 -74q-202 0 -295 100q-92 99 -133 353l-242 -21q1 -23 4.5 -92.5t3.5 -108.5zM1157 -272
q0 -69 -46 -115.5t-114 -46.5q-69 0 -116 46.5t-47 115.5t47 116t116 47q68 0 114 -47t46 -116z" />
    <glyph glyph-name="uniFC6B" unicode="&#xfe92;&#xfeb0;" horiz-adv-x="1345" arabic-form="final" 
d="M479 1120q0 -69 -46 -114t-114 -45q-69 0 -116 45t-47 114t47 116.5t116 47.5q67 0 113.5 -47.5t46.5 -116.5zM612 231q0 -377 -135 -557t-422 -180q-76 0 -186 10v394q107 -15 176 -15q130 0 186 77.5t56 256.5q0 60 -21 266l-37 308l908 71l34 -317q7 -91 45 -124.5
t130 -33.5v-313l-72 -74q-202 0 -295 100q-92 99 -133 353l-242 -21q1 -23 4.5 -92.5t3.5 -108.5zM1157 -272q0 -69 -46 -115.5t-114 -46.5q-69 0 -116 46.5t-47 115.5t47 116t116 47q68 0 114 -47t46 -116z" />
    <glyph glyph-name="uniFC6D" unicode="&#xfe92;&#xfee6;" horiz-adv-x="2121" arabic-form="final" 
d="M868 891q0 -68 -46 -114t-113 -46q-69 0 -116.5 46.5t-47.5 113.5q0 69 47.5 116.5t116.5 47.5q67 0 113 -47.5t46 -116.5zM1389 293q0 -327 -181 -508q-178 -184 -493 -184q-658 0 -670 628q-3 154 31 334h327q-27 -136 -24 -223q0 -166 89 -251t261 -85q191 0 282 68.5
t91 210.5q0 44 -19 200l-36 308l868 71l35 -317q8 -91 44.5 -124.5t129.5 -33.5v-313l-74 -74q-200 0 -293 100q-92 99 -133 353l-244 -21q9 -77 9 -139zM1913 -272q0 -69 -45.5 -115.5t-114.5 -46.5t-116.5 46.5t-47.5 115.5t47.5 116t116.5 47t114.5 -47t45.5 -116z" />
    <glyph glyph-name="uniFC6E" unicode="&#xfe92;&#xfef0;" horiz-adv-x="2101" arabic-form="final" 
d="M1597 53q0 -133 -62 -242t-170 -181t-254.5 -111t-315.5 -39q-379 0 -565.5 162.5t-186.5 490.5q0 124 29 285h327q-22 -126 -22 -213q0 -165 117.5 -243.5t363.5 -78.5q191 0 316.5 29t125.5 74q0 31 -46.5 50t-163.5 36l-203 26q-170 25 -250 107t-80 229
q0 113 61.5 223.5t159.5 192.5t226.5 133t255.5 51q197 0 325 -90q127 -89 244 -307l69 -125q38 -74 79.5 -99.5t123.5 -25.5v-313l-73 -74q-150 0 -236 51q-87 52 -176 228l-57 110q-72 141 -164 199q-86 57 -250 57q-120 0 -211 -31q-90 -27 -90 -79q0 -32 29.5 -48.5
t105.5 -23.5l209 -31q224 -29 316.5 -117t92.5 -262zM1905 -557q0 -69 -45.5 -114.5t-114.5 -45.5t-116.5 45.5t-47.5 114.5t47.5 116.5t116.5 47.5t114.5 -47.5t45.5 -116.5z" />
    <glyph glyph-name="uniFC6F" unicode="&#xfe92;&#xfef2;" horiz-adv-x="2101" arabic-form="final" 
d="M1597 53q0 -133 -62 -242t-170 -181t-254.5 -111t-315.5 -39q-379 0 -565.5 162.5t-186.5 490.5q0 124 29 285h327q-22 -126 -22 -213q0 -165 117.5 -243.5t363.5 -78.5q191 0 316.5 29t125.5 74q0 31 -46.5 50t-163.5 36l-203 26q-170 25 -250 107t-80 229
q0 113 61.5 223.5t159.5 192.5t226.5 133t255.5 51q197 0 325 -90q127 -89 244 -307l69 -125q38 -74 79.5 -99.5t123.5 -25.5v-313l-73 -74q-150 0 -236 51q-87 52 -176 228l-57 110q-72 141 -164 199q-86 57 -250 57q-120 0 -211 -31q-90 -27 -90 -79q0 -32 29.5 -48.5
t105.5 -23.5l209 -31q224 -29 316.5 -117t92.5 -262zM1905 -557q0 -69 -45.5 -114.5t-114.5 -45.5t-116.5 45.5t-47.5 114.5t47.5 116.5t116.5 47.5t114.5 -47.5t45.5 -116.5zM1141 -795q0 -68 -45.5 -113.5t-114.5 -45.5t-116.5 46t-47.5 113q0 69 47.5 116.5t116.5 47.5
t114.5 -47.5t45.5 -116.5zM772 -795q0 -67 -46 -113t-114 -46q-69 0 -116 46t-47 113q0 69 47 116.5t116 47.5q67 0 113.5 -47.5t46.5 -116.5z" />
    <glyph glyph-name="uniFC70" unicode="&#xfe98;&#xfeae;" horiz-adv-x="1345" arabic-form="final" 
d="M1270 1137q0 -69 -46 -115.5t-114 -46.5q-69 0 -116.5 46.5t-47.5 115.5t47.5 116t116.5 47q68 0 114 -47t46 -116zM901 1137q0 -69 -46.5 -115.5t-115.5 -46.5t-115 46.5t-46 115.5t46 116t115 47t115.5 -47t46.5 -116zM612 231q0 -377 -135 -557t-422 -180
q-76 0 -186 10v394q107 -15 176 -15q130 0 186 77.5t56 256.5q0 60 -21 266l-37 308l908 71l34 -317q7 -91 45 -124.5t130 -33.5v-313l-72 -74q-202 0 -295 100q-92 99 -133 353l-242 -21q1 -23 4.5 -92.5t3.5 -108.5z" />
    <glyph glyph-name="uniFC71" unicode="&#xfe98;&#xfeb0;" horiz-adv-x="1345" arabic-form="final" 
d="M1270 1137q0 -69 -46 -115.5t-114 -46.5q-69 0 -116.5 46.5t-47.5 115.5t47.5 116t116.5 47q68 0 114 -47t46 -116zM901 1137q0 -69 -46.5 -115.5t-115.5 -46.5t-115 46.5t-46 115.5t46 116t115 47t115.5 -47t46.5 -116zM479 1120q0 -69 -46 -114t-114 -45q-69 0 -116 45
t-47 114t47 116.5t116 47.5q67 0 113.5 -47.5t46.5 -116.5zM612 231q0 -377 -135 -557t-422 -180q-76 0 -186 10v394q107 -15 176 -15q130 0 186 77.5t56 256.5q0 60 -21 266l-37 308l908 71l34 -317q7 -91 45 -124.5t130 -33.5v-313l-72 -74q-202 0 -295 100
q-92 99 -133 353l-242 -21q1 -23 4.5 -92.5t3.5 -108.5z" />
    <glyph glyph-name="uniFC73" unicode="&#xfe98;&#xfee6;" horiz-adv-x="2121" arabic-form="final" 
d="M2138 1133q0 -68 -45.5 -114t-114.5 -46t-116 46t-47 114q0 69 47 116t116 47t114.5 -47t45.5 -116zM1769 1133q0 -68 -46 -114t-113 -46q-69 0 -116.5 46.5t-47.5 113.5q0 69 47.5 116t116.5 47q67 0 113 -47t46 -116zM868 891q0 -68 -46 -114t-113 -46
q-69 0 -116.5 46.5t-47.5 113.5q0 69 47.5 116.5t116.5 47.5q67 0 113 -47.5t46 -116.5zM1389 293q0 -327 -181 -508q-178 -184 -493 -184q-658 0 -670 628q-3 154 31 334h327q-27 -136 -24 -223q0 -166 89 -251t261 -85q191 0 282 68.5t91 210.5q0 44 -19 200l-36 308
l868 71l35 -317q8 -91 44.5 -124.5t129.5 -33.5v-313l-74 -74q-200 0 -293 100q-92 99 -133 353l-244 -21q9 -77 9 -139z" />
    <glyph glyph-name="uniFC74" unicode="&#xfe98;&#xfef0;" horiz-adv-x="2101" arabic-form="final" 
d="M1606 1305q0 -69 -46 -114.5t-114 -45.5q-69 0 -116.5 45.5t-47.5 114.5t47.5 116t116.5 47q68 0 114 -47t46 -116zM1237 1305q0 -69 -46.5 -114.5t-115.5 -45.5t-115.5 45.5t-46.5 114.5t46.5 116t115.5 47t115.5 -47t46.5 -116zM1597 53q0 -133 -62 -242t-170 -181
t-254.5 -111t-315.5 -39q-379 0 -565.5 162.5t-186.5 490.5q0 124 29 285h327q-22 -126 -22 -213q0 -165 117.5 -243.5t363.5 -78.5q191 0 316.5 29t125.5 74q0 31 -46.5 50t-163.5 36l-203 26q-170 25 -250 107t-80 229q0 113 61.5 223.5t159.5 192.5t226.5 133t255.5 51
q197 0 325 -90q127 -89 244 -307l69 -125q38 -74 79.5 -99.5t123.5 -25.5v-313l-73 -74q-150 0 -236 51q-87 52 -176 228l-57 110q-72 141 -164 199q-86 57 -250 57q-120 0 -211 -31q-90 -27 -90 -79q0 -32 29.5 -48.5t105.5 -23.5l209 -31q224 -29 316.5 -117t92.5 -262z
" />
    <glyph glyph-name="uniFC75" unicode="&#xfe98;&#xfef2;" horiz-adv-x="2101" arabic-form="final" 
d="M1606 1305q0 -69 -46 -114.5t-114 -45.5q-69 0 -116.5 45.5t-47.5 114.5t47.5 116t116.5 47q68 0 114 -47t46 -116zM1237 1305q0 -69 -46.5 -114.5t-115.5 -45.5t-115.5 45.5t-46.5 114.5t46.5 116t115.5 47t115.5 -47t46.5 -116zM1597 53q0 -133 -62 -242t-170 -181
t-254.5 -111t-315.5 -39q-379 0 -565.5 162.5t-186.5 490.5q0 124 29 285h327q-22 -126 -22 -213q0 -165 117.5 -243.5t363.5 -78.5q191 0 316.5 29t125.5 74q0 31 -46.5 50t-163.5 36l-203 26q-170 25 -250 107t-80 229q0 113 61.5 223.5t159.5 192.5t226.5 133t255.5 51
q197 0 325 -90q127 -89 244 -307l69 -125q38 -74 79.5 -99.5t123.5 -25.5v-313l-73 -74q-150 0 -236 51q-87 52 -176 228l-57 110q-72 141 -164 199q-86 57 -250 57q-120 0 -211 -31q-90 -27 -90 -79q0 -32 29.5 -48.5t105.5 -23.5l209 -31q224 -29 316.5 -117t92.5 -262z
M1141 -795q0 -68 -45.5 -113.5t-114.5 -45.5t-116.5 46t-47.5 113q0 69 47.5 116.5t116.5 47.5t114.5 -47.5t45.5 -116.5zM772 -795q0 -67 -46 -113t-114 -46q-69 0 -116 46t-47 113q0 69 47 116.5t116 47.5q67 0 113.5 -47.5t46.5 -116.5z" />
    <glyph glyph-name="uniFC76" unicode="&#xfe9c;&#xfeae;" horiz-adv-x="1345" arabic-form="final" 
d="M1057 1386q0 -56 -38 -94.5t-95 -38.5t-96.5 38.5t-39.5 94.5q0 57 39.5 96.5t96.5 39.5t95 -39.5t38 -96.5zM901 1108q0 -56 -38 -94.5t-95 -38.5t-96 38.5t-39 94.5q0 57 39 96t96 39t95 -39t38 -96zM1214 1108q0 -56 -38 -94.5t-95 -38.5t-96 38.5t-39 94.5
q0 57 39 96t96 39t95 -39t38 -96zM612 231q0 -377 -135 -557t-422 -180q-76 0 -186 10v394q107 -15 176 -15q130 0 186 77.5t56 256.5q0 60 -21 266l-37 308l908 71l34 -317q7 -91 45 -124.5t130 -33.5v-313l-72 -74q-202 0 -295 100q-92 99 -133 353l-242 -21
q1 -23 4.5 -92.5t3.5 -108.5z" />
    <glyph glyph-name="uniFC77" unicode="&#xfe9c;&#xfeb0;" horiz-adv-x="1345" arabic-form="final" 
d="M1057 1386q0 -56 -38 -94.5t-95 -38.5t-96.5 38.5t-39.5 94.5q0 57 39.5 96.5t96.5 39.5t95 -39.5t38 -96.5zM479 1120q0 -69 -46 -114t-114 -45q-69 0 -116 45t-47 114t47 116.5t116 47.5q67 0 113.5 -47.5t46.5 -116.5zM901 1108q0 -56 -38 -94.5t-95 -38.5t-96 38.5
t-39 94.5q0 57 39 96t96 39t95 -39t38 -96zM1214 1108q0 -56 -38 -94.5t-95 -38.5t-96 38.5t-39 94.5q0 57 39 96t96 39t95 -39t38 -96zM612 231q0 -377 -135 -557t-422 -180q-76 0 -186 10v394q107 -15 176 -15q130 0 186 77.5t56 256.5q0 60 -21 266l-37 308l908 71
l34 -317q7 -91 45 -124.5t130 -33.5v-313l-72 -74q-202 0 -295 100q-92 99 -133 353l-242 -21q1 -23 4.5 -92.5t3.5 -108.5z" />
    <glyph glyph-name="uniFC79" unicode="&#xfe9c;&#xfee6;" horiz-adv-x="2121" arabic-form="final" 
d="M1925 1384q0 -57 -38 -95t-95 -38t-96 38t-39 95t39 96.5t96 39.5t95 -39.5t38 -96.5zM1769 1106q0 -57 -38 -95t-95 -38t-96 38t-39 95t39 96t96 39t95 -39t38 -96zM2083 1106q0 -57 -38 -95t-95 -38t-96 38t-39 95t39 96t96 39t95 -39t38 -96zM868 891q0 -68 -46 -114
t-113 -46q-69 0 -116.5 46.5t-47.5 113.5q0 69 47.5 116.5t116.5 47.5q67 0 113 -47.5t46 -116.5zM1389 293q0 -327 -181 -508q-178 -184 -493 -184q-658 0 -670 628q-3 154 31 334h327q-27 -136 -24 -223q0 -166 89 -251t261 -85q191 0 282 68.5t91 210.5q0 44 -19 200
l-36 308l868 71l35 -317q8 -91 44.5 -124.5t129.5 -33.5v-313l-74 -74q-200 0 -293 100q-92 99 -133 353l-244 -21q9 -77 9 -139z" />
    <glyph glyph-name="uniFC7A" unicode="&#xfe9c;&#xfef0;" horiz-adv-x="2101" arabic-form="final" 
d="M1393 1556q0 -57 -38 -95t-95 -38t-96.5 38t-39.5 95t39.5 96.5t96.5 39.5t95 -39.5t38 -96.5zM1237 1278q0 -57 -38 -95t-95 -38t-96 38t-39 95t39 96t96 39t95 -39t38 -96zM1550 1278q0 -57 -38 -95t-95 -38t-96 38t-39 95t39 96t96 39t95 -39t38 -96zM1597 53
q0 -133 -62 -242t-170 -181t-254.5 -111t-315.5 -39q-379 0 -565.5 162.5t-186.5 490.5q0 124 29 285h327q-22 -126 -22 -213q0 -165 117.5 -243.5t363.5 -78.5q191 0 316.5 29t125.5 74q0 31 -46.5 50t-163.5 36l-203 26q-170 25 -250 107t-80 229q0 113 61.5 223.5
t159.5 192.5t226.5 133t255.5 51q197 0 325 -90q127 -89 244 -307l69 -125q38 -74 79.5 -99.5t123.5 -25.5v-313l-73 -74q-150 0 -236 51q-87 52 -176 228l-57 110q-72 141 -164 199q-86 57 -250 57q-120 0 -211 -31q-90 -27 -90 -79q0 -32 29.5 -48.5t105.5 -23.5l209 -31
q224 -29 316.5 -117t92.5 -262z" />
    <glyph glyph-name="uniFC7B" unicode="&#xfe9c;&#xfef2;" horiz-adv-x="2101" arabic-form="final" 
d="M1393 1556q0 -57 -38 -95t-95 -38t-96.5 38t-39.5 95t39.5 96.5t96.5 39.5t95 -39.5t38 -96.5zM1237 1278q0 -57 -38 -95t-95 -38t-96 38t-39 95t39 96t96 39t95 -39t38 -96zM1550 1278q0 -57 -38 -95t-95 -38t-96 38t-39 95t39 96t96 39t95 -39t38 -96zM1597 53
q0 -133 -62 -242t-170 -181t-254.5 -111t-315.5 -39q-379 0 -565.5 162.5t-186.5 490.5q0 124 29 285h327q-22 -126 -22 -213q0 -165 117.5 -243.5t363.5 -78.5q191 0 316.5 29t125.5 74q0 31 -46.5 50t-163.5 36l-203 26q-170 25 -250 107t-80 229q0 113 61.5 223.5
t159.5 192.5t226.5 133t255.5 51q197 0 325 -90q127 -89 244 -307l69 -125q38 -74 79.5 -99.5t123.5 -25.5v-313l-73 -74q-150 0 -236 51q-87 52 -176 228l-57 110q-72 141 -164 199q-86 57 -250 57q-120 0 -211 -31q-90 -27 -90 -79q0 -32 29.5 -48.5t105.5 -23.5l209 -31
q224 -29 316.5 -117t92.5 -262zM1141 -795q0 -68 -45.5 -113.5t-114.5 -45.5t-116.5 46t-47.5 113q0 69 47.5 116.5t116.5 47.5t114.5 -47.5t45.5 -116.5zM772 -795q0 -67 -46 -113t-114 -46q-69 0 -116 46t-47 113q0 69 47 116.5t116 47.5q67 0 113.5 -47.5t46.5 -116.5z
" />
    <glyph glyph-name="uniFC83" unicode="&#xfedc;&#xfef0;" horiz-adv-x="2125" arabic-form="final" 
d="M1585 -68q0 -128 -102 -231.5t-283 -162t-405 -58.5q-380 0 -565 162.5t-187 490.5q0 137 37 285h326q-21 -168 -21 -213q0 -322 459 -322q212 0 335.5 29t123.5 80q0 34 -48.5 54t-144.5 20h-205v389h404q102 0 102 61q0 19 -14 43t-54 78l-159 211v313l962 506l-2 -360
l-614 -324l297 -381q91 -121 155 -172q61 -43 144 -43v-313l-72 -74q-126 0 -209 57q-90 61 -207 224l-55 73q-13 -133 -115 -198q117 -79 117 -224z" />
    <glyph glyph-name="uniFC84" unicode="&#xfedc;&#xfef2;" horiz-adv-x="2125" arabic-form="final" 
d="M1585 -68q0 -128 -102 -231.5t-283 -162t-405 -58.5q-380 0 -565 162.5t-187 490.5q0 137 37 285h326q-21 -168 -21 -213q0 -322 459 -322q212 0 335.5 29t123.5 80q0 34 -48.5 54t-144.5 20h-205v389h404q102 0 102 61q0 19 -14 43t-54 78l-159 211v313l962 506l-2 -360
l-614 -324l297 -381q91 -121 155 -172q61 -43 144 -43v-313l-72 -74q-126 0 -209 57q-90 61 -207 224l-55 73q-13 -133 -115 -198q117 -79 117 -224zM1143 -778q0 -69 -45.5 -114.5t-114.5 -45.5t-116.5 45.5t-47.5 114.5t47.5 116.5t116.5 47.5t114.5 -47.5t45.5 -116.5z
M774 -778q0 -69 -46 -114.5t-114 -45.5q-69 0 -116 45.5t-47 114.5t47 116.5t116 47.5q67 0 113.5 -47.5t46.5 -116.5z" />
    <glyph glyph-name="uniFC86" unicode="&#xfee0;&#xfef0;" horiz-adv-x="2093" arabic-form="final" 
d="M1587 -74q0 -198 -206 -322t-584 -124q-380 0 -567 162.5t-185 490.5q0 137 37 285h326q-21 -168 -21 -213q0 -322 459 -322q213 0 336 28t123 79q0 33 -50 54.5t-149 21.5h-229v389h538q87 0 125.5 40.5t38.5 129.5v911h360v-977q0 -98 35 -135t121 -37v-313l-74 -74
q-182 0 -278.5 86t-104.5 248q-27 -130 -161 -199q110 -72 110 -209z" />
    <glyph glyph-name="uniFC87" unicode="&#xfee0;&#xfef2;" horiz-adv-x="2093" arabic-form="final" 
d="M1587 -74q0 -198 -206 -322t-584 -124q-380 0 -567 162.5t-185 490.5q0 137 37 285h326q-21 -168 -21 -213q0 -322 459 -322q213 0 336 28t123 79q0 33 -50 54.5t-149 21.5h-229v389h538q87 0 125.5 40.5t38.5 129.5v911h360v-977q0 -98 35 -135t121 -37v-313l-74 -74
q-182 0 -278.5 86t-104.5 248q-27 -130 -161 -199q110 -72 110 -209zM1145 -795q0 -68 -46.5 -113.5t-115.5 -45.5t-115.5 45.5t-46.5 113.5q0 69 46.5 116.5t115.5 47.5t115.5 -47.5t46.5 -116.5zM774 -795q0 -68 -45.5 -113.5t-114.5 -45.5t-116 46t-47 113q0 69 47 116.5
t116 47.5t114.5 -47.5t45.5 -116.5z" />
    <glyph glyph-name="uniFC8A" unicode="&#xfee8;&#xfeae;" horiz-adv-x="1345" arabic-form="final" 
d="M1075 1137q0 -69 -45.5 -115.5t-114.5 -46.5t-116 46.5t-47 115.5t47 116t116 47t114.5 -47t45.5 -116zM612 231q0 -377 -135 -557t-422 -180q-76 0 -186 10v394q107 -15 176 -15q130 0 186 77.5t56 256.5q0 60 -21 266l-37 308l908 71l34 -317q7 -91 45 -124.5
t130 -33.5v-313l-72 -74q-202 0 -295 100q-92 99 -133 353l-242 -21q1 -23 4.5 -92.5t3.5 -108.5z" />
    <glyph glyph-name="uniFC8B" unicode="&#xfee8;&#xfeb0;" horiz-adv-x="1345" arabic-form="final" 
d="M1075 1137q0 -69 -45.5 -115.5t-114.5 -46.5t-116 46.5t-47 115.5t47 116t116 47t114.5 -47t45.5 -116zM479 1120q0 -69 -46 -114t-114 -45q-69 0 -116 45t-47 114t47 116.5t116 47.5q67 0 113.5 -47.5t46.5 -116.5zM612 231q0 -377 -135 -557t-422 -180q-76 0 -186 10
v394q107 -15 176 -15q130 0 186 77.5t56 256.5q0 60 -21 266l-37 308l908 71l34 -317q7 -91 45 -124.5t130 -33.5v-313l-72 -74q-202 0 -295 100q-92 99 -133 353l-242 -21q1 -23 4.5 -92.5t3.5 -108.5z" />
    <glyph glyph-name="uniFC8D" unicode="&#xfee8;&#xfee6;" horiz-adv-x="2121" arabic-form="final" 
d="M1944 1133q0 -68 -45.5 -114t-114.5 -46t-116.5 46.5t-47.5 113.5q0 69 47.5 116t116.5 47t114.5 -47t45.5 -116zM868 891q0 -68 -46 -114t-113 -46q-69 0 -116.5 46.5t-47.5 113.5q0 69 47.5 116.5t116.5 47.5q67 0 113 -47.5t46 -116.5zM1389 293q0 -327 -181 -508
q-178 -184 -493 -184q-658 0 -670 628q-3 154 31 334h327q-27 -136 -24 -223q0 -166 89 -251t261 -85q191 0 282 68.5t91 210.5q0 44 -19 200l-36 308l868 71l35 -317q8 -91 44.5 -124.5t129.5 -33.5v-313l-74 -74q-200 0 -293 100q-92 99 -133 353l-244 -21q9 -77 9 -139z
" />
    <glyph glyph-name="uniFC8E" unicode="&#xfee8;&#xfef0;" horiz-adv-x="2101" arabic-form="final" 
d="M1411 1305q0 -69 -46 -114.5t-114 -45.5q-69 0 -116.5 45.5t-47.5 114.5t47.5 116t116.5 47q68 0 114 -47t46 -116zM1597 53q0 -133 -62 -242t-170 -181t-254.5 -111t-315.5 -39q-379 0 -565.5 162.5t-186.5 490.5q0 124 29 285h327q-22 -126 -22 -213
q0 -165 117.5 -243.5t363.5 -78.5q191 0 316.5 29t125.5 74q0 31 -46.5 50t-163.5 36l-203 26q-170 25 -250 107t-80 229q0 113 61.5 223.5t159.5 192.5t226.5 133t255.5 51q197 0 325 -90q127 -89 244 -307l69 -125q38 -74 79.5 -99.5t123.5 -25.5v-313l-73 -74
q-150 0 -236 51q-87 52 -176 228l-57 110q-72 141 -164 199q-86 57 -250 57q-120 0 -211 -31q-90 -27 -90 -79q0 -32 29.5 -48.5t105.5 -23.5l209 -31q224 -29 316.5 -117t92.5 -262z" />
    <glyph glyph-name="uniFC8F" unicode="&#xfee8;&#xfef2;" horiz-adv-x="2101" arabic-form="final" 
d="M1411 1305q0 -69 -46 -114.5t-114 -45.5q-69 0 -116.5 45.5t-47.5 114.5t47.5 116t116.5 47q68 0 114 -47t46 -116zM1597 53q0 -133 -62 -242t-170 -181t-254.5 -111t-315.5 -39q-379 0 -565.5 162.5t-186.5 490.5q0 124 29 285h327q-22 -126 -22 -213
q0 -165 117.5 -243.5t363.5 -78.5q191 0 316.5 29t125.5 74q0 31 -46.5 50t-163.5 36l-203 26q-170 25 -250 107t-80 229q0 113 61.5 223.5t159.5 192.5t226.5 133t255.5 51q197 0 325 -90q127 -89 244 -307l69 -125q38 -74 79.5 -99.5t123.5 -25.5v-313l-73 -74
q-150 0 -236 51q-87 52 -176 228l-57 110q-72 141 -164 199q-86 57 -250 57q-120 0 -211 -31q-90 -27 -90 -79q0 -32 29.5 -48.5t105.5 -23.5l209 -31q224 -29 316.5 -117t92.5 -262zM1141 -795q0 -68 -45.5 -113.5t-114.5 -45.5t-116.5 46t-47.5 113q0 69 47.5 116.5
t116.5 47.5t114.5 -47.5t45.5 -116.5zM772 -795q0 -67 -46 -113t-114 -46q-69 0 -116 46t-47 113q0 69 47 116.5t116 47.5q67 0 113.5 -47.5t46.5 -116.5z" />
    <glyph glyph-name="uniFC91" unicode="&#xfef4;&#xfeae;" horiz-adv-x="1345" arabic-form="final" 
d="M612 231q0 -377 -135 -557t-422 -180q-76 0 -186 10v394q107 -15 176 -15q130 0 186 77.5t56 256.5q0 60 -21 266l-37 308l908 71l34 -317q7 -91 45 -124.5t130 -33.5v-313l-72 -74q-202 0 -295 100q-92 99 -133 353l-242 -21q1 -23 4.5 -92.5t3.5 -108.5zM1294 -301
q0 -56 -38 -94.5t-95 -38.5t-96 38.5t-39 94.5q0 57 39 96t96 39t95 -39t38 -96zM981 -301q0 -56 -38 -94.5t-95 -38.5t-96 38.5t-39 94.5q0 57 39 96t96 39t95 -39t38 -96z" />
    <glyph glyph-name="uniFC92" unicode="&#xfef4;&#xfeb0;" horiz-adv-x="1345" arabic-form="final" 
d="M479 1120q0 -69 -46 -114t-114 -45q-69 0 -116 45t-47 114t47 116.5t116 47.5q67 0 113.5 -47.5t46.5 -116.5zM612 231q0 -377 -135 -557t-422 -180q-76 0 -186 10v394q107 -15 176 -15q130 0 186 77.5t56 256.5q0 60 -21 266l-37 308l908 71l34 -317q7 -91 45 -124.5
t130 -33.5v-313l-72 -74q-202 0 -295 100q-92 99 -133 353l-242 -21q1 -23 4.5 -92.5t3.5 -108.5zM1290 -229q0 -57 -38 -95t-95 -38t-95 38t-38 95t38 96t95 39t95 -39t38 -96zM983 -229q0 -57 -38 -95t-95 -38t-95 38t-38 95t38 96t95 39t95 -39t38 -96z" />
    <glyph glyph-name="uniFC94" unicode="&#xfef4;&#xfee6;" horiz-adv-x="2121" arabic-form="final" 
d="M868 891q0 -68 -46 -114t-113 -46q-69 0 -116.5 46.5t-47.5 113.5q0 69 47.5 116.5t116.5 47.5q67 0 113 -47.5t46 -116.5zM1389 293q0 -327 -181 -508q-178 -184 -493 -184q-658 0 -670 628q-3 154 31 334h327q-27 -136 -24 -223q0 -166 89 -251t261 -85q191 0 282 68.5
t91 210.5q0 44 -19 200l-36 308l868 71l35 -317q8 -91 44.5 -124.5t129.5 -33.5v-313l-74 -74q-200 0 -293 100q-92 99 -133 353l-244 -21q9 -77 9 -139zM2050 -301q0 -56 -38 -94.5t-95 -38.5t-96 38.5t-39 94.5q0 57 39 96t96 39t95 -39t38 -96zM1737 -301
q0 -56 -38 -94.5t-95 -38.5t-96.5 38.5t-39.5 94.5q0 57 39.5 96t96.5 39t95 -39t38 -96z" />
    <glyph glyph-name="uniFC95" unicode="&#xfef4;&#xfef0;" horiz-adv-x="2101" arabic-form="final" 
d="M1597 53q0 -133 -62 -242t-170 -181t-254.5 -111t-315.5 -39q-379 0 -565.5 162.5t-186.5 490.5q0 124 29 285h327q-22 -126 -22 -213q0 -165 117.5 -243.5t363.5 -78.5q191 0 316.5 29t125.5 74q0 31 -46.5 50t-163.5 36l-203 26q-170 25 -250 107t-80 229
q0 113 61.5 223.5t159.5 192.5t226.5 133t255.5 51q197 0 325 -90q127 -89 244 -307l69 -125q38 -74 79.5 -99.5t123.5 -25.5v-313l-73 -74q-150 0 -236 51q-87 52 -176 228l-57 110q-72 141 -164 199q-86 57 -250 57q-120 0 -211 -31q-90 -27 -90 -79q0 -32 29.5 -48.5
t105.5 -23.5l209 -31q224 -29 316.5 -117t92.5 -262zM2097 -557q0 -69 -45.5 -114.5t-114.5 -45.5t-116 45.5t-47 114.5t47 116.5t116 47.5t114.5 -47.5t45.5 -116.5zM1729 -557q0 -69 -46 -114.5t-114 -45.5q-69 0 -116.5 45.5t-47.5 114.5t47.5 116.5t116.5 47.5
q67 0 113.5 -47.5t46.5 -116.5z" />
    <glyph glyph-name="uniFC96" unicode="&#xfef4;&#xfef2;" horiz-adv-x="2101" arabic-form="final" 
d="M1597 53q0 -133 -62 -242t-170 -181t-254.5 -111t-315.5 -39q-379 0 -565.5 162.5t-186.5 490.5q0 124 29 285h327q-22 -126 -22 -213q0 -165 117.5 -243.5t363.5 -78.5q191 0 316.5 29t125.5 74q0 31 -46.5 50t-163.5 36l-203 26q-170 25 -250 107t-80 229
q0 113 61.5 223.5t159.5 192.5t226.5 133t255.5 51q197 0 325 -90q127 -89 244 -307l69 -125q38 -74 79.5 -99.5t123.5 -25.5v-313l-73 -74q-150 0 -236 51q-87 52 -176 228l-57 110q-72 141 -164 199q-86 57 -250 57q-120 0 -211 -31q-90 -27 -90 -79q0 -32 29.5 -48.5
t105.5 -23.5l209 -31q224 -29 316.5 -117t92.5 -262zM2097 -557q0 -69 -45.5 -114.5t-114.5 -45.5t-116 45.5t-47 114.5t47 116.5t116 47.5t114.5 -47.5t45.5 -116.5zM1729 -557q0 -69 -46 -114.5t-114 -45.5q-69 0 -116.5 45.5t-47.5 114.5t47.5 116.5t116.5 47.5
q67 0 113.5 -47.5t46.5 -116.5zM1141 -795q0 -68 -45.5 -113.5t-114.5 -45.5t-116.5 46t-47.5 113q0 69 47.5 116.5t116.5 47.5t114.5 -47.5t45.5 -116.5zM772 -795q0 -67 -46 -113t-114 -46q-69 0 -116 46t-47 113q0 69 47 116.5t116 47.5q67 0 113.5 -47.5t46.5 -116.5z
" />
    <glyph glyph-name="uniFCC9" unicode="&#xfedf;&#xfea0;" horiz-adv-x="1458" arabic-form="initial" 
d="M207 0h-281v322l74 65h223q157 0 257 8t249 33l131 25q46 9 139 22l-194 27l-154 24q-101 16 -190 20.5t-266 4.5h-125v348h245q161 0 213 37q54 39 54 143v457h360v-422q0 -119 -38.5 -197t-119.5 -122l66 -11q317 -47 526 -47h41l-2 -352h-51q-106 0 -191.5 -28.5
t-242.5 -114.5l-162 -86q-176 -92 -289 -124t-272 -32zM834 -272q0 -69 -46 -115.5t-114 -46.5q-69 0 -116.5 46.5t-47.5 115.5t47.5 116t116.5 47q68 0 114 -47t46 -116z" />
    <glyph glyph-name="uniFCCA" unicode="&#xfedf;&#xfea4;" horiz-adv-x="1458" arabic-form="initial" 
d="M207 0h-281v322l74 65h223q157 0 257 8t249 33l131 25q46 9 139 22l-194 27l-154 24q-101 16 -190 20.5t-266 4.5h-125v348h245q161 0 213 37q54 39 54 143v457h360v-422q0 -119 -38.5 -197t-119.5 -122l66 -11q317 -47 526 -47h41l-2 -352h-51q-106 0 -191.5 -28.5
t-242.5 -114.5l-162 -86q-176 -92 -289 -124t-272 -32z" />
    <glyph glyph-name="uniFCCB" unicode="&#xfedf;&#xfea8;" horiz-adv-x="1458" arabic-form="initial" 
d="M207 0h-281v322l74 65h223q157 0 257 8t249 33l131 25q46 9 139 22l-194 27l-154 24q-101 16 -190 20.5t-266 4.5h-125v348h245q161 0 213 37q54 39 54 143v457h360v-422q0 -119 -38.5 -197t-119.5 -122l66 -11q317 -47 526 -47h41l-2 -352h-51q-106 0 -191.5 -28.5
t-242.5 -114.5l-162 -86q-176 -92 -289 -124t-272 -32zM373 1200q0 -69 -45.5 -115.5t-114.5 -46.5t-116.5 46.5t-47.5 115.5t47.5 116.5t116.5 47.5t114.5 -47.5t45.5 -116.5z" />
    <glyph glyph-name="uniFCCD" unicode="&#xfedf;&#xfeec;" horiz-adv-x="1335" arabic-form="initial" 
d="M1296 487q0 -240 -141.5 -377t-392.5 -137q-213 0 -391 90q-198 -63 -445 -63v322l74 65h76q-33 108 -33 197q0 169 110.5 282t274.5 113v557h360v-487q280 -95 394 -224q114 -126 114 -338zM297 584q0 -108 125 -160q97 25 136.5 65t39.5 95q0 57 -46.5 96t-115.5 39
q-62 0 -100.5 -38.5t-38.5 -96.5zM831 584q0 -118 -55 -222q23 -2 70 -2q101 0 147.5 26t46.5 85q0 56 -50 96t-161 76q2 -18 2 -59z" />
    <glyph glyph-name="uniFCFB" unicode="&#xfeb3;&#xfef0;" horiz-adv-x="3168" arabic-form="isolated" 
d="M1597 53q0 -133 -62 -242t-170 -181t-254.5 -111t-315.5 -39q-379 0 -565.5 162.5t-186.5 490.5q0 124 29 285h327q-22 -126 -22 -213q0 -165 117.5 -243.5t363.5 -78.5q191 0 316.5 29t125.5 74q0 31 -46.5 50t-163.5 36l-203 26q-169 23 -249.5 106t-80.5 230
q0 113 61.5 223.5t159.5 192.5t226.5 133t255.5 51q197 0 325 -90q125 -88 244 -303l67 -125q44 -84 85.5 -112.5t119.5 -28.5q82 0 121 48t39 161v63h336v-98q0 -85 26.5 -129.5t69.5 -44.5q88 0 88 129q0 120 -37 287h346q27 -163 27 -299q0 -249 -116.5 -384t-317.5 -135
q-125 0 -219.5 62t-118.5 170q-19 -112 -97.5 -172t-203.5 -60q-147 0 -244 66q-98 67 -186 244l-58 110q-70 140 -161 197q-88 55 -250 55q-120 0 -211 -31q-90 -27 -90 -79q0 -31 28.5 -46.5t106.5 -25.5l209 -31q225 -30 317 -117.5t92 -261.5z" />
    <glyph glyph-name="uniFCFC" unicode="&#xfeb3;&#xfef2;" horiz-adv-x="3168" arabic-form="isolated" 
d="M1597 53q0 -133 -62 -242t-170 -181t-254.5 -111t-315.5 -39q-379 0 -565.5 162.5t-186.5 490.5q0 124 29 285h327q-22 -126 -22 -213q0 -165 117.5 -243.5t363.5 -78.5q191 0 316.5 29t125.5 74q0 31 -46.5 50t-163.5 36l-203 26q-169 23 -249.5 106t-80.5 230
q0 113 61.5 223.5t159.5 192.5t226.5 133t255.5 51q197 0 325 -90q125 -88 244 -303l67 -125q44 -84 85.5 -112.5t119.5 -28.5q82 0 121 48t39 161v63h336v-98q0 -85 26.5 -129.5t69.5 -44.5q88 0 88 129q0 120 -37 287h346q27 -163 27 -299q0 -249 -116.5 -384t-317.5 -135
q-125 0 -219.5 62t-118.5 170q-19 -112 -97.5 -172t-203.5 -60q-147 0 -244 66q-98 67 -186 244l-58 110q-70 140 -161 197q-88 55 -250 55q-120 0 -211 -31q-90 -27 -90 -79q0 -31 28.5 -46.5t106.5 -25.5l209 -31q225 -30 317 -117.5t92 -261.5zM1141 -795
q0 -68 -45.5 -113.5t-114.5 -45.5t-116.5 46t-47.5 113q0 69 47.5 116.5t116.5 47.5t114.5 -47.5t45.5 -116.5zM772 -795q0 -67 -46 -113t-114 -46q-69 0 -116 46t-47 113q0 69 47 116.5t116 47.5q67 0 113.5 -47.5t46.5 -116.5z" />
    <glyph glyph-name="uniFCFD" unicode="&#xfeb7;&#xfef0;" horiz-adv-x="3168" arabic-form="isolated" 
d="M2497 1178q0 -57 -38.5 -95.5t-95.5 -38.5t-96 38.5t-39 95.5t39 96t96 39t95.5 -39t38.5 -96zM1597 53q0 -133 -62 -242t-170 -181t-254.5 -111t-315.5 -39q-379 0 -565.5 162.5t-186.5 490.5q0 124 29 285h327q-22 -126 -22 -213q0 -165 117.5 -243.5t363.5 -78.5
q191 0 316.5 29t125.5 74q0 31 -46.5 50t-163.5 36l-203 26q-169 23 -249.5 106t-80.5 230q0 113 61.5 223.5t159.5 192.5t226.5 133t255.5 51q197 0 325 -90q125 -88 244 -303l67 -125q44 -84 85.5 -112.5t119.5 -28.5q82 0 121 48t39 161v63h336v-98q0 -85 26.5 -129.5
t69.5 -44.5q88 0 88 129q0 120 -37 287h346q27 -163 27 -299q0 -249 -116.5 -384t-317.5 -135q-125 0 -219.5 62t-118.5 170q-19 -112 -97.5 -172t-203.5 -60q-147 0 -244 66q-98 67 -186 244l-58 110q-70 140 -161 197q-88 55 -250 55q-120 0 -211 -31q-90 -27 -90 -79
q0 -31 28.5 -46.5t106.5 -25.5l209 -31q225 -30 317 -117.5t92 -261.5zM2339 899q0 -57 -38 -95t-95 -38t-95 38t-38 95t38 96t95 39t95 -39t38 -96zM2652 899q0 -57 -38 -95t-95 -38t-95 38t-38 95t38 96t95 39t95 -39t38 -96z" />
    <glyph glyph-name="uniFCFE" unicode="&#xfeb7;&#xfef2;" horiz-adv-x="3168" arabic-form="isolated" 
d="M2497 1178q0 -57 -38.5 -95.5t-95.5 -38.5t-96 38.5t-39 95.5t39 96t96 39t95.5 -39t38.5 -96zM1597 53q0 -133 -62 -242t-170 -181t-254.5 -111t-315.5 -39q-379 0 -565.5 162.5t-186.5 490.5q0 124 29 285h327q-22 -126 -22 -213q0 -165 117.5 -243.5t363.5 -78.5
q191 0 316.5 29t125.5 74q0 31 -46.5 50t-163.5 36l-203 26q-169 23 -249.5 106t-80.5 230q0 113 61.5 223.5t159.5 192.5t226.5 133t255.5 51q197 0 325 -90q125 -88 244 -303l67 -125q44 -84 85.5 -112.5t119.5 -28.5q82 0 121 48t39 161v63h336v-98q0 -85 26.5 -129.5
t69.5 -44.5q88 0 88 129q0 120 -37 287h346q27 -163 27 -299q0 -249 -116.5 -384t-317.5 -135q-125 0 -219.5 62t-118.5 170q-19 -112 -97.5 -172t-203.5 -60q-147 0 -244 66q-98 67 -186 244l-58 110q-70 140 -161 197q-88 55 -250 55q-120 0 -211 -31q-90 -27 -90 -79
q0 -31 28.5 -46.5t106.5 -25.5l209 -31q225 -30 317 -117.5t92 -261.5zM2339 899q0 -57 -38 -95t-95 -38t-95 38t-38 95t38 96t95 39t95 -39t38 -96zM2652 899q0 -57 -38 -95t-95 -38t-95 38t-38 95t38 96t95 39t95 -39t38 -96zM1141 -795q0 -68 -45.5 -113.5t-114.5 -45.5
t-116.5 46t-47.5 113q0 69 47.5 116.5t116.5 47.5t114.5 -47.5t45.5 -116.5zM772 -795q0 -67 -46 -113t-114 -46q-69 0 -116 46t-47 113q0 69 47 116.5t116 47.5q67 0 113.5 -47.5t46.5 -116.5z" />
    <glyph glyph-name="uniFCFF" unicode="&#xfea3;&#xfef0;" horiz-adv-x="2377" arabic-form="isolated" 
d="M1585 -23q0 -219 -217 -358t-577 -139q-748 0 -748 624q0 120 33 314h327q-24 -126 -24 -228q0 -154 109.5 -230.5t334.5 -76.5q229 0 354.5 29.5t125.5 85.5q0 31 -40 53.5t-133 22.5h-104v313l461 143q234 69 248 72q-18 2 -64 14l-168 43q-100 25 -149 25
q-41 0 -69 -22t-34 -60h-286q2 220 105.5 345.5t283.5 125.5q85 0 262 -53l350 -100q97 -33 168 -46q72 -10 160 -10h45l-2 -352h-27q-96 0 -235 -47q-131 -44 -389 -156l-244 -102q71 -33 107 -97t36 -133z" />
    <glyph glyph-name="uniFD00" unicode="&#xfea3;&#xfef2;" horiz-adv-x="2377" arabic-form="isolated" 
d="M1585 -23q0 -219 -217 -358t-577 -139q-748 0 -748 624q0 120 33 314h327q-24 -126 -24 -228q0 -154 109.5 -230.5t334.5 -76.5q229 0 354.5 29.5t125.5 85.5q0 31 -40 53.5t-133 22.5h-104v313l461 143q234 69 248 72q-18 2 -64 14l-168 43q-100 25 -149 25
q-41 0 -69 -22t-34 -60h-286q2 220 105.5 345.5t283.5 125.5q85 0 262 -53l350 -100q97 -33 168 -46q72 -10 160 -10h45l-2 -352h-27q-96 0 -235 -47q-131 -44 -389 -156l-244 -102q71 -33 107 -97t36 -133zM1143 -795q0 -68 -46.5 -113.5t-115.5 -45.5t-115.5 45.5
t-46.5 113.5q0 69 46.5 116.5t115.5 47.5t115.5 -47.5t46.5 -116.5zM772 -795q0 -68 -45.5 -113.5t-114.5 -45.5t-116 46t-47 113q0 69 47 116.5t116 47.5t114.5 -47.5t45.5 -116.5z" />
    <glyph glyph-name="uniFD01" unicode="&#xfe9f;&#xfef0;" horiz-adv-x="2377" arabic-form="isolated" 
d="M1585 -23q0 -219 -217 -358t-577 -139q-748 0 -748 624q0 120 33 314h327q-24 -126 -24 -228q0 -154 109.5 -230.5t334.5 -76.5q229 0 354.5 29.5t125.5 85.5q0 31 -40 53.5t-133 22.5h-104v313l461 143q234 69 248 72q-18 2 -64 14l-168 43q-100 25 -149 25
q-41 0 -69 -22t-34 -60h-286q2 220 105.5 345.5t283.5 125.5q85 0 262 -53l350 -100q97 -33 168 -46q72 -10 160 -10h45l-2 -352h-27q-96 0 -235 -47q-131 -44 -389 -156l-244 -102q71 -33 107 -97t36 -133zM2056 -176q0 -68 -45.5 -114t-114.5 -46t-116 46t-47 114
q0 69 47 116.5t116 47.5t114.5 -47.5t45.5 -116.5z" />
    <glyph glyph-name="uniFD02" unicode="&#xfe9f;&#xfef2;" horiz-adv-x="2377" arabic-form="isolated" 
d="M1585 -23q0 -219 -217 -358t-577 -139q-748 0 -748 624q0 120 33 314h327q-24 -126 -24 -228q0 -154 109.5 -230.5t334.5 -76.5q229 0 354.5 29.5t125.5 85.5q0 31 -40 53.5t-133 22.5h-104v313l461 143q234 69 248 72q-18 2 -64 14l-168 43q-100 25 -149 25
q-41 0 -69 -22t-34 -60h-286q2 220 105.5 345.5t283.5 125.5q85 0 262 -53l350 -100q97 -33 168 -46q72 -10 160 -10h45l-2 -352h-27q-96 0 -235 -47q-131 -44 -389 -156l-244 -102q71 -33 107 -97t36 -133zM2056 -176q0 -68 -45.5 -114t-114.5 -46t-116 46t-47 114
q0 69 47 116.5t116 47.5t114.5 -47.5t45.5 -116.5zM1143 -795q0 -68 -46.5 -113.5t-115.5 -45.5t-115.5 45.5t-46.5 113.5q0 69 46.5 116.5t115.5 47.5t115.5 -47.5t46.5 -116.5zM772 -795q0 -68 -45.5 -113.5t-114.5 -45.5t-116 46t-47 113q0 69 47 116.5t116 47.5
t114.5 -47.5t45.5 -116.5z" />
    <glyph glyph-name="uniFD03" unicode="&#xfea7;&#xfef0;" horiz-adv-x="2377" arabic-form="isolated" 
d="M1593 1311q0 -68 -45 -114t-114 -46t-116.5 46.5t-47.5 113.5q0 69 47.5 116.5t116.5 47.5t114 -47t45 -117zM1585 -23q0 -219 -217 -358t-577 -139q-748 0 -748 624q0 120 33 314h327q-24 -126 -24 -228q0 -154 109.5 -230.5t334.5 -76.5q229 0 354.5 29.5t125.5 85.5
q0 31 -40 53.5t-133 22.5h-104v313l461 143q234 69 248 72q-18 2 -64 14l-168 43q-100 25 -149 25q-41 0 -69 -22t-34 -60h-286q2 220 105.5 345.5t283.5 125.5q85 0 262 -53l350 -100q97 -33 168 -46q72 -10 160 -10h45l-2 -352h-27q-96 0 -235 -47q-131 -44 -389 -156
l-244 -102q71 -33 107 -97t36 -133z" />
    <glyph glyph-name="uniFD04" unicode="&#xfea7;&#xfef2;" horiz-adv-x="2377" arabic-form="isolated" 
d="M1593 1311q0 -68 -45 -114t-114 -46t-116.5 46.5t-47.5 113.5q0 69 47.5 116.5t116.5 47.5t114 -47t45 -117zM1585 -23q0 -219 -217 -358t-577 -139q-748 0 -748 624q0 120 33 314h327q-24 -126 -24 -228q0 -154 109.5 -230.5t334.5 -76.5q229 0 354.5 29.5t125.5 85.5
q0 31 -40 53.5t-133 22.5h-104v313l461 143q234 69 248 72q-18 2 -64 14l-168 43q-100 25 -149 25q-41 0 -69 -22t-34 -60h-286q2 220 105.5 345.5t283.5 125.5q85 0 262 -53l350 -100q97 -33 168 -46q72 -10 160 -10h45l-2 -352h-27q-96 0 -235 -47q-131 -44 -389 -156
l-244 -102q71 -33 107 -97t36 -133zM1143 -795q0 -68 -46.5 -113.5t-115.5 -45.5t-115.5 45.5t-46.5 113.5q0 69 46.5 116.5t115.5 47.5t115.5 -47.5t46.5 -116.5zM772 -795q0 -68 -45.5 -113.5t-114.5 -45.5t-116 46t-47 113q0 69 47 116.5t116 47.5t114.5 -47.5
t45.5 -116.5z" />
    <glyph glyph-name="uniFD05" unicode="&#xfebb;&#xfef0;" horiz-adv-x="3201" arabic-form="isolated" 
d="M1597 53q0 -133 -62 -242t-170 -181t-254.5 -111t-315.5 -39q-379 0 -565.5 162.5t-186.5 490.5q0 124 29 285h327q-22 -126 -22 -213q0 -165 117.5 -243.5t363.5 -78.5q191 0 316.5 29t125.5 74q0 31 -46.5 50t-163.5 36l-203 26q-169 23 -249.5 106t-80.5 230
q0 113 61.5 223.5t159.5 192.5t226.5 133t255.5 51q99 0 172 -20.5t137 -72.5t115 -119t120 -181l76 -125q13 -23 27 -37q310 561 745 561q221 0 363.5 -146.5t142.5 -363.5q0 -269 -214 -413t-620 -144q-217 0 -344 27t-210.5 92t-155.5 191l-66 110q-55 96 -103.5 147
t-120.5 78t-179 27q-120 0 -211 -31q-90 -27 -90 -79q0 -31 28.5 -46.5t106.5 -25.5l209 -31q225 -30 317 -117.5t92 -261.5zM2642 653q-293 0 -539 -268q115 -16 295 -16q270 0 388 34.5t118 114.5q0 53 -74 94t-188 41z" />
    <glyph glyph-name="uniFD06" unicode="&#xfebb;&#xfef2;" horiz-adv-x="3201" arabic-form="isolated" 
d="M1597 53q0 -133 -62 -242t-170 -181t-254.5 -111t-315.5 -39q-379 0 -565.5 162.5t-186.5 490.5q0 124 29 285h327q-22 -126 -22 -213q0 -165 117.5 -243.5t363.5 -78.5q191 0 316.5 29t125.5 74q0 31 -46.5 50t-163.5 36l-203 26q-169 23 -249.5 106t-80.5 230
q0 113 61.5 223.5t159.5 192.5t226.5 133t255.5 51q99 0 172 -20.5t137 -72.5t115 -119t120 -181l76 -125q13 -23 27 -37q310 561 745 561q221 0 363.5 -146.5t142.5 -363.5q0 -269 -214 -413t-620 -144q-217 0 -344 27t-210.5 92t-155.5 191l-66 110q-55 96 -103.5 147
t-120.5 78t-179 27q-120 0 -211 -31q-90 -27 -90 -79q0 -31 28.5 -46.5t106.5 -25.5l209 -31q225 -30 317 -117.5t92 -261.5zM2642 653q-293 0 -539 -268q115 -16 295 -16q270 0 388 34.5t118 114.5q0 53 -74 94t-188 41zM1141 -795q0 -68 -45.5 -113.5t-114.5 -45.5
t-116.5 46t-47.5 113q0 69 47.5 116.5t116.5 47.5t114.5 -47.5t45.5 -116.5zM772 -795q0 -67 -46 -113t-114 -46q-69 0 -116 46t-47 113q0 69 47 116.5t116 47.5q67 0 113.5 -47.5t46.5 -116.5z" />
    <glyph glyph-name="uniFD07" unicode="&#xfebf;&#xfef0;" horiz-adv-x="3201" arabic-form="isolated" 
d="M2781 1311q0 -67 -46.5 -113.5t-113.5 -46.5q-69 0 -116 46t-47 114q0 69 47 116.5t116 47.5q67 0 113.5 -47.5t46.5 -116.5zM1597 53q0 -133 -62 -242t-170 -181t-254.5 -111t-315.5 -39q-379 0 -565.5 162.5t-186.5 490.5q0 124 29 285h327q-22 -126 -22 -213
q0 -165 117.5 -243.5t363.5 -78.5q191 0 316.5 29t125.5 74q0 31 -46.5 50t-163.5 36l-203 26q-169 23 -249.5 106t-80.5 230q0 113 61.5 223.5t159.5 192.5t226.5 133t255.5 51q99 0 172 -20.5t137 -72.5t115 -119t120 -181l76 -125q13 -23 27 -37q310 561 745 561
q221 0 363.5 -146.5t142.5 -363.5q0 -269 -214 -413t-620 -144q-217 0 -344 27t-210.5 92t-155.5 191l-66 110q-55 96 -103.5 147t-120.5 78t-179 27q-120 0 -211 -31q-90 -27 -90 -79q0 -31 28.5 -46.5t106.5 -25.5l209 -31q225 -30 317 -117.5t92 -261.5zM2642 653
q-293 0 -539 -268q115 -16 295 -16q270 0 388 34.5t118 114.5q0 53 -74 94t-188 41z" />
    <glyph glyph-name="uniFD08" unicode="&#xfebf;&#xfef2;" horiz-adv-x="3201" arabic-form="isolated" 
d="M2781 1311q0 -67 -46.5 -113.5t-113.5 -46.5q-69 0 -116 46t-47 114q0 69 47 116.5t116 47.5q67 0 113.5 -47.5t46.5 -116.5zM1597 53q0 -133 -62 -242t-170 -181t-254.5 -111t-315.5 -39q-379 0 -565.5 162.5t-186.5 490.5q0 124 29 285h327q-22 -126 -22 -213
q0 -165 117.5 -243.5t363.5 -78.5q191 0 316.5 29t125.5 74q0 31 -46.5 50t-163.5 36l-203 26q-169 23 -249.5 106t-80.5 230q0 113 61.5 223.5t159.5 192.5t226.5 133t255.5 51q99 0 172 -20.5t137 -72.5t115 -119t120 -181l76 -125q13 -23 27 -37q310 561 745 561
q221 0 363.5 -146.5t142.5 -363.5q0 -269 -214 -413t-620 -144q-217 0 -344 27t-210.5 92t-155.5 191l-66 110q-55 96 -103.5 147t-120.5 78t-179 27q-120 0 -211 -31q-90 -27 -90 -79q0 -31 28.5 -46.5t106.5 -25.5l209 -31q225 -30 317 -117.5t92 -261.5zM2642 653
q-293 0 -539 -268q115 -16 295 -16q270 0 388 34.5t118 114.5q0 53 -74 94t-188 41zM1141 -795q0 -68 -45.5 -113.5t-114.5 -45.5t-116.5 46t-47.5 113q0 69 47.5 116.5t116.5 47.5t114.5 -47.5t45.5 -116.5zM772 -795q0 -67 -46 -113t-114 -46q-69 0 -116 46t-47 113
q0 69 47 116.5t116 47.5q67 0 113.5 -47.5t46.5 -116.5z" />
    <glyph glyph-name="uniFD0D" unicode="&#xfeb7;&#xfeae;" horiz-adv-x="2287" arabic-form="isolated" 
d="M1638 1169q0 -57 -38 -95t-95 -38t-96 38t-39 95t39 96.5t96 39.5t95 -39.5t38 -96.5zM1481 891q0 -57 -38 -95t-95 -38t-96.5 38t-39.5 95t39.5 96t96.5 39t95 -39t38 -96zM1794 891q0 -57 -38 -95t-95 -38t-96 38t-39 95t39 96t96 39t95 -39t38 -96zM612 231
q0 -377 -135 -557t-422 -180q-76 0 -186 10v394q107 -15 176 -15q130 0 186 77.5t56 256.5q0 60 -21 266l-28 236l907 72l26 -246q11 -96 34 -133t77 -37q100 0 100 174v98h334v-98q0 -85 26.5 -129.5t69.5 -44.5q91 0 91 129q0 113 -54 287h344q43 -151 43 -299
q0 -249 -116 -384t-316 -135q-124 0 -219 62t-121 166q-13 -110 -79.5 -169t-176.5 -59q-157 0 -235 93q-76 91 -117 313l-248 -19q4 -86 4 -129z" />
    <glyph glyph-name="uniFD0E" unicode="&#xfeb3;&#xfeae;" horiz-adv-x="2287" arabic-form="isolated" 
d="M612 231q0 -377 -135 -557t-422 -180q-76 0 -186 10v394q107 -15 176 -15q130 0 186 77.5t56 256.5q0 60 -21 266l-28 236l907 72l26 -246q11 -96 34 -133t77 -37q100 0 100 174v98h334v-98q0 -85 26.5 -129.5t69.5 -44.5q91 0 91 129q0 113 -54 287h344q43 -151 43 -299
q0 -249 -116 -384t-316 -135q-124 0 -219 62t-121 166q-13 -110 -79.5 -169t-176.5 -59q-157 0 -235 93q-76 91 -117 313l-248 -19q4 -86 4 -129z" />
    <glyph glyph-name="uniFD0F" unicode="&#xfebb;&#xfeae;" horiz-adv-x="2531" arabic-form="isolated" 
d="M612 231q0 -377 -135 -557t-422 -180q-76 0 -186 10v394q107 -15 176 -15q130 0 186 77.5t56 256.5q0 60 -21 266l-37 308l908 71l34 -317q3 -44 13 -88q171 292 368.5 437.5t429.5 145.5q221 0 363.5 -146.5t142.5 -363.5q0 -557 -987 -557q-134 0 -229 14t-169 46
t-122.5 88.5t-80.5 136.5t-52 195l-244 -21q1 -23 4.5 -92.5t3.5 -108.5zM1974 653q-313 0 -604 -291q41 -2 148 -2q280 0 437.5 17.5t218 50.5t60.5 90q0 53 -73.5 94t-186.5 41z" />
    <glyph glyph-name="uniFD10" unicode="&#xfebf;&#xfeae;" horiz-adv-x="2531" arabic-form="isolated" 
d="M2105 1311q0 -68 -46 -114t-113 -46q-69 0 -116.5 46.5t-47.5 113.5q0 69 47.5 116.5t116.5 47.5q67 0 113 -47.5t46 -116.5zM612 231q0 -377 -135 -557t-422 -180q-76 0 -186 10v394q107 -15 176 -15q130 0 186 77.5t56 256.5q0 60 -21 266l-37 308l908 71l34 -317
q3 -44 13 -88q171 292 368.5 437.5t429.5 145.5q221 0 363.5 -146.5t142.5 -363.5q0 -557 -987 -557q-134 0 -229 14t-169 46t-122.5 88.5t-80.5 136.5t-52 195l-244 -21q1 -23 4.5 -92.5t3.5 -108.5zM1974 653q-313 0 -604 -291q41 -2 148 -2q280 0 437.5 17.5t218 50.5
t60.5 90q0 53 -73.5 94t-186.5 41z" />
    <glyph glyph-name="uniFD13" unicode="&#xfecc;&#xfef0;" horiz-adv-x="2426" arabic-form="final" 
d="M1587 -102q0 -115 -99.5 -210t-283.5 -151.5t-416 -56.5q-375 0 -560 163t-183 490q0 137 37 285h326q-21 -168 -21 -213q0 -322 434 -322q235 0 359.5 26.5t124.5 74.5q0 67 -215 67h-25v336h326q-27 27 -56 64l-98 116v357q278 69 530 69q281 0 403.5 -72.5
t123.5 -248.5q3 -144 -121 -287l256 2v-313l-74 -74h-49q-335 0 -584 123q-115 -35 -243 -47q54 -29 81 -76.5t27 -101.5zM1767 637q-130 0 -264 -16q85 -89 157.5 -137.5t162.5 -71.5q114 20 175.5 56.5t59.5 80.5q0 48 -69 68t-222 20z" />
    <glyph glyph-name="uniFD14" unicode="&#xfecc;&#xfef2;" horiz-adv-x="2426" arabic-form="final" 
d="M1587 -102q0 -115 -99.5 -210t-283.5 -151.5t-416 -56.5q-375 0 -560 163t-183 490q0 137 37 285h326q-21 -168 -21 -213q0 -322 434 -322q235 0 359.5 26.5t124.5 74.5q0 67 -215 67h-25v336h326q-27 27 -56 64l-98 116v357q278 69 530 69q281 0 403.5 -72.5
t123.5 -248.5q3 -144 -121 -287l256 2v-313l-74 -74h-49q-335 0 -584 123q-115 -35 -243 -47q54 -29 81 -76.5t27 -101.5zM1767 637q-130 0 -264 -16q85 -89 157.5 -137.5t162.5 -71.5q114 20 175.5 56.5t59.5 80.5q0 48 -69 68t-222 20zM1167 -795q0 -67 -45.5 -113
t-113.5 -46q-69 0 -116.5 46t-47.5 113q0 69 47.5 116.5t116.5 47.5q67 0 113 -47.5t46 -116.5zM799 -795q0 -68 -46.5 -113.5t-115.5 -45.5t-116.5 46t-47.5 113q0 69 47.5 116.5t116.5 47.5t115.5 -47.5t46.5 -116.5z" />
    <glyph glyph-name="uniFD15" unicode="&#xfed0;&#xfef0;" horiz-adv-x="2426" arabic-form="final" 
d="M1944 1266q0 -69 -46 -115.5t-114 -46.5q-69 0 -116.5 46.5t-47.5 115.5t47.5 115t116.5 46q68 0 114 -46t46 -115zM1587 -102q0 -115 -99.5 -210t-283.5 -151.5t-416 -56.5q-375 0 -560 163t-183 490q0 137 37 285h326q-21 -168 -21 -213q0 -322 434 -322
q235 0 359.5 26.5t124.5 74.5q0 67 -215 67h-25v336h326q-27 27 -56 64l-98 116v357q278 69 530 69q281 0 403.5 -72.5t123.5 -248.5q3 -144 -121 -287l256 2v-313l-74 -74h-49q-335 0 -584 123q-115 -35 -243 -47q54 -29 81 -76.5t27 -101.5zM1767 637q-130 0 -264 -16
q85 -89 157.5 -137.5t162.5 -71.5q114 20 175.5 56.5t59.5 80.5q0 48 -69 68t-222 20z" />
    <glyph glyph-name="uniFD16" unicode="&#xfed0;&#xfef2;" horiz-adv-x="2426" arabic-form="final" 
d="M1944 1266q0 -69 -46 -115.5t-114 -46.5q-69 0 -116.5 46.5t-47.5 115.5t47.5 115t116.5 46q68 0 114 -46t46 -115zM1587 -102q0 -115 -99.5 -210t-283.5 -151.5t-416 -56.5q-375 0 -560 163t-183 490q0 137 37 285h326q-21 -168 -21 -213q0 -322 434 -322
q235 0 359.5 26.5t124.5 74.5q0 67 -215 67h-25v336h326q-27 27 -56 64l-98 116v357q278 69 530 69q281 0 403.5 -72.5t123.5 -248.5q3 -144 -121 -287l256 2v-313l-74 -74h-49q-335 0 -584 123q-115 -35 -243 -47q54 -29 81 -76.5t27 -101.5zM1767 637q-130 0 -264 -16
q85 -89 157.5 -137.5t162.5 -71.5q114 20 175.5 56.5t59.5 80.5q0 48 -69 68t-222 20zM1167 -795q0 -67 -45.5 -113t-113.5 -46q-69 0 -116.5 46t-47.5 113q0 69 47.5 116.5t116.5 47.5q67 0 113 -47.5t46 -116.5zM799 -795q0 -68 -46.5 -113.5t-115.5 -45.5t-116.5 46
t-47.5 113q0 69 47.5 116.5t116.5 47.5t115.5 -47.5t46.5 -116.5z" />
    <glyph glyph-name="uniFD17" unicode="&#xfeb4;&#xfef0;" horiz-adv-x="3284" arabic-form="final" 
d="M1829 641l67 -125q44 -84 85.5 -112.5t119.5 -28.5q82 0 121 48t39 161v63h336v-98q0 -174 94 -174q100 0 100 174v170h336v-170q0 -88 36 -125t122 -37v-313l-74 -74q-139 0 -227 65t-111 183q-13 -129 -84.5 -202t-181.5 -73q-101 0 -172.5 60.5t-91.5 165.5
q-19 -109 -97 -167.5t-202 -58.5q-147 0 -244 66q-98 67 -186 244l-58 110q-70 140 -161 197q-88 55 -250 55q-120 0 -211 -31q-90 -27 -90 -79q0 -31 28.5 -46.5t106.5 -25.5l209 -31q225 -30 317 -117.5t92 -261.5q0 -133 -62 -242t-170 -181t-254.5 -111t-315.5 -39
q-379 0 -565.5 162.5t-186.5 490.5q0 124 29 285h327q-22 -126 -22 -213q0 -165 117.5 -243.5t363.5 -78.5q191 0 316.5 29t125.5 74q0 31 -46.5 50t-163.5 36l-203 26q-169 23 -249.5 106t-80.5 230q0 113 61.5 223.5t159.5 192.5t226.5 133t255.5 51q197 0 325 -90
q125 -88 244 -303z" />
    <glyph glyph-name="uniFD18" unicode="&#xfeb4;&#xfef2;" horiz-adv-x="3284" arabic-form="final" 
d="M1829 641l67 -125q44 -84 85.5 -112.5t119.5 -28.5q82 0 121 48t39 161v63h336v-98q0 -174 94 -174q100 0 100 174v170h336v-170q0 -88 36 -125t122 -37v-313l-74 -74q-139 0 -227 65t-111 183q-13 -129 -84.5 -202t-181.5 -73q-101 0 -172.5 60.5t-91.5 165.5
q-19 -109 -97 -167.5t-202 -58.5q-147 0 -244 66q-98 67 -186 244l-58 110q-70 140 -161 197q-88 55 -250 55q-120 0 -211 -31q-90 -27 -90 -79q0 -31 28.5 -46.5t106.5 -25.5l209 -31q225 -30 317 -117.5t92 -261.5q0 -133 -62 -242t-170 -181t-254.5 -111t-315.5 -39
q-379 0 -565.5 162.5t-186.5 490.5q0 124 29 285h327q-22 -126 -22 -213q0 -165 117.5 -243.5t363.5 -78.5q191 0 316.5 29t125.5 74q0 31 -46.5 50t-163.5 36l-203 26q-169 23 -249.5 106t-80.5 230q0 113 61.5 223.5t159.5 192.5t226.5 133t255.5 51q197 0 325 -90
q125 -88 244 -303zM1141 -795q0 -68 -45.5 -113.5t-114.5 -45.5t-116.5 46t-47.5 113q0 69 47.5 116.5t116.5 47.5t114.5 -47.5t45.5 -116.5zM772 -795q0 -67 -46 -113t-114 -46q-69 0 -116 46t-47 113q0 69 47 116.5t116 47.5q67 0 113.5 -47.5t46.5 -116.5z" />
    <glyph glyph-name="uniFD19" unicode="&#xfeb8;&#xfef0;" horiz-adv-x="3284" arabic-form="final" 
d="M2552 1178q0 -57 -38 -95.5t-95 -38.5t-96 38.5t-39 95.5t39 96t96 39t95 -39t38 -96zM1829 641l67 -125q44 -84 85.5 -112.5t119.5 -28.5q82 0 121 48t39 161v63h336v-98q0 -174 94 -174q100 0 100 174v170h336v-170q0 -88 36 -125t122 -37v-313l-74 -74q-139 0 -227 65
t-111 183q-13 -129 -84.5 -202t-181.5 -73q-101 0 -172.5 60.5t-91.5 165.5q-19 -109 -97 -167.5t-202 -58.5q-147 0 -244 66q-98 67 -186 244l-58 110q-70 140 -161 197q-88 55 -250 55q-120 0 -211 -31q-90 -27 -90 -79q0 -31 28.5 -46.5t106.5 -25.5l209 -31
q225 -30 317 -117.5t92 -261.5q0 -133 -62 -242t-170 -181t-254.5 -111t-315.5 -39q-379 0 -565.5 162.5t-186.5 490.5q0 124 29 285h327q-22 -126 -22 -213q0 -165 117.5 -243.5t363.5 -78.5q191 0 316.5 29t125.5 74q0 31 -46.5 50t-163.5 36l-203 26q-169 23 -249.5 106
t-80.5 230q0 113 61.5 223.5t159.5 192.5t226.5 133t255.5 51q197 0 325 -90q125 -88 244 -303zM2396 899q0 -57 -38 -95t-95 -38t-96 38t-39 95t39 96t96 39t95 -39t38 -96zM2710 899q0 -57 -38.5 -95t-95.5 -38t-96 38t-39 95t39 96t96 39t95.5 -39t38.5 -96z" />
    <glyph glyph-name="uniFD1A" unicode="&#xfeb8;&#xfef2;" horiz-adv-x="3284" arabic-form="final" 
d="M2552 1178q0 -57 -38 -95.5t-95 -38.5t-96 38.5t-39 95.5t39 96t96 39t95 -39t38 -96zM1829 641l67 -125q44 -84 85.5 -112.5t119.5 -28.5q82 0 121 48t39 161v63h336v-98q0 -174 94 -174q100 0 100 174v170h336v-170q0 -88 36 -125t122 -37v-313l-74 -74q-139 0 -227 65
t-111 183q-13 -129 -84.5 -202t-181.5 -73q-101 0 -172.5 60.5t-91.5 165.5q-19 -109 -97 -167.5t-202 -58.5q-147 0 -244 66q-98 67 -186 244l-58 110q-70 140 -161 197q-88 55 -250 55q-120 0 -211 -31q-90 -27 -90 -79q0 -31 28.5 -46.5t106.5 -25.5l209 -31
q225 -30 317 -117.5t92 -261.5q0 -133 -62 -242t-170 -181t-254.5 -111t-315.5 -39q-379 0 -565.5 162.5t-186.5 490.5q0 124 29 285h327q-22 -126 -22 -213q0 -165 117.5 -243.5t363.5 -78.5q191 0 316.5 29t125.5 74q0 31 -46.5 50t-163.5 36l-203 26q-169 23 -249.5 106
t-80.5 230q0 113 61.5 223.5t159.5 192.5t226.5 133t255.5 51q197 0 325 -90q125 -88 244 -303zM2396 899q0 -57 -38 -95t-95 -38t-96 38t-39 95t39 96t96 39t95 -39t38 -96zM2710 899q0 -57 -38.5 -95t-95.5 -38t-96 38t-39 95t39 96t96 39t95.5 -39t38.5 -96zM1141 -795
q0 -68 -45.5 -113.5t-114.5 -45.5t-116.5 46t-47.5 113q0 69 47.5 116.5t116.5 47.5t114.5 -47.5t45.5 -116.5zM772 -795q0 -67 -46 -113t-114 -46q-69 0 -116 46t-47 113q0 69 47 116.5t116 47.5q67 0 113.5 -47.5t46.5 -116.5z" />
    <glyph glyph-name="uniFD1B" unicode="&#xfea4;&#xfef0;" horiz-adv-x="2390" arabic-form="final" 
d="M1585 -23q0 -219 -217 -358t-577 -139q-748 0 -748 624q0 120 33 314h327q-24 -126 -24 -228q0 -154 109.5 -230.5t334.5 -76.5q229 0 354.5 29.5t125.5 85.5q0 31 -40 53.5t-133 22.5h-104v313l461 143q234 69 248 72q-18 2 -64 14l-168 43q-100 25 -149 25
q-41 0 -69 -22t-34 -60h-286q2 220 105.5 345.5t283.5 125.5q85 0 262 -53l350 -100q97 -33 168 -46q72 -10 160 -10h45l-2 -352h-27q-64 0 -143 -20v-3q0 -58 47.5 -80t175.5 -22v-309l-72 -78q-188 0 -289.5 107t-109.5 301q-54 -22 -233 -99l-244 -102q71 -33 107 -97
t36 -133z" />
    <glyph glyph-name="uniFD1C" unicode="&#xfea4;&#xfef2;" horiz-adv-x="2390" arabic-form="final" 
d="M1585 -23q0 -219 -217 -358t-577 -139q-748 0 -748 624q0 120 33 314h327q-24 -126 -24 -228q0 -154 109.5 -230.5t334.5 -76.5q229 0 354.5 29.5t125.5 85.5q0 31 -40 53.5t-133 22.5h-104v313l461 143q234 69 248 72q-18 2 -64 14l-168 43q-100 25 -149 25
q-41 0 -69 -22t-34 -60h-286q2 220 105.5 345.5t283.5 125.5q85 0 262 -53l350 -100q97 -33 168 -46q72 -10 160 -10h45l-2 -352h-27q-64 0 -143 -20v-3q0 -58 47.5 -80t175.5 -22v-309l-72 -78q-188 0 -289.5 107t-109.5 301q-54 -22 -233 -99l-244 -102q71 -33 107 -97
t36 -133zM1143 -795q0 -68 -46.5 -113.5t-115.5 -45.5t-115.5 45.5t-46.5 113.5q0 69 46.5 116.5t115.5 47.5t115.5 -47.5t46.5 -116.5zM772 -795q0 -68 -45.5 -113.5t-114.5 -45.5t-116 46t-47 113q0 69 47 116.5t116 47.5t114.5 -47.5t45.5 -116.5z" />
    <glyph glyph-name="uniFD1D" unicode="&#xfea0;&#xfef0;" horiz-adv-x="2390" arabic-form="final" 
d="M1585 -23q0 -219 -217 -358t-577 -139q-748 0 -748 624q0 120 33 314h327q-24 -126 -24 -228q0 -154 109.5 -230.5t334.5 -76.5q229 0 354.5 29.5t125.5 85.5q0 31 -40 53.5t-133 22.5h-104v313l461 143q234 69 248 72q-18 2 -64 14l-168 43q-100 25 -149 25
q-41 0 -69 -22t-34 -60h-286q2 220 105.5 345.5t283.5 125.5q85 0 262 -53l350 -100q97 -33 168 -46q72 -10 160 -10h45l-2 -352h-27q-64 0 -143 -20v-3q0 -58 47.5 -80t175.5 -22v-309l-72 -78q-188 0 -289.5 107t-109.5 301q-54 -22 -233 -99l-244 -102q71 -33 107 -97
t36 -133zM2056 -176q0 -68 -45.5 -114t-114.5 -46t-116 46t-47 114q0 69 47 116.5t116 47.5t114.5 -47.5t45.5 -116.5z" />
    <glyph glyph-name="uniFD1E" unicode="&#xfea0;&#xfef2;" horiz-adv-x="2390" arabic-form="final" 
d="M1585 -23q0 -219 -217 -358t-577 -139q-748 0 -748 624q0 120 33 314h327q-24 -126 -24 -228q0 -154 109.5 -230.5t334.5 -76.5q229 0 354.5 29.5t125.5 85.5q0 31 -40 53.5t-133 22.5h-104v313l461 143q234 69 248 72q-18 2 -64 14l-168 43q-100 25 -149 25
q-41 0 -69 -22t-34 -60h-286q2 220 105.5 345.5t283.5 125.5q85 0 262 -53l350 -100q97 -33 168 -46q72 -10 160 -10h45l-2 -352h-27q-64 0 -143 -20v-3q0 -58 47.5 -80t175.5 -22v-309l-72 -78q-188 0 -289.5 107t-109.5 301q-54 -22 -233 -99l-244 -102q71 -33 107 -97
t36 -133zM2056 -176q0 -68 -45.5 -114t-114.5 -46t-116 46t-47 114q0 69 47 116.5t116 47.5t114.5 -47.5t45.5 -116.5zM1143 -795q0 -68 -46.5 -113.5t-115.5 -45.5t-115.5 45.5t-46.5 113.5q0 69 46.5 116.5t115.5 47.5t115.5 -47.5t46.5 -116.5zM772 -795
q0 -68 -45.5 -113.5t-114.5 -45.5t-116 46t-47 113q0 69 47 116.5t116 47.5t114.5 -47.5t45.5 -116.5z" />
    <glyph glyph-name="uniFD1F" unicode="&#xfea8;&#xfef0;" horiz-adv-x="2390" arabic-form="final" 
d="M1593 1311q0 -68 -45 -114t-114 -46t-116.5 46.5t-47.5 113.5q0 69 47.5 116.5t116.5 47.5t114 -47t45 -117zM1585 -23q0 -219 -217 -358t-577 -139q-748 0 -748 624q0 120 33 314h327q-24 -126 -24 -228q0 -154 109.5 -230.5t334.5 -76.5q229 0 354.5 29.5t125.5 85.5
q0 31 -40 53.5t-133 22.5h-104v313l461 143q234 69 248 72q-18 2 -64 14l-168 43q-100 25 -149 25q-41 0 -69 -22t-34 -60h-286q2 220 105.5 345.5t283.5 125.5q85 0 262 -53l350 -100q97 -33 168 -46q72 -10 160 -10h45l-2 -352h-27q-64 0 -143 -20v-3q0 -58 47.5 -80
t175.5 -22v-309l-72 -78q-188 0 -289.5 107t-109.5 301q-54 -22 -233 -99l-244 -102q71 -33 107 -97t36 -133z" />
    <glyph glyph-name="uniFD20" unicode="&#xfea8;&#xfef2;" horiz-adv-x="2390" arabic-form="final" 
d="M1593 1311q0 -68 -45 -114t-114 -46t-116.5 46.5t-47.5 113.5q0 69 47.5 116.5t116.5 47.5t114 -47t45 -117zM1585 -23q0 -219 -217 -358t-577 -139q-748 0 -748 624q0 120 33 314h327q-24 -126 -24 -228q0 -154 109.5 -230.5t334.5 -76.5q229 0 354.5 29.5t125.5 85.5
q0 31 -40 53.5t-133 22.5h-104v313l461 143q234 69 248 72q-18 2 -64 14l-168 43q-100 25 -149 25q-41 0 -69 -22t-34 -60h-286q2 220 105.5 345.5t283.5 125.5q85 0 262 -53l350 -100q97 -33 168 -46q72 -10 160 -10h45l-2 -352h-27q-64 0 -143 -20v-3q0 -58 47.5 -80
t175.5 -22v-309l-72 -78q-188 0 -289.5 107t-109.5 301q-54 -22 -233 -99l-244 -102q71 -33 107 -97t36 -133zM1143 -795q0 -68 -46.5 -113.5t-115.5 -45.5t-115.5 45.5t-46.5 113.5q0 69 46.5 116.5t115.5 47.5t115.5 -47.5t46.5 -116.5zM772 -795q0 -68 -45.5 -113.5
t-114.5 -45.5t-116 46t-47 113q0 69 47 116.5t116 47.5t114.5 -47.5t45.5 -116.5z" />
    <glyph glyph-name="uniFD21" unicode="&#xfebc;&#xfef0;" horiz-adv-x="3325" arabic-form="final" 
d="M1597 53q0 -133 -62 -242t-170 -181t-254.5 -111t-315.5 -39q-379 0 -565.5 162.5t-186.5 490.5q0 124 29 285h327q-22 -126 -22 -213q0 -165 117.5 -243.5t363.5 -78.5q191 0 316.5 29t125.5 74q0 31 -46.5 50t-163.5 36l-203 26q-169 23 -249.5 106t-80.5 230
q0 113 61.5 223.5t159.5 192.5t226.5 133t255.5 51q99 0 172 -20.5t137 -72.5t115 -119t120 -181l76 -125q13 -23 27 -37q310 561 745 561q221 0 363.5 -146.5t142.5 -363.5q0 -58 -10 -116q58 -27 178 -27v-309l-72 -78q-192 0 -280 137q-215 -164 -650 -164
q-217 0 -344 27t-210.5 92t-155.5 191l-66 110q-55 96 -103.5 147t-120.5 78t-179 27q-120 0 -211 -31q-90 -27 -90 -79q0 -31 28.5 -46.5t106.5 -25.5l209 -31q225 -30 317 -117.5t92 -261.5zM2642 653q-293 0 -539 -268q115 -16 295 -16q270 0 388 34.5t118 114.5
q0 53 -74 94t-188 41z" />
    <glyph glyph-name="uniFD22" unicode="&#xfebc;&#xfef2;" horiz-adv-x="3325" arabic-form="final" 
d="M1597 53q0 -133 -62 -242t-170 -181t-254.5 -111t-315.5 -39q-379 0 -565.5 162.5t-186.5 490.5q0 124 29 285h327q-22 -126 -22 -213q0 -165 117.5 -243.5t363.5 -78.5q191 0 316.5 29t125.5 74q0 31 -46.5 50t-163.5 36l-203 26q-169 23 -249.5 106t-80.5 230
q0 113 61.5 223.5t159.5 192.5t226.5 133t255.5 51q99 0 172 -20.5t137 -72.5t115 -119t120 -181l76 -125q13 -23 27 -37q310 561 745 561q221 0 363.5 -146.5t142.5 -363.5q0 -58 -10 -116q58 -27 178 -27v-309l-72 -78q-192 0 -280 137q-215 -164 -650 -164
q-217 0 -344 27t-210.5 92t-155.5 191l-66 110q-55 96 -103.5 147t-120.5 78t-179 27q-120 0 -211 -31q-90 -27 -90 -79q0 -31 28.5 -46.5t106.5 -25.5l209 -31q225 -30 317 -117.5t92 -261.5zM2642 653q-293 0 -539 -268q115 -16 295 -16q270 0 388 34.5t118 114.5
q0 53 -74 94t-188 41zM1141 -795q0 -68 -45.5 -113.5t-114.5 -45.5t-116.5 46t-47.5 113q0 69 47.5 116.5t116.5 47.5t114.5 -47.5t45.5 -116.5zM772 -795q0 -67 -46 -113t-114 -46q-69 0 -116 46t-47 113q0 69 47 116.5t116 47.5q67 0 113.5 -47.5t46.5 -116.5z" />
    <glyph glyph-name="uniFD23" unicode="&#xfec0;&#xfef0;" horiz-adv-x="3325" arabic-form="final" 
d="M2781 1311q0 -67 -46.5 -113.5t-113.5 -46.5q-69 0 -116 46t-47 114q0 69 47 116.5t116 47.5q67 0 113.5 -47.5t46.5 -116.5zM1597 53q0 -133 -62 -242t-170 -181t-254.5 -111t-315.5 -39q-379 0 -565.5 162.5t-186.5 490.5q0 124 29 285h327q-22 -126 -22 -213
q0 -165 117.5 -243.5t363.5 -78.5q191 0 316.5 29t125.5 74q0 31 -46.5 50t-163.5 36l-203 26q-169 23 -249.5 106t-80.5 230q0 113 61.5 223.5t159.5 192.5t226.5 133t255.5 51q99 0 172 -20.5t137 -72.5t115 -119t120 -181l76 -125q13 -23 27 -37q310 561 745 561
q221 0 363.5 -146.5t142.5 -363.5q0 -58 -10 -116q58 -27 178 -27v-309l-72 -78q-192 0 -280 137q-215 -164 -650 -164q-217 0 -344 27t-210.5 92t-155.5 191l-66 110q-55 96 -103.5 147t-120.5 78t-179 27q-120 0 -211 -31q-90 -27 -90 -79q0 -31 28.5 -46.5t106.5 -25.5
l209 -31q225 -30 317 -117.5t92 -261.5zM2642 653q-293 0 -539 -268q115 -16 295 -16q270 0 388 34.5t118 114.5q0 53 -74 94t-188 41z" />
    <glyph glyph-name="uniFD24" unicode="&#xfec0;&#xfef2;" horiz-adv-x="3325" arabic-form="final" 
d="M2781 1311q0 -67 -46.5 -113.5t-113.5 -46.5q-69 0 -116 46t-47 114q0 69 47 116.5t116 47.5q67 0 113.5 -47.5t46.5 -116.5zM1597 53q0 -133 -62 -242t-170 -181t-254.5 -111t-315.5 -39q-379 0 -565.5 162.5t-186.5 490.5q0 124 29 285h327q-22 -126 -22 -213
q0 -165 117.5 -243.5t363.5 -78.5q191 0 316.5 29t125.5 74q0 31 -46.5 50t-163.5 36l-203 26q-169 23 -249.5 106t-80.5 230q0 113 61.5 223.5t159.5 192.5t226.5 133t255.5 51q99 0 172 -20.5t137 -72.5t115 -119t120 -181l76 -125q13 -23 27 -37q310 561 745 561
q221 0 363.5 -146.5t142.5 -363.5q0 -58 -10 -116q58 -27 178 -27v-309l-72 -78q-192 0 -280 137q-215 -164 -650 -164q-217 0 -344 27t-210.5 92t-155.5 191l-66 110q-55 96 -103.5 147t-120.5 78t-179 27q-120 0 -211 -31q-90 -27 -90 -79q0 -31 28.5 -46.5t106.5 -25.5
l209 -31q225 -30 317 -117.5t92 -261.5zM2642 653q-293 0 -539 -268q115 -16 295 -16q270 0 388 34.5t118 114.5q0 53 -74 94t-188 41zM1141 -795q0 -68 -45.5 -113.5t-114.5 -45.5t-116.5 46t-47.5 113q0 69 47.5 116.5t116.5 47.5t114.5 -47.5t45.5 -116.5zM772 -795
q0 -67 -46 -113t-114 -46q-69 0 -116 46t-47 113q0 69 47 116.5t116 47.5q67 0 113.5 -47.5t46.5 -116.5z" />
    <glyph glyph-name="uniFD29" unicode="&#xfeb8;&#xfeae;" horiz-adv-x="2428" arabic-form="final" 
d="M1681 1169q0 -57 -38 -95t-95 -38t-96 38t-39 95t39 96.5t96 39.5t95 -39.5t38 -96.5zM1524 891q0 -57 -38 -95t-95 -38t-95.5 38t-38.5 95t38.5 96t95.5 39t95 -39t38 -96zM1839 891q0 -57 -39 -95t-96 -38t-95 38t-38 95t38 96t95 39t96 -39t39 -96zM612 231
q0 -377 -135 -557t-422 -180q-76 0 -186 10v394q107 -15 176 -15q130 0 186 77.5t56 256.5q0 60 -21 266l-28 236l907 72l26 -246q11 -96 34 -133t77 -37q104 0 104 174v98h336v-98q0 -174 99 -174q104 0 104 174v170h336v-170q0 -88 38.5 -125t129.5 -37v-313l-74 -74
q-142 0 -232.5 65t-113.5 183q-14 -131 -84.5 -203t-187.5 -72q-104 0 -176.5 59.5t-92.5 162.5q-13 -105 -82 -163.5t-178 -58.5q-157 0 -235 93q-76 91 -117 313l-248 -19q4 -86 4 -129z" />
    <glyph glyph-name="uniFD2A" unicode="&#xfeb4;&#xfeae;" horiz-adv-x="2428" arabic-form="final" 
d="M612 231q0 -377 -135 -557t-422 -180q-76 0 -186 10v394q107 -15 176 -15q130 0 186 77.5t56 256.5q0 60 -21 266l-28 236l907 72l26 -246q11 -96 34 -133t77 -37q104 0 104 174v98h336v-98q0 -174 99 -174q104 0 104 174v170h336v-170q0 -88 38.5 -125t129.5 -37v-313
l-74 -74q-142 0 -232.5 65t-113.5 183q-14 -131 -84.5 -203t-187.5 -72q-104 0 -176.5 59.5t-92.5 162.5q-13 -105 -82 -163.5t-178 -58.5q-157 0 -235 93q-76 91 -117 313l-248 -19q4 -86 4 -129z" />
    <glyph glyph-name="uniFD2B" unicode="&#xfebc;&#xfeae;" horiz-adv-x="2713" arabic-form="final" 
d="M612 231q0 -377 -135 -557t-422 -180q-76 0 -186 10v394q107 -15 176 -15q130 0 186 77.5t56 256.5q0 60 -21 266l-37 308l908 71l34 -317q3 -44 13 -88q171 292 368.5 437.5t429.5 145.5q221 0 363.5 -146.5t142.5 -363.5q0 -12 -1 -25t-2.5 -29t-2.5 -25
q37 -37 86 -50.5t146 -13.5v-309l-72 -78q-216 0 -303 178q-237 -205 -838 -205q-134 0 -229 14t-169 46t-122.5 88.5t-80.5 136.5t-52 195l-244 -21q1 -23 4.5 -92.5t3.5 -108.5zM1974 653q-313 0 -604 -291q41 -2 148 -2q280 0 437.5 17.5t218 50.5t60.5 90q0 53 -73.5 94
t-186.5 41z" />
    <glyph glyph-name="uniFD2C" unicode="&#xfec0;&#xfeae;" horiz-adv-x="2713" arabic-form="final" 
d="M2105 1311q0 -68 -46 -114t-113 -46q-69 0 -116.5 46.5t-47.5 113.5q0 69 47.5 116.5t116.5 47.5q67 0 113 -47.5t46 -116.5zM612 231q0 -377 -135 -557t-422 -180q-76 0 -186 10v394q107 -15 176 -15q130 0 186 77.5t56 256.5q0 60 -21 266l-37 308l908 71l34 -317
q3 -44 13 -88q171 292 368.5 437.5t429.5 145.5q221 0 363.5 -146.5t142.5 -363.5q0 -12 -1 -25t-2.5 -29t-2.5 -25q37 -37 86 -50.5t146 -13.5v-309l-72 -78q-216 0 -303 178q-237 -205 -838 -205q-134 0 -229 14t-169 46t-122.5 88.5t-80.5 136.5t-52 195l-244 -21
q1 -23 4.5 -92.5t3.5 -108.5zM1974 653q-313 0 -604 -291q41 -2 148 -2q280 0 437.5 17.5t218 50.5t60.5 90q0 53 -73.5 94t-186.5 41z" />
    <glyph glyph-name="uniFDF2" unicode="&#x627;&#xfedf;&#xfee0;&#xfeea;" horiz-adv-x="3018" arabic-form="isolated" 
d="M1577 2292v-371h-145v371h145zM1620 1497q-106 0 -133 94q-23 -131 -115 -131q-69 0 -105 51t-36 148q0 62 14 117l135 12q-1 -15 -4.5 -42t-3.5 -36q0 -35 31 -35q20 0 28.5 29t8.5 98l129 10q0 -102 37 -102q32 0 32 47q0 14 -4 76l135 12q9 -53 9 -106
q0 -118 -41 -180t-117 -62zM2918 1536v-1536h-360v1536h360zM2353 1452v-905q0 -284 -120 -415.5t-388 -131.5q-205 0 -316 67.5t-136 208.5q-18 -133 -97.5 -204.5t-218.5 -71.5q-158 0 -243 73t-115 228q-37 -123 -116 -182.5t-208 -59.5q-171 0 -268.5 105.5t-97.5 290.5
q0 291 333 450l306 144v188h360v-690q0 -87 33.5 -123.5t112.5 -36.5q85 0 119 36t34 124v796h361v-796q0 -87 36 -123.5t121 -36.5q82 0 115 35t33 121v909h360zM283 526q0 -39 37 -58t129 -19q105 0 162 34.5t57 124.5v127l-271 -100q-59 -27 -86.5 -52.5t-27.5 -56.5z
" />
    <glyph glyph-name="uniFEF5" unicode="&#xfedf;&#xfe82;" horiz-adv-x="1239" arabic-form="isolated" 
d="M182 1415h-141q0 268 207 268q56 0 151 -17t144 -17q54 0 116 16v-195q-48 -22 -122 -22q-88 0 -154 16q-62 19 -135 19q-66 0 -66 -68zM741 0h-692v383l402 336l26 22l-536 318l186 321l582 -350q28 92 28 217v289h363v-289q0 -125 -27.5 -212t-99.5 -171
q111 -87 159 -185.5t48 -236.5q0 -209 -116 -325.5t-323 -116.5zM690 616l-305 -229h383q65 0 94 12t29 39q0 28 -30.5 60.5t-106.5 81.5z" />
    <glyph glyph-name="uniFEF6" unicode="&#xfee0;&#xfe82;" horiz-adv-x="1368" arabic-form="final" 
d="M158 1325h-144q0 268 209 268q54 0 149 -17t144 -17q57 0 119 16v-195q-48 -22 -123 -22q-88 0 -154 16q-62 19 -135 19q-65 0 -65 -68zM430 4l-389 -37v379l250 25l-127 891h393l96 -848q130 27 164 75q35 50 35 142v905h360v-981q0 -98 32.5 -133t123.5 -35v-313
l-74 -74h-32q-171 0 -257 73.5t-110 229.5q-26 -142 -132.5 -210.5t-332.5 -88.5z" />
    <glyph glyph-name="uniFEF7" unicode="&#xfedf;&#xfe84;" horiz-adv-x="1239" arabic-form="isolated" 
d="M612 1690v-187l-489 -69v186l65 8q-38 49 -38 123q2 95 67 160t162 65q88 0 141.5 -56.5t59.5 -154.5l-117 -16q-25 39 -86 39q-84 0 -84 -53q0 -36 46.5 -56.5t111.5 -13.5zM741 0h-692v383l402 336l26 22l-536 318l186 321l582 -350q28 92 28 217v289h363v-289
q0 -125 -27.5 -212t-99.5 -171q111 -87 159 -185.5t48 -236.5q0 -209 -116 -325.5t-323 -116.5zM690 616l-305 -229h383q65 0 94 12t29 39q0 28 -30.5 60.5t-106.5 81.5z" />
    <glyph glyph-name="uniFEF8" unicode="&#xfee0;&#xfe84;" horiz-adv-x="1368" arabic-form="final" 
d="M586 1599v-186l-488 -70v187l64 8q-39 51 -39 123q2 97 66.5 161t162.5 64q88 0 141.5 -56.5t59.5 -154.5l-117 -16q-22 39 -84 39q-84 0 -84 -53q0 -36 46 -57t110 -11zM430 4l-389 -37v379l250 25l-127 891h393l96 -848q130 27 164 75q35 50 35 142v905h360v-981
q0 -98 32.5 -133t123.5 -35v-313l-74 -74h-32q-171 0 -257 73.5t-110 229.5q-26 -142 -132.5 -210.5t-332.5 -88.5z" />
    <glyph glyph-name="uniFEF9" unicode="&#xfedf;&#xfe88;" horiz-adv-x="1239" arabic-form="isolated" 
d="M741 0h-692v383l402 336l26 22l-536 318l186 321l582 -350q28 92 28 217v289h363v-289q0 -125 -27.5 -212t-99.5 -171q111 -87 159 -185.5t48 -236.5q0 -209 -116 -325.5t-323 -116.5zM690 616l-305 -229h383q65 0 94 12t29 39q0 28 -30.5 60.5t-106.5 81.5zM528 -377
v-186l-487 -70v187l63 8q-38 49 -38 123q2 95 67 160t162 65q88 0 141.5 -56.5t59.5 -154.5l-117 -16q-21 38 -86 38q-82 0 -82 -53q0 -36 45.5 -56.5t110.5 -10.5z" />
    <glyph glyph-name="uniFEFA" unicode="&#xfee0;&#xfe88;" horiz-adv-x="1368" arabic-form="final" 
d="M430 4l-389 -37v379l250 25l-127 891h393l96 -848q130 27 164 75q35 50 35 142v905h360v-981q0 -98 32.5 -133t123.5 -35v-313l-74 -74h-32q-171 0 -257 73.5t-110 229.5q-26 -142 -132.5 -210.5t-332.5 -88.5zM729 -377v-186l-489 -70v187l65 8q-39 51 -39 123
q2 95 67.5 160t162.5 65q88 0 141 -56.5t59 -154.5l-116 -16q-24 38 -86 38q-84 0 -84 -53q0 -36 46 -56.5t111 -10.5z" />
    <glyph glyph-name="uniFEFB" unicode="&#xfedf;&#xfe8e;" horiz-adv-x="1239" arabic-form="isolated" 
d="M741 0h-692v383l402 336l26 22l-536 318l186 321l582 -350q28 92 28 217v289h363v-289q0 -125 -27.5 -212t-99.5 -171q111 -87 159 -185.5t48 -236.5q0 -209 -116 -325.5t-323 -116.5zM690 616l-305 -229h383q65 0 94 12t29 39q0 28 -30.5 60.5t-106.5 81.5z" />
    <glyph glyph-name="uniFEFC" unicode="&#xfee0;&#xfe8e;" horiz-adv-x="1368" arabic-form="final" 
d="M430 4l-389 -37v379l250 25l-127 891h393l96 -848q130 27 164 75q35 50 35 142v905h360v-981q0 -98 32.5 -133t123.5 -35v-313l-74 -74h-32q-171 0 -257 73.5t-110 229.5q-26 -142 -132.5 -210.5t-332.5 -88.5z" />
    <glyph glyph-name="f_f" unicode="ff" horiz-adv-x="1497" 
d="M555 0h-399v801h-131v270h131v68q0 201 116 301t320 100q62 0 170 -22v-291q-47 14 -94 14q-55 0 -84 -29t-29 -75v-66h293v80q0 200 117.5 300.5t320.5 100.5q66 0 174 -22v-291q-44 14 -96 14q-57 0 -86 -28.5t-29 -75.5v-78h209v-270h-209v-801h-401v801h-293v-801z
" />
    <glyph glyph-name="f_i" unicode="fi" horiz-adv-x="1411" 
d="M555 0h-399v801h-131v270h131v80q0 200 116.5 300.5t319.5 100.5q74 0 172 -20v-291q-38 12 -92 12q-58 0 -87.5 -28.5t-29.5 -75.5v-78h209v-270h-209v-801zM1102 1151q-94 0 -155.5 57.5t-61.5 145.5t61.5 146.5t155.5 58.5q93 0 156 -59t63 -146t-63 -145t-156 -58z
M1303 0h-402v1071h402v-1071z" />
    <glyph glyph-name="f_l" unicode="fl" horiz-adv-x="1406" 
d="M555 0h-399v801h-131v270h131v80q0 200 116.5 300.5t319.5 100.5q74 0 172 -20v-291q-38 12 -92 12q-58 0 -87.5 -28.5t-29.5 -75.5v-78h209v-270h-209v-801zM1300 0h-399v1534h399v-1534z" />
    <glyph glyph-name="uni064906BA" unicode="&#x649;&#x6ba;" horiz-adv-x="2121" 
d="M1389 293q0 -327 -181 -508q-178 -184 -493 -184q-658 0 -670 628q-3 154 31 334h327q-27 -136 -24 -223q0 -166 89 -251t261 -85q191 0 282 68.5t91 210.5q0 44 -19 200l-36 308l868 71l35 -317q8 -91 44.5 -124.5t129.5 -33.5v-313l-74 -74q-200 0 -293 100
q-92 99 -133 353l-244 -21q9 -77 9 -139z" />
    <glyph glyph-name="uni0649FEE6" unicode="&#x649;&#xfee6;" horiz-adv-x="2121" 
d="M868 891q0 -68 -46 -114t-113 -46q-69 0 -116.5 46.5t-47.5 113.5q0 69 47.5 116.5t116.5 47.5q67 0 113 -47.5t46 -116.5zM1389 293q0 -327 -181 -508q-178 -184 -493 -184q-658 0 -670 628q-3 154 31 334h327q-27 -136 -24 -223q0 -166 89 -251t261 -85q191 0 282 68.5
t91 210.5q0 44 -19 200l-36 308l868 71l35 -317q8 -91 44.5 -124.5t129.5 -33.5v-313l-74 -74q-200 0 -293 100q-92 99 -133 353l-244 -21q9 -77 9 -139z" />
    <glyph glyph-name="uni0649FEAE" unicode="&#x649;&#xfeae;" horiz-adv-x="1345" 
d="M612 231q0 -377 -135 -557t-422 -180q-76 0 -186 10v394q107 -15 176 -15q130 0 186 77.5t56 256.5q0 60 -21 266l-37 308l908 71l34 -317q7 -91 45 -124.5t130 -33.5v-313l-72 -74q-202 0 -295 100q-92 99 -133 353l-242 -21q1 -23 4.5 -92.5t3.5 -108.5z" />
    <glyph glyph-name="uni0649FEB0" unicode="&#x649;&#xfeb0;" horiz-adv-x="1345" 
d="M479 1120q0 -69 -46 -114t-114 -45q-69 0 -116 45t-47 114t47 116.5t116 47.5q67 0 113.5 -47.5t46.5 -116.5zM612 231q0 -377 -135 -557t-422 -180q-76 0 -186 10v394q107 -15 176 -15q130 0 186 77.5t56 256.5q0 60 -21 266l-37 308l908 71l34 -317q7 -91 45 -124.5
t130 -33.5v-313l-72 -74q-202 0 -295 100q-92 99 -133 353l-242 -21q1 -23 4.5 -92.5t3.5 -108.5z" />
    <glyph glyph-name="uniFECBFEF0" unicode="&#xfecb;&#xfef0;" horiz-adv-x="2244" 
d="M1589 -94q0 -115 -99 -210.5t-283 -152.5t-416 -57q-748 0 -748 655q0 137 37 285h326q-21 -168 -21 -213q0 -324 436 -324q232 0 358 23.5t126 62.5q0 30 -41 49t-134 19h-63v363l227 14q-116 95 -116 266q0 197 134 329t347 132q214 0 348 -125q134 -122 137 -383h-297
q-13 56 -71.5 88.5t-135.5 32.5q-94 0 -148 -36t-54 -99q0 -156 334 -156q131 0 260 14l163 19v-367l-675 -67q69 -55 69 -162z" />
    <glyph glyph-name="uniFECFFEF0" unicode="&#xfecf;&#xfef0;" horiz-adv-x="2260" 
d="M1837 1343q0 -69 -46.5 -115t-115.5 -46t-116.5 46t-47.5 115t47.5 116.5t116.5 47.5t115.5 -47.5t46.5 -116.5zM1589 -94q0 -115 -99 -210.5t-283 -152.5t-416 -57q-748 0 -748 655q0 137 37 285h326q-21 -168 -21 -213q0 -324 436 -324q232 0 358 23.5t126 62.5
q0 30 -41 49t-134 19h-63v363l227 14q-116 95 -116 266q0 197 134 329t347 132q214 0 348 -125q134 -122 137 -383h-297q-13 56 -71.5 88.5t-135.5 32.5q-94 0 -148 -36t-54 -99q0 -156 334 -156q131 0 260 14l163 19v-367l-675 -67q69 -55 69 -162z" />
    <glyph glyph-name="uniFB58FEF0" unicode="&#xfb58;&#xfef0;" horiz-adv-x="1781" 
d="M1589 -90q0 -121 -102 -219t-284 -154.5t-408 -56.5q-752 0 -752 624q0 162 33 314h327q-24 -132 -24 -230q0 -305 465 -305q215 0 339 28t124 79q0 34 -48.5 55t-150.5 21h-229v389h346q77 0 112 30.5t35 102.5q0 131 -37 346h336q35 -216 35 -410q0 -159 -66.5 -261
t-189.5 -134q73 -43 106 -95t33 -124zM1765 -637q0 -57 -38 -96t-95 -39t-95 39t-38 96t38 95t95 38t95 -38t38 -95zM1452 -637q0 -57 -38 -96t-95 -39t-95 39t-38 96t38 95t95 38t95 -38t38 -95zM1610 -915q0 -57 -39 -96.5t-96 -39.5t-95.5 39.5t-38.5 96.5t38.5 95
t95.5 38t96 -38t39 -95z" />
    <glyph glyph-name="uniFB7CFEF0" unicode="&#xfb7c;&#xfef0;" horiz-adv-x="2377" 
d="M1585 -23q0 -219 -217 -358t-577 -139q-748 0 -748 624q0 120 33 314h327q-24 -126 -24 -228q0 -154 109.5 -230.5t334.5 -76.5q229 0 354.5 29.5t125.5 85.5q0 31 -40 53.5t-133 22.5h-104v313l461 143q234 69 248 72q-18 2 -64 14l-168 43q-100 25 -149 25
q-41 0 -69 -22t-34 -60h-286q2 220 105.5 345.5t283.5 125.5q85 0 262 -53l350 -100q97 -33 168 -46q72 -10 160 -10h45l-2 -352h-27q-96 0 -235 -47q-131 -44 -389 -156l-244 -102q71 -33 107 -97t36 -133zM2193 -135q0 -57 -39 -96t-96 -39t-95 39t-38 96t38 95t95 38
t96 -38t39 -95zM1880 -135q0 -57 -39 -96t-96 -39t-95 39t-38 96t38 95t95 38t96 -38t39 -95zM2036 -414q0 -57 -38 -96t-95 -39t-95.5 39t-38.5 96t38.5 95t95.5 38t95 -38t38 -95z" />
    <glyph glyph-name="uniFB6CFEF0" unicode="&#xfb6c;&#xfef0;" horiz-adv-x="1736" 
d="M1307 1882q0 -57 -38 -95t-95 -38t-95.5 38t-38.5 95t38.5 96t95.5 39t95 -39t38 -96zM1151 1604q0 -57 -38 -95.5t-95 -38.5t-96 38.5t-39 95.5t39 96t96 39t95 -39t38 -96zM1464 1604q0 -57 -38 -95.5t-95 -38.5t-96 38.5t-39 95.5t39 96t96 39t95 -39t38 -96z
M1546 -94q0 -119 -96 -216.5t-268 -153.5t-385 -56q-380 0 -567 162.5t-185 490.5q0 137 37 285h326q-21 -168 -21 -213q0 -322 459 -322q193 0 305.5 27t112.5 76q0 63 -199 63h-229v365l346 -2q143 0 200.5 34.5t67.5 131.5q-115 -48 -334 -48q-189 0 -297 91.5
t-108 246.5q0 128 64 242t171 182t228 68q212 0 357.5 -201.5t145.5 -513.5q0 -235 -66 -358t-222 -164q157 -58 157 -217zM950 877q0 -86 183 -86q171 0 280 20q-43 80 -124 125t-171 45q-80 0 -124 -31t-44 -73z" />
    <glyph glyph-name="uniFB94FEF0" unicode="&#xfb94;&#xfef0;" horiz-adv-x="1658" 
d="M1677 1948l-2 -244l-960 -504v244zM1585 -68q0 -128 -102 -231.5t-283 -162t-405 -58.5q-380 0 -565 162.5t-187 490.5q0 137 37 285h326q-21 -168 -21 -213q0 -322 459 -322q212 0 335.5 29t123.5 80q0 34 -48.5 54t-144.5 20h-236v372h320q96 0 96 58q0 31 -33 57
t-122 57l-420 125v330l962 504l-2 -361l-530 -272l78 -27q354 -104 354 -407q0 -223 -168 -328q176 -71 176 -242z" />
    <glyph glyph-name="uniFEDFFB51" unicode="&#xfedf;&#xfb51;" horiz-adv-x="1239" 
d="M137 1403h-141q0 249 194 252q52 124 129 193t168 69q99 0 155 -63.5t56 -174.5q0 -241 -231 -241q-46 0 -132.5 16t-131.5 16q-66 0 -66 -67zM475 1731q-94 0 -147 -89q85 -18 137 -18q46 0 73 13.5t27 39.5q0 25 -24.5 39.5t-65.5 14.5zM741 0h-692v383l402 336l26 22
l-536 318l186 321l582 -350q28 92 28 217v289h363v-289q0 -125 -27.5 -212t-99.5 -171q111 -87 159 -185.5t48 -236.5q0 -209 -116 -325.5t-323 -116.5zM690 616l-305 -229h383q65 0 94 12t29 39q0 28 -30.5 60.5t-106.5 81.5z" />
    <glyph glyph-name="uniFEDFFEE4" unicode="&#xfedf;&#xfee4;" horiz-adv-x="858" 
d="M735 229l125 -67l-188 -338l-86 47q-141 77 -276 103t-384 26v322l74 65q134 0 244 -29q-50 54 -70 115t-20 148v915h360v-915q0 -163 44.5 -240.5t176.5 -151.5z" />
    <glyph glyph-name="uniFEDFFB7B" unicode="&#xfedf;&#xfb7b;" horiz-adv-x="1421" 
d="M1354 -145v-420q-109 -49 -256 -78t-297 -29q-365 0 -572 160q-206 156 -206 422q0 178 101 318.5t296 232.5q-222 -10 -342 -10v403h397q93 0 124.5 36t31.5 144v502h360v-467q0 -136 -39 -215h420l-2 -401h-55q-462 0 -709 -119q-248 -117 -248 -303q0 -131 126.5 -205
t349.5 -74q271 0 520 103zM1085 182q0 -54 -35.5 -89.5t-86.5 -35.5t-87 35.5t-36 89.5q0 51 36 86t87 35t86.5 -35t35.5 -86zM799 182q0 -54 -35.5 -89.5t-89.5 -35.5q-51 0 -86 35.5t-35 89.5q0 51 35 86t86 35q54 0 89.5 -35t35.5 -86zM942 -76q0 -51 -36 -87t-87 -36
q-53 0 -88 35.5t-35 87.5t35 87.5t88 35.5q51 0 87 -36t36 -87z" />
    <glyph glyph-name="uniFEDFFB7D" unicode="&#xfedf;&#xfb7d;" horiz-adv-x="1458" 
d="M207 0h-281v322l74 65h223q157 0 257 8t249 33l131 25q46 9 139 22l-194 27l-154 24q-101 16 -190 20.5t-266 4.5h-125v348h245q161 0 213 37q54 39 54 143v457h360v-422q0 -119 -38.5 -197t-119.5 -122l66 -11q317 -47 526 -47h41l-2 -352h-51q-106 0 -191.5 -28.5
t-242.5 -114.5l-162 -86q-176 -92 -289 -124t-272 -32zM1012 -223q0 -57 -39 -96t-96 -39t-95.5 39t-38.5 96t38.5 95t95.5 38t96 -38t39 -95zM698 -223q0 -57 -39 -96t-96 -39t-95 39t-38 96t38 95t95 38t96 -38t39 -95zM856 -502q0 -57 -39 -96t-96 -39t-95 39t-38 96
t38 95t95 38t96 -38t39 -95z" />
    <glyph glyph-name="uniFECBFEF2" unicode="&#xfecb;&#xfef2;" horiz-adv-x="2260" 
d="M1589 -94q0 -115 -99 -210.5t-283 -152.5t-416 -57q-748 0 -748 655q0 137 37 285h326q-21 -168 -21 -213q0 -324 436 -324q232 0 358 23.5t126 62.5q0 30 -41 49t-134 19h-63v363l227 14q-116 95 -116 266q0 197 134 329t347 132q214 0 348 -125q134 -122 137 -383h-297
q-13 56 -71.5 88.5t-135.5 32.5q-94 0 -148 -36t-54 -99q0 -156 334 -156q131 0 260 14l163 19v-367l-675 -67q69 -55 69 -162zM1137 -786q0 -68 -46.5 -114t-113.5 -46q-69 0 -116.5 46.5t-47.5 113.5q0 69 47.5 116t116.5 47q68 0 114 -47t46 -116zM766 -786
q0 -68 -45.5 -114t-114.5 -46t-116.5 46.5t-47.5 113.5q0 69 47.5 116t116.5 47t114.5 -47t45.5 -116z" />
    <glyph glyph-name="uniFECFFEF2" unicode="&#xfecf;&#xfef2;" horiz-adv-x="2260" 
d="M1837 1343q0 -69 -46.5 -115t-115.5 -46t-116.5 46t-47.5 115t47.5 116.5t116.5 47.5t115.5 -47.5t46.5 -116.5zM1589 -94q0 -115 -99 -210.5t-283 -152.5t-416 -57q-748 0 -748 655q0 137 37 285h326q-21 -168 -21 -213q0 -324 436 -324q232 0 358 23.5t126 62.5
q0 30 -41 49t-134 19h-63v363l227 14q-116 95 -116 266q0 197 134 329t347 132q214 0 348 -125q134 -122 137 -383h-297q-13 56 -71.5 88.5t-135.5 32.5q-94 0 -148 -36t-54 -99q0 -156 334 -156q131 0 260 14l163 19v-367l-675 -67q69 -55 69 -162zM1137 -786
q0 -68 -46.5 -114t-113.5 -46q-69 0 -116.5 46.5t-47.5 113.5q0 69 47.5 116t116.5 47q68 0 114 -47t46 -116zM766 -786q0 -68 -45.5 -114t-114.5 -46t-116.5 46.5t-47.5 113.5q0 69 47.5 116t116.5 47t114.5 -47t45.5 -116z" />
    <glyph glyph-name="uniFB58FEF2" unicode="&#xfb58;&#xfef2;" horiz-adv-x="1781" 
d="M1589 -90q0 -121 -102 -219t-284 -154.5t-408 -56.5q-752 0 -752 624q0 162 33 314h327q-24 -132 -24 -230q0 -305 465 -305q215 0 339 28t124 79q0 34 -48.5 55t-150.5 21h-229v389h346q77 0 112 30.5t35 102.5q0 131 -37 346h336q35 -216 35 -410q0 -159 -66.5 -261
t-189.5 -134q73 -43 106 -95t33 -124zM1765 -637q0 -57 -38 -96t-95 -39t-95 39t-38 96t38 95t95 38t95 -38t38 -95zM1452 -637q0 -57 -38 -96t-95 -39t-95 39t-38 96t38 95t95 38t95 -38t38 -95zM1143 -795q0 -68 -46.5 -113.5t-115.5 -45.5t-115.5 45.5t-46.5 113.5
q0 69 46.5 116.5t115.5 47.5t115.5 -47.5t46.5 -116.5zM772 -795q0 -68 -45.5 -113.5t-114.5 -45.5t-116 46t-47 113q0 69 47 116.5t116 47.5t114.5 -47.5t45.5 -116.5zM1610 -915q0 -57 -39 -96.5t-96 -39.5t-95.5 39.5t-38.5 96.5t38.5 95t95.5 38t96 -38t39 -95z" />
    <glyph glyph-name="uniFB7CFEF2" unicode="&#xfb7c;&#xfef2;" horiz-adv-x="2377" 
d="M1585 -23q0 -219 -217 -358t-577 -139q-748 0 -748 624q0 120 33 314h327q-24 -126 -24 -228q0 -154 109.5 -230.5t334.5 -76.5q229 0 354.5 29.5t125.5 85.5q0 31 -40 53.5t-133 22.5h-104v313l461 143q234 69 248 72q-18 2 -64 14l-168 43q-100 25 -149 25
q-41 0 -69 -22t-34 -60h-286q2 220 105.5 345.5t283.5 125.5q85 0 262 -53l350 -100q97 -33 168 -46q72 -10 160 -10h45l-2 -352h-27q-96 0 -235 -47q-131 -44 -389 -156l-244 -102q71 -33 107 -97t36 -133zM2193 -135q0 -57 -39 -96t-96 -39t-95 39t-38 96t38 95t95 38
t96 -38t39 -95zM1880 -135q0 -57 -39 -96t-96 -39t-95 39t-38 96t38 95t95 38t96 -38t39 -95zM2036 -414q0 -57 -38 -96t-95 -39t-95.5 39t-38.5 96t38.5 95t95.5 38t95 -38t38 -95zM1143 -795q0 -68 -46.5 -113.5t-115.5 -45.5t-115.5 45.5t-46.5 113.5q0 69 46.5 116.5
t115.5 47.5t115.5 -47.5t46.5 -116.5zM772 -795q0 -68 -45.5 -113.5t-114.5 -45.5t-116 46t-47 113q0 69 47 116.5t116 47.5t114.5 -47.5t45.5 -116.5z" />
    <glyph glyph-name="uniFB6CFEF2" unicode="&#xfb6c;&#xfef2;" horiz-adv-x="1736" 
d="M1307 1882q0 -57 -38 -95t-95 -38t-95.5 38t-38.5 95t38.5 96t95.5 39t95 -39t38 -96zM1151 1604q0 -57 -38 -95.5t-95 -38.5t-96 38.5t-39 95.5t39 96t96 39t95 -39t38 -96zM1464 1604q0 -57 -38 -95.5t-95 -38.5t-96 38.5t-39 95.5t39 96t96 39t95 -39t38 -96z
M1546 -94q0 -119 -96 -216.5t-268 -153.5t-385 -56q-380 0 -567 162.5t-185 490.5q0 137 37 285h326q-21 -168 -21 -213q0 -322 459 -322q193 0 305.5 27t112.5 76q0 63 -199 63h-229v365l346 -2q143 0 200.5 34.5t67.5 131.5q-115 -48 -334 -48q-189 0 -297 91.5
t-108 246.5q0 128 64 242t171 182t228 68q212 0 357.5 -201.5t145.5 -513.5q0 -235 -66 -358t-222 -164q157 -58 157 -217zM950 877q0 -86 183 -86q171 0 280 20q-43 80 -124 125t-171 45q-80 0 -124 -31t-44 -73zM1135 -778q0 -69 -46.5 -114.5t-115.5 -45.5t-115.5 45.5
t-46.5 114.5t46.5 116.5t115.5 47.5t115.5 -47.5t46.5 -116.5zM764 -778q0 -69 -45.5 -114.5t-114.5 -45.5t-116.5 45.5t-47.5 114.5t47.5 116.5t116.5 47.5t114.5 -47.5t45.5 -116.5z" />
    <glyph glyph-name="uniFB90FEF2" unicode="&#xfb90;&#xfef2;" horiz-adv-x="1658" 
d="M1585 -68q0 -128 -102 -231.5t-283 -162t-405 -58.5q-380 0 -565 162.5t-187 490.5q0 137 37 285h326q-21 -168 -21 -213q0 -322 459 -322q212 0 335.5 29t123.5 80q0 34 -48.5 54t-144.5 20h-236v372h320q96 0 96 58q0 31 -33 57t-122 57l-420 125v330l962 504l-2 -361
l-530 -272l78 -27q354 -104 354 -407q0 -223 -168 -328q176 -71 176 -242zM1143 -778q0 -69 -45.5 -114.5t-114.5 -45.5t-116.5 45.5t-47.5 114.5t47.5 116.5t116.5 47.5t114.5 -47.5t45.5 -116.5zM774 -778q0 -69 -46 -114.5t-114 -45.5q-69 0 -116 45.5t-47 114.5
t47 116.5t116 47.5q67 0 113.5 -47.5t46.5 -116.5z" />
    <glyph glyph-name="uniFB94FEF2" unicode="&#xfb94;&#xfef2;" horiz-adv-x="1658" 
d="M1677 1948l-2 -244l-960 -504v244zM1585 -68q0 -128 -102 -231.5t-283 -162t-405 -58.5q-380 0 -565 162.5t-187 490.5q0 137 37 285h326q-21 -168 -21 -213q0 -322 459 -322q212 0 335.5 29t123.5 80q0 34 -48.5 54t-144.5 20h-236v372h320q96 0 96 58q0 31 -33 57
t-122 57l-420 125v330l962 504l-2 -361l-530 -272l78 -27q354 -104 354 -407q0 -223 -168 -328q176 -71 176 -242zM1143 -778q0 -69 -45.5 -114.5t-114.5 -45.5t-116.5 45.5t-47.5 114.5t47.5 116.5t116.5 47.5t114.5 -47.5t45.5 -116.5zM774 -778q0 -69 -46 -114.5
t-114 -45.5q-69 0 -116 45.5t-47 114.5t47 116.5t116 47.5q67 0 113.5 -47.5t46.5 -116.5z" />
    <glyph glyph-name="uniFE91FE8A" unicode="&#xfe91;&#xfe8a;" horiz-adv-x="1781" 
d="M508 756v-187l-490 -71v188l66 8q-39 51 -39 123q0 94 65.5 158.5t163.5 64.5q88 0 141.5 -55.5t59.5 -153.5l-117 -16q-25 39 -86 39q-84 0 -84 -53q0 -37 45.5 -57t112.5 -13zM1589 -90q0 -121 -102 -219t-284 -154.5t-408 -56.5q-752 0 -752 624q0 162 33 314h327
q-24 -132 -24 -230q0 -305 465 -305q215 0 339 28t124 79q0 34 -48.5 55t-150.5 21h-229v389h346q77 0 112 30.5t35 102.5q0 131 -37 346h336q35 -216 35 -410q0 -159 -66.5 -261t-189.5 -134q73 -43 106 -95t33 -124zM1630 -678q0 -68 -46 -114t-114 -46q-69 0 -116 46
t-47 114q0 69 47 116.5t116 47.5q67 0 113.5 -47.5t46.5 -116.5z" />
    <glyph glyph-name="uniFE97FE8A" unicode="&#xfe97;&#xfe8a;" horiz-adv-x="1781" 
d="M1837 1204q0 -68 -46.5 -114t-113.5 -46q-69 0 -116.5 46.5t-47.5 113.5q0 69 47.5 116.5t116.5 47.5q67 0 113.5 -47.5t46.5 -116.5zM1468 1204q0 -68 -46 -114t-115 -46t-115.5 46t-46.5 114q0 69 46.5 116.5t115.5 47.5t115 -47.5t46 -116.5zM508 756v-187l-490 -71
v188l66 8q-39 51 -39 123q0 94 65.5 158.5t163.5 64.5q88 0 141.5 -55.5t59.5 -153.5l-117 -16q-25 39 -86 39q-84 0 -84 -53q0 -37 45.5 -57t112.5 -13zM1589 -90q0 -121 -102 -219t-284 -154.5t-408 -56.5q-752 0 -752 624q0 162 33 314h327q-24 -132 -24 -230
q0 -305 465 -305q215 0 339 28t124 79q0 34 -48.5 55t-150.5 21h-229v389h346q77 0 112 30.5t35 102.5q0 131 -37 346h336q35 -216 35 -410q0 -159 -66.5 -261t-189.5 -134q73 -43 106 -95t33 -124z" />
    <glyph glyph-name="uniFE9BFE8A" unicode="&#xfe9b;&#xfe8a;" horiz-adv-x="1781" 
d="M1624 1456q0 -57 -38 -95t-95 -38t-96 38t-39 95t39 96t96 39t95 -39t38 -96zM1468 1178q0 -57 -38 -95.5t-95 -38.5t-96 38.5t-39 95.5t39 96t96 39t95 -39t38 -96zM1782 1178q0 -57 -38 -95.5t-95 -38.5t-96.5 38.5t-39.5 95.5t39.5 96t96.5 39t95 -39t38 -96zM508 756
v-187l-490 -71v188l66 8q-39 51 -39 123q0 94 65.5 158.5t163.5 64.5q88 0 141.5 -55.5t59.5 -153.5l-117 -16q-25 39 -86 39q-84 0 -84 -53q0 -37 45.5 -57t112.5 -13zM1589 -90q0 -121 -102 -219t-284 -154.5t-408 -56.5q-752 0 -752 624q0 162 33 314h327
q-24 -132 -24 -230q0 -305 465 -305q215 0 339 28t124 79q0 34 -48.5 55t-150.5 21h-229v389h346q77 0 112 30.5t35 102.5q0 131 -37 346h336q35 -216 35 -410q0 -159 -66.5 -261t-189.5 -134q73 -43 106 -95t33 -124z" />
    <glyph glyph-name="uniFE9FFE8A" unicode="&#xfe9f;&#xfe8a;" horiz-adv-x="2377" 
d="M1585 -23q0 -219 -217 -358t-577 -139q-748 0 -748 624q0 120 33 314h327q-24 -126 -24 -228q0 -154 109.5 -230.5t334.5 -76.5q229 0 354.5 29.5t125.5 85.5q0 31 -40 53.5t-133 22.5h-104v313l461 143q234 69 248 72q-18 2 -64 14l-168 43q-100 25 -149 25
q-41 0 -69 -22t-34 -60h-286q2 220 105.5 345.5t283.5 125.5q85 0 262 -53l350 -100q97 -33 168 -46q72 -10 160 -10h45l-2 -352h-27q-96 0 -235 -47q-131 -44 -389 -156l-244 -102q71 -33 107 -97t36 -133zM494 756v-187l-490 -71v188l66 8q-39 51 -39 123q0 94 65.5 158.5
t163.5 64.5q88 0 141.5 -55.5t59.5 -153.5l-117 -16q-25 39 -86 39q-84 0 -84 -53q0 -37 45.5 -57t112.5 -13zM2056 -176q0 -68 -45.5 -114t-114.5 -46t-116 46t-47 114q0 69 47 116.5t116 47.5t114.5 -47.5t45.5 -116.5z" />
    <glyph glyph-name="uniFEA3FE8A" unicode="&#xfea3;&#xfe8a;" horiz-adv-x="2377" 
d="M1585 -23q0 -219 -217 -358t-577 -139q-748 0 -748 624q0 120 33 314h327q-24 -126 -24 -228q0 -154 109.5 -230.5t334.5 -76.5q229 0 354.5 29.5t125.5 85.5q0 31 -40 53.5t-133 22.5h-104v313l461 143q234 69 248 72q-18 2 -64 14l-168 43q-100 25 -149 25
q-41 0 -69 -22t-34 -60h-286q2 220 105.5 345.5t283.5 125.5q85 0 262 -53l350 -100q97 -33 168 -46q72 -10 160 -10h45l-2 -352h-27q-96 0 -235 -47q-131 -44 -389 -156l-244 -102q71 -33 107 -97t36 -133zM494 756v-187l-490 -71v188l66 8q-39 51 -39 123q0 94 65.5 158.5
t163.5 64.5q88 0 141.5 -55.5t59.5 -153.5l-117 -16q-25 39 -86 39q-84 0 -84 -53q0 -37 45.5 -57t112.5 -13z" />
    <glyph glyph-name="uniFEA7FE8A" unicode="&#xfea7;&#xfe8a;" horiz-adv-x="2377" 
d="M1593 1311q0 -68 -45 -114t-114 -46t-116.5 46.5t-47.5 113.5q0 69 47.5 116.5t116.5 47.5t114 -47t45 -117zM1585 -23q0 -219 -217 -358t-577 -139q-748 0 -748 624q0 120 33 314h327q-24 -126 -24 -228q0 -154 109.5 -230.5t334.5 -76.5q229 0 354.5 29.5t125.5 85.5
q0 31 -40 53.5t-133 22.5h-104v313l461 143q234 69 248 72q-18 2 -64 14l-168 43q-100 25 -149 25q-41 0 -69 -22t-34 -60h-286q2 220 105.5 345.5t283.5 125.5q85 0 262 -53l350 -100q97 -33 168 -46q72 -10 160 -10h45l-2 -352h-27q-96 0 -235 -47q-131 -44 -389 -156
l-244 -102q71 -33 107 -97t36 -133zM494 756v-187l-490 -71v188l66 8q-39 51 -39 123q0 94 65.5 158.5t163.5 64.5q88 0 141.5 -55.5t59.5 -153.5l-117 -16q-25 39 -86 39q-84 0 -84 -53q0 -37 45.5 -57t112.5 -13z" />
    <glyph glyph-name="uniFEB3FE8A" unicode="&#xfeb3;&#xfe8a;" horiz-adv-x="3168" 
d="M469 756v-187l-487 -71v188l63 8q-39 51 -39 123q2 94 67 158.5t163 64.5q88 0 141 -55.5t59 -153.5l-117 -16q-25 39 -86 39q-83 0 -83 -53q0 -37 45.5 -57t111.5 -13zM1597 53q0 -133 -62 -242t-170 -181t-254.5 -111t-315.5 -39q-379 0 -565.5 162.5t-186.5 490.5
q0 124 29 285h327q-22 -126 -22 -213q0 -165 117.5 -243.5t363.5 -78.5q191 0 316.5 29t125.5 74q0 31 -46.5 50t-163.5 36l-203 26q-169 23 -249.5 106t-80.5 230q0 113 61.5 223.5t159.5 192.5t226.5 133t255.5 51q197 0 325 -90q125 -88 244 -303l67 -125
q44 -84 85.5 -112.5t119.5 -28.5q82 0 121 48t39 161v63h336v-98q0 -85 26.5 -129.5t69.5 -44.5q88 0 88 129q0 120 -37 287h346q27 -163 27 -299q0 -249 -116.5 -384t-317.5 -135q-125 0 -219.5 62t-118.5 170q-19 -112 -97.5 -172t-203.5 -60q-147 0 -244 66
q-98 67 -186 244l-58 110q-70 140 -161 197q-88 55 -250 55q-120 0 -211 -31q-90 -27 -90 -79q0 -31 28.5 -46.5t106.5 -25.5l209 -31q225 -30 317 -117.5t92 -261.5z" />
    <glyph glyph-name="uniFEB7FE8A" unicode="&#xfeb7;&#xfe8a;" horiz-adv-x="3168" 
d="M2497 1178q0 -57 -38.5 -95.5t-95.5 -38.5t-96 38.5t-39 95.5t39 96t96 39t95.5 -39t38.5 -96zM469 756v-187l-487 -71v188l63 8q-39 51 -39 123q2 94 67 158.5t163 64.5q88 0 141 -55.5t59 -153.5l-117 -16q-25 39 -86 39q-83 0 -83 -53q0 -37 45.5 -57t111.5 -13z
M1597 53q0 -133 -62 -242t-170 -181t-254.5 -111t-315.5 -39q-379 0 -565.5 162.5t-186.5 490.5q0 124 29 285h327q-22 -126 -22 -213q0 -165 117.5 -243.5t363.5 -78.5q191 0 316.5 29t125.5 74q0 31 -46.5 50t-163.5 36l-203 26q-169 23 -249.5 106t-80.5 230
q0 113 61.5 223.5t159.5 192.5t226.5 133t255.5 51q197 0 325 -90q125 -88 244 -303l67 -125q44 -84 85.5 -112.5t119.5 -28.5q82 0 121 48t39 161v63h336v-98q0 -85 26.5 -129.5t69.5 -44.5q88 0 88 129q0 120 -37 287h346q27 -163 27 -299q0 -249 -116.5 -384t-317.5 -135
q-125 0 -219.5 62t-118.5 170q-19 -112 -97.5 -172t-203.5 -60q-147 0 -244 66q-98 67 -186 244l-58 110q-70 140 -161 197q-88 55 -250 55q-120 0 -211 -31q-90 -27 -90 -79q0 -31 28.5 -46.5t106.5 -25.5l209 -31q225 -30 317 -117.5t92 -261.5zM2339 899q0 -57 -38 -95
t-95 -38t-95 38t-38 95t38 96t95 39t95 -39t38 -96zM2652 899q0 -57 -38 -95t-95 -38t-95 38t-38 95t38 96t95 39t95 -39t38 -96z" />
    <glyph glyph-name="uniFEBBFE8A" unicode="&#xfebb;&#xfe8a;" horiz-adv-x="3201" 
d="M1597 53q0 -133 -62 -242t-170 -181t-254.5 -111t-315.5 -39q-379 0 -565.5 162.5t-186.5 490.5q0 124 29 285h327q-22 -126 -22 -213q0 -165 117.5 -243.5t363.5 -78.5q191 0 316.5 29t125.5 74q0 31 -46.5 50t-163.5 36l-203 26q-169 23 -249.5 106t-80.5 230
q0 113 61.5 223.5t159.5 192.5t226.5 133t255.5 51q99 0 172 -20.5t137 -72.5t115 -119t120 -181l76 -125q13 -23 27 -37q310 561 745 561q221 0 363.5 -146.5t142.5 -363.5q0 -269 -214 -413t-620 -144q-217 0 -344 27t-210.5 92t-155.5 191l-66 110q-55 96 -103.5 147
t-120.5 78t-179 27q-120 0 -211 -31q-90 -27 -90 -79q0 -31 28.5 -46.5t106.5 -25.5l209 -31q225 -30 317 -117.5t92 -261.5zM469 756v-187l-487 -71v188l63 8q-39 51 -39 123q2 94 67 158.5t163 64.5q88 0 141 -55.5t59 -153.5l-117 -16q-25 39 -86 39q-83 0 -83 -53
q0 -37 45.5 -57t111.5 -13zM2642 653q-293 0 -539 -268q115 -16 295 -16q270 0 388 34.5t118 114.5q0 53 -74 94t-188 41z" />
    <glyph glyph-name="uniFEBFFE8A" unicode="&#xfebf;&#xfe8a;" horiz-adv-x="3201" 
d="M2781 1311q0 -67 -46.5 -113.5t-113.5 -46.5q-69 0 -116 46t-47 114q0 69 47 116.5t116 47.5q67 0 113.5 -47.5t46.5 -116.5zM1597 53q0 -133 -62 -242t-170 -181t-254.5 -111t-315.5 -39q-379 0 -565.5 162.5t-186.5 490.5q0 124 29 285h327q-22 -126 -22 -213
q0 -165 117.5 -243.5t363.5 -78.5q191 0 316.5 29t125.5 74q0 31 -46.5 50t-163.5 36l-203 26q-169 23 -249.5 106t-80.5 230q0 113 61.5 223.5t159.5 192.5t226.5 133t255.5 51q99 0 172 -20.5t137 -72.5t115 -119t120 -181l76 -125q13 -23 27 -37q310 561 745 561
q221 0 363.5 -146.5t142.5 -363.5q0 -269 -214 -413t-620 -144q-217 0 -344 27t-210.5 92t-155.5 191l-66 110q-55 96 -103.5 147t-120.5 78t-179 27q-120 0 -211 -31q-90 -27 -90 -79q0 -31 28.5 -46.5t106.5 -25.5l209 -31q225 -30 317 -117.5t92 -261.5zM469 756v-187
l-487 -71v188l63 8q-39 51 -39 123q2 94 67 158.5t163 64.5q88 0 141 -55.5t59 -153.5l-117 -16q-25 39 -86 39q-83 0 -83 -53q0 -37 45.5 -57t111.5 -13zM2642 653q-293 0 -539 -268q115 -16 295 -16q270 0 388 34.5t118 114.5q0 53 -74 94t-188 41z" />
    <glyph glyph-name="uniFECBFE8A" unicode="&#xfecb;&#xfe8a;" horiz-adv-x="2260" 
d="M1589 -94q0 -115 -99 -210.5t-283 -152.5t-416 -57q-748 0 -748 655q0 137 37 285h326q-21 -168 -21 -213q0 -324 436 -324q232 0 358 23.5t126 62.5q0 30 -41 49t-134 19h-63v363l227 14q-116 95 -116 266q0 197 134 329t347 132q214 0 348 -125q134 -122 137 -383h-297
q-13 56 -71.5 88.5t-135.5 32.5q-94 0 -148 -36t-54 -99q0 -156 334 -156q131 0 260 14l163 19v-367l-675 -67q69 -55 69 -162zM498 764v-186l-490 -72v188l66 8q-39 51 -39 123q0 94 65.5 159t163.5 65q88 0 141.5 -55.5t59.5 -153.5l-117 -17q-25 39 -86 39q-84 0 -84 -53
q0 -38 46 -59t112 -11z" />
    <glyph glyph-name="uniFECFFE8A" unicode="&#xfecf;&#xfe8a;" horiz-adv-x="2260" 
d="M1837 1343q0 -69 -46.5 -115t-115.5 -46t-116.5 46t-47.5 115t47.5 116.5t116.5 47.5t115.5 -47.5t46.5 -116.5zM1589 -94q0 -115 -99 -210.5t-283 -152.5t-416 -57q-748 0 -748 655q0 137 37 285h326q-21 -168 -21 -213q0 -324 436 -324q232 0 358 23.5t126 62.5
q0 30 -41 49t-134 19h-63v363l227 14q-116 95 -116 266q0 197 134 329t347 132q214 0 348 -125q134 -122 137 -383h-297q-13 56 -71.5 88.5t-135.5 32.5q-94 0 -148 -36t-54 -99q0 -156 334 -156q131 0 260 14l163 19v-367l-675 -67q69 -55 69 -162zM498 764v-186l-490 -72
v188l66 8q-39 51 -39 123q0 94 65.5 159t163.5 65q88 0 141.5 -55.5t59.5 -153.5l-117 -17q-25 39 -86 39q-84 0 -84 -53q0 -38 46 -59t112 -11z" />
    <glyph glyph-name="uniFED3FE8A" unicode="&#xfed3;&#xfe8a;" horiz-adv-x="1736" 
d="M1325 1630q0 -68 -46.5 -114t-115.5 -46t-116.5 46.5t-47.5 113.5q0 69 47.5 116.5t116.5 47.5t115.5 -47.5t46.5 -116.5zM1544 -94q0 -119 -96 -216.5t-268 -153.5t-385 -56q-380 0 -567 162.5t-185 490.5q0 137 37 285h326q-21 -168 -21 -213q0 -322 459 -322
q193 0 305.5 27t112.5 76q0 63 -199 63h-229v365l346 -2q143 0 200.5 34.5t67.5 131.5q-115 -48 -334 -48q-189 0 -297 91.5t-108 246.5q0 128 63.5 241.5t170.5 182t228 68.5q104 0 196.5 -53t160.5 -146t107.5 -227t39.5 -289q0 -235 -66.5 -358t-222.5 -164
q158 -58 158 -217zM494 756v-187l-488 -71v188l64 8q-39 51 -39 123q2 95 67 159t162 64q88 0 141.5 -55.5t59.5 -153.5l-117 -16q-25 39 -86 39q-84 0 -84 -53q0 -37 46 -57.5t112 -12.5zM948 877q0 -86 182 -86q172 0 281 20q-43 80 -124 125t-171 45q-80 0 -124 -31
t-44 -73z" />
    <glyph glyph-name="uniFED7FE8A" unicode="&#xfed7;&#xfe8a;" horiz-adv-x="1736" 
d="M1518 1630q0 -68 -45.5 -114t-114.5 -46t-116.5 46.5t-47.5 113.5q0 69 47.5 116.5t116.5 47.5t114.5 -47.5t45.5 -116.5zM1149 1630q0 -68 -46.5 -114t-113.5 -46q-69 0 -116.5 46.5t-47.5 113.5q0 69 47.5 116.5t116.5 47.5q67 0 113.5 -47.5t46.5 -116.5zM1544 -94
q0 -119 -96 -216.5t-268 -153.5t-385 -56q-380 0 -567 162.5t-185 490.5q0 137 37 285h326q-21 -168 -21 -213q0 -322 459 -322q193 0 305.5 27t112.5 76q0 63 -199 63h-229v365l346 -2q143 0 200.5 34.5t67.5 131.5q-115 -48 -334 -48q-189 0 -297 91.5t-108 246.5
q0 128 63.5 241.5t170.5 182t228 68.5q104 0 196.5 -53t160.5 -146t107.5 -227t39.5 -289q0 -235 -66.5 -358t-222.5 -164q158 -58 158 -217zM494 756v-187l-488 -71v188l64 8q-39 51 -39 123q2 95 67 159t162 64q88 0 141.5 -55.5t59.5 -153.5l-117 -16q-25 39 -86 39
q-84 0 -84 -53q0 -37 46 -57.5t112 -12.5zM948 877q0 -86 182 -86q172 0 281 20q-43 80 -124 125t-171 45q-80 0 -124 -31t-44 -73z" />
    <glyph glyph-name="uniFEDBFE8A" unicode="&#xfedb;&#xfe8a;" horiz-adv-x="1658" 
d="M1585 -68q0 -128 -102 -231.5t-283 -162t-405 -58.5q-380 0 -565 162.5t-187 490.5q0 137 37 285h326q-21 -168 -21 -213q0 -322 459 -322q212 0 335.5 29t123.5 80q0 34 -48.5 54t-144.5 20h-236v372h320q96 0 96 58q0 31 -33 57t-122 57l-420 125v330l962 504l-2 -361
l-530 -272l78 -27q354 -104 354 -407q0 -223 -168 -328q176 -71 176 -242zM494 756v-187l-488 -71v188l66 8q-41 53 -41 123q2 95 67 159t162 64q88 0 141.5 -55.5t59.5 -153.5l-117 -16q-22 39 -84 39q-84 0 -84 -53q0 -37 45 -57t111 -13z" />
    <glyph glyph-name="uniFEDFFE8A" unicode="&#xfedf;&#xfe8a;" horiz-adv-x="1695" 
d="M1585 -68q0 -131 -102 -234.5t-282.5 -160.5t-405.5 -57q-380 0 -567 162.5t-185 490.5q0 137 37 285h326q-21 -168 -21 -213q0 -322 459 -322q213 0 336 28t123 79q0 33 -50 54.5t-149 21.5h-230v389h168q100 0 139.5 34t39.5 121v926h360v-926q0 -179 -37 -283
t-121 -155q162 -64 162 -240zM489 756v-187l-489 -71v188l66 8q-39 51 -39 123q2 95 67 159t162 64q88 0 141.5 -55.5t59.5 -153.5l-117 -16q-25 39 -86 39q-84 0 -84 -53q0 -37 46 -57.5t112 -12.5z" />
    <glyph glyph-name="uniFEE7FE8A" unicode="&#xfee7;&#xfe8a;" horiz-adv-x="1781" 
d="M1642 1204q0 -68 -45 -114t-114 -46t-116.5 46.5t-47.5 113.5q0 69 47.5 116.5t116.5 47.5t114 -47t45 -117zM508 756v-187l-490 -71v188l66 8q-39 51 -39 123q0 94 65.5 158.5t163.5 64.5q88 0 141.5 -55.5t59.5 -153.5l-117 -16q-25 39 -86 39q-84 0 -84 -53
q0 -37 45.5 -57t112.5 -13zM1589 -90q0 -121 -102 -219t-284 -154.5t-408 -56.5q-752 0 -752 624q0 162 33 314h327q-24 -132 -24 -230q0 -305 465 -305q215 0 339 28t124 79q0 34 -48.5 55t-150.5 21h-229v389h346q77 0 112 30.5t35 102.5q0 131 -37 346h336
q35 -216 35 -410q0 -159 -66.5 -261t-189.5 -134q73 -43 106 -95t33 -124z" />
    <glyph glyph-name="uniFEEBFE8A" unicode="&#xfeeb;&#xfe8a;" horiz-adv-x="2637" 
d="M1585 -119q0 -110 -99.5 -201.5t-283.5 -145.5t-416 -54q-375 0 -560 163t-183 490q0 137 37 285h326q-21 -168 -21 -213q0 -322 434 -322q234 0 359 22.5t125 61.5q0 68 -181 68h-59v352l274 2h49q-40 87 -40 195q0 115 55.5 208.5t150.5 143.5v260l379 -100
q252 -66 396 -147t207 -190.5t63 -271.5q0 -240 -142 -377t-393 -137q-239 0 -438 133q-69 -19 -166 -36q127 -64 127 -189zM494 756v-187l-488 -71v188l66 8q-41 53 -41 123q2 95 67 159t162 64q88 0 141.5 -55.5t59.5 -153.5l-117 -16q-22 39 -84 39q-84 0 -84 -53
q0 -37 45 -57t111 -13zM1599 584q0 -51 33.5 -92.5t96.5 -67.5q94 23 133 61.5t39 92.5q0 61 -45 101t-111 40t-106 -38.5t-40 -96.5zM2132 584q0 -121 -78 -222q27 -2 92 -2q102 0 149.5 26t47.5 85q0 56 -50.5 96.5t-162.5 77.5q2 -18 2 -61z" />
    <glyph glyph-name="uniFEF3FE8A" unicode="&#xfef3;&#xfe8a;" horiz-adv-x="1781" 
d="M508 756v-187l-490 -71v188l66 8q-39 51 -39 123q0 94 65.5 158.5t163.5 64.5q88 0 141.5 -55.5t59.5 -153.5l-117 -16q-25 39 -86 39q-84 0 -84 -53q0 -37 45.5 -57t112.5 -13zM1589 -90q0 -121 -102 -219t-284 -154.5t-408 -56.5q-752 0 -752 624q0 162 33 314h327
q-24 -132 -24 -230q0 -305 465 -305q215 0 339 28t124 79q0 34 -48.5 55t-150.5 21h-229v389h346q77 0 112 30.5t35 102.5q0 131 -37 346h336q35 -216 35 -410q0 -159 -66.5 -261t-189.5 -134q73 -43 106 -95t33 -124zM1823 -678q0 -68 -46.5 -114t-113.5 -46
q-69 0 -116.5 46.5t-47.5 113.5q0 69 47.5 116.5t116.5 47.5q67 0 113.5 -47.5t46.5 -116.5zM1454 -678q0 -68 -46.5 -114t-115.5 -46t-116.5 46.5t-47.5 113.5q0 69 47.5 116.5t116.5 47.5t115.5 -47.5t46.5 -116.5z" />
    <glyph glyph-name="uniFB58FE8A" unicode="&#xfb58;&#xfe8a;" horiz-adv-x="1781" 
d="M508 756v-187l-490 -71v188l66 8q-39 51 -39 123q0 94 65.5 158.5t163.5 64.5q88 0 141.5 -55.5t59.5 -153.5l-117 -16q-25 39 -86 39q-84 0 -84 -53q0 -37 45.5 -57t112.5 -13zM1589 -90q0 -121 -102 -219t-284 -154.5t-408 -56.5q-752 0 -752 624q0 162 33 314h327
q-24 -132 -24 -230q0 -305 465 -305q215 0 339 28t124 79q0 34 -48.5 55t-150.5 21h-229v389h346q77 0 112 30.5t35 102.5q0 131 -37 346h336q35 -216 35 -410q0 -159 -66.5 -261t-189.5 -134q73 -43 106 -95t33 -124zM1765 -637q0 -57 -38 -96t-95 -39t-95 39t-38 96t38 95
t95 38t95 -38t38 -95zM1452 -637q0 -57 -38 -96t-95 -39t-95 39t-38 96t38 95t95 38t95 -38t38 -95zM1610 -915q0 -57 -39 -96.5t-96 -39.5t-95.5 39.5t-38.5 96.5t38.5 95t95.5 38t96 -38t39 -95z" />
    <glyph glyph-name="uniFB7CFE8A" unicode="&#xfb7c;&#xfe8a;" horiz-adv-x="2377" 
d="M1585 -23q0 -219 -217 -358t-577 -139q-748 0 -748 624q0 120 33 314h327q-24 -126 -24 -228q0 -154 109.5 -230.5t334.5 -76.5q229 0 354.5 29.5t125.5 85.5q0 31 -40 53.5t-133 22.5h-104v313l461 143q234 69 248 72q-18 2 -64 14l-168 43q-100 25 -149 25
q-41 0 -69 -22t-34 -60h-286q2 220 105.5 345.5t283.5 125.5q85 0 262 -53l350 -100q97 -33 168 -46q72 -10 160 -10h45l-2 -352h-27q-96 0 -235 -47q-131 -44 -389 -156l-244 -102q71 -33 107 -97t36 -133zM494 756v-187l-490 -71v188l66 8q-39 51 -39 123q0 94 65.5 158.5
t163.5 64.5q88 0 141.5 -55.5t59.5 -153.5l-117 -16q-25 39 -86 39q-84 0 -84 -53q0 -37 45.5 -57t112.5 -13zM2193 -135q0 -57 -39 -96t-96 -39t-95 39t-38 96t38 95t95 38t96 -38t39 -95zM1880 -135q0 -57 -39 -96t-96 -39t-95 39t-38 96t38 95t95 38t96 -38t39 -95z
M2036 -414q0 -57 -38 -96t-95 -39t-95.5 39t-38.5 96t38.5 95t95.5 38t95 -38t38 -95z" />
    <glyph glyph-name="uniFB6CFE8A" unicode="&#xfb6c;&#xfe8a;" horiz-adv-x="1736" 
d="M1305 1882q0 -57 -38.5 -95t-95.5 -38t-95 38t-38 95t38 96t95 39t95.5 -39t38.5 -96zM1149 1604q0 -57 -38 -95.5t-95 -38.5t-96 38.5t-39 95.5t39 96t96 39t95 -39t38 -96zM1462 1604q0 -57 -38 -95.5t-95 -38.5t-96 38.5t-39 95.5t39 96t96 39t95 -39t38 -96z
M1544 -94q0 -119 -96 -216.5t-268 -153.5t-385 -56q-380 0 -567 162.5t-185 490.5q0 137 37 285h326q-21 -168 -21 -213q0 -322 459 -322q193 0 305.5 27t112.5 76q0 63 -199 63h-229v365l346 -2q143 0 200.5 34.5t67.5 131.5q-115 -48 -334 -48q-189 0 -297 91.5
t-108 246.5q0 128 63.5 241.5t170.5 182t228 68.5q104 0 196.5 -53t160.5 -146t107.5 -227t39.5 -289q0 -235 -66.5 -358t-222.5 -164q158 -58 158 -217zM494 756v-187l-488 -71v188l64 8q-39 51 -39 123q2 95 67 159t162 64q88 0 141.5 -55.5t59.5 -153.5l-117 -16
q-25 39 -86 39q-84 0 -84 -53q0 -37 46 -57.5t112 -12.5zM948 877q0 -86 182 -86q172 0 281 20q-43 80 -124 125t-171 45q-80 0 -124 -31t-44 -73z" />
    <glyph glyph-name="uniFB94FE8A" unicode="&#xfb94;&#xfe8a;" horiz-adv-x="1658" 
d="M1677 1948l-2 -244l-960 -504v244zM1585 -68q0 -128 -102 -231.5t-283 -162t-405 -58.5q-380 0 -565 162.5t-187 490.5q0 137 37 285h326q-21 -168 -21 -213q0 -322 459 -322q212 0 335.5 29t123.5 80q0 34 -48.5 54t-144.5 20h-236v372h320q96 0 96 58q0 31 -33 57
t-122 57l-420 125v330l962 504l-2 -361l-530 -272l78 -27q354 -104 354 -407q0 -223 -168 -328q176 -71 176 -242zM494 756v-187l-488 -71v188l66 8q-41 53 -41 123q2 95 67 159t162 64q88 0 141.5 -55.5t59.5 -153.5l-117 -16q-22 39 -84 39q-84 0 -84 -53q0 -37 45 -57
t111 -13z" />
    <glyph glyph-name="uniFE8BFE8A" unicode="&#xfe8b;&#xfe8a;" horiz-adv-x="1781" 
d="M1733 1272v-189l-490 -69v186l68 8q-41 53 -41 125q2 95 67 159t162 64q88 0 141.5 -55.5t59.5 -154.5l-117 -15q-27 39 -86 39q-84 0 -84 -53q0 -37 46.5 -58.5t111.5 -11.5zM1589 -90q0 -121 -102 -219t-284 -154.5t-408 -56.5q-752 0 -752 624q0 162 33 314h327
q-24 -132 -24 -230q0 -305 465 -305q215 0 339 28t124 79q0 34 -48.5 55t-150.5 21h-229v389h346q77 0 112 30.5t35 102.5q0 131 -37 346h336q35 -216 35 -410q0 -159 -66.5 -261t-189.5 -134q73 -43 106 -95t33 -124zM1143 -795q0 -68 -46.5 -113.5t-115.5 -45.5
t-115.5 45.5t-46.5 113.5q0 69 46.5 116.5t115.5 47.5t115.5 -47.5t46.5 -116.5zM772 -795q0 -68 -45.5 -113.5t-114.5 -45.5t-116 46t-47 113q0 69 47 116.5t116 47.5t114.5 -47.5t45.5 -116.5z" />
    <glyph glyph-name="uniFE91FBFD" unicode="&#xfe91;&#xfbfd;" horiz-adv-x="1781" 
d="M1589 -90q0 -121 -102 -219t-284 -154.5t-408 -56.5q-752 0 -752 624q0 162 33 314h327q-24 -132 -24 -230q0 -305 465 -305q215 0 339 28t124 79q0 34 -48.5 55t-150.5 21h-229v389h346q77 0 112 30.5t35 102.5q0 131 -37 346h336q35 -216 35 -410q0 -159 -66.5 -261
t-189.5 -134q73 -43 106 -95t33 -124zM1630 -678q0 -68 -46 -114t-114 -46q-69 0 -116 46t-47 114q0 69 47 116.5t116 47.5q67 0 113.5 -47.5t46.5 -116.5z" />
    <glyph glyph-name="uniFE97FBFD" unicode="&#xfe97;&#xfbfd;" horiz-adv-x="1781" 
d="M1837 1204q0 -68 -46.5 -114t-113.5 -46q-69 0 -116.5 46.5t-47.5 113.5q0 69 47.5 116.5t116.5 47.5q67 0 113.5 -47.5t46.5 -116.5zM1468 1204q0 -68 -46 -114t-115 -46t-115.5 46t-46.5 114q0 69 46.5 116.5t115.5 47.5t115 -47.5t46 -116.5zM1589 -90
q0 -121 -102 -219t-284 -154.5t-408 -56.5q-752 0 -752 624q0 162 33 314h327q-24 -132 -24 -230q0 -305 465 -305q215 0 339 28t124 79q0 34 -48.5 55t-150.5 21h-229v389h346q77 0 112 30.5t35 102.5q0 131 -37 346h336q35 -216 35 -410q0 -159 -66.5 -261t-189.5 -134
q73 -43 106 -95t33 -124z" />
    <glyph glyph-name="uniFE9BFBFD" unicode="&#xfe9b;&#xfbfd;" horiz-adv-x="1781" 
d="M1624 1456q0 -57 -38 -95t-95 -38t-96 38t-39 95t39 96t96 39t95 -39t38 -96zM1468 1178q0 -57 -38 -95.5t-95 -38.5t-96 38.5t-39 95.5t39 96t96 39t95 -39t38 -96zM1782 1178q0 -57 -38 -95.5t-95 -38.5t-96.5 38.5t-39.5 95.5t39.5 96t96.5 39t95 -39t38 -96z
M1589 -90q0 -121 -102 -219t-284 -154.5t-408 -56.5q-752 0 -752 624q0 162 33 314h327q-24 -132 -24 -230q0 -305 465 -305q215 0 339 28t124 79q0 34 -48.5 55t-150.5 21h-229v389h346q77 0 112 30.5t35 102.5q0 131 -37 346h336q35 -216 35 -410q0 -159 -66.5 -261
t-189.5 -134q73 -43 106 -95t33 -124z" />
    <glyph glyph-name="uniFE9FFBFD" unicode="&#xfe9f;&#xfbfd;" horiz-adv-x="2377" 
d="M1585 -23q0 -219 -217 -358t-577 -139q-748 0 -748 624q0 120 33 314h327q-24 -126 -24 -228q0 -154 109.5 -230.5t334.5 -76.5q229 0 354.5 29.5t125.5 85.5q0 31 -40 53.5t-133 22.5h-104v313l461 143q234 69 248 72q-18 2 -64 14l-168 43q-100 25 -149 25
q-41 0 -69 -22t-34 -60h-286q2 220 105.5 345.5t283.5 125.5q85 0 262 -53l350 -100q97 -33 168 -46q72 -10 160 -10h45l-2 -352h-27q-96 0 -235 -47q-131 -44 -389 -156l-244 -102q71 -33 107 -97t36 -133zM2056 -176q0 -68 -45.5 -114t-114.5 -46t-116 46t-47 114
q0 69 47 116.5t116 47.5t114.5 -47.5t45.5 -116.5z" />
    <glyph glyph-name="uniFEA3FBFD" unicode="&#xfea3;&#xfbfd;" horiz-adv-x="2336" 
d="M1544 -23q0 -220 -205.5 -358.5t-547.5 -138.5q-748 0 -748 624q0 120 33 314h327q-24 -126 -24 -228q0 -154 109.5 -230.5t334.5 -76.5q207 0 323 29.5t116 85.5q0 32 -39.5 54t-132.5 22h-105v313l461 143q234 69 248 72q-18 2 -64 14l-168 43q-100 25 -149 25
q-41 0 -69 -22t-34 -60h-286q2 220 105.5 345.5t283.5 125.5q85 0 262 -53l350 -100q97 -33 168 -46q72 -10 160 -10h45l-2 -352h-27q-96 0 -235 -47q-131 -44 -389 -156l-244 -102q71 -33 107 -97t36 -133z" />
    <glyph glyph-name="uniFEA7FBFD" unicode="&#xfea7;&#xfbfd;" horiz-adv-x="2377" 
d="M1593 1311q0 -68 -45 -114t-114 -46t-116.5 46.5t-47.5 113.5q0 69 47.5 116.5t116.5 47.5t114 -47t45 -117zM1585 -23q0 -219 -217 -358t-577 -139q-748 0 -748 624q0 120 33 314h327q-24 -126 -24 -228q0 -154 109.5 -230.5t334.5 -76.5q229 0 354.5 29.5t125.5 85.5
q0 31 -40 53.5t-133 22.5h-104v313l461 143q234 69 248 72q-18 2 -64 14l-168 43q-100 25 -149 25q-41 0 -69 -22t-34 -60h-286q2 220 105.5 345.5t283.5 125.5q85 0 262 -53l350 -100q97 -33 168 -46q72 -10 160 -10h45l-2 -352h-27q-96 0 -235 -47q-131 -44 -389 -156
l-244 -102q71 -33 107 -97t36 -133z" />
    <glyph glyph-name="uniFEB3FBFD" unicode="&#xfeb3;&#xfbfd;" horiz-adv-x="3063" 
d="M1520 37q0 -165 -96 -292.5t-265.5 -196t-384.5 -68.5q-731 0 -731 653q0 124 29 285h327q-22 -126 -22 -213q0 -159 110 -240.5t320 -81.5q195 0 298 23.5t103 66.5q0 47 -168 70l-170 29q-152 23 -221 95.5t-69 201.5q0 138 96.5 274t247 221.5t299.5 85.5
q81 0 143 -13t124.5 -46.5t119.5 -96t112 -157.5l74 -125q39 -74 84 -105.5t117 -31.5q82 0 121 48t39 161v63h335v-98q0 -85 27 -129.5t70 -44.5q90 0 90 129q0 111 -39 287h346q27 -163 27 -299q0 -249 -116.5 -384t-318.5 -135q-125 0 -219 62t-118 170
q-19 -112 -98 -172t-204 -60q-146 0 -243 71.5t-187 234.5l-61 110q-54 99 -134.5 139.5t-191.5 40.5q-106 0 -183 -31t-77 -75q0 -25 20 -39t74 -21l181 -32q218 -35 299 -113q84 -81 84 -221z" />
    <glyph glyph-name="uniFEB7FBFD" unicode="&#xfeb7;&#xfbfd;" horiz-adv-x="3168" 
d="M2497 1178q0 -57 -38.5 -95.5t-95.5 -38.5t-96 38.5t-39 95.5t39 96t96 39t95.5 -39t38.5 -96zM1597 53q0 -133 -62 -242t-170 -181t-254.5 -111t-315.5 -39q-379 0 -565.5 162.5t-186.5 490.5q0 124 29 285h327q-22 -126 -22 -213q0 -165 117.5 -243.5t363.5 -78.5
q191 0 316.5 29t125.5 74q0 31 -46.5 50t-163.5 36l-203 26q-169 23 -249.5 106t-80.5 230q0 113 61.5 223.5t159.5 192.5t226.5 133t255.5 51q197 0 325 -90q125 -88 244 -303l67 -125q44 -84 85.5 -112.5t119.5 -28.5q82 0 121 48t39 161v63h336v-98q0 -85 26.5 -129.5
t69.5 -44.5q88 0 88 129q0 120 -37 287h346q27 -163 27 -299q0 -249 -116.5 -384t-317.5 -135q-125 0 -219.5 62t-118.5 170q-19 -112 -97.5 -172t-203.5 -60q-147 0 -244 66q-98 67 -186 244l-58 110q-70 140 -161 197q-88 55 -250 55q-120 0 -211 -31q-90 -27 -90 -79
q0 -31 28.5 -46.5t106.5 -25.5l209 -31q225 -30 317 -117.5t92 -261.5zM2339 899q0 -57 -38 -95t-95 -38t-95 38t-38 95t38 96t95 39t95 -39t38 -96zM2652 899q0 -57 -38 -95t-95 -38t-95 38t-38 95t38 96t95 39t95 -39t38 -96z" />
    <glyph glyph-name="uniFEBBFBFD" unicode="&#xfebb;&#xfbfd;" horiz-adv-x="3131" 
d="M1520 37q0 -165 -96 -292.5t-265.5 -196t-384.5 -68.5q-731 0 -731 653q0 124 29 285h327q-22 -126 -22 -213q0 -159 110 -240.5t320 -81.5q195 0 298 23.5t103 66.5q0 47 -168 70l-170 29q-152 23 -221 95.5t-69 201.5q0 138 96.5 274t247 221.5t299.5 85.5
q153 0 264 -63q114 -61 237 -246l86 -129q24 -30 27 -33q310 561 746 561q221 0 363 -146.5t142 -363.5q0 -258 -213 -394t-620 -136q-224 0 -356.5 25.5t-217 83.5t-157.5 170l-74 114q-64 96 -141.5 136t-184.5 40q-109 0 -185.5 -31t-76.5 -75q0 -25 20 -39t74 -21
l181 -32q218 -35 299 -113q84 -81 84 -221zM2572 653q-282 0 -526 -256q85 -10 283 -10q269 0 387 31t118 100q0 53 -74 94t-188 41z" />
    <glyph glyph-name="uniFEBFFBFD" unicode="&#xfebf;&#xfbfd;" horiz-adv-x="3201" 
d="M2781 1311q0 -67 -46.5 -113.5t-113.5 -46.5q-69 0 -116 46t-47 114q0 69 47 116.5t116 47.5q67 0 113.5 -47.5t46.5 -116.5zM1597 53q0 -133 -62 -242t-170 -181t-254.5 -111t-315.5 -39q-379 0 -565.5 162.5t-186.5 490.5q0 124 29 285h327q-22 -126 -22 -213
q0 -165 117.5 -243.5t363.5 -78.5q191 0 316.5 29t125.5 74q0 31 -46.5 50t-163.5 36l-203 26q-169 23 -249.5 106t-80.5 230q0 113 61.5 223.5t159.5 192.5t226.5 133t255.5 51q99 0 172 -20.5t137 -72.5t115 -119t120 -181l76 -125q13 -23 27 -37q310 561 745 561
q221 0 363.5 -146.5t142.5 -363.5q0 -269 -214 -413t-620 -144q-217 0 -344 27t-210.5 92t-155.5 191l-66 110q-55 96 -103.5 147t-120.5 78t-179 27q-120 0 -211 -31q-90 -27 -90 -79q0 -31 28.5 -46.5t106.5 -25.5l209 -31q225 -30 317 -117.5t92 -261.5zM2642 653
q-293 0 -539 -268q115 -16 295 -16q270 0 388 34.5t118 114.5q0 53 -74 94t-188 41z" />
    <glyph glyph-name="uniFECBFBFD" unicode="&#xfecb;&#xfbfd;" horiz-adv-x="2244" 
d="M1589 -94q0 -115 -99 -210.5t-283 -152.5t-416 -57q-748 0 -748 655q0 137 37 285h326q-21 -168 -21 -213q0 -324 436 -324q232 0 358 23.5t126 62.5q0 30 -41 49t-134 19h-63v363l227 14q-116 95 -116 266q0 197 134 329t347 132q214 0 348 -125q134 -122 137 -383h-297
q-13 56 -71.5 88.5t-135.5 32.5q-94 0 -148 -36t-54 -99q0 -156 334 -156q131 0 260 14l163 19v-367l-675 -67q69 -55 69 -162z" />
    <glyph glyph-name="uniFECFFBFD" unicode="&#xfecf;&#xfbfd;" horiz-adv-x="2260" 
d="M1837 1343q0 -69 -46.5 -115t-115.5 -46t-116.5 46t-47.5 115t47.5 116.5t116.5 47.5t115.5 -47.5t46.5 -116.5zM1589 -94q0 -115 -99 -210.5t-283 -152.5t-416 -57q-748 0 -748 655q0 137 37 285h326q-21 -168 -21 -213q0 -324 436 -324q232 0 358 23.5t126 62.5
q0 30 -41 49t-134 19h-63v363l227 14q-116 95 -116 266q0 197 134 329t347 132q214 0 348 -125q134 -122 137 -383h-297q-13 56 -71.5 88.5t-135.5 32.5q-94 0 -148 -36t-54 -99q0 -156 334 -156q131 0 260 14l163 19v-367l-675 -67q69 -55 69 -162z" />
    <glyph glyph-name="uniFED3FBFD" unicode="&#xfed3;&#xfbfd;" horiz-adv-x="1736" 
d="M1327 1630q0 -68 -46.5 -114t-115.5 -46t-116.5 46.5t-47.5 113.5q0 69 47.5 116.5t116.5 47.5t115.5 -47.5t46.5 -116.5zM1546 -94q0 -119 -96 -216.5t-268 -153.5t-385 -56q-380 0 -567 162.5t-185 490.5q0 137 37 285h326q-21 -168 -21 -213q0 -322 459 -322
q193 0 305.5 27t112.5 76q0 63 -199 63h-229v365l346 -2q143 0 200.5 34.5t67.5 131.5q-115 -48 -334 -48q-189 0 -297 91.5t-108 246.5q0 128 64 242t171 182t228 68q212 0 357.5 -201.5t145.5 -513.5q0 -235 -66 -358t-222 -164q157 -58 157 -217zM950 877q0 -86 183 -86
q171 0 280 20q-43 80 -124 125t-171 45q-80 0 -124 -31t-44 -73z" />
    <glyph glyph-name="uniFED7FBFD" unicode="&#xfed7;&#xfbfd;" horiz-adv-x="1736" 
d="M1520 1630q0 -68 -45.5 -114t-114.5 -46t-116.5 46.5t-47.5 113.5q0 69 47.5 116.5t116.5 47.5t114.5 -47.5t45.5 -116.5zM1151 1630q0 -68 -46.5 -114t-113.5 -46q-69 0 -116.5 46.5t-47.5 113.5q0 69 47.5 116.5t116.5 47.5q67 0 113.5 -47.5t46.5 -116.5zM1546 -94
q0 -119 -96 -216.5t-268 -153.5t-385 -56q-380 0 -567 162.5t-185 490.5q0 137 37 285h326q-21 -168 -21 -213q0 -322 459 -322q193 0 305.5 27t112.5 76q0 63 -199 63h-229v365l346 -2q143 0 200.5 34.5t67.5 131.5q-115 -48 -334 -48q-189 0 -297 91.5t-108 246.5
q0 128 64 242t171 182t228 68q212 0 357.5 -201.5t145.5 -513.5q0 -235 -66 -358t-222 -164q157 -58 157 -217zM950 877q0 -86 183 -86q171 0 280 20q-43 80 -124 125t-171 45q-80 0 -124 -31t-44 -73z" />
    <glyph glyph-name="uniFEDFFBFD" unicode="&#xfedf;&#xfbfd;" horiz-adv-x="1654" 
d="M1546 -68q0 -131 -96.5 -234.5t-267 -160.5t-385.5 -57q-380 0 -567 162.5t-185 490.5q0 137 37 285h326q-21 -168 -21 -213q0 -322 459 -322q193 0 305.5 28.5t112.5 78.5q0 33 -50 54.5t-149 21.5h-229v389h168q100 0 139 33.5t39 121.5v926h360v-926q0 -179 -37 -283
t-121 -155q162 -64 162 -240z" />
    <glyph glyph-name="uniFEE7FBFD" unicode="&#xfee7;&#xfbfd;" horiz-adv-x="1781" 
d="M1642 1204q0 -68 -45 -114t-114 -46t-116.5 46.5t-47.5 113.5q0 69 47.5 116.5t116.5 47.5t114 -47t45 -117zM1589 -90q0 -121 -102 -219t-284 -154.5t-408 -56.5q-752 0 -752 624q0 162 33 314h327q-24 -132 -24 -230q0 -305 465 -305q215 0 339 28t124 79
q0 34 -48.5 55t-150.5 21h-229v389h346q77 0 112 30.5t35 102.5q0 131 -37 346h336q35 -216 35 -410q0 -159 -66.5 -261t-189.5 -134q73 -43 106 -95t33 -124z" />
    <glyph glyph-name="uniFEEBFBFD" unicode="&#xfeeb;&#xfbfd;" horiz-adv-x="2637" 
d="M1587 -119q0 -110 -99.5 -201.5t-283.5 -145.5t-416 -54q-375 0 -560 163t-183 490q0 137 37 285h326q-21 -168 -21 -213q0 -322 434 -322q234 0 359 22.5t125 61.5q0 68 -181 68h-59v352l274 2h50q-41 90 -41 195q0 115 55.5 208.5t150.5 143.5v260l379 -100
q252 -66 396 -147t207 -190.5t63 -271.5q0 -240 -142 -377t-393 -137q-238 0 -438 133q-69 -19 -166 -36q127 -64 127 -189zM1602 584q0 -106 129 -160q94 23 133 61.5t39 92.5q0 61 -45 101t-111 40t-105.5 -38.5t-39.5 -96.5zM2134 584q0 -121 -78 -222q27 -2 92 -2
q102 0 149.5 26t47.5 85q0 56 -50.5 96.5t-162.5 77.5q2 -18 2 -61z" />
    <glyph glyph-name="uniFEF3FBFD" unicode="&#xfef3;&#xfbfd;" horiz-adv-x="1781" 
d="M1589 -90q0 -121 -102 -219t-284 -154.5t-408 -56.5q-752 0 -752 624q0 162 33 314h327q-24 -132 -24 -230q0 -305 465 -305q215 0 339 28t124 79q0 34 -48.5 55t-150.5 21h-229v389h346q77 0 112 30.5t35 102.5q0 131 -37 346h336q35 -216 35 -410q0 -159 -66.5 -261
t-189.5 -134q73 -43 106 -95t33 -124zM1823 -678q0 -68 -46.5 -114t-113.5 -46q-69 0 -116.5 46.5t-47.5 113.5q0 69 47.5 116.5t116.5 47.5q67 0 113.5 -47.5t46.5 -116.5zM1454 -678q0 -68 -46.5 -114t-115.5 -46t-116.5 46.5t-47.5 113.5q0 69 47.5 116.5t116.5 47.5
t115.5 -47.5t46.5 -116.5z" />
    <glyph glyph-name="uniFB58FBFD" unicode="&#xfb58;&#xfbfd;" horiz-adv-x="1781" 
d="M1589 -90q0 -121 -102 -219t-284 -154.5t-408 -56.5q-752 0 -752 624q0 162 33 314h327q-24 -132 -24 -230q0 -305 465 -305q215 0 339 28t124 79q0 34 -48.5 55t-150.5 21h-229v389h346q77 0 112 30.5t35 102.5q0 131 -37 346h336q35 -216 35 -410q0 -159 -66.5 -261
t-189.5 -134q73 -43 106 -95t33 -124zM1765 -637q0 -57 -38 -96t-95 -39t-95 39t-38 96t38 95t95 38t95 -38t38 -95zM1452 -637q0 -57 -38 -96t-95 -39t-95 39t-38 96t38 95t95 38t95 -38t38 -95zM1610 -915q0 -57 -39 -96.5t-96 -39.5t-95.5 39.5t-38.5 96.5t38.5 95
t95.5 38t96 -38t39 -95z" />
    <glyph glyph-name="uniFB90FBFD" unicode="&#xfb90;&#xfbfd;" horiz-adv-x="1617" 
d="M1544 -68q0 -128 -96 -231.5t-267.5 -162t-385.5 -58.5q-380 0 -565 162.5t-187 490.5q0 137 37 285h326q-21 -168 -21 -213q0 -322 459 -322q192 0 305 29t113 80q0 34 -48.5 54t-144.5 20h-235v372h319q96 0 96 58q0 31 -33 57t-122 57l-420 125v330l962 504l-2 -361
l-530 -272l78 -27q354 -104 354 -407q0 -223 -168 -328q176 -71 176 -242z" />
    <glyph glyph-name="uniFB94FBFD" unicode="&#xfb94;&#xfbfd;" horiz-adv-x="1658" 
d="M1677 1948l-2 -244l-960 -504v244zM1585 -68q0 -128 -102 -231.5t-283 -162t-405 -58.5q-380 0 -565 162.5t-187 490.5q0 137 37 285h326q-21 -168 -21 -213q0 -322 459 -322q212 0 335.5 29t123.5 80q0 34 -48.5 54t-144.5 20h-236v372h320q96 0 96 58q0 31 -33 57
t-122 57l-420 125v330l962 504l-2 -361l-530 -272l78 -27q354 -104 354 -407q0 -223 -168 -328q176 -71 176 -242z" />
    <glyph glyph-name="uniFE8BFBFD" unicode="&#xfe8b;&#xfbfd;" horiz-adv-x="1781" 
d="M1733 1272v-189l-490 -69v186l68 8q-41 53 -41 125q2 95 67 159t162 64q88 0 141.5 -55.5t59.5 -154.5l-117 -15q-27 39 -86 39q-84 0 -84 -53q0 -37 46.5 -58.5t111.5 -11.5zM1589 -90q0 -121 -102 -219t-284 -154.5t-408 -56.5q-752 0 -752 624q0 162 33 314h327
q-24 -132 -24 -230q0 -305 465 -305q215 0 339 28t124 79q0 34 -48.5 55t-150.5 21h-229v389h346q77 0 112 30.5t35 102.5q0 131 -37 346h336q35 -216 35 -410q0 -159 -66.5 -261t-189.5 -134q73 -43 106 -95t33 -124z" />
    <glyph glyph-name="uniFEB3FEB0" unicode="&#xfeb3;&#xfeb0;" horiz-adv-x="2287" 
d="M479 1049q0 -69 -46 -114.5t-114 -45.5q-69 0 -116 45.5t-47 114.5t47 116t116 47q68 0 114 -47t46 -116zM612 231q0 -377 -135 -557t-422 -180q-76 0 -186 10v394q107 -15 176 -15q130 0 186 77.5t56 256.5q0 60 -21 266l-28 236l907 72l26 -246q11 -96 34 -133t77 -37
q100 0 100 174v98h334v-98q0 -85 26.5 -129.5t69.5 -44.5q91 0 91 129q0 113 -54 287h344q43 -151 43 -299q0 -249 -116 -384t-316 -135q-124 0 -219 62t-121 166q-13 -110 -79.5 -169t-176.5 -59q-157 0 -235 93q-76 91 -117 313l-248 -19q4 -86 4 -129z" />
    <glyph glyph-name="uniFEB7FEB0" unicode="&#xfeb7;&#xfeb0;" horiz-adv-x="2287" 
d="M1638 1169q0 -57 -38 -95t-95 -38t-96 38t-39 95t39 96.5t96 39.5t95 -39.5t38 -96.5zM479 1049q0 -69 -46 -114.5t-114 -45.5q-69 0 -116 45.5t-47 114.5t47 116t116 47q68 0 114 -47t46 -116zM1481 891q0 -57 -38 -95t-95 -38t-96.5 38t-39.5 95t39.5 96t96.5 39
t95 -39t38 -96zM1794 891q0 -57 -38 -95t-95 -38t-96 38t-39 95t39 96t96 39t95 -39t38 -96zM612 231q0 -377 -135 -557t-422 -180q-76 0 -186 10v394q107 -15 176 -15q130 0 186 77.5t56 256.5q0 60 -21 266l-28 236l907 72l26 -246q11 -96 34 -133t77 -37q100 0 100 174
v98h334v-98q0 -85 26.5 -129.5t69.5 -44.5q91 0 91 129q0 113 -54 287h344q43 -151 43 -299q0 -249 -116 -384t-316 -135q-124 0 -219 62t-121 166q-13 -110 -79.5 -169t-176.5 -59q-157 0 -235 93q-76 91 -117 313l-248 -19q4 -86 4 -129z" />
    <glyph glyph-name="uniFEBBFEB0" unicode="&#xfebb;&#xfeb0;" horiz-adv-x="2531" 
d="M485 1120q0 -69 -46 -114t-115 -45q-70 0 -117 45t-47 114t47.5 116.5t116.5 47.5t115 -47.5t46 -116.5zM612 231q0 -377 -135 -557t-422 -180q-76 0 -186 10v394q107 -15 176 -15q130 0 186 77.5t56 256.5q0 60 -21 266l-37 308l908 71l34 -317q3 -44 13 -88
q171 292 368.5 437.5t429.5 145.5q221 0 363.5 -146.5t142.5 -363.5q0 -557 -987 -557q-134 0 -229 14t-169 46t-122.5 88.5t-80.5 136.5t-52 195l-244 -21q1 -23 4.5 -92.5t3.5 -108.5zM1974 653q-313 0 -604 -291q41 -2 148 -2q280 0 437.5 17.5t218 50.5t60.5 90
q0 53 -73.5 94t-186.5 41z" />
    <glyph glyph-name="uniFEBFFEB0" unicode="&#xfebf;&#xfeb0;" horiz-adv-x="2531" 
d="M2105 1311q0 -68 -46 -114t-113 -46q-69 0 -116.5 46.5t-47.5 113.5q0 69 47.5 116.5t116.5 47.5q67 0 113 -47.5t46 -116.5zM485 1120q0 -69 -46 -114t-115 -45q-70 0 -117 45t-47 114t47.5 116.5t116.5 47.5t115 -47.5t46 -116.5zM612 231q0 -377 -135 -557t-422 -180
q-76 0 -186 10v394q107 -15 176 -15q130 0 186 77.5t56 256.5q0 60 -21 266l-37 308l908 71l34 -317q3 -44 13 -88q171 292 368.5 437.5t429.5 145.5q221 0 363.5 -146.5t142.5 -363.5q0 -557 -987 -557q-134 0 -229 14t-169 46t-122.5 88.5t-80.5 136.5t-52 195l-244 -21
q1 -23 4.5 -92.5t3.5 -108.5zM1974 653q-313 0 -604 -291q41 -2 148 -2q280 0 437.5 17.5t218 50.5t60.5 90q0 53 -73.5 94t-186.5 41z" />
    <glyph glyph-name="uniFB59FEF0" unicode="&#xfb59;&#xfef0;" horiz-adv-x="2101" 
d="M1597 53q0 -133 -62 -242t-170 -181t-254.5 -111t-315.5 -39q-379 0 -565.5 162.5t-186.5 490.5q0 124 29 285h327q-22 -126 -22 -213q0 -165 117.5 -243.5t363.5 -78.5q191 0 316.5 29t125.5 74q0 31 -46.5 50t-163.5 36l-203 26q-170 25 -250 107t-80 229
q0 113 61.5 223.5t159.5 192.5t226.5 133t255.5 51q197 0 325 -90q127 -89 244 -307l69 -125q38 -74 79.5 -99.5t123.5 -25.5v-313l-73 -74q-150 0 -236 51q-87 52 -176 228l-57 110q-72 141 -164 199q-86 57 -250 57q-120 0 -211 -31q-90 -27 -90 -79q0 -32 29.5 -48.5
t105.5 -23.5l209 -31q224 -29 316.5 -117t92.5 -262zM2042 -518q0 -57 -39 -95t-96 -38t-95 38t-38 95t38 95t95 38t96 -38t39 -95zM1729 -518q0 -57 -39.5 -95t-96.5 -38t-95 38t-38 95t38 95t95 38t96.5 -38t39.5 -95zM1884 -797q0 -57 -38 -95t-95 -38t-95 38t-38 95
t38 95t95 38t95 -38t38 -95z" />
    <glyph glyph-name="uniFB7DFEF0" unicode="&#xfb7d;&#xfef0;" horiz-adv-x="2390" 
d="M1585 -23q0 -219 -217 -358t-577 -139q-748 0 -748 624q0 120 33 314h327q-24 -126 -24 -228q0 -154 109.5 -230.5t334.5 -76.5q229 0 354.5 29.5t125.5 85.5q0 31 -40 53.5t-133 22.5h-104v313l461 143q234 69 248 72q-18 2 -64 14l-168 43q-100 25 -149 25
q-41 0 -69 -22t-34 -60h-286q2 220 105.5 345.5t283.5 125.5q85 0 262 -53l350 -100q97 -33 168 -46q72 -10 160 -10h45l-2 -352h-27q-64 0 -143 -20v-3q0 -58 47.5 -80t175.5 -22v-309l-72 -78q-188 0 -289.5 107t-109.5 301q-54 -22 -233 -99l-244 -102q71 -33 107 -97
t36 -133zM2193 -135q0 -57 -39 -96t-96 -39t-95 39t-38 96t38 95t95 38t96 -38t39 -95zM1880 -135q0 -57 -39 -96t-96 -39t-95 39t-38 96t38 95t95 38t96 -38t39 -95zM2036 -414q0 -57 -38 -96t-95 -39t-95.5 39t-38.5 96t38.5 95t95.5 38t95 -38t38 -95z" />
    <glyph glyph-name="uniFB95FEF0" unicode="&#xfb95;&#xfef0;" horiz-adv-x="2125" 
d="M2146 2046l-2 -244l-960 -506v244zM1585 -68q0 -128 -102 -231.5t-283 -162t-405 -58.5q-380 0 -565 162.5t-187 490.5q0 137 37 285h326q-21 -168 -21 -213q0 -322 459 -322q212 0 335.5 29t123.5 80q0 34 -48.5 54t-144.5 20h-205v389h404q102 0 102 61q0 19 -14 43
t-54 78l-159 211v313l962 506l-2 -360l-614 -324l297 -381q91 -121 155 -172q61 -43 144 -43v-313l-72 -74q-126 0 -209 57q-90 61 -207 224l-55 73q-13 -133 -115 -198q117 -79 117 -224z" />
    <glyph glyph-name="uniFEE0FB51" unicode="&#xfee0;&#xfb51;" horiz-adv-x="1368" 
d="M111 1313h-142q0 254 197 254q52 124 128 192t167 68q100 0 156.5 -63t56.5 -173q0 -243 -232 -243q-48 0 -134 16t-132 16q-65 0 -65 -67zM449 1640q-95 0 -148 -88q110 -18 137 -18q46 0 73.5 13.5t27.5 39.5q0 25 -24.5 39t-65.5 14zM430 4l-389 -37v379l250 25
l-127 891h393l96 -848q130 27 164 75q35 50 35 142v905h360v-981q0 -98 32.5 -133t123.5 -35v-313l-74 -74h-32q-171 0 -257 73.5t-110 229.5q-26 -142 -132.5 -210.5t-332.5 -88.5z" />
    <glyph glyph-name="uniFB59FEE6" unicode="&#xfb59;&#xfee6;" horiz-adv-x="2121" 
d="M868 891q0 -68 -46 -114t-113 -46q-69 0 -116.5 46.5t-47.5 113.5q0 69 47.5 116.5t116.5 47.5q67 0 113 -47.5t46 -116.5zM1389 293q0 -327 -181 -508q-178 -184 -493 -184q-658 0 -670 628q-3 154 31 334h327q-27 -136 -24 -223q0 -166 89 -251t261 -85q191 0 282 68.5
t91 210.5q0 44 -19 200l-36 308l868 71l35 -317q8 -91 44.5 -124.5t129.5 -33.5v-313l-74 -74q-200 0 -293 100q-92 99 -133 353l-244 -21q9 -77 9 -139zM2050 -233q0 -57 -39 -96.5t-96 -39.5t-95 39.5t-38 96.5t38 95t95 38t96 -38t39 -95zM1737 -233q0 -57 -39 -96.5
t-96 -39.5t-95.5 39.5t-38.5 96.5t38.5 95t95.5 38t96 -38t39 -95zM1894 -512q0 -57 -39 -96t-96 -39t-95 39t-38 96t38 95t95 38t96 -38t39 -95z" />
    <glyph glyph-name="uniFBFFFEE6" unicode="&#xfbff;&#xfee6;" horiz-adv-x="2121" 
d="M868 891q0 -68 -46 -114t-113 -46q-69 0 -116.5 46.5t-47.5 113.5q0 69 47.5 116.5t116.5 47.5q67 0 113 -47.5t46 -116.5zM1389 293q0 -327 -181 -508q-178 -184 -493 -184q-658 0 -670 628q-3 154 31 334h327q-27 -136 -24 -223q0 -166 89 -251t261 -85q191 0 282 68.5
t91 210.5q0 48 -19 200l-36 308l868 71l35 -317q8 -91 44.5 -124.5t129.5 -33.5v-313l-74 -74q-200 0 -293 100q-92 99 -133 353l-244 -21q9 -77 9 -139zM2050 -301q0 -56 -38 -94.5t-95 -38.5t-96 38.5t-39 94.5q0 57 39 96t96 39t95 -39t38 -96zM1737 -301
q0 -56 -38 -94.5t-95 -38.5t-96.5 38.5t-39.5 94.5q0 57 39.5 96t96.5 39t95 -39t38 -96z" />
    <glyph glyph-name="uniFB59FEAE" unicode="&#xfb59;&#xfeae;" horiz-adv-x="1345" 
d="M612 231q0 -377 -135 -557t-422 -180q-76 0 -186 10v394q107 -15 176 -15q130 0 186 77.5t56 256.5q0 60 -21 266l-37 308l908 71l34 -317q7 -91 45 -124.5t130 -33.5v-313l-72 -74q-202 0 -295 100q-92 99 -133 353l-242 -21q1 -23 4.5 -92.5t3.5 -108.5zM1294 -233
q0 -57 -39 -96.5t-96 -39.5t-95 39.5t-38 96.5t38 95t95 38t96 -38t39 -95zM981 -233q0 -57 -39 -96.5t-96 -39.5t-95 39.5t-38 96.5t38 95t95 38t96 -38t39 -95zM1137 -512q0 -57 -38 -96t-95 -39t-96.5 39t-39.5 96t39.5 95t96.5 38t95 -38t38 -95z" />
    <glyph glyph-name="uniFBFFFEAE" unicode="&#xfbff;&#xfeae;" horiz-adv-x="1345" 
d="M612 231q0 -377 -135 -557t-422 -180q-76 0 -186 10v394q107 -15 178 -15q129 0 184.5 77.5t55.5 256.5q0 60 -21 266l-37 308l908 71l34 -317q7 -91 45 -124.5t130 -33.5v-313l-72 -74q-202 0 -295 100q-92 99 -133 353l-242 -21q1 -23 4.5 -92.5t3.5 -108.5zM1294 -301
q0 -56 -38 -94.5t-95 -38.5t-96 38.5t-39 94.5q0 57 39 96t96 39t95 -39t38 -96zM981 -301q0 -56 -38 -94.5t-95 -38.5t-96 38.5t-39 94.5q0 57 39 96t96 39t95 -39t38 -96z" />
    <glyph glyph-name="uniFB59FEF2" unicode="&#xfb59;&#xfef2;" horiz-adv-x="2101" 
d="M1597 53q0 -133 -62 -242t-170 -181t-254.5 -111t-315.5 -39q-379 0 -565.5 162.5t-186.5 490.5q0 124 29 285h327q-22 -126 -22 -213q0 -165 117.5 -243.5t363.5 -78.5q191 0 316.5 29t125.5 74q0 31 -46.5 50t-163.5 36l-203 26q-170 25 -250 107t-80 229
q0 113 61.5 223.5t159.5 192.5t226.5 133t255.5 51q197 0 325 -90q127 -89 244 -307l69 -125q38 -74 79.5 -99.5t123.5 -25.5v-313l-73 -74q-150 0 -236 51q-87 52 -176 228l-57 110q-72 141 -164 199q-86 57 -250 57q-120 0 -211 -31q-90 -27 -90 -79q0 -32 29.5 -48.5
t105.5 -23.5l209 -31q224 -29 316.5 -117t92.5 -262zM2042 -518q0 -57 -39 -95t-96 -38t-95 38t-38 95t38 95t95 38t96 -38t39 -95zM1729 -518q0 -57 -39.5 -95t-96.5 -38t-95 38t-38 95t38 95t95 38t96.5 -38t39.5 -95zM1141 -795q0 -68 -45.5 -113.5t-114.5 -45.5
t-116.5 46t-47.5 113q0 69 47.5 116.5t116.5 47.5t114.5 -47.5t45.5 -116.5zM772 -795q0 -67 -46 -113t-114 -46q-69 0 -116 46t-47 113q0 69 47 116.5t116 47.5q67 0 113.5 -47.5t46.5 -116.5zM1884 -797q0 -57 -38 -95t-95 -38t-95 38t-38 95t38 95t95 38t95 -38t38 -95z
" />
    <glyph glyph-name="uniFB7DFEF2" unicode="&#xfb7d;&#xfef2;" horiz-adv-x="2390" 
d="M1585 -23q0 -219 -217 -358t-577 -139q-748 0 -748 624q0 120 33 314h327q-24 -126 -24 -228q0 -154 109.5 -230.5t334.5 -76.5q229 0 354.5 29.5t125.5 85.5q0 31 -40 53.5t-133 22.5h-104v313l461 143q234 69 248 72q-18 2 -64 14l-168 43q-100 25 -149 25
q-41 0 -69 -22t-34 -60h-286q2 220 105.5 345.5t283.5 125.5q85 0 262 -53l350 -100q97 -33 168 -46q72 -10 160 -10h45l-2 -352h-27q-64 0 -143 -20v-3q0 -58 47.5 -80t175.5 -22v-309l-72 -78q-188 0 -289.5 107t-109.5 301q-54 -22 -233 -99l-244 -102q71 -33 107 -97
t36 -133zM2193 -135q0 -57 -39 -96t-96 -39t-95 39t-38 96t38 95t95 38t96 -38t39 -95zM1880 -135q0 -57 -39 -96t-96 -39t-95 39t-38 96t38 95t95 38t96 -38t39 -95zM2036 -414q0 -57 -38 -96t-95 -39t-95.5 39t-38.5 96t38.5 95t95.5 38t95 -38t38 -95zM1143 -795
q0 -68 -46.5 -113.5t-115.5 -45.5t-115.5 45.5t-46.5 113.5q0 69 46.5 116.5t115.5 47.5t115.5 -47.5t46.5 -116.5zM772 -795q0 -68 -45.5 -113.5t-114.5 -45.5t-116 46t-47 113q0 69 47 116.5t116 47.5t114.5 -47.5t45.5 -116.5z" />
    <glyph glyph-name="uniFB95FEF2" unicode="&#xfb95;&#xfef2;" horiz-adv-x="2125" 
d="M2146 2046l-2 -244l-960 -506v244zM1585 -68q0 -128 -102 -231.5t-283 -162t-405 -58.5q-380 0 -565 162.5t-187 490.5q0 137 37 285h326q-21 -168 -21 -213q0 -322 459 -322q212 0 335.5 29t123.5 80q0 34 -48.5 54t-144.5 20h-205v389h404q102 0 102 61q0 19 -14 43
t-54 78l-159 211v313l962 506l-2 -360l-614 -324l297 -381q91 -121 155 -172q61 -43 144 -43v-313l-72 -74q-126 0 -209 57q-90 61 -207 224l-55 73q-13 -133 -115 -198q117 -79 117 -224zM1143 -778q0 -69 -45.5 -114.5t-114.5 -45.5t-116.5 45.5t-47.5 114.5t47.5 116.5
t116.5 47.5t114.5 -47.5t45.5 -116.5zM774 -778q0 -69 -46 -114.5t-114 -45.5q-69 0 -116 45.5t-47 114.5t47 116.5t116 47.5q67 0 113.5 -47.5t46.5 -116.5z" />
    <glyph glyph-name="uniFE92FE8A" unicode="&#xfe92;&#xfe8a;" horiz-adv-x="2101" 
d="M469 756v-187l-487 -71v188l63 8q-39 51 -39 123q2 94 67 158.5t163 64.5q88 0 141 -55.5t59 -153.5l-117 -16q-25 39 -86 39q-83 0 -83 -53q0 -37 45.5 -57t111.5 -13zM1597 53q0 -133 -62 -242t-170 -181t-254.5 -111t-315.5 -39q-379 0 -565.5 162.5t-186.5 490.5
q0 124 29 285h327q-22 -126 -22 -213q0 -165 117.5 -243.5t363.5 -78.5q191 0 316.5 29t125.5 74q0 31 -46.5 50t-163.5 36l-203 26q-170 25 -250 107t-80 229q0 113 61.5 223.5t159.5 192.5t226.5 133t255.5 51q197 0 325 -90q127 -89 244 -307l69 -125q38 -74 79.5 -99.5
t123.5 -25.5v-313l-73 -74q-150 0 -236 51q-87 52 -176 228l-57 110q-72 141 -164 199q-86 57 -250 57q-120 0 -211 -31q-90 -27 -90 -79q0 -32 29.5 -48.5t105.5 -23.5l209 -31q224 -29 316.5 -117t92.5 -262zM1905 -557q0 -69 -45.5 -114.5t-114.5 -45.5t-116.5 45.5
t-47.5 114.5t47.5 116.5t116.5 47.5t114.5 -47.5t45.5 -116.5z" />
    <glyph glyph-name="uniFE98FE8A" unicode="&#xfe98;&#xfe8a;" horiz-adv-x="2101" 
d="M1606 1305q0 -69 -46 -114.5t-114 -45.5q-69 0 -116.5 45.5t-47.5 114.5t47.5 116t116.5 47q68 0 114 -47t46 -116zM1237 1305q0 -69 -46.5 -114.5t-115.5 -45.5t-115.5 45.5t-46.5 114.5t46.5 116t115.5 47t115.5 -47t46.5 -116zM469 756v-187l-487 -71v188l63 8
q-39 51 -39 123q2 94 67 158.5t163 64.5q88 0 141 -55.5t59 -153.5l-117 -16q-25 39 -86 39q-83 0 -83 -53q0 -37 45.5 -57t111.5 -13zM1597 53q0 -133 -62 -242t-170 -181t-254.5 -111t-315.5 -39q-379 0 -565.5 162.5t-186.5 490.5q0 124 29 285h327q-22 -126 -22 -213
q0 -165 117.5 -243.5t363.5 -78.5q191 0 316.5 29t125.5 74q0 31 -46.5 50t-163.5 36l-203 26q-170 25 -250 107t-80 229q0 113 61.5 223.5t159.5 192.5t226.5 133t255.5 51q197 0 325 -90q127 -89 244 -307l69 -125q38 -74 79.5 -99.5t123.5 -25.5v-313l-73 -74
q-150 0 -236 51q-87 52 -176 228l-57 110q-72 141 -164 199q-86 57 -250 57q-120 0 -211 -31q-90 -27 -90 -79q0 -32 29.5 -48.5t105.5 -23.5l209 -31q224 -29 316.5 -117t92.5 -262z" />
    <glyph glyph-name="uniFE9CFE8A" unicode="&#xfe9c;&#xfe8a;" horiz-adv-x="2101" 
d="M1393 1556q0 -57 -38 -95t-95 -38t-96.5 38t-39.5 95t39.5 96.5t96.5 39.5t95 -39.5t38 -96.5zM1237 1278q0 -57 -38 -95t-95 -38t-96 38t-39 95t39 96t96 39t95 -39t38 -96zM1550 1278q0 -57 -38 -95t-95 -38t-96 38t-39 95t39 96t96 39t95 -39t38 -96zM469 756v-187
l-487 -71v188l63 8q-39 51 -39 123q2 94 67 158.5t163 64.5q88 0 141 -55.5t59 -153.5l-117 -16q-25 39 -86 39q-83 0 -83 -53q0 -37 45.5 -57t111.5 -13zM1597 53q0 -133 -62 -242t-170 -181t-254.5 -111t-315.5 -39q-379 0 -565.5 162.5t-186.5 490.5q0 124 29 285h327
q-22 -126 -22 -213q0 -165 117.5 -243.5t363.5 -78.5q191 0 316.5 29t125.5 74q0 31 -46.5 50t-163.5 36l-203 26q-170 25 -250 107t-80 229q0 113 61.5 223.5t159.5 192.5t226.5 133t255.5 51q197 0 325 -90q127 -89 244 -307l69 -125q38 -74 79.5 -99.5t123.5 -25.5v-313
l-73 -74q-150 0 -236 51q-87 52 -176 228l-57 110q-72 141 -164 199q-86 57 -250 57q-120 0 -211 -31q-90 -27 -90 -79q0 -32 29.5 -48.5t105.5 -23.5l209 -31q224 -29 316.5 -117t92.5 -262z" />
    <glyph glyph-name="uniFEA0FE8A" unicode="&#xfea0;&#xfe8a;" horiz-adv-x="2390" 
d="M1585 -23q0 -219 -217 -358t-577 -139q-748 0 -748 624q0 120 33 314h327q-24 -126 -24 -228q0 -154 109.5 -230.5t334.5 -76.5q229 0 354.5 29.5t125.5 85.5q0 31 -40 53.5t-133 22.5h-104v313l461 143q234 69 248 72q-18 2 -64 14l-168 43q-100 25 -149 25
q-41 0 -69 -22t-34 -60h-286q2 220 105.5 345.5t283.5 125.5q85 0 262 -53l350 -100q97 -33 168 -46q72 -10 160 -10h45l-2 -352h-27q-64 0 -143 -20v-3q0 -58 47.5 -80t175.5 -22v-309l-72 -78q-188 0 -289.5 107t-109.5 301q-54 -22 -233 -99l-244 -102q71 -33 107 -97
t36 -133zM494 756v-187l-490 -71v188l66 8q-39 51 -39 123q0 94 65.5 158.5t163.5 64.5q88 0 141.5 -55.5t59.5 -153.5l-117 -16q-25 39 -86 39q-84 0 -84 -53q0 -37 45.5 -57t112.5 -13zM2056 -176q0 -68 -45.5 -114t-114.5 -46t-116 46t-47 114q0 69 47 116.5t116 47.5
t114.5 -47.5t45.5 -116.5z" />
    <glyph glyph-name="uniFEA4FE8A" unicode="&#xfea4;&#xfe8a;" horiz-adv-x="2390" 
d="M1585 -23q0 -219 -217 -358t-577 -139q-748 0 -748 624q0 120 33 314h327q-24 -126 -24 -228q0 -154 109.5 -230.5t334.5 -76.5q229 0 354.5 29.5t125.5 85.5q0 31 -40 53.5t-133 22.5h-104v313l461 143q234 69 248 72q-18 2 -64 14l-168 43q-100 25 -149 25
q-41 0 -69 -22t-34 -60h-286q2 220 105.5 345.5t283.5 125.5q85 0 262 -53l350 -100q97 -33 168 -46q72 -10 160 -10h45l-2 -352h-27q-64 0 -143 -20v-3q0 -58 47.5 -80t175.5 -22v-309l-72 -78q-188 0 -289.5 107t-109.5 301q-54 -22 -233 -99l-244 -102q71 -33 107 -97
t36 -133zM494 756v-187l-490 -71v188l66 8q-39 51 -39 123q0 94 65.5 158.5t163.5 64.5q88 0 141.5 -55.5t59.5 -153.5l-117 -16q-25 39 -86 39q-84 0 -84 -53q0 -37 45.5 -57t112.5 -13z" />
    <glyph glyph-name="uniFEA8FE8A" unicode="&#xfea8;&#xfe8a;" horiz-adv-x="2390" 
d="M1593 1311q0 -68 -45 -114t-114 -46t-116.5 46.5t-47.5 113.5q0 69 47.5 116.5t116.5 47.5t114 -47t45 -117zM1585 -23q0 -219 -217 -358t-577 -139q-748 0 -748 624q0 120 33 314h327q-24 -126 -24 -228q0 -154 109.5 -230.5t334.5 -76.5q229 0 354.5 29.5t125.5 85.5
q0 31 -40 53.5t-133 22.5h-104v313l461 143q234 69 248 72q-18 2 -64 14l-168 43q-100 25 -149 25q-41 0 -69 -22t-34 -60h-286q2 220 105.5 345.5t283.5 125.5q85 0 262 -53l350 -100q97 -33 168 -46q72 -10 160 -10h45l-2 -352h-27q-64 0 -143 -20v-3q0 -58 47.5 -80
t175.5 -22v-309l-72 -78q-188 0 -289.5 107t-109.5 301q-54 -22 -233 -99l-244 -102q71 -33 107 -97t36 -133zM494 756v-187l-490 -71v188l66 8q-39 51 -39 123q0 94 65.5 158.5t163.5 64.5q88 0 141.5 -55.5t59.5 -153.5l-117 -16q-25 39 -86 39q-84 0 -84 -53
q0 -37 45.5 -57t112.5 -13z" />
    <glyph glyph-name="uniFEB4FE8A" unicode="&#xfeb4;&#xfe8a;" horiz-adv-x="3284" 
d="M469 756v-187l-487 -71v188l63 8q-39 51 -39 123q2 94 67 158.5t163 64.5q88 0 141 -55.5t59 -153.5l-117 -16q-25 39 -86 39q-83 0 -83 -53q0 -37 45.5 -57t111.5 -13zM1829 641l67 -125q44 -84 85.5 -112.5t119.5 -28.5q82 0 121 48t39 161v63h336v-98q0 -174 94 -174
q100 0 100 174v170h336v-170q0 -88 36 -125t122 -37v-313l-74 -74q-139 0 -227 65t-111 183q-13 -129 -84.5 -202t-181.5 -73q-101 0 -172.5 60.5t-91.5 165.5q-19 -109 -97 -167.5t-202 -58.5q-147 0 -244 66q-98 67 -186 244l-58 110q-70 140 -161 197q-88 55 -250 55
q-120 0 -211 -31q-90 -27 -90 -79q0 -31 28.5 -46.5t106.5 -25.5l209 -31q225 -30 317 -117.5t92 -261.5q0 -133 -62 -242t-170 -181t-254.5 -111t-315.5 -39q-379 0 -565.5 162.5t-186.5 490.5q0 124 29 285h327q-22 -126 -22 -213q0 -165 117.5 -243.5t363.5 -78.5
q191 0 316.5 29t125.5 74q0 31 -46.5 50t-163.5 36l-203 26q-169 23 -249.5 106t-80.5 230q0 113 61.5 223.5t159.5 192.5t226.5 133t255.5 51q197 0 325 -90q125 -88 244 -303z" />
    <glyph glyph-name="uniFEB8FE8A" unicode="&#xfeb8;&#xfe8a;" horiz-adv-x="3284" 
d="M2552 1178q0 -57 -38 -95.5t-95 -38.5t-96 38.5t-39 95.5t39 96t96 39t95 -39t38 -96zM469 756v-187l-487 -71v188l63 8q-39 51 -39 123q2 94 67 158.5t163 64.5q88 0 141 -55.5t59 -153.5l-117 -16q-25 39 -86 39q-83 0 -83 -53q0 -37 45.5 -57t111.5 -13zM1829 641
l67 -125q44 -84 85.5 -112.5t119.5 -28.5q82 0 121 48t39 161v63h336v-98q0 -174 94 -174q100 0 100 174v170h336v-170q0 -88 36 -125t122 -37v-313l-74 -74q-139 0 -227 65t-111 183q-13 -129 -84.5 -202t-181.5 -73q-101 0 -172.5 60.5t-91.5 165.5q-19 -109 -97 -167.5
t-202 -58.5q-147 0 -244 66q-98 67 -186 244l-58 110q-70 140 -161 197q-88 55 -250 55q-120 0 -211 -31q-90 -27 -90 -79q0 -31 28.5 -46.5t106.5 -25.5l209 -31q225 -30 317 -117.5t92 -261.5q0 -133 -62 -242t-170 -181t-254.5 -111t-315.5 -39q-379 0 -565.5 162.5
t-186.5 490.5q0 124 29 285h327q-22 -126 -22 -213q0 -165 117.5 -243.5t363.5 -78.5q191 0 316.5 29t125.5 74q0 31 -46.5 50t-163.5 36l-203 26q-169 23 -249.5 106t-80.5 230q0 113 61.5 223.5t159.5 192.5t226.5 133t255.5 51q197 0 325 -90q125 -88 244 -303zM2396 899
q0 -57 -38 -95t-95 -38t-96 38t-39 95t39 96t96 39t95 -39t38 -96zM2710 899q0 -57 -38.5 -95t-95.5 -38t-96 38t-39 95t39 96t96 39t95.5 -39t38.5 -96z" />
    <glyph glyph-name="uniFEBCFE8A" unicode="&#xfebc;&#xfe8a;" horiz-adv-x="3325" 
d="M1597 53q0 -133 -62 -242t-170 -181t-254.5 -111t-315.5 -39q-379 0 -565.5 162.5t-186.5 490.5q0 124 29 285h327q-22 -126 -22 -213q0 -165 117.5 -243.5t363.5 -78.5q191 0 316.5 29t125.5 74q0 31 -46.5 50t-163.5 36l-203 26q-169 23 -249.5 106t-80.5 230
q0 113 61.5 223.5t159.5 192.5t226.5 133t255.5 51q99 0 172 -20.5t137 -72.5t115 -119t120 -181l76 -125q13 -23 27 -37q310 561 745 561q221 0 363.5 -146.5t142.5 -363.5q0 -58 -10 -116q58 -27 178 -27v-309l-72 -78q-192 0 -280 137q-215 -164 -650 -164
q-217 0 -344 27t-210.5 92t-155.5 191l-66 110q-55 96 -103.5 147t-120.5 78t-179 27q-120 0 -211 -31q-90 -27 -90 -79q0 -31 28.5 -46.5t106.5 -25.5l209 -31q225 -30 317 -117.5t92 -261.5zM469 756v-187l-487 -71v188l63 8q-39 51 -39 123q2 94 67 158.5t163 64.5
q88 0 141 -55.5t59 -153.5l-117 -16q-25 39 -86 39q-83 0 -83 -53q0 -37 45.5 -57t111.5 -13zM2642 653q-293 0 -539 -268q115 -16 295 -16q270 0 388 34.5t118 114.5q0 53 -74 94t-188 41z" />
    <glyph glyph-name="uniFEC0FE8A" unicode="&#xfec0;&#xfe8a;" horiz-adv-x="3325" 
d="M2781 1311q0 -67 -46.5 -113.5t-113.5 -46.5q-69 0 -116 46t-47 114q0 69 47 116.5t116 47.5q67 0 113.5 -47.5t46.5 -116.5zM1597 53q0 -133 -62 -242t-170 -181t-254.5 -111t-315.5 -39q-379 0 -565.5 162.5t-186.5 490.5q0 124 29 285h327q-22 -126 -22 -213
q0 -165 117.5 -243.5t363.5 -78.5q191 0 316.5 29t125.5 74q0 31 -46.5 50t-163.5 36l-203 26q-169 23 -249.5 106t-80.5 230q0 113 61.5 223.5t159.5 192.5t226.5 133t255.5 51q99 0 172 -20.5t137 -72.5t115 -119t120 -181l76 -125q13 -23 27 -37q310 561 745 561
q221 0 363.5 -146.5t142.5 -363.5q0 -58 -10 -116q58 -27 178 -27v-309l-72 -78q-192 0 -280 137q-215 -164 -650 -164q-217 0 -344 27t-210.5 92t-155.5 191l-66 110q-55 96 -103.5 147t-120.5 78t-179 27q-120 0 -211 -31q-90 -27 -90 -79q0 -31 28.5 -46.5t106.5 -25.5
l209 -31q225 -30 317 -117.5t92 -261.5zM469 756v-187l-487 -71v188l63 8q-39 51 -39 123q2 94 67 158.5t163 64.5q88 0 141 -55.5t59 -153.5l-117 -16q-25 39 -86 39q-83 0 -83 -53q0 -37 45.5 -57t111.5 -13zM2642 653q-293 0 -539 -268q115 -16 295 -16q270 0 388 34.5
t118 114.5q0 53 -74 94t-188 41z" />
    <glyph glyph-name="uniFECCFE8A" unicode="&#xfecc;&#xfe8a;" horiz-adv-x="2426" 
d="M494 756v-187l-488 -71v188l64 8q-39 51 -39 123q2 95 67 159t162 64q88 0 141.5 -55.5t59.5 -153.5l-117 -16q-25 39 -86 39q-84 0 -84 -53q0 -37 46 -57.5t112 -12.5zM1585 -102q0 -115 -99.5 -210t-283.5 -151.5t-416 -56.5q-375 0 -560 163t-183 490q0 137 37 285
h326q-21 -168 -21 -213q0 -322 434 -322q235 0 359.5 26.5t124.5 74.5q0 67 -216 67h-24v336h326q-27 27 -56 64l-98 116v357q278 69 530 69q281 0 403.5 -72.5t123.5 -248.5q3 -144 -121 -287l256 2v-313l-74 -74h-49q-335 0 -584 123q-115 -35 -243 -47q54 -29 81 -76.5
t27 -101.5zM1765 637q-130 0 -264 -16q85 -89 157.5 -137.5t162.5 -71.5q114 20 175.5 56.5t59.5 80.5q0 48 -69 68t-222 20z" />
    <glyph glyph-name="uniFED0FE8A" unicode="&#xfed0;&#xfe8a;" horiz-adv-x="2426" 
d="M1942 1266q0 -69 -46 -115.5t-114 -46.5q-69 0 -116.5 46.5t-47.5 115.5t47.5 115t116.5 46q68 0 114 -46t46 -115zM494 756v-187l-488 -71v188l64 8q-39 51 -39 123q2 95 67 159t162 64q88 0 141.5 -55.5t59.5 -153.5l-117 -16q-25 39 -86 39q-84 0 -84 -53
q0 -37 46 -57.5t112 -12.5zM1585 -102q0 -115 -99.5 -210t-283.5 -151.5t-416 -56.5q-375 0 -560 163t-183 490q0 137 37 285h326q-21 -168 -21 -213q0 -322 434 -322q235 0 359.5 26.5t124.5 74.5q0 67 -216 67h-24v336h326q-27 27 -56 64l-98 116v357q278 69 530 69
q281 0 403.5 -72.5t123.5 -248.5q3 -144 -121 -287l256 2v-313l-74 -74h-49q-335 0 -584 123q-115 -35 -243 -47q54 -29 81 -76.5t27 -101.5zM1765 637q-130 0 -264 -16q85 -89 157.5 -137.5t162.5 -71.5q114 20 175.5 56.5t59.5 80.5q0 48 -69 68t-222 20z" />
    <glyph glyph-name="uniFEDCFE8A" unicode="&#xfedc;&#xfe8a;" horiz-adv-x="2125" 
d="M1585 -68q0 -128 -102 -231.5t-283 -162t-405 -58.5q-380 0 -565 162.5t-187 490.5q0 137 37 285h326q-21 -168 -21 -213q0 -322 459 -322q212 0 335.5 29t123.5 80q0 34 -48.5 54t-144.5 20h-205v389h404q102 0 102 61q0 19 -14 43t-54 78l-159 211v313l962 506l-2 -360
l-614 -324l297 -381q91 -121 155 -172q61 -43 144 -43v-313l-72 -74q-126 0 -209 57q-90 61 -207 224l-55 73q-13 -133 -115 -198q117 -79 117 -224zM494 756v-187l-488 -71v188l66 8q-41 53 -41 123q2 95 67 159t162 64q88 0 141.5 -55.5t59.5 -153.5l-117 -16
q-22 39 -84 39q-84 0 -84 -53q0 -37 45 -57t111 -13z" />
    <glyph glyph-name="uniFEE0FE8A" unicode="&#xfee0;&#xfe8a;" horiz-adv-x="2093" 
d="M1585 -74q0 -198 -206 -322t-584 -124q-380 0 -567 162.5t-185 490.5q0 137 37 285h326q-21 -168 -21 -213q0 -322 459 -322q213 0 336 28t123 79q0 33 -50 54.5t-149 21.5h-230v389h539q87 0 125.5 40.5t38.5 129.5v911h360v-977q0 -98 35 -135t121 -37v-313l-74 -74
q-182 0 -278.5 86t-104.5 248q-27 -130 -161 -199q110 -72 110 -209zM492 756v-187l-490 -71v188l66 8q-39 51 -39 123q2 95 67 159t162 64q88 0 141.5 -55.5t59.5 -153.5l-117 -16q-25 39 -86 39q-84 0 -84 -53q0 -37 45.5 -57t112.5 -13z" />
    <glyph glyph-name="uniFEE8FE8A" unicode="&#xfee8;&#xfe8a;" horiz-adv-x="2101" 
d="M1411 1305q0 -69 -46 -114.5t-114 -45.5q-69 0 -116.5 45.5t-47.5 114.5t47.5 116t116.5 47q68 0 114 -47t46 -116zM469 756v-187l-487 -71v188l63 8q-39 51 -39 123q2 94 67 158.5t163 64.5q88 0 141 -55.5t59 -153.5l-117 -16q-25 39 -86 39q-83 0 -83 -53
q0 -37 45.5 -57t111.5 -13zM1597 53q0 -133 -62 -242t-170 -181t-254.5 -111t-315.5 -39q-379 0 -565.5 162.5t-186.5 490.5q0 124 29 285h327q-22 -126 -22 -213q0 -165 117.5 -243.5t363.5 -78.5q191 0 316.5 29t125.5 74q0 31 -46.5 50t-163.5 36l-203 26
q-170 25 -250 107t-80 229q0 113 61.5 223.5t159.5 192.5t226.5 133t255.5 51q197 0 325 -90q127 -89 244 -307l69 -125q38 -74 79.5 -99.5t123.5 -25.5v-313l-73 -74q-150 0 -236 51q-87 52 -176 228l-57 110q-72 141 -164 199q-86 57 -250 57q-120 0 -211 -31
q-90 -27 -90 -79q0 -32 29.5 -48.5t105.5 -23.5l209 -31q224 -29 316.5 -117t92.5 -262z" />
    <glyph glyph-name="uniFEF4FE8A" unicode="&#xfef4;&#xfe8a;" horiz-adv-x="2101" 
d="M469 756v-187l-487 -71v188l63 8q-39 51 -39 123q2 94 67 158.5t163 64.5q88 0 141 -55.5t59 -153.5l-117 -16q-25 39 -86 39q-83 0 -83 -53q0 -37 45.5 -57t111.5 -13zM1597 53q0 -133 -62 -242t-170 -181t-254.5 -111t-315.5 -39q-379 0 -565.5 162.5t-186.5 490.5
q0 124 29 285h327q-22 -126 -22 -213q0 -165 117.5 -243.5t363.5 -78.5q191 0 316.5 29t125.5 74q0 31 -46.5 50t-163.5 36l-203 26q-170 25 -250 107t-80 229q0 113 61.5 223.5t159.5 192.5t226.5 133t255.5 51q197 0 325 -90q127 -89 244 -307l69 -125q38 -74 79.5 -99.5
t123.5 -25.5v-313l-73 -74q-150 0 -236 51q-87 52 -176 228l-57 110q-72 141 -164 199q-86 57 -250 57q-120 0 -211 -31q-90 -27 -90 -79q0 -32 29.5 -48.5t105.5 -23.5l209 -31q224 -29 316.5 -117t92.5 -262zM2097 -557q0 -69 -45.5 -114.5t-114.5 -45.5t-116 45.5
t-47 114.5t47 116.5t116 47.5t114.5 -47.5t45.5 -116.5zM1729 -557q0 -69 -46 -114.5t-114 -45.5q-69 0 -116.5 45.5t-47.5 114.5t47.5 116.5t116.5 47.5q67 0 113.5 -47.5t46.5 -116.5z" />
    <glyph glyph-name="uniFB59FE8A" unicode="&#xfb59;&#xfe8a;" horiz-adv-x="2101" 
d="M469 756v-187l-487 -71v188l63 8q-39 51 -39 123q2 94 67 158.5t163 64.5q88 0 141 -55.5t59 -153.5l-117 -16q-25 39 -86 39q-83 0 -83 -53q0 -37 45.5 -57t111.5 -13zM1597 53q0 -133 -62 -242t-170 -181t-254.5 -111t-315.5 -39q-379 0 -565.5 162.5t-186.5 490.5
q0 124 29 285h327q-22 -126 -22 -213q0 -165 117.5 -243.5t363.5 -78.5q191 0 316.5 29t125.5 74q0 31 -46.5 50t-163.5 36l-203 26q-170 25 -250 107t-80 229q0 113 61.5 223.5t159.5 192.5t226.5 133t255.5 51q197 0 325 -90q127 -89 244 -307l69 -125q38 -74 79.5 -99.5
t123.5 -25.5v-313l-73 -74q-150 0 -236 51q-87 52 -176 228l-57 110q-72 141 -164 199q-86 57 -250 57q-120 0 -211 -31q-90 -27 -90 -79q0 -32 29.5 -48.5t105.5 -23.5l209 -31q224 -29 316.5 -117t92.5 -262zM2042 -518q0 -57 -39 -95t-96 -38t-95 38t-38 95t38 95t95 38
t96 -38t39 -95zM1729 -518q0 -57 -39.5 -95t-96.5 -38t-95 38t-38 95t38 95t95 38t96.5 -38t39.5 -95zM1884 -797q0 -57 -38 -95t-95 -38t-95 38t-38 95t38 95t95 38t95 -38t38 -95z" />
    <glyph glyph-name="uniFB7DFE8A" unicode="&#xfb7d;&#xfe8a;" horiz-adv-x="2390" 
d="M1585 -23q0 -219 -217 -358t-577 -139q-748 0 -748 624q0 120 33 314h327q-24 -126 -24 -228q0 -154 109.5 -230.5t334.5 -76.5q229 0 354.5 29.5t125.5 85.5q0 31 -40 53.5t-133 22.5h-104v313l461 143q234 69 248 72q-18 2 -64 14l-168 43q-100 25 -149 25
q-41 0 -69 -22t-34 -60h-286q2 220 105.5 345.5t283.5 125.5q85 0 262 -53l350 -100q97 -33 168 -46q72 -10 160 -10h45l-2 -352h-27q-64 0 -143 -20v-3q0 -58 47.5 -80t175.5 -22v-309l-72 -78q-188 0 -289.5 107t-109.5 301q-54 -22 -233 -99l-244 -102q71 -33 107 -97
t36 -133zM494 756v-187l-490 -71v188l66 8q-39 51 -39 123q0 94 65.5 158.5t163.5 64.5q88 0 141.5 -55.5t59.5 -153.5l-117 -16q-25 39 -86 39q-84 0 -84 -53q0 -37 45.5 -57t112.5 -13zM2193 -135q0 -57 -39 -96t-96 -39t-95 39t-38 96t38 95t95 38t96 -38t39 -95z
M1880 -135q0 -57 -39 -96t-96 -39t-95 39t-38 96t38 95t95 38t96 -38t39 -95zM2036 -414q0 -57 -38 -96t-95 -39t-95.5 39t-38.5 96t38.5 95t95.5 38t95 -38t38 -95z" />
    <glyph glyph-name="uniFB95FE8A" unicode="&#xfb95;&#xfe8a;" horiz-adv-x="2125" 
d="M2146 2046l-2 -244l-960 -506v244zM1585 -68q0 -128 -102 -231.5t-283 -162t-405 -58.5q-380 0 -565 162.5t-187 490.5q0 137 37 285h326q-21 -168 -21 -213q0 -322 459 -322q212 0 335.5 29t123.5 80q0 34 -48.5 54t-144.5 20h-205v389h404q102 0 102 61q0 19 -14 43
t-54 78l-159 211v313l962 506l-2 -360l-614 -324l297 -381q91 -121 155 -172q61 -43 144 -43v-313l-72 -74q-126 0 -209 57q-90 61 -207 224l-55 73q-13 -133 -115 -198q117 -79 117 -224zM494 756v-187l-488 -71v188l66 8q-41 53 -41 123q2 95 67 159t162 64
q88 0 141.5 -55.5t59.5 -153.5l-117 -16q-22 39 -84 39q-84 0 -84 -53q0 -37 45 -57t111 -13z" />
    <glyph glyph-name="uniFE8CFE8A" unicode="&#xfe8c;&#xfe8a;" horiz-adv-x="2101" 
d="M1501 1370v-186l-489 -70v186l65 9q-39 51 -39 125q0 94 66 158.5t164 64.5q88 0 141 -55.5t59 -155.5l-116 -14q-26 38 -86 38q-84 0 -84 -53q0 -38 45.5 -58.5t111.5 -10.5zM469 756v-187l-487 -71v188l63 8q-39 51 -39 123q2 94 67 158.5t163 64.5q88 0 141 -55.5
t59 -153.5l-117 -16q-25 39 -86 39q-83 0 -83 -53q0 -37 45.5 -57t111.5 -13zM1597 53q0 -133 -62 -242t-170 -181t-254.5 -111t-315.5 -39q-379 0 -565.5 162.5t-186.5 490.5q0 124 29 285h327q-22 -126 -22 -213q0 -165 117.5 -243.5t363.5 -78.5q191 0 316.5 29t125.5 74
q0 31 -46.5 50t-163.5 36l-203 26q-170 25 -250 107t-80 229q0 113 61.5 223.5t159.5 192.5t226.5 133t255.5 51q197 0 325 -90q127 -89 244 -307l69 -125q38 -74 79.5 -99.5t123.5 -25.5v-313l-73 -74q-150 0 -236 51q-87 52 -176 228l-57 110q-72 141 -164 199
q-86 57 -250 57q-120 0 -211 -31q-90 -27 -90 -79q0 -32 29.5 -48.5t105.5 -23.5l209 -31q224 -29 316.5 -117t92.5 -262z" />
    <glyph glyph-name="uniFE92FBFD" unicode="&#xfe92;&#xfbfd;" horiz-adv-x="2101" 
d="M1597 53q0 -133 -62 -242t-170 -181t-254.5 -111t-315.5 -39q-379 0 -565.5 162.5t-186.5 490.5q0 124 29 285h327q-22 -126 -22 -213q0 -165 117.5 -243.5t363.5 -78.5q191 0 316.5 29t125.5 74q0 31 -46.5 50t-163.5 36l-203 26q-170 25 -250 107t-80 229
q0 113 61.5 223.5t159.5 192.5t226.5 133t255.5 51q197 0 325 -90q127 -89 244 -307l69 -125q38 -74 79.5 -99.5t123.5 -25.5v-313l-73 -74q-150 0 -236 51q-87 52 -176 228l-57 110q-72 141 -164 199q-86 57 -250 57q-120 0 -211 -31q-90 -27 -90 -79q0 -32 29.5 -48.5
t105.5 -23.5l209 -31q224 -29 316.5 -117t92.5 -262zM1905 -557q0 -69 -45.5 -114.5t-114.5 -45.5t-116.5 45.5t-47.5 114.5t47.5 116.5t116.5 47.5t114.5 -47.5t45.5 -116.5z" />
    <glyph glyph-name="uniFE98FBFD" unicode="&#xfe98;&#xfbfd;" horiz-adv-x="2101" 
d="M1606 1305q0 -69 -46 -114.5t-114 -45.5q-69 0 -116.5 45.5t-47.5 114.5t47.5 116t116.5 47q68 0 114 -47t46 -116zM1237 1305q0 -69 -46.5 -114.5t-115.5 -45.5t-115.5 45.5t-46.5 114.5t46.5 116t115.5 47t115.5 -47t46.5 -116zM1597 53q0 -133 -62 -242t-170 -181
t-254.5 -111t-315.5 -39q-379 0 -565.5 162.5t-186.5 490.5q0 124 29 285h327q-22 -126 -22 -213q0 -165 117.5 -243.5t363.5 -78.5q191 0 316.5 29t125.5 74q0 31 -46.5 50t-163.5 36l-203 26q-170 25 -250 107t-80 229q0 113 61.5 223.5t159.5 192.5t226.5 133t255.5 51
q197 0 325 -90q127 -89 244 -307l69 -125q38 -74 79.5 -99.5t123.5 -25.5v-313l-73 -74q-150 0 -236 51q-87 52 -176 228l-57 110q-72 141 -164 199q-86 57 -250 57q-120 0 -211 -31q-90 -27 -90 -79q0 -32 29.5 -48.5t105.5 -23.5l209 -31q224 -29 316.5 -117t92.5 -262z
" />
    <glyph glyph-name="uniFE9CFBFD" unicode="&#xfe9c;&#xfbfd;" horiz-adv-x="2101" 
d="M1393 1556q0 -57 -38 -95t-95 -38t-96.5 38t-39.5 95t39.5 96.5t96.5 39.5t95 -39.5t38 -96.5zM1237 1278q0 -57 -38 -95t-95 -38t-96 38t-39 95t39 96t96 39t95 -39t38 -96zM1550 1278q0 -57 -38 -95t-95 -38t-96 38t-39 95t39 96t96 39t95 -39t38 -96zM1597 53
q0 -133 -62 -242t-170 -181t-254.5 -111t-315.5 -39q-379 0 -565.5 162.5t-186.5 490.5q0 124 29 285h327q-22 -126 -22 -213q0 -165 117.5 -243.5t363.5 -78.5q191 0 316.5 29t125.5 74q0 31 -46.5 50t-163.5 36l-203 26q-170 25 -250 107t-80 229q0 113 61.5 223.5
t159.5 192.5t226.5 133t255.5 51q197 0 325 -90q127 -89 244 -307l69 -125q38 -74 79.5 -99.5t123.5 -25.5v-313l-73 -74q-150 0 -236 51q-87 52 -176 228l-57 110q-72 141 -164 199q-86 57 -250 57q-120 0 -211 -31q-90 -27 -90 -79q0 -32 29.5 -48.5t105.5 -23.5l209 -31
q224 -29 316.5 -117t92.5 -262z" />
    <glyph glyph-name="uniFEA0FBFD" unicode="&#xfea0;&#xfbfd;" horiz-adv-x="2390" 
d="M1585 -23q0 -219 -217 -358t-577 -139q-748 0 -748 624q0 120 33 314h327q-24 -126 -24 -228q0 -154 109.5 -230.5t334.5 -76.5q229 0 354.5 29.5t125.5 85.5q0 31 -40 53.5t-133 22.5h-104v313l461 143q234 69 248 72q-18 2 -64 14l-168 43q-100 25 -149 25
q-41 0 -69 -22t-34 -60h-286q2 220 105.5 345.5t283.5 125.5q85 0 262 -53l350 -100q97 -33 168 -46q72 -10 160 -10h45l-2 -352h-27q-64 0 -143 -20v-3q0 -58 47.5 -80t175.5 -22v-309l-72 -78q-188 0 -289.5 107t-109.5 301q-54 -22 -233 -99l-244 -102q71 -33 107 -97
t36 -133zM2056 -176q0 -68 -45.5 -114t-114.5 -46t-116 46t-47 114q0 69 47 116.5t116 47.5t114.5 -47.5t45.5 -116.5z" />
    <glyph glyph-name="uniFEA4FBFD" unicode="&#xfea4;&#xfbfd;" horiz-adv-x="2390" 
d="M1585 -23q0 -219 -217 -358t-577 -139q-748 0 -748 624q0 120 33 314h327q-24 -126 -24 -228q0 -154 109.5 -230.5t334.5 -76.5q229 0 354.5 29.5t125.5 85.5q0 31 -40 53.5t-133 22.5h-104v313l461 143q234 69 248 72q-18 2 -64 14l-168 43q-100 25 -149 25
q-41 0 -69 -22t-34 -60h-286q2 220 105.5 345.5t283.5 125.5q85 0 262 -53l350 -100q97 -33 168 -46q72 -10 160 -10h45l-2 -352h-27q-64 0 -143 -20v-3q0 -58 47.5 -80t175.5 -22v-309l-72 -78q-188 0 -289.5 107t-109.5 301q-54 -22 -233 -99l-244 -102q71 -33 107 -97
t36 -133z" />
    <glyph glyph-name="uniFEA8FBFD" unicode="&#xfea8;&#xfbfd;" horiz-adv-x="2390" 
d="M1593 1311q0 -68 -45 -114t-114 -46t-116.5 46.5t-47.5 113.5q0 69 47.5 116.5t116.5 47.5t114 -47t45 -117zM1585 -23q0 -219 -217 -358t-577 -139q-748 0 -748 624q0 120 33 314h327q-24 -126 -24 -228q0 -154 109.5 -230.5t334.5 -76.5q229 0 354.5 29.5t125.5 85.5
q0 31 -40 53.5t-133 22.5h-104v313l461 143q234 69 248 72q-18 2 -64 14l-168 43q-100 25 -149 25q-41 0 -69 -22t-34 -60h-286q2 220 105.5 345.5t283.5 125.5q85 0 262 -53l350 -100q97 -33 168 -46q72 -10 160 -10h45l-2 -352h-27q-64 0 -143 -20v-3q0 -58 47.5 -80
t175.5 -22v-309l-72 -78q-188 0 -289.5 107t-109.5 301q-54 -22 -233 -99l-244 -102q71 -33 107 -97t36 -133z" />
    <glyph glyph-name="uniFEB4FBFD" unicode="&#xfeb4;&#xfbfd;" horiz-adv-x="3180" 
d="M1520 37q0 -165 -96 -292.5t-265.5 -196t-384.5 -68.5q-731 0 -731 653q0 124 29 285h327q-22 -126 -22 -213q0 -159 110 -240.5t320 -81.5q195 0 298 23.5t103 66.5q0 47 -168 70l-170 29q-152 23 -221 95.5t-69 201.5q0 138 96.5 274t247 221.5t299.5 85.5
q81 0 143 -13t124.5 -46.5t119.5 -96t112 -157.5l74 -125q40 -72 85 -104.5t116 -32.5q82 0 121 48t39 161v63h335v-98q0 -86 25 -130t70 -44q100 0 100 174v170h336v-170q0 -88 36 -125t122 -37v-313l-74 -74q-139 0 -227 65t-111 183q-13 -129 -84.5 -202t-181.5 -73
q-101 0 -173 60.5t-92 165.5q-19 -109 -97 -167.5t-202 -58.5q-146 0 -243 71.5t-187 234.5l-61 110q-54 99 -134.5 139.5t-191.5 40.5q-106 0 -183 -31t-77 -75q0 -25 20 -39t74 -21l181 -32q218 -35 299 -113q84 -81 84 -221z" />
    <glyph glyph-name="uniFEB8FBFD" unicode="&#xfeb8;&#xfbfd;" horiz-adv-x="3284" 
d="M2552 1178q0 -57 -38 -95.5t-95 -38.5t-96 38.5t-39 95.5t39 96t96 39t95 -39t38 -96zM1829 641l67 -125q44 -84 85.5 -112.5t119.5 -28.5q82 0 121 48t39 161v63h336v-98q0 -174 94 -174q100 0 100 174v170h336v-170q0 -88 36 -125t122 -37v-313l-74 -74q-139 0 -227 65
t-111 183q-13 -129 -84.5 -202t-181.5 -73q-101 0 -172.5 60.5t-91.5 165.5q-19 -109 -97 -167.5t-202 -58.5q-147 0 -244 66q-98 67 -186 244l-58 110q-70 140 -161 197q-88 55 -250 55q-120 0 -211 -31q-90 -27 -90 -79q0 -31 28.5 -46.5t106.5 -25.5l209 -31
q225 -30 317 -117.5t92 -261.5q0 -133 -62 -242t-170 -181t-254.5 -111t-315.5 -39q-379 0 -565.5 162.5t-186.5 490.5q0 124 29 285h327q-22 -126 -22 -213q0 -165 117.5 -243.5t363.5 -78.5q191 0 316.5 29t125.5 74q0 31 -46.5 50t-163.5 36l-203 26q-169 23 -249.5 106
t-80.5 230q0 113 61.5 223.5t159.5 192.5t226.5 133t255.5 51q197 0 325 -90q125 -88 244 -303zM2396 899q0 -57 -38 -95t-95 -38t-96 38t-39 95t39 96t96 39t95 -39t38 -96zM2710 899q0 -57 -38.5 -95t-95.5 -38t-96 38t-39 95t39 96t96 39t95.5 -39t38.5 -96z" />
    <glyph glyph-name="uniFEBCFBFD" unicode="&#xfebc;&#xfbfd;" horiz-adv-x="3325" 
d="M1597 53q0 -133 -62 -242t-170 -181t-254.5 -111t-315.5 -39q-379 0 -565.5 162.5t-186.5 490.5q0 124 29 285h327q-22 -126 -22 -213q0 -165 117.5 -243.5t363.5 -78.5q191 0 316.5 29t125.5 74q0 31 -46.5 50t-163.5 36l-203 26q-169 23 -249.5 106t-80.5 230
q0 113 61.5 223.5t159.5 192.5t226.5 133t255.5 51q99 0 172 -20.5t137 -72.5t115 -119t120 -181l76 -125q13 -23 27 -37q310 561 745 561q221 0 363.5 -146.5t142.5 -363.5q0 -58 -10 -116q58 -27 178 -27v-309l-72 -78q-192 0 -280 137q-215 -164 -650 -164
q-217 0 -344 27t-210.5 92t-155.5 191l-66 110q-55 96 -103.5 147t-120.5 78t-179 27q-120 0 -211 -31q-90 -27 -90 -79q0 -31 28.5 -46.5t106.5 -25.5l209 -31q225 -30 317 -117.5t92 -261.5zM2642 653q-293 0 -539 -268q115 -16 295 -16q270 0 388 34.5t118 114.5
q0 53 -74 94t-188 41z" />
    <glyph glyph-name="uniFEC0FBFD" unicode="&#xfec0;&#xfbfd;" horiz-adv-x="3325" 
d="M2781 1311q0 -67 -46.5 -113.5t-113.5 -46.5q-69 0 -116 46t-47 114q0 69 47 116.5t116 47.5q67 0 113.5 -47.5t46.5 -116.5zM1597 53q0 -133 -62 -242t-170 -181t-254.5 -111t-315.5 -39q-379 0 -565.5 162.5t-186.5 490.5q0 124 29 285h327q-22 -126 -22 -213
q0 -165 117.5 -243.5t363.5 -78.5q191 0 316.5 29t125.5 74q0 31 -46.5 50t-163.5 36l-203 26q-169 23 -249.5 106t-80.5 230q0 113 61.5 223.5t159.5 192.5t226.5 133t255.5 51q99 0 172 -20.5t137 -72.5t115 -119t120 -181l76 -125q13 -23 27 -37q310 561 745 561
q221 0 363.5 -146.5t142.5 -363.5q0 -58 -10 -116q58 -27 178 -27v-309l-72 -78q-192 0 -280 137q-215 -164 -650 -164q-217 0 -344 27t-210.5 92t-155.5 191l-66 110q-55 96 -103.5 147t-120.5 78t-179 27q-120 0 -211 -31q-90 -27 -90 -79q0 -31 28.5 -46.5t106.5 -25.5
l209 -31q225 -30 317 -117.5t92 -261.5zM2642 653q-293 0 -539 -268q115 -16 295 -16q270 0 388 34.5t118 114.5q0 53 -74 94t-188 41z" />
    <glyph glyph-name="uniFECCFBFD" unicode="&#xfecc;&#xfbfd;" horiz-adv-x="2426" 
d="M1587 -102q0 -115 -99.5 -210t-283.5 -151.5t-416 -56.5q-375 0 -560 163t-183 490q0 137 37 285h326q-21 -168 -21 -213q0 -322 434 -322q235 0 359.5 26.5t124.5 74.5q0 67 -215 67h-25v336h326q-27 27 -56 64l-98 116v357q278 69 530 69q281 0 403.5 -72.5
t123.5 -248.5q3 -144 -121 -287l256 2v-313l-74 -74h-49q-335 0 -584 123q-115 -35 -243 -47q54 -29 81 -76.5t27 -101.5zM1767 637q-130 0 -264 -16q85 -89 157.5 -137.5t162.5 -71.5q114 20 175.5 56.5t59.5 80.5q0 48 -69 68t-222 20z" />
    <glyph glyph-name="uniFED0FBFD" unicode="&#xfed0;&#xfbfd;" horiz-adv-x="2426" 
d="M1944 1266q0 -69 -46 -115.5t-114 -46.5q-69 0 -116.5 46.5t-47.5 115.5t47.5 115t116.5 46q68 0 114 -46t46 -115zM1587 -102q0 -115 -99.5 -210t-283.5 -151.5t-416 -56.5q-375 0 -560 163t-183 490q0 137 37 285h326q-21 -168 -21 -213q0 -322 434 -322
q235 0 359.5 26.5t124.5 74.5q0 67 -215 67h-25v336h326q-27 27 -56 64l-98 116v357q278 69 530 69q281 0 403.5 -72.5t123.5 -248.5q3 -144 -121 -287l256 2v-313l-74 -74h-49q-335 0 -584 123q-115 -35 -243 -47q54 -29 81 -76.5t27 -101.5zM1767 637q-130 0 -264 -16
q85 -89 157.5 -137.5t162.5 -71.5q114 20 175.5 56.5t59.5 80.5q0 48 -69 68t-222 20z" />
    <glyph glyph-name="uniFEE0FBFD" unicode="&#xfee0;&#xfbfd;" horiz-adv-x="2052" 
d="M1546 -74q0 -199 -193.5 -322.5t-555.5 -123.5q-380 0 -567 162.5t-185 490.5q0 137 37 285h326q-21 -168 -21 -213q0 -322 459 -322q193 0 305.5 28.5t112.5 78.5q0 33 -50 54.5t-149 21.5h-229v389h538q87 0 125.5 40.5t38.5 129.5v911h360v-977q0 -98 35 -135t121 -37
v-313l-74 -74q-182 0 -278.5 86t-104.5 248q-27 -130 -161 -199q110 -72 110 -209z" />
    <glyph glyph-name="uniFEE8FBFD" unicode="&#xfee8;&#xfbfd;" horiz-adv-x="2101" 
d="M1411 1305q0 -69 -46 -114.5t-114 -45.5q-69 0 -116.5 45.5t-47.5 114.5t47.5 116t116.5 47q68 0 114 -47t46 -116zM1597 53q0 -133 -62 -242t-170 -181t-254.5 -111t-315.5 -39q-379 0 -565.5 162.5t-186.5 490.5q0 124 29 285h327q-22 -126 -22 -213
q0 -165 117.5 -243.5t363.5 -78.5q191 0 316.5 29t125.5 74q0 31 -46.5 50t-163.5 36l-203 26q-170 25 -250 107t-80 229q0 113 61.5 223.5t159.5 192.5t226.5 133t255.5 51q197 0 325 -90q127 -89 244 -307l69 -125q38 -74 79.5 -99.5t123.5 -25.5v-313l-73 -74
q-150 0 -236 51q-87 52 -176 228l-57 110q-72 141 -164 199q-86 57 -250 57q-120 0 -211 -31q-90 -27 -90 -79q0 -32 29.5 -48.5t105.5 -23.5l209 -31q224 -29 316.5 -117t92.5 -262z" />
    <glyph glyph-name="uniFEF4FBFD" unicode="&#xfef4;&#xfbfd;" horiz-adv-x="2101" 
d="M1597 53q0 -133 -62 -242t-170 -181t-254.5 -111t-315.5 -39q-379 0 -565.5 162.5t-186.5 490.5q0 124 29 285h327q-22 -126 -22 -213q0 -165 117.5 -243.5t363.5 -78.5q191 0 316.5 29t125.5 74q0 31 -46.5 50t-163.5 36l-203 26q-170 25 -250 107t-80 229
q0 113 61.5 223.5t159.5 192.5t226.5 133t255.5 51q197 0 325 -90q127 -89 244 -307l69 -125q38 -74 79.5 -99.5t123.5 -25.5v-313l-73 -74q-150 0 -236 51q-87 52 -176 228l-57 110q-72 141 -164 199q-86 57 -250 57q-120 0 -211 -31q-90 -27 -90 -79q0 -32 29.5 -48.5
t105.5 -23.5l209 -31q224 -29 316.5 -117t92.5 -262zM2097 -557q0 -69 -45.5 -114.5t-114.5 -45.5t-116 45.5t-47 114.5t47 116.5t116 47.5t114.5 -47.5t45.5 -116.5zM1729 -557q0 -69 -46 -114.5t-114 -45.5q-69 0 -116.5 45.5t-47.5 114.5t47.5 116.5t116.5 47.5
q67 0 113.5 -47.5t46.5 -116.5z" />
    <glyph glyph-name="uniFB59FBFD" unicode="&#xfb59;&#xfbfd;" horiz-adv-x="2101" 
d="M1597 53q0 -133 -62 -242t-170 -181t-254.5 -111t-315.5 -39q-379 0 -565.5 162.5t-186.5 490.5q0 124 29 285h327q-22 -126 -22 -213q0 -165 117.5 -243.5t363.5 -78.5q191 0 316.5 29t125.5 74q0 31 -46.5 50t-163.5 36l-203 26q-170 25 -250 107t-80 229
q0 113 61.5 223.5t159.5 192.5t226.5 133t255.5 51q197 0 325 -90q127 -89 244 -307l69 -125q38 -74 79.5 -99.5t123.5 -25.5v-313l-73 -74q-150 0 -236 51q-87 52 -176 228l-57 110q-72 141 -164 199q-86 57 -250 57q-120 0 -211 -31q-90 -27 -90 -79q0 -32 29.5 -48.5
t105.5 -23.5l209 -31q224 -29 316.5 -117t92.5 -262zM2042 -518q0 -57 -39 -95t-96 -38t-95 38t-38 95t38 95t95 38t96 -38t39 -95zM1729 -518q0 -57 -39.5 -95t-96.5 -38t-95 38t-38 95t38 95t95 38t96.5 -38t39.5 -95zM1884 -797q0 -57 -38 -95t-95 -38t-95 38t-38 95
t38 95t95 38t95 -38t38 -95z" />
    <glyph glyph-name="uniFB91FBFD" unicode="&#xfb91;&#xfbfd;" horiz-adv-x="2084" 
d="M1544 -68q0 -128 -96 -231.5t-267.5 -162t-385.5 -58.5q-380 0 -565 162.5t-187 490.5q0 137 37 285h326q-21 -168 -21 -213q0 -322 459 -322q192 0 305 29t113 80q0 34 -48.5 54t-144.5 20h-205v389h404q102 0 102 61q0 20 -13.5 44t-53.5 77l-160 211v313l962 506
l-2 -360l-614 -324l297 -381q89 -119 156 -172q61 -43 143 -43v-313l-72 -74q-126 0 -209 57q-90 61 -207 224l-55 73q-13 -133 -115 -198q117 -79 117 -224z" />
    <glyph glyph-name="uniFB95FBFD" unicode="&#xfb95;&#xfbfd;" horiz-adv-x="2125" 
d="M2146 2046l-2 -244l-960 -506v244zM1585 -68q0 -128 -102 -231.5t-283 -162t-405 -58.5q-380 0 -565 162.5t-187 490.5q0 137 37 285h326q-21 -168 -21 -213q0 -322 459 -322q212 0 335.5 29t123.5 80q0 34 -48.5 54t-144.5 20h-205v389h404q102 0 102 61q0 19 -14 43
t-54 78l-159 211v313l962 506l-2 -360l-614 -324l297 -381q91 -121 155 -172q61 -43 144 -43v-313l-72 -74q-126 0 -209 57q-90 61 -207 224l-55 73q-13 -133 -115 -198q117 -79 117 -224z" />
    <glyph glyph-name="uniFE8CFBFD" unicode="&#xfe8c;&#xfbfd;" horiz-adv-x="2101" 
d="M1501 1370v-186l-489 -70v186l65 9q-39 51 -39 125q0 94 66 158.5t164 64.5q88 0 141 -55.5t59 -155.5l-116 -14q-26 38 -86 38q-84 0 -84 -53q0 -38 45.5 -58.5t111.5 -10.5zM1597 53q0 -133 -62 -242t-170 -181t-254.5 -111t-315.5 -39q-379 0 -565.5 162.5
t-186.5 490.5q0 124 29 285h327q-22 -126 -22 -213q0 -165 117.5 -243.5t363.5 -78.5q191 0 316.5 29t125.5 74q0 31 -46.5 50t-163.5 36l-203 26q-170 25 -250 107t-80 229q0 113 61.5 223.5t159.5 192.5t226.5 133t255.5 51q197 0 325 -90q127 -89 244 -307l69 -125
q38 -74 79.5 -99.5t123.5 -25.5v-313l-73 -74q-150 0 -236 51q-87 52 -176 228l-57 110q-72 141 -164 199q-86 57 -250 57q-120 0 -211 -31q-90 -27 -90 -79q0 -32 29.5 -48.5t105.5 -23.5l209 -31q224 -29 316.5 -117t92.5 -262z" />
    <glyph glyph-name="uniFEB4FEB0" unicode="&#xfeb4;&#xfeb0;" horiz-adv-x="2428" 
d="M479 1049q0 -69 -46 -114.5t-114 -45.5q-69 0 -116 45.5t-47 114.5t47 116t116 47q68 0 114 -47t46 -116zM612 231q0 -377 -135 -557t-422 -180q-76 0 -186 10v394q107 -15 176 -15q130 0 186 77.5t56 256.5q0 60 -21 266l-28 236l907 72l26 -246q11 -96 34 -133t77 -37
q104 0 104 174v98h336v-98q0 -174 99 -174q104 0 104 174v170h336v-170q0 -88 38.5 -125t129.5 -37v-313l-74 -74q-142 0 -232.5 65t-113.5 183q-14 -131 -84.5 -203t-187.5 -72q-104 0 -176.5 59.5t-92.5 162.5q-13 -105 -82 -163.5t-178 -58.5q-157 0 -235 93
q-76 91 -117 313l-248 -19q4 -86 4 -129z" />
    <glyph glyph-name="uniFEB8FEB0" unicode="&#xfeb8;&#xfeb0;" horiz-adv-x="2428" 
d="M1681 1169q0 -57 -38 -95t-95 -38t-96 38t-39 95t39 96.5t96 39.5t95 -39.5t38 -96.5zM479 1049q0 -69 -46 -114.5t-114 -45.5q-69 0 -116 45.5t-47 114.5t47 116t116 47q68 0 114 -47t46 -116zM1524 891q0 -57 -38 -95t-95 -38t-95.5 38t-38.5 95t38.5 96t95.5 39
t95 -39t38 -96zM1839 891q0 -57 -39 -95t-96 -38t-95 38t-38 95t38 96t95 39t96 -39t39 -96zM612 231q0 -377 -135 -557t-422 -180q-76 0 -186 10v394q107 -15 176 -15q130 0 186 77.5t56 256.5q0 60 -21 266l-28 236l907 72l26 -246q11 -96 34 -133t77 -37q104 0 104 174
v98h336v-98q0 -174 99 -174q104 0 104 174v170h336v-170q0 -88 38.5 -125t129.5 -37v-313l-74 -74q-142 0 -232.5 65t-113.5 183q-14 -131 -84.5 -203t-187.5 -72q-104 0 -176.5 59.5t-92.5 162.5q-13 -105 -82 -163.5t-178 -58.5q-157 0 -235 93q-76 91 -117 313l-248 -19
q4 -86 4 -129z" />
    <glyph glyph-name="uniFEBCFEB0" unicode="&#xfebc;&#xfeb0;" horiz-adv-x="2713" 
d="M485 1120q0 -69 -46 -114t-115 -45q-70 0 -117 45t-47 114t47.5 116.5t116.5 47.5t115 -47.5t46 -116.5zM612 231q0 -377 -135 -557t-422 -180q-76 0 -186 10v394q107 -15 176 -15q130 0 186 77.5t56 256.5q0 60 -21 266l-37 308l908 71l34 -317q3 -44 13 -88
q171 292 368.5 437.5t429.5 145.5q221 0 363.5 -146.5t142.5 -363.5q0 -12 -1 -25t-2.5 -29t-2.5 -25q37 -37 86 -50.5t146 -13.5v-309l-72 -78q-216 0 -303 178q-237 -205 -838 -205q-134 0 -229 14t-169 46t-122.5 88.5t-80.5 136.5t-52 195l-244 -21q1 -23 4.5 -92.5
t3.5 -108.5zM1974 653q-313 0 -604 -291q41 -2 148 -2q280 0 437.5 17.5t218 50.5t60.5 90q0 53 -73.5 94t-186.5 41z" />
    <glyph glyph-name="uniFEC0FEB0" unicode="&#xfec0;&#xfeb0;" horiz-adv-x="2713" 
d="M2105 1311q0 -68 -46 -114t-113 -46q-69 0 -116.5 46.5t-47.5 113.5q0 69 47.5 116.5t116.5 47.5q67 0 113 -47.5t46 -116.5zM485 1120q0 -69 -46 -114t-115 -45q-70 0 -117 45t-47 114t47.5 116.5t116.5 47.5t115 -47.5t46 -116.5zM612 231q0 -377 -135 -557t-422 -180
q-76 0 -186 10v394q107 -15 176 -15q130 0 186 77.5t56 256.5q0 60 -21 266l-37 308l908 71l34 -317q3 -44 13 -88q171 292 368.5 437.5t429.5 145.5q221 0 363.5 -146.5t142.5 -363.5q0 -12 -1 -25t-2.5 -29t-2.5 -25q37 -37 86 -50.5t146 -13.5v-309l-72 -78
q-216 0 -303 178q-237 -205 -838 -205q-134 0 -229 14t-169 46t-122.5 88.5t-80.5 136.5t-52 195l-244 -21q1 -23 4.5 -92.5t3.5 -108.5zM1974 653q-313 0 -604 -291q41 -2 148 -2q280 0 437.5 17.5t218 50.5t60.5 90q0 53 -73.5 94t-186.5 41z" />
    <glyph glyph-name="uniFB59FEB0" unicode="&#xfb59;&#xfeb0;" horiz-adv-x="1345" 
d="M479 1120q0 -69 -46 -114t-114 -45q-69 0 -116 45t-47 114t47 116.5t116 47.5q67 0 113.5 -47.5t46.5 -116.5zM612 231q0 -377 -135 -557t-422 -180q-76 0 -186 10v394q107 -15 176 -15q130 0 186 77.5t56 256.5q0 60 -21 266l-37 308l908 71l34 -317q7 -91 45 -124.5
t130 -33.5v-313l-72 -74q-202 0 -295 100q-92 99 -133 353l-242 -21q1 -23 4.5 -92.5t3.5 -108.5zM1294 -233q0 -57 -39 -96.5t-96 -39.5t-95 39.5t-38 96.5t38 95t95 38t96 -38t39 -95zM981 -233q0 -57 -39 -96.5t-96 -39.5t-95 39.5t-38 96.5t38 95t95 38t96 -38t39 -95z
M1137 -512q0 -57 -38 -96t-95 -39t-96.5 39t-39.5 96t39.5 95t96.5 38t95 -38t38 -95z" />
    <glyph glyph-name="uniFBFFFEB0" unicode="&#xfbff;&#xfeb0;" horiz-adv-x="1345" 
d="M479 1120q0 -69 -46 -114t-114 -45q-69 0 -116 45t-47 114t47 116.5t116 47.5q67 0 113.5 -47.5t46.5 -116.5zM612 231q0 -377 -135 -557t-422 -180q-76 0 -186 10v394q107 -15 178 -15q129 0 184.5 77.5t55.5 256.5q0 60 -21 266l-37 308l908 71l34 -317
q7 -91 45 -124.5t130 -33.5v-313l-72 -74q-202 0 -295 100q-92 99 -133 353l-242 -21q1 -23 4.5 -92.5t3.5 -108.5zM1290 -229q0 -57 -38 -95t-95 -38t-95 38t-38 95t38 96t95 39t95 -39t38 -96zM983 -229q0 -57 -38 -95t-95 -38t-95 38t-38 95t38 96t95 39t95 -39t38 -96z
" />
    <glyph glyph-name="uni066E.init" unicode="&#x66e;" horiz-adv-x="546" 
d="M33 0h-107v322l74 65q91 0 125.5 45t34.5 156q0 112 -29 346h338q27 -260 27 -410q0 -252 -119 -388t-344 -136z" />
    <glyph glyph-name="uni066E.medi" unicode="&#x66e;" horiz-adv-x="661" 
d="M662 387v-313l-72 -74q-153 0 -245.5 68t-115.5 196q-19 -128 -96.5 -196t-206.5 -68v322l74 65q92 0 129 40t37 132v232h336v-232q0 -99 34.5 -135.5t125.5 -36.5z" />
    <glyph glyph-name="uni066E.fina" unicode="&#x66e;" horiz-adv-x="1972" 
d="M1972 74l-71 -74q-146 0 -238.5 63.5t-118.5 180.5q-49 -128 -224 -199.5t-433 -71.5q-440 0 -639 146q-197 144 -197 461q0 128 33 282h330q-29 -129 -29 -207q0 -151 125 -215q123 -63 424 -63q222 0 336 16t160.5 54t46.5 112v232h335v-232q0 -98 35.5 -135t124.5 -37
v-313z" />
    <glyph glyph-name="uni066F.fina" unicode="&#x66f;" horiz-adv-x="1593" 
d="M1593 74l-71 -74h-23q-41 -274 -219.5 -405.5t-501.5 -131.5q-367 0 -551 174.5t-184 516.5q0 162 37 329h330q-31 -172 -31 -270q0 -188 108 -275.5t353 -87.5q187 0 286.5 34.5t137.5 115.5h-252q-213 0 -333 111t-120 307q0 138 64 260.5t176 197t243 74.5
q179 0 301.5 -148.5t157.5 -414.5h92v-313zM977 387h268q-38 97 -113.5 150t-175.5 53q-66 0 -111.5 -33.5t-45.5 -81.5q0 -88 178 -88z" />
    <glyph glyph-name="uni06A1.init" unicode="&#x6a1;" horiz-adv-x="1079" 
d="M457 0h-531v322l74 65h479q159 0 222.5 26t76.5 105q-115 -47 -334 -47q-189 0 -297 96.5t-108 257.5q0 129 64 244t171 184.5t228 69.5q139 0 253.5 -90t182.5 -258t68 -383q0 -303 -131.5 -447.5t-417.5 -144.5zM279 852q0 -88 180 -88q168 0 282 12q-43 86 -124 135.5
t-171 49.5q-81 0 -124 -32t-43 -77z" />
    <glyph glyph-name="uni06A1.medi" unicode="&#x6a1;" horiz-adv-x="1067" 
d="M57 0h-131v322l74 65h104q-47 89 -47 195q0 199 140.5 342t341.5 143q131 0 239 -67t168 -178t60 -240q0 -104 -60 -195h121v-313l-72 -74h-61q-227 0 -436 72q-223 -72 -441 -72zM313 563q0 -51 64.5 -91t181.5 -60q94 20 143.5 56.5t49.5 82.5q0 56 -65.5 93t-164.5 36
q-96 0 -152.5 -33t-56.5 -84z" />
    <glyph glyph-name="uni06A1.fina" unicode="&#x6a1;" horiz-adv-x="1988" 
d="M1909 578q0 -98 -54 -189q43 -2 136 -2v-313l-74 -74q-261 0 -487 70q-260 -97 -551 -97q-427 0 -627 145t-199 464q0 143 35 280h330q-31 -138 -31 -203q0 -157 112.5 -219.5t379.5 -62.5q90 0 131 2q-49 88 -49 201q0 130 63.5 241.5t174.5 178.5t243 67
q131 0 239 -67.5t168 -179.5t60 -242zM1217 567q0 -101 243 -143q95 20 145 53.5t50 75.5q0 50 -67.5 88.5t-162.5 38.5q-86 0 -147 -34t-61 -79z" />
    <glyph glyph-name="uni06C2.fina" unicode="&#x6c2;" horiz-adv-x="1200" 
d="M852 1575v-186l-490 -72v188l66 8q-39 51 -39 123q0 95 65 159.5t164 64.5q86 0 140 -55.5t61 -153.5l-117 -17q-25 39 -86 39q-84 0 -84 -53q0 -38 46 -59t112 -11zM1200 387v-313l-74 -74q-193 0 -284.5 66.5t-116.5 216.5q-38 -116 -119 -172t-209 -56
q-176 0 -272 103t-96 288q0 169 95 292t273 186l297 110v203h361v-690q0 -88 32.5 -124t112.5 -36zM283 526q0 -41 38 -62.5t130 -21.5q118 0 180.5 39t62.5 131v140l-262 -99q-84 -32 -116.5 -60t-32.5 -67z" />
    <glyph glyph-name="uni06C3.fina" unicode="&#x6c3;" horiz-adv-x="1486" 
d="M1092 1184q0 -68 -46.5 -114t-115.5 -46t-115.5 46t-46.5 114q0 69 46.5 116.5t115.5 47.5t115.5 -47.5t46.5 -116.5zM721 1184q0 -68 -45.5 -114t-114.5 -46t-116.5 46.5t-47.5 113.5q0 69 47.5 116.5t116.5 47.5t114.5 -47.5t45.5 -116.5zM1487 387v-313l-72 -74
q-167 0 -262.5 28.5t-156 98.5t-107.5 207l-35 96q-18 56 -44.5 76t-78.5 20q-183 0 -657 -264v340q489 311 745 311q136 0 199 -57q71 -61 127 -219l35 -98q37 -97 77 -123q50 -29 158 -29h72z" />
    <glyph glyph-name="uni06CC.init" unicode="&#x6cc;" horiz-adv-x="546" arabic-form="initial" 
d="M33 0h-107v322l74 65q91 0 125.5 45t34.5 156q0 112 -29 346h338q27 -260 27 -410q0 -252 -119 -388t-344 -136zM571 -301q0 -56 -38 -94.5t-95 -38.5t-95 38.5t-38 94.5q0 57 38 96t95 39t95 -39t38 -96zM258 -301q0 -56 -38 -94.5t-95 -38.5t-95 38.5t-38 94.5
q0 57 38 96t95 39t95 -39t38 -96z" />
    <glyph glyph-name="uni06D5.fina" unicode="&#x6d5;" horiz-adv-x="1200" 
d="M1200 387v-313l-74 -74q-193 0 -284.5 66.5t-116.5 216.5q-38 -116 -119 -172t-209 -56q-176 0 -272 103t-96 288q0 169 95 292t273 186l297 110v203h361v-690q0 -88 32.5 -124t112.5 -36zM283 526q0 -41 38 -62.5t130 -21.5q118 0 180.5 39t62.5 131v140l-262 -99
q-84 -32 -116.5 -60t-32.5 -67z" />
    <glyph glyph-name="uniFB51" unicode="&#x671;" horiz-adv-x="614" arabic-form="final" 
d="M82 1268h-141q0 126 49.5 190t144.5 64q51 124 128 192t169 68q100 0 156.5 -63t56.5 -173q0 -241 -231 -241q-49 0 -136 15t-131 15q-65 0 -65 -67zM420 1597q-95 0 -148 -88q85 -18 138 -18q45 0 72.5 13.5t27.5 37.5q0 26 -24 40.5t-66 14.5zM614 387v-313l-71 -74
q-243 0 -344 125q-99 126 -99 430v668h361v-668q0 -93 35 -130.5t118 -37.5z" />
    <glyph glyph-name="uniFB57" unicode="&#x67e;" horiz-adv-x="1972" arabic-form="final" 
d="M1972 74l-71 -74q-146 0 -238.5 63.5t-118.5 180.5q-49 -128 -224 -199.5t-433 -71.5q-440 0 -639 146q-197 144 -197 461q0 128 33 282h330q-29 -129 -29 -207q0 -151 125 -215q123 -63 424 -63q222 0 336 16t160.5 54t46.5 112v232h335v-232q0 -98 35.5 -135t124.5 -37
v-313zM1231 -256q0 -57 -39 -96t-96 -39t-95 39t-38 96t38 95t95 38t96 -38t39 -95zM918 -256q0 -57 -39.5 -96t-96.5 -39t-95 39t-38 96t38 95t95 38t96.5 -38t39.5 -95zM1075 -535q0 -57 -39 -96t-96 -39t-95 39t-38 96t38 95.5t95 38.5t96 -38.5t39 -95.5z" />
    <glyph glyph-name="uniFB58" unicode="&#x67e;" horiz-adv-x="546" arabic-form="initial" 
d="M33 0h-107v322l74 65q91 0 125.5 45t34.5 156q0 112 -29 346h338q27 -260 27 -410q0 -252 -119 -388t-344 -136zM571 -233q0 -57 -39 -96.5t-96 -39.5t-95 39.5t-38 96.5t38 95t95 38t96 -38t39 -95zM258 -233q0 -57 -39 -96.5t-96 -39.5t-95 39.5t-38 96.5t38 95t95 38
t96 -38t39 -95zM416 -512q0 -57 -39 -96t-96 -39t-95.5 39t-38.5 96t38.5 95t95.5 38t96 -38t39 -95z" />
    <glyph glyph-name="uniFB59" unicode="&#x67e;" horiz-adv-x="661" arabic-form="medial" 
d="M662 387v-313l-72 -74q-153 0 -245.5 68t-115.5 196q-19 -128 -96.5 -196t-206.5 -68v322l74 65q92 0 129 40t37 132v232h336v-232q0 -99 34.5 -135.5t125.5 -36.5zM600 -233q0 -57 -39 -96.5t-96 -39.5t-95 39.5t-38 96.5t38 95t95 38t96 -38t39 -95zM287 -233
q0 -57 -39 -96.5t-96 -39.5t-95.5 39.5t-38.5 96.5t38.5 95t95.5 38t96 -38t39 -95zM444 -512q0 -57 -39 -96t-96 -39t-95 39t-38 96t38 95t95 38t96 -38t39 -95z" />
    <glyph glyph-name="uniFB67" unicode="&#x679;" horiz-adv-x="1972" arabic-form="final" 
d="M975 827h-375v187h100q5 15 23 51v418h143v-232q78 60 170 60q98 0 154.5 -64.5t56.5 -175.5q0 -244 -272 -244zM1024 1124q-120 0 -180 -110h127q143 0 143 57q0 25 -24.5 39t-65.5 14zM1972 74l-71 -74q-146 0 -238.5 63.5t-118.5 180.5q-49 -128 -224 -199.5
t-433 -71.5q-440 0 -639 146q-197 144 -197 461q0 128 33 282h330q-29 -129 -29 -207q0 -151 125 -215q123 -63 424 -63q222 0 336 16t160.5 54t46.5 112v232h335v-232q0 -98 35.5 -135t124.5 -37v-313z" />
    <glyph glyph-name="uniFB68" unicode="&#x679;" horiz-adv-x="546" arabic-form="initial" 
d="M324 1057h-375v184h100q2 5 23 53v416h145v-229q83 57 168 57q100 0 156.5 -64t56.5 -176q0 -241 -274 -241zM373 1352q-120 0 -180 -111h129q141 0 141 57q0 26 -24 40t-66 14zM33 0h-107v322l74 65q91 0 125.5 45t34.5 156q0 112 -29 346h338q27 -260 27 -410
q0 -252 -119 -388t-344 -136z" />
    <glyph glyph-name="uniFB69" unicode="&#x679;" horiz-adv-x="661" arabic-form="medial" 
d="M373 913h-375v185h100q2 5 23 53v416h143v-232q78 60 170 60q98 0 154.5 -64t56.5 -176q0 -242 -272 -242zM422 1208q-120 0 -180 -110h127q143 0 143 57q0 53 -90 53zM662 387v-313l-72 -74q-153 0 -245.5 68t-115.5 196q-19 -128 -96.5 -196t-206.5 -68v322l74 65
q92 0 129 40t37 132v232h336v-232q0 -99 34.5 -135.5t125.5 -36.5z" />
    <glyph glyph-name="uniFB6B" unicode="&#x6a4;" horiz-adv-x="1988" arabic-form="final" 
d="M1575 1589q0 -57 -38 -95t-95 -38t-96 38t-39 95t39 96t96 39t95 -39t38 -96zM1417 1311q0 -57 -38 -95t-95 -38t-95 38t-38 95t38 96t95 39t95 -39t38 -96zM1731 1311q0 -57 -38.5 -95t-95.5 -38t-95 38t-38 95t38 96t95 39t95.5 -39t38.5 -96zM1909 578q0 -98 -54 -189
q43 -2 136 -2v-313l-74 -74q-261 0 -487 70q-260 -97 -551 -97q-427 0 -627 145t-199 464q0 143 35 280h330q-31 -138 -31 -203q0 -157 112.5 -219.5t379.5 -62.5q90 0 131 2q-49 88 -49 201q0 130 63.5 241.5t174.5 178.5t243 67q131 0 239 -67.5t168 -179.5t60 -242z
M1217 567q0 -101 243 -143q95 20 145 53.5t50 75.5q0 50 -67.5 88.5t-162.5 38.5q-86 0 -147 -34t-61 -79z" />
    <glyph glyph-name="uniFB6C" unicode="&#x6a4;" horiz-adv-x="1079" arabic-form="initial" 
d="M618 1849q0 -57 -38 -95t-95 -38t-96 38t-39 95t39 96.5t96 39.5t95 -39.5t38 -96.5zM461 1571q0 -57 -38 -95t-95 -38t-95 38t-38 95t38 96t95 39t95 -39t38 -96zM774 1571q0 -57 -38 -95t-95 -38t-95 38t-38 95t38 96t95 39t95 -39t38 -96zM457 0h-531v322l74 65h479
q159 0 222.5 26t76.5 105q-115 -47 -334 -47q-189 0 -297 96.5t-108 257.5q0 129 64 244t171 184.5t228 69.5q139 0 253.5 -90t182.5 -258t68 -383q0 -303 -131.5 -447.5t-417.5 -144.5zM279 852q0 -88 180 -88q168 0 282 12q-43 86 -124 135.5t-171 49.5q-81 0 -124 -32
t-43 -77z" />
    <glyph glyph-name="uniFB6D" unicode="&#x6a4;" horiz-adv-x="1067" arabic-form="medial" 
d="M672 1589q0 -57 -38 -95t-95 -38t-96.5 38t-39.5 95t39.5 96t96.5 39t95 -39t38 -96zM516 1311q0 -57 -38 -95t-95 -38t-96 38t-39 95t39 96t96 39t95 -39t38 -96zM829 1311q0 -57 -38 -95t-95 -38t-96 38t-39 95t39 96t96 39t95 -39t38 -96zM57 0h-131v322l74 65h104
q-47 89 -47 195q0 199 140.5 342t341.5 143q131 0 239 -67t168 -178t60 -240q0 -104 -60 -195h121v-313l-72 -74h-61q-227 0 -436 72q-223 -72 -441 -72zM313 563q0 -51 64.5 -91t181.5 -60q94 20 143.5 56.5t49.5 82.5q0 56 -65.5 93t-164.5 36q-96 0 -152.5 -33t-56.5 -84
z" />
    <glyph glyph-name="uniFB7B" unicode="&#x686;" horiz-adv-x="1474" arabic-form="final" 
d="M1475 387v-309l-72 -78q-194 0 -296.5 115.5t-102.5 322.5v56q-299 -47 -472 -168q-174 -119 -174 -279q0 -146 120.5 -220.5t355.5 -74.5q141 0 282.5 29t253.5 74v-420q-114 -49 -264.5 -78t-304.5 -29q-366 0 -572 170t-206 457q0 584 770 721l-27 8l-135 41
q-92 31 -168 31q-44 0 -72.5 -22.5t-34.5 -61.5h-288q1 221 105 346t284 125q133 0 331 -78l263 -104q181 -74 286 -74h35l-2 -369h-41q-53 0 -78 -2v-27q0 -57 48 -79.5t176 -22.5zM1022 193q0 -53 -36 -89t-87 -36q-54 0 -88.5 35.5t-34.5 89.5q0 51 34.5 85.5t88.5 34.5
q51 0 87 -34.5t36 -85.5zM733 193q0 -54 -34.5 -89.5t-88.5 -35.5q-51 0 -86 35.5t-35 89.5q0 51 35 85.5t86 34.5q54 0 88.5 -34.5t34.5 -85.5zM879 -66q0 -51 -36 -86.5t-87 -35.5q-53 0 -88 35t-35 87t35 87.5t88 35.5q51 0 87 -36t36 -87z" />
    <glyph glyph-name="uniFB7C" unicode="&#x686;" horiz-adv-x="1458" arabic-form="initial" 
d="M174 0h-248v322l74 65h174q317 0 500 82l139 59l70 29q-23 4 -69.5 15t-68.5 16l-163 41q-91 24 -150 24q-41 0 -67.5 -22.5t-32.5 -61.5h-287q1 221 105 346t284 125q92 0 262 -51l351 -102q101 -34 165 -43q72 -10 160 -10h45l-2 -338h-65q-106 0 -184 -36t-226 -143
l-158 -112q-169 -123 -290.5 -164t-317.5 -41zM1022 -233q0 -57 -39 -96.5t-96 -39.5t-95 39.5t-38 96.5t38 95t95 38t96 -38t39 -95zM709 -233q0 -57 -39.5 -96.5t-96.5 -39.5t-95 39.5t-38 96.5t38 95t95 38t96.5 -38t39.5 -95zM864 -512q0 -57 -38 -96t-95 -39t-95 39
t-38 96t38 95t95 38t95 -38t38 -95z" />
    <glyph glyph-name="uniFB7D" unicode="&#x686;" horiz-adv-x="1470" arabic-form="medial" 
d="M174 0h-248v322l74 65h174q317 0 500 82l139 59l70 29q-23 4 -69.5 15t-68.5 16l-163 41q-91 24 -150 24q-41 0 -67.5 -22.5t-32.5 -61.5h-287q1 221 105 346t284 125q92 0 262 -51l351 -102q101 -34 165 -43q72 -10 160 -10h45l-2 -338h-65q-44 0 -105 -11
q1 -57 49 -77.5t176 -20.5v-309l-73 -78q-175 0 -276 94t-120 266q-8 -4 -17.5 -11t-22.5 -16.5t-21 -15.5l-158 -112q-169 -123 -290.5 -164t-317.5 -41zM1022 -233q0 -57 -39 -96.5t-96 -39.5t-95 39.5t-38 96.5t38 95t95 38t96 -38t39 -95zM709 -233q0 -57 -39.5 -96.5
t-96.5 -39.5t-95 39.5t-38 96.5t38 95t95 38t96.5 -38t39.5 -95zM864 -512q0 -57 -38 -96t-95 -39t-95 39t-38 96t38 95t95 38t95 -38t38 -95z" />
    <glyph glyph-name="uniFB89" unicode="&#x688;" horiz-adv-x="1263" arabic-form="final" 
d="M705 1245h-375v187h98l25 53v413h143v-229q83 57 168 57q100 0 156.5 -63.5t56.5 -175.5q0 -242 -272 -242zM752 1542q-116 0 -179 -110h127q144 0 144 55q0 26 -25 40.5t-67 14.5zM1264 387v-313l-74 -74q-103 0 -174 32.5t-129 112.5q-195 -174 -426 -174
q-231 1 -328.5 120t-97.5 380h303q5 -60 39 -85.5t127 -25.5q140 0 256 37q-9 28 -39 103l-227 620h407l170 -493q53 -154 82 -193q35 -47 111 -47z" />
    <glyph glyph-name="uniFB8B" unicode="&#x698;" horiz-adv-x="792" arabic-form="final" 
d="M487 1313q0 -57 -38 -95t-95 -38t-96 38t-39 95t39 96t96 39t95 -39t38 -96zM332 1034q0 -57 -38 -95t-95 -38t-96.5 38t-39.5 95t39.5 96t96.5 39t95 -39t38 -96zM645 1034q0 -57 -38 -95t-95 -38t-96 38t-39 95t39 96t96 39t95 -39t38 -96zM793 74l-72 -74
q-147 0 -213 96q-15 -602 -457 -602q-97 0 -182 10v390q105 -11 145 -11q260 0 260 353q0 207 -73 555h352l29 -183q20 -127 65.5 -174t145.5 -47v-313z" />
    <glyph glyph-name="uniFB8D" unicode="&#x691;" horiz-adv-x="792" arabic-form="final" 
d="M393 913h-375v185h101q5 14 22 53v416h144v-232q78 60 170 60q98 0 154.5 -64t56.5 -176q0 -242 -273 -242zM442 1208q-120 0 -180 -110h127q143 0 143 57q0 53 -90 53zM793 74l-72 -74q-147 0 -213 96q-15 -602 -457 -602q-97 0 -182 10v390q105 -11 145 -11
q260 0 260 353q0 207 -73 555h352l29 -183q20 -127 65.5 -174t145.5 -47v-313z" />
    <glyph glyph-name="uniFB8F" unicode="&#x6a9;" horiz-adv-x="1869" arabic-form="final" 
d="M1368 281l-2 2q-15 -139 -174 -226q-159 -84 -395 -84q-386 0 -568 146.5t-182 460.5q0 128 33 282h330q-29 -145 -29 -207q0 -151 111 -215q111 -63 385 -63q174 0 245.5 18.5t71.5 57.5q0 23 -16 46.5t-64 71.5l-211 230v313l963 504v-361l-606 -317l299 -338
q115 -130 174 -172q64 -43 137 -43v-313l-74 -74q-81 0 -141 25t-123 81.5t-164 174.5z" />
    <glyph glyph-name="uniFB90" unicode="&#x6a9;" horiz-adv-x="1013" arabic-form="initial" 
d="M395 0h-469v322l74 65h514q102 0 102 59q0 32 -32 57.5t-121 67.5l-420 164v330l961 506l-3 -361l-563 -290l113 -52q184 -69 268 -171t84 -257q0 -207 -130.5 -323.5t-377.5 -116.5z" />
    <glyph glyph-name="uniFB91" unicode="&#x6a9;" horiz-adv-x="1028" arabic-form="medial" 
d="M180 0h-254v322l74 65h248q104 0 104 64q0 25 -14 46t-55 66l-234 252v313l961 490v-361l-602 -305l303 -350q111 -126 172 -172q64 -43 145 -43v-313l-74 -74q-132 0 -221 57q-89 59 -209 222q-13 -126 -110 -202.5t-234 -76.5z" />
    <glyph glyph-name="uniFB93" unicode="&#x6af;" horiz-adv-x="1869" arabic-form="final" 
d="M1866 1997l-2 -244l-961 -504v244zM1368 281l-2 2q-15 -139 -174 -226q-159 -84 -395 -84q-386 0 -568 146.5t-182 460.5q0 128 33 282h330q-29 -145 -29 -207q0 -151 111 -215q111 -63 385 -63q174 0 245.5 18.5t71.5 57.5q0 23 -16 46.5t-64 71.5l-211 230v313l963 504
v-361l-606 -317l299 -338q115 -130 174 -172q64 -43 137 -43v-313l-74 -74q-81 0 -141 25t-123 81.5t-164 174.5z" />
    <glyph glyph-name="uniFB94" unicode="&#x6af;" horiz-adv-x="1013" arabic-form="initial" 
d="M1004 1950l-3 -244l-958 -506v244zM395 0h-469v322l74 65h514q102 0 102 59q0 32 -32 57.5t-121 67.5l-420 164v330l961 506l-3 -361l-563 -290l113 -52q184 -69 268 -171t84 -257q0 -207 -130.5 -323.5t-377.5 -116.5z" />
    <glyph glyph-name="uniFB95" unicode="&#x6af;" horiz-adv-x="1028" arabic-form="medial" 
d="M1024 1997l-4 -244l-959 -504v244zM180 0h-254v322l74 65h248q104 0 104 64q0 25 -14 46t-55 66l-234 252v313l961 490v-361l-602 -305l303 -350q111 -126 172 -172q64 -43 145 -43v-313l-74 -74q-132 0 -221 57q-89 59 -209 222q-13 -126 -110 -202.5t-234 -76.5z" />
    <glyph glyph-name="uniFB9F" unicode="&#x6ba;" horiz-adv-x="1562" arabic-form="final" 
d="M1563 74l-74 -74q-142 0 -215 82q-31 -244 -175.5 -362.5t-410.5 -118.5q-167 0 -291.5 46.5t-201.5 134.5t-114.5 208t-37.5 274q0 109 33 309h327q-24 -114 -24 -215q-2 -174 80 -264t270 -90q190 0 280.5 66.5t90.5 203.5q0 99 -35 285l-16 88h335l19 -98
q19 -94 52 -128t108 -34v-313z" />
    <glyph glyph-name="uniFBA7" unicode="&#x6c1;" horiz-adv-x="1486" arabic-form="final" 
d="M1487 387v-313l-72 -74q-167 0 -262.5 28.5t-156 98.5t-107.5 207l-35 96q-18 56 -44.5 76t-78.5 20q-183 0 -657 -264v340q489 311 745 311q136 0 199 -57q71 -61 127 -219l35 -98q37 -97 77 -123q50 -29 158 -29h72z" />
    <glyph glyph-name="uniFBA8" unicode="&#x6c1;" horiz-adv-x="1075" arabic-form="initial" 
d="M1024 473q0 -241 -114 -370.5t-314 -129.5q-148 0 -241.5 66t-118.5 188q-19 -110 -99 -168.5t-211 -58.5l2 322l72 65q91 0 130.5 37.5t39.5 124.5v98h336v-98q0 -174 98 -174q43 0 64.5 30.5t21.5 102.5q0 73 -24 211h338q20 -126 20 -246zM754 -635h-338
q-23 70 -23 131q0 63 23 128.5t80 170.5l53 101l248 -101l-29 -92q-31 -114 -31 -180t17 -158z" />
    <glyph glyph-name="uniFBA9" unicode="&#x6c1;" horiz-adv-x="1208" arabic-form="medial" 
d="M965 -199l-2 -188l-269 -238l-356 357q-170 170 -125 362q-113 -94 -287 -94v322l74 65q131 0 193 39q60 38 133 123l55 65l229 -196l-67 -82q-146 -183 26 -352l115 -115v76q0 202 113 321q115 121 411 121v-313l-71 -74q-88 0 -130 -48.5t-42 -150.5z" />
    <glyph glyph-name="uniFBAB" unicode="&#x6be;" horiz-adv-x="1267" arabic-form="final" 
d="M1219 -164q0 -141 -113 -242q-109 -100 -313 -100q-184 0 -341 133.5t-257 372.5q-67 2 -175 18v383q114 -13 211 -16q140 239 410 498h354q105 -124 105 -293q0 -106 -51 -203h219v-313l-72 -74h-20q43 -68 43 -164zM860 526q0 34 -34 69.5t-101 66.5
q-146 -128 -244 -277q219 3 301 35q78 35 78 106zM954 -68q0 39 -62 71.5t-216 66.5q-133 -53 -219 -64q124 -139 346 -139q151 0 151 65z" />
    <glyph glyph-name="uniFBAC" unicode="&#x6be;" horiz-adv-x="1335" arabic-form="initial" 
d="M1296 487q0 -240 -141.5 -377t-392.5 -137q-213 0 -391 90q-198 -63 -445 -63v322l74 65h76q-33 108 -33 197q0 115 56 208.5t151 143.5v260l379 -100q372 -102 518 -236q149 -134 149 -373zM297 584q0 -103 127 -162q96 25 135 65.5t39 96.5q0 57 -45.5 96t-108.5 39
q-67 0 -107 -38t-40 -97zM831 584q0 -118 -55 -222q23 -2 70 -2q101 0 147.5 26t46.5 85q0 56 -49.5 96t-161.5 76q2 -18 2 -59z" />
    <glyph glyph-name="uniFBAD" unicode="&#x6be;" horiz-adv-x="1122" arabic-form="medial" 
d="M1073 -164q0 -142 -112 -242q-109 -100 -314 -100q-184 0 -341 133.5t-257 372.5h-123v322l74 65l86 -2q140 239 410 498h354q104 -122 104 -293q0 -108 -53 -203h221v-313l-71 -74h-21q43 -68 43 -164zM715 526q0 72 -148 142q-131 -126 -231 -281q220 6 299 37
q80 35 80 102zM809 -68q0 39 -65 72.5t-224 67.5q-119 -47 -215 -60q60 -69 151 -107t201 -38q152 0 152 65z" />
    <glyph glyph-name="uniFBAF" unicode="&#x6d2;" horiz-adv-x="1953" arabic-form="final" 
d="M1905 -211v-387q-321 -37 -781 -37q-536 0 -791 108t-255 334q0 91 42.5 176.5t128 158.5t204.5 128t280.5 86t347.5 31h873v-321l-74 -66h-799q-369 0 -534 -51q-166 -52 -166 -107q0 -26 35 -43t122.5 -27.5t227 -15t358.5 -4.5q440 0 781 37z" />
    <glyph glyph-name="uniFBB1" unicode="&#x6d3;" horiz-adv-x="1953" arabic-form="final" 
d="M997 725v-186l-487 -72v188l65 9q-40 52 -40 122q2 95 67 159.5t162 64.5q88 0 141.5 -55.5t59.5 -153.5l-117 -17q-22 39 -84 39q-84 0 -84 -53q0 -37 45 -57t111 -13zM1905 -211v-387q-321 -37 -781 -37q-536 0 -791 108t-255 334q0 91 42.5 176.5t128 158.5t204.5 128
t280.5 86t347.5 31h873v-321l-74 -66h-799q-369 0 -534 -51q-166 -52 -166 -107q0 -26 35 -43t122.5 -27.5t227 -15t358.5 -4.5q440 0 781 37z" />
    <glyph glyph-name="uniFBFD" unicode="&#x6cc;" horiz-adv-x="1648" arabic-form="final" 
d="M1585 -119q0 -64 -37 -124t-108 -110t-167 -87.5t-222 -58.5t-265 -21q-743 0 -743 624q0 153 41 314h328q-33 -161 -33 -238q0 -297 440 -297q233 0 358.5 25t125.5 67q0 60 -177 60h-63v352h586v-313l-74 -74h-33q43 -49 43 -119z" />
    <glyph glyph-name="uniFBFF" unicode="&#x6cc;" horiz-adv-x="661" arabic-form="medial" 
d="M662 387v-313l-72 -74q-153 0 -245.5 68t-115.5 196q-19 -128 -96.5 -196t-206.5 -68v322l74 65q92 0 129 40t37 132v232h336v-232q0 -99 34.5 -135.5t125.5 -36.5zM600 -301q0 -56 -38 -94.5t-95 -38.5t-96 38.5t-39 94.5q0 57 39 96t96 39t95 -39t38 -96zM287 -301
q0 -56 -38 -94.5t-95 -38.5t-96.5 38.5t-39.5 94.5q0 57 39.5 96t96.5 39t95 -39t38 -96z" />
    <glyph glyph-name="uniFDFC" unicode="&#xfdfc;" horiz-adv-x="2713" arabic-form="isolated" 
d="M1454 784v-452q0 -351 -191 -541t-538 -190t-514.5 155.5t-167.5 444.5q0 124 31 276h327q-24 -88 -24 -186q-2 -141 80.5 -214t267.5 -73q205 0 290 72.5t85 255.5v239q-194 -92 -375 -92q-483 0 -483 490q0 126 24 270h357q-23 -115 -23 -192q0 -87 48.5 -126.5
t148.5 -39.5q145 0 303 73v662h354v-440l195 127l8 6v307h354v-125q92 25 182 25q209 0 311.5 -112t102.5 -349h-336q0 106 -121 106q-65 0 -139 -26v-570q0 -103 35.5 -140.5t124.5 -37.5t123.5 45t34.5 156q0 67 -29 262h336q28 -204 28 -326q0 -524 -493 -524
q-152 0 -249.5 28.5t-157.5 98t-83.5 173t-23.5 265.5v348zM2167 -229q0 -57 -38 -95t-95 -38t-96.5 38t-39.5 95t39.5 96t96.5 39t95 -39t38 -96zM2460 -229q0 -57 -38 -95t-95 -38t-96.5 38t-39.5 95t39.5 96t96.5 39t95 -39t38 -96z" />
    <glyph glyph-name="uniFE82" unicode="&#x622;" horiz-adv-x="614" arabic-form="final" 
d="M84 1280h-141q0 270 207 270q56 0 150.5 -17t143.5 -17q55 0 117 16v-197q-55 -22 -123 -22q-87 0 -153 16q-62 19 -135 19q-66 0 -66 -68zM614 387v-313l-71 -74q-243 0 -344 125q-99 126 -99 430v668h361v-668q0 -93 35 -130.5t118 -37.5z" />
    <glyph glyph-name="uniFE84" unicode="&#x623;" horiz-adv-x="614" arabic-form="final" 
d="M514 1556v-188l-489 -70v187l67 8q-41 53 -41 125q2 94 67 158.5t163 64.5q88 0 141 -55.5t59 -155.5l-116 -14q-25 39 -86 39q-84 0 -84 -53q0 -37 46 -58.5t111 -11.5zM614 387v-313l-71 -74q-243 0 -344 125q-99 126 -99 430v668h361v-668q0 -93 35 -130.5t118 -37.5z
" />
    <glyph glyph-name="uniFE86" unicode="&#x624;" horiz-adv-x="1050" arabic-form="final" 
d="M748 1292v-188l-488 -70v187l66 8q-41 53 -41 125q2 95 67 159t162 64q88 0 141.5 -56t59.5 -155l-117 -14q-24 39 -86 39q-82 0 -82 -54q0 -37 45.5 -58t110.5 -11zM1051 387v-313l-56 -58q-17 -118 -58.5 -211t-111.5 -164t-175.5 -109t-241.5 -38q-147 0 -328 39v354
q171 -37 317 -37q165 0 249.5 33t115.5 117h-256q-221 0 -344 113t-123 307q0 104 38 202t102.5 171t155 117t189.5 44q182 0 309 -148.5t162 -418.5h56zM457 387h288q-41 100 -121 153.5t-186 53.5q-69 0 -114 -33.5t-45 -83.5q0 -90 178 -90z" />
    <glyph glyph-name="uniFE88" unicode="&#x625;" horiz-adv-x="610" arabic-form="final" 
d="M610 74l-71 -74h-35q-219 0 -313.5 112t-94.5 351v1073h361v-981q0 -99 31.5 -133.5t121.5 -34.5v-313zM541 -377v-186l-488 -70v187l64 8q-39 51 -39 123q2 95 67 160t162 65q88 0 141.5 -56.5t59.5 -154.5l-117 -16q-21 38 -86 38q-82 0 -82 -53q0 -36 45.5 -56.5
t110.5 -10.5z" />
    <glyph glyph-name="uniFE8A" unicode="&#x626;" horiz-adv-x="1648" arabic-form="final" 
d="M487 756v-187l-489 -71v188l65 8q-38 49 -38 123q0 94 65.5 158.5t163.5 64.5q88 0 141.5 -55.5t59.5 -153.5l-117 -16q-25 39 -86 39q-84 0 -84 -53q0 -37 45.5 -57t112.5 -13zM1585 -119q0 -64 -37 -124t-108 -110t-167 -87.5t-222 -58.5t-265 -21q-743 0 -743 624
q0 153 41 314h328q-33 -161 -33 -238q0 -297 440 -297q233 0 358.5 25t125.5 67q0 60 -177 60h-63v352h586v-313l-74 -74h-33q43 -49 43 -119z" />
    <glyph glyph-name="uniFE8B" unicode="&#x626;" horiz-adv-x="546" arabic-form="initial" 
d="M526 1272v-189l-487 -69v186l65 8q-41 53 -41 125q2 94 67 158.5t163 64.5q88 0 141.5 -55.5t59.5 -154.5l-117 -15q-24 39 -86 39q-82 0 -82 -53q0 -38 45.5 -59t110.5 -11zM33 0h-107v322l74 65q91 0 125.5 45t34.5 156q0 112 -29 346h338q27 -260 27 -410
q0 -252 -119 -388t-344 -136z" />
    <glyph glyph-name="uniFE8C" unicode="&#x626;" horiz-adv-x="661" arabic-form="medial" 
d="M575 1128v-188l-489 -70v187l68 8q-41 53 -41 125q2 95 67 159t162 64q88 0 141.5 -56t59.5 -155l-117 -14q-27 39 -86 39q-84 0 -84 -53q0 -37 46.5 -58.5t111.5 -11.5zM662 387v-313l-72 -74q-153 0 -245.5 68t-115.5 196q-19 -128 -96.5 -196t-206.5 -68v322l74 65
q92 0 129 40t37 132v232h336v-232q0 -99 34.5 -135.5t125.5 -36.5z" />
    <glyph glyph-name="uniFE8E" unicode="&#x627;" horiz-adv-x="610" arabic-form="final" 
d="M610 74l-71 -74h-35q-219 0 -313.5 112t-94.5 351v1073h361v-981q0 -99 31.5 -133.5t121.5 -34.5v-313z" />
    <glyph glyph-name="uniFE90" unicode="&#x628;" horiz-adv-x="1972" arabic-form="final" 
d="M1972 74l-71 -74q-146 0 -238.5 63.5t-118.5 180.5q-49 -128 -224 -199.5t-433 -71.5q-440 0 -639 146q-197 144 -197 461q0 128 33 282h330q-29 -129 -29 -207q0 -151 125 -215q123 -63 424 -63q222 0 336 16t160.5 54t46.5 112v232h335v-232q0 -98 35.5 -135t124.5 -37
v-313zM1094 -295q0 -69 -45.5 -115.5t-114.5 -46.5t-116.5 46.5t-47.5 115.5t47.5 116.5t116.5 47.5t114.5 -47.5t45.5 -116.5z" />
    <glyph glyph-name="uniFE91" unicode="&#x628;" horiz-adv-x="546" arabic-form="initial" 
d="M33 0h-107v322l74 65q91 0 125.5 45t34.5 156q0 112 -29 346h338q27 -260 27 -410q0 -252 -119 -388t-344 -136zM436 -272q0 -69 -46.5 -115.5t-115.5 -46.5t-115 46.5t-46 115.5t46 116t115 47t115.5 -47t46.5 -116z" />
    <glyph glyph-name="uniFE92" unicode="&#x628;" horiz-adv-x="661" arabic-form="medial" 
d="M662 387v-313l-72 -74q-153 0 -245.5 68t-115.5 196q-19 -128 -96.5 -196t-206.5 -68v322l74 65q92 0 129 40t37 132v232h336v-232q0 -99 34.5 -135.5t125.5 -36.5zM465 -272q0 -69 -46.5 -115.5t-115.5 -46.5t-116.5 46.5t-47.5 115.5t47.5 116t116.5 47t115.5 -47
t46.5 -116z" />
    </font>
</defs>
</svg>
